<svg width="24" height="23" viewBox="0 0 24 23" fill="none" xmlns="http://www.w3.org/2000/svg">
<path d="M1.60156 13.4002V9.2002C1.60156 7.54334 2.94471 6.2002 4.60156 6.2002H19.4016C21.0584 6.2002 22.4016 7.54334 22.4016 9.2002V18.4002C22.4016 20.0571 21.0584 21.4002 19.4016 21.4002H9.60156" stroke="#354B55" stroke-width="1.5" stroke-linecap="round"/>
<path fill-rule="evenodd" clip-rule="evenodd" d="M18.4008 15.0002C19.2844 15.0002 20.0008 14.2838 20.0008 13.4002C20.0008 12.5165 19.2844 11.8002 18.4008 11.8002C17.5171 11.8002 16.8008 12.5165 16.8008 13.4002C16.8008 14.2838 17.5171 15.0002 18.4008 15.0002Z" fill="#354B55"/>
<path d="M18.4016 6.2002V2.85166C18.4016 1.5229 17.1298 0.56357 15.8521 0.928607L3.7774 4.37853C2.48949 4.7465 1.60156 5.92366 1.60156 7.2631V9.4002" stroke="#354B55" stroke-width="1.5" stroke-linecap="round"/>
<path fill-rule="evenodd" clip-rule="evenodd" d="M6.40078 22.2002C9.49358 22.2002 12.0008 19.693 12.0008 16.6002C12.0008 13.5074 9.49358 11.0002 6.40078 11.0002C3.30799 11.0002 0.800781 13.5074 0.800781 16.6002C0.800781 19.693 3.30799 22.2002 6.40078 22.2002Z" stroke="#354B55" stroke-width="1.5" stroke-linecap="round"/>
<path d="M4.80078 17.0002L5.92335 18.1227C5.96493 18.1643 6.03324 18.1612 6.07088 18.116L8.00078 15.8002" stroke="#354B55" stroke-width="1.5" stroke-linecap="round"/>
</svg>
