<svg width="24" height="24" viewBox="0 0 24 24" fill="none" xmlns="http://www.w3.org/2000/svg">
<path fill-rule="evenodd" clip-rule="evenodd" d="M18.921 21.002C20.0683 21.002 20.9983 20.072 20.9983 18.9247C20.9983 17.7774 20.0683 16.8474 18.921 16.8474C17.7738 16.8474 16.8438 17.7774 16.8438 18.9247C16.8438 20.072 17.7738 21.002 18.921 21.002Z" stroke="white" stroke-width="1.29831" stroke-linecap="round"/>
<path fill-rule="evenodd" clip-rule="evenodd" d="M18.2268 8.53823C19.7564 8.53823 20.9965 7.29819 20.9965 5.76851C20.9965 4.23883 19.7564 2.99878 18.2268 2.99878C16.6971 2.99878 15.457 4.23883 15.457 5.76851C15.457 7.29819 16.6971 8.53823 18.2268 8.53823Z" stroke="white" stroke-width="1.29831" stroke-linecap="round"/>
<path fill-rule="evenodd" clip-rule="evenodd" d="M11.9967 13.7318C12.9528 13.7318 13.7278 12.9568 13.7278 12.0007C13.7278 11.0447 12.9528 10.2697 11.9967 10.2697C11.0407 10.2697 10.2656 11.0447 10.2656 12.0007C10.2656 12.9568 11.0407 13.7318 11.9967 13.7318Z" stroke="white" stroke-width="1.29831" stroke-linecap="round"/>
<path fill-rule="evenodd" clip-rule="evenodd" d="M4.72717 6.46094C5.68322 6.46094 6.45825 5.68591 6.45825 4.72986C6.45825 3.77381 5.68322 2.99878 4.72717 2.99878C3.77112 2.99878 2.99609 3.77381 2.99609 4.72986C2.99609 5.68591 3.77112 6.46094 4.72717 6.46094Z" stroke="white" stroke-width="1.29831" stroke-linecap="round"/>
<path fill-rule="evenodd" clip-rule="evenodd" d="M6.11204 21.0017C7.83293 21.0017 9.22798 19.6066 9.22798 17.8857C9.22798 16.1648 7.83293 14.7698 6.11204 14.7698C4.39115 14.7698 2.99609 16.1648 2.99609 17.8857C2.99609 19.6066 4.39115 21.0017 6.11204 21.0017Z" stroke="white" stroke-width="1.29831" stroke-linecap="round"/>
<path d="M17.1912 17.1936L13.3828 13.3853" stroke="white" stroke-width="1.29831" stroke-linecap="round"/>
<path d="M6.11328 6.11438L10.6141 10.6152" stroke="white" stroke-width="1.29831" stroke-linecap="round"/>
<path d="M13.3828 10.6152L16.1525 7.84546" stroke="white" stroke-width="1.29831" stroke-linecap="round"/>
<path d="M8.53516 15.4625L10.8391 13.3853" stroke="white" stroke-width="1.29831" stroke-linecap="round"/>
</svg>
