<svg width="32" height="32" viewBox="0 0 32 32" fill="none" xmlns="http://www.w3.org/2000/svg">
<path d="M24.0558 16.8145C24.0422 14.4701 25.0892 12.7033 27.2035 11.4005C26.021 9.68171 24.232 8.73639 21.8738 8.5542C19.6409 8.37545 17.198 9.8742 16.3035 9.8742C15.3582 9.8742 13.1965 8.61608 11.4956 8.61608C7.98534 8.67108 4.25488 11.4555 4.25488 17.1205C4.25488 18.7945 4.55644 20.5236 5.15954 22.3042C5.96595 24.6486 8.87306 30.3926 11.9055 30.2998C13.4912 30.262 14.6128 29.1586 16.6762 29.1586C18.6787 29.1586 19.7155 30.2998 21.4841 30.2998C24.5437 30.2551 27.173 25.0336 27.9387 22.6823C23.8356 20.7195 24.0558 16.9348 24.0558 16.8145ZM20.4948 6.33014C22.2126 4.26077 22.0567 2.37702 22.0059 1.69983C20.488 1.7892 18.7329 2.74827 17.7333 3.92733C16.6321 5.19233 15.985 6.75639 16.1239 8.51983C17.7638 8.64702 19.2614 7.79108 20.4948 6.33014Z" fill="white"/>
</svg>
