<svg width="24" height="24" viewBox="0 0 24 24" fill="none" xmlns="http://www.w3.org/2000/svg">
<g clip-path="url(#clip0_2900:10260)">
<path d="M11.9959 4.49981C12.1275 4.49905 12.258 4.52428 12.3798 4.57404C12.5017 4.62381 12.6125 4.69713 12.7059 4.78981L16.7059 8.78981C16.7991 8.88305 16.8731 8.99374 16.9236 9.11557C16.974 9.23739 17 9.36796 17 9.49981C17 9.63167 16.974 9.76224 16.9236 9.88406C16.8731 10.0059 16.7991 10.1166 16.7059 10.2098C16.6127 10.3031 16.502 10.377 16.3802 10.4275C16.2583 10.4779 16.1278 10.5039 15.9959 10.5039C15.864 10.5039 15.7335 10.4779 15.6117 10.4275C15.4898 10.377 15.3791 10.3031 15.2859 10.2098L11.9959 6.89981L8.69591 10.0798C8.60392 10.1821 8.49181 10.2643 8.3666 10.3213C8.24138 10.3783 8.10576 10.4088 7.96821 10.411C7.83065 10.4132 7.69413 10.387 7.56717 10.334C7.44022 10.281 7.32556 10.2024 7.23038 10.103C7.13519 10.0037 7.06152 9.88581 7.01398 9.75672C6.96644 9.62762 6.94604 9.49011 6.95407 9.35277C6.9621 9.21544 6.99838 9.08123 7.06064 8.95856C7.1229 8.83588 7.2098 8.72737 7.31591 8.63982L11.3159 4.77981C11.4988 4.6035 11.7419 4.50339 11.9959 4.49981Z" fill="#15B176"/>
<line x1="11.9961" y1="16" x2="11.9961" y2="7" stroke="#15B176" stroke-width="2" stroke-linecap="round"/>
</g>
<defs>
<clipPath id="clip0_2900:10260">
<rect width="24" height="24" fill="white" transform="translate(24 24) rotate(-180)"/>
</clipPath>
</defs>
</svg>
