<svg width="24" height="24" viewBox="0 0 24 24" fill="none" xmlns="http://www.w3.org/2000/svg">
<path d="M12.0041 18.5002C11.8725 18.5009 11.742 18.4757 11.6202 18.426C11.4983 18.3762 11.3875 18.3029 11.2941 18.2102L7.29409 14.2102C7.20085 14.1169 7.12689 14.0063 7.07643 13.8844C7.02597 13.7626 7 13.632 7 13.5002C7 13.3683 7.02597 13.2378 7.07643 13.1159C7.12689 12.9941 7.20085 12.8834 7.29409 12.7902C7.38733 12.6969 7.49802 12.623 7.61984 12.5725C7.74166 12.5221 7.87223 12.4961 8.00409 12.4961C8.13595 12.4961 8.26652 12.5221 8.38834 12.5725C8.51016 12.623 8.62085 12.6969 8.71409 12.7902L12.0041 16.1002L15.3041 12.9202C15.3961 12.8179 15.5082 12.7357 15.6334 12.6787C15.7586 12.6217 15.8942 12.5912 16.0318 12.589C16.1693 12.5868 16.3059 12.613 16.4328 12.666C16.5598 12.719 16.6744 12.7976 16.7696 12.897C16.8648 12.9963 16.9385 13.1142 16.986 13.2433C17.0336 13.3724 17.054 13.5099 17.0459 13.6472C17.0379 13.7846 17.0016 13.9188 16.9394 14.0414C16.8771 14.1641 16.7902 14.2726 16.6841 14.3602L12.6841 18.2202C12.5012 18.3965 12.2581 18.4966 12.0041 18.5002Z" fill="#FF4242"/>
<line x1="12.0039" y1="7" x2="12.0039" y2="16" stroke="#FF4242" stroke-width="2" stroke-linecap="round"/>
</svg>
