<svg width="140" height="143" viewBox="0 0 140 143" fill="none" xmlns="http://www.w3.org/2000/svg">
<path d="M20.7086 6.29147C22.2049 5.80572 23.0236 4.20045 22.5373 2.70598C22.0509 1.21151 20.4437 0.39378 18.9475 0.879521C17.4512 1.36526 16.6325 2.97054 17.1188 4.46501C17.6052 5.95947 19.2124 6.77721 20.7086 6.29147Z" fill="#EAEEF9"/>
<path d="M20.7086 6.29147C22.2049 5.80572 23.0236 4.20045 22.5373 2.70598C22.0509 1.21151 20.4437 0.39378 18.9475 0.879521C17.4512 1.36526 16.6325 2.97054 17.1188 4.46501C17.6052 5.95947 19.2124 6.77721 20.7086 6.29147Z" fill="url(#paint0_linear_3281_17164)"/>
<path d="M125.485 121.322C126.503 120.991 127.059 119.9 126.729 118.883C126.398 117.867 125.305 117.311 124.288 117.641C123.27 117.972 122.713 119.063 123.044 120.08C123.375 121.096 124.468 121.652 125.485 121.322Z" fill="#EAEEF9"/>
<path d="M118.823 5.14151C119.686 4.35413 119.746 3.01737 118.958 2.15576C118.169 1.29415 116.831 1.23398 115.968 2.02135C115.106 2.80873 115.045 4.14549 115.834 5.0071C116.622 5.86871 117.96 5.92888 118.823 5.14151Z" fill="#F94A97"/>
<path d="M121.232 118.967C121.975 118.289 122.027 117.137 121.348 116.394C120.668 115.652 119.515 115.6 118.772 116.279C118.028 116.957 117.976 118.109 118.656 118.851C119.335 119.594 120.488 119.646 121.232 118.967Z" fill="#EAEEF9"/>
<path d="M17.8566 127.937C18.5999 127.259 18.6518 126.107 17.9725 125.365C17.2933 124.622 16.14 124.57 15.3967 125.249C14.6534 125.927 14.6014 127.079 15.2807 127.822C15.96 128.564 17.1133 128.616 17.8566 127.937Z" fill="#A4ACC2"/>
<ellipse cx="65.2377" cy="65.217" rx="65.2377" ry="64.783" fill="#4279E3" fill-opacity="0.2"/>
<path d="M65.2369 109.073C89.6273 109.073 109.4 89.439 109.4 65.2186C109.4 40.9983 89.6273 21.3638 65.2369 21.3638C40.8465 21.3638 21.0742 40.9983 21.0742 65.2186C21.0742 89.439 40.8465 109.073 65.2369 109.073Z" fill="#616161"/>
<path d="M65.2369 93.1253C49.7141 93.1253 37.1344 80.6332 37.1344 65.2186C37.1344 49.804 49.7141 37.3119 65.2369 37.3119C72.9947 37.3119 80.0195 40.4359 85.1084 45.4857L96.464 34.2092C88.4713 26.2723 77.4288 21.3638 65.2369 21.3638C40.846 21.3638 21.0742 40.9977 21.0742 65.2186C21.0742 89.4395 40.846 109.073 65.2369 109.073C77.4324 109.073 88.4713 104.165 96.4675 96.2315L85.1119 84.9551C80.0195 90.0014 72.9947 93.1253 65.2369 93.1253Z" fill="#9E9E9E"/>
<path d="M93.3314 65.2188H79.2783C79.2783 57.515 72.9867 51.2637 65.2253 51.2637C57.4639 51.2637 51.1758 57.5115 51.1758 65.2188C51.1758 68.9717 52.6704 72.3748 55.101 74.8873L55.0903 74.8979L72.4885 92.1748L72.492 92.1784C84.4917 88.9979 93.3314 78.1349 93.3314 65.2188Z" fill="#424242"/>
<path d="M109.392 65.2188H93.3322C93.3322 78.1349 84.4888 88.9979 72.4961 92.1784L84.8981 104.494C99.4175 97.3095 109.392 82.4214 109.392 65.2188Z" fill="#616161"/>
<path d="M65.2369 108.572C40.9314 108.572 21.2166 89.072 21.0778 64.9678C21.0778 65.0526 21.0742 65.1339 21.0742 65.2187C21.0742 89.4396 40.846 109.074 65.2369 109.074C89.6278 109.074 109.4 89.4396 109.4 65.2187C109.4 65.1339 109.396 65.0526 109.396 64.9678C109.257 89.072 89.5389 108.572 65.2369 108.572Z" fill="#212121" fill-opacity="0.1"/>
<path d="M72.5078 92.1783L72.8993 92.5671C84.6926 89.2594 93.3436 78.4954 93.3436 65.717V65.2188C93.3436 78.1349 84.5004 88.9979 72.5078 92.1783Z" fill="white" fill-opacity="0.05"/>
<path d="M101.364 61.2314H65.229C63.012 61.2314 61.2148 63.0161 61.2148 65.2177C61.2148 67.4194 63.012 69.204 65.229 69.204H101.36C103.577 69.204 105.374 67.4194 105.374 65.2177C105.378 63.0161 103.581 61.2314 101.364 61.2314Z" fill="#9E9E9E"/>
<path opacity="0.5" d="M101.364 61.2314H65.229C63.012 61.2314 61.2148 63.0161 61.2148 65.2177C61.2148 67.4194 63.012 69.204 65.229 69.204H101.36C103.577 69.204 105.374 67.4194 105.374 65.2177C105.378 63.0161 103.581 61.2314 101.364 61.2314Z" fill="#BDBDBD"/>
<path d="M29.1044 68.2082C30.7671 68.2082 32.115 66.8697 32.115 65.2186C32.115 63.5675 30.7671 62.229 29.1044 62.229C27.4416 62.229 26.0938 63.5675 26.0938 65.2186C26.0938 66.8697 27.4416 68.2082 29.1044 68.2082Z" fill="#BDBDBD"/>
<path d="M65.245 32.3259C66.9077 32.3259 68.2556 30.9874 68.2556 29.3363C68.2556 27.6852 66.9077 26.3467 65.245 26.3467C63.5823 26.3467 62.2344 27.6852 62.2344 29.3363C62.2344 30.9874 63.5823 32.3259 65.245 32.3259Z" fill="#BDBDBD"/>
<path d="M65.245 104.088C66.9077 104.088 68.2556 102.749 68.2556 101.098C68.2556 99.4469 66.9077 98.1084 65.245 98.1084C63.5823 98.1084 62.2344 99.4469 62.2344 101.098C62.2344 102.749 63.5823 104.088 65.245 104.088Z" fill="#BDBDBD"/>
<path d="M39.6434 42.8357C41.3061 42.8357 42.654 41.4972 42.654 39.8461C42.654 38.1949 41.3061 36.8564 39.6434 36.8564C37.9807 36.8564 36.6328 38.1949 36.6328 39.8461C36.6328 41.4972 37.9807 42.8357 39.6434 42.8357Z" fill="#BDBDBD"/>
<path d="M39.6434 93.6243C41.3061 93.6243 42.654 92.2858 42.654 90.6346C42.654 88.9835 41.3061 87.645 39.6434 87.645C37.9807 87.645 36.6328 88.9835 36.6328 90.6346C36.6328 92.2858 37.9807 93.6243 39.6434 93.6243Z" fill="#BDBDBD"/>
<path d="M90.827 93.6238C92.4897 93.6238 93.8376 92.2853 93.8376 90.6342C93.8376 88.983 92.4897 87.6445 90.827 87.6445C89.1643 87.6445 87.8164 88.983 87.8164 90.6342C87.8164 92.2853 89.1643 93.6238 90.827 93.6238Z" fill="#757575"/>
<path d="M65.2368 61.7312H101.368C103.499 61.7312 105.243 63.385 105.368 65.47C105.371 65.3852 105.382 65.3039 105.382 65.2191C105.382 63.0175 103.585 61.2329 101.368 61.2329H65.2368C63.0198 61.2329 61.2227 63.0175 61.2227 65.2191C61.2227 65.3039 61.2262 65.3852 61.2369 65.47C61.3614 63.385 63.1016 61.7312 65.2368 61.7312Z" fill="white" fill-opacity="0.2"/>
<path d="M105.368 65.4663C105.236 67.5477 103.496 69.2051 101.368 69.2051H65.2368C63.1052 69.2051 61.3614 67.5513 61.2369 65.4663C61.2262 65.5511 61.2227 65.6324 61.2227 65.7137C61.2227 67.9153 63.0198 69.6998 65.2368 69.6998H101.368C103.585 69.6998 105.382 67.9153 105.382 65.7137C105.382 65.6324 105.378 65.5511 105.368 65.4663Z" fill="#212121" fill-opacity="0.2"/>
<path d="M65.2354 37.8101C72.9932 37.8101 80.018 40.934 85.1068 45.9838L96.708 34.4565C96.6226 34.3717 96.5407 34.2868 96.4589 34.2056L85.1068 45.482C80.018 40.4322 72.9932 37.3083 65.2354 37.3083C49.7126 37.3083 37.1328 49.8004 37.1328 65.2149C37.1328 65.2998 37.1364 65.381 37.1364 65.4658C37.2716 50.1679 49.798 37.8101 65.2354 37.8101Z" fill="#212121" fill-opacity="0.1"/>
<path d="M65.2369 109.073C89.6273 109.073 109.4 89.439 109.4 65.2186C109.4 40.9983 89.6273 21.3638 65.2369 21.3638C40.8465 21.3638 21.0742 40.9983 21.0742 65.2186C21.0742 89.439 40.8465 109.073 65.2369 109.073Z" fill="url(#paint1_radial_3281_17164)"/>
<g filter="url(#filter0_d_3281_17164)">
<path d="M131.999 108.402C131.999 110.065 131.777 111.728 131.444 113.281C131.221 114.279 130.888 115.166 130.555 116.053C128.444 121.597 123.999 126.033 118.443 128.14C117.999 128.251 117.666 128.473 117.221 128.583C115.11 129.249 112.999 129.581 110.666 129.581C98.8877 129.581 89.332 120.045 89.332 108.291C89.332 96.5365 98.8877 87 110.666 87C122.444 87.1109 131.999 96.6474 131.999 108.402Z" fill="url(#paint2_linear_3281_17164)"/>
</g>
<path d="M131.445 113.835C131.223 114.723 130.89 115.61 130.556 116.497C128.445 121.819 124.223 126.033 118.889 128.14L106.889 116.164L105.223 114.501L117.001 103.966L120.89 101.749L131.334 112.172L131.445 113.835Z" fill="url(#paint3_linear_3281_17164)"/>
<path d="M108.444 116.719C107.777 116.719 107.111 116.497 106.666 115.942L101.777 111.063C100.777 110.065 100.777 108.513 101.777 107.515C102.777 106.517 104.333 106.517 105.333 107.515L108.444 110.62L117.333 101.749C118.333 100.75 119.889 100.75 120.889 101.749C121.889 102.747 121.889 104.299 120.889 105.297L110.222 115.942C109.777 116.497 109.111 116.719 108.444 116.719Z" fill="url(#paint4_linear_3281_17164)"/>
<defs>
<filter id="filter0_d_3281_17164" x="81.332" y="84" width="58.668" height="58.5815" filterUnits="userSpaceOnUse" color-interpolation-filters="sRGB">
<feFlood flood-opacity="0" result="BackgroundImageFix"/>
<feColorMatrix in="SourceAlpha" type="matrix" values="0 0 0 0 0 0 0 0 0 0 0 0 0 0 0 0 0 0 127 0" result="hardAlpha"/>
<feOffset dy="5"/>
<feGaussianBlur stdDeviation="4"/>
<feColorMatrix type="matrix" values="0 0 0 0 0.1125 0 0 0 0 0.295916 0 0 0 0 1 0 0 0 0.22 0"/>
<feBlend mode="normal" in2="BackgroundImageFix" result="effect1_dropShadow_3281_17164"/>
<feBlend mode="normal" in="SourceGraphic" in2="effect1_dropShadow_3281_17164" result="shape"/>
</filter>
<linearGradient id="paint0_linear_3281_17164" x1="17.2874" y1="4.53482" x2="22.4269" y2="2.86234" gradientUnits="userSpaceOnUse">
<stop stop-color="#83A6FF"/>
<stop offset="1" stop-color="#5A78FF"/>
</linearGradient>
<radialGradient id="paint1_radial_3281_17164" cx="0" cy="0" r="1" gradientUnits="userSpaceOnUse" gradientTransform="translate(34.0252 34.1246) scale(88.1729 87.5582)">
<stop stop-color="white" stop-opacity="0.1"/>
<stop offset="1" stop-color="white" stop-opacity="0"/>
</radialGradient>
<linearGradient id="paint2_linear_3281_17164" x1="99.2037" y1="90.933" x2="122.62" y2="126.666" gradientUnits="userSpaceOnUse">
<stop stop-color="#83A6FF"/>
<stop offset="1" stop-color="#5A78FF"/>
</linearGradient>
<linearGradient id="paint3_linear_3281_17164" x1="112.717" y1="107.754" x2="121.658" y2="116.712" gradientUnits="userSpaceOnUse">
<stop stop-color="#4F6AFF"/>
<stop offset="1" stop-color="#657EFF" stop-opacity="0"/>
</linearGradient>
<linearGradient id="paint4_linear_3281_17164" x1="116.783" y1="111.816" x2="107.989" y2="103.004" gradientUnits="userSpaceOnUse">
<stop offset="0.0113208" stop-color="#C2D1FF"/>
<stop offset="1" stop-color="white"/>
</linearGradient>
</defs>
</svg>
