<svg width="24" height="24" viewBox="0 0 24 24" fill="none" xmlns="http://www.w3.org/2000/svg">
<path fill-rule="evenodd" clip-rule="evenodd" d="M3.60078 11.2C3.60078 11.2 4.89042 8.967 5.60078 8.39997C6.17873 7.93864 5.51382 5.89633 6.00078 5.59997C6.44179 5.33158 8.38009 6.7194 8.74647 6.58632C10.132 6.08304 11.6168 5.8876 13.2008 5.99997C18.8389 6.39997 24.0008 11.8239 19.5844 17.6818C19.958 18.7008 20.2858 21.3915 20.3762 22.1799C20.3897 22.298 20.2971 22.4 20.1782 22.4H16.4829C16.4303 22.4 16.3798 22.3792 16.3424 22.3423L14.781 20.8C14.781 20.8 12.3729 21.2 10.8008 20.8C9.85651 21.7442 9.4076 22.1932 9.25915 22.3416C9.22164 22.3791 9.17098 22.4 9.11794 22.4H5.83138C5.70967 22.4 5.61618 22.2922 5.63339 22.1717L6.00078 19.6C6.00078 19.6 4.00078 18.4 3.60078 16.8C2.32445 16.4556 1.30265 16.1516 0.941477 16.0427C0.857367 16.0173 0.800781 15.94 0.800781 15.8522V12.1508C0.800781 12.0615 0.859977 11.9831 0.945837 11.9585L3.60078 11.2Z" stroke="#4B5563" stroke-width="1.5" stroke-linecap="round"/>
<path d="M19.9916 8.80736C20.9688 8.07806 21.6016 6.91273 21.6016 5.59961C21.6016 3.39047 19.8107 1.59961 17.6016 1.59961C15.3924 1.59961 13.6016 3.39047 13.6016 5.59961" stroke="#4B5563" stroke-width="1.5" stroke-linecap="round"/>
<path fill-rule="evenodd" clip-rule="evenodd" d="M7.60234 13.5992C8.26509 13.5992 8.80234 13.062 8.80234 12.3992C8.80234 11.7365 8.26509 11.1992 7.60234 11.1992C6.9396 11.1992 6.40234 11.7365 6.40234 12.3992C6.40234 13.062 6.9396 13.5992 7.60234 13.5992Z" fill="#4B5563"/>
<path d="M23.1684 12.7998C23.1684 12.7998 22.9075 13.9998 21.6016 13.9998" stroke="#4B5563" stroke-width="1.5" stroke-linecap="round"/>
</svg>
