<svg width="238" height="121" viewBox="0 0 238 121" fill="none" xmlns="http://www.w3.org/2000/svg">
<path d="M62.5473 43.8123C65.1951 42.9449 66.6438 40.0782 65.7833 37.4094C64.9227 34.7406 62.0786 33.2804 59.4309 34.1478C56.7831 35.0152 55.3344 37.8819 56.1949 40.5506C57.0555 43.2194 59.8996 44.6797 62.5473 43.8123Z" fill="#EAEEF9"/>
<path d="M73.5472 27.232C75.3476 26.6421 76.3328 24.6928 75.7476 22.878C75.1624 21.0633 73.2284 20.0703 71.428 20.6601C69.6275 21.25 68.6424 23.1993 69.2276 25.0141C69.8127 26.8289 71.7467 27.8219 73.5472 27.232Z" fill="#EAEEF9"/>
<path d="M160.406 20.7058C162.188 20.7058 163.632 19.2498 163.632 17.4538C163.632 15.6577 162.188 14.2018 160.406 14.2018C158.624 14.2018 157.18 15.6577 157.18 17.4538C157.18 19.2498 158.624 20.7058 160.406 20.7058Z" fill="url(#paint0_linear_2997:13546)"/>
<path d="M19.0122 54.8403C20.3282 53.6295 20.42 51.5737 19.2172 50.2485C18.0144 48.9234 15.9725 48.8308 14.6564 50.0416C13.3403 51.2524 13.2485 53.3082 14.4513 54.6334C15.6541 55.9585 17.6961 56.0512 19.0122 54.8403Z" fill="#32D697"/>
<path d="M210.205 0.990234L190.242 2.41298C188.225 2.61623 186.814 4.24223 186.814 6.27472C186.814 8.30722 188.628 9.72997 190.645 9.72997L201.131 9.12021L151.525 53.4286L138.217 28.2257C138.015 27.8192 137.813 27.6159 137.41 27.2094C135.999 25.7867 133.579 25.9899 132.167 27.4127L82.3606 81.6803L68.4469 58.1033V57.9001C68.2453 57.6968 68.0436 57.2903 67.842 57.0871C66.4305 55.6644 64.2124 55.8676 62.8008 57.2903L1.29856 123.956C0.89527 124.363 0.89527 124.972 1.29856 125.176C1.70186 125.582 2.3068 125.582 2.71009 125.176L64.414 65.8268L78.5293 89.607C78.7309 89.8103 78.9326 90.2168 79.1342 90.42C80.5457 91.8428 82.9655 91.6395 84.377 90.2168L134.184 36.3556L147.291 61.1521C147.492 61.3553 147.694 61.5586 147.694 61.9651C149.106 63.3878 151.324 63.5911 152.735 62.1683L206.978 13.3885L207.785 25.1769C207.987 27.2094 209.6 28.6322 211.616 28.6322C213.633 28.4289 215.044 26.8029 215.044 24.7704L213.633 4.64873C213.834 2.41298 212.221 0.990234 210.205 0.990234Z" fill="url(#paint1_linear_2997:13546)"/>
<path d="M73 108V172" stroke="#C3C9D4" stroke-miterlimit="10" stroke-linecap="round" stroke-linejoin="round"/>
<path d="M79.2122 165H67.7731C66.2132 165 65 163.801 65 162.259V118.742C65 117.2 66.2132 116 67.7731 116H79.2122C80.7721 116 81.9853 117.2 81.9853 118.742V162.259C82.1586 163.801 80.7721 165 79.2122 165Z" fill="#35E09D"/>
<path d="M129 90.0005V174" stroke="#C3C9D4" stroke-miterlimit="10" stroke-linecap="round" stroke-linejoin="round"/>
<path d="M134.224 166H122.776C121.214 166 120 164.816 120 163.294V100.707C120 99.1846 121.214 98.0005 122.776 98.0005H134.224C135.786 98.0005 137 99.1846 137 100.707V163.125C137 164.816 135.786 166 134.224 166Z" fill="white"/>
<path d="M156 91.0005V145" stroke="#C3C9D4" stroke-miterlimit="10" stroke-linecap="round" stroke-linejoin="round"/>
<path d="M162.224 137H150.776C149.214 137 148 135.829 148 134.322V101.679C148 100.172 149.214 99.0005 150.776 99.0005H162.224C163.786 99.0005 165 100.172 165 101.679V134.155C165 135.661 163.786 137 162.224 137Z" fill="white"/>
<path d="M184 106V147" stroke="#C3C9D4" stroke-miterlimit="10" stroke-linecap="round" stroke-linejoin="round"/>
<path d="M189.388 140H178.612C177.143 140 176 138.781 176 137.213V115.788C176 114.22 177.143 113 178.612 113H189.388C190.857 113 192 114.22 192 115.788V137.213C192 138.781 190.857 140 189.388 140Z" fill="#F14D99"/>
<defs>
<linearGradient id="paint0_linear_2997:13546" x1="157.33" y1="17.4178" x2="163.59" y2="17.4178" gradientUnits="userSpaceOnUse">
<stop offset="0.00289017" stop-color="#FFD44F"/>
<stop offset="1" stop-color="#FFA607"/>
</linearGradient>
<linearGradient id="paint1_linear_2997:13546" x1="1.09692" y1="63.2823" x2="215.34" y2="63.2823" gradientUnits="userSpaceOnUse">
<stop offset="0.00289017" stop-color="#FFD44F" stop-opacity="0"/>
<stop offset="1" stop-color="#FACD35"/>
</linearGradient>
</defs>
</svg>
