<svg width="98" height="101" viewBox="0 0 98 101" fill="none" xmlns="http://www.w3.org/2000/svg">
<g clip-path="url(#clip0_4005_20030)">
<path d="M97 48.3582C97 59.3034 93.3494 69.4527 87.2323 77.6119C83.8777 81.99 79.8325 85.8706 75.1953 88.8556C67.6968 93.8307 58.7184 96.7163 49.0493 96.7163C22.5087 96.7163 1 75.0248 1 48.3582C1 21.592 22.5087 0 48.9507 0C58.6197 0 67.5982 2.88557 75.0966 7.76119C79.7338 10.7463 83.779 14.6269 87.1336 19.005C93.3494 27.2637 97 37.3134 97 48.3582Z" fill="#EAEEF9"/>
<path d="M5.19194 43.2456C6.07991 43.2456 6.86922 42.5491 6.86922 41.5541C6.86922 40.6586 6.17857 39.8625 5.19194 39.8625C4.30396 39.8625 3.51465 40.5591 3.51465 41.5541C3.51465 42.4496 4.2053 43.2456 5.19194 43.2456Z" fill="url(#paint0_linear_4005_20030)"/>
<path d="M13.2085 80.8426C14.0965 80.8426 14.8858 80.146 14.8858 79.151C14.8858 78.156 14.1952 77.4595 13.2085 77.4595C12.3206 77.4595 11.5312 78.156 11.5312 79.151C11.5312 80.146 12.3206 80.8426 13.2085 80.8426Z" fill="url(#paint1_linear_4005_20030)"/>
<path d="M92.6598 14.3282V32.9352C92.6598 35.5222 90.5879 37.6118 88.0226 37.6118H17.7739C15.2087 37.6118 13.1367 35.5222 13.1367 32.9352V14.3282C13.1367 11.7412 15.2087 9.65161 17.7739 9.65161H88.1213C90.6866 9.65161 92.6598 11.7412 92.6598 14.3282Z" fill="#C2C8D6"/>
<path d="M89.2058 14.3282V32.9352C89.2058 35.5222 87.1338 37.6118 84.5686 37.6118H14.2212C11.6559 37.6118 9.58398 35.5222 9.58398 32.9352V14.3282C9.58398 11.7412 11.6559 9.65161 14.2212 9.65161H84.5686C87.1338 9.65161 89.2058 11.7412 89.2058 14.3282Z" fill="#D8DDE7"/>
<path d="M80.1288 22.2884V37.5123H18.3652V22.2884C18.3652 19.7014 20.4372 17.6118 23.0024 17.6118H75.5903C78.1556 17.7113 80.1288 19.8009 80.1288 22.2884Z" fill="#E9EEF4"/>
<path opacity="0.3" d="M80.1288 22.2884V37.5123H18.3652V22.2884C18.3652 19.7014 20.4372 17.6118 23.0024 17.6118H75.5903C78.1556 17.7113 80.1288 19.8009 80.1288 22.2884Z" fill="url(#paint2_linear_4005_20030)"/>
<path d="M74.6023 29.2535H26.553C26.1583 29.2535 25.8623 28.955 25.8623 28.557V26.6665C25.8623 26.2685 26.1583 25.97 26.553 25.97H74.7009C75.0956 25.97 75.3916 26.2685 75.3916 26.6665V28.557C75.3916 28.955 74.9969 29.2535 74.6023 29.2535Z" fill="#4C5865"/>
<path d="M78.9449 15.7215C79.8712 15.7215 80.6222 14.9641 80.6222 14.0299C80.6222 13.0957 79.8712 12.3384 78.9449 12.3384C78.0185 12.3384 77.2676 13.0957 77.2676 14.0299C77.2676 14.9641 78.0185 15.7215 78.9449 15.7215Z" fill="url(#paint3_linear_4005_20030)"/>
<path d="M72.9263 15.7215C73.8526 15.7215 74.6036 14.9641 74.6036 14.0299C74.6036 13.0957 73.8526 12.3384 72.9263 12.3384C72 12.3384 71.249 13.0957 71.249 14.0299C71.249 14.9641 72 15.7215 72.9263 15.7215Z" fill="white"/>
<g filter="url(#filter0_d_4005_20030)">
<path d="M65.2317 69.8506V83.2835C65.2317 84.378 64.0477 84.975 63.1598 84.2785L60.4958 82.2884C60.0025 81.9899 59.4105 81.9899 58.9172 82.2884L54.9707 85.2735C54.4773 85.572 53.8854 85.572 53.392 85.2735L49.4455 82.2884C48.9522 81.9899 48.3602 81.9899 47.8669 82.2884L43.9203 85.2735C43.427 85.572 42.835 85.572 42.3417 85.2735L38.3951 82.2884C37.9018 81.9899 37.3098 81.9899 36.8165 82.2884L32.8699 85.2735C32.3766 85.572 31.7846 85.572 31.2913 85.2735L27.3448 82.2884C26.8514 81.9899 26.2595 81.9899 25.7661 82.2884L23.1022 84.2785C22.2142 84.8755 21.0303 84.2785 21.0303 83.2835V40.6964C21.1289 33.2338 22.5102 30.0497 28.7261 27.6616H72.9275C66.8103 29.2537 65.0344 33.1343 65.2317 40.6964V59.5024V69.8506Z" fill="white"/>
</g>
<path opacity="0.4" d="M55.0685 45.5722H40.5649C39.7756 45.5722 39.1836 44.9752 39.1836 44.1792C39.1836 43.3831 39.7756 42.7861 40.5649 42.7861H55.1671C55.9565 42.7861 56.5484 43.3831 56.5484 44.1792C56.4498 44.9752 55.8578 45.5722 55.0685 45.5722Z" fill="#4C5865"/>
<path opacity="0.4" d="M35.3345 45.5722H28.9213C28.132 45.5722 27.54 44.9752 27.54 44.1792C27.54 43.3831 28.132 42.7861 28.9213 42.7861H35.3345C36.1238 42.7861 36.7158 43.3831 36.7158 44.1792C36.7158 44.9752 36.1238 45.5722 35.3345 45.5722Z" fill="#4C5865"/>
<path opacity="0.4" d="M55.0673 57.2138H28.9213C28.132 57.2138 27.54 56.6168 27.54 55.8208C27.54 55.0247 28.132 54.4277 28.9213 54.4277H55.0673C55.8566 54.4277 56.4486 55.0247 56.4486 55.8208C56.4486 56.6168 55.8566 57.2138 55.0673 57.2138Z" fill="#4C5865"/>
<path opacity="0.4" d="M48.654 68.7563H38.4916C37.7023 68.7563 37.1104 68.1593 37.1104 67.3632C37.1104 66.5672 37.7023 65.9702 38.4916 65.9702H48.654C49.4433 65.9702 50.0353 66.5672 50.0353 67.3632C50.0353 68.1593 49.3447 68.7563 48.654 68.7563Z" fill="#4C5865"/>
<path opacity="0.4" d="M32.8679 68.7563H28.9213C28.132 68.7563 27.54 68.1593 27.54 67.3632C27.54 66.5672 28.132 65.9702 28.9213 65.9702H32.8679C33.6572 65.9702 34.2492 66.5672 34.2492 67.3632C34.2492 68.1593 33.5585 68.7563 32.8679 68.7563Z" fill="#4C5865"/>
<path d="M86.3446 69.1541V97.9103C86.3446 99.0048 85.4566 99.9004 84.3713 99.9004C80.3261 99.9004 71.0517 99.9999 68.3878 99.9999C67.8945 99.9999 67.4011 99.8009 67.1051 99.5024L64.8359 97.5123L60.5933 93.5322C59.1134 92.1392 57.9294 90.4477 57.2388 88.4576L53.0949 76.3183L51.7136 72.3382L51.6149 72.1392L49.7403 66.5671C49.6416 66.2686 49.543 65.9701 49.543 65.5721V65.4726C49.543 64.378 50.2336 63.383 51.2203 62.8855C53.7855 61.6915 56.7454 62.4875 58.4227 64.577C58.7187 64.975 59.0147 65.4726 59.212 65.9701L62.3693 73.7312L63.1586 75.7213L63.2573 75.9203C63.5532 76.7163 64.4412 77.1143 65.2305 76.8158L70.657 75.2238C71.3477 75.0248 71.7423 74.4278 71.7423 73.7312L71.4464 69.0546C71.3477 67.6616 70.8544 66.2686 69.8677 65.2735L65.1319 59.9999V52.3382L64.7919 44.1665L83.6807 62.8855C85.358 64.577 86.3446 66.8656 86.3446 69.1541Z" fill="white" stroke="#1C3754" stroke-miterlimit="10" stroke-linecap="round" stroke-linejoin="round"/>
<path d="M64.1867 43.3333L61.0674 43.7606V48.4615L64.1867 59.9999H66.8605L65.6191 45.8332L65.2053 43.3333H64.1867Z" fill="white"/>
</g>
<defs>
<filter id="filter0_d_4005_20030" x="9.03027" y="21.6616" width="75.8975" height="81.8357" filterUnits="userSpaceOnUse" color-interpolation-filters="sRGB">
<feFlood flood-opacity="0" result="BackgroundImageFix"/>
<feColorMatrix in="SourceAlpha" type="matrix" values="0 0 0 0 0 0 0 0 0 0 0 0 0 0 0 0 0 0 127 0" result="hardAlpha"/>
<feOffset dy="6"/>
<feGaussianBlur stdDeviation="6"/>
<feColorMatrix type="matrix" values="0 0 0 0 0.397708 0 0 0 0 0.47749 0 0 0 0 0.575 0 0 0 0.08 0"/>
<feBlend mode="normal" in2="BackgroundImageFix" result="effect1_dropShadow_4005_20030"/>
<feBlend mode="normal" in="SourceGraphic" in2="effect1_dropShadow_4005_20030" result="shape"/>
</filter>
<linearGradient id="paint0_linear_4005_20030" x1="3.51465" y1="41.5512" x2="6.70406" y2="41.5512" gradientUnits="userSpaceOnUse">
<stop stop-color="#83A6FF"/>
<stop offset="1" stop-color="#5A78FF"/>
</linearGradient>
<linearGradient id="paint1_linear_4005_20030" x1="11.5997" y1="79.2279" x2="14.7891" y2="79.2279" gradientUnits="userSpaceOnUse">
<stop stop-color="#FF66A9"/>
<stop offset="1" stop-color="#F53689"/>
</linearGradient>
<linearGradient id="paint2_linear_4005_20030" x1="49.2519" y1="18.065" x2="49.2519" y2="37.2562" gradientUnits="userSpaceOnUse">
<stop offset="0.00289017" stop-color="#0E2F51"/>
<stop offset="1" stop-color="#35415E" stop-opacity="0.31"/>
</linearGradient>
<linearGradient id="paint3_linear_4005_20030" x1="77.2343" y1="14.023" x2="80.5485" y2="14.023" gradientUnits="userSpaceOnUse">
<stop stop-color="#FF66A9"/>
<stop offset="1" stop-color="#F53689"/>
</linearGradient>
<clipPath id="clip0_4005_20030">
<rect width="98" height="101" fill="white"/>
</clipPath>
</defs>
</svg>
