<svg width="40" height="40" viewBox="0 0 40 40" fill="none" xmlns="http://www.w3.org/2000/svg">
<path d="M39.3962 24.8381C36.725 35.5525 25.8731 42.0731 15.1574 39.4012C4.44624 36.7301 -2.07432 25.8775 0.597994 15.1639C3.26796 4.44838 14.1199 -2.07268 24.8322 0.598468C35.5471 3.26961 42.0673 14.1234 39.3959 24.8383L39.3961 24.8381H39.3962Z" fill="#D15C22"/>
<path d="M19.8932 17.4345L22.2931 15.0856C22.5967 14.7944 23 14.632 23.4195 14.632C23.839 14.632 24.2424 14.7944 24.546 15.0856C25.1663 15.6934 25.1663 16.6789 24.546 17.2867L21.1176 20.621C20.9742 20.7913 20.7977 20.9304 20.5991 21.0298C20.4004 21.1292 20.1837 21.1868 19.9621 21.1991C19.7406 21.2114 19.5189 21.1781 19.3106 21.1014C19.1022 21.0246 18.9116 20.9058 18.7504 20.7524L10.4734 12.6547C10.3263 12.5122 10.2092 12.3412 10.1293 12.1521C10.0493 11.963 10.0081 11.7597 10.0081 11.5542C10.0081 11.3487 10.0493 11.1453 10.1293 10.9562C10.2092 10.7671 10.3263 10.5962 10.4734 10.4537C10.7771 10.1624 11.1804 10 11.5999 10C12.0194 10 12.4227 10.1624 12.7263 10.4537L19.8769 17.4181L19.8932 17.4345ZM11.5999 16.3011C12.4815 16.3011 13.1998 17.0896 13.1998 18.0751V28.226C13.1998 29.2116 12.4815 30 11.5999 30C10.7183 30 10 29.2116 10 28.226V18.0751C10 17.0896 10.7183 16.3011 11.5999 16.3011ZM28.4151 10.0102C28.6295 10.0165 28.8406 10.0654 29.0362 10.1539C29.2319 10.2424 29.4083 10.3688 29.5554 10.5259C29.7024 10.683 29.8173 10.8678 29.8933 11.0696C29.9694 11.2714 30.0052 11.4863 29.9987 11.702V28.2917C30.0074 28.5088 29.9732 28.7255 29.8982 28.9292C29.8231 29.1329 29.7086 29.3196 29.5613 29.4785C29.414 29.6374 29.2369 29.7653 29.0401 29.8548C28.8434 29.9443 28.6309 29.9937 28.4151 30C28.1993 29.9958 27.9865 29.9485 27.7889 29.8609C27.5914 29.7734 27.4131 29.6473 27.2643 29.49C27.1155 29.3326 26.9992 29.1472 26.9221 28.9443C26.845 28.7415 26.8087 28.5252 26.8152 28.3082V11.7184C26.8065 11.5 26.8412 11.282 26.9172 11.0772C26.9933 10.8725 27.1093 10.6851 27.2583 10.526C27.4073 10.3669 27.5864 10.2393 27.785 10.1507C27.9836 10.0621 28.1979 10.0144 28.4151 10.0102Z" fill="white"/>
</svg>
