<svg width="24" height="24" viewBox="0 0 24 24" fill="none" xmlns="http://www.w3.org/2000/svg">
<g clip-path="url(#clip0_2791:15065)">
<path d="M23.6377 14.9036C22.035 21.3322 15.5238 25.2446 9.09442 23.6415C2.66772 22.0388 -1.24462 15.5272 0.358772 9.0991C1.96075 2.66976 8.47192 -1.24287 14.8993 0.359813C21.3282 1.9625 25.2404 8.47478 23.6375 14.9037L23.6376 14.9036H23.6377Z" fill="#F7931A"/>
<path d="M17.3098 10.2818C17.5487 8.68485 16.3329 7.82644 14.6704 7.25379L15.2097 5.0906L13.8929 4.76248L13.3679 6.86872C13.0217 6.78238 12.6662 6.70103 12.3129 6.62037L12.8417 4.50023L11.5257 4.17212L10.9861 6.33461C10.6996 6.26938 10.4182 6.20492 10.1453 6.137L10.1468 6.1302L8.33089 5.67673L7.9806 7.08316C7.9806 7.08316 8.95756 7.30711 8.93697 7.32089C9.4702 7.45398 9.56663 7.80696 9.55062 8.08675L8.93626 10.5511C8.97298 10.5605 9.02061 10.5739 9.07317 10.5951C9.02923 10.5842 8.98248 10.5722 8.93398 10.5606L8.07286 14.0129C8.0077 14.1749 7.84229 14.418 7.46948 14.3257C7.48268 14.3448 6.51241 14.0868 6.51241 14.0868L5.85864 15.5942L7.57225 16.0213C7.89103 16.1013 8.20343 16.1849 8.51108 16.2636L7.96617 18.4516L9.28145 18.7797L9.82107 16.6149C10.1804 16.7125 10.5291 16.8025 10.8705 16.8873L10.3327 19.0418L11.6495 19.37L12.1944 17.1861C14.4398 17.611 16.1282 17.4397 16.8388 15.4087C17.4115 13.7735 16.8103 12.8303 15.629 12.2153C16.4894 12.0169 17.1375 11.451 17.3103 10.282L17.3099 10.2817L17.3098 10.2818ZM14.3013 14.5006C13.8943 16.1358 11.1412 15.2519 10.2486 15.0302L10.9716 12.1315C11.8642 12.3543 14.7266 12.7953 14.3013 14.5006H14.3013ZM14.7085 10.2581C14.3373 11.7455 12.0458 10.9898 11.3025 10.8045L11.958 8.17555C12.7014 8.36084 15.0952 8.70667 14.7086 10.2581H14.7085Z" fill="white"/>
</g>
<defs>
<clipPath id="clip0_2791:15065">
<rect width="24" height="24" fill="white"/>
</clipPath>
</defs>
</svg>
