<svg width="314" height="64" viewBox="0 0 314 64" fill="none" xmlns="http://www.w3.org/2000/svg">
<path d="M132.876 59.1841C133.012 59.2695 133.171 59.3288 133.341 59.3575C133.51 59.3862 133.686 59.3835 133.855 59.3497C134.023 59.3158 134.18 59.2517 134.313 59.1622C134.446 59.0727 134.552 58.9602 134.623 58.8332C134.771 58.6482 135.712 57.6412 135.624 59.0402C135.627 59.3119 136.049 59.5639 136.198 59.5147C137.066 59.2274 137.983 60.0984 138.837 59.3718C139.175 59.0892 139.606 59.3011 139.939 59.6179C140.249 59.8645 140.627 60.0495 141.043 60.1583C141.459 60.267 141.901 60.2964 142.335 60.2442C144.154 60.2283 145.499 59.5533 147.014 59.0607C147.303 58.9703 147.711 58.735 147.954 59.0525C148.197 59.37 147.707 59.4302 147.519 59.5917C146.541 60.2904 145.681 61.0876 144.96 61.9632C144.848 62.137 144.68 62.2839 144.473 62.3883C144.267 62.4928 144.029 62.5509 143.785 62.5567C142.324 62.4576 140.899 63.0374 139.406 62.6429C138.812 62.5444 138.198 62.5497 137.606 62.6586C136.607 62.7712 135.611 63.2273 135.2 62.0084C135.108 61.7295 134.608 61.7818 134.268 61.7369C133.056 61.5636 131.76 61.9665 130.623 61.1215C130.27 60.8608 129.134 61.2942 128.95 61.9351C128.707 62.7922 128.038 62.8539 127.197 62.7494C126.099 62.5863 124.966 62.654 123.909 62.9459C123.57 63.0527 123.172 63.3119 122.977 62.7862C122.977 62.6984 122.626 62.5895 122.546 62.6302C120.894 63.5076 119.089 61.7655 117.458 62.8344C116.034 62.4074 114.622 63.2667 113.36 63.022C111.797 62.716 110.362 63.2319 108.809 62.9818C107.675 62.8782 106.525 62.9895 105.452 63.3067C104.933 63.4231 104.226 63.7649 103.791 63.1934C103.638 62.9588 103.585 62.6902 103.64 62.4286C103.696 62.1669 103.857 61.9266 104.099 61.7444C104.942 60.986 104.462 60.9422 103.572 60.95C103.142 60.9538 102.57 60.783 102.302 60.9611C100.739 61.7497 98.9009 62.1159 97.0612 62.0056C95.5213 62.0191 93.9634 62.2564 92.567 61.5095C91.6427 61.0141 90.8176 61.5727 89.9788 61.7078C89.5886 61.8267 89.1669 61.8632 88.7548 61.8136C88.3426 61.764 87.9539 61.63 87.6264 61.4248C87.1606 61.2125 86.6446 61.0797 86.1107 61.0349C85.5768 60.99 85.0366 61.034 84.5242 61.1642C83.584 61.2423 82.7028 61.5709 82.0224 62.0969C81.7954 62.2422 81.5098 62.3157 81.2201 62.3035C80.9304 62.2913 80.6568 62.1942 80.4518 62.0307C79.8365 61.4208 79.2682 61.6096 78.6205 61.8709C77.4846 62.3363 76.3207 61.891 75.1708 61.901C74.9708 61.9028 74.6298 61.7779 74.5703 61.8423C73.6687 62.801 72.7148 62.3539 71.7215 61.9711C70.0559 61.3224 68.2206 61.8498 66.4884 61.5932C66.1976 61.553 65.9147 61.4829 65.6466 61.3848C65.1422 61.1092 64.5487 60.9558 63.9369 60.9427C63.325 60.9296 62.7207 61.0575 62.196 61.3111C61.9273 61.4573 61.5782 61.5562 61.3466 61.3744C61.115 61.1927 61.6349 61.1801 61.6529 60.9562C61.6448 60.0294 60.8166 60.2284 60.2877 60.3529C59.5492 60.5272 58.9416 60.7961 58.5545 59.9845C58.4833 59.8413 57.9924 59.7337 57.7327 59.7759C56.5653 60.0534 55.3252 60.0643 54.1531 59.8072C53.5616 59.6365 53.4592 60.5004 52.891 60.7051C52.5374 60.3007 52.955 60.0174 53.0222 59.7052C53.0895 59.393 53.3876 59.1746 53.0153 58.9062C52.6429 58.6378 52.3453 58.9121 52.0154 58.9149C50.2355 58.9305 48.5412 59.5765 46.7495 59.3764C46.4296 59.3792 46.2396 59.3808 46.2219 59.6527C46.1507 60.6601 45.6063 60.1454 45.2236 59.8372C45.0497 59.504 44.9844 59.1407 45.0337 58.7812C45.083 58.4217 45.2454 58.0777 45.5056 57.7812C46.3607 57.2224 46.9635 56.3941 48.1818 56.1997C48.5912 56.1402 48.5478 55.741 48.4855 55.4779C48.4232 55.2148 47.9424 55.1231 47.633 55.1977C46.8048 55.3967 45.987 55.6435 45.1791 55.8903C44.9597 55.9561 44.6502 56.0068 44.6827 56.2941C44.7728 57.452 43.6954 57.749 42.6375 57.982C42.1285 58.0983 42.3513 58.416 42.2031 58.625C41.7882 59.2119 41.5301 59.4299 40.517 59.0632C39.7284 58.6401 38.9851 58.1655 38.2946 57.6443C38.0537 57.5009 37.8739 57.3017 37.7797 57.0735C36.941 54.9314 36.3589 54.6888 33.7649 55.3667C33.5986 55.7916 34.7671 55.6296 34.3409 56.0568C33.3494 57.0323 34.0867 59.0154 31.6176 59.1089C31.6833 58.6209 31.6833 58.6209 32.6105 58.3012C31.4282 56.8892 31.338 56.866 29.7072 57.919C29.0609 58.3322 28.4952 58.8245 27.8689 59.2535C27.7859 59.3357 27.674 59.3962 27.5477 59.4272C27.4214 59.4583 27.2865 59.4583 27.1605 59.4275C26.8195 59.3106 26.9874 59.0694 27.0156 58.8694C27.0726 58.5253 27.1496 58.1811 27.2066 57.837C27.2636 57.4929 27.7187 56.9376 26.5819 57.2991C26.2329 57.406 25.3389 56.9504 25.0657 56.5772C24.9885 56.4028 24.8594 56.2461 24.6895 56.1207C24.5195 55.9953 24.3138 55.9049 24.09 55.8573C23.8662 55.8097 23.6311 55.8064 23.4049 55.8475C23.1787 55.8887 22.9682 55.9732 22.7915 56.0937C22.5425 56.2077 22.195 56.4904 21.9927 56.2285C21.7695 55.9117 21.6887 55.5431 21.7636 55.1837C21.8313 54.9195 22.2826 55.0753 22.5735 55.1767C24.2869 55.5772 25.7289 54.6617 27.3377 54.5278C27.8077 54.5237 27.5543 54.1424 27.6325 53.934C27.7594 53.5733 27.6282 53.4386 27.1376 53.371C26.1706 53.3285 25.2003 53.3826 24.2491 53.532C22.3501 53.6445 20.6871 54.434 18.8086 54.6023C17.7448 54.7538 16.7087 55.0126 15.7254 55.3723C15.2361 55.537 14.6897 55.556 14.1859 55.4256C14.1814 54.9143 14.9538 55.1872 15.1201 54.7703C13.6237 54.6836 12.1194 54.7209 10.6312 54.8814C10.0118 54.9427 10.0164 55.478 9.51831 55.6901C8.5249 56.1487 7.3999 56.3927 6.25457 56.3978C7.19618 55.4387 6.3248 55.2785 5.43413 55.1984C4.71306 55.0798 3.9792 55.0167 3.24254 55.0098C2.24348 55.1144 2.65792 54.4795 2.18637 54.2999C1.85059 54.7822 1.41454 55.2335 0.46038 54.7544C1.38542 53.358 2.95505 52.3035 4.83462 51.8157C5.83264 51.5912 6.46748 51.0024 7.49605 50.8416C9.97322 50.5243 12.4893 50.0869 14.8955 49.6504C16.1835 49.4234 16.3505 49.0864 15.8037 48.3001C15.6011 48.0062 15.3996 47.8322 15.0016 48.0594C14.1757 48.53 13.411 47.9934 12.6108 47.9684C11.5106 47.9381 11.4247 47.2596 11.3585 46.549C11.3543 46.0697 10.8121 45.8187 10.3559 46.2462C9.30497 47.2861 8.35845 46.5353 7.68433 46.0617C6.71187 45.5353 5.85205 44.8873 5.13765 44.1423C5.03593 44.03 4.90548 43.9363 4.75493 43.8674C4.60437 43.7984 4.43711 43.7559 4.26418 43.7424C3.91536 43.7327 3.57483 43.6565 3.27098 43.5202C2.96712 43.3838 2.70874 43.1913 2.51738 42.9586C1.39822 41.9057 1.23357 41.3717 2.14301 40.1653C3.34853 38.5087 5.361 37.6522 7.42458 36.923C9.01499 36.4749 10.5365 35.8825 11.9591 35.1575C12.7547 34.6632 13.9559 34.7965 14.9569 34.9236C15.5876 34.998 16.1186 35.1132 16.3629 34.4639C16.408 34.3262 16.5011 34.2015 16.6312 34.1042C16.7614 34.0069 16.9233 33.941 17.0981 33.9141C19.2345 33.5722 21.2464 32.844 22.9793 31.7853C23.3068 31.5788 23.701 31.4514 24.1154 31.418C24.5298 31.3847 24.947 31.4468 25.3176 31.5971C25.8996 31.7365 26.519 31.7449 27.1078 31.6214C27.3878 31.619 27.7968 31.5115 27.6741 31.193C27.6206 31.0741 27.5146 30.9752 27.376 30.9146C27.2374 30.854 27.0757 30.836 26.9212 30.8639C26.0897 31.0598 25.1988 31.0098 24.412 30.7231C23.6253 30.4365 22.9953 29.9324 22.6377 29.3033C22.5189 29.0622 22.2864 28.8684 21.99 28.7634C21.6937 28.6584 21.3572 28.6507 21.0528 28.7418C20.5986 28.7783 20.1404 28.7316 19.713 28.6051C19.2856 28.4787 18.9004 28.2759 18.5865 28.0122C18.5865 28.0122 18.586 27.9483 18.5857 27.9163C18.3808 27.3588 17.1 27.2581 17.4735 26.5197C17.8584 25.6949 18.6212 25.0169 19.6069 24.6234C20.1053 24.4432 20.6036 24.2391 21.1118 24.0349C21.0427 23.8918 20.9074 23.7755 20.7338 23.7101C20.5601 23.6447 20.3614 23.6352 20.1787 23.6835C19.0639 24.2765 17.789 23.7044 16.6324 24.098C15.9547 24.3516 14.2541 23.1359 14.1382 22.4658C13.9907 22.0113 13.6487 21.6131 13.1715 21.34C12.6943 21.0669 12.1119 20.9361 11.5253 20.9704C11.0066 21.0285 10.4953 21.1239 9.99778 21.2554C9.14003 21.5106 8.33214 21.7493 7.9936 20.7695C7.95038 20.6723 7.87332 20.587 7.77146 20.5237C6.85961 20.7079 5.98612 20.9983 5.17904 21.3853C5.18357 21.9047 4.69355 21.901 4.39296 21.8317C4.09236 21.7624 3.49089 21.5918 3.93673 21.1165C3.948 21.1006 3.95385 21.0827 3.95369 21.0644C3.95353 21.0462 3.94737 21.0283 3.93582 21.0126C2.4907 19.2754 4.73012 19.2159 5.70521 18.656C6.89916 17.9664 8.2445 17.4353 9.04521 16.3736C9.46049 15.8346 9.4282 15.5712 8.53787 15.531C7.25153 15.3284 6.00242 14.9984 4.81939 14.5487C3.99738 14.3162 3.97978 13.4454 4.60184 12.537C5.59629 11.256 7.01289 10.2178 8.69555 9.53687C10.9607 8.42171 13.5208 7.74786 16.1682 7.56996C16.4582 7.56743 16.9276 7.50739 17.0064 7.37087C17.4004 6.68026 18.1109 6.73798 18.8309 6.73968C18.8972 6.74092 18.9633 6.73137 19.025 6.71161C19.0867 6.69184 19.1428 6.66226 19.1899 6.62469C20.5158 5.01504 22.6305 5.5639 24.4785 5.33204C25.4745 5.08263 26.5516 5.1535 27.4801 5.52957C28.1729 5.85113 28.898 5.29346 29.4245 4.89734C30.2788 4.24266 31.201 4.4983 32.0827 4.69037C32.3232 4.75219 32.5849 4.94967 32.8746 4.91518C34.1032 4.76064 35.2032 4.76701 35.8821 5.78386C36.1655 6.17291 36.7249 6.10411 37.1524 5.82071C37.5321 5.52702 38.041 5.36462 38.5684 5.36888C38.7284 5.36749 38.9384 5.36565 39.0489 5.42861C39.1595 5.49157 38.2842 6.03457 39.1843 6.04269C39.8618 5.98321 40.5119 5.79387 41.0794 5.4908C42.6738 4.85364 44.2958 3.94456 46.1928 4.74302C46.3599 4.80653 46.5432 4.8387 46.7286 4.83708C46.9139 4.83546 47.0966 4.8001 47.2626 4.73368C47.9214 4.5921 48.6681 4.21802 49.264 4.89999C49.311 4.93038 49.367 4.9505 49.4266 4.95838C49.4863 4.96626 49.5475 4.96165 49.6044 4.94498C50.9573 4.13413 53.1251 5.0341 54.1822 3.56264C55.1842 3.78561 56.3741 3.78322 57.0902 4.48013C57.4935 4.86814 57.7039 4.90624 58.2421 4.70978C58.9399 4.45599 59.7168 4.10563 60.3732 4.83501C60.6559 5.14417 61.0237 4.89326 61.3131 4.82681C61.4001 4.81048 61.4812 4.77805 61.5498 4.73213C61.6184 4.68622 61.6726 4.6281 61.7081 4.56247C61.7435 4.49685 61.7591 4.42555 61.7538 4.35433C61.7484 4.2831 61.7222 4.21395 61.6772 4.15244C61.5149 3.89018 61.3226 3.62817 61.771 3.44048C62.2193 3.25279 62.4309 3.43472 62.7036 3.74397C62.8907 3.95739 63.171 4.10694 63.4897 4.16329C63.8084 4.21964 64.1424 4.17871 64.4262 4.04855C65.1385 3.82848 65.8645 3.63812 66.6012 3.47823C67.3393 3.26404 67.8652 2.79601 68.4331 3.70195C68.6157 3.996 69.4338 3.7891 69.8415 3.52186C70.2491 3.25462 70.5798 3.33165 70.8387 3.20953C72.5027 2.52382 74.0126 3.66125 75.6199 3.35957C75.8402 3.35805 76.0524 3.42496 76.2115 3.54618C76.5807 3.85834 77.0667 4.06648 77.5971 4.13959C78.1275 4.21271 78.6739 4.1469 79.155 3.95197C79.6036 3.78824 80.3067 4.14967 80.8966 4.14452C81.6327 4.16392 82.3587 3.99828 82.9724 3.67095C83.1516 3.5735 83.42 3.38738 83.5103 3.42654C85.4284 4.36066 86.8161 2.95024 88.4539 2.70423C89.073 2.61093 89.7712 2.39709 90.2337 2.68869C90.6075 2.86054 91.0301 2.95382 91.462 2.95983C91.8939 2.96584 92.3212 2.88438 92.7039 2.72306C92.987 2.61 93.3037 2.56211 93.6183 2.58477C93.9329 2.60743 94.233 2.69975 94.485 2.85135C95.0682 3.22181 95.4845 2.79469 95.9217 2.47925C96.4778 2.02694 96.9146 1.67154 97.7005 2.34386C97.9603 2.52441 98.2816 2.63897 98.6238 2.67297C98.9659 2.70698 99.3134 2.65891 99.6221 2.53485C100.38 2.26456 101.072 2.5222 101.782 2.516C103.581 2.45236 105.545 2.85072 106.973 1.50386C107.578 0.931266 108.077 0.823035 108.515 1.71414C108.675 1.93505 108.926 2.10491 109.226 2.19537C109.525 2.28583 109.854 2.2914 110.159 2.21117C110.359 2.17502 110.567 2.17397 110.767 2.20808C110.968 2.24219 111.157 2.31067 111.321 2.40879C112.685 2.90827 113.785 2.88269 114.527 2.00526C114.785 1.71536 114.922 1.47444 115.363 1.56648C115.804 1.65851 115.986 1.83272 115.559 2.21199C115.44 2.3169 116.082 2.54302 116.341 2.42889C117.267 2.00531 118.338 2.1398 119.335 1.73958C119.644 1.60903 119.905 1.7346 120.195 1.82794C120.757 1.99883 121.419 2.21679 121.926 1.8528C122.77 1.24615 123.524 1.64708 124.266 1.90429C124.577 2.00545 124.789 2.25928 125.178 2.10408C127.091 1.36824 128.929 2.23914 130.799 2.23081C132.188 2.30889 133.564 1.96276 134.65 1.26233C135.117 0.922656 135.406 0.840222 135.979 1.17082C136.295 1.38001 136.668 1.52635 137.068 1.59785C137.468 1.66936 137.885 1.664 138.283 1.5822C138.568 1.49094 138.886 1.48817 139.173 1.57444C140.177 2.08505 140.923 1.59912 141.639 1.1534C142.355 0.707676 142.834 0.599623 143.37 1.26614C143.474 1.4232 143.642 1.54764 143.845 1.6197C144.049 1.69176 144.277 1.7073 144.493 1.66384C145.91 1.27593 147.203 1.64019 148.575 1.85195C149.756 2.08529 151.001 2.01573 152.133 1.65311C152.299 1.57198 152.494 1.53795 152.687 1.55658C152.879 1.57521 153.058 1.6454 153.194 1.75571C153.678 2.14251 154.298 2.40167 154.973 2.49858C155.647 2.59549 156.344 2.52554 156.969 2.29807C157.647 2.09239 158.679 2.39501 159.489 2.35598C160.928 2.2795 162.361 2.58661 163.818 2.27825C164.816 2.06978 165.579 2.32681 164.828 3.35613C165.873 3.54728 166.973 3.4059 167.894 2.96182C169.048 2.5658 170.248 2.26353 171.476 2.0596C172.005 1.93513 172.208 2.3169 172.48 2.54625C172.575 2.32981 172.728 2.13205 172.926 1.96639C173.125 1.80073 173.366 1.67103 173.633 1.5861C173.9 1.50117 174.186 1.46299 174.472 1.47414C174.759 1.4853 175.038 1.54554 175.292 1.65076C175.944 1.83684 176.636 2.11845 177.29 1.43356C177.398 1.30371 177.541 1.19552 177.71 1.11762C177.879 1.03971 178.067 0.994225 178.262 0.984774C178.456 0.975323 178.65 1.00217 178.828 1.06318C179.007 1.12418 179.165 1.21767 179.29 1.33621C179.395 1.44775 179.53 1.53951 179.685 1.60514C179.839 1.67077 180.01 1.70869 180.185 1.71628C180.36 1.72387 180.535 1.70096 180.699 1.64912C180.862 1.59727 181.009 1.51773 181.13 1.41603C181.776 0.970916 182.197 1.09509 182.791 1.48943C183.151 1.74763 183.61 1.90204 184.094 1.92821C184.577 1.95438 185.059 1.85082 185.462 1.63392C185.601 1.56079 185.88 1.4385 185.911 1.4702C186.777 2.26167 188.008 1.19619 188.914 1.81953C189.012 1.84732 189.117 1.85483 189.22 1.84136C189.323 1.82789 189.42 1.79388 189.503 1.74248C190.496 0.934774 191.499 1.3575 192.503 1.80419C193.507 2.25088 194.614 1.88964 195.611 1.57731C196.032 1.46208 196.488 1.45811 196.911 1.56596C198.804 1.87705 200.52 2.62915 202.491 2.75577C203.342 2.81228 203.636 2.10656 204.587 2.24209C205.748 2.40774 206.972 2.79658 208.239 2.4659C208.438 2.41622 208.78 2.56507 208.887 2.31642C209.298 1.28208 210.323 1.76055 211.152 1.64945C213.678 1.30778 216.156 2.17309 218.721 1.58339C219.28 1.45067 219.504 1.92812 220.014 1.94764C221.161 2.1321 222.353 2.00352 223.401 1.58249C224.217 1.18384 225.4 1.48515 226.399 1.40452C227.268 1.341 228.181 1.69259 229.048 1.26154C229.048 1.26154 229.148 1.26067 229.168 1.26049C230.344 2.04926 231.979 1.44371 233.174 2.02457C233.505 2.19859 233.894 2.28967 234.291 2.28621C234.689 2.28274 235.076 2.18488 235.404 2.00511C235.78 1.79549 236.224 1.67729 236.682 1.66478C237.14 1.65228 237.592 1.74602 237.983 1.93466C238.539 2.16947 239.15 2.31113 239.778 2.35098C240.406 2.39084 241.038 2.32806 241.635 2.16647C242.144 2.04234 242.682 2.01726 243.205 2.09332C243.728 2.16939 244.219 2.34439 244.639 2.6037C245.363 3.06882 245.742 2.92968 246.198 2.54215C247.052 1.79959 247.967 2.33495 248.827 2.4393C249.228 2.49174 249.319 2.59482 249.575 2.21703C249.651 2.10191 249.757 2.00169 249.887 1.92382C250.017 1.84596 250.168 1.79244 250.327 1.76726C250.486 1.74207 250.65 1.74586 250.807 1.77834C250.964 1.81082 251.11 1.87115 251.233 1.95486C251.927 2.38828 252.37 2.74398 253.406 2.24753C253.83 2.01523 254.332 1.89212 254.845 1.89479C255.359 1.89745 255.858 2.02576 256.276 2.26244C256.668 2.52269 256.815 2.17782 257.034 2.08003C257.649 1.77992 258.339 1.59235 259.054 1.53084C259.77 1.46932 260.493 1.5354 261.171 1.72432C261.459 1.79996 261.768 1.81553 262.066 1.76959C262.365 1.72364 262.645 1.61768 262.879 1.4617C263.336 1.20202 263.872 0.733897 264.488 1.44765C264.721 1.70931 265.158 1.36192 265.486 1.18326C266.093 0.842368 266.741 0.581027 267.168 1.38433C267.229 1.49566 267.45 1.6775 267.51 1.65301C269.196 1.15089 270.588 2.51309 272.244 2.09911C272.852 1.94198 273.118 2.53895 273.956 2.38781C275.471 2.02927 277.071 1.97413 278.615 2.22729C280.148 2.54152 281.971 2.93312 283.488 2.62423C285.005 2.31535 286.222 1.96114 287.72 2.81104C288.172 3.06278 289.202 3.12571 289.905 3.4312C290.327 3.6113 290.908 3.75005 290.041 4.17311C289.673 4.35211 290.046 4.66847 290.357 4.7936C291.571 5.25444 291.486 5.85446 291.225 6.86353C290.877 8.26488 289.775 9.20937 288.885 10.2639C288.232 11.0686 286.975 11.4312 286.01 12.0229C285.195 12.5334 284.542 13.3461 283.242 13.3495C282.732 13.3539 282.246 13.8775 282.09 14.2944C281.619 15.2813 280.443 15.763 279.68 16.5448C278.917 17.3265 277.976 17.2148 276.973 16.9519C276.482 16.8283 275.971 16.689 276.237 17.3898C276.318 17.6637 276.286 17.9513 276.146 18.2102C276.005 18.469 275.765 18.6853 275.46 18.8269C274.962 19.1189 274.595 19.4657 274.87 19.9746C274.991 20.1816 275.184 20.3561 275.426 20.4773C275.668 20.5985 275.949 20.6612 276.236 20.6579C277.474 20.7788 278.685 21.0372 279.832 21.4255C280.594 21.6346 281.256 21.8286 281.831 21.2243C281.93 21.1116 282.079 21.0943 282.05 21.1665C281.747 21.9682 283.2 21.1564 283.057 21.9567C282.96 22.6331 282.687 23.2862 282.254 23.8734C281.839 24.4364 282.258 24.4247 282.61 24.5495C282.695 24.5645 282.784 24.5637 282.87 24.5472C285.066 24.2005 287.142 24.8855 289.283 24.9947C289.589 24.9993 289.882 25.0934 290.106 25.2592C291.023 26.1221 292.219 25.6722 293.279 25.6789C293.899 25.6735 295.735 26.3686 295.909 26.8625C295.91 26.9664 295.912 27.1182 295.972 27.1656C296.615 27.5515 297.209 27.9538 297.185 28.6812C297.187 28.833 297.646 28.7331 297.875 28.6352C298.502 28.374 299.12 28.097 299.868 27.8188C299.764 28.5148 299.053 28.4891 298.625 28.7086C297.998 29.0257 297.971 29.3935 298.634 29.6434C299.385 30.0163 300.203 30.2948 301.061 30.4692C302.012 30.5987 302.912 30.9049 303.687 31.363C304.462 31.8211 305.091 32.4184 305.524 33.107C306.193 34.1559 307.587 33.4805 308.53 33.8798C308.821 34.0131 309.398 33.5846 309.532 34.0229C309.665 34.4612 309.055 34.4505 308.807 34.6764C308.401 35.0715 307.081 35.131 308.009 36.0497C308.191 36.2239 307.872 36.3306 307.682 36.4121C306.731 36.8966 305.643 37.181 304.52 37.2388C303.72 37.2458 303.273 37.6492 302.655 37.8623C302.426 37.9522 302.197 38.122 302.34 38.3605C302.482 38.599 302.803 38.764 303.091 38.5777C303.609 38.2535 303.83 38.4593 304.253 38.7433C304.927 39.1849 305.714 38.9223 306.472 38.676C307.23 38.4297 308.134 37.7506 308.634 38.9368C309.562 38.705 310.431 39.7202 311.375 39.0168C311.445 38.9602 311.373 38.801 311.585 38.967C311.796 39.1329 312.014 40.0419 312.485 39.031C312.574 38.8545 312.987 39.2424 313.029 39.4418C313.175 40.1596 313.251 40.8781 313.357 41.5963C313.36 41.828 313.292 42.1083 313.092 42.15C311.845 42.4325 311.524 43.514 310.548 43.97C309.389 44.526 308.163 44.989 306.89 45.3523C305.33 45.8116 303.647 45.9311 302.014 45.6985C299.864 45.509 297.687 45.6446 295.597 46.0981C295.128 46.1821 295.142 46.6134 294.652 46.5937C294.644 45.6989 293.992 45.4808 292.974 45.6815C291.706 45.9403 290.571 46.5495 289.414 46.8152C288.396 47.1173 287.352 47.3588 286.29 47.5377C286.08 47.5395 285.838 47.3498 285.58 47.48C285.783 47.9451 286.18 48.3399 286.704 48.5985C287.229 48.8571 287.849 48.9639 288.462 48.9011C290.043 48.7342 291.636 48.6509 293.23 48.6517C293.49 48.6494 293.76 48.735 293.682 48.9114C293.034 50.3074 294.54 49.9027 295.383 50.1671C294.172 51.4959 292.497 52.5089 290.568 53.0776C288.085 53.8025 285.479 53.1939 283.077 54.0939C282.569 54.2821 281.454 53.7245 280.425 53.8693C277.659 54.269 274.903 54.7165 272.105 54.9726C270.107 55.1739 267.714 54.8032 265.966 56.2088C265.698 56.4269 264.876 56.2183 264.316 56.2232C262.007 56.3073 259.708 56.3993 257.399 56.5313C256.879 56.5358 256.049 56.4951 256.636 57.337C257.224 58.1788 256.108 58.6999 255.578 58.7125C254.119 58.7253 253.166 59.5326 251.919 59.9031C251.42 60.0433 250.832 60.2482 250.469 59.9157C250.106 59.5833 250.704 59.2984 250.951 59.0326C251.199 58.7667 251.397 58.5732 251.235 58.279C251.072 57.9848 250.684 58.172 250.423 58.1103C249.151 57.8018 247.785 58.3331 246.52 57.7049C246.192 57.6248 245.846 57.607 245.508 57.653C245.169 57.6989 244.849 57.8074 244.572 57.9696C242.861 59.0233 241.056 58.3759 239.296 58.3912C238.345 58.3431 237.392 58.4689 236.509 58.7591C236.248 58.8843 235.937 58.9243 235.64 58.8706C233.166 58.3408 232.797 58.4399 231.341 60.0667C231.103 60.3245 230.826 60.6545 230.415 60.5462C229.172 60.2215 228.097 60.7982 226.938 60.9281C226.485 61.0092 226.011 60.9713 225.588 60.8201C225.321 60.6929 225.018 60.6237 224.707 60.6194C224.397 60.6151 224.09 60.6758 223.817 60.7956C222.336 61.7513 220.635 61.7103 218.896 61.7494C217.646 61.7603 216.46 62.2421 215.138 61.934C214.711 61.8131 214.249 61.7922 213.807 61.874C213.365 61.9557 212.96 62.1365 212.642 62.3953C212.325 62.6299 211.911 62.7621 211.48 62.7658C211.049 62.7696 210.632 62.6447 210.312 62.4156C210.251 62.3682 210.151 62.3051 210.091 62.3137C207.494 62.6639 204.877 61.8478 202.292 62.3817C199.557 62.9489 196.842 62.4293 194.122 62.3651C193.672 62.3691 193.07 62.1106 193.177 61.7981C193.258 61.5655 193.403 61.3504 193.602 61.1687C193.802 60.9871 194.05 60.8437 194.328 60.7493C194.914 60.6138 195.467 60.3981 195.962 60.1118C196.181 59.958 196.56 59.8429 196.337 59.5492C196.245 59.4478 196.111 59.3765 195.958 59.3484C195.805 59.3204 195.645 59.3375 195.506 59.3966C193.945 59.8608 192.57 60.6544 191.526 61.6926C191.394 61.8828 191.198 62.0396 190.96 62.1449C190.722 62.2502 190.452 62.2997 190.181 62.2876C189.001 62.2979 187.76 62.101 186.675 62.7497C186.297 62.9768 185.845 62.6931 185.424 62.6168C183.371 62.2192 181.293 61.3265 179.255 62.6707C179.155 62.7429 179.025 62.7834 178.891 62.7846C178.756 62.7857 178.626 62.7475 178.525 62.677C178.263 62.4716 178.613 62.4046 178.691 62.2681C178.898 61.9147 177.944 61.4036 177.255 61.4816C177.255 61.4816 174.484 62.5525 174.424 62.569C173.557 62.8962 172.754 63.6942 171.726 62.8003C171.444 62.563 171.166 62.8052 170.877 62.8636C169.878 63.0481 168.883 63.5362 167.985 62.6811C167.936 62.6507 167.879 62.6307 167.817 62.6229C167.756 62.615 167.693 62.6196 167.635 62.6362C166.531 63.0409 165.287 63.1253 164.117 62.8747C162.779 62.7366 161.419 62.8164 160.119 63.1093C159.201 63.2931 158.176 62.7268 157.487 62.8606C155.89 63.1702 154.376 62.72 152.828 62.9013C151.699 63.055 150.528 62.9214 149.524 63.5773C149.392 63.64 149.246 63.6803 149.095 63.6955C148.943 63.7108 148.79 63.7007 148.644 63.6659C148.498 63.6311 148.362 63.5724 148.246 63.4934C148.13 63.4145 148.036 63.317 147.97 63.2074C147.827 62.849 146.963 62.3292 147.889 61.8657C148.028 61.8005 148.206 61.5992 148.176 61.5436C147.364 60.2243 149.166 60.3683 149.615 60.2765C150.483 60.0932 150.549 59.5732 150.805 59.1794C150.865 59.0949 150.893 58.9988 150.887 58.9021C150.881 58.8054 150.841 58.7122 150.771 58.6333C150.701 58.5544 150.605 58.4931 150.493 58.4564C150.381 58.4197 150.258 58.4092 150.139 58.4262C148.286 58.5308 146.426 58.5149 144.578 58.3788C142.471 58.1513 140.336 58.119 138.218 58.2825C137.388 58.3297 136.446 58.0503 135.536 58.0742C134.994 58.0301 134.447 58.1169 133.965 58.3234C133.484 58.5298 133.091 58.8464 132.836 59.2324C132.75 58.546 132.081 58.6796 131.509 58.4449C129.852 57.9426 128.042 57.8553 126.317 58.1946C124.84 58.4895 123.3 58.522 121.808 58.2899C121.598 58.2443 121.384 58.2141 121.167 58.1996C120.757 58.1552 120.247 58.1597 120.23 58.5434C120.214 58.927 120.704 58.9947 121.083 58.8715C121.175 58.8359 121.276 58.8162 121.378 58.8136C121.48 58.811 121.582 58.8255 121.677 58.8563C121.771 58.8872 121.856 58.9335 121.927 58.9924C121.997 59.0513 122.052 59.1215 122.086 59.1984C122.564 60.0571 123.342 59.8666 124.09 59.6123C124.402 59.4944 124.758 59.4715 125.089 59.5477C126.201 59.7046 127.346 59.6481 128.427 59.3827C129.276 59.2075 130.29 58.5674 131.097 59.2955C131.903 60.0236 132.351 59.7799 132.876 59.1841ZM189.961 58.8297C189.687 58.896 189.392 58.8782 189.134 58.78C188.876 58.6818 188.674 58.5101 188.566 58.2986C188.232 57.863 187.721 57.5321 187.118 57.3604C185.614 56.8221 184.119 57.3865 182.699 57.3989C181.699 57.4076 180.43 57.5146 179.409 57.4276C177.004 57.1969 174.57 57.2181 172.17 57.4908C171.112 57.6967 170.013 57.728 168.941 57.5829C166.937 57.1689 165.128 58.3513 163.202 57.7528C163.202 57.7528 163.063 57.8339 162.983 57.8506C161.491 58.1342 159.957 58.2525 158.426 58.202C157.656 58.2087 156.709 58.5446 156.177 58.2776C155.173 57.767 154.236 58.1667 153.286 58.1031C152.495 58.062 152.218 58.3601 152.394 59.0217C152.631 59.9146 153.123 60.134 154.241 59.9005C155.639 59.6007 157.004 59.0774 158.486 59.2642C159.347 59.3745 160.229 59.3396 161.075 59.1617C161.555 58.9919 162.079 58.9181 162.603 58.947C163.126 58.9758 163.631 59.1064 164.076 59.3273C164.318 59.4473 164.593 59.5175 164.878 59.5318C165.162 59.546 165.447 59.5038 165.707 59.409C165.914 59.3055 166.149 59.2425 166.392 59.2251C166.635 59.2077 166.88 59.2364 167.106 59.3089C168.408 59.866 169.926 60.0096 171.359 59.7112C172.458 59.5498 173.58 59.7558 174.669 59.6823C175.823 59.5798 176.988 59.61 178.13 59.772C178.981 59.9365 179.877 59.8811 180.688 59.6138C181.38 59.3693 182.136 59.2634 182.889 59.3056C183.642 59.3478 184.37 59.5366 185.01 59.8558C185.231 59.9577 185.413 60.1878 185.683 60.1296C187.07 59.8138 188.621 59.9201 189.961 58.8297ZM76.055 48.6373C79.3547 48.6085 82.6503 48.1083 85.9366 48.8387C86.7562 48.957 87.6021 48.8859 88.3747 48.6336C89.3177 48.3012 90.3423 48.1447 91.3706 48.176C91.6052 48.2219 91.8527 48.2023 92.072 48.1205C92.2914 48.0386 92.4694 47.8994 92.5767 47.726C92.6649 47.5665 92.6976 47.3911 92.6714 47.2184C92.6453 47.0456 92.5612 46.8819 92.4281 46.7445C92.0756 46.4519 91.5674 46.6561 91.0986 46.796C90.4005 47.0099 89.7764 47.6865 89.2058 47.6116C86.7729 47.2732 84.3916 48.2609 81.9765 47.6747C80.4176 47.4006 78.8202 47.2883 77.2237 47.3406C75.5835 47.307 73.4487 46.7503 72.1827 48.3594C72.1036 48.456 71.8639 48.498 71.8953 48.6576C71.9267 48.8171 72.197 48.8467 72.3974 48.9009C73.9713 49.3506 74.9814 48.2151 76.3096 48.0118C76.4293 48.0027 76.5497 48.0017 76.6695 48.0086C76.653 48.4003 76.0022 48.3101 76.0553 48.6692L76.055 48.6373ZM96.66 48.1218C98.2592 48.036 99.7533 48.5023 101.313 48.5047C101.69 48.4584 102.071 48.4338 102.453 48.4309C103.574 48.5969 104.447 47.8381 105.448 47.9173C106.965 47.9301 108.474 48.0887 109.942 48.3895C111.205 48.746 111.94 48.1723 112.807 47.8611C113.047 47.7711 113.433 47.3123 112.902 47.253C111.37 47.0746 109.763 46.1857 108.273 47.4052C108.045 47.591 107.677 47.8579 107.366 47.6529C106.884 47.3766 106.335 47.1839 105.754 47.0872C105.173 46.9905 104.572 46.9918 103.991 47.091C102.432 47.2005 100.861 47.1183 99.3013 47.132C98.7922 47.1235 98.2873 47.2118 97.8282 47.3894C97.3691 47.567 96.9688 47.829 96.6603 48.1538L96.66 48.1218ZM129.39 47.0372C128.303 47.1574 127.201 46.938 126.314 46.4248C125.929 46.1942 125.483 46.0352 125.011 45.9592C124.538 45.8832 124.049 45.892 123.581 45.9852C122.054 46.3261 120.527 46.6511 118.969 46.8884C118.69 46.9443 118.448 47.0827 118.292 47.2755C118.136 47.4683 118.077 47.701 118.128 47.9265C118.13 48.2301 118.561 48.2823 118.96 48.2229C120.488 48.0178 122.026 47.7726 123.565 47.6633C124.444 47.4755 125.371 47.4923 126.236 47.7119C127.821 48.3613 128.051 48.3353 129.39 47.0372ZM68.2283 55.8569C67.6489 55.8768 67.0763 55.7565 66.5853 55.5117C65.2312 55.0441 63.8973 55.7349 62.4857 55.5475C61.8248 55.4414 60.8698 56.0091 59.9284 55.8495C59.3676 55.7585 59.2112 56.1674 59.0037 56.4568C58.6975 56.883 59.2081 56.9584 59.47 57.1719C60.1851 57.7649 61.1321 57.4211 61.9428 57.5099C63.0777 57.6597 64.2421 57.5876 65.3367 57.2998C66.4312 57.0119 67.4234 56.5169 68.2283 55.8569ZM285.545 36.6293C286.535 36.687 287.519 36.8013 288.488 36.9712C289.134 37.1557 289.807 37.276 290.491 37.3293C291.804 37.0195 293.204 37.0492 294.492 37.4142C294.588 37.4372 294.69 37.4397 294.788 37.4215C294.887 37.4032 294.977 37.3649 295.052 37.3102C295.126 37.2555 295.181 37.1864 295.212 37.1096C295.242 37.0329 295.248 36.9511 295.227 36.8724C295.174 36.5772 295.329 35.9766 294.72 36.0778C293.502 36.2722 292.297 35.7713 291.12 36.1092C290.738 36.2279 290.329 36.2804 289.92 36.2633C289.512 36.2462 289.113 36.1599 288.749 36.0101C288.206 35.8151 287.597 35.7702 287.017 35.8823C286.437 35.9944 285.919 36.2571 285.545 36.6293ZM55.9226 55.1733C54.4217 55.0665 54.2311 56.1389 53.5968 56.7917C53.3688 57.0254 53.1912 57.2986 53.6031 57.5107C53.6727 57.5673 53.7605 57.6074 53.857 57.6265C53.9534 57.6456 54.0547 57.643 54.1497 57.619C54.2446 57.595 54.3295 57.5506 54.3951 57.4906C54.4606 57.4306 54.5042 57.3574 54.521 57.279C54.6285 56.9904 54.7183 56.9657 55.118 56.9382C55.9011 56.8731 56.6701 56.724 57.4041 56.4948C57.8032 56.3874 58.2905 56.0795 57.7176 55.7489C57.1497 55.5016 56.5473 55.3084 55.9226 55.1733Z" fill="url(#paint0_linear_5138_33753)"/>
<defs>
<linearGradient id="paint0_linear_5138_33753" x1="6.01036" y1="7.36106" x2="345.133" y2="70.7067" gradientUnits="userSpaceOnUse">
<stop stop-color="#4887FF"/>
<stop offset="1" stop-color="#2972FF"/>
</linearGradient>
</defs>
</svg>
