<svg width="40" height="40" viewBox="0 0 40 40" fill="none" xmlns="http://www.w3.org/2000/svg">
<path d="M39.3962 24.8388C36.725 35.5532 25.8731 42.0738 15.1574 39.402C4.44624 36.7308 -2.07432 25.8782 0.597994 15.1647C3.26796 4.44911 14.1199 -2.07194 24.8322 0.599201C35.5471 3.27034 42.0673 14.1241 39.3959 24.839L39.3961 24.8388H39.3962Z" fill="#F7931A"/>
<path d="M28.85 17.1363C29.248 14.4747 27.2217 13.044 24.4509 12.0896L25.3497 8.48429L23.1551 7.93743L22.28 11.4478C21.7031 11.3039 21.1106 11.1683 20.5217 11.0339L21.4031 7.50035L19.2097 6.95349L18.3104 10.5576C17.8329 10.4489 17.364 10.3415 16.909 10.2283L16.9116 10.217L13.8851 9.46118L13.3012 11.8052C13.3012 11.8052 14.9295 12.1785 14.8952 12.2014C15.7839 12.4233 15.9446 13.0116 15.9179 13.4779L14.894 17.5852C14.9552 17.6007 15.0346 17.6232 15.1222 17.6584C15.049 17.6402 14.9711 17.6204 14.8902 17.601L13.455 23.3548C13.3464 23.6248 13.0707 24.03 12.4494 23.8761C12.4714 23.908 10.8543 23.478 10.8543 23.478L9.76465 25.9902L12.6207 26.7022C13.152 26.8354 13.6726 26.9748 14.1854 27.1059L13.2772 30.7526L15.4693 31.2995L16.3687 27.6915C16.9676 27.8541 17.5487 28.004 18.1177 28.1454L17.2213 31.7364L19.4161 32.2832L20.3242 28.6434C24.0666 29.3516 26.8805 29.0661 28.065 25.6811C29.0194 22.9558 28.0175 21.3839 26.0486 20.3588C27.4826 20.0281 28.5628 19.0849 28.8508 17.1366L28.8501 17.1361L28.85 17.1363ZM23.8357 24.1676C23.1574 26.8929 18.5688 25.4197 17.0812 25.0503L18.2863 20.2191C19.7739 20.5905 24.5445 21.3254 23.8358 24.1676H23.8357ZM24.5144 17.0968C23.8957 19.5757 20.0766 18.3163 18.8377 18.0075L19.9303 13.6259C21.1692 13.9347 25.1589 14.5111 24.5146 17.0968H24.5144Z" fill="white"/>
</svg>
