<svg width="106" height="14" viewBox="0 0 106 14" fill="none" xmlns="http://www.w3.org/2000/svg">
<path d="M5.94748 5.932H10.8475V6.604C10.8475 7.948 10.4041 9.04933 9.51748 9.908C8.64014 10.7573 7.48281 11.182 6.04548 11.182C4.53348 11.182 3.28281 10.692 2.29348 9.712C1.31348 8.732 0.823477 7.528 0.823477 6.1C0.823477 4.68133 1.31348 3.482 2.29348 2.502C3.28281 1.51267 4.50548 1.018 5.96148 1.018C6.86681 1.018 7.69748 1.228 8.45348 1.648C9.21881 2.05867 9.81148 2.62333 10.2315 3.342L8.84548 4.14C8.58414 3.664 8.19681 3.286 7.68348 3.006C7.17014 2.726 6.59614 2.586 5.96148 2.586C4.93481 2.586 4.09014 2.922 3.42748 3.594C2.76481 4.27533 2.43348 5.11533 2.43348 6.114C2.43348 7.122 2.76481 7.95733 3.42748 8.62C4.10881 9.28267 4.98614 9.614 6.05948 9.614C6.91814 9.614 7.62281 9.41333 8.17348 9.012C8.72414 8.61067 9.07414 8.06467 9.22348 7.374H5.94748V5.932ZM19.1233 8.144H13.5513C13.6633 8.66667 13.9153 9.07267 14.3073 9.362C14.7087 9.65133 15.2033 9.796 15.7913 9.796C16.5847 9.796 17.1867 9.50667 17.5973 8.928L18.8433 9.656C18.162 10.6733 17.14 11.182 15.7773 11.182C14.648 11.182 13.7287 10.8367 13.0193 10.146C12.3193 9.446 11.9693 8.564 11.9693 7.5C11.9693 6.464 12.3147 5.59133 13.0053 4.882C13.6867 4.17267 14.5733 3.818 15.6653 3.818C16.6827 3.818 17.5227 4.17733 18.1853 4.896C18.848 5.61467 19.1793 6.48733 19.1793 7.514C19.1793 7.70067 19.1607 7.91067 19.1233 8.144ZM13.5373 6.912H17.6533C17.5507 6.36133 17.3173 5.93667 16.9533 5.638C16.5987 5.33933 16.1647 5.19 15.6513 5.19C15.0913 5.19 14.6247 5.344 14.2513 5.652C13.878 5.96 13.64 6.38 13.5373 6.912ZM24.337 4V5.456H22.601V8.816C22.601 9.10533 22.6664 9.31533 22.797 9.446C22.9277 9.56733 23.119 9.63733 23.371 9.656C23.6324 9.66533 23.9544 9.66067 24.337 9.642V11C23.1797 11.14 22.349 11.042 21.845 10.706C21.341 10.3607 21.089 9.73067 21.089 8.816V5.456H19.801V4H21.089V2.488L22.601 2.04V4H24.337ZM33.4627 4V5.456H31.7267V8.816C31.7267 9.10533 31.7921 9.31533 31.9227 9.446C32.0534 9.56733 32.2447 9.63733 32.4967 9.656C32.7581 9.66533 33.0801 9.66067 33.4627 9.642V11C32.3054 11.14 31.4747 11.042 30.9707 10.706C30.4667 10.3607 30.2147 9.73067 30.2147 8.816V5.456H28.9267V4H30.2147V2.488L31.7267 2.04V4H33.4627ZM41.449 8.144H35.877C35.989 8.66667 36.241 9.07267 36.633 9.362C37.0343 9.65133 37.529 9.796 38.117 9.796C38.9103 9.796 39.5123 9.50667 39.923 8.928L41.169 9.656C40.4876 10.6733 39.4656 11.182 38.103 11.182C36.9736 11.182 36.0543 10.8367 35.345 10.146C34.645 9.446 34.295 8.564 34.295 7.5C34.295 6.464 34.6403 5.59133 35.331 4.882C36.0123 4.17267 36.899 3.818 37.991 3.818C39.0083 3.818 39.8483 4.17733 40.511 4.896C41.1736 5.61467 41.505 6.48733 41.505 7.514C41.505 7.70067 41.4863 7.91067 41.449 8.144ZM35.863 6.912H39.979C39.8763 6.36133 39.643 5.93667 39.279 5.638C38.9243 5.33933 38.4903 5.19 37.977 5.19C37.417 5.19 36.9503 5.344 36.577 5.652C36.2036 5.96 35.9656 6.38 35.863 6.912ZM44.4874 11H42.9754V0.78H44.4874V11ZM53.145 8.144H47.573C47.685 8.66667 47.937 9.07267 48.329 9.362C48.7303 9.65133 49.225 9.796 49.813 9.796C50.6063 9.796 51.2083 9.50667 51.619 8.928L52.865 9.656C52.1836 10.6733 51.1616 11.182 49.799 11.182C48.6696 11.182 47.7503 10.8367 47.041 10.146C46.341 9.446 45.991 8.564 45.991 7.5C45.991 6.464 46.3363 5.59133 47.027 4.882C47.7083 4.17267 48.595 3.818 49.687 3.818C50.7043 3.818 51.5443 4.17733 52.207 4.896C52.8696 5.61467 53.201 6.48733 53.201 7.514C53.201 7.70067 53.1823 7.91067 53.145 8.144ZM47.559 6.912H51.675C51.5723 6.36133 51.339 5.93667 50.975 5.638C50.6203 5.33933 50.1863 5.19 49.673 5.19C49.113 5.19 48.6463 5.344 48.273 5.652C47.8996 5.96 47.6616 6.38 47.559 6.912ZM60.2024 5.036V4H61.6864V10.678C61.6864 11.742 61.3364 12.5587 60.6364 13.128C59.9457 13.6973 59.0964 13.982 58.0884 13.982C56.4737 13.982 55.3677 13.4173 54.7704 12.288L56.0724 11.532C56.4364 12.2507 57.1177 12.61 58.1164 12.61C58.7697 12.61 59.2784 12.4373 59.6424 12.092C60.0157 11.756 60.2024 11.2847 60.2024 10.678V9.824C59.6331 10.636 58.8211 11.042 57.7664 11.042C56.7864 11.042 55.9511 10.692 55.2604 9.992C54.5791 9.28267 54.2384 8.42867 54.2384 7.43C54.2384 6.422 54.5791 5.57267 55.2604 4.882C55.9417 4.17267 56.7771 3.818 57.7664 3.818C58.8211 3.818 59.6331 4.224 60.2024 5.036ZM56.3804 8.998C56.8097 9.418 57.3417 9.628 57.9764 9.628C58.6111 9.628 59.1384 9.418 59.5584 8.998C59.9877 8.578 60.2024 8.05533 60.2024 7.43C60.2024 6.80467 59.9877 6.282 59.5584 5.862C59.1384 5.442 58.6111 5.232 57.9764 5.232C57.3417 5.232 56.8097 5.442 56.3804 5.862C55.9604 6.282 55.7504 6.80467 55.7504 7.43C55.7504 8.05533 55.9604 8.578 56.3804 8.998ZM65.1008 4V5.176C65.4834 4.308 66.2021 3.874 67.2568 3.874V5.512C66.6874 5.47467 66.1834 5.61467 65.7448 5.932C65.3154 6.24 65.1008 6.75333 65.1008 7.472V11H63.5888V4H65.1008ZM73.7298 4.994V4H75.2418V11H73.7298V9.992C73.1605 10.7853 72.3438 11.182 71.2798 11.182C70.3185 11.182 69.4971 10.8273 68.8158 10.118C68.1345 9.40867 67.7938 8.536 67.7938 7.5C67.7938 6.464 68.1345 5.59133 68.8158 4.882C69.4971 4.17267 70.3185 3.818 71.2798 3.818C72.3438 3.818 73.1605 4.21 73.7298 4.994ZM69.9358 9.11C70.3558 9.53 70.8831 9.74 71.5178 9.74C72.1525 9.74 72.6798 9.53 73.0998 9.11C73.5198 8.68067 73.7298 8.144 73.7298 7.5C73.7298 6.856 73.5198 6.324 73.0998 5.904C72.6798 5.47467 72.1525 5.26 71.5178 5.26C70.8831 5.26 70.3558 5.47467 69.9358 5.904C69.5158 6.324 69.3058 6.856 69.3058 7.5C69.3058 8.13467 69.5158 8.67133 69.9358 9.11ZM84.7881 3.818C85.5815 3.818 86.2208 4.07467 86.7061 4.588C87.1915 5.10133 87.4341 5.792 87.4341 6.66V11H85.9221V6.758C85.9221 6.282 85.8008 5.90867 85.5581 5.638C85.3155 5.36733 84.9841 5.232 84.5641 5.232C84.0881 5.232 83.7148 5.39067 83.4441 5.708C83.1735 6.016 83.0381 6.47333 83.0381 7.08V11H81.5261V6.758C81.5261 6.27267 81.4095 5.89933 81.1761 5.638C80.9521 5.36733 80.6301 5.232 80.2101 5.232C79.7435 5.232 79.3655 5.39067 79.0761 5.708C78.7961 6.02533 78.6561 6.48267 78.6561 7.08V11H77.1441V4H78.6561V4.84C79.1041 4.15867 79.7715 3.818 80.6581 3.818C81.5541 3.818 82.2168 4.18667 82.6461 4.924C83.1035 4.18667 83.8175 3.818 84.7881 3.818ZM92.9303 11V1.2H94.5403V11H92.9303ZM96.6387 1.2H100.489C101.833 1.2 102.948 1.67133 103.835 2.614C104.731 3.55667 105.179 4.71867 105.179 6.1C105.179 7.472 104.731 8.634 103.835 9.586C102.948 10.5287 101.833 11 100.489 11H96.6387V1.2ZM98.2487 9.46H100.489C101.413 9.46 102.164 9.14267 102.743 8.508C103.331 7.87333 103.625 7.07067 103.625 6.1C103.625 5.12933 103.331 4.32667 102.743 3.692C102.164 3.05733 101.413 2.74 100.489 2.74H98.2487V9.46Z" fill="#3579FC"/>
</svg>
