<svg width="34" height="29" viewBox="0 0 34 29" fill="none" xmlns="http://www.w3.org/2000/svg">
<path d="M1.88894 5.60156H0V28.0016H1.88894V5.60156Z" fill="url(#paint0_linear_5397_35996)"/>
<path d="M8.50027 6.53516H6.61133V21.4685H8.50027V6.53516Z" fill="url(#paint1_linear_5397_35996)"/>
<path d="M14.1663 1.86719H12.2773V17.7339H14.1663V1.86719Z" fill="url(#paint2_linear_5397_35996)"/>
<path d="M21.7229 0H19.834V28H21.7229V0Z" fill="url(#paint3_linear_5397_35996)"/>
<path d="M27.3889 8.39844H25.5V25.1984H27.3889V8.39844Z" fill="url(#paint4_linear_5397_35996)"/>
<path d="M34.0003 17.7344H32.1113V28.001H34.0003V17.7344Z" fill="url(#paint5_linear_5397_35996)"/>
<defs>
<linearGradient id="paint0_linear_5397_35996" x1="0.947618" y1="5.12505" x2="0.947618" y2="27.2883" gradientUnits="userSpaceOnUse">
<stop stop-color="#83A6FF"/>
<stop offset="1" stop-color="#5A78FF"/>
</linearGradient>
<linearGradient id="paint1_linear_5397_35996" x1="7.54667" y1="8.62426" x2="7.54667" y2="49.2078" gradientUnits="userSpaceOnUse">
<stop stop-color="#FF66A9"/>
<stop offset="1" stop-color="#F53689"/>
</linearGradient>
<linearGradient id="paint2_linear_5397_35996" x1="13.235" y1="5.49526" x2="13.235" y2="38.4631" gradientUnits="userSpaceOnUse">
<stop stop-color="#83A6FF"/>
<stop offset="1" stop-color="#5A78FF"/>
</linearGradient>
<linearGradient id="paint3_linear_5397_35996" x1="20.7794" y1="6.27153" x2="20.7794" y2="35.7539" gradientUnits="userSpaceOnUse">
<stop stop-color="#83A6FF"/>
<stop offset="1" stop-color="#5A78FF"/>
</linearGradient>
<linearGradient id="paint4_linear_5397_35996" x1="26.4678" y1="8.81521" x2="26.4678" y2="49.3316" gradientUnits="userSpaceOnUse">
<stop stop-color="#FF66A9"/>
<stop offset="1" stop-color="#F53689"/>
</linearGradient>
<linearGradient id="paint5_linear_5397_35996" x1="33.0669" y1="9.86449" x2="33.0669" y2="45.1358" gradientUnits="userSpaceOnUse">
<stop stop-color="#FF66A9"/>
<stop offset="1" stop-color="#F53689"/>
</linearGradient>
</defs>
</svg>
