<svg width="267" height="204" viewBox="0 0 267 204" fill="none" xmlns="http://www.w3.org/2000/svg">
<path fill-rule="evenodd" clip-rule="evenodd" d="M9.9173 80.9777L114.356 80.9777C114.356 80.9777 105.604 69.1422 91.4396 69.1422C77.2753 69.1422 76.7473 77.4449 68.6415 71.9471C60.5357 66.4494 62.2579 61.293 49.4215 61.293C36.5852 61.293 35.0741 75.752 24.4519 72.9552C13.8297 70.1584 9.9173 80.9777 9.9173 80.9777Z" fill="#EAEEF9"/>
<path opacity="0.7" fill-rule="evenodd" clip-rule="evenodd" d="M257.487 149.474L173.624 148.087C178.423 142.02 184.613 139.049 192.195 139.174C203.569 139.362 203.874 145.835 210.462 141.661C217.049 137.487 215.74 133.448 226.048 133.619C236.355 133.789 237.361 145.07 245.931 143.033C251.644 141.675 255.496 143.822 257.487 149.474Z" fill="#EAEEF9"/>
<path fill-rule="evenodd" clip-rule="evenodd" d="M75.4507 65.4224C74.458 65.782 72.9825 65.9805 71.1973 61.3644C69.4122 56.7482 68.9544 54.8066 69.8658 54.565C70.7771 54.3234 73.1277 57.0737 74.8425 60.0512C76.5573 63.0286 76.4435 65.0629 75.4507 65.4224Z" fill="#3579FC"/>
<path fill-rule="evenodd" clip-rule="evenodd" d="M79.6503 64.3078C80.6917 64.128 82.0699 63.57 81.2831 58.6892C80.4962 53.8085 79.9114 51.9005 79.0001 52.1421C78.0888 52.3837 77.443 55.9284 77.4626 59.3552C77.4822 62.7821 78.6089 64.4875 79.6503 64.3078Z" fill="#585D68"/>
<path fill-rule="evenodd" clip-rule="evenodd" d="M168.165 162.226C170.075 162.226 171.623 160.694 171.623 158.804C171.623 156.915 170.075 155.383 168.165 155.383C166.255 155.383 164.706 156.915 164.706 158.804C164.706 160.694 166.255 162.226 168.165 162.226Z" fill="#3579FC"/>
<path opacity="0.1" fill-rule="evenodd" clip-rule="evenodd" d="M20.9104 122.316C31.1879 116.602 42.7545 117.072 46.9039 121.543C47.2267 121.833 47.4999 122.16 47.7187 122.525C50.4412 127.066 43.7099 135.716 32.6839 141.846C22.6614 147.418 12.5404 148.989 8.73625 145.819C8.39536 145.638 8.07156 145.299 7.7604 144.78C4.51741 139.372 9.88438 128.446 20.9104 122.316ZM19.2297 118.756C22.4039 116.955 25.9397 116.682 28.5608 117.774C25.8029 118.466 22.9696 119.568 20.2288 121.124C17.7707 122.519 15.5966 124.16 13.7396 125.927C14.1847 123.239 16.1627 120.497 19.2297 118.756Z" fill="#211A38"/>
<path fill-rule="evenodd" clip-rule="evenodd" d="M146.498 46.6689C162.034 48.8292 175.989 41.0089 177.666 29.2018C179.343 17.3948 168.108 6.07193 152.572 3.91161C137.035 1.75129 123.081 9.57154 121.404 21.3786C119.727 33.1857 130.962 44.5085 146.498 46.6689Z" fill="url(#paint0_linear_1_4)"/>
<path fill-rule="evenodd" clip-rule="evenodd" d="M143.905 64.9295C179.706 69.9076 207.957 79.3757 210.52 61.3309C213.084 43.2862 186.884 19.3786 151.083 14.4004C115.282 9.42229 83.4363 25.2587 80.8731 43.3035C78.3099 61.3483 108.104 59.9513 143.905 64.9295Z" fill="white"/>
<path fill-rule="evenodd" clip-rule="evenodd" d="M80.548 43.2571C83.2843 23.9934 116.796 9.3025 151.13 14.0766C185.464 18.8508 213.584 42.1115 210.848 61.3752C209.839 68.4719 204.958 71.7379 195.924 72.1704C189.729 72.467 184.07 71.8394 169.106 69.3354L159.773 67.7501C153.112 66.6217 148.754 65.9315 143.86 65.2511L141.949 64.9897C138.406 64.5138 134.938 64.0965 130.404 63.5926L121.637 62.6414C104.128 60.7404 98.1538 59.8115 91.8862 57.704L91.5369 57.5848C83.22 54.7016 79.5537 50.2566 80.548 43.2571ZM210.195 61.2847C212.869 42.4584 185.057 19.4527 151.038 14.7223C117.018 9.99186 83.8744 24.5217 81.2002 43.348C80.2426 50.089 83.8045 54.2985 92.098 57.0872L92.2939 57.1527C98.1027 59.0844 103.806 60.0178 119.055 61.7032L127.941 62.6662C134.664 63.3987 139.051 63.9244 143.952 64.6059L145.865 64.8764C149.662 65.4223 153.356 66.0092 158.346 66.8482L167.131 68.3423C183.612 71.1285 189.484 71.8264 195.892 71.5197L196.259 71.5004C204.77 71.0134 209.251 67.9307 210.195 61.2847Z" fill="#D8DEE8"/>
<path fill-rule="evenodd" clip-rule="evenodd" d="M141.8 79.7432C177.601 84.7213 208.368 76.4764 210.52 61.3277C212.672 46.179 185.394 29.8629 149.593 24.8848C113.791 19.9067 83.0244 28.1516 80.8726 43.3003C78.7208 58.449 105.999 74.765 141.8 79.7432Z" fill="url(#paint1_linear_1_4)"/>
<path d="M149.639 24.5649C185.602 29.5656 213.035 45.974 210.847 61.3759C208.659 76.7777 177.718 85.0693 141.755 80.0687C105.792 75.068 78.3597 58.6596 80.5475 43.2577C81.6745 35.3239 90.4824 29.0668 104.568 25.7182C104.745 25.6761 104.923 25.7839 104.965 25.9589C105.008 26.1339 104.899 26.3098 104.722 26.3519C90.8703 29.6449 82.2794 35.7477 81.1998 43.3484C79.0839 58.244 106.208 74.4676 141.847 79.4233C177.486 84.3789 208.079 76.1807 210.195 61.2852C212.311 46.3896 185.187 30.1659 149.548 25.2103C138.548 23.6808 127.782 23.3698 118.04 24.2453C117.858 24.2616 117.698 24.1295 117.682 23.9503C117.665 23.771 117.799 23.6125 117.98 23.5963C127.774 22.7162 138.59 23.0286 149.639 24.5649Z" fill="#444B8C"/>
<path opacity="0.8" fill-rule="evenodd" clip-rule="evenodd" d="M143.29 69.2592C159.727 71.5447 173.975 66.8961 175.115 58.8762C176.254 50.8563 163.852 42.5021 147.415 40.2165C130.978 37.9309 116.73 42.5795 115.591 50.5995C114.452 58.6194 126.853 66.9736 143.29 69.2592Z" fill="url(#paint2_linear_1_4)"/>
<path fill-rule="evenodd" clip-rule="evenodd" d="M115.182 50.5438C116.364 42.2236 130.838 37.5013 147.472 39.8142C164.105 42.1271 176.703 50.6137 175.521 58.934C174.339 67.2542 159.865 71.9765 143.232 69.6636C126.598 67.3507 114 58.8641 115.182 50.5438ZM174.706 58.8204C175.803 51.1008 163.598 42.879 147.357 40.6207C131.117 38.3625 117.094 42.9375 115.998 50.657C114.901 58.3766 127.106 66.5984 143.346 68.8567C159.587 71.1149 173.609 66.5399 174.706 58.8204Z" fill="white"/>
<path fill-rule="evenodd" clip-rule="evenodd" d="M59.6161 184.94L199.4 184.941C199.4 184.941 167.463 55.3372 167.872 52.4577C168.587 47.4231 159.835 42.0442 148.323 40.4435C136.812 38.8428 128.394 40.9916 125.803 46.1612C123.212 51.3307 59.6161 184.94 59.6161 184.94Z" fill="url(#paint3_linear_1_4)"/>
<g filter="url(#filter0_d_1_4)">
<path d="M165.092 83.0599C166.417 82.8631 167.614 83.7342 167.812 85.0395L175.671 136.88C175.869 138.186 174.983 139.366 173.658 139.563L92.9892 151.534C91.6636 151.731 90.4666 150.86 90.2687 149.555L82.4094 97.7138C82.2115 96.4084 83.0975 95.2282 84.423 95.0315L165.092 83.0599V83.0599Z" fill="white"/>
</g>
<path d="M104.413 144.502L96.554 145.668L96.7235 146.786L104.582 145.619L104.413 144.502Z" fill="#E6EDF5"/>
<path d="M120.225 142.15L112.367 143.316L112.536 144.434L120.395 143.268L120.225 142.15Z" fill="#E6EDF5"/>
<path d="M136.131 139.795L128.273 140.961L128.442 142.079L136.301 140.912L136.131 139.795Z" fill="#E6EDF5"/>
<path d="M151.944 137.451L144.085 138.617L144.255 139.735L152.113 138.569L151.944 137.451Z" fill="#E6EDF5"/>
<path d="M167.85 135.088L159.992 136.254L160.161 137.372L168.02 136.205L167.85 135.088Z" fill="#E6EDF5"/>
<path d="M167.812 85.0395L168.293 88.2097L82.89 100.884L82.4094 97.7138C82.2115 96.4084 83.0975 95.2282 84.423 95.0315L165.092 83.0599C166.417 82.8631 167.614 83.7342 167.812 85.0395Z" fill="url(#paint4_linear_1_4)"/>
<path d="M85.4495 98.5982C85.8678 98.5361 86.1562 98.1519 86.0937 97.7399C86.0313 97.3279 85.6416 97.0443 85.2234 97.1064C84.8052 97.1684 84.5168 97.5527 84.5792 97.9647C84.6417 98.3766 85.0313 98.6603 85.4495 98.5982Z" fill="white"/>
<path d="M87.6273 98.2779C88.0455 98.2158 88.3339 97.8315 88.2714 97.4196C88.209 97.0076 87.8193 96.724 87.4011 96.7861C86.9829 96.8481 86.6945 97.2324 86.7569 97.6443C86.8194 98.0563 87.2091 98.3399 87.6273 98.2779Z" fill="white"/>
<path opacity="0.25" d="M126.683 137.477L95.1536 142.156L90.9271 114.277C92.5508 114.132 94.2833 114.065 95.9113 114.586C96.6165 114.768 97.2553 115.15 97.7329 115.746C97.9647 115.998 98.0877 116.17 98.1301 116.45C98.4466 117.261 99.0995 117.736 99.8711 117.717L100.643 117.698C102.091 117.673 103.302 118.638 103.609 120.022L104.152 122.325C105.737 122.566 105.941 122.632 107.337 122.901C107.541 122.966 107.621 122.859 107.702 122.752C107.782 122.644 107.957 122.523 108.052 122.509C108.242 122.481 108.336 122.467 108.511 122.345C108.687 122.224 108.971 122.182 109.108 122.448C109.846 123.482 111.175 123.952 111.994 124.879C113.015 125.872 114.313 125.489 115.274 125.441C115.558 125.399 115.87 125.544 116.182 125.688C117.597 126.717 119.975 130.273 121.49 130.048C122.058 129.964 122.574 130.174 123.024 130.583C124.688 132.625 125.894 134.829 126.683 137.477Z" fill="url(#paint5_linear_1_4)"/>
<path d="M90.9271 114.277C92.5508 114.132 94.2833 114.065 95.9113 114.586C96.6165 114.768 97.2553 115.15 97.7329 115.746C97.9647 115.998 98.0877 116.17 98.1301 116.45C98.4466 117.261 99.0995 117.736 99.8711 117.717L100.643 117.698C102.091 117.673 103.302 118.638 103.609 120.022L104.152 122.325C105.737 122.566 105.941 122.632 107.337 122.901C107.541 122.966 107.621 122.859 107.702 122.752C107.782 122.644 107.957 122.523 108.052 122.509C108.242 122.481 108.336 122.467 108.511 122.345C108.687 122.224 108.971 122.182 109.108 122.448C109.846 123.482 111.175 123.952 111.994 124.879C113.015 125.872 114.313 125.489 115.274 125.441C115.558 125.399 115.87 125.544 116.182 125.688C117.597 126.717 119.975 130.273 121.49 130.048C122.058 129.964 122.574 130.174 123.024 130.583C124.783 132.61 125.989 134.815 126.777 137.463" stroke="url(#paint6_linear_1_4)" stroke-width="1.73396" stroke-miterlimit="10"/>
<path opacity="0.25" d="M161.69 94.4338L167.302 131.45L135.678 136.143C135.489 136.171 135.352 135.905 135.513 135.691C136.91 134.053 135.581 133.583 136.396 131.937C137.036 130.412 136.996 126.318 138.578 125.893C140.239 125.36 141.426 120.417 141.542 117.349C141.58 116.962 141.822 116.64 142.201 116.584C143.431 116.401 144.454 115.487 144.962 114.363C145.483 113.332 145.692 112.157 145.793 110.903C145.817 110.423 146.167 110.18 146.532 110.031C146.991 109.867 147.394 109.331 147.512 108.836C147.498 108.743 147.579 108.636 147.565 108.542C147.603 108.155 147.859 107.927 148.128 107.791C148.398 107.656 148.777 107.6 149.103 107.837C149.198 107.823 149.212 107.917 149.293 107.809C149.388 107.795 149.373 107.702 149.359 107.609C149.655 105.086 150.03 102.456 151.031 100.115C151.377 99.2057 151.927 98.3615 152.585 97.5964C153.499 96.6027 154.768 96.033 156.08 95.743C157.391 95.4531 158.787 95.7226 160.071 95.2461C160.516 94.9894 161.122 94.5181 161.69 94.4338Z" fill="url(#paint7_linear_1_4)"/>
<path d="M135.513 135.69C136.911 134.053 135.581 133.583 136.396 131.936C137.036 130.411 136.997 126.318 138.578 125.893C140.24 125.36 141.427 120.417 141.542 117.349C141.58 116.962 141.822 116.64 142.201 116.584C143.432 116.401 144.455 115.487 144.962 114.363C145.483 113.332 145.693 112.157 145.793 110.903C145.817 110.422 146.167 110.18 146.532 110.03C146.991 109.867 147.394 109.33 147.513 108.836C147.498 108.743 147.579 108.635 147.565 108.542C147.603 108.155 147.859 107.927 148.129 107.791C148.399 107.656 148.777 107.6 149.104 107.837C149.198 107.823 149.213 107.916 149.293 107.809C149.388 107.795 149.374 107.702 149.36 107.608C149.655 105.086 150.031 102.456 151.031 100.115C151.377 99.2054 151.927 98.3612 152.585 97.5961C153.5 96.6024 154.769 96.0327 156.08 95.7427C157.391 95.4528 158.788 95.7222 160.071 95.2458C160.435 95.0964 161.136 94.611 161.596 94.4475" stroke="url(#paint8_linear_1_4)" stroke-width="1.73396" stroke-miterlimit="10"/>
<path d="M123.142 121.795L108.845 123.916C108.277 124.001 107.733 123.605 107.648 123.045L106.899 118.104C106.814 117.544 107.217 117.008 107.785 116.924L122.082 114.802C122.65 114.718 123.194 115.113 123.279 115.673L124.028 120.615C124.113 121.174 123.71 121.71 123.142 121.795Z" fill="#1C3754"/>
<path d="M120.484 117.044L109.974 118.604C109.784 118.632 109.623 118.847 109.652 119.033C109.68 119.22 109.898 119.378 110.087 119.35L120.597 117.79C120.786 117.762 120.947 117.548 120.919 117.361C120.891 117.175 120.673 117.016 120.484 117.044Z" fill="#F0F3FB"/>
<path d="M115.917 120.105L110.235 120.948C110.046 120.976 109.885 121.19 109.913 121.377C109.942 121.564 110.159 121.722 110.349 121.694L116.03 120.851C116.219 120.823 116.38 120.608 116.352 120.421C116.324 120.235 116.106 120.076 115.917 120.105Z" fill="#F0F3FB"/>
<path opacity="0.8" d="M70.0389 176.746C70.4562 176.797 70.8364 176.505 70.8881 176.094C70.9397 175.683 70.6432 175.308 70.2258 175.257C69.8084 175.206 69.4282 175.497 69.3766 175.908C69.325 176.32 69.6215 176.695 70.0389 176.746Z" fill="white"/>
<path d="M83.1274 153.601C84.3777 153.201 85.0618 151.879 84.6554 150.647C84.249 149.416 82.906 148.742 81.6558 149.143C80.4055 149.543 79.7213 150.865 80.1277 152.097C80.5341 153.328 81.8771 154.001 83.1274 153.601Z" fill="#F0F3FB"/>
<path d="M166.665 156.828C167.286 156.269 167.33 155.32 166.762 154.708C166.195 154.097 165.231 154.054 164.61 154.613C163.989 155.172 163.946 156.121 164.513 156.732C165.081 157.344 166.044 157.387 166.665 156.828Z" fill="#EAEEF9"/>
<defs>
<filter id="filter0_d_1_4" x="56.9503" y="70.3164" width="144.18" height="119.393" filterUnits="userSpaceOnUse" color-interpolation-filters="sRGB">
<feFlood flood-opacity="0" result="BackgroundImageFix"/>
<feColorMatrix in="SourceAlpha" type="matrix" values="0 0 0 0 0 0 0 0 0 0 0 0 0 0 0 0 0 0 127 0" result="hardAlpha"/>
<feOffset dy="12.7157"/>
<feGaussianBlur stdDeviation="12.7157"/>
<feColorMatrix type="matrix" values="0 0 0 0 0.397708 0 0 0 0 0.47749 0 0 0 0 0.575 0 0 0 0.08 0"/>
<feBlend mode="normal" in2="BackgroundImageFix" result="effect1_dropShadow_1_4"/>
<feBlend mode="normal" in="SourceGraphic" in2="effect1_dropShadow_1_4" result="shape"/>
</filter>
<linearGradient id="paint0_linear_1_4" x1="121.25" y1="22.4601" x2="174.72" y2="30.0554" gradientUnits="userSpaceOnUse">
<stop stop-color="#83A6FF"/>
<stop offset="1" stop-color="#5A78FF"/>
</linearGradient>
<linearGradient id="paint1_linear_1_4" x1="149.593" y1="24.8848" x2="141.961" y2="79.7656" gradientUnits="userSpaceOnUse">
<stop stop-color="#D8DEE8"/>
<stop offset="1" stop-color="#F4F4F4"/>
</linearGradient>
<linearGradient id="paint2_linear_1_4" x1="115.568" y1="50.584" x2="175.102" y2="59.0406" gradientUnits="userSpaceOnUse">
<stop offset="0.00289017" stop-color="#FFD44F"/>
<stop offset="1" stop-color="#FFA607"/>
</linearGradient>
<linearGradient id="paint3_linear_1_4" x1="74.7719" y1="-23.913" x2="4.54193" y2="175.202" gradientUnits="userSpaceOnUse">
<stop stop-color="#F9C453"/>
<stop offset="0.692708" stop-color="white" stop-opacity="0.01"/>
<stop offset="0.90625" stop-color="white"/>
</linearGradient>
<linearGradient id="paint4_linear_1_4" x1="106.434" y1="94.6128" x2="171.584" y2="84.7357" gradientUnits="userSpaceOnUse">
<stop offset="0.00806452" stop-color="#C8D3E6"/>
<stop offset="1" stop-color="white"/>
</linearGradient>
<linearGradient id="paint5_linear_1_4" x1="95.6107" y1="117.334" x2="119.242" y2="137.205" gradientUnits="userSpaceOnUse">
<stop stop-color="#51DFD4"/>
<stop offset="1" stop-color="#1BE068"/>
</linearGradient>
<linearGradient id="paint6_linear_1_4" x1="95.6231" y1="117.332" x2="119.256" y2="137.264" gradientUnits="userSpaceOnUse">
<stop stop-color="#2CF2E3"/>
<stop offset="1" stop-color="#23DE6C"/>
</linearGradient>
<linearGradient id="paint7_linear_1_4" x1="132.618" y1="117.641" x2="164.465" y2="112.812" gradientUnits="userSpaceOnUse">
<stop stop-color="#FF66A9"/>
<stop offset="1" stop-color="#F53689"/>
</linearGradient>
<linearGradient id="paint8_linear_1_4" x1="132.144" y1="117.711" x2="164.472" y2="112.81" gradientUnits="userSpaceOnUse">
<stop stop-color="#FF66A9"/>
<stop offset="1" stop-color="#F53689"/>
</linearGradient>
</defs>
</svg>
