<svg width="143" height="130" viewBox="0 0 143 130" fill="none" xmlns="http://www.w3.org/2000/svg">
<path d="M70.6759 110C97.0421 110 118.416 88.3125 118.416 61.5596C118.416 34.8068 97.0421 13.1193 70.6759 13.1193C44.3096 13.1193 22.9355 34.8068 22.9355 61.5596C22.9355 88.3125 44.3096 110 70.6759 110Z" fill="#EAEEF9"/>
<path d="M34.3646 29.3368H104.2C106.965 29.3368 109.138 31.5307 109.138 34.3229V78.8987C109.138 81.6909 106.965 83.8848 104.2 83.8848H34.3646C31.5989 83.8848 29.4258 81.6909 29.4258 78.8987V34.3229C29.4258 31.5307 31.6976 29.3368 34.3646 29.3368Z" fill="#D5DDE6"/>
<path d="M130.23 42.4631C131.76 41.0512 131.867 38.6543 130.468 37.1093C129.07 35.5644 126.696 35.4565 125.165 36.8683C123.635 38.2802 123.528 40.6771 124.927 42.222C126.325 43.767 128.699 43.8749 130.23 42.4631Z" fill="#EAEEF9"/>
<path d="M41.1504 15.8451C42.4474 15.4195 43.1571 14.013 42.7355 12.7036C42.3139 11.3942 40.9208 10.6777 39.6238 11.1033C38.3268 11.5289 37.6171 12.9354 38.0387 14.2448C38.4602 15.5542 39.8534 16.2707 41.1504 15.8451Z" fill="#EAEEF9"/>
<path d="M118.006 32.4572C118.879 32.4572 119.587 31.7429 119.587 30.8617C119.587 29.9805 118.879 29.2661 118.006 29.2661C117.133 29.2661 116.426 29.9805 116.426 30.8617C116.426 31.7429 117.133 32.4572 118.006 32.4572Z" fill="#DBDFEA"/>
<path d="M66.1708 57.9529C62.7136 51.1718 61.9234 42.8949 64.1953 35.5155C66.4671 28.136 71.7023 21.7538 78.3203 18.1638C80.3946 17.0669 82.6665 16.1694 85.0371 16.0697C87.4077 15.9699 89.8771 16.7677 91.4576 18.6624C93.038 20.4574 93.3343 23.3494 92.0502 25.3438C90.6673 27.2385 88.0004 27.9366 85.7285 27.438C82.1726 26.7399 79.2093 23.9477 78.3203 20.5572C77.4313 17.1666 78.6166 13.1777 81.2836 10.8841C83.0616 9.28856 85.4322 8.49078 87.704 7.79273C98.5695 4.60162 110.324 4.20273 121.387 6.59606" stroke="#C9D4E2" stroke-miterlimit="10" stroke-dasharray="4 4"/>
<path d="M110.54 57.9378V79.8767C110.54 82.6689 108.268 85.0624 105.404 85.0624H33.5934C30.8276 85.0624 28.457 82.7686 28.457 79.8767V56.0432" stroke="#1676EE" stroke-width="3" stroke-linecap="round" stroke-linejoin="round"/>
<g filter="url(#filter0_d_3092:19742)">
<path d="M104.347 45.6483H81.7633C79.5655 45.6483 77.4436 46.412 75.7763 47.7862L69.8651 52.6723C68.1978 54.0465 66.0759 54.8099 63.8781 54.8099H38.1869C35.6102 54.8099 33.4883 56.9477 33.4883 59.5435C33.4883 59.7725 33.4884 60.0015 33.5641 60.2305L38.2628 85.4248C38.6417 87.7915 40.6121 89.5474 42.9614 89.5474H97.6781C100.027 89.5474 101.998 87.8679 102.377 85.5012L108.97 51.069C109.425 48.4732 107.682 46.1064 105.105 45.6483C104.878 45.6483 104.575 45.6483 104.347 45.6483Z" fill="white"/>
</g>
<g filter="url(#filter1_d_3092:19742)">
<path d="M114.588 38.8907H85.1529C82.2884 38.8907 79.5228 39.8883 77.3497 41.6833L69.6451 48.0654C67.472 49.8604 64.7064 50.8574 61.8419 50.8574H28.3565C24.9981 50.8574 22.2324 53.6498 22.2324 57.0404C22.2324 57.3395 22.2325 57.6386 22.3313 57.9378L28.4554 90.846C28.9493 93.9374 31.5174 96.2309 34.5795 96.2309H105.896C108.958 96.2309 111.526 94.0372 112.02 90.9459L120.614 45.9711C121.206 42.5806 118.935 39.4891 115.576 38.8907C115.28 38.8907 114.885 38.8907 114.588 38.8907Z" fill="white"/>
<path d="M69.9635 48.4509L69.9641 48.4504L77.6681 42.0688C79.7511 40.3482 82.404 39.3907 85.1529 39.3907H114.588H115.531C118.605 39.9609 120.66 42.7893 120.122 45.8813C120.122 45.8825 120.121 45.8838 120.121 45.885L111.529 90.852L111.528 90.8595L111.526 90.867C111.071 93.7195 108.709 95.7309 105.896 95.7309H34.5795C31.7782 95.7309 29.4067 93.6311 28.9491 90.7672L28.9493 90.7671L28.9469 90.7546L22.8229 57.8463L22.8167 57.8131L22.8061 57.781C22.7364 57.5699 22.7324 57.3506 22.7324 57.0404C22.7324 53.9214 25.2788 51.3574 28.3565 51.3574H61.8419C64.8219 51.3574 67.7003 50.3203 69.9635 48.4509Z" stroke="#EEEEEE"/>
</g>
<path d="M57.5944 72.995C59.3401 72.995 60.7552 71.5661 60.7552 69.8037C60.7552 68.0413 59.3401 66.6129 57.5944 66.6129C55.8487 66.6129 54.4336 68.0413 54.4336 69.8037C54.4336 71.5661 55.8487 72.995 57.5944 72.995Z" fill="#1C3754"/>
<path d="M82.487 72.8962C84.2327 72.8962 85.6478 71.4677 85.6478 69.7053C85.6478 67.9429 84.2327 66.514 82.487 66.514C80.7413 66.514 79.3262 67.9429 79.3262 69.7053C79.3262 71.4677 80.7413 72.8962 82.487 72.8962Z" fill="#1C3754"/>
<path d="M73.0859 76.4056H67.0605V77.9015H73.0859V76.4056Z" fill="#1C3754"/>
<path d="M130.326 2.73356C130.175 4.79356 130.025 6.57889 128.367 6.99089C126.71 7.40289 125.957 6.02956 124.902 4.10689C123.847 2.32156 124.45 0.536228 126.258 0.124228C128.066 -0.287772 130.627 0.261561 130.326 2.73356Z" fill="#DAE2EB"/>
<path d="M128.937 12.7276C129.373 10.2201 129.81 8.96629 128.355 8.26974C126.755 7.57319 125.736 8.82698 124.136 10.4987C122.682 12.0311 123.554 14.1207 125.009 14.8173C126.609 15.6531 128.5 14.8173 128.937 12.7276Z" fill="#DAE2EB"/>
<path d="M130.328 8.06955C130.181 9.15844 129.444 9.93621 128.411 10.0918C127.969 10.0918 127.527 10.0918 126.937 10.0918C124.873 9.78066 123.251 8.38066 123.398 6.98066C123.545 5.58066 125.462 4.80288 127.674 5.11399C128.117 5.11399 128.559 5.26955 128.854 5.4251C129.886 5.73621 130.476 6.8251 130.328 8.06955C130.328 7.91399 130.328 8.06955 130.328 8.06955Z" fill="#ADB6C8"/>
<path d="M11.3965 27.1428C11.3965 25.4476 11.3965 23.852 12.5818 23.3534C13.8659 22.8548 14.5573 24.0514 15.4463 25.647C16.3353 27.1428 15.9402 28.6387 14.6561 29.1373C13.5696 29.6359 11.3965 29.3367 11.3965 27.1428Z" fill="#DAE2EB"/>
<path d="M12.0872 18.9656C11.8897 21.0598 11.5934 22.1567 12.8775 22.6553C14.1615 23.1539 14.853 22.057 16.0383 20.4614C17.0261 19.0653 16.3346 17.37 15.0505 16.8714C13.7664 16.3728 12.2848 17.2703 12.0872 18.9656Z" fill="#DAE2EB"/>
<path d="M11 22.8548C11 22.057 11.5927 21.4587 12.2841 21.359C12.5804 21.2592 12.9755 21.2592 13.3706 21.359C14.9511 21.4587 16.2351 22.3562 16.1364 23.3534C16.0376 24.3506 14.7535 25.0487 13.1731 24.8492C12.8768 24.8492 12.5804 24.7495 12.2841 24.6498C11.4939 24.4504 11 23.6526 11 22.8548Z" fill="#ADB6C8"/>
<path d="M17.6172 23.1539C27.7912 23.1539 46.5587 29.1373 46.855 50.9764" stroke="#C9D4E2" stroke-miterlimit="10" stroke-dasharray="4 4"/>
<defs>
<filter id="filter0_d_3092:19742" x="23.4883" y="26.6483" width="95.5547" height="63.899" filterUnits="userSpaceOnUse" color-interpolation-filters="sRGB">
<feFlood flood-opacity="0" result="BackgroundImageFix"/>
<feColorMatrix in="SourceAlpha" type="matrix" values="0 0 0 0 0 0 0 0 0 0 0 0 0 0 0 0 0 0 127 0" result="hardAlpha"/>
<feOffset dy="-9"/>
<feGaussianBlur stdDeviation="5"/>
<feColorMatrix type="matrix" values="0 0 0 0 0.397708 0 0 0 0 0.47749 0 0 0 0 0.575 0 0 0 0.13 0"/>
<feBlend mode="normal" in2="BackgroundImageFix" result="effect1_dropShadow_3092:19742"/>
<feBlend mode="normal" in="SourceGraphic" in2="effect1_dropShadow_3092:19742" result="shape"/>
</filter>
<filter id="filter1_d_3092:19742" x="0.232422" y="27.8907" width="142.475" height="101.34" filterUnits="userSpaceOnUse" color-interpolation-filters="sRGB">
<feFlood flood-opacity="0" result="BackgroundImageFix"/>
<feColorMatrix in="SourceAlpha" type="matrix" values="0 0 0 0 0 0 0 0 0 0 0 0 0 0 0 0 0 0 127 0" result="hardAlpha"/>
<feOffset dy="11"/>
<feGaussianBlur stdDeviation="11"/>
<feColorMatrix type="matrix" values="0 0 0 0 0.397708 0 0 0 0 0.47749 0 0 0 0 0.575 0 0 0 0.18 0"/>
<feBlend mode="normal" in2="BackgroundImageFix" result="effect1_dropShadow_3092:19742"/>
<feBlend mode="normal" in="SourceGraphic" in2="effect1_dropShadow_3092:19742" result="shape"/>
</filter>
</defs>
</svg>
