<svg width="24" height="24" viewBox="0 0 24 24" fill="none" xmlns="http://www.w3.org/2000/svg">
<path d="M9 12L11 14L15 10" stroke="#4B5563" stroke-width="1.5" stroke-linecap="round" stroke-linejoin="round"/>
<path d="M12.0028 3C14.3386 5.06658 17.3872 6.14257 20.5028 6C20.9564 7.54302 21.0951 9.16147 20.9109 10.7592C20.7266 12.3569 20.2231 13.9013 19.4302 15.3005C18.6373 16.6998 17.5712 17.9254 16.2952 18.9045C15.0193 19.8836 13.5596 20.5962 12.0028 21C10.446 20.5962 8.98624 19.8836 7.71031 18.9045C6.43437 17.9254 5.36827 16.6998 4.57536 15.3005C3.78245 13.9013 3.2789 12.3569 3.09464 10.7592C2.91038 9.16147 3.04917 7.54302 3.50276 6C6.61829 6.14257 9.66693 5.06658 12.0028 3" stroke="#4B5563" stroke-width="1.5" stroke-linecap="round" stroke-linejoin="round"/>
</svg>
