<svg width="120" height="112" viewBox="0 0 120 112" fill="none" xmlns="http://www.w3.org/2000/svg">
<path d="M112.408 62.6101C112.408 80.697 102.651 96.5976 88.1147 105.144C88.1147 105.144 88.0151 105.244 87.9155 105.244C86.9199 105.84 85.9242 106.337 84.9286 106.834C84.4308 107.132 83.933 107.331 83.4351 107.529C83.236 107.629 83.0369 107.728 82.8378 107.827H82.7382C82.5391 107.927 82.2404 108.026 82.0412 108.126C80.5478 108.821 78.9547 109.318 77.3617 109.815C77.1626 109.914 76.8639 110.014 76.6648 110.014C76.5652 110.014 76.4656 110.113 76.3661 110.113C76.2665 110.113 76.1669 110.113 76.1669 110.213C76.0674 110.213 75.9678 110.213 75.8682 110.312C73.7774 110.908 71.587 111.306 69.297 111.604C67.2062 111.902 65.1153 112.001 63.0245 112.001C59.6393 112.001 56.3536 111.703 53.1676 111.008C52.9685 111.008 52.7693 110.908 52.5702 110.908C51.8732 110.809 51.1763 110.61 50.4793 110.411C49.7824 110.213 49.0854 110.014 48.3885 109.815C45.6007 108.921 42.8129 107.827 40.2242 106.536C24.2939 98.2871 13.4414 81.6908 13.4414 62.6101C13.4414 35.2809 35.6443 13.2188 62.9249 13.2188C90.3051 13.2188 112.408 35.2809 112.408 62.6101Z" fill="#EAEEF9"/>
<path d="M58.6425 40.1479C53.8634 36.2721 51.3743 29.8125 52.2704 23.7503C53.266 16.8932 58.1447 15.6013 60.6338 16.6944C62.4259 17.4895 63.5211 19.8746 62.5255 21.6634C60.8329 24.8435 54.3612 23.5516 53.0669 18.0857C52.5691 16.0982 53.0669 13.9118 54.2617 12.2224C56.2529 9.53916 59.9368 8.54537 63.2224 8.04848C64.019 8.04848 64.8155 7.9491 65.5124 7.84972C67.3046 7.65096 69.495 7.35282 71.785 7.05469" stroke="#D5DAE8" stroke-miterlimit="10" stroke-linecap="round" stroke-linejoin="round"/>
<path d="M76.7623 8.24687L73.6758 9.63817L74.1736 4.37109" fill="#D5DAE8"/>
<path d="M96.5764 1.78882L95.1825 2.58385L79.0531 11.6273L74.8714 5.46584L74.1744 4.37267L71.1875 0L93.9877 1.59006L96.5764 1.78882Z" fill="#EAEEF9"/>
<path d="M96.5758 1.7886L95.1819 2.58363L74.8708 5.46562L74.1738 4.37245L93.9871 1.58984L96.5758 1.7886Z" fill="#D5DAE8"/>
<path d="M15.2008 33.6606C16.5082 33.2365 17.2235 31.8349 16.7986 30.53C16.3737 29.2251 14.9694 28.5111 13.6621 28.9352C12.3547 29.3593 11.6394 30.761 12.0643 32.0659C12.4892 33.3708 13.8935 34.0848 15.2008 33.6606Z" fill="#EAEEF9"/>
<path d="M20.6346 25.5544C21.5235 25.266 22.01 24.3129 21.721 23.4255C21.4321 22.5382 20.4772 22.0527 19.5882 22.3411C18.6992 22.6295 18.2128 23.5826 18.5017 24.4699C18.7907 25.3573 19.7456 25.8428 20.6346 25.5544Z" fill="#EAEEF9"/>
<path d="M41.0851 13.8834C42.6276 12.4764 42.7353 10.0877 41.3257 8.54809C39.9161 7.00846 37.5229 6.90093 35.9804 8.30791C34.4379 9.71489 34.3302 12.1036 35.7398 13.6432C37.1494 15.1828 39.5426 15.2904 41.0851 13.8834Z" fill="#EAEEF9"/>
<path d="M118.823 33.2593C119.473 32.6669 119.518 31.6611 118.925 31.0128C118.331 30.3646 117.323 30.3193 116.674 30.9117C116.025 31.5041 115.979 32.5099 116.573 33.1582C117.166 33.8064 118.174 33.8517 118.823 33.2593Z" fill="#EAEEF9"/>
<path d="M77.8579 82.7812V110.11C77.6587 110.21 77.4596 110.21 77.2605 110.309C74.9705 110.905 72.581 111.402 70.1914 111.701V82.7812H77.8579Z" fill="#4988FD"/>
<path d="M77.8579 82.7812V110.11C77.6587 110.21 77.4596 110.21 77.2605 110.309C74.9705 110.905 72.581 111.402 70.1914 111.701V82.7812H77.8579Z" fill="white"/>
<path d="M84.9282 82.7812V106.93C84.4304 107.228 83.9326 107.427 83.4348 107.626C83.2356 107.725 83.0365 107.825 82.8374 107.924H82.7378C82.5387 108.023 82.24 108.123 82.0409 108.222C80.5474 108.918 78.9544 109.415 77.3613 109.912V82.7812H84.9282Z" fill="#2767F4"/>
<path d="M84.9282 82.7812V106.93C84.4304 107.228 83.9326 107.427 83.4348 107.626C83.2356 107.725 83.0365 107.825 82.8374 107.924H82.7378C82.5387 108.023 82.24 108.123 82.0409 108.222C80.5474 108.918 78.9544 109.415 77.3613 109.912V82.7812H84.9282Z" fill="#D5DAE8"/>
<path opacity="0.1" d="M84.9282 93.2148V105.24C84.53 105.438 84.1317 105.637 83.7334 105.836C83.5343 105.935 83.3352 106.035 83.1361 106.134H83.0365C82.8374 106.233 82.5387 106.333 82.3395 106.432C80.8461 107.128 79.2531 107.625 77.66 108.122C77.5605 108.122 77.4609 108.221 77.3613 108.221V105.637C77.4609 105.339 77.5605 105.041 77.66 104.743C79.1535 100.867 81.0452 97.7863 83.2356 95.2024C83.7334 94.5068 84.3308 93.8111 84.9282 93.2148Z" fill="#062C78"/>
<path opacity="0.1" d="M84.9269 82.7812H70.1914V91.3278H84.9269V82.7812Z" fill="#062C78"/>
<path d="M116.19 52.5705V83.1792H92.2947V83.2786H44.4043V28.322H89.9052C90.5026 28.2227 91.1 28.2227 91.7969 28.2227C92.5934 28.2227 93.2904 28.2227 94.0869 28.322C95.0826 28.4214 95.9786 28.5208 96.8747 28.7196C101.554 29.7133 105.736 32.0984 109.022 35.2786C113.502 39.7506 116.19 45.9121 116.19 52.5705Z" fill="url(#paint0_linear_5487_37687)"/>
<path d="M96.8757 28.8172V51.575C96.8757 52.37 96.2783 52.9663 95.4818 52.9663C94.6853 52.9663 94.0879 52.37 94.0879 51.575V28.3203C94.984 28.4197 95.9796 28.6184 96.8757 28.8172Z" fill="url(#paint1_linear_5487_37687)"/>
<path d="M95.9799 59.7246C99.0043 59.7246 101.456 57.2775 101.456 54.2588C101.456 51.2401 99.0043 48.793 95.9799 48.793C92.9556 48.793 90.5039 51.2401 90.5039 54.2588C90.5039 57.2775 92.9556 59.7246 95.9799 59.7246Z" fill="#5C71FF"/>
<path d="M96.8744 59.0293C100.009 59.0293 102.55 56.5822 102.55 53.5635C102.55 50.5448 100.009 48.0977 96.8744 48.0977C93.7401 48.0977 91.1992 50.5448 91.1992 53.5635C91.1992 56.5822 93.7401 59.0293 96.8744 59.0293Z" fill="#D5DAE8"/>
<path d="M97.1733 59.0293C100.198 59.0293 102.649 56.5822 102.649 53.5635C102.649 50.5448 100.198 48.0977 97.1733 48.0977C94.149 48.0977 91.6973 50.5448 91.6973 53.5635C91.6973 56.5822 94.149 59.0293 97.1733 59.0293Z" fill="#EAEEF9"/>
<path d="M97.1729 55.6505C98.3276 55.6505 99.2637 54.7161 99.2637 53.5635C99.2637 52.4109 98.3276 51.4766 97.1729 51.4766C96.0181 51.4766 95.082 52.4109 95.082 53.5635C95.082 54.7161 96.0181 55.6505 97.1729 55.6505Z" fill="#D5DAE8"/>
<path d="M67.7006 50.1837V82.7768H19.9141V50.1837C19.9141 39.9894 27.1131 31.4417 36.6485 29.3051L36.6485 29.3053L36.6602 29.3023C38.1963 28.919 39.7431 28.8203 41.4178 28.8203H46.396C57.0855 28.8203 65.9309 36.5693 67.6011 46.8453C67.6023 47.3197 67.6248 47.8349 67.6477 48.3593L67.6513 48.4414C67.6762 49.0137 67.7006 49.5997 67.7006 50.1837Z" fill="url(#paint2_linear_5487_37687)" stroke="#96A7FF"/>
<path d="M98.7663 27.0312V53.3667C98.7663 54.1617 98.1689 54.758 97.3724 54.758C96.5759 54.758 95.9785 54.1617 95.9785 53.3667V27.0312H98.7663Z" fill="white"/>
<path d="M112.207 26.1354C112.606 26.4335 112.407 27.1292 111.809 27.1292H98.8658H95.8789V16.2969H111.809C112.307 16.2969 112.606 16.8931 112.207 17.2907L108.026 20.7689C107.428 21.2658 107.428 22.1602 108.026 22.6571L112.207 26.1354Z" fill="#111827"/>
<path d="M56.7506 101.961C55.3567 104.048 53.6641 107.427 52.6684 110.309C52.5689 110.508 52.4693 110.806 52.4693 111.004C51.7724 110.905 51.0754 110.706 50.3785 110.508C49.7811 109.116 49.3828 107.626 49.3828 107.626C49.7811 107.129 50.0798 106.731 50.478 106.334C52.3697 103.949 54.361 102.358 56.7506 101.961Z" fill="#B6BED6"/>
<path d="M53.0675 111.107C52.8684 111.107 52.6692 111.008 52.4701 111.008C51.7731 110.909 51.0762 110.71 50.3792 110.511C49.8814 110.412 49.4832 110.213 48.9853 110.114C48.7862 110.014 48.5871 110.014 48.388 109.915C48.1888 109.815 47.9897 109.815 47.691 109.716C45.1023 108.921 42.6132 107.828 40.2237 106.635C37.7346 102.461 36.3407 97.2937 33.9511 90.2378C33.9511 90.1384 33.9511 90.1384 33.8516 90.0391C33.8516 90.0391 34.0507 90.0391 34.5485 90.2378C34.8472 90.4366 35.345 90.6353 35.9424 91.0329C37.1372 91.8279 39.0289 93.2192 41.8167 95.5049C45.3015 98.3869 48.2884 102.66 50.3792 106.238C51.2753 107.828 52.0718 109.219 52.6692 110.312C52.8683 110.511 52.9679 110.809 53.0675 111.107Z" fill="#D5DAE8"/>
<path d="M48.9853 110.012C48.7862 109.913 48.5871 109.913 48.388 109.813C48.1888 109.714 47.9897 109.714 47.691 109.615C43.111 100.372 37.9337 94.5089 34.8472 91.13C34.5485 90.7325 34.2498 90.4344 33.9511 90.1363C33.9511 90.0369 33.9511 90.0369 33.8516 89.9375C33.8516 89.9375 34.0507 89.9375 34.5485 90.1363C34.8472 90.335 35.345 90.5338 35.9424 90.9313C39.1285 94.5089 44.4054 100.571 48.9853 110.012Z" fill="#EAEEF9"/>
<path d="M77.8593 110.113C77.9588 110.113 77.9589 110.113 78.0584 110.113C77.9589 110.113 77.7597 110.213 77.6602 110.213C77.6602 110.113 77.7597 110.113 77.8593 110.113Z" fill="#D5DAE8"/>
<path d="M78.1581 110.014C78.2577 110.014 78.2577 110.014 78.3572 109.914C78.2577 109.914 78.0585 110.014 77.959 110.014C78.0585 110.014 78.0586 110.014 78.1581 110.014Z" fill="#D5DAE8"/>
<path d="M95.5811 88.25C95.5811 88.25 95.4815 88.4488 95.2824 88.8463C94.0876 91.0326 90.0055 98.5854 88.1137 105.045C88.1137 105.045 88.0142 105.144 87.9146 105.144C86.919 105.741 85.9233 106.238 84.9277 106.734C84.4299 107.033 83.932 107.231 83.4342 107.43C83.2351 107.53 83.036 107.629 82.8368 107.728H82.7373C82.5381 107.828 82.2394 107.927 82.0403 108.026C80.5468 108.722 78.9538 109.219 77.3608 109.716C77.1617 109.815 76.863 109.915 76.6638 109.915C76.5643 109.915 76.4647 110.014 76.3651 110.014C76.2656 110.014 76.166 110.014 76.166 110.113C76.5643 108.821 76.9625 107.53 77.4603 106.436C78.9538 102.561 80.8455 99.4798 83.036 96.896C83.7329 96.1009 84.4299 95.3059 85.1268 94.6102C88.0142 91.7283 91.1007 89.8401 93.988 88.8463C94.3863 88.6475 94.9837 88.4488 95.5811 88.25Z" fill="#D5DAE8"/>
<path d="M95.5818 88.25C95.5818 88.25 95.4822 88.4488 95.2831 88.8463C91.4996 92.1258 88.0149 97.2935 84.9284 103.952C84.4306 105.144 83.9327 106.238 83.4349 107.529C83.2358 107.629 83.0367 107.728 82.8375 107.828H82.738C82.5388 107.927 82.2401 108.026 82.041 108.126C82.1406 107.927 82.2401 107.828 82.2401 107.828C83.1362 105.641 84.0323 103.554 84.9284 101.666C87.6166 96.2003 90.6035 91.8276 93.7896 88.8463C94.387 88.6475 94.9844 88.4488 95.5818 88.25Z" fill="#EAEEF9"/>
<path d="M81.8416 110.211C81.6424 110.708 81.5429 111.205 81.3438 111.702" stroke="white" stroke-miterlimit="10"/>
<path d="M68.5003 79.8008V83.279H1.79216C0.796515 83.279 0 82.484 0 81.5896C0 80.5958 0.796515 79.8008 1.79216 79.8008H68.5003Z" fill="#7894FF"/>
<defs>
<linearGradient id="paint0_linear_5487_37687" x1="44.4117" y1="55.7821" x2="116.208" y2="55.7821" gradientUnits="userSpaceOnUse">
<stop stop-color="#83A6FF"/>
<stop offset="1" stop-color="#5A78FF"/>
</linearGradient>
<linearGradient id="paint1_linear_5487_37687" x1="95.4742" y1="49.549" x2="95.4742" y2="36.3712" gradientUnits="userSpaceOnUse">
<stop stop-color="#4F6AFF"/>
<stop offset="1" stop-color="#657EFF" stop-opacity="0"/>
</linearGradient>
<linearGradient id="paint2_linear_5487_37687" x1="19.3816" y1="55.7456" x2="68.2179" y2="55.7456" gradientUnits="userSpaceOnUse">
<stop stop-color="#7C8FFC"/>
<stop offset="1" stop-color="#606ECE"/>
</linearGradient>
</defs>
</svg>
