<svg width="98" height="13" viewBox="0 0 98 13" fill="none" xmlns="http://www.w3.org/2000/svg">
<path opacity="0.3" fill-rule="evenodd" clip-rule="evenodd" d="M7.86261 0.853774C8.11986 1.0105 8.34264 1.35903 8.34264 1.67301C8.34264 2.17827 7.91406 2.59639 7.43402 2.59639C7.31414 2.59639 7.19426 2.56185 7.09136 2.52679C6.52539 2.10867 5.8056 1.82974 5.05133 1.82974C3.26909 1.82974 2.03478 3.29343 2.03478 5.10564C2.03478 6.91839 3.26909 8.36454 5.05133 8.36454C5.94245 8.36454 6.7312 7.99849 7.33111 7.44117C7.4861 7.32958 7.67174 7.26872 7.86261 7.26691C8.34264 7.26691 8.71977 7.64996 8.71977 8.13822C8.71977 8.45167 8.53094 8.7306 8.29119 8.88733C7.43402 9.61944 6.26866 10.1072 5.06883 10.1072C2.32652 10.1072 0.0976562 7.84176 0.0976562 5.05358C0.0976562 2.2654 2.32599 0 5.06883 0C6.09733 0 7.07386 0.313458 7.86261 0.853774ZM12.8773 2.96244C14.7455 2.96244 16.3224 4.54833 16.3224 6.49973C16.3224 8.45167 14.7455 10.1072 12.8773 10.1072C10.9232 10.1072 9.29476 8.45167 9.29476 6.49973C9.29476 4.54833 10.9232 2.96244 12.8773 2.96244ZM12.8598 8.36454C13.683 8.36454 14.3853 7.58037 14.3853 6.51727C14.3853 5.4547 13.683 4.79219 12.8598 4.79219C11.9687 4.79219 11.2314 5.43716 11.2314 6.51727C11.2314 7.58037 11.9687 8.36454 12.8598 8.36454ZM17.4973 9.02652V4.04307C17.4973 3.50276 17.9259 3.04957 18.4574 3.04957C18.9889 3.04957 19.4344 3.50276 19.4344 4.04307V9.02652C19.4344 9.56684 18.9889 10.02 18.4574 10.02C17.9259 10.02 17.4973 9.56684 17.4973 9.02652ZM17.3435 1.16776C17.3435 0.522784 17.84 0 18.4574 0C19.0912 0 19.6058 0.522784 19.6058 1.16776C19.6058 1.79468 19.0912 2.30046 18.4574 2.30046C17.84 2.30046 17.3435 1.79468 17.3435 1.16776ZM23.1464 6.32547V9.02652C23.1464 9.56684 22.7008 10.02 22.1688 10.02C21.6378 10.02 21.2087 9.56684 21.2087 9.02652V3.81622C21.2087 3.3981 21.5519 3.04957 21.9635 3.04957C22.3746 3.04957 22.7008 3.3981 22.7008 3.81622C23.489 3.08464 24.1743 2.96244 24.8257 2.96244C26.7628 2.96244 27.62 4.42613 27.62 6.08161V9.02652C27.62 9.56684 27.1745 10.02 26.643 10.02C26.1115 10.02 25.6829 9.56684 25.6829 9.02652V6.32547C25.6829 5.4717 25.58 4.75712 24.3632 4.75712C23.506 4.75712 23.1464 5.4717 23.1464 6.32547ZM33.9199 7.35404C33.6971 7.35404 33.5433 7.24938 33.4229 7.10965L31.1601 4.65299V9.02652C31.1601 9.56684 30.7145 10.02 30.1831 10.02C29.6516 10.02 29.223 9.56684 29.223 9.02652V0.366586C29.2507 0.293629 29.3002 0.231011 29.3647 0.187274C29.4293 0.143537 29.5057 0.120811 29.5837 0.122195C29.7545 0.122195 29.8913 0.261923 29.9947 0.366586L33.5942 4.42666C33.6971 4.54886 33.834 4.61846 33.9029 4.61846C33.9714 4.61846 34.1082 4.54886 34.2111 4.42719L37.8111 0.366586C37.914 0.261923 38.0509 0.122195 38.2222 0.122195C38.3936 0.122195 38.5309 0.226859 38.5824 0.366586V9.02652C38.5824 9.56684 38.1538 10.02 37.6223 10.02C37.0908 10.02 36.6453 9.56684 36.6453 9.02652V4.65299L34.383 7.10965C34.2626 7.24938 34.1082 7.35404 33.9199 7.35404ZM43.2369 8.36454C44.111 8.36454 44.8478 7.58037 44.8478 6.51727C44.8478 5.4547 44.0941 4.75712 43.2369 4.75712C42.3797 4.75712 41.6939 5.4717 41.6939 6.51727C41.6939 7.5453 42.3797 8.36454 43.2369 8.36454ZM45.2939 9.25338L45.2589 9.02652C44.8823 9.77563 43.6819 10.1072 42.9107 10.1072C41.0934 10.1072 39.7568 8.45167 39.7568 6.49973C39.7568 4.54833 41.1279 2.96244 43.0136 2.96244C43.3393 2.96244 44.4192 3.04957 45.2589 4.04307L45.2934 3.81622C45.2934 3.3981 45.6191 3.04957 46.0307 3.04957C46.4417 3.04957 46.7844 3.3981 46.7844 3.81622V9.25338C46.7844 9.6715 46.4417 10.02 46.0301 10.02C45.619 10.02 45.2939 9.6715 45.2939 9.25338ZM52.1592 4.75712H51.954C50.7366 4.82725 50.4969 5.5243 50.4969 6.32547V9.02652C50.4969 9.56684 50.0513 10.02 49.5198 10.02C48.9883 10.02 48.5598 9.56684 48.5598 9.02652V3.81622C48.5598 3.3981 48.9024 3.04957 49.314 3.04957C49.7256 3.04957 50.0513 3.3981 50.0513 3.81622C50.7711 3.1367 51.354 2.99751 51.954 2.96244H52.1423C52.6053 2.96244 53.0334 3.36303 53.0334 3.86881C53.0334 4.339 52.6223 4.75712 52.1592 4.75712ZM59.625 8.57387C59.711 8.71307 59.7624 8.86979 59.7624 9.04405C59.7624 9.54931 59.2993 10.02 58.8023 10.02C58.4597 10.02 58.1679 9.75863 57.9452 9.47971L55.7174 6.88332V9.02652C55.7174 9.56684 55.2713 10.02 54.7398 10.02C54.2083 10.02 53.7797 9.56684 53.7797 9.02652V1.1157C53.7797 0.57485 54.2083 0.122195 54.7398 0.122195C55.2713 0.122195 55.7168 0.57485 55.7168 1.1157V6.04708L57.9452 3.57236C58.1679 3.31096 58.4422 3.04957 58.7854 3.04957C59.2654 3.04957 59.711 3.50276 59.711 4.00801C59.711 4.16474 59.6765 4.32147 59.5905 4.4612L57.8253 6.39507L59.625 8.57387ZM63.4229 4.79219C62.8914 4.79219 62.0342 5.07111 62.0342 5.88982H64.828C64.828 5.05358 63.9374 4.79219 63.4229 4.79219ZM65.9594 7.12718H62.0342C62.0342 8.29494 63.1481 8.4692 63.6451 8.4692C64.0058 8.4692 64.5198 8.39961 64.9139 8.22481C65.0338 8.13822 65.2396 8.06809 65.4109 8.06809C65.8395 8.06809 66.1992 8.43467 66.1992 8.87033C66.1992 9.16625 66.0109 9.42764 65.7711 9.56684C65.1712 10.0025 64.3994 10.1072 63.6627 10.1072C61.7085 10.1072 60.0801 9.04459 60.0801 6.58686C60.0801 4.65299 61.0742 2.96244 63.3884 2.96244C65.2566 2.96244 66.6792 4.18227 66.7137 6.36054C66.7137 6.77866 66.371 7.12718 65.9594 7.12718ZM71.3512 10.1072H70.8197C69.3451 10.1072 68.4885 9.46218 68.4885 7.14471V4.75712H67.9915C67.5284 4.75712 67.1173 4.339 67.1173 3.86881C67.1173 3.36303 67.5284 2.96244 67.9915 2.96244H68.4885V1.11517C68.4885 0.57485 68.9171 0.121665 69.4486 0.121665C69.9795 0.121665 70.4256 0.57485 70.4256 1.11517V2.96244H71.2308C71.6939 2.96244 72.1055 3.36303 72.1055 3.86881C72.1055 4.339 71.6939 4.75712 71.2308 4.75712H70.4256V6.76113C70.4256 8.08562 70.494 8.36454 71.077 8.36454H71.3512C71.8138 8.36454 72.2078 8.74813 72.2078 9.23585C72.2078 9.70657 71.8138 10.1072 71.3512 10.1072ZM80.7366 0.853774C80.9933 1.0105 81.2167 1.35903 81.2167 1.67301C81.2167 2.17827 80.7881 2.59639 80.308 2.59639C80.1882 2.59639 80.0677 2.56185 79.9654 2.52679C79.3994 2.10867 78.6796 1.82974 77.9254 1.82974C76.1431 1.82974 74.9083 3.29343 74.9083 5.10564C74.9083 6.91839 76.1426 8.36454 77.9254 8.36454C78.8165 8.36454 79.6052 7.99849 80.2051 7.44117C80.3601 7.32958 80.5457 7.26872 80.7366 7.26691C81.2167 7.26691 81.5933 7.64996 81.5933 8.13822C81.5933 8.45167 81.405 8.7306 81.1652 8.88733C80.308 9.61944 79.1422 10.1072 77.9423 10.1072C75.2 10.1072 72.9717 7.84176 72.9717 5.05358C72.9717 2.2654 75.1995 0 77.9423 0C78.9714 0 79.9479 0.313458 80.7366 0.853774ZM85.6484 8.36454C86.5225 8.36454 87.2593 7.58037 87.2593 6.51727C87.2593 5.4547 86.505 4.75712 85.6479 4.75712C84.7912 4.75712 84.1054 5.4717 84.1054 6.51727C84.1054 7.5453 84.7917 8.36454 85.6484 8.36454ZM87.7049 9.25338L87.6709 9.02652C87.2938 9.77563 86.0939 10.1072 85.3222 10.1072C83.5055 10.1072 82.1683 8.45167 82.1683 6.49973C82.1683 4.54833 83.5399 2.96244 85.4251 2.96244C85.7508 2.96244 86.8307 3.04957 87.6709 4.04307L87.7049 3.81622C87.7049 3.3981 88.0305 3.04957 88.4422 3.04957C88.8532 3.04957 89.1964 3.3981 89.1964 3.81622V9.25338C89.1964 9.6715 88.8532 10.02 88.4422 10.02C88.0305 10.02 87.7049 9.6715 87.7049 9.25338ZM94.5193 8.36454C95.3765 8.36454 96.0618 7.5453 96.0618 6.51727C96.0618 5.4717 95.3765 4.75712 94.5193 4.75712C93.6621 4.75712 92.9078 5.45417 92.9078 6.51727C92.9078 7.58037 93.6451 8.36454 94.5193 8.36454ZM92.9078 9.53231V12.0065C92.9078 12.5468 92.4623 13 91.9308 13C91.3998 13 90.9707 12.5468 90.9707 12.0065V3.81622C90.9707 3.3981 91.3139 3.04957 91.7255 3.04957C92.1366 3.04957 92.4628 3.3981 92.4628 3.88581C93.1821 3.1367 94.0737 2.96244 94.7421 2.96244C96.6277 2.96244 97.9989 4.54833 97.9989 6.49973C97.9989 8.45167 96.6622 10.1072 94.845 10.1072C94.2795 10.1072 93.4393 9.93289 92.9078 9.53231Z" fill="#111827"/>
</svg>
