<svg width="24" height="24" viewBox="0 0 24 24" fill="none" xmlns="http://www.w3.org/2000/svg">
<path fill-rule="evenodd" clip-rule="evenodd" d="M5.39612 21.3769C5.52586 21.319 5.67414 21.319 5.80388 21.3769L6.99612 21.9093C7.12586 21.9673 7.27414 21.9673 7.40388 21.9093L8.59612 21.3769C8.72586 21.319 8.87414 21.319 9.00388 21.3769L10.1961 21.9093C10.3259 21.9673 10.4741 21.9673 10.6039 21.9093L11.7961 21.3769C11.9259 21.319 12.0741 21.319 12.2039 21.3769L13.3961 21.9093C13.5259 21.9673 13.6741 21.9673 13.8039 21.9093L14.9961 21.3769C15.1259 21.319 15.2741 21.319 15.4039 21.3769L16.5961 21.9093C16.7259 21.9673 16.8741 21.9673 17.0039 21.9093L18.1961 21.3769C18.3259 21.319 18.4741 21.319 18.6039 21.3769L19.6481 21.8432C19.8134 21.917 20 21.796 20 21.6149V2.38581C20 2.2047 19.8134 2.08369 19.6481 2.15753L18.604 2.62376C18.4742 2.68175 18.3258 2.6817 18.196 2.62364L17.0064 2.09153C16.8767 2.03352 16.7284 2.03343 16.5986 2.09129L15.4038 2.62403C15.2741 2.68185 15.1259 2.68181 14.9963 2.62391L13.8039 2.09141C13.6741 2.03347 13.5259 2.03347 13.3961 2.09141L12.2039 2.62384C12.0741 2.68178 11.9259 2.68178 11.7961 2.62384L10.6039 2.09141C10.4741 2.03347 10.3259 2.03347 10.1961 2.09141L9.00388 2.62384C8.87414 2.68178 8.72587 2.68178 8.59612 2.62384L7.40388 2.09141C7.27414 2.03347 7.12587 2.03347 6.99612 2.09141L5.80388 2.62384C5.67414 2.68178 5.52587 2.68178 5.39612 2.62384L4.35194 2.15753C4.18657 2.08369 4 2.2047 4 2.38581V21.6149C4 21.796 4.18657 21.917 4.35194 21.8432L5.39612 21.3769Z" stroke="white" stroke-width="1.5" stroke-linecap="round"/>
<path d="M9 9.00037H15" stroke="white" stroke-width="1.5" stroke-linecap="round"/>
<path d="M9 12.0004H15" stroke="white" stroke-width="1.5" stroke-linecap="round"/>
<path d="M13 15.0004H15" stroke="white" stroke-width="1.5" stroke-linecap="round"/>
</svg>
