<svg width="24" height="25" viewBox="0 0 24 25" fill="none" xmlns="http://www.w3.org/2000/svg">
<path d="M20.1117 15.9637C21.5313 14.4344 22.4016 12.3723 22.4016 10.1035C22.4016 5.38713 18.6408 1.56372 14.0016 1.56372C9.36237 1.56372 5.60156 5.38713 5.60156 10.1035C5.60156 11.4371 5.90225 12.6994 6.43846 13.8239" stroke="#15B176" stroke-width="1.5" stroke-linecap="round"/>
<path fill-rule="evenodd" clip-rule="evenodd" d="M14.0008 15.3995C16.8727 15.3995 19.2008 13.0714 19.2008 10.1995C19.2008 7.32763 16.8727 4.99951 14.0008 4.99951C11.1289 4.99951 8.80078 7.32763 8.80078 10.1995C8.80078 13.0714 11.1289 15.3995 14.0008 15.3995Z" stroke="#15B176" stroke-width="1.5" stroke-linecap="round"/>
<path d="M7.20156 18.5997L13.2637 19.3575C13.4822 19.3848 13.7035 19.336 13.8903 19.2192L18.6023 16.2742C19.3887 15.7828 20.4217 15.9878 20.9606 16.7424V16.7424C21.5321 17.5425 21.335 18.6558 20.5235 19.211L14.7088 23.1895C14.5097 23.3257 14.2708 23.3915 14.03 23.3765L3.47681 22.7169C2.42274 22.651 1.60156 21.7769 1.60156 20.7208V13.9518C1.60156 13.1794 2.17676 12.5278 2.94325 12.432V12.432C4.11576 12.2854 5.29027 12.6884 6.12582 13.524L7.25744 14.6556C7.73913 15.1373 8.37042 15.4407 9.04747 15.5159L12.6872 15.9203C13.9813 16.0641 14.8133 17.3645 14.4016 18.5997V18.5997" stroke="#15B176" stroke-width="1.5" stroke-linecap="round"/>
</svg>
