<svg width="173" height="172" viewBox="0 0 173 172" fill="none" xmlns="http://www.w3.org/2000/svg">
<path d="M13.919 50.4785C15.3562 50.0083 16.1426 48.4544 15.6755 47.0077C15.2083 45.5611 13.6645 44.7695 12.2273 45.2397C10.7901 45.7099 10.0037 47.2638 10.4708 48.7104C10.938 50.1571 12.4818 50.9487 13.919 50.4785Z" fill="#EAEEF9"/>
<path d="M160.65 39.1681C161.816 39.1681 162.761 38.2095 162.761 37.0269C162.761 35.8444 161.816 34.8857 160.65 34.8857C159.484 34.8857 158.539 35.8444 158.539 37.0269C158.539 38.2095 159.484 39.1681 160.65 39.1681Z" fill="url(#paint0_linear_7329_65422)"/>
<path d="M19.6604 124.542C20.521 123.744 20.5811 122.39 19.7946 121.517C19.0081 120.644 17.6729 120.583 16.8122 121.381C15.9516 122.178 15.8915 123.533 16.678 124.406C17.4645 125.279 18.7997 125.34 19.6604 124.542Z" fill="#7C9EFF"/>
<path d="M161.321 145.805C162.181 145.007 162.241 143.653 161.455 142.78C160.668 141.907 159.333 141.846 158.472 142.643C157.612 143.441 157.552 144.796 158.338 145.669C159.125 146.541 160.46 146.602 161.321 145.805Z" fill="#7191FF"/>
<path d="M86.1204 19.7119V47.2916C86.1204 49.6898 84.725 52.088 82.7315 53.2871L61.6004 65.4781C60.4043 66.2775 58.8095 66.6772 57.4141 66.6772V32.3026L85.1237 16.3145C85.9211 17.3137 86.1204 18.5128 86.1204 19.7119Z" fill="#DBDFE6"/>
<path d="M57.4134 32.3026V66.6772C56.0179 66.6772 54.6225 66.2775 53.227 65.4781L32.096 53.2871C29.9031 52.088 28.707 49.8896 28.707 47.2916V19.7119C28.707 18.5128 29.1057 17.3137 29.7038 16.3145L57.4134 32.3026Z" fill="#EAEEF9"/>
<path d="M85.1223 16.314L57.4127 32.3022L29.7031 16.1142C30.3012 15.1149 31.0986 14.1156 32.2947 13.5161L53.8244 1.12524C55.8179 -0.0738726 58.4095 -0.0738725 60.6023 0.925389L82.9295 13.9158C82.9295 13.9158 82.9295 13.9158 83.1288 13.9158C83.9262 14.5153 84.7236 15.3148 85.1223 16.314Z" fill="#F3F6FA"/>
<path d="M143.534 19.7119V47.2916C143.534 49.6898 142.139 52.088 140.146 53.2871L119.014 65.4781C117.818 66.2775 116.224 66.6772 114.828 66.6772V32.3026L142.538 16.3145C143.335 17.3137 143.534 18.5128 143.534 19.7119Z" fill="#DBDFE6"/>
<path d="M114.827 32.3026V66.6772C113.432 66.6772 112.036 66.2775 110.641 65.4781L89.7093 53.2871C87.5164 52.088 86.3203 49.8896 86.3203 47.2916V19.7119C86.3203 18.5128 86.719 17.3137 87.3171 16.3145L114.827 32.3026Z" fill="#EAEEF9"/>
<path d="M142.736 16.3147L115.026 32.3028L87.1172 16.1148C87.7152 15.1155 88.5126 14.1163 89.7087 13.5167L111.438 0.926023C113.431 -0.273091 116.023 -0.273091 118.216 0.72617L140.543 13.7166C140.543 13.7166 140.543 13.7166 140.742 13.7166C141.34 14.516 142.138 15.3154 142.736 16.3147Z" fill="#F3F6FA"/>
<path d="M86.3196 124.036V151.616C86.3196 154.014 84.9242 156.412 82.9307 157.611L61.7996 169.802C60.6035 170.602 59.0087 171.001 57.6133 171.001V136.627L85.3229 120.638C85.9209 121.638 86.3196 122.837 86.3196 124.036Z" fill="#DBDFE6"/>
<path d="M57.6126 136.627V171.001C56.2171 171.001 54.8217 170.602 53.4262 169.802L32.2952 157.611C30.1023 156.412 28.9062 154.214 28.9062 151.616V124.036C28.9062 122.837 29.3049 121.638 29.903 120.638L57.6126 136.627Z" fill="#EAEEF9"/>
<path d="M85.3217 120.639L57.6121 136.627L29.7031 120.439C30.3012 119.44 31.0986 118.44 32.2947 117.841L54.0238 105.25C56.0173 104.051 58.6088 104.051 60.8017 105.05L83.1288 118.041C83.1288 118.041 83.1288 118.041 83.3282 118.041C84.1256 118.84 84.923 119.639 85.3217 120.639Z" fill="#F3F6FA"/>
<path d="M143.734 124.036V151.616C143.734 154.014 142.338 156.412 140.345 157.611L119.214 169.802C118.018 170.602 116.423 171.001 115.027 171.001V136.627L142.737 120.638C143.335 121.638 143.734 122.837 143.734 124.036Z" fill="#DBDFE6"/>
<path d="M115.027 136.627V171.001C113.631 171.001 112.236 170.602 110.84 169.802L89.7093 157.611C87.5164 156.412 86.3203 154.214 86.3203 151.616V124.036C86.3203 122.837 86.719 121.638 87.3171 120.638L115.027 136.627Z" fill="#EAEEF9"/>
<path d="M142.736 120.639L115.026 136.627L87.1172 120.439C87.7152 119.44 88.5126 118.44 89.7087 117.841L111.438 105.25C113.431 104.051 116.023 104.051 118.216 105.05L140.543 118.041C140.543 118.041 140.543 118.041 140.742 118.041C141.54 118.84 142.337 119.639 142.736 120.639Z" fill="#F3F6FA"/>
<path d="M57.4134 71.8728V99.4525C57.4134 101.851 56.0179 104.249 54.0244 105.448L32.8934 117.639C31.6973 118.438 30.1025 118.838 28.707 118.838V84.4635L56.4166 68.4753C57.214 69.4746 57.4134 70.6737 57.4134 71.8728Z" fill="#DBDFE6"/>
<path d="M28.7063 84.4635V118.838C27.3109 118.838 25.9154 118.438 24.52 117.639L3.38894 105.448C1.1961 104.249 0 102.051 0 99.4525V71.8728C0 70.6737 0.398699 69.4746 0.996748 68.4753L28.7063 84.4635Z" fill="#EAEEF9"/>
<path d="M56.6146 68.4755L28.905 84.4637L0.996094 68.2757C1.59414 67.2764 2.39154 66.2772 3.58764 65.6776L25.3167 53.0869C27.3102 51.8878 29.9018 51.8878 32.0946 52.8871L54.2224 66.0773C54.2224 66.0773 54.2224 66.0773 54.4218 66.0773C55.2192 66.6769 56.0166 67.4763 56.6146 68.4755Z" fill="#F3F6FA"/>
<path d="M172.437 71.8728V99.4525C172.437 101.851 171.041 104.249 169.048 105.448L147.917 117.639C146.721 118.438 145.126 118.838 143.73 118.838V84.4635L171.44 68.4753C172.038 69.4746 172.437 70.6737 172.437 71.8728Z" fill="#DBDFE6"/>
<path d="M143.73 84.4635V118.838C142.334 118.838 140.939 118.438 139.543 117.639L118.412 105.448C116.22 104.249 115.023 102.051 115.023 99.4525V71.8728C115.023 70.6737 115.422 69.4746 116.02 68.4753L143.73 84.4635Z" fill="#EAEEF9"/>
<path d="M171.439 68.4755L143.729 84.4637L115.82 68.2757C116.418 67.2764 117.216 66.2772 118.412 65.6776L140.141 53.0869C142.134 51.8878 144.726 51.8878 146.919 52.8871L169.047 66.0773C169.047 66.0773 169.047 66.0773 169.246 66.0773C170.243 66.6769 170.841 67.4763 171.439 68.4755Z" fill="#F3F6FA"/>
<path d="M118.611 71.2732V102.05C118.611 104.848 117.216 107.446 114.624 108.845L90.9014 122.635C89.506 123.435 87.9112 123.834 86.3164 123.834V85.2628L117.614 67.2761C118.212 68.4752 118.611 69.8742 118.611 71.2732Z" fill="#5771FF"/>
<path d="M86.3182 85.2635V109.645V123.835C84.7234 123.835 83.1286 123.435 81.7332 122.636L71.367 116.64L57.8112 108.846C55.419 107.447 54.0236 104.849 53.8242 102.251V71.074C53.8242 69.675 54.2229 68.276 54.821 67.0769L86.3182 85.2635Z" fill="#7A9CFF"/>
<path d="M86.3182 85.2635V109.645V123.835C84.7234 123.835 83.1286 123.435 81.7332 122.636L71.367 116.64L57.8112 108.846C55.419 107.447 54.0236 104.849 53.8242 102.251V71.074C53.8242 69.675 54.2229 68.276 54.821 67.0769L86.3182 85.2635Z" fill="url(#paint1_linear_7329_65422)"/>
<path d="M117.416 67.2761L86.1182 85.2628L54.8203 67.0763C55.4184 65.8772 56.4151 64.8779 57.6112 64.2783L81.9318 50.0888C84.324 48.6899 87.1149 48.6899 89.5071 49.889L114.625 64.4782C114.625 64.4782 114.825 64.4782 114.825 64.6781C116.021 65.4775 116.818 66.2769 117.416 67.2761Z" fill="#6989FF"/>
<path d="M100.671 89.4598C100.671 89.6597 100.671 89.8595 100.472 90.0594C100.272 90.6589 100.073 91.2585 99.8735 91.8581C99.8735 91.8581 99.8735 91.8581 99.8735 92.0579C97.88 96.8544 93.6936 100.252 88.7099 101.251H88.5105C86.7164 101.651 84.9223 101.451 83.1281 101.251C74.9548 99.4524 69.971 91.6582 71.5658 83.6641C73.1606 75.4702 81.1346 70.274 89.1086 72.0727C91.8995 72.6722 94.491 74.0712 96.6839 76.0697C100.272 79.4672 101.867 84.6634 100.671 89.4598Z" fill="white"/>
<path d="M84.3241 92.0586C83.9254 92.0586 83.3274 91.8587 82.9287 91.459L79.141 87.6618C78.3436 86.8624 78.3436 85.8632 79.141 85.0637C79.9384 84.2643 80.9352 84.2643 81.7326 85.0637L84.1248 87.462L90.3046 81.2665C91.102 80.4671 92.0987 80.4671 92.8961 81.2665C93.6935 82.066 93.6935 83.0652 92.8961 83.8646L85.7196 91.6589C85.3209 91.8587 84.9222 92.0586 84.3241 92.0586Z" fill="url(#paint2_linear_7329_65422)"/>
<path d="M84.3241 92.0586C83.9254 92.0586 83.3274 91.8587 82.9287 91.459L79.141 87.6618C78.3436 86.8624 78.3436 85.8632 79.141 85.0637C79.9384 84.2643 80.9352 84.2643 81.7326 85.0637L84.1248 87.462L90.3046 81.2665C91.102 80.4671 92.0987 80.4671 92.8961 81.2665C93.6935 82.066 93.6935 83.0652 92.8961 83.8646L85.7196 91.6589C85.3209 91.8587 84.9222 92.0586 84.3241 92.0586Z" fill="url(#paint3_linear_7329_65422)"/>
<defs>
<linearGradient id="paint0_linear_7329_65422" x1="158.607" y1="36.9967" x2="162.703" y2="36.9967" gradientUnits="userSpaceOnUse">
<stop offset="0.00289017" stop-color="#FFD44F"/>
<stop offset="1" stop-color="#FFA607"/>
</linearGradient>
<linearGradient id="paint1_linear_7329_65422" x1="57.7757" y1="78.8195" x2="65.0568" y2="82.0327" gradientUnits="userSpaceOnUse">
<stop stop-color="#83A6FF"/>
<stop offset="1" stop-color="#87A5FF" stop-opacity="0"/>
</linearGradient>
<linearGradient id="paint2_linear_7329_65422" x1="90.4128" y1="88.8629" x2="83.8749" y2="82.3414" gradientUnits="userSpaceOnUse">
<stop stop-color="#51DFD4"/>
<stop offset="1" stop-color="#1BE068"/>
</linearGradient>
<linearGradient id="paint3_linear_7329_65422" x1="78.5444" y1="86.3681" x2="93.4898" y2="86.3681" gradientUnits="userSpaceOnUse">
<stop stop-color="#83A6FF"/>
<stop offset="1" stop-color="#5A78FF"/>
</linearGradient>
</defs>
</svg>
