<svg width="97" height="99" viewBox="0 0 97 99" fill="none" xmlns="http://www.w3.org/2000/svg">
<path d="M94.3886 50.815C93.8499 61.1631 89.8662 70.5771 83.6263 77.9872C80.2091 81.9598 76.1523 85.5217 71.5795 88.1135C64.1778 92.4447 55.4665 94.7267 46.238 94.2464C20.9116 92.8337 1.45042 71.2572 2.76275 46.0457C4.07998 20.74 25.6713 1.39475 50.9084 2.70841C60.1369 3.18878 68.5642 6.36295 75.4811 11.3451C79.7601 14.3976 83.43 18.2675 86.4163 22.5733C91.9425 30.6902 94.9272 40.467 94.3886 50.815Z" fill="#EAEEF9"/>
<path d="M7.9746 80.9677C8.6558 81.0031 9.28897 80.5032 9.32849 79.744C9.36801 78.9847 8.86586 78.4257 8.10897 78.3863C7.42777 78.3509 6.7946 78.8508 6.75508 79.61C6.71556 80.3692 7.21772 80.9283 7.9746 80.9677Z" fill="url(#paint0_linear_5025_26657)"/>
<path d="M72.0664 23.4013C72.7476 23.4367 73.3808 22.9368 73.4203 22.1776C73.4559 21.4943 72.9577 20.8593 72.2008 20.8199C71.5196 20.7844 70.8864 21.2844 70.8469 22.0436C70.8074 22.8028 71.3852 23.3658 72.0664 23.4013Z" fill="url(#paint1_linear_5025_26657)"/>
<path d="M20.5918 31.6825C21.273 31.718 21.9062 31.218 21.9457 30.4588C21.9812 29.7755 21.483 29.1406 20.7262 29.1012C20.045 29.0657 19.4118 29.5656 19.3723 30.3249C19.3327 31.0841 19.9106 31.6471 20.5918 31.6825Z" fill="url(#paint2_linear_5025_26657)"/>
<path d="M93.698 46.7558C94.8887 45.752 95.0553 44.0097 94.0549 42.8157C93.0545 41.6218 91.3177 41.4552 90.0513 42.4551C88.8607 43.4589 88.6941 45.2012 89.6944 46.3952C90.6987 47.5132 92.5113 47.6837 93.698 46.7558Z" fill="#EAEEF9"/>
<path d="M93.7369 34.349C94.4181 34.3845 94.9756 33.8806 95.0111 33.1973C95.0467 32.514 94.5446 31.9549 93.8634 31.9195C93.1822 31.884 92.6247 32.3879 92.5891 33.0712C92.5535 33.7545 93.0557 34.3135 93.7369 34.349Z" fill="url(#paint3_linear_5025_26657)"/>
<path d="M19.5316 55.8376C18.3442 55.319 17.1609 54.7245 15.8781 54.5816C13.9938 54.3313 12.6281 55.7828 12.605 57.6848C12.6411 58.4479 13.0637 59.079 13.8962 59.1223C14.3504 59.1459 14.8164 58.9418 15.1349 58.6539C17.2016 56.8582 14.7547 54.2948 13.4555 53.0091C12.9534 52.4501 12.5269 51.895 12.5664 51.1357" stroke="#EB358A" stroke-width="1.9" stroke-miterlimit="10" stroke-linecap="round" stroke-linejoin="round"/>
<path d="M67.3625 83.1452C67.3546 83.297 65.8511 88.8522 65.3699 90.8065C65.2705 91.2581 64.8763 91.5421 64.4899 91.6742C62.2633 92.1674 60.7535 92.0126 58.6698 91.219C58.4467 91.1313 58.2315 90.8917 58.1677 90.66L57.0971 83.5243" fill="#DB1A74"/>
<path d="M45.0348 81.983C45.0269 82.1349 43.5235 87.6901 43.0423 89.6444C42.9429 90.096 42.5486 90.38 42.1623 90.5121C39.7843 90.9973 38.1988 90.8387 35.9677 89.9613L34.8412 82.4421" fill="#DB1A74"/>
<path d="M77.5914 42.7203C77.1881 40.2632 77.7139 40.3667 76.6899 39.6283C75.598 38.734 72.2987 36.5068 68.3799 38.8912C66.1856 40.2234 65.1983 41.6946 65.1983 41.6946L66.0162 44.9346C66.0162 44.9346 72.6485 44.3663 72.5768 44.2864" fill="#E01B77"/>
<path d="M77.905 51.2626C78.999 47.7416 80.1985 39.2776 74.6015 38.9102C70.7454 38.6333 67.9184 41.9119 66.0156 44.9341C66.0195 44.8582 66.6211 44.9657 66.6968 44.9696C66.9238 44.9814 67.2226 45.0731 67.4497 45.0849C67.8999 45.1845 68.4258 45.288 68.872 45.4635C69.8441 45.7425 70.8162 46.0214 71.7804 46.4523C72.8202 46.887 73.8522 47.4736 74.8085 48.0563C75.4699 48.4714 76.0517 48.9584 76.6335 49.4455C77.0679 49.8487 77.4786 50.7075 77.905 51.2626Z" fill="#FF78B8"/>
<path d="M17.9517 58.4958C17.1376 74.1358 30.249 87.6079 47.2789 88.4943C64.3088 89.3808 78.7441 77.4188 79.5621 61.7028C79.5779 61.3991 79.5938 61.0954 79.6096 60.7917C79.8741 45.5038 66.8825 32.647 50.231 31.7803C33.5795 30.9135 19.3193 42.4278 17.9952 57.6607C17.9833 57.8884 17.9675 58.1921 17.9517 58.4958Z" fill="url(#paint4_linear_5025_26657)"/>
<path d="M89.2369 93.5584L9.26028 93.8071C8.79075 93.8086 8.47671 93.4949 8.47519 93.0229C8.47367 92.551 8.78568 92.2354 9.25521 92.2339L89.1536 91.9854C89.6231 91.9839 89.9371 92.2976 89.9386 92.7695C89.9402 93.2415 89.6282 93.5571 89.2369 93.5584Z" fill="#B1B9CC"/>
<path d="M58.6529 36.2532L59.0071 35.282C59.0906 35.1341 58.9511 34.8985 58.8037 34.8147C53.2936 32.7769 47.0115 32.4499 41.3197 33.9046C41.1643 33.9726 41.005 34.1166 41.0689 34.3483L41.3203 35.351C41.3841 35.5827 41.6032 35.7464 41.8343 35.6823C47.1398 34.3598 52.8921 34.6592 58.0316 36.5254C58.3304 36.6171 58.5654 36.4771 58.6529 36.2532Z" fill="#DB1A74"/>
<path d="M75.5316 56.012L81.0569 56.2997L80.14 73.9137L74.6147 73.6261C71.8143 73.4803 69.6734 69.4102 69.9263 64.5511C70.1793 59.6921 72.7311 55.8663 75.5316 56.012Z" fill="#DB267B"/>
<path d="M69.0735 54.5634C69.8642 54.6045 70.5552 53.6774 70.6169 52.4926C70.6785 51.3078 70.0876 50.3139 69.2969 50.2728C68.5062 50.2316 67.8152 51.1587 67.7536 52.3435C67.6919 53.5284 68.2829 54.5222 69.0735 54.5634Z" fill="#DB1A74"/>
<path d="M76.2298 54.9364C77.0205 54.9776 77.7114 54.0505 77.7731 52.8656C77.8348 51.6808 77.2438 50.687 76.4531 50.6458C75.6625 50.6047 74.9715 51.5318 74.9098 52.7166C74.8481 53.9014 75.4391 54.8953 76.2298 54.9364Z" fill="#DB1A74"/>
<path d="M56.9575 38.1445C54.6428 37.415 54.8218 36.8914 53.5713 37.5876C52.3168 38.3597 49.043 40.0164 49.4114 44.6033C49.5798 47.2004 50.409 48.7661 50.409 48.7661L53.636 49.467C53.636 49.467 56.159 43.2797 56.0076 43.2718" fill="#E01B77"/>
<path d="M64.3723 41.5001C61.774 38.9287 55.028 34.3905 52.1977 39.1915C50.2034 42.5135 51.8901 46.5599 53.7078 49.5474C53.6361 49.4676 54.0382 49.0317 54.0382 49.0317C54.2015 48.8118 54.3647 48.5919 54.524 48.448C54.8465 48.0841 55.169 47.7203 55.4915 47.3564C56.2122 46.6327 56.9329 45.9089 57.6537 45.1851C58.4501 44.4653 59.4696 43.8332 60.4134 43.1972C61.0387 42.8491 61.7396 42.5049 62.4366 42.2367C63.0619 41.8886 63.6832 41.6164 64.3723 41.5001Z" fill="#FF78B8"/>
<path d="M59.7863 84.4254C59.7784 84.5773 58.2749 90.1325 57.7937 92.0868C57.6943 92.5384 57.3001 92.8224 56.9138 92.9545C54.6872 93.4476 53.1773 93.2929 51.0936 92.4993C50.8705 92.4116 50.6553 92.172 50.5915 91.9403L49.5209 84.8046" fill="url(#paint5_linear_5025_26657)"/>
<path d="M38.1713 81.1688C38.1633 81.3206 36.4729 87.5513 35.9082 89.6535C35.8088 90.1051 35.4145 90.3891 35.0282 90.5212C32.4949 91.0745 30.8337 90.9119 28.6025 90.0345C28.3794 89.9467 28.1642 89.7072 28.1004 89.4754L26.6016 77.4453" fill="url(#paint6_linear_5025_26657)"/>
<path d="M80.146 73.837C82.9885 73.985 85.498 70.1619 85.7512 65.2979C86.0044 60.4339 83.9053 56.3709 81.0628 56.223C78.2203 56.075 75.7108 59.8981 75.4576 64.7621C75.2044 69.6261 77.3035 73.689 80.146 73.837Z" fill="url(#paint7_linear_5025_26657)"/>
<path d="M82.9443 68.1218C83.7385 68.1631 84.4514 66.871 84.5365 65.2357C84.6216 63.6004 84.0468 62.2412 83.2525 62.1999C82.4583 62.1585 81.7454 63.4507 81.6603 65.086C81.5752 66.7213 82.1501 68.0805 82.9443 68.1218Z" fill="#DB1A74"/>
<path d="M78.708 67.9011C79.5022 67.9424 80.215 66.6503 80.3002 65.015C80.3853 63.3797 79.8104 62.0205 79.0162 61.9792C78.222 61.9378 77.5091 63.23 77.424 64.8653C77.3389 66.5006 77.9137 67.8598 78.708 67.9011Z" fill="#DB1A74"/>
<defs>
<linearGradient id="paint0_linear_5025_26657" x1="7.40903" y1="78.5844" x2="8.72737" y2="80.8226" gradientUnits="userSpaceOnUse">
<stop stop-color="#83A6FF"/>
<stop offset="1" stop-color="#5A78FF"/>
</linearGradient>
<linearGradient id="paint1_linear_5025_26657" x1="70.8629" y1="22.0974" x2="73.3096" y2="22.2247" gradientUnits="userSpaceOnUse">
<stop stop-color="#FF66A9"/>
<stop offset="1" stop-color="#F53689"/>
</linearGradient>
<linearGradient id="paint2_linear_5025_26657" x1="19.3883" y1="30.3786" x2="21.835" y2="30.506" gradientUnits="userSpaceOnUse">
<stop stop-color="#FF66A9"/>
<stop offset="1" stop-color="#F53689"/>
</linearGradient>
<linearGradient id="paint3_linear_5025_26657" x1="92.6454" y1="33.1248" x2="94.9433" y2="33.2445" gradientUnits="userSpaceOnUse">
<stop stop-color="#83A6FF"/>
<stop offset="1" stop-color="#5A78FF"/>
</linearGradient>
<linearGradient id="paint4_linear_5025_26657" x1="64.6815" y1="34.2451" x2="33.7068" y2="84.3086" gradientUnits="userSpaceOnUse">
<stop stop-color="#F97CB3"/>
<stop offset="1" stop-color="#F53689"/>
</linearGradient>
<linearGradient id="paint5_linear_5025_26657" x1="54.006" y1="96.3707" x2="54.759" y2="83.3454" gradientUnits="userSpaceOnUse">
<stop stop-color="#FF66A9"/>
<stop offset="1" stop-color="#F53689"/>
</linearGradient>
<linearGradient id="paint6_linear_5025_26657" x1="31.2546" y1="96.2938" x2="32.3429" y2="79.7025" gradientUnits="userSpaceOnUse">
<stop stop-color="#FF66A9"/>
<stop offset="1" stop-color="#F53689"/>
</linearGradient>
<linearGradient id="paint7_linear_5025_26657" x1="85.7422" y1="65.3345" x2="75.4641" y2="64.7995" gradientUnits="userSpaceOnUse">
<stop stop-color="#FF66A9"/>
<stop offset="1" stop-color="#F53689"/>
</linearGradient>
</defs>
</svg>
