<svg width="24" height="24" viewBox="0 0 24 24" fill="none" xmlns="http://www.w3.org/2000/svg">
<path fill-rule="evenodd" clip-rule="evenodd" d="M9.59998 3.53135V3.2001C9.59998 2.31644 10.3163 1.6001 11.2 1.6001H12.8C13.6836 1.6001 14.4 2.31644 14.4 3.2001V3.53135C15.0656 3.71963 15.6993 3.98427 16.2907 4.31523L16.5255 4.0805C17.1503 3.45566 18.1634 3.45566 18.7882 4.0805L19.9196 5.21187C20.5444 5.83671 20.5444 6.84978 19.9196 7.47461L19.6848 7.70934C20.0158 8.30082 20.2804 8.93443 20.4687 9.6001H20.8C21.6836 9.6001 22.4 10.3164 22.4 11.2001V12.8001C22.4 13.6838 21.6836 14.4001 20.8 14.4001H20.4687C20.2804 15.0658 20.0158 15.6994 19.6848 16.2909L19.9196 16.5256C20.5444 17.1504 20.5444 18.1635 19.9196 18.7883L18.7882 19.9197C18.1634 20.5445 17.1503 20.5445 16.5255 19.9197L16.2907 19.685C15.6993 20.0159 15.0656 20.2806 14.4 20.4688V20.8001C14.4 21.6838 13.6836 22.4001 12.8 22.4001H11.2C10.3163 22.4001 9.59998 21.6838 9.59998 20.8001V20.4688C8.9343 20.2806 8.3007 20.0159 7.70922 19.685L7.47449 19.9197C6.84965 20.5445 5.83659 20.5445 5.21175 19.9197L4.08038 18.7883C3.45554 18.1635 3.45554 17.1504 4.08038 16.5256L4.3151 16.2909C3.98415 15.6994 3.7195 15.0658 3.53123 14.4001H3.19998C2.31632 14.4001 1.59998 13.6838 1.59998 12.8001V11.2001C1.59998 10.3164 2.31632 9.6001 3.19998 9.6001H3.53123C3.7195 8.93443 3.98415 8.30082 4.3151 7.70934L4.08038 7.47461C3.45554 6.84978 3.45554 5.83671 4.08038 5.21187L5.21175 4.0805C5.83659 3.45566 6.84965 3.45566 7.47449 4.0805L7.70922 4.31523C8.3007 3.98427 8.9343 3.71963 9.59998 3.53135ZM12 15.2001C13.7673 15.2001 15.2 13.7674 15.2 12.0001C15.2 10.2328 13.7673 8.8001 12 8.8001C10.2327 8.8001 8.79998 10.2328 8.79998 12.0001C8.79998 13.7674 10.2327 15.2001 12 15.2001Z" stroke="#4B5563" stroke-width="1.5" stroke-linecap="round"/>
</svg>
