<svg width="24" height="24" viewBox="0 0 24 24" fill="none" xmlns="http://www.w3.org/2000/svg">
<path d="M18.75 7.5H9.75C8.50736 7.5 7.5 8.50736 7.5 9.75V18.75C7.5 19.9926 8.50736 21 9.75 21H18.75C19.9926 21 21 19.9926 21 18.75V9.75C21 8.50736 19.9926 7.5 18.75 7.5Z" stroke="#3579FC" stroke-width="1.6875" stroke-linecap="round" stroke-linejoin="round"/>
<path d="M16.5 7.5V5.25C16.5 4.65326 16.2629 4.08097 15.841 3.65901C15.419 3.23705 14.8467 3 14.25 3H5.25C4.65326 3 4.08097 3.23705 3.65901 3.65901C3.23705 4.08097 3 4.65326 3 5.25V14.25C3 14.8467 3.23705 15.419 3.65901 15.841C4.08097 16.2629 4.65326 16.5 5.25 16.5H7.5" stroke="#3579FC" stroke-width="1.6875" stroke-linecap="round" stroke-linejoin="round"/>
</svg>
