<svg width="24" height="24" viewBox="0 0 24 24" fill="none" xmlns="http://www.w3.org/2000/svg">
<path d="M7.47204 22.7085L4.75396 22.8874C2.99047 23.0035 1.46676 21.668 1.35066 19.9046C1.32343 19.4908 1.37685 19.0758 1.50796 18.6824L3.57815 12.4718C4.78678 8.84596 8.17999 6.40027 12.002 6.40027C15.824 6.40027 19.2172 8.84596 20.4259 12.4718L22.4933 18.6742C23.0522 20.3508 22.1461 22.1631 20.4695 22.7219C20.0744 22.8536 19.6574 22.9069 19.242 22.8789L16.6345 22.7028" stroke="white" stroke-width="1.5" stroke-linecap="round"/>
<path d="M4.97656 21.3306C5.7011 22.4007 8.57055 23.2 12 23.2C15.187 23.2 17.8903 22.5098 18.8381 21.5533" stroke="white" stroke-width="1.5" stroke-linecap="round"/>
<path d="M8.40276 6.4002L7.726 5.38506C7.02972 4.34062 7.84773 2.95394 9.09865 3.05819L10.8028 3.2002" stroke="white" stroke-width="1.5" stroke-linecap="round"/>
<path d="M15.2043 6.40032L16.4071 4.59614C17.1509 3.48043 16.184 2.01996 14.8664 2.26899V2.26899C14.426 2.35223 13.9714 2.23602 13.6249 1.95167L13.5822 1.91659C12.5791 1.09332 11.0629 1.71323 10.9239 3.00343L10.7734 4.40032" stroke="white" stroke-width="1.5" stroke-linecap="round"/>
<path fill-rule="evenodd" clip-rule="evenodd" d="M14.8016 16.4109C14.8016 16.8933 14.6413 17.303 14.3208 17.6401C14.0003 17.9772 13.5523 18.2044 12.9767 18.322V19.2002H11.7502V18.3776C11.2924 18.3405 10.8836 18.2431 10.5238 18.0854C10.1641 17.9277 9.85666 17.7282 9.60156 17.487L10.465 16.5964C10.9555 16.9984 11.4919 17.1994 12.074 17.1994C12.3749 17.1994 12.6038 17.1407 12.7608 17.0232C12.9178 16.9056 12.9963 16.7479 12.9963 16.55C12.9963 16.4078 12.9652 16.2903 12.9031 16.1975C12.8409 16.1047 12.7297 16.0197 12.5695 15.9424C12.4092 15.8651 12.1787 15.7831 11.8778 15.6965C11.1452 15.4801 10.6285 15.2172 10.3276 14.908C10.0267 14.5987 9.87628 14.2122 9.87628 13.7483C9.87628 13.2721 10.048 12.8763 10.3914 12.5608C10.7348 12.2454 11.1877 12.0444 11.7502 11.9578V11.2002H12.9767V11.9671C13.6373 12.0661 14.1867 12.3227 14.625 12.7371L13.8401 13.5999C13.4084 13.2659 12.9407 13.0989 12.437 13.0989C12.1885 13.0989 11.9955 13.1438 11.8582 13.2334C11.7208 13.3231 11.6521 13.4515 11.6521 13.6184C11.6521 13.736 11.6865 13.8334 11.7551 13.9107C11.8238 13.988 11.9416 14.0622 12.1084 14.1333C12.2751 14.2044 12.5286 14.2926 12.8687 14.3977C13.5359 14.5956 14.0248 14.8461 14.3355 15.1492C14.6462 15.4522 14.8016 15.8728 14.8016 16.4109Z" fill="white"/>
</svg>
