<svg width="114" height="89" viewBox="0 0 114 89" fill="none" xmlns="http://www.w3.org/2000/svg">
<path d="M55.8058 87.5655C79.6291 87.5655 98.9417 68.2354 98.9417 44.3906C98.9417 20.5458 79.6291 1.21582 55.8058 1.21582C31.9825 1.21582 12.6699 20.5458 12.6699 44.3906C12.6699 68.2354 31.9825 87.5655 55.8058 87.5655Z" fill="#EAEEF9"/>
<path d="M13.3672 87.5645H101.982" stroke="#EBF0F6" stroke-width="2" stroke-miterlimit="10" stroke-linecap="round" stroke-linejoin="round"/>
<path d="M76.9848 86.8704C70.3886 87.0442 62.4905 86.8704 56.9358 86.7835C51.3811 86.9573 43.4829 87.0442 36.8867 86.8704C43.3962 83.135 45.6528 76.2722 45.9999 71.7549H67.7848C68.3056 76.2722 70.5622 83.2218 76.9848 86.8704Z" fill="url(#paint0_linear_5341_34333)"/>
<path d="M37.5825 87.999H76.3788C76.8995 87.999 77.4203 87.5646 77.4203 86.9565C77.4203 86.4353 76.9863 85.9141 76.3788 85.9141H37.5825C37.0618 85.9141 36.541 86.3484 36.541 86.9565C36.6278 87.5646 37.0618 87.999 37.5825 87.999Z" fill="#EBF0F6"/>
<path d="M98.1654 14.2459V71.0594C98.1654 72.4493 97.0371 73.4918 95.7352 73.4918H18.5767C17.2748 73.4918 16.1465 72.3625 16.1465 71.0594V14.2459C16.1465 12.9428 17.2748 11.8135 18.5767 11.8135H95.7352C97.1239 11.8135 98.1654 12.8559 98.1654 14.2459Z" fill="#F5F8FF"/>
<path d="M98.1654 14.2459V63.1542H16.1465V14.2459C16.1465 12.9428 17.2748 11.8135 18.5767 11.8135H95.7352C97.1239 11.8135 98.1654 12.8559 98.1654 14.2459Z" fill="#172D45"/>
<path d="M95.2147 14.6807H19.0977V60.201H95.2147V14.6807Z" fill="white"/>
<path d="M93.2151 20.3269C93.2151 20.0663 93.0416 19.8926 92.7812 19.8926H87.3133C87.0529 19.8926 86.8793 20.0663 86.8793 20.3269V20.6744H39.0566V21.2825H86.8793V21.7169C86.8793 21.9775 87.0529 22.1512 87.3133 22.1512H92.7812C93.0416 22.1512 93.2151 21.9775 93.2151 21.7169V20.3269Z" fill="#EAEEF9"/>
<path d="M93.2151 31.0994C93.2151 30.8388 93.0416 30.665 92.7812 30.665H87.3133C87.0529 30.665 86.8793 30.8388 86.8793 31.0994V31.4469H39.0566V32.1418H86.8793V32.4893C86.8793 32.7499 87.0529 32.9237 87.3133 32.9237H92.7812C93.0416 32.9237 93.2151 32.7499 93.2151 32.4893V31.0994Z" fill="#EAEEF9"/>
<path d="M93.2151 41.8709C93.2151 41.6103 93.0416 41.4365 92.7812 41.4365H87.3133C87.0529 41.4365 86.8793 41.6103 86.8793 41.8709V42.2184H39.0566V42.8265H86.8793V43.1739C86.8793 43.4346 87.0529 43.6083 87.3133 43.6083H92.7812C93.0416 43.6083 93.2151 43.4346 93.2151 43.1739V41.8709Z" fill="#EAEEF9"/>
<path d="M93.2151 52.7303C93.2151 52.4696 93.0416 52.2959 92.7812 52.2959H87.3133C87.0529 52.2959 86.8793 52.4696 86.8793 52.7303V53.0777H39.0566V53.6858H86.8793V54.0333C86.8793 54.2939 87.0529 54.4677 87.3133 54.4677H92.7812C93.0416 54.4677 93.2151 54.2939 93.2151 54.0333V52.7303Z" fill="#EAEEF9"/>
<path d="M35.0643 56.6394H22.8265C21.785 56.6394 21.0039 55.8575 21.0039 54.8151V20.588C21.0039 19.5455 21.785 18.7637 22.8265 18.7637H35.0643C36.1058 18.7637 36.8869 19.5455 36.8869 20.588V54.9019C36.8869 55.8575 36.019 56.6394 35.0643 56.6394Z" fill="#1C3754"/>
<path d="M28.99 23.5414C29.8528 23.5414 30.5523 22.8413 30.5523 21.9777C30.5523 21.1141 29.8528 20.4141 28.99 20.4141C28.1272 20.4141 27.4277 21.1141 27.4277 21.9777C27.4277 22.8413 28.1272 23.5414 28.99 23.5414Z" fill="#2D5887"/>
<path d="M33.9368 25.4519H23.9557C23.7821 25.4519 23.6953 25.365 23.6953 25.1913C23.6953 25.0175 23.7821 24.9307 23.9557 24.9307H33.9368C34.1104 24.9307 34.1972 25.0175 34.1972 25.1913C34.284 25.2781 34.1104 25.4519 33.9368 25.4519Z" fill="#2D5887"/>
<path d="M33.9368 27.5369H23.9557C23.7821 27.5369 23.6953 27.45 23.6953 27.2762C23.6953 27.1025 23.7821 27.0156 23.9557 27.0156H33.9368C34.1104 27.0156 34.1972 27.1025 34.1972 27.2762C34.284 27.45 34.1104 27.5369 33.9368 27.5369Z" fill="#2D5887"/>
<path d="M33.9368 31.1863H23.9557C23.7821 31.1863 23.6953 31.0994 23.6953 30.9257C23.6953 30.7519 23.7821 30.665 23.9557 30.665H33.9368C34.1104 30.665 34.1972 30.7519 34.1972 30.9257C34.284 31.0125 34.1104 31.1863 33.9368 31.1863Z" fill="#2D5887"/>
<path d="M27.515 33.2702H23.8698C23.783 33.2702 23.6094 33.1833 23.6094 33.0096V32.9227C23.6094 32.8359 23.6962 32.6621 23.8698 32.6621H27.515C27.6018 32.6621 27.7754 32.749 27.7754 32.9227V33.0096C27.7754 33.1833 27.6886 33.2702 27.515 33.2702Z" fill="#2D5887"/>
<path d="M33.9368 37.0935H23.9557C23.7821 37.0935 23.6953 37.0066 23.6953 36.8329C23.6953 36.6591 23.7821 36.5723 23.9557 36.5723H33.9368C34.1104 36.5723 34.1972 36.6591 34.1972 36.8329C34.284 36.9198 34.1104 37.0935 33.9368 37.0935Z" fill="#2D5887"/>
<path d="M27.515 39.1784H23.8698C23.783 39.1784 23.6094 39.0915 23.6094 38.9178V38.8309C23.6094 38.7441 23.6962 38.5703 23.8698 38.5703H27.515C27.6018 38.5703 27.7754 38.6572 27.7754 38.8309V38.9178C27.7754 39.0915 27.6886 39.1784 27.515 39.1784Z" fill="#2D5887"/>
<path d="M33.9368 42.9128H23.9557C23.7821 42.9128 23.6953 42.826 23.6953 42.6522C23.6953 42.4785 23.7821 42.3916 23.9557 42.3916H33.9368C34.1104 42.3916 34.1972 42.4785 34.1972 42.6522C34.284 42.826 34.1104 42.9128 33.9368 42.9128Z" fill="#2D5887"/>
<path d="M27.515 45.0856H23.8698C23.783 45.0856 23.6094 44.9988 23.6094 44.825V44.7382C23.6094 44.6513 23.6962 44.4775 23.8698 44.4775H27.515C27.6018 44.4775 27.7754 44.5644 27.7754 44.7382V44.825C27.7754 44.9988 27.6886 45.0856 27.515 45.0856Z" fill="url(#paint1_linear_5341_34333)"/>
<path d="M40.7944 45.8662H39.0586V47.7774H40.7944V45.8662Z" fill="#F14D99"/>
<path d="M43.3101 40.2207H41.5742V47.6047H43.3101V40.2207Z" fill="#35E09D"/>
<path d="M45.8276 37.2676H44.0918V40.2212H45.8276V37.2676Z" fill="#35E09D"/>
<path d="M48.3452 37.2676H46.6094V39.0919H48.3452V37.2676Z" fill="#F14D99"/>
<path d="M50.8628 38.918H49.127V41.7847H50.8628V38.918Z" fill="#F14D99"/>
<path d="M53.2944 37.4404H51.5586V41.8708H53.2944V37.4404Z" fill="#35E09D"/>
<path d="M55.8081 36.3105H54.0723V37.6136H55.8081V36.3105Z" fill="#F14D99"/>
<path d="M58.3276 32.2285H56.5918V36.2246H58.3276V32.2285Z" fill="#35E09D"/>
<path d="M60.8413 33.3584H59.1055V36.312H60.8413V33.3584Z" fill="#F14D99"/>
<path d="M63.3628 31.7939H61.627V33.097H63.3628V31.7939Z" fill="#F14D99"/>
<path d="M65.8784 26.1475H64.1426V31.9678H65.8784V26.1475Z" fill="#35E09D"/>
<path d="M68.3081 26.1475H66.5723V26.9293H68.3081V26.1475Z" fill="#F14D99"/>
<path d="M70.8257 26.9297H69.0898V28.4934H70.8257V26.9297Z" fill="#35E09D"/>
<path d="M73.3433 24.4102H71.6074V28.4931H73.3433V24.4102Z" fill="#35E09D"/>
<path d="M75.8608 24.4102H74.125V25.887H75.8608V24.4102Z" fill="#F14D99"/>
<path d="M78.3765 24.4102H76.6406V25.7132H78.3765V24.4102Z" fill="#35E09D"/>
<path d="M80.8921 24.4102H79.1562V31.5336H80.8921V24.4102Z" fill="#35E09D"/>
<path d="M83.4116 31.1865H81.6758V38.3099H83.4116V31.1865Z" fill="#35E09D"/>
<path d="M85.8394 39.0908H84.1035V40.7414H85.8394V39.0908Z" fill="#F14D99"/>
<path d="M88.3589 36.3105H86.623V40.741H88.3589V36.3105Z" fill="#35E09D"/>
<path d="M90.8726 33.5312H89.1367V36.398H90.8726V33.5312Z" fill="#F14D99"/>
<path d="M57.0236 70.625C58.1261 70.625 59.0198 69.7304 59.0198 68.6269C59.0198 67.5235 58.1261 66.6289 57.0236 66.6289C55.9211 66.6289 55.0273 67.5235 55.0273 68.6269C55.0273 69.7304 55.9211 70.625 57.0236 70.625Z" fill="#DBDFE6"/>
<path d="M109.541 73.9372C109.455 74.1978 109.455 74.5453 109.368 74.8059C109.194 75.414 109.021 75.9352 108.847 76.5433C108.76 76.8908 108.587 77.1511 108.5 77.4986C106.677 81.5815 103.292 84.622 99.2131 86.1856C98.8659 86.3594 98.4319 86.4463 98.0848 86.62C97.8244 86.7069 97.564 86.7939 97.3904 86.7939C95.047 87.402 92.53 87.489 90.013 86.9678C81.0734 85.1435 75.2585 76.2826 77.1679 67.3349C78.9905 58.3872 87.8432 52.5666 96.7829 54.4778C99.9942 55.1727 102.858 56.7366 105.115 58.9952C108.934 62.8175 110.67 68.4643 109.541 73.9372Z" fill="url(#paint2_linear_5341_34333)"/>
<path d="M109.541 73.9372C109.455 74.1978 109.455 74.5453 109.368 74.8059C109.194 75.414 109.021 75.9352 108.847 76.5433C108.76 76.8908 108.587 77.1511 108.5 77.4986C106.677 81.5815 103.292 84.622 99.2131 86.1856C98.8659 86.3594 98.4319 86.4463 98.0848 86.62C97.8244 86.7069 97.564 86.7939 97.3904 86.7939C95.047 87.402 92.53 87.489 90.013 86.9678C81.0734 85.1435 75.2585 76.2826 77.1679 67.3349C78.9905 58.3872 87.8432 52.5666 96.7829 54.4778C99.9942 55.1727 102.858 56.7366 105.115 58.9952C108.934 62.8175 110.67 68.4643 109.541 73.9372Z" fill="url(#paint3_linear_5341_34333)"/>
<path d="M108.748 76.5329C108.661 76.8804 108.487 77.141 108.401 77.4016C106.578 81.4845 103.193 84.525 99.1137 86.0887L84.793 71.755L90.6949 68.0195L96.2496 74.5348L101.978 69.7569L108.748 76.5329Z" fill="url(#paint4_linear_5341_34333)"/>
<path d="M94.9463 76.3595L90.9539 69.0624C90.8671 68.8886 90.6067 68.8018 90.4331 68.8886C90.3463 68.8886 90.3463 68.9755 90.3463 68.9755L88.2633 71.6685C88.1765 71.8422 87.9162 71.9291 87.7426 71.9291H85.052C84.7916 71.9291 84.5312 71.6685 84.5312 71.4079V69.8442C84.5312 69.5836 84.7916 69.323 85.052 69.323H86.5275C86.7011 69.323 86.8746 69.2361 87.0482 69.0624L90.4331 64.7188C90.6935 64.3713 91.2143 64.2845 91.5614 64.5451C91.6482 64.632 91.735 64.7188 91.735 64.8057L95.6407 72.016C95.7275 72.1897 95.9879 72.2766 96.1614 72.1897C96.2482 72.1897 96.2482 72.1028 96.2482 72.1028L98.1577 69.4967C98.2445 69.323 98.5048 69.2361 98.6784 69.2361H101.456C101.716 69.2361 101.977 69.4967 101.977 69.7573V71.321C101.977 71.5816 101.716 71.8422 101.456 71.8422H99.9803C99.8067 71.8422 99.6331 71.9291 99.4596 72.1028L96.2482 76.3595C95.9879 76.707 95.4671 76.7939 95.1199 76.5333C95.0331 76.5333 95.0331 76.4464 94.9463 76.3595Z" fill="url(#paint5_linear_5341_34333)"/>
<path d="M27.3267 9.97894C28.4664 9.60819 29.0899 8.38295 28.7195 7.24228C28.3491 6.10162 27.125 5.47748 25.9854 5.84823C24.8457 6.21898 24.2221 7.44422 24.5926 8.58489C24.963 9.72555 26.1871 10.3497 27.3267 9.97894Z" fill="#EAEEF9"/>
<path d="M31.5907 2.95361C32.4056 2.95361 33.0662 2.29242 33.0662 1.4768C33.0662 0.661188 32.4056 0 31.5907 0C30.7758 0 30.1152 0.661188 30.1152 1.4768C30.1152 2.29242 30.7758 2.95361 31.5907 2.95361Z" fill="url(#paint6_linear_5341_34333)"/>
<path d="M111.564 32.096C112.909 30.8661 113.003 28.7781 111.774 27.4323C110.545 26.0864 108.459 25.9924 107.114 27.2223C105.77 28.4522 105.676 30.5402 106.905 31.8861C108.133 33.2319 110.22 33.3259 111.564 32.096Z" fill="#EAEEF9"/>
<path d="M111.875 17.3596C112.441 16.8417 112.481 15.9625 111.964 15.3959C111.446 14.8292 110.568 14.7896 110.002 15.3075C109.436 15.8253 109.396 16.7045 109.913 17.2712C110.431 17.8378 111.309 17.8774 111.875 17.3596Z" fill="#EAEEF9"/>
<path d="M103.281 14.5074C104.048 14.5074 104.67 13.8851 104.67 13.1175C104.67 12.3498 104.048 11.7275 103.281 11.7275C102.514 11.7275 101.893 12.3498 101.893 13.1175C101.893 13.8851 102.514 14.5074 103.281 14.5074Z" fill="url(#paint7_linear_5341_34333)"/>
<path d="M22.3925 83.7431C22.3925 85.3936 21.0906 86.6967 19.4415 86.6967H2.95094C1.30189 86.6967 0 85.3936 0 83.7431V45.2593C0 43.6087 1.30189 42.3057 2.95094 42.3057H19.3547C21.0038 42.3057 22.3057 43.6087 22.3057 45.2593V83.7431H22.3925Z" fill="white"/>
<path d="M19.4415 42.3057C21.0906 42.3057 22.3925 43.6087 22.3925 45.2593V83.7431C22.3925 85.3936 21.0906 86.6967 19.4415 86.6967H2.95094C1.30189 86.6967 0 85.3936 0 83.7431V45.2593C0 43.6087 1.30189 42.3057 2.95094 42.3057H19.4415Z" fill="#1C3754"/>
<path d="M20.917 45.26V83.7438C20.917 84.3519 20.483 84.96 19.9623 85.1337C19.7887 85.2206 19.6151 85.2206 19.4415 85.2206H19.3547H2.95094C2.95094 85.2206 2.95094 85.2206 2.86414 85.2206C2.77735 85.2206 2.60377 85.2206 2.51697 85.1337C1.90943 84.96 1.38867 84.3519 1.38867 83.6569V45.26C1.38867 44.3913 2.08301 43.7832 2.86414 43.7832H5.20754C5.55471 43.7832 5.81509 44.0438 5.81509 44.3913C5.81509 44.9994 6.33584 45.5206 6.94339 45.5206H15.2755C15.883 45.5206 16.4038 44.9994 16.4038 44.3913C16.4038 44.0438 16.6641 43.7832 16.9245 43.7832H19.2679C20.2226 43.7832 20.917 44.4782 20.917 45.26Z" fill="white"/>
<path d="M12.5853 44.3034H10.4155C10.2419 44.3034 10.0684 44.1296 10.0684 43.9559C10.0684 43.7821 10.2419 43.6084 10.4155 43.6084H12.5853C12.7589 43.6084 12.9325 43.7821 12.9325 43.9559C12.9325 44.1296 12.7589 44.3034 12.5853 44.3034Z" fill="#2D5887"/>
<path d="M9.19849 44.3034H9.0249C8.85132 44.3034 8.67773 44.1296 8.67773 43.9559C8.67773 43.7821 8.85132 43.6084 9.0249 43.6084H9.19849C9.37207 43.6084 9.54566 43.7821 9.54566 43.9559C9.54566 44.1296 9.37207 44.3034 9.19849 44.3034Z" fill="#2D5887"/>
<defs>
<linearGradient id="paint0_linear_5341_34333" x1="56.9824" y1="86.4884" x2="56.9824" y2="72.9378" gradientUnits="userSpaceOnUse">
<stop stop-color="#F5F8FF"/>
<stop offset="0.9913" stop-color="#D8E0EB"/>
</linearGradient>
<linearGradient id="paint1_linear_5341_34333" x1="23.6845" y1="44.7732" x2="27.7612" y2="44.7732" gradientUnits="userSpaceOnUse">
<stop stop-color="#FF66A9"/>
<stop offset="1" stop-color="#F53689"/>
</linearGradient>
<linearGradient id="paint2_linear_5341_34333" x1="81.1346" y1="58.4827" x2="105.334" y2="82.6603" gradientUnits="userSpaceOnUse">
<stop stop-color="#2CF2E3"/>
<stop offset="1" stop-color="#23DE6C"/>
</linearGradient>
<linearGradient id="paint3_linear_5341_34333" x1="76.7351" y1="70.7141" x2="109.873" y2="70.7141" gradientUnits="userSpaceOnUse">
<stop stop-color="#83A6FF"/>
<stop offset="1" stop-color="#5A78FF"/>
</linearGradient>
<linearGradient id="paint4_linear_5341_34333" x1="94.8285" y1="72.2258" x2="103.753" y2="81.1419" gradientUnits="userSpaceOnUse">
<stop stop-color="#6C93FF"/>
<stop offset="1" stop-color="#5F7DFF"/>
</linearGradient>
<linearGradient id="paint5_linear_5341_34333" x1="97.4373" y1="74.6591" x2="89.7992" y2="67.2557" gradientUnits="userSpaceOnUse">
<stop offset="0.0113208" stop-color="#F0F4FF"/>
<stop offset="1" stop-color="white"/>
</linearGradient>
<linearGradient id="paint6_linear_5341_34333" x1="30.1949" y1="1.43571" x2="33.0637" y2="1.43571" gradientUnits="userSpaceOnUse">
<stop stop-color="#FF66A9"/>
<stop offset="1" stop-color="#F53689"/>
</linearGradient>
<linearGradient id="paint7_linear_5341_34333" x1="101.963" y1="13.1562" x2="104.657" y2="13.1562" gradientUnits="userSpaceOnUse">
<stop stop-color="#FF66A9"/>
<stop offset="1" stop-color="#F53689"/>
</linearGradient>
</defs>
</svg>
