<svg width="111" height="135" viewBox="0 0 111 135" fill="none" xmlns="http://www.w3.org/2000/svg">
<path d="M106 57C106 68.3169 102.197 78.8107 95.8253 87.2469C92.3309 91.7737 88.1172 95.786 83.2867 98.8724C75.4759 104.016 66.1233 107 56.0514 107C28.4049 107 6 84.572 6 57C6 29.3251 28.4049 7 55.9486 7C66.0206 7 75.3731 9.98354 83.184 15.0247C88.0144 18.1111 92.2282 22.1235 95.7225 26.6502C102.197 35.1893 106 45.5802 106 57Z" fill="#EAEEF9"/>
<path d="M9.3524 100.238C10.2774 100.238 11.0996 99.5174 11.0996 98.4886C11.0996 97.5627 10.3801 96.7396 9.3524 96.7396C8.42742 96.7396 7.60522 97.4598 7.60522 98.4886C7.60522 99.4145 8.32465 100.238 9.3524 100.238Z" fill="url(#paint0_linear_4946_35264)"/>
<path d="M10.864 21.4033C11.789 21.4033 12.5084 20.6831 12.5084 19.7572C12.5084 18.8312 11.789 18.1111 10.864 18.1111C9.93903 18.1111 9.2196 18.8312 9.2196 19.7572C9.2196 20.6831 9.93903 21.4033 10.864 21.4033Z" fill="url(#paint1_linear_4946_35264)"/>
<g filter="url(#filter0_d_4946_35264)">
<path d="M88.8996 14.7162V98.0496C88.8996 99.4899 87.2552 100.21 86.2274 99.1813L84.4802 97.5352C83.8636 96.9179 82.8358 96.9179 82.2192 97.5352L78.9304 100.724C78.3137 101.342 77.286 101.342 76.6693 100.724L73.3805 97.5352C72.7639 96.9179 71.7362 96.9179 71.1195 97.5352L67.8307 100.724C67.2141 101.342 66.1863 101.342 65.5697 100.724L62.2809 97.5352C61.6642 96.9179 60.6365 96.9179 60.0198 97.5352L56.8338 100.724C56.2171 101.342 55.1894 101.342 54.5727 100.724L51.2839 97.5352C50.6673 96.9179 49.6395 96.9179 49.0229 97.5352L45.7341 100.724C45.1174 101.342 44.0897 101.342 43.473 100.724L40.1842 97.5352C39.5676 96.9179 38.5398 96.9179 37.9232 97.5352L34.6344 100.724C34.0178 101.342 32.99 101.342 32.3734 100.724L28.0568 96.4035L27.7485 96.7121L25.1791 99.1813C24.1514 100.21 22.507 99.4899 22.507 98.0496V14.7162C22.507 13.2759 24.1514 12.5557 25.1791 13.5845L26.9263 15.2306C27.5429 15.8479 28.5707 15.8479 29.1873 15.2306L32.4761 12.0413C33.0928 11.424 34.1205 11.424 34.7372 12.0413L38.026 15.2306C38.6426 15.8479 39.6704 15.8479 40.287 15.2306L43.5758 12.0413C44.1925 11.424 45.2202 11.424 45.8369 12.0413L49.1257 15.2306C49.7423 15.8479 50.7701 15.8479 51.3867 15.2306L54.6755 12.0413C55.2922 11.424 56.3199 11.424 56.9366 12.0413L60.1226 15.2306C60.7392 15.8479 61.767 15.8479 62.3836 15.2306L65.6724 12.0413C66.2891 11.424 67.3168 11.424 67.9335 12.0413L71.2223 15.2306C71.8389 15.8479 72.8667 15.8479 73.4833 15.2306L76.7721 12.0413C77.3888 11.424 78.4165 11.424 79.0332 12.0413L82.322 15.2306C82.9386 15.8479 83.9664 15.8479 84.583 15.2306L86.3302 13.5845C87.2552 12.5557 88.8996 13.2759 88.8996 14.7162Z" fill="white"/>
</g>
<path d="M76.462 33.4405H69.2677C68.5483 33.4405 67.9316 32.8232 67.9316 32.1031C67.9316 31.3829 68.5483 30.7656 69.2677 30.7656H76.462C77.1814 30.7656 77.798 31.3829 77.798 32.1031C77.798 32.8232 77.1814 33.4405 76.462 33.4405Z" fill="#C5CCDE"/>
<path d="M62.6917 33.4405H34.3258C33.6064 33.4405 32.9897 32.8232 32.9897 32.1031C32.9897 31.3829 33.6064 30.7656 34.3258 30.7656H62.6917C63.4111 30.7656 64.0278 31.3829 64.0278 32.1031C64.0278 32.8232 63.4111 33.4405 62.6917 33.4405Z" fill="#C5CCDE"/>
<path d="M76.4608 46.1976H64.1278C63.4084 46.1976 62.7917 45.5803 62.7917 44.8602C62.7917 44.14 63.4084 43.5227 64.1278 43.5227H76.4608C77.1802 43.5227 77.7969 44.14 77.7969 44.8602C77.7969 45.5803 77.1802 46.1976 76.4608 46.1976Z" fill="#C5CCDE"/>
<path d="M57.5521 46.1976H44.9108C44.1914 46.1976 43.5747 45.5803 43.5747 44.8602C43.5747 44.14 44.1914 43.5227 44.9108 43.5227H57.6549C58.3743 43.5227 58.9909 44.14 58.9909 44.8602C58.9909 45.5803 58.2715 46.1976 57.5521 46.1976Z" fill="#C5CCDE"/>
<path d="M39.977 46.1976H34.3244C33.6049 46.1976 32.9883 45.5803 32.9883 44.8602C32.9883 44.14 33.6049 43.5227 34.3244 43.5227H39.977C40.6964 43.5227 41.3131 44.14 41.3131 44.8602C41.3131 45.5803 40.6964 46.1976 39.977 46.1976Z" fill="#4988FD"/>
<path d="M55.3917 59.0573H45.6281C44.9086 59.0573 44.292 58.4401 44.292 57.7199C44.292 56.9997 44.9086 56.3824 45.6281 56.3824H55.3917C56.1111 56.3824 56.7278 56.9997 56.7278 57.7199C56.7278 58.4401 56.1111 59.0573 55.3917 59.0573Z" fill="#C5CCDE"/>
<path d="M40.3881 59.0573H34.3244C33.6049 59.0573 32.9883 58.4401 32.9883 57.7199C32.9883 56.9997 33.6049 56.3824 34.3244 56.3824H40.3881C41.1075 56.3824 41.7241 56.9997 41.7241 57.7199C41.7241 58.4401 41.1075 59.0573 40.3881 59.0573Z" fill="#4988FD"/>
<path d="M55.3932 71.8148H34.3244C33.6049 71.8148 32.9883 71.1975 32.9883 70.4773C32.9883 69.7572 33.6049 69.1399 34.3244 69.1399H55.3932C56.1126 69.1399 56.7293 69.7572 56.7293 70.4773C56.7293 71.1975 56.1126 71.8148 55.3932 71.8148Z" fill="#C5CCDE"/>
<path d="M55.3934 82C47.9936 82 41.7243 82 34.3245 82C32.5774 82 32.5774 84.572 34.3245 84.572C42.4438 84.572 47.377 84.572 55.3934 84.572C56.1128 84.572 56.7295 83.9547 56.7295 83.2346C56.7295 82.5144 56.1128 82 55.3934 82Z" fill="#C5CCDE"/>
<path d="M72.557 86.0123C71.5292 86.0123 70.707 85.1892 70.707 84.1604V82.2057C69.1654 82.1028 67.7265 81.6913 66.4932 81.1769C65.5683 80.7654 65.1572 79.7366 65.4655 78.7078C65.7738 77.8847 66.4932 77.3703 67.3154 77.3703C67.6238 77.3703 67.8293 77.4732 68.1376 77.5761C68.9598 77.9876 70.2959 78.3991 71.9403 78.3991C74.2013 78.3991 75.743 77.1646 75.743 75.4156C75.743 73.7695 74.6124 72.7407 71.9403 71.609C68.5487 70.2715 65.4655 68.5226 65.4655 64.6131C65.4655 61.4238 67.6238 58.8518 71.0153 58.1316V56.074C71.0153 55.0452 71.8375 54.2222 72.8653 54.2222C73.893 54.2222 74.7152 55.0452 74.7152 56.074V57.9259C75.9485 58.0288 76.9763 58.2345 78.004 58.646C78.929 59.0576 79.4429 60.1892 79.0318 61.1152C78.7234 61.8353 78.004 62.3497 77.1818 62.3497C76.8735 62.3497 76.6679 62.3497 76.4624 62.2469C75.4346 61.8353 74.4069 61.6296 73.2764 61.6296C70.8098 61.6296 69.9876 62.967 69.9876 64.2016C69.9876 65.6419 70.9126 66.465 74.2014 67.8024C78.5179 69.5514 80.3678 71.8148 80.3678 75.2098C80.3678 78.6049 78.004 81.2798 74.5097 81.9999V84.1604C74.4069 85.1892 73.5847 86.0123 72.557 86.0123Z" fill="#C5CCDE"/>
<defs>
<filter id="filter0_d_4946_35264" x="0.506958" y="0.578369" width="110.393" height="133.609" filterUnits="userSpaceOnUse" color-interpolation-filters="sRGB">
<feFlood flood-opacity="0" result="BackgroundImageFix"/>
<feColorMatrix in="SourceAlpha" type="matrix" values="0 0 0 0 0 0 0 0 0 0 0 0 0 0 0 0 0 0 127 0" result="hardAlpha"/>
<feOffset dy="11"/>
<feGaussianBlur stdDeviation="11"/>
<feColorMatrix type="matrix" values="0 0 0 0 0.397708 0 0 0 0 0.47749 0 0 0 0 0.575 0 0 0 0.18 0"/>
<feBlend mode="normal" in2="BackgroundImageFix" result="effect1_dropShadow_4946_35264"/>
<feBlend mode="normal" in="SourceGraphic" in2="effect1_dropShadow_4946_35264" result="shape"/>
</filter>
<linearGradient id="paint0_linear_4946_35264" x1="7.5602" y1="98.5234" x2="11.1586" y2="98.5234" gradientUnits="userSpaceOnUse">
<stop stop-color="#FF66A9"/>
<stop offset="1" stop-color="#F53689"/>
</linearGradient>
<linearGradient id="paint1_linear_4946_35264" x1="9.17723" y1="19.79" x2="12.5639" y2="19.79" gradientUnits="userSpaceOnUse">
<stop stop-color="#FF66A9"/>
<stop offset="1" stop-color="#F53689"/>
</linearGradient>
</defs>
</svg>
