<svg width="24" height="24" viewBox="0 0 24 24" fill="none" xmlns="http://www.w3.org/2000/svg">
<path fill-rule="evenodd" clip-rule="evenodd" d="M12.0008 23.2C18.1864 23.2 23.2008 18.1856 23.2008 12C23.2008 5.8144 18.1864 0.799988 12.0008 0.799988C5.81519 0.799988 0.800781 5.8144 0.800781 12C0.800781 18.1856 5.81519 23.2 12.0008 23.2Z" stroke="#4B5563" stroke-width="1.5" stroke-linecap="round"/>
<path d="M7.33203 16.6666H9.66536L15.7904 10.5416C16.0998 10.2322 16.2736 9.81251 16.2736 9.37492C16.2736 8.93734 16.0998 8.51767 15.7904 8.20826C15.4809 7.89884 15.0613 7.72501 14.6237 7.72501C14.1861 7.72501 13.7665 7.89884 13.457 8.20826L7.33203 14.3333V16.6666Z" stroke="#4B5563" stroke-width="1.3" stroke-linecap="round" stroke-linejoin="round"/>
<path d="M12.875 8.7916L15.2083 11.1249" stroke="#4B5563" stroke-width="1.3" stroke-linecap="round" stroke-linejoin="round"/>
</svg>
