<svg width="18" height="18" viewBox="0 0 18 18" fill="none" xmlns="http://www.w3.org/2000/svg">
<path d="M7.5 3.75C7.5 3.35218 7.65803 2.97064 7.93934 2.68934C8.22064 2.40804 8.60217 2.25 9 2.25C9.39782 2.25 9.77935 2.40804 10.0607 2.68934C10.342 2.97064 10.5 3.35218 10.5 3.75C11.3613 4.15727 12.0955 4.79124 12.624 5.58397C13.1525 6.3767 13.4553 7.29831 13.5 8.25V10.5C13.5564 10.9663 13.7216 11.4128 13.9821 11.8036C14.2426 12.1944 14.5913 12.5186 15 12.75H3C3.4087 12.5186 3.75736 12.1944 4.01789 11.8036C4.27842 11.4128 4.44356 10.9663 4.5 10.5V8.25C4.54467 7.29831 4.84748 6.3767 5.37596 5.58397C5.90445 4.79124 6.63869 4.15727 7.5 3.75" stroke="#FCAC35" stroke-width="1.5" stroke-linecap="round" stroke-linejoin="round"/>
<path d="M6.75 12.75V13.5C6.75 14.0967 6.98705 14.669 7.40901 15.091C7.83097 15.5129 8.40326 15.75 9 15.75C9.59674 15.75 10.169 15.5129 10.591 15.091C11.0129 14.669 11.25 14.0967 11.25 13.5V12.75" stroke="#FCAC35" stroke-width="1.5" stroke-linecap="round" stroke-linejoin="round"/>
</svg>
