<svg width="40" height="40" viewBox="0 0 40 40" fill="none" xmlns="http://www.w3.org/2000/svg">
<g clip-path="url(#clip0_2938_11221)">
<path d="M39.3962 24.8388C36.725 35.5532 25.8731 42.0738 15.1574 39.402C4.44624 36.7308 -2.07432 25.8782 0.597994 15.1647C3.26796 4.44911 14.1199 -2.07194 24.8322 0.599201C35.5471 3.27034 42.0673 14.1241 39.3959 24.839L39.3961 24.8388H39.3962Z" fill="#627EEA"/>
<g clip-path="url(#clip1_2938_11221)">
<path d="M20.0218 6L19.834 6.63808V25.1521L20.0218 25.3395L28.6157 20.2596L20.0218 6Z" fill="#C0CBF6"/>
<path d="M20.0081 6L11.4141 20.2596L20.0081 25.3395V16.3533V6Z" fill="white"/>
<path d="M19.9965 26.9905L19.8906 27.1196V33.7146L19.9965 34.0236L28.5956 21.9132L19.9965 26.9905Z" fill="#C0CBF6"/>
<path d="M20.0081 34.0236V26.9905L11.4141 21.9132L20.0081 34.0236Z" fill="white"/>
<path d="M20 25.3227L28.5938 20.2429L20 16.3365V25.3227Z" fill="#8197EE"/>
<path d="M11.4141 20.2429L20.0081 25.3227V16.3365L11.4141 20.2429Z" fill="#C0CBF6"/>
</g>
</g>
<defs>
<clipPath id="clip0_2938_11221">
<rect width="40" height="40" fill="white"/>
</clipPath>
<clipPath id="clip1_2938_11221">
<rect width="28" height="28" fill="white" transform="translate(6 6)"/>
</clipPath>
</defs>
</svg>
