<svg width="24" height="24" viewBox="0 0 24 24" fill="none" xmlns="http://www.w3.org/2000/svg">
<g opacity="0.7">
<path fill-rule="evenodd" clip-rule="evenodd" d="M12.0006 9.60046C17.7443 9.60046 22.4006 7.8096 22.4006 5.60046C22.4006 3.39132 17.7443 1.60046 12.0006 1.60046C6.25682 1.60046 1.60059 3.39132 1.60059 5.60046C1.60059 7.8096 6.25682 9.60046 12.0006 9.60046Z" stroke="#4B5563" stroke-width="1.5" stroke-linecap="round"/>
<path d="M1.59961 5.60071V7.17831C1.59961 9.40599 2.83382 11.4503 4.80513 12.4878L5.99409 13.1136C7.9654 14.1511 9.19961 16.1954 9.19961 18.4231V19.8007C9.19961 21.2367 10.3637 22.4007 11.7996 22.4007V22.4007C13.2355 22.4007 14.3996 21.2367 14.3996 19.8007V18.5089C14.3996 16.2363 15.6836 14.1587 17.7163 13.1423L19.0829 12.4591C21.1156 11.4427 22.3996 9.36514 22.3996 7.0925V5.60071" stroke="#4B5563" stroke-width="1.5" stroke-linecap="round"/>
</g>
</svg>
