<svg width="144" height="120" viewBox="0 0 144 120" fill="none" xmlns="http://www.w3.org/2000/svg">
<path d="M28.002 103C29.0608 103 30.002 102.176 30.002 101C30.002 99.9409 29.1784 98.9997 28.002 98.9997C26.9431 98.9997 26.002 99.8233 26.002 101C26.002 102.176 26.8255 103 28.002 103Z" fill="url(#paint0_linear_3111:1558)"/>
<path d="M127.373 37.8103C128.217 37.8103 128.873 37.154 128.873 36.3103C128.873 35.4665 128.217 34.8103 127.373 34.8103C126.529 34.8103 125.873 35.4665 125.873 36.3103C125.873 37.154 126.623 37.8103 127.373 37.8103Z" fill="url(#paint1_linear_3111:1558)"/>
<path d="M28.8037 32.217C29.7052 32.217 30.4063 31.5206 30.4063 30.6253C30.4063 29.7299 29.7052 29.0335 28.8037 29.0335C27.9023 29.0335 27.2012 29.7299 27.2012 30.6253C27.2012 31.5206 27.9023 32.217 28.8037 32.217Z" fill="url(#paint2_linear_3111:1558)"/>
<path d="M129.66 67.385C129.66 82.5904 123.099 96.3477 112.651 106.002C109.735 108.657 106.576 110.829 103.418 112.76C103.175 113.001 102.932 113.001 102.689 113.243C95.1561 117.587 86.1658 120.001 76.9324 120.001C67.6991 120.001 58.7087 117.587 51.1762 113.243C50.9332 113.001 50.6902 113.001 50.4473 112.76C49.2323 112.036 48.0174 111.312 47.0455 110.588C46.0736 109.864 45.1016 109.14 44.1297 108.416C31.9806 98.7613 24.2051 84.0386 24.2051 67.385C24.2051 38.4222 47.7744 14.7693 77.1754 14.7693C106.576 14.7693 129.66 38.4222 129.66 67.385Z" fill="#EAEEF9"/>
<path d="M114.485 79.5294L112.055 82.2104C111.597 82.6791 110.875 82.5108 110.611 81.8738L108.66 75.5921" fill="#667FFF"/>
<path d="M138.533 59.0691L137.006 61.0049L121.039 81.3945C120.315 82.346 118.99 82.52 117.99 81.9068L110.278 76.7898L108.729 75.7505L104.453 72.8526C103.533 72.2065 103.675 70.7493 104.742 70.402L134.727 60.4533L138.533 59.0691Z" fill="#84A1FF"/>
<path d="M138.538 59.0704L137.01 61.0062L110.33 76.6786L108.701 75.6722L134.778 60.3421L138.538 59.0704Z" fill="#667FFF"/>
<g style="mix-blend-mode:multiply">
<path style="mix-blend-mode:multiply" opacity="0.3" d="M108.784 18.6167C108.333 18.6167 107.911 18.854 107.571 19.2557C103.796 8.67152 91.3621 0.79829 76.4408 0.658379C73.4905 0.626681 70.5452 0.908575 67.6547 1.49929H67.646C56.4974 3.7833 47.6202 10.5142 44.4525 19.1591C44.0912 18.7444 43.604 18.4999 43.1285 18.4984C41.9143 18.4984 40.8613 20.0764 40.8613 22.0258V32.2818C40.8613 34.2341 41.8666 35.807 43.0815 35.8005H43.1184H43.1531C43.8758 35.7969 44.5595 35.2279 44.9599 34.3581C49.4248 44.5341 61.9055 51.7294 76.4408 51.5527C80.3476 51.5148 84.2288 50.9184 87.966 49.7815C97 47.015 104.054 41.226 107.105 34.0596C107.484 34.9048 108.104 35.4536 108.79 35.45C109.937 35.4442 110.878 33.9038 110.878 32.0107V22.0489C110.871 20.155 109.929 18.6189 108.784 18.6167Z" fill="url(#paint3_linear_3111:1558)"/>
<path style="mix-blend-mode:multiply" opacity="0.3" d="M86.0852 55.3229L66.7105 55.5898C64.2538 55.6272 61.8504 56.3097 59.742 57.5687C58.0573 58.5688 56.5956 59.9025 55.4469 61.4877C52.7931 65.1427 52.0082 69.8225 53.3322 74.0847C53.3597 74.1719 53.3872 74.2614 53.4139 74.3479L53.9198 75.9756C54.9456 79.2671 55.9687 82.5546 56.9892 85.8379C59.5953 94.2152 67.3096 99.7143 76.0148 99.4323C78.7141 99.3441 81.3708 98.7353 83.8382 97.6395C89.4755 95.142 93.9397 90.2328 95.8065 84.032C96.7152 81.0127 97.6241 77.9964 98.5333 74.9833L99.0204 73.3649L99.0992 73.1031C100.372 68.8741 99.6181 64.314 97.0618 60.8141C95.8077 59.0874 94.1557 57.6871 92.2453 56.7314C90.3348 55.7757 88.222 55.2926 86.0852 55.3229Z" fill="url(#paint4_linear_3111:1558)"/>
</g>
<path d="M109.674 24.744C109.67 27.4231 109.121 30.0739 108.059 32.5363C105.073 39.5174 98.1721 45.1562 89.337 47.8509C85.6815 48.9585 81.8849 49.5393 78.0634 49.5755C63.8442 49.7479 51.637 42.7388 47.2697 32.8266C45.1772 28.1424 45.005 22.8321 46.7895 18.0237C49.8876 9.60548 58.5628 3.04622 69.4691 0.821469C72.2965 0.246455 75.1775 -0.0281543 78.0634 0.00227755C92.6593 0.138809 104.821 7.8083 108.514 18.1179C109.28 20.2441 109.672 22.4855 109.674 24.744Z" fill="white"/>
<path d="M92.1488 38.1708L63.443 38.3829C57.5637 38.4265 52.7754 33.5178 52.7754 27.4195V20.9709C52.7754 18.2155 54.9409 15.9869 57.6069 15.9928L97.8128 16.0837C100.382 16.0896 102.459 18.2805 102.459 20.9769V27.2909C102.459 33.2562 97.8545 38.1287 92.1488 38.1708Z" fill="#D8DEE8"/>
<path d="M79.6852 43.1412L75.6787 43.1801C70.1232 43.2341 65.5996 38.6034 65.5996 32.8371C65.5996 27.0729 70.1232 22.3946 75.6787 22.3896H79.6852C85.1942 22.3896 89.6401 27.0095 89.6401 32.7153C89.6401 38.4204 85.1942 43.0879 79.6852 43.1412Z" fill="#D8DEE8"/>
<path d="M93.4914 32.6318L62.7933 32.7868C58.5956 32.8083 55.1816 29.414 55.1816 25.2059V22.4273C55.1816 19.7535 57.3506 17.5892 60.0257 17.5935L96.1845 17.6466C98.7685 17.6466 100.859 19.7786 100.859 22.3993V25.1263C100.858 29.249 97.5662 32.6103 93.4914 32.6318Z" fill="url(#paint5_linear_3111:1558)"/>
<path d="M71.5198 26.3737C71.8276 25.9291 71.9976 25.3956 72.0069 24.8457C72.0069 23.0516 70.2174 21.5914 68.0076 21.5922C65.7977 21.593 63.9941 23.0555 63.9941 24.8589C64.0034 25.4103 64.1745 25.9452 64.4841 26.3901L71.5198 26.3737Z" fill="#D8DEE8"/>
<path d="M90.801 26.3744C91.0782 25.9287 91.2314 25.3953 91.2399 24.8459C91.2399 23.0483 89.6301 21.5914 87.6404 21.5922C85.6506 21.593 84.0293 23.0554 84.0293 24.8592C84.0376 25.4099 84.1915 25.9443 84.4702 26.3901L90.801 26.3744Z" fill="#D8DEE8"/>
<path d="M47.168 20.2156V30.1522C47.168 30.9105 47.1234 31.6136 46.8619 32.1836C46.4753 33.0292 45.9278 33.5813 45.2229 33.5849C44.0423 33.5913 43.1621 32.064 43.1621 30.1686V20.2156C43.1621 18.3231 44.0962 16.79 45.2782 16.7922C45.7403 16.7922 46.1563 17.0306 46.5055 17.4366C46.6011 17.5462 46.5774 17.6686 46.6593 17.8018C47.0458 18.4169 47.168 19.2711 47.168 20.2156Z" fill="url(#paint6_linear_3111:1558)"/>
<path d="M109.284 33.5865C108.177 33.5922 107.279 32.1354 107.279 30.3331V20.8532C107.279 19.0509 108.177 17.5914 109.284 17.5935C110.389 17.5935 111.285 19.0551 111.285 20.8546V30.3184C111.285 32.1172 110.389 33.5802 109.284 33.5865Z" fill="url(#paint7_linear_3111:1558)"/>
<path d="M99.4648 70.1812C99.439 70.2656 99.4138 70.353 99.388 70.4375L98.9145 72.0215C98.0333 74.9721 97.1502 77.924 96.2652 80.8775C94.4505 86.9465 90.1108 91.7506 84.6353 94.1953C82.2375 95.2675 79.6558 95.8633 77.0327 95.9497C68.5738 96.2255 61.0767 90.8438 58.5445 82.6456C57.5517 79.4299 56.5574 76.2122 55.5617 72.9926L55.0697 71.3999C55.0438 71.3147 55.0172 71.2273 54.9906 71.1421C53.7033 66.9705 54.4662 62.3909 57.0452 58.8135C58.1615 57.2622 59.5819 55.957 61.219 54.9782C63.2675 53.7456 65.6031 53.0777 67.9904 53.0419L86.8177 52.7798C88.8944 52.7501 90.9476 53.2229 92.8042 54.1583C94.6608 55.0937 96.2662 56.4643 97.485 58.1543C99.9684 61.5794 100.701 66.0427 99.4648 70.1812Z" fill="white"/>
<path d="M100.057 70.368L99.5772 72.351L55.6799 73.5667L55.1816 71.5728L100.057 70.368Z" fill="#D8DEE8"/>
<g style="mix-blend-mode:multiply" opacity="0.3">
<path d="M79.9024 43.2676C82.7147 45.1288 85.7646 46.648 88.8381 47.8216C85.2005 48.948 81.4225 49.5386 77.6197 49.5754C63.4701 49.7508 51.3226 42.6231 46.9767 32.5431C46.5895 33.4061 45.9857 33.9688 45.2805 33.9732C44.0981 33.9798 43.1611 32.4211 43.1611 30.4868V20.3294C43.1611 18.3981 44.0967 16.8335 45.2805 16.8357C45.7432 16.8357 46.1599 17.079 46.5096 17.4934C49.5926 8.93267 58.2203 2.2624 69.0732 0C70.0994 3.71951 70.0678 8.3488 68.1845 14.0939C67.9779 14.7231 67.798 15.3442 67.6404 15.9573C67.4965 16.5273 67.3698 17.0929 67.2648 17.6527C66.9968 19.0714 66.8587 20.5122 66.8524 21.9568C66.8475 23.402 66.9863 24.844 67.2669 26.2609C67.2856 26.3464 67.3008 26.4304 67.3216 26.5137C67.8174 28.8257 68.6785 31.041 69.8713 33.0737C70.9153 34.8562 72.1579 36.5108 73.5746 38.0048C75.4406 39.9792 77.588 41.7389 79.9024 43.2676Z" fill="#D8DEE8"/>
</g>
<g style="mix-blend-mode:multiply" opacity="0.3">
<path d="M84.9169 94.2029C82.4968 95.27 79.8911 95.8629 77.2436 95.9488C68.7059 96.2233 61.1391 90.8677 58.5832 82.7094C57.5812 79.5093 56.5777 76.3072 55.5728 73.1033L55.0761 71.5184C55.05 71.4336 55.0232 71.3466 54.9963 71.2618C53.697 67.1105 54.467 62.5532 57.07 58.9931C58.1967 57.4493 59.6303 56.1505 61.2827 55.1765C61.3762 59.8466 60.496 65.1224 67.0107 71.2626C67.5521 71.7756 68.1457 72.2919 68.7915 72.8116C70.3866 74.0977 72.3124 75.4168 74.6442 76.7719C85.7993 83.2475 88.5662 89.6542 84.9169 94.2029Z" fill="#D8DEE8"/>
</g>
<path d="M9.06523 62.7539L40.2921 55.4158C41.7433 55.0747 43.2041 55.9768 43.5458 57.4249L46.6588 70.6188C47.0005 72.0669 46.0965 73.5247 44.6453 73.8657L37.6582 75.5076L38.8857 80.7101L37.7033 80.9879L32.4448 76.7328L13.4185 81.2039C11.9673 81.5449 10.5065 80.6428 10.1648 79.1947L7.05172 66.0008C6.71004 64.5527 7.61407 63.0949 9.06523 62.7539Z" fill="#D99300"/>
<path d="M42.3622 57.7011L45.4752 70.8949C45.8169 72.343 44.9129 73.8008 43.4617 74.1419L36.4746 75.7838L37.7021 80.9862L31.2612 77.0089L12.2349 81.48C10.7837 81.821 9.32286 80.919 8.98118 79.4708L5.86813 66.277C5.52645 64.8289 6.43048 63.3711 7.88164 63.0301L39.1085 55.6919C40.5597 55.3509 42.0205 56.253 42.3622 57.7011Z" fill="url(#paint8_linear_3111:1558)"/>
<path opacity="0.4" d="M21.7724 68.2707L39.2402 64.1663L38.7087 61.9137L21.2409 66.0181L21.7724 68.2707Z" fill="white"/>
<path opacity="0.4" d="M22.8467 72.8429L40.3145 68.7384L39.7829 66.4858L22.3151 70.5903L22.8467 72.8429Z" fill="white"/>
<path opacity="0.3" d="M15.3454 73.5584L17.9907 71.0688L15.9275 76.0255L15.3454 73.5584Z" fill="#FACD35"/>
<path d="M15.4641 76.7369C15.094 76.829 14.7856 76.9057 14.4772 76.9824C14.3388 76.4284 14.2004 75.8743 14.062 75.3202C13.4298 75.4122 12.7513 75.581 12.1345 75.7345C12.0579 74.9034 12.0425 74.8419 12.0427 74.5803C12.0273 74.5187 12.089 74.5034 12.1506 74.488C12.3357 74.442 12.5207 74.3959 12.7674 74.3345C13.0759 74.2578 13.1068 74.1193 13.0453 73.8731C12.7069 72.5187 12.3685 71.1643 12.0148 69.7484C11.9071 69.3174 11.6296 69.2557 11.3212 69.3324C11.0745 69.3938 10.8894 69.4399 10.6427 69.5013C10.5658 69.1934 10.4735 68.8241 10.3966 68.5162C10.7667 68.4242 11.4452 68.2553 12.1854 68.0712C12.3087 68.0405 12.3087 68.0405 12.278 67.9173C12.1857 67.548 11.9704 66.6861 11.8781 66.3167C12.2482 66.2246 12.5566 66.1479 12.865 66.0711C13.0034 66.6252 13.1418 67.1793 13.2803 67.7333C13.527 67.6719 13.7737 67.6106 14.0204 67.5492C13.882 66.9951 13.7436 66.441 13.6052 65.887C13.9136 65.8102 14.222 65.7335 14.5304 65.6568C14.5765 65.8414 14.9149 67.1958 14.9303 67.2574C14.9456 67.319 14.961 67.3805 15.0227 67.3652C16.2254 67.1967 17.2429 67.3359 17.6585 68.4749C17.8124 68.8289 17.8584 69.2752 17.6886 69.6444C17.5651 69.9367 17.4108 70.1058 17.2411 70.2134C17.5803 70.2598 18.3666 70.2603 18.7979 70.9377C18.9982 71.2148 19.0751 71.5226 19.1057 71.9074C19.1363 72.2921 19.0898 72.6306 18.9817 72.9845C18.8272 73.4152 18.565 73.6767 18.164 73.9072C17.7167 74.2147 17.3003 74.3837 16.8068 74.5065C16.7452 74.5218 16.6835 74.5372 16.7142 74.6603C16.8373 75.1528 16.9449 75.5837 17.1141 76.2609C16.8057 76.3377 16.4973 76.4144 16.1889 76.4911C16.0505 75.9371 15.9121 75.383 15.7736 74.8289C15.5269 74.8903 15.2802 74.9517 15.0335 75.0131C15.1873 75.6287 15.3257 76.1828 15.4641 76.7369ZM14.2491 71.8734C14.4182 72.5506 14.5874 73.2278 14.772 73.9665C15.8052 73.6441 16.314 73.5829 16.8539 73.1216C17.1316 72.9217 17.2551 72.6294 17.1782 72.3216C17.0859 71.9522 16.901 71.7367 16.5465 71.6287C15.8991 71.3975 14.8505 71.6584 14.2491 71.8734ZM13.5262 68.9799C13.68 69.5956 13.8492 70.2728 14.003 70.8884C14.3884 70.8579 15.1132 70.6121 15.4526 70.3969C16.3626 69.8436 15.9931 68.8892 15.2994 68.7349C14.6211 68.6421 14.0196 68.8572 13.5262 68.9799Z" fill="white"/>
<defs>
<linearGradient id="paint0_linear_3111:1558" x1="26.002" y1="101.101" x2="29.805" y2="101.101" gradientUnits="userSpaceOnUse">
<stop stop-color="#83A6FF"/>
<stop offset="1" stop-color="#5A78FF"/>
</linearGradient>
<linearGradient id="paint1_linear_3111:1558" x1="125.964" y1="36.3327" x2="128.81" y2="36.3327" gradientUnits="userSpaceOnUse">
<stop stop-color="#83A6FF"/>
<stop offset="1" stop-color="#5A78FF"/>
</linearGradient>
<linearGradient id="paint2_linear_3111:1558" x1="27.2526" y1="30.6846" x2="30.2934" y2="30.6846" gradientUnits="userSpaceOnUse">
<stop stop-color="#FF66A9"/>
<stop offset="1" stop-color="#F53689"/>
</linearGradient>
<linearGradient id="paint3_linear_3111:1558" x1="94641.6" y1="92127" x2="162472" y2="92127" gradientUnits="userSpaceOnUse">
<stop stop-color="#444B8C"/>
<stop offset="1" stop-color="#26264F"/>
</linearGradient>
<linearGradient id="paint4_linear_3111:1558" x1="71263.3" y1="111284" x2="101835" y2="111284" gradientUnits="userSpaceOnUse">
<stop stop-color="#444B8C"/>
<stop offset="1" stop-color="#26264F"/>
</linearGradient>
<linearGradient id="paint5_linear_3111:1558" x1="70723.9" y1="27385.4" x2="99580.4" y2="27385.4" gradientUnits="userSpaceOnUse">
<stop stop-color="#444B8C"/>
<stop offset="1" stop-color="#26264F"/>
</linearGradient>
<linearGradient id="paint6_linear_3111:1558" x1="5581.22" y1="30273.1" x2="5804.54" y2="30273.1" gradientUnits="userSpaceOnUse">
<stop stop-color="#444B8C"/>
<stop offset="1" stop-color="#26264F"/>
</linearGradient>
<linearGradient id="paint7_linear_3111:1558" x1="9202.96" y1="28807.7" x2="9428.09" y2="28807.7" gradientUnits="userSpaceOnUse">
<stop stop-color="#444B8C"/>
<stop offset="1" stop-color="#26264F"/>
</linearGradient>
<linearGradient id="paint8_linear_3111:1558" x1="8.02119" y1="75.4688" x2="44.529" y2="66.8549" gradientUnits="userSpaceOnUse">
<stop offset="0.00289017" stop-color="#FFD44F"/>
<stop offset="1" stop-color="#FFA607"/>
</linearGradient>
</defs>
</svg>
