<svg width="117" height="68" viewBox="0 0 117 68" fill="none" xmlns="http://www.w3.org/2000/svg">
<path d="M87.9717 38.1846C87.9717 46.801 84.2007 54.5968 78.1949 60.0676C76.5189 61.572 74.7032 62.8029 72.8875 63.8971C72.7478 64.0338 72.6082 64.0338 72.4685 64.1706C68.1388 66.6324 62.971 68.0001 57.6636 68.0001C52.3562 68.0001 47.1884 66.6324 42.8587 64.1706C42.719 64.0338 42.5794 64.0338 42.4397 63.8971C41.7414 63.4868 41.043 63.0765 40.4843 62.6662C39.9257 62.2559 39.367 61.8455 38.8083 61.4352C31.8249 55.9645 27.3555 47.6216 27.3555 38.1846C27.3555 21.7724 40.9033 8.36914 57.8033 8.36914C74.7032 8.36914 87.9717 21.7724 87.9717 38.1846Z" fill="#EAEEF9"/>
<path d="M86.2663 48.9772L84.2796 51.3319C83.9028 51.7416 83.2499 51.541 82.9739 50.9308L80.8319 44.9531" fill="#667FFF"/>
<path d="M107.989 30.0812L106.693 31.889L93.1543 50.9378C92.5422 51.8281 91.3143 51.9149 90.3375 51.2477L82.7755 45.7207L81.2558 44.5993L77.0585 41.4749C76.1539 40.7805 76.1868 39.3554 77.1615 39.0817L104.524 31.201L107.989 30.0812Z" fill="#84A1FF"/>
<path d="M108.495 29.9207L107.173 31.8139L82.8311 46.1847L81.2089 45.0386L104.999 30.9803L108.495 29.9207Z" fill="#667FFF"/>
<g style="mix-blend-mode:multiply">
<path style="mix-blend-mode:multiply" opacity="0.3" d="M75.9712 10.5493C75.712 10.5493 75.4694 10.6838 75.2737 10.9114C73.104 4.91371 65.957 0.452227 57.3801 0.372944C55.6842 0.354982 53.9913 0.514721 52.3298 0.849458H52.3248C45.9164 2.14373 40.8138 5.95787 38.993 10.8566C38.7852 10.6217 38.5053 10.4831 38.2319 10.4823C37.534 10.4823 36.9287 11.3765 36.9287 12.4811V18.2929C36.9287 19.3991 37.5066 20.2904 38.2049 20.2868H38.2261H38.246C38.6614 20.2847 39.0544 19.9623 39.2846 19.4694C41.8511 25.2358 49.0251 29.3131 57.3801 29.213C59.6258 29.1915 61.8567 28.8535 64.0049 28.2093C69.1977 26.6416 73.2523 23.3612 75.0062 19.3002C75.2239 19.7792 75.5803 20.0902 75.9746 20.0882C76.6338 20.0849 77.1751 19.212 77.1751 18.1392V12.4942C77.171 11.421 76.6297 10.5505 75.9712 10.5493Z" fill="url(#paint0_linear_3129:951)"/>
<path style="mix-blend-mode:multiply" opacity="0.3" d="M62.9248 31.3499L51.788 31.5011C50.3759 31.5223 48.9944 31.9091 47.7825 32.6225C46.8141 33.1892 45.9739 33.945 45.3136 34.8432C43.7882 36.9144 43.337 39.5663 44.0981 41.9815C44.1139 42.031 44.1297 42.0816 44.145 42.1307L44.4358 43.0531C45.0255 44.9182 45.6136 46.7811 46.2002 48.6417C47.6982 53.3888 52.1324 56.5049 57.1362 56.3451C58.6878 56.2952 60.2149 55.9502 61.6332 55.3292C64.8735 53.914 67.4396 51.1321 68.5127 47.6183C69.035 45.9074 69.5574 44.1982 70.0801 42.4907L70.3601 41.5737L70.4053 41.4253C71.1369 39.0288 70.7036 36.4448 69.2343 34.4615C68.5134 33.4831 67.5638 32.6896 66.4656 32.148C65.3675 31.6064 64.153 31.3327 62.9248 31.3499Z" fill="url(#paint1_linear_3129:951)"/>
</g>
<path d="M76.4827 14.0215C76.4808 15.5397 76.1651 17.0418 75.5545 18.4372C73.8385 22.3931 69.8716 25.5884 64.7931 27.1154C62.6919 27.7431 60.5096 28.0722 58.3129 28.0927C50.1396 28.1904 43.1228 24.2186 40.6124 18.6017C39.4097 15.9473 39.3107 12.9382 40.3364 10.2134C42.1172 5.44309 47.1038 1.72618 53.3729 0.465498C54.9981 0.139657 56.6541 -0.015954 58.3129 0.00129061C66.7028 0.0786583 73.6934 4.42469 75.8159 10.2668C76.2564 11.4716 76.4819 12.7418 76.4827 14.0215Z" fill="white"/>
<path d="M66.4105 21.63L49.9101 21.7502C46.5307 21.7749 43.7783 18.9933 43.7783 15.5376V11.8834C43.7783 10.322 45.0231 9.05916 46.5555 9.06251L69.6662 9.11401C71.1427 9.11736 72.337 10.3589 72.337 11.8868V15.4647C72.337 18.8451 69.6902 21.6061 66.4105 21.63Z" fill="#D8DEE8"/>
<path d="M59.245 24.4467L56.942 24.4688C53.7486 24.4994 51.1484 21.8753 51.1484 18.6077C51.1484 15.3414 53.7486 12.6904 56.942 12.6875H59.245C62.4116 12.6875 64.9671 15.3055 64.9671 18.5387C64.9671 21.7716 62.4116 24.4165 59.245 24.4467Z" fill="#D8DEE8"/>
<path d="M67.1819 18.4904L49.5364 18.5783C47.1235 18.5905 45.1611 16.667 45.1611 14.2825V12.7079C45.1611 11.1928 46.4079 9.96631 47.9455 9.96875L68.73 9.99885C70.2152 9.99885 71.4167 11.207 71.4167 12.6921V14.2373C71.4163 16.5735 69.5241 18.4782 67.1819 18.4904Z" fill="url(#paint2_linear_3129:951)"/>
<path d="M54.5518 14.9459C54.7287 14.6939 54.8264 14.3916 54.8317 14.08C54.8317 13.0633 53.8032 12.2359 52.5332 12.2363C51.2631 12.2368 50.2266 13.0655 50.2266 14.0875C50.2319 14.3999 50.3302 14.703 50.5082 14.9551L54.5518 14.9459Z" fill="#D8DEE8"/>
<path d="M65.6351 14.9462C65.7944 14.6937 65.8824 14.3914 65.8873 14.0801C65.8873 13.0615 64.9621 12.2359 63.8185 12.2363C62.675 12.2368 61.7432 13.0655 61.7432 14.0877C61.7479 14.3997 61.8364 14.7025 61.9966 14.9551L65.6351 14.9462Z" fill="#D8DEE8"/>
<path d="M40.5523 11.4556V17.0863C40.5523 17.516 40.5267 17.9144 40.3764 18.2374C40.1542 18.7166 39.8395 19.0295 39.4344 19.0315C38.7559 19.0351 38.25 18.1697 38.25 17.0956V11.4556C38.25 10.3831 38.7869 9.51441 39.4662 9.51563C39.7317 9.51563 39.9708 9.65074 40.1715 9.88081C40.2265 9.94289 40.2128 10.0123 40.2599 10.0877C40.4821 10.4363 40.5523 10.9204 40.5523 11.4556Z" fill="url(#paint3_linear_3129:951)"/>
<path d="M76.2584 19.0315C75.6226 19.0346 75.1064 18.2092 75.1064 17.1879V11.8159C75.1064 10.7946 75.6226 9.96756 76.2584 9.96875C76.8938 9.96875 77.4087 10.797 77.4087 11.8167V17.1795C77.4087 18.1988 76.8938 19.0279 76.2584 19.0315Z" fill="url(#paint4_linear_3129:951)"/>
<path d="M70.6151 39.7687C70.6003 39.8166 70.5858 39.8661 70.571 39.914L70.2988 40.8116C69.7923 42.4836 69.2847 44.1563 68.776 45.8299C67.7329 49.2691 65.2384 51.9914 62.091 53.3767C60.7127 53.9843 59.2287 54.3219 57.721 54.3709C52.8587 54.5271 48.5493 51.4775 47.0938 46.8319C46.5231 45.0096 45.9516 43.1863 45.3793 41.3619L45.0964 40.4593C45.0815 40.4111 45.0663 40.3616 45.051 40.3133C44.311 37.9494 44.7495 35.3543 46.232 33.327C46.8736 32.448 47.6901 31.7084 48.6311 31.1538C49.8086 30.4553 51.1512 30.0768 52.5234 30.0565L63.3455 29.908C64.5391 29.8911 65.7194 30.159 66.7865 30.6891C67.8537 31.2192 68.7765 31.9958 69.4771 32.9535C70.9046 34.8944 71.3258 37.4236 70.6151 39.7687Z" fill="white"/>
<path d="M70.9561 39.875L70.6801 40.9987L45.4475 41.6875L45.1611 40.5577L70.9561 39.875Z" fill="#D8DEE8"/>
<g style="mix-blend-mode:multiply" opacity="0.3">
<path d="M59.3692 24.5182C60.9857 25.5729 62.7388 26.4338 64.5055 27.0989C62.4146 27.7371 60.243 28.0718 58.0571 28.0927C49.9238 28.192 42.9413 24.153 40.4432 18.4411C40.2207 18.9301 39.8736 19.249 39.4682 19.2514C38.7886 19.2552 38.25 18.3719 38.25 17.2758V11.52C38.25 10.4255 38.7878 9.53897 39.4682 9.54021C39.7342 9.54021 39.9737 9.6781 40.1747 9.91289C41.9468 5.06183 46.9062 1.28202 53.1445 0C53.7344 2.10772 53.7162 4.73097 52.6336 7.98655C52.5149 8.34308 52.4115 8.69505 52.3209 9.04247C52.2382 9.36546 52.1654 9.68597 52.105 10.0032C51.9509 10.8071 51.8716 11.6236 51.868 12.4421C51.8651 13.2611 51.9449 14.0782 52.1062 14.8811C52.117 14.9296 52.1257 14.9772 52.1377 15.0244C52.4227 16.3345 52.9176 17.5899 53.6032 18.7417C54.2034 19.7518 54.9176 20.6894 55.7319 21.536C56.8045 22.6548 58.0389 23.652 59.3692 24.5182Z" fill="#D8DEE8"/>
</g>
<g style="mix-blend-mode:multiply" opacity="0.3">
<path d="M62.2529 53.3815C60.8618 53.9862 59.364 54.3221 57.8422 54.3709C52.9346 54.5264 48.5852 51.4916 47.1161 46.8685C46.5401 45.0551 45.9633 43.2407 45.3856 41.4251L45.1001 40.527C45.0851 40.4789 45.0697 40.4296 45.0543 40.3816C44.3074 38.0292 44.75 35.4467 46.2462 33.4293C46.8939 32.5545 47.7179 31.8185 48.6677 31.2666C48.7215 33.913 48.2155 36.9026 51.9602 40.382C52.2714 40.6727 52.6126 40.9653 52.9838 41.2598C53.9007 41.9886 55.0077 42.7361 56.348 43.5039C62.7601 47.1735 64.3505 50.8039 62.2529 53.3815Z" fill="#D8DEE8"/>
</g>
<path d="M8.31473 31.4919L32.2754 26.7843C33.3889 26.5656 34.563 27.3693 34.8905 28.5744L37.874 39.5546C38.2014 40.7598 37.561 41.92 36.4475 42.1387L31.0862 43.1921L32.2627 47.5217L31.3554 47.6999L27.0859 43.978L12.4868 46.8463C11.3733 47.0651 10.1992 46.2614 9.87174 45.0562L6.88822 34.076C6.56076 32.8709 7.20123 31.7107 8.31473 31.4919Z" fill="#D99300"/>
<path d="M33.951 28.7902L36.9345 39.7704C37.262 40.9756 36.6215 42.1358 35.508 42.3546L30.1468 43.4079L31.3232 47.7375L26.1465 44.1938L11.5473 47.0621C10.4339 47.2809 9.25974 46.4772 8.93229 45.272L5.94877 34.2918C5.62131 33.0867 6.26178 31.9265 7.37527 31.7077L31.336 27.0002C32.4495 26.7814 33.6236 27.5851 33.951 28.7902Z" fill="url(#paint5_linear_3129:951)"/>
<path opacity="0.4" d="M18.5536 36.9163L32.2998 34.0168L31.7784 31.9487L18.0322 34.8482L18.5536 36.9163Z" fill="white"/>
<path opacity="0.4" d="M19.4052 40.4896L33.1514 37.5901L32.63 35.5219L18.8838 38.4214L19.4052 40.4896Z" fill="white"/>
<path opacity="0.3" d="M13.417 40.9807L15.3147 39.1017L13.9601 42.975L13.417 40.9807Z" fill="#FACD35"/>
<path d="M13.6657 43.6404C13.3895 43.6985 13.1593 43.747 12.9292 43.7955C12.8014 43.348 12.6736 42.9005 12.5458 42.453C12.0713 42.5003 11.565 42.6069 11.1047 42.7039C11.0122 42.0381 10.998 41.9884 10.9872 41.7798C10.973 41.7301 11.0191 41.7204 11.0651 41.7107C11.2032 41.6816 11.3413 41.6525 11.5254 41.6137C11.7555 41.5652 11.7732 41.4561 11.7164 41.2572C11.404 40.1633 11.0916 39.0694 10.7651 37.9258C10.6657 37.5777 10.4531 37.5171 10.223 37.5656C10.0389 37.6044 9.90079 37.6334 9.71667 37.6722C9.64568 37.4236 9.56049 37.1253 9.48949 36.8767C9.76567 36.8185 10.272 36.7118 10.8244 36.5955C10.9164 36.5761 10.9164 36.5761 10.888 36.4766C10.8028 36.1783 10.604 35.4822 10.5188 35.1838C10.795 35.1256 11.0252 35.0772 11.2553 35.0287C11.3831 35.4762 11.5109 35.9237 11.6387 36.3712C11.8228 36.3324 12.0069 36.2936 12.191 36.2548C12.0632 35.8073 11.9355 35.3598 11.8077 34.9123C12.0378 34.8638 12.268 34.8153 12.4981 34.7668C12.5407 34.916 12.8531 36.0099 12.8673 36.0596C12.8815 36.1093 12.8957 36.1591 12.9417 36.1494C13.8447 36.0646 14.6203 36.2174 14.9821 37.1428C15.1134 37.4314 15.1667 37.7892 15.0536 38.0766C14.9723 38.3046 14.8626 38.4331 14.7387 38.5119C14.9973 38.5629 15.5922 38.5957 15.9467 39.1535C16.1098 39.3828 16.1808 39.6314 16.2199 39.9394C16.2591 40.2474 16.238 40.5154 16.1709 40.7931C16.072 41.1303 15.8845 41.3279 15.5906 41.4953C15.265 41.722 14.957 41.8396 14.5888 41.9172C14.5427 41.9269 14.4967 41.9366 14.5251 42.036C14.6387 42.4338 14.7381 42.7819 14.8943 43.3288C14.6641 43.3773 14.434 43.4258 14.2038 43.4743C14.076 43.0268 13.9483 42.5793 13.8205 42.1318C13.6363 42.1706 13.4522 42.2093 13.2681 42.2481C13.4101 42.7454 13.5379 43.1929 13.6657 43.6404ZM12.544 39.7123C12.7002 40.2592 12.8563 40.8062 13.0267 41.4028C13.795 41.1883 14.1775 41.1604 14.5668 40.8148C14.7685 40.6669 14.8498 40.4389 14.7788 40.1903C14.6936 39.892 14.5448 39.7125 14.272 39.6118C13.7726 39.4007 12.9901 39.5656 12.544 39.7123ZM11.8766 37.3753C12.0186 37.8725 12.1748 38.4195 12.3168 38.9167C12.6072 38.9083 13.1453 38.7422 13.3931 38.5845C14.0586 38.1808 13.7393 37.4046 13.2081 37.253C12.691 37.151 12.2449 37.2977 11.8766 37.3753Z" fill="white"/>
<defs>
<linearGradient id="paint0_linear_3129:951" x1="54414.3" y1="52205.2" x2="93403.8" y2="52205.2" gradientUnits="userSpaceOnUse">
<stop stop-color="#444B8C"/>
<stop offset="1" stop-color="#26264F"/>
</linearGradient>
<linearGradient id="paint1_linear_3129:951" x1="40976.2" y1="63060.6" x2="58548.9" y2="63060.6" gradientUnits="userSpaceOnUse">
<stop stop-color="#444B8C"/>
<stop offset="1" stop-color="#26264F"/>
</linearGradient>
<linearGradient id="paint2_linear_3129:951" x1="40666.2" y1="15518.3" x2="57253.1" y2="15518.3" gradientUnits="userSpaceOnUse">
<stop stop-color="#444B8C"/>
<stop offset="1" stop-color="#26264F"/>
</linearGradient>
<linearGradient id="paint3_linear_3129:951" x1="3221.13" y1="17154.7" x2="3349.49" y2="17154.7" gradientUnits="userSpaceOnUse">
<stop stop-color="#444B8C"/>
<stop offset="1" stop-color="#26264F"/>
</linearGradient>
<linearGradient id="paint4_linear_3129:951" x1="5302.66" y1="16324.3" x2="5432.05" y2="16324.3" gradientUnits="userSpaceOnUse">
<stop stop-color="#444B8C"/>
<stop offset="1" stop-color="#26264F"/>
</linearGradient>
<linearGradient id="paint5_linear_3129:951" x1="8.01509" y1="41.9408" x2="35.5003" y2="34.4725" gradientUnits="userSpaceOnUse">
<stop offset="0.00289017" stop-color="#FFD44F"/>
<stop offset="1" stop-color="#FFA607"/>
</linearGradient>
</defs>
</svg>
