<svg width="14" height="14" viewBox="0 0 14 14" fill="none" xmlns="http://www.w3.org/2000/svg">
<path d="M1.58293 1.16602H12.4163C12.5363 1.20811 12.6451 1.27711 12.7343 1.36774C12.8235 1.45836 12.8908 1.56821 12.931 1.68887C12.9713 1.80952 12.9833 1.93778 12.9663 2.06382C12.9493 2.18986 12.9037 2.31033 12.8329 2.41602L8.66627 6.99935V12.8327L5.33293 10.3327V6.99935L1.16627 2.41602C1.09551 2.31033 1.04988 2.18986 1.03287 2.06382C1.01587 1.93778 1.02794 1.80952 1.06815 1.68887C1.10837 1.56821 1.17567 1.45836 1.2649 1.36774C1.35413 1.27711 1.46292 1.20811 1.58293 1.16602Z" stroke="white" stroke-width="1.5" stroke-linecap="round" stroke-linejoin="round"/>
</svg>
