<svg width="21" height="14" viewBox="0 0 21 14" fill="none" xmlns="http://www.w3.org/2000/svg">
<path fill-rule="evenodd" clip-rule="evenodd" d="M18.0456 7.46581V9.60846H16.4389V7.46581H14.2305V5.90827H16.4389V3.76562H18.0456V5.90827H20.2541V7.46581H18.0456ZM6.59917 13.1514C3.09486 13.1514 0.253906 10.3966 0.253906 6.9976C0.253906 3.59858 3.09486 0.84375 6.59917 0.84375C8.24924 0.84375 9.7518 1.45511 10.8802 2.45627L9.01011 4.2321C8.35924 3.69787 7.51838 3.37537 6.59917 3.37537C4.53658 3.37537 2.86402 4.99692 2.86402 6.9976C2.86402 8.99827 4.53658 10.6198 6.59917 10.6198C8.19507 10.6198 9.55679 9.64903 10.0918 8.28269H6.51917V5.7125H10.0918H12.7844H12.8061C12.8969 6.12692 12.9444 6.55692 12.9444 6.9976C12.9444 10.3966 10.1035 13.1514 6.59917 13.1514Z" fill="white"/>
</svg>
