<svg width="31" height="30" viewBox="0 0 31 30" fill="none" xmlns="http://www.w3.org/2000/svg">
<mask id="path-1-inside-1_4855_26550" fill="white">
<path fill-rule="evenodd" clip-rule="evenodd" d="M24.5418 24.5516C27.8579 22.0641 30.0032 18.1008 30.0032 13.6364C30.0032 6.10522 23.898 0 16.3669 0C11.9083 0 7.94951 2.13976 5.46139 5.44838C2.14537 7.9359 0 11.8992 0 16.3636C0 23.8948 6.10522 30 13.6364 30C18.0949 30 22.0537 27.8602 24.5418 24.5516ZM16.3669 27.2728C19.4336 27.2728 22.2639 26.2604 24.5418 24.5516C26.2565 22.2715 27.2728 19.4362 27.2728 16.3636C27.2728 8.83245 21.1676 2.72723 13.6364 2.72723C10.5696 2.72723 7.7393 3.7396 5.46139 5.44838C3.7467 7.72851 2.73047 10.5638 2.73047 13.6364C2.73047 21.1676 8.83569 27.2728 16.3669 27.2728Z"/>
</mask>
<path fill-rule="evenodd" clip-rule="evenodd" d="M24.5418 24.5516C27.8579 22.0641 30.0032 18.1008 30.0032 13.6364C30.0032 6.10522 23.898 0 16.3669 0C11.9083 0 7.94951 2.13976 5.46139 5.44838C2.14537 7.9359 0 11.8992 0 16.3636C0 23.8948 6.10522 30 13.6364 30C18.0949 30 22.0537 27.8602 24.5418 24.5516ZM16.3669 27.2728C19.4336 27.2728 22.2639 26.2604 24.5418 24.5516C26.2565 22.2715 27.2728 19.4362 27.2728 16.3636C27.2728 8.83245 21.1676 2.72723 13.6364 2.72723C10.5696 2.72723 7.7393 3.7396 5.46139 5.44838C3.7467 7.72851 2.73047 10.5638 2.73047 13.6364C2.73047 21.1676 8.83569 27.2728 16.3669 27.2728Z" fill="#393E6F"/>
<path d="M29.1997 13.6364C29.1997 17.8372 27.1821 21.5665 24.0596 23.9088L25.024 25.1944C28.5337 22.5617 30.8068 18.3644 30.8068 13.6364H29.1997ZM16.3669 0.803573C23.4542 0.803573 29.1997 6.54902 29.1997 13.6364H30.8068C30.8068 5.66142 24.3418 -0.803573 16.3669 -0.803573V0.803573ZM6.10363 5.93135C8.44649 2.81589 12.1716 0.803573 16.3669 0.803573V-0.803573C11.645 -0.803573 7.45254 1.46362 4.81915 4.96541L6.10363 5.93135ZM0.803573 16.3636C0.803573 12.1628 2.82117 8.43349 5.9436 6.09119L4.97918 4.80557C1.46957 7.43831 -0.803573 11.6356 -0.803573 16.3636H0.803573ZM13.6364 29.1964C6.54902 29.1964 0.803573 23.451 0.803573 16.3636H-0.803573C-0.803573 24.3386 5.66142 30.8036 13.6364 30.8036V29.1964ZM23.8996 24.0687C21.5567 27.1841 17.8317 29.1964 13.6364 29.1964V30.8036C18.3582 30.8036 22.5507 28.5364 25.1841 25.0346L23.8996 24.0687ZM24.0596 23.9088C21.916 25.5168 19.2538 26.4692 16.3669 26.4692V28.0763C19.6134 28.0763 22.6118 27.004 25.024 25.1944L24.0596 23.9088ZM26.4692 16.3636C26.4692 19.2561 25.5132 21.923 23.8996 24.0687L25.1841 25.0346C26.9999 22.62 28.0763 19.6164 28.0763 16.3636H26.4692ZM13.6364 3.5308C20.7238 3.5308 26.4692 9.27625 26.4692 16.3636H28.0763C28.0763 8.38865 21.6114 1.92366 13.6364 1.92366V3.5308ZM5.9436 6.09119C8.08719 4.48317 10.7494 3.5308 13.6364 3.5308V1.92366C10.3898 1.92366 7.3914 2.99603 4.97918 4.80557L5.9436 6.09119ZM3.53404 13.6364C3.53404 10.7439 4.49003 8.07705 6.10363 5.93135L4.81915 4.96541C3.00336 7.37998 1.9269 10.3836 1.9269 13.6364H3.53404ZM16.3669 26.4692C9.27949 26.4692 3.53404 20.7238 3.53404 13.6364H1.9269C1.9269 21.6114 8.39189 28.0763 16.3669 28.0763V26.4692Z" fill="white" mask="url(#path-1-inside-1_4855_26550)"/>
<mask id="path-3-inside-2_4855_26550" fill="white">
<path fill-rule="evenodd" clip-rule="evenodd" d="M24.5418 24.5516C27.8579 22.0641 30.0032 18.1008 30.0032 13.6364C30.0032 6.10522 23.898 0 16.3669 0C11.9083 0 7.94951 2.13976 5.46139 5.44838C2.14537 7.9359 0 11.8992 0 16.3636C0 23.8948 6.10522 30 13.6364 30C18.0949 30 22.0537 27.8602 24.5418 24.5516ZM16.3669 27.2728C19.4336 27.2728 22.2639 26.2604 24.5418 24.5516C26.2565 22.2715 27.2728 19.4362 27.2728 16.3636C27.2728 8.83245 21.1676 2.72723 13.6364 2.72723C10.5696 2.72723 7.7393 3.7396 5.46139 5.44838C3.7467 7.72851 2.73047 10.5638 2.73047 13.6364C2.73047 21.1676 8.83569 27.2728 16.3669 27.2728Z"/>
</mask>
<path fill-rule="evenodd" clip-rule="evenodd" d="M24.5418 24.5516C27.8579 22.0641 30.0032 18.1008 30.0032 13.6364C30.0032 6.10522 23.898 0 16.3669 0C11.9083 0 7.94951 2.13976 5.46139 5.44838C2.14537 7.9359 0 11.8992 0 16.3636C0 23.8948 6.10522 30 13.6364 30C18.0949 30 22.0537 27.8602 24.5418 24.5516ZM16.3669 27.2728C19.4336 27.2728 22.2639 26.2604 24.5418 24.5516C26.2565 22.2715 27.2728 19.4362 27.2728 16.3636C27.2728 8.83245 21.1676 2.72723 13.6364 2.72723C10.5696 2.72723 7.7393 3.7396 5.46139 5.44838C3.7467 7.72851 2.73047 10.5638 2.73047 13.6364C2.73047 21.1676 8.83569 27.2728 16.3669 27.2728Z" fill="url(#paint0_linear_4855_26550)"/>
<path d="M29.1997 13.6364C29.1997 17.8372 27.1821 21.5665 24.0596 23.9088L25.024 25.1944C28.5337 22.5617 30.8068 18.3644 30.8068 13.6364H29.1997ZM16.3669 0.803573C23.4542 0.803573 29.1997 6.54902 29.1997 13.6364H30.8068C30.8068 5.66142 24.3418 -0.803573 16.3669 -0.803573V0.803573ZM6.10363 5.93135C8.44649 2.81589 12.1716 0.803573 16.3669 0.803573V-0.803573C11.645 -0.803573 7.45254 1.46362 4.81915 4.96541L6.10363 5.93135ZM0.803573 16.3636C0.803573 12.1628 2.82117 8.43349 5.9436 6.09119L4.97918 4.80557C1.46957 7.43831 -0.803573 11.6356 -0.803573 16.3636H0.803573ZM13.6364 29.1964C6.54902 29.1964 0.803573 23.451 0.803573 16.3636H-0.803573C-0.803573 24.3386 5.66142 30.8036 13.6364 30.8036V29.1964ZM23.8996 24.0687C21.5567 27.1841 17.8317 29.1964 13.6364 29.1964V30.8036C18.3582 30.8036 22.5507 28.5364 25.1841 25.0346L23.8996 24.0687ZM24.0596 23.9088C21.916 25.5168 19.2538 26.4692 16.3669 26.4692V28.0763C19.6134 28.0763 22.6118 27.004 25.024 25.1944L24.0596 23.9088ZM26.4692 16.3636C26.4692 19.2561 25.5132 21.923 23.8996 24.0687L25.1841 25.0346C26.9999 22.62 28.0763 19.6164 28.0763 16.3636H26.4692ZM13.6364 3.5308C20.7238 3.5308 26.4692 9.27625 26.4692 16.3636H28.0763C28.0763 8.38865 21.6114 1.92366 13.6364 1.92366V3.5308ZM5.9436 6.09119C8.08719 4.48317 10.7494 3.5308 13.6364 3.5308V1.92366C10.3898 1.92366 7.3914 2.99603 4.97918 4.80557L5.9436 6.09119ZM3.53404 13.6364C3.53404 10.7439 4.49003 8.07705 6.10363 5.93135L4.81915 4.96541C3.00336 7.37998 1.9269 10.3836 1.9269 13.6364H3.53404ZM16.3669 26.4692C9.27949 26.4692 3.53404 20.7238 3.53404 13.6364H1.9269C1.9269 21.6114 8.39189 28.0763 16.3669 28.0763V26.4692Z" fill="white" mask="url(#path-3-inside-2_4855_26550)"/>
<mask id="path-5-inside-3_4855_26550" fill="white">
<path fill-rule="evenodd" clip-rule="evenodd" d="M24.5418 24.5516C27.8579 22.0641 30.0032 18.1008 30.0032 13.6364C30.0032 6.10522 23.898 0 16.3669 0C11.9083 0 7.94951 2.13976 5.46139 5.44838C2.14537 7.9359 0 11.8992 0 16.3636C0 23.8948 6.10522 30 13.6364 30C18.0949 30 22.0537 27.8602 24.5418 24.5516ZM16.3669 27.2728C19.4336 27.2728 22.2639 26.2604 24.5418 24.5516C26.2565 22.2715 27.2728 19.4362 27.2728 16.3636C27.2728 8.83245 21.1676 2.72723 13.6364 2.72723C10.5696 2.72723 7.7393 3.7396 5.46139 5.44838C3.7467 7.72851 2.73047 10.5638 2.73047 13.6364C2.73047 21.1676 8.83569 27.2728 16.3669 27.2728Z"/>
</mask>
<path fill-rule="evenodd" clip-rule="evenodd" d="M24.5418 24.5516C27.8579 22.0641 30.0032 18.1008 30.0032 13.6364C30.0032 6.10522 23.898 0 16.3669 0C11.9083 0 7.94951 2.13976 5.46139 5.44838C2.14537 7.9359 0 11.8992 0 16.3636C0 23.8948 6.10522 30 13.6364 30C18.0949 30 22.0537 27.8602 24.5418 24.5516ZM16.3669 27.2728C19.4336 27.2728 22.2639 26.2604 24.5418 24.5516C26.2565 22.2715 27.2728 19.4362 27.2728 16.3636C27.2728 8.83245 21.1676 2.72723 13.6364 2.72723C10.5696 2.72723 7.7393 3.7396 5.46139 5.44838C3.7467 7.72851 2.73047 10.5638 2.73047 13.6364C2.73047 21.1676 8.83569 27.2728 16.3669 27.2728Z" fill="url(#paint1_linear_4855_26550)"/>
<path d="M29.1997 13.6364C29.1997 17.8372 27.1821 21.5665 24.0596 23.9088L25.024 25.1944C28.5337 22.5617 30.8068 18.3644 30.8068 13.6364H29.1997ZM16.3669 0.803573C23.4542 0.803573 29.1997 6.54902 29.1997 13.6364H30.8068C30.8068 5.66142 24.3418 -0.803573 16.3669 -0.803573V0.803573ZM6.10363 5.93135C8.44649 2.81589 12.1716 0.803573 16.3669 0.803573V-0.803573C11.645 -0.803573 7.45254 1.46362 4.81915 4.96541L6.10363 5.93135ZM0.803573 16.3636C0.803573 12.1628 2.82117 8.43349 5.9436 6.09119L4.97918 4.80557C1.46957 7.43831 -0.803573 11.6356 -0.803573 16.3636H0.803573ZM13.6364 29.1964C6.54902 29.1964 0.803573 23.451 0.803573 16.3636H-0.803573C-0.803573 24.3386 5.66142 30.8036 13.6364 30.8036V29.1964ZM23.8996 24.0687C21.5567 27.1841 17.8317 29.1964 13.6364 29.1964V30.8036C18.3582 30.8036 22.5507 28.5364 25.1841 25.0346L23.8996 24.0687ZM24.0596 23.9088C21.916 25.5168 19.2538 26.4692 16.3669 26.4692V28.0763C19.6134 28.0763 22.6118 27.004 25.024 25.1944L24.0596 23.9088ZM26.4692 16.3636C26.4692 19.2561 25.5132 21.923 23.8996 24.0687L25.1841 25.0346C26.9999 22.62 28.0763 19.6164 28.0763 16.3636H26.4692ZM13.6364 3.5308C20.7238 3.5308 26.4692 9.27625 26.4692 16.3636H28.0763C28.0763 8.38865 21.6114 1.92366 13.6364 1.92366V3.5308ZM5.9436 6.09119C8.08719 4.48317 10.7494 3.5308 13.6364 3.5308V1.92366C10.3898 1.92366 7.3914 2.99603 4.97918 4.80557L5.9436 6.09119ZM3.53404 13.6364C3.53404 10.7439 4.49003 8.07705 6.10363 5.93135L4.81915 4.96541C3.00336 7.37998 1.9269 10.3836 1.9269 13.6364H3.53404ZM16.3669 26.4692C9.27949 26.4692 3.53404 20.7238 3.53404 13.6364H1.9269C1.9269 21.6114 8.39189 28.0763 16.3669 28.0763V26.4692Z" fill="white" mask="url(#path-5-inside-3_4855_26550)"/>
<path fill-rule="evenodd" clip-rule="evenodd" d="M5.45243 5.45529C7.73187 3.74245 10.5656 2.72742 13.6364 2.72742C21.1676 2.72742 27.2728 8.83263 27.2728 16.3638C27.2728 19.4334 26.2585 22.2661 24.5469 24.5451C22.2675 26.2579 19.4337 27.273 16.3629 27.273C8.83178 27.273 2.72656 21.1677 2.72656 13.6366C2.72656 10.567 3.7408 7.73428 5.45243 5.45529Z" fill="url(#paint2_linear_4855_26550)"/>
<path d="M22.1591 15.0003C22.1591 18.4328 21.3311 21.5238 20.0103 23.7452C18.6851 25.9739 16.9028 27.273 15 27.273C13.0973 27.273 11.3149 25.9739 9.98973 23.7452C8.66889 21.5238 7.84091 18.4328 7.84091 15.0003C7.84091 11.5677 8.66889 8.4767 9.98973 6.25528C11.3149 4.02659 13.0973 2.72751 15 2.72751C16.9028 2.72751 18.6851 4.02659 20.0103 6.25528C21.3311 8.4767 22.1591 11.5677 22.1591 15.0003Z" fill="#4672EA" stroke="white" stroke-width="0.681819"/>
<path d="M14.9996 22.1591C11.5671 22.1591 8.47607 21.3311 6.25465 20.0103C4.02596 18.6851 2.72688 16.9028 2.72688 15C2.72688 13.0973 4.02596 11.3149 6.25465 9.98973C8.47607 8.66888 11.5671 7.84091 14.9996 7.84091C18.4322 7.84091 21.5232 8.66888 23.7446 9.98973C25.9733 11.3149 27.2724 13.0973 27.2724 15C27.2724 16.9028 25.9733 18.6851 23.7446 20.0103C21.5232 21.3311 18.4322 22.1591 14.9996 22.1591Z" stroke="white" stroke-width="0.681819"/>
<path d="M14.4964 10.6786C15.0036 10.6786 15.4464 10.7893 15.825 11.0108C16.2107 11.2322 16.4964 11.5108 16.6822 11.8465V10.775H17.6679V16.7751C17.6679 17.3108 17.5536 17.7858 17.325 18.2001C17.0964 18.6215 16.7679 18.9501 16.3393 19.1858C15.9179 19.4215 15.425 19.5393 14.8607 19.5393C14.0893 19.5393 13.4464 19.3572 12.9321 18.9929C12.4179 18.6286 12.1143 18.1322 12.0214 17.5036H12.9857C13.0929 17.8608 13.3143 18.1465 13.65 18.3608C13.9857 18.5822 14.3893 18.6929 14.8607 18.6929C15.3964 18.6929 15.8322 18.5251 16.1679 18.1893C16.5107 17.8536 16.6822 17.3822 16.6822 16.7751V15.5429C16.4893 15.8858 16.2036 16.1715 15.825 16.4001C15.4464 16.6286 15.0036 16.7429 14.4964 16.7429C13.975 16.7429 13.5 16.6143 13.0714 16.3572C12.65 16.1001 12.3179 15.7393 12.075 15.2751C11.8321 14.8108 11.7107 14.2822 11.7107 13.6893C11.7107 13.0893 11.8321 12.5643 12.075 12.1143C12.3179 11.6572 12.65 11.3036 13.0714 11.0536C13.5 10.8036 13.975 10.6786 14.4964 10.6786ZM16.6822 13.7001C16.6822 13.2572 16.5929 12.8715 16.4143 12.5429C16.2357 12.2143 15.9929 11.9643 15.6857 11.7929C15.3857 11.6143 15.0536 11.525 14.6893 11.525C14.325 11.525 13.9929 11.6108 13.6929 11.7822C13.3929 11.9536 13.1536 12.2036 12.975 12.5322C12.7964 12.8608 12.7071 13.2465 12.7071 13.6893C12.7071 14.1393 12.7964 14.5322 12.975 14.8679C13.1536 15.1965 13.3929 15.4501 13.6929 15.6286C13.9929 15.8001 14.325 15.8858 14.6893 15.8858C15.0536 15.8858 15.3857 15.8001 15.6857 15.6286C15.9929 15.4501 16.2357 15.1965 16.4143 14.8679C16.5929 14.5322 16.6822 14.1429 16.6822 13.7001Z" fill="white"/>
<defs>
<linearGradient id="paint0_linear_4855_26550" x1="15.0016" y1="0" x2="15.0016" y2="30" gradientUnits="userSpaceOnUse">
<stop stop-color="white"/>
<stop offset="1" stop-color="white" stop-opacity="0"/>
</linearGradient>
<linearGradient id="paint1_linear_4855_26550" x1="0" y1="15" x2="30.0032" y2="15" gradientUnits="userSpaceOnUse">
<stop stop-color="#1488CC"/>
<stop offset="1" stop-color="#2B32B2"/>
</linearGradient>
<linearGradient id="paint2_linear_4855_26550" x1="14.9997" y1="2.72742" x2="14.9997" y2="27.273" gradientUnits="userSpaceOnUse">
<stop stop-color="#3F7FFD"/>
<stop offset="1" stop-color="#433FFD" stop-opacity="0.9"/>
</linearGradient>
</defs>
</svg>
