<svg width="24" height="24" viewBox="0 0 24 24" fill="none" xmlns="http://www.w3.org/2000/svg">
<g clip-path="url(#clip0_3281_17674)">
<path d="M12.0005 24.001C18.6282 24.001 24.001 18.6282 24.001 12.0005C24.001 5.3728 18.6282 0 12.0005 0C5.3728 0 0 5.3728 0 12.0005C0 18.6282 5.3728 24.001 12.0005 24.001Z" fill="#616161"/>
<path d="M12.0005 19.6369C7.78243 19.6369 4.36408 16.2185 4.36408 12.0005C4.36408 7.78242 7.78243 4.36408 12.0005 4.36408C14.1085 4.36408 16.0174 5.2189 17.4002 6.60075L20.4859 3.51505C18.314 1.34316 15.3134 0 12.0005 0C5.37266 0 0 5.37266 0 12.0005C0 18.6283 5.37266 24.001 12.0005 24.001C15.3144 24.001 18.314 22.6578 20.4869 20.4869L17.4012 17.4012C16.0174 18.7821 14.1085 19.6369 12.0005 19.6369Z" fill="#9E9E9E"/>
<path d="M19.6348 12.0005H15.8161C15.8161 9.89239 14.1064 8.18176 11.9974 8.18176C9.88838 8.18176 8.17969 9.89142 8.17969 12.0005C8.17969 13.0274 8.58583 13.9586 9.24629 14.6462L9.24339 14.6491L13.9711 19.3767L13.972 19.3777C17.2328 18.5074 19.6348 15.5348 19.6348 12.0005Z" fill="#424242"/>
<path d="M23.9986 12.0005H19.6345C19.6345 15.5349 17.2315 18.5074 13.9727 19.3777L17.3427 22.7477C21.2881 20.7818 23.9986 16.7078 23.9986 12.0005Z" fill="#616161"/>
<path d="M12.0005 23.8637C5.39587 23.8637 0.03868 18.5278 0.000967005 11.9319C0.000967005 11.9551 0 11.9773 0 12.0005C0 18.6284 5.37266 24.001 12.0005 24.001C18.6283 24.001 24.001 18.6284 24.001 12.0005C24.001 11.9773 24 11.9551 24 11.9319C23.9623 18.5278 18.6041 23.8637 12.0005 23.8637Z" fill="#212121" fill-opacity="0.1"/>
<path d="M13.9766 19.3777L14.0829 19.4841C17.2876 18.579 19.6384 15.6335 19.6384 12.1368V12.0005C19.6384 15.5349 17.2354 18.5074 13.9766 19.3777Z" fill="white" fill-opacity="0.05"/>
<path d="M21.8161 10.9093H11.997C11.3946 10.9093 10.9062 11.3977 10.9062 12.0001C10.9062 12.6026 11.3946 13.0909 11.997 13.0909H21.8151C22.4175 13.0909 22.9059 12.6026 22.9059 12.0001C22.9069 11.3977 22.4185 10.9093 21.8161 10.9093Z" fill="#9E9E9E"/>
<path opacity="0.5" d="M21.8161 10.9093H11.997C11.3946 10.9093 10.9062 11.3977 10.9062 12.0001C10.9062 12.6026 11.3946 13.0909 11.997 13.0909H21.8151C22.4175 13.0909 22.9059 12.6026 22.9059 12.0001C22.9069 11.3977 22.4185 10.9093 21.8161 10.9093Z" fill="#BDBDBD"/>
<path d="M2.18136 12.8187C2.63318 12.8187 2.99945 12.4524 2.99945 12.0006C2.99945 11.5488 2.63318 11.1825 2.18136 11.1825C1.72955 11.1825 1.36328 11.5488 1.36328 12.0006C1.36328 12.4524 1.72955 12.8187 2.18136 12.8187Z" fill="#BDBDBD"/>
<path d="M12.0017 2.99969C12.4535 2.99969 12.8198 2.63342 12.8198 2.18161C12.8198 1.72979 12.4535 1.36353 12.0017 1.36353C11.5499 1.36353 11.1836 1.72979 11.1836 2.18161C11.1836 2.63342 11.5499 2.99969 12.0017 2.99969Z" fill="#BDBDBD"/>
<path d="M12.0017 22.6365C12.4535 22.6365 12.8198 22.2703 12.8198 21.8185C12.8198 21.3666 12.4535 21.0004 12.0017 21.0004C11.5499 21.0004 11.1836 21.3666 11.1836 21.8185C11.1836 22.2703 11.5499 22.6365 12.0017 22.6365Z" fill="#BDBDBD"/>
<path d="M5.04465 5.87555C5.49646 5.87555 5.86273 5.50928 5.86273 5.05746C5.86273 4.60565 5.49646 4.23938 5.04465 4.23938C4.59283 4.23938 4.22656 4.60565 4.22656 5.05746C4.22656 5.50928 4.59283 5.87555 5.04465 5.87555Z" fill="#BDBDBD"/>
<path d="M5.04465 19.7733C5.49646 19.7733 5.86273 19.407 5.86273 18.9552C5.86273 18.5034 5.49646 18.1371 5.04465 18.1371C4.59283 18.1371 4.22656 18.5034 4.22656 18.9552C4.22656 19.407 4.59283 19.7733 5.04465 19.7733Z" fill="#BDBDBD"/>
<path d="M18.9548 19.7733C19.4066 19.7733 19.7729 19.407 19.7729 18.9552C19.7729 18.5034 19.4066 18.1371 18.9548 18.1371C18.503 18.1371 18.1367 18.5034 18.1367 18.9552C18.1367 19.407 18.503 19.7733 18.9548 19.7733Z" fill="#757575"/>
<path d="M12.0009 11.046H21.8189C22.3981 11.046 22.872 11.4986 22.9058 12.0691C22.9068 12.0459 22.9097 12.0237 22.9097 12.0004C22.9097 11.398 22.4213 10.9097 21.8189 10.9097H12.0009C11.3985 10.9097 10.9102 11.398 10.9102 12.0004C10.9102 12.0237 10.9111 12.0459 10.914 12.0691C10.9479 11.4986 11.4207 11.046 12.0009 11.046Z" fill="white" fill-opacity="0.2"/>
<path d="M22.9058 12.0681C22.87 12.6377 22.3972 13.0912 21.8189 13.0912H12.0009C11.4217 13.0912 10.9479 12.6386 10.914 12.0681C10.9111 12.0913 10.9102 12.1136 10.9102 12.1358C10.9102 12.7382 11.3985 13.2266 12.0009 13.2266H21.8189C22.4213 13.2266 22.9097 12.7382 22.9097 12.1358C22.9097 12.1136 22.9087 12.0913 22.9058 12.0681Z" fill="#212121" fill-opacity="0.2"/>
<path d="M11.9997 4.50038C14.1078 4.50038 16.0166 5.35521 17.3994 6.73705L20.5518 3.5827C20.5286 3.55949 20.5064 3.53628 20.4842 3.51404L17.3994 6.59974C16.0166 5.21789 14.1078 4.36307 11.9997 4.36307C7.78163 4.36307 4.36328 7.78141 4.36328 11.9995C4.36328 12.0227 4.36425 12.0449 4.36425 12.0681C4.40099 7.88198 7.80484 4.50038 11.9997 4.50038Z" fill="#212121" fill-opacity="0.1"/>
<path d="M12.0005 24.001C18.6282 24.001 24.001 18.6282 24.001 12.0005C24.001 5.3728 18.6282 0 12.0005 0C5.3728 0 0 5.3728 0 12.0005C0 18.6282 5.3728 24.001 12.0005 24.001Z" fill="url(#paint0_radial_3281_17674)"/>
</g>
<defs>
<radialGradient id="paint0_radial_3281_17674" cx="0" cy="0" r="1" gradientUnits="userSpaceOnUse" gradientTransform="translate(3.51922 3.49189) scale(23.9595)">
<stop stop-color="white" stop-opacity="0.1"/>
<stop offset="1" stop-color="white" stop-opacity="0"/>
</radialGradient>
<clipPath id="clip0_3281_17674">
<rect width="24" height="24" fill="white"/>
</clipPath>
</defs>
</svg>
