<svg width="19" height="18" viewBox="0 0 19 18" fill="none" xmlns="http://www.w3.org/2000/svg">
<g opacity="0.5">
<path fill-rule="evenodd" clip-rule="evenodd" d="M9.03662 16C12.9185 16 16.0654 12.866 16.0654 9C16.0654 5.13401 12.9185 2 9.03662 2C5.15472 2 2.00781 5.13401 2.00781 9C2.00781 12.866 5.15472 16 9.03662 16Z" stroke="#4B5563" stroke-linecap="round"/>
<path d="M9.60229 6.18519V5.81481C9.60229 5.50288 9.34941 5.25 9.03747 5.25C8.72553 5.25 8.47266 5.50288 8.47266 5.81481V6.18519C8.47266 6.49712 8.72553 6.75 9.03747 6.75C9.34941 6.75 9.60229 6.49712 9.60229 6.18519Z" fill="#4B5563"/>
<path d="M9.60229 12.1852V7.91481C9.60229 7.60288 9.34941 7.35 9.03747 7.35C8.72553 7.35 8.47266 7.60288 8.47266 7.91482V12.1852C8.47266 12.4971 8.72553 12.75 9.03747 12.75C9.34941 12.75 9.60229 12.4971 9.60229 12.1852Z" fill="#4B5563"/>
</g>
</svg>
