<svg width="62" height="58" viewBox="0 0 84 97" fill="none" xmlns="http://www.w3.org/2000/svg">
<path d="M70.8915 38C70.8915 44.5638 68.652 50.6502 64.8994 55.5432C62.8416 58.1687 60.36 60.4959 57.5153 62.286C52.9154 65.2695 47.4075 67 41.476 67C25.1946 67 12 53.9918 12 38C12 21.9486 25.1946 9 41.4155 9C47.347 9 52.8548 10.7305 57.4548 13.6543C60.2995 15.4444 62.781 17.7716 64.8389 20.3971C68.652 25.3498 70.8915 31.3765 70.8915 38Z" fill="#EAEEF9"/>
<path d="M14.9274 61.7905C15.4721 61.7905 15.9563 61.3728 15.9563 60.7761C15.9563 60.2391 15.5326 59.7617 14.9274 59.7617C14.3826 59.7617 13.8984 60.1794 13.8984 60.7761C13.8984 61.3132 14.3221 61.7905 14.9274 61.7905Z" fill="url(#paint0_linear_3191:23619)"/>
<path d="M71.928 26.2026C73.0937 26.2026 74.0004 25.3127 74.0004 24.1687C74.0004 23.0246 73.0937 22.1348 71.928 22.1348C70.7622 22.1348 69.8555 23.0246 69.8555 24.1687C69.8555 25.3127 70.7622 26.2026 71.928 26.2026Z" fill="#3579FC"/>
<g filter="url(#filter0_d_3191:23619)">
<path d="M61.2871 13.7848V62.1181C61.2871 62.9535 60.3187 63.3712 59.7134 62.7745L58.6845 61.8198C58.3213 61.4618 57.7161 61.4618 57.3529 61.8198L55.4161 63.6696C55.0529 64.0276 54.4477 64.0276 54.0845 63.6696L52.1477 61.8198C51.7846 61.4618 51.1793 61.4618 50.8161 61.8198L48.8793 63.6696C48.5162 64.0276 47.9109 64.0276 47.5478 63.6696L45.6109 61.8198C45.2478 61.4618 44.6425 61.4618 44.2794 61.8198L42.4031 63.6696C42.0399 64.0276 41.4347 64.0276 41.0715 63.6696L39.1347 61.8198C38.7715 61.4618 38.1663 61.4618 37.8031 61.8198L35.8663 63.6696C35.5031 64.0276 34.8979 64.0276 34.5347 63.6696L32.5979 61.8198C32.2348 61.4618 31.6295 61.4618 31.2664 61.8198L29.3295 63.6696C28.9664 64.0276 28.3611 64.0276 27.998 63.6696L25.4559 61.1634L25.2743 61.3424L23.7612 62.7745C23.1559 63.3712 22.1875 62.9535 22.1875 62.1181V13.7848C22.1875 12.9494 23.1559 12.5317 23.7612 13.1284L24.7901 14.0832C25.1533 14.4412 25.7585 14.4412 26.1217 14.0832L28.0585 12.2334C28.4216 11.8753 29.0269 11.8753 29.3901 12.2334L31.3269 14.0832C31.69 14.4412 32.2953 14.4412 32.6584 14.0832L34.5953 12.2334C34.9584 11.8753 35.5637 11.8753 35.9268 12.2334L37.8637 14.0832C38.2268 14.4412 38.8321 14.4412 39.1952 14.0832L41.132 12.2334C41.4952 11.8753 42.1004 11.8753 42.4636 12.2334L44.3399 14.0832C44.703 14.4412 45.3083 14.4412 45.6715 14.0832L47.6083 12.2334C47.9714 11.8753 48.5767 11.8753 48.9399 12.2334L50.8767 14.0832C51.2398 14.4412 51.8451 14.4412 52.2082 14.0832L54.1451 12.2334C54.5082 11.8753 55.1135 11.8753 55.4766 12.2334L57.4134 14.0832C57.7766 14.4412 58.3819 14.4412 58.745 14.0832L59.7739 13.1284C60.3187 12.5317 61.2871 12.9494 61.2871 13.7848Z" fill="white"/>
</g>
<path d="M53.9611 24.6452H49.7243C49.3007 24.6452 48.9375 24.2872 48.9375 23.8695C48.9375 23.4518 49.3007 23.0938 49.7243 23.0938H53.9611C54.3848 23.0938 54.748 23.4518 54.748 23.8695C54.748 24.2872 54.3848 24.6452 53.9611 24.6452Z" fill="#C5CCDE"/>
<path d="M45.8513 24.6452H29.1462C28.7225 24.6452 28.3594 24.2872 28.3594 23.8695C28.3594 23.4518 28.7225 23.0938 29.1462 23.0938H45.8513C46.275 23.0938 46.6381 23.4518 46.6381 23.8695C46.6381 24.2872 46.275 24.6452 45.8513 24.6452Z" fill="#C5CCDE"/>
<path d="M53.9601 32.0456H46.697C46.2733 32.0456 45.9102 31.6876 45.9102 31.2699C45.9102 30.8522 46.2733 30.4941 46.697 30.4941H53.9601C54.3837 30.4941 54.7469 30.8522 54.7469 31.2699C54.7469 31.6876 54.3837 32.0456 53.9601 32.0456Z" fill="#C5CCDE"/>
<path d="M42.8252 32.0456H35.3806C34.9569 32.0456 34.5938 31.6876 34.5938 31.2699C34.5938 30.8522 34.9569 30.4941 35.3806 30.4941H42.8858C43.3095 30.4941 43.6726 30.8522 43.6726 31.2699C43.6726 31.6876 43.2489 32.0456 42.8252 32.0456Z" fill="#C5CCDE"/>
<path d="M32.4751 32.0446H29.1462C28.7225 32.0446 28.3594 31.6866 28.3594 31.2689C28.3594 30.8512 28.7225 30.4932 29.1462 30.4932H32.4751C32.8988 30.4932 33.262 30.8512 33.262 31.2689C33.262 31.6866 32.8988 32.0446 32.4751 32.0446Z" fill="#4988FD"/>
<path d="M41.5524 39.5046H35.8025C35.3788 39.5046 35.0156 39.1465 35.0156 38.7288C35.0156 38.3111 35.3788 37.9531 35.8025 37.9531H41.5524C41.9761 37.9531 42.3392 38.3111 42.3392 38.7288C42.3392 39.1465 41.9761 39.5046 41.5524 39.5046Z" fill="#C5CCDE"/>
<path d="M32.7172 39.5055H29.1462C28.7225 39.5055 28.3594 39.1475 28.3594 38.7298C28.3594 38.3121 28.7225 37.9541 29.1462 37.9541H32.7172C33.1409 37.9541 33.5041 38.3121 33.5041 38.7298C33.5041 39.1475 33.1409 39.5055 32.7172 39.5055Z" fill="#4988FD"/>
<path d="M41.554 46.903H29.1462C28.7225 46.903 28.3594 46.545 28.3594 46.1273C28.3594 45.7096 28.7225 45.3516 29.1462 45.3516H41.554C41.9777 45.3516 42.3408 45.7096 42.3408 46.1273C42.3408 46.545 41.9777 46.903 41.554 46.903Z" fill="#C5CCDE"/>
<path d="M41.5545 52.8115C37.1966 52.8115 33.5046 52.8115 29.1467 52.8115C28.1178 52.8115 28.1178 54.3033 29.1467 54.3033C33.9282 54.3033 36.8335 54.3033 41.5545 54.3033C41.9781 54.3033 42.3413 53.9453 42.3413 53.5276C42.3413 53.1099 41.9781 52.8115 41.5545 52.8115Z" fill="#C5CCDE"/>
<path d="M51.6617 55.1375C51.0564 55.1375 50.5722 54.6601 50.5722 54.0634V52.9297C49.6643 52.87 48.817 52.6313 48.0907 52.333C47.5459 52.0943 47.3038 51.4976 47.4854 50.9009C47.667 50.4235 48.0906 50.1251 48.5749 50.1251C48.7564 50.1251 48.8775 50.1848 49.0591 50.2445C49.5433 50.4832 50.3301 50.7219 51.2985 50.7219C52.6301 50.7219 53.538 50.0058 53.538 48.9914C53.538 48.0367 52.8722 47.44 51.2985 46.7836C49.3012 46.0079 47.4854 44.9935 47.4854 42.726C47.4854 40.8762 48.7564 39.3844 50.7538 38.9667V37.7733C50.7538 37.1766 51.238 36.6992 51.8432 36.6992C52.4485 36.6992 52.9327 37.1766 52.9327 37.7733V38.8474C53.659 38.907 54.2643 39.0264 54.8695 39.2651C55.4143 39.5037 55.7169 40.1601 55.4748 40.6972C55.2932 41.1149 54.8695 41.4132 54.3853 41.4132C54.2037 41.4132 54.0827 41.4132 53.9616 41.3535C53.3564 41.1149 52.7511 40.9955 52.0853 40.9955C50.6327 40.9955 50.1485 41.7712 50.1485 42.4873C50.1485 43.3227 50.6933 43.8 52.6301 44.5758C55.1722 45.5902 56.2616 46.9029 56.2616 48.8721C56.2616 50.8412 54.8695 52.3926 52.8117 52.8103V54.0634C52.7511 54.6601 52.2669 55.1375 51.6617 55.1375Z" fill="#C5CCDE"/>
<defs>
<filter id="filter0_d_3191:23619" x="0.1875" y="0.964844" width="83.0977" height="95.9736" filterUnits="userSpaceOnUse" color-interpolation-filters="sRGB">
<feFlood flood-opacity="0" result="BackgroundImageFix"/>
<feColorMatrix in="SourceAlpha" type="matrix" values="0 0 0 0 0 0 0 0 0 0 0 0 0 0 0 0 0 0 127 0" result="hardAlpha"/>
<feOffset dy="11"/>
<feGaussianBlur stdDeviation="11"/>
<feColorMatrix type="matrix" values="0 0 0 0 0.397708 0 0 0 0 0.47749 0 0 0 0 0.575 0 0 0 0.18 0"/>
<feBlend mode="normal" in2="BackgroundImageFix" result="effect1_dropShadow_3191:23619"/>
<feBlend mode="normal" in="SourceGraphic" in2="effect1_dropShadow_3191:23619" result="shape"/>
</filter>
<linearGradient id="paint0_linear_3191:23619" x1="13.8719" y1="60.7963" x2="15.9911" y2="60.7963" gradientUnits="userSpaceOnUse">
<stop stop-color="#FF66A9"/>
<stop offset="1" stop-color="#F53689"/>
</linearGradient>
</defs>
</svg>
