<svg width="24" height="24" viewBox="0 0 24 24" fill="none" xmlns="http://www.w3.org/2000/svg">
<path fill-rule="evenodd" clip-rule="evenodd" d="M12.0008 23.1998C18.1864 23.1998 23.2008 18.1854 23.2008 11.9998C23.2008 5.81422 18.1864 0.799805 12.0008 0.799805C5.81519 0.799805 0.800781 5.81422 0.800781 11.9998C0.800781 18.1854 5.81519 23.1998 12.0008 23.1998Z" stroke="#4B5563" stroke-width="1.5" stroke-linecap="round"/>
<path d="M12.75 8.25V7.75C12.75 7.33579 12.4142 7 12 7C11.5858 7 11.25 7.33579 11.25 7.75V8.25C11.25 8.66421 11.5858 9 12 9C12.4142 9 12.75 8.66421 12.75 8.25Z" fill="#4B5563"/>
<path d="M12.75 16.25V10.55C12.75 10.1358 12.4142 9.8 12 9.8C11.5858 9.8 11.25 10.1358 11.25 10.55V16.25C11.25 16.6642 11.5858 17 12 17C12.4142 17 12.75 16.6642 12.75 16.25Z" fill="#4B5563"/>
</svg>
