<svg width="18" height="18" viewBox="0 0 18 18" fill="none" xmlns="http://www.w3.org/2000/svg">
<g opacity="0.5">
<path fill-rule="evenodd" clip-rule="evenodd" d="M9 16C12.866 16 16 12.866 16 9C16 5.13401 12.866 2 9 2C5.13401 2 2 5.13401 2 9C2 12.866 5.13401 16 9 16Z" stroke="#4B5563" stroke-linecap="round"/>
<path d="M9.5625 6.1875V5.8125C9.5625 5.50184 9.31066 5.25 9 5.25C8.68934 5.25 8.4375 5.50184 8.4375 5.8125V6.1875C8.4375 6.49816 8.68934 6.75 9 6.75C9.31066 6.75 9.5625 6.49816 9.5625 6.1875Z" fill="#4B5563"/>
<path d="M9.5625 12.1875V7.9125C9.5625 7.60184 9.31066 7.35 9 7.35C8.68934 7.35 8.4375 7.60184 8.4375 7.9125V12.1875C8.4375 12.4982 8.68934 12.75 9 12.75C9.31066 12.75 9.5625 12.4982 9.5625 12.1875Z" fill="#4B5563"/>
</g>
</svg>
