<svg width="18" height="20" viewBox="0 0 18 20" fill="none" xmlns="http://www.w3.org/2000/svg">
<path d="M16.6268 8.95414C16.7408 9.48482 16.8008 10.0355 16.8008 10.6003C16.8008 14.9081 13.3086 18.4003 9.00078 18.4003V18.4003C4.69296 18.4003 1.20078 14.9081 1.20078 10.6003C1.20078 6.29247 4.69296 2.80029 9.00078 2.80029" stroke="#3579FC" stroke-width="1.5" stroke-linecap="round"/>
<path fill-rule="evenodd" clip-rule="evenodd" d="M10.2023 4.00034C9.5396 4.00034 9.00234 3.46308 9.00234 2.80034C9.00234 2.1376 9.5396 1.60034 10.2023 1.60034C10.8651 1.60034 11.4023 2.1376 11.4023 2.80034C11.4023 3.46308 10.8651 4.00034 10.2023 4.00034Z" stroke="#3579FC" stroke-width="1.5" stroke-linecap="round"/>
<path fill-rule="evenodd" clip-rule="evenodd" d="M15.3892 4.21286C15.2609 4.08452 15.0559 4.07494 14.9162 4.19074L8.22386 9.73581C7.7278 10.1468 7.65886 10.8822 8.06988 11.3782C8.09307 11.4062 8.11756 11.4331 8.14327 11.4588C8.59879 11.9143 9.33734 11.9143 9.79286 11.4588C9.81857 11.4331 9.84306 11.4062 9.86625 11.3782L15.4113 4.68588C15.5271 4.54612 15.5175 4.3412 15.3892 4.21286Z" fill="#3579FC"/>
</svg>
