<svg width="120" height="114" viewBox="0 0 120 114" fill="none" xmlns="http://www.w3.org/2000/svg">
<path d="M56.8798 104.414C82.6003 104.414 103.451 83.1864 103.451 57.0004C103.451 30.8144 82.6003 9.58643 56.8798 9.58643C31.1592 9.58643 10.3086 30.8144 10.3086 57.0004C10.3086 83.1864 31.1592 104.414 56.8798 104.414Z" fill="#EAEEF9"/>
<path d="M56.8799 79.6097C69.145 79.6097 79.0878 69.4869 79.0878 56.9998C79.0878 44.5127 69.145 34.3899 56.8799 34.3899C44.6147 34.3899 34.6719 44.5127 34.6719 56.9998C34.6719 69.4869 44.6147 79.6097 56.8799 79.6097Z" fill="white"/>
<path d="M56.8796 113C87.2578 113 111.884 87.9279 111.884 57C111.884 26.0721 87.2578 1 56.8796 1C26.5014 1 1.875 26.0721 1.875 57C1.875 87.9279 26.5014 113 56.8796 113Z" stroke="#EAEEF9" stroke-width="2" stroke-miterlimit="10" stroke-linecap="round" stroke-linejoin="round" stroke-dasharray="1 6"/>
<path d="M26.2229 19.1853C27.4533 18.7782 28.1265 17.4326 27.7266 16.18C27.3267 14.9273 26.0051 14.2419 24.7747 14.649C23.5443 15.0562 22.8711 16.4017 23.271 17.6544C23.6709 18.907 24.9925 19.5925 26.2229 19.1853Z" fill="#EAEEF9"/>
<path d="M31.3083 11.3126C32.145 11.0358 32.6028 10.1208 32.3308 9.26898C32.0589 8.41718 31.1602 7.95109 30.3235 8.22795C29.4868 8.50481 29.029 9.41978 29.301 10.2716C29.5729 11.1234 30.4716 11.5895 31.3083 11.3126Z" fill="#EAEEF9"/>
<path d="M117.159 43.4472C118.611 42.0966 118.712 39.8035 117.386 38.3255C116.059 36.8475 113.807 36.7443 112.355 38.095C110.903 39.4456 110.802 41.7387 112.129 43.2167C113.455 44.6946 115.708 44.7979 117.159 43.4472Z" fill="#EAEEF9"/>
<path d="M117.423 27.3288C118.034 26.7602 118.076 25.7947 117.518 25.1723C116.959 24.55 116.011 24.5066 115.4 25.0753C114.788 25.644 114.746 26.6095 115.304 27.2318C115.863 27.8541 116.811 27.8975 117.423 27.3288Z" fill="#EAEEF9"/>
<path d="M71.6868 8.25056C72.5148 8.25056 73.186 7.56717 73.186 6.72416C73.186 5.88115 72.5148 5.19775 71.6868 5.19775C70.8587 5.19775 70.1875 5.88115 70.1875 6.72416C70.1875 7.56717 70.8587 8.25056 71.6868 8.25056Z" fill="url(#paint0_linear_2997:20435)"/>
<path d="M15.2747 101.361C16.1027 101.361 16.7739 100.678 16.7739 99.8348C16.7739 98.9917 16.1027 98.3083 15.2747 98.3083C14.4466 98.3083 13.7754 98.9917 13.7754 99.8348C13.7754 100.678 14.4466 101.361 15.2747 101.361Z" fill="url(#paint1_linear_2997:20435)"/>
<path d="M118.895 55.7349C119.506 55.1662 119.549 54.2007 118.991 53.5784C118.432 52.956 117.484 52.9126 116.872 53.4813C116.261 54.05 116.218 55.0155 116.777 55.6378C117.336 56.2601 118.284 56.3036 118.895 55.7349Z" fill="#32D697"/>
<path d="M75.6315 60.9206C75.5378 61.3976 75.4441 61.7791 75.3504 62.2561C75.2567 62.6377 75.1631 63.0195 74.9757 63.4011C74.7883 63.9735 74.6009 64.5461 74.3198 65.0231C74.2261 65.3093 74.0385 65.5954 73.9448 65.8816C73.4763 66.8356 72.8203 67.7895 72.2581 68.6481C71.977 69.0297 71.696 69.316 71.5086 69.6976C69.9157 71.6056 67.854 73.2273 65.6988 74.3721C65.324 74.5629 64.8556 74.7538 64.4808 74.9446C63.7312 75.2308 63.0752 75.5168 62.3255 75.7076C61.9507 75.803 61.4822 75.8987 61.1073 75.9941C58.5773 76.5665 55.86 76.5665 53.2362 75.9941C42.9287 73.7999 36.2757 63.4965 38.4309 52.907C40.5861 42.413 50.7061 35.6398 61.1073 37.834C64.7618 38.5972 68.1352 40.4094 70.759 43.176C74.9757 47.8506 76.9434 54.5288 75.6315 60.9206Z" fill="url(#paint2_linear_2997:20435)"/>
<path d="M73.8521 47.946C73.7584 47.7552 73.6645 47.5647 73.4771 47.2785C72.6338 45.7521 71.603 44.4162 70.3848 43.176C67.7611 40.5048 64.3879 38.6926 60.7334 37.834C50.4259 35.6398 40.212 42.413 38.0568 52.907C36.6512 59.8713 38.9939 66.6448 43.7728 71.1286C46.2091 73.4182 49.3013 75.1354 52.8621 75.8986C55.5796 76.471 58.2034 76.471 60.7334 75.8986C61.1083 75.8032 61.5766 75.7075 61.9514 75.6121C62.7011 75.4213 63.4507 75.1353 64.1067 74.8491C64.5752 74.6583 64.9501 74.4674 65.3249 74.2766C67.5738 73.1318 69.5415 71.6055 71.1345 69.6021C71.4156 69.3159 71.6968 68.9342 71.8842 68.5526C72.5401 67.694 73.1024 66.7401 73.5709 65.7861C73.6646 65.4999 73.8519 65.2138 73.9456 64.9276C74.2268 64.3552 74.4141 63.878 74.6015 63.3056C74.6952 63.0194 74.789 62.8288 74.8827 62.5426C74.8827 62.4472 74.9765 62.3519 74.9765 62.1611C75.0702 61.6841 75.1639 61.3021 75.2576 60.8251C76.5695 56.4367 75.9136 51.8574 73.8521 47.946ZM70.9471 63.4966C70.8534 63.6874 70.7597 63.9733 70.666 64.1641C70.2912 64.9273 69.8226 65.6909 69.2604 66.4541C69.073 66.7403 68.8856 67.0264 68.6045 67.3126C67.2927 68.839 65.6997 70.1745 63.9193 71.0331C63.6382 71.2239 63.2633 71.3193 62.8885 71.5101C62.3262 71.7963 61.7641 71.9872 61.1082 72.0826C58.7656 72.7504 56.2356 72.941 53.7056 72.3686C45.3659 70.556 40.0247 62.2562 41.7114 53.7655C43.3981 45.2749 51.6441 39.8373 59.9838 41.5545C62.8886 42.2223 65.6061 43.6533 67.7613 45.8475C68.9794 47.0877 70.0101 48.5186 70.7598 50.045C70.8535 50.2358 70.9472 50.5222 71.0409 50.713C72.2591 53.575 72.6338 56.7229 72.0716 59.8711C72.0716 59.9665 72.0717 60.0622 71.978 60.1576C71.978 60.253 71.8842 60.4437 71.8842 60.5391C71.6968 61.5885 71.4157 62.5426 70.9471 63.4966Z" fill="url(#paint3_linear_2997:20435)"/>
<path d="M59.9834 42.1289C61.1078 42.3197 62.1385 42.7009 63.1693 43.1779C63.3567 43.2733 63.6377 43.369 63.8251 43.4644C64.5748 43.846 65.3245 44.3229 65.9804 44.7999C66.2615 44.9907 66.5427 45.1817 66.7301 45.4679C68.2293 46.8035 69.4475 48.3298 70.2909 50.1424C70.4783 50.4286 70.572 50.8102 70.7594 51.0964C70.9468 51.6688 71.2278 52.2411 71.3215 52.8135C71.9774 55.1031 72.0712 57.5836 71.6027 60.064C69.916 68.2684 62.0448 73.5153 53.9862 71.8935C45.9276 70.1763 40.7739 62.1629 42.3669 53.9584C42.9291 51.0964 44.3347 48.4252 46.3962 46.3264C49.8633 42.6058 55.017 41.0795 59.9834 42.1289Z" stroke="url(#paint4_linear_2997:20435)" stroke-width="2" stroke-miterlimit="10"/>
<path d="M75.3391 62.247C75.2454 62.6286 75.1517 63.0103 74.9643 63.3919C74.7769 63.9643 74.5895 64.5367 74.3084 65.0137C74.2147 65.2999 74.0273 65.5861 73.9335 65.8723C73.465 66.8263 72.8091 67.7803 72.2469 68.6389C71.9657 69.0205 71.6846 69.3067 71.4972 69.6883C69.9043 71.5963 67.8427 73.2181 65.6875 74.3629C65.3127 74.5537 64.8442 74.7445 64.4694 74.9353C63.7198 75.2215 63.0638 75.5077 62.3142 75.6985C61.9394 75.7939 61.4708 75.8893 61.096 75.9847L49.6641 64.5367L53.4122 61.4838L53.8808 60.4344L53.9745 58.3356C53.9745 58.3356 53.7871 50.6082 53.5997 50.4174C53.506 50.322 55.1926 45.9336 55.1926 45.9336L57.2541 49.1772L58.6597 45.9336L75.3391 62.247Z" fill="url(#paint5_linear_2997:20435)"/>
<path d="M55.1923 68.4481C54.4427 68.4481 53.7867 68.4481 53.0371 68.4481C53.0371 67.3033 53.0371 66.0631 53.0371 64.9183C51.7252 64.7275 50.4134 64.8229 49.0078 64.8229C49.2889 63.2011 49.2889 63.0103 49.3826 62.5333C49.3826 62.4378 49.4763 62.3425 49.57 62.3425C49.9449 62.3425 50.4134 62.3425 50.7882 62.3425C51.4441 62.3425 51.5378 62.1516 51.5378 61.5792C51.5378 58.7172 51.5378 55.7598 51.5378 52.8978C51.5378 52.0392 50.9756 51.753 50.4134 51.753C49.9449 51.753 49.4763 51.753 49.0078 51.753C49.0078 51.0852 49.0078 50.322 49.0078 49.6542C49.7574 49.6542 51.2567 49.6542 52.6623 49.6542C52.9434 49.6542 52.9434 49.6542 52.9434 49.368C52.9434 48.6048 52.9434 46.6968 52.9434 45.9336C53.693 45.9336 54.349 45.9336 55.0986 45.9336C55.0986 47.0784 55.0986 48.3186 55.0986 49.4634C55.6608 49.4634 56.1294 49.4634 56.6916 49.4634C56.6916 48.2232 56.6916 47.0784 56.6916 45.9336C57.3475 45.9336 58.0034 45.9336 58.6594 45.9336C58.6594 46.3152 58.6594 49.1772 58.6594 49.368C58.6594 49.5588 58.6594 49.5588 58.8468 49.5588C61.2831 49.845 63.2509 50.6082 63.4383 53.0886C63.532 53.9472 63.4383 54.7104 62.8761 55.4736C62.5013 55.9506 62.1264 56.2368 61.7516 56.4276C62.3139 56.6184 63.9068 57 64.4691 58.7172C64.6565 59.385 64.6565 60.0528 64.5628 60.7206C64.4691 61.4838 64.1879 62.1516 63.8131 62.724C63.3446 63.4873 62.595 63.8689 61.8453 64.2505C60.9083 64.6321 59.8775 64.8229 58.8468 64.8229C58.6594 64.8229 58.6594 64.9183 58.6594 65.0137C58.6594 66.0631 58.6594 67.0171 58.6594 68.3527C58.0034 68.3527 57.3475 68.3527 56.6916 68.3527C56.6916 67.2079 56.6916 66.0631 56.6916 64.8229C56.1294 64.8229 55.6608 64.8229 55.0986 64.8229C55.1923 66.1585 55.1923 67.3033 55.1923 68.4481ZM55.1923 58.0494C55.1923 59.4804 55.1923 61.0068 55.1923 62.5333C57.3475 62.4378 58.472 62.5333 59.6901 61.9608C60.2524 61.6746 60.6272 61.1976 60.7209 60.4344C60.8146 59.6712 60.4398 59.0988 59.8775 58.7172C58.5657 57.954 56.5042 57.954 55.1923 58.0494ZM55.1923 51.9438C55.1923 53.2794 55.1923 54.615 55.1923 55.9506C55.9419 56.046 57.5349 55.9506 58.2846 55.7598C60.4398 55.1874 60.065 52.8978 58.8468 52.4208C57.4412 51.8484 56.2231 51.9438 55.1923 51.9438Z" fill="url(#paint6_linear_2997:20435)"/>
<path d="M62.7826 38.4924C61.2833 37.92 58.9407 37.5384 56.7855 37.5384C53.6933 37.5384 50.8821 38.3016 48.2584 39.5418C44.6039 36.2028 44.3228 35.9166 43.5732 35.4396C41.9802 34.4856 40.9495 34.581 36.1705 34.2948C35.5146 34.2948 34.8587 34.6764 34.6712 35.3442C33.0783 40.9728 32.2349 42.213 34.2027 42.9762C44.6976 47.4601 44.6039 47.2693 45.8221 48.4141C45.9158 48.5095 46.478 49.1773 46.478 49.1773C49.008 52.7071 46.9465 58.0495 43.3858 56.8093C14.5248 46.7923 20.4282 50.4175 10.4955 39.1602C9.55842 38.1108 10.3081 37.92 10.1206 21.4158C10.1206 20.3664 8.24656 19.4124 9.37101 19.4124H40.762C43.1047 19.4124 45.3536 20.3664 47.0402 22.0836L62.7826 38.4924Z" fill="#C7CEDD"/>
<path d="M88.3634 96.0191L69.9973 102.411C56.3164 107.181 60.252 107.181 46.6648 102.506C40.8552 100.503 44.0411 102.316 26.7995 88.7687C25.3939 87.8147 24.6443 86.7653 24.2694 85.1435C24.2694 85.1435 24.2694 84.9527 24.1757 84.8573C24.082 84.8573 24.082 83.7125 24.082 83.7125C24.082 79.3241 28.7673 76.1759 33.0777 78.7517C33.0777 78.7517 33.2651 78.9425 33.3588 78.9425C52.0997 90.6767 47.2271 87.3377 50.9752 91.2491C52.006 92.2985 53.4116 92.8709 55.0982 92.8709L61.2827 92.3939C61.4702 92.3939 61.5639 92.2031 61.5639 92.0123C61.5639 91.8215 61.3765 91.7261 61.189 91.7261H55.2857C51.8186 91.7261 49.476 88.6733 49.476 86.1929C49.2886 82.8539 51.8186 79.8965 55.2857 79.8965L87.7074 81.7091C88.6445 81.8045 86.8641 82.3769 86.8641 83.3309C86.9578 86.9561 86.8641 85.0481 87.1452 93.3479C87.52 95.1605 89.9564 95.4467 88.3634 96.0191Z" fill="#C7CEDD"/>
<path d="M10.3075 17.6954V38.4927C10.3075 38.5881 10.3075 38.6835 10.3075 38.7789C10.1201 39.6375 9.37046 40.3053 8.52712 40.3053H1.9678C0.843341 40.3053 0 39.3513 0 38.3019V17.8862C0 16.7414 0.937046 15.8828 1.9678 15.8828H8.52712C9.46416 15.8828 10.3075 16.7414 10.3075 17.6954Z" fill="#9BA8B8"/>
<path d="M5.05973 37.5387C5.99126 37.5387 6.74641 36.7698 6.74641 35.8215C6.74641 34.8731 5.99126 34.1042 5.05973 34.1042C4.1282 34.1042 3.37305 34.8731 3.37305 35.8215C3.37305 36.7698 4.1282 37.5387 5.05973 37.5387Z" fill="#EAEEF9"/>
<path d="M95.3904 76.5574H88.8311C87.7066 76.5574 86.8633 77.5114 86.8633 78.5608V98.9765C86.8633 100.121 87.8003 100.98 88.8311 100.98H95.3904C96.4211 100.98 97.1708 100.121 97.1708 99.1673V78.4654C97.1708 77.416 96.4211 76.5574 95.3904 76.5574Z" fill="#9BA8B8"/>
<path d="M92.0187 82.8534C92.9502 82.8534 93.7054 82.0845 93.7054 81.1362C93.7054 80.1878 92.9502 79.4189 92.0187 79.4189C91.0872 79.4189 90.332 80.1878 90.332 81.1362C90.332 82.0845 91.0872 82.8534 92.0187 82.8534Z" fill="#EAEEF9"/>
<defs>
<linearGradient id="paint0_linear_2997:20435" x1="70.2448" y1="6.76184" x2="73.1536" y2="6.76184" gradientUnits="userSpaceOnUse">
<stop offset="0.00289017" stop-color="#FFD44F"/>
<stop offset="1" stop-color="#FFA607"/>
</linearGradient>
<linearGradient id="paint1_linear_2997:20435" x1="13.8458" y1="99.8171" x2="16.7545" y2="99.8171" gradientUnits="userSpaceOnUse">
<stop offset="0.00289017" stop-color="#FFD44F"/>
<stop offset="1" stop-color="#FFA607"/>
</linearGradient>
<linearGradient id="paint2_linear_2997:20435" x1="37.7663" y1="56.958" x2="76.0585" y2="56.958" gradientUnits="userSpaceOnUse">
<stop offset="0.00289017" stop-color="#FFD44F"/>
<stop offset="1" stop-color="#FFA607"/>
</linearGradient>
<linearGradient id="paint3_linear_2997:20435" x1="59.6672" y1="34.123" x2="54.2499" y2="77.4609" gradientUnits="userSpaceOnUse">
<stop offset="0.00289017" stop-color="#FFD44F"/>
<stop offset="1" stop-color="#FFA607"/>
</linearGradient>
<linearGradient id="paint4_linear_2997:20435" x1="56.9126" y1="73.1089" x2="56.9126" y2="40.8119" gradientUnits="userSpaceOnUse">
<stop offset="0.00289017" stop-color="#FFD44F"/>
<stop offset="1" stop-color="#FF9807"/>
</linearGradient>
<linearGradient id="paint5_linear_2997:20435" x1="55.6304" y1="56.5235" x2="64.9442" y2="65.6718" gradientUnits="userSpaceOnUse">
<stop stop-color="#FAA404"/>
<stop offset="1" stop-color="#FF7904" stop-opacity="0"/>
</linearGradient>
<linearGradient id="paint6_linear_2997:20435" x1="63.9488" y1="68.3419" x2="49.8993" y2="51.0109" gradientUnits="userSpaceOnUse">
<stop stop-color="#FFE491"/>
<stop offset="1" stop-color="white"/>
</linearGradient>
</defs>
</svg>
