<svg width="166" height="35" viewBox="0 0 166 35" fill="none" xmlns="http://www.w3.org/2000/svg">
<path d="M7.84359 7.13373H6.50223C6.2867 7.13373 6.09359 6.99975 6.03389 6.7926C5.89912 6.32501 5.73484 5.53996 6.14349 5.519C6.72645 5.4891 8.02689 5.4562 8.565 5.56385C9.23764 5.69841 9.41701 5.87783 9.59638 6.01239C9.77575 6.14695 10.1793 6.68519 10.4035 7.08887C10.6278 7.49255 10.8071 8.25506 10.8968 8.7036C10.9865 9.15213 10.8071 9.51096 10.269 9.69038C9.96007 9.79338 9.67884 9.60993 9.49494 9.41524C9.36911 9.28202 9.29821 9.1093 9.23972 8.93562C9.11905 8.57732 8.94576 8.06893 8.83405 7.76168C8.7722 7.59153 8.68035 7.45973 8.58508 7.36123C8.3974 7.1672 8.1135 7.13373 7.84359 7.13373Z" fill="#3E7FFC"/>
<path d="M12.0587 29.8588H10.7173H8.34065C8.34065 29.8588 7.75767 31.3988 8.34063 31.4287C8.92358 31.4586 12.242 31.5363 12.7801 31.4287C13.4527 31.2941 13.6321 31.1147 13.8115 30.9801C13.9908 30.8456 14.3944 30.3073 14.6186 29.9037C14.8428 29.5 15.067 29.2461 15.1567 28.7975C15.2464 28.349 15.2464 28.035 14.7083 27.8556C14.2778 27.7121 13.9011 27.8556 13.7666 28.0799C13.5872 28.3789 13.2733 28.8873 13.0491 29.2309C12.9545 29.3759 12.8617 29.5004 12.7759 29.5999C12.5995 29.8042 12.3286 29.8588 12.0587 29.8588Z" fill="#3E7FFC"/>
<path d="M31.6692 23.0132H33.5427C33.6913 23.0132 33.8118 23.1337 33.8118 23.2823V24.2692C33.8118 24.4426 33.6713 24.5832 33.4979 24.5832H31.5205C31.3742 24.5832 31.2239 24.5771 31.0953 24.5073C30.8631 24.3812 30.6182 24.1132 30.6728 23.7309C30.6868 23.6324 30.7063 23.5472 30.7294 23.4735C30.8461 23.1014 31.2793 23.0132 31.6692 23.0132Z" fill="#3E7FFC"/>
<path d="M29.152 4.13826H30.4934H32.87C32.87 4.13826 33.453 2.59829 32.8701 2.56839C32.2871 2.53849 28.9687 2.46074 28.4306 2.56839C27.758 2.70295 27.5786 2.88236 27.3992 3.01692C27.2199 3.15148 26.8163 3.68973 26.5921 4.09341C26.3679 4.49709 26.1437 4.75099 26.054 5.19952C25.9643 5.64806 25.9643 5.96203 26.5024 6.14144C26.9329 6.28498 27.3096 6.14144 27.4441 5.91718C27.6235 5.61815 27.9374 5.10981 28.1616 4.76621C28.2562 4.62122 28.349 4.49667 28.4348 4.39722C28.6112 4.19287 28.8821 4.13826 29.152 4.13826Z" fill="#3E7FFC"/>
<path fill-rule="evenodd" clip-rule="evenodd" d="M3.31824 8.25414C4.40794 8.25414 5.29132 7.37055 5.29132 6.28059C5.29132 5.19062 4.40794 4.30703 3.31824 4.30703C2.22854 4.30703 1.34516 5.19062 1.34516 6.28059C1.34516 7.37055 2.22854 8.25414 3.31824 8.25414ZM3.31824 9.59975C5.15092 9.59975 6.6366 8.11371 6.6366 6.28059C6.6366 4.44746 5.15092 2.96143 3.31824 2.96143C1.48556 2.96143 -0.00012207 4.44746 -0.00012207 6.28059C-0.00012207 8.11371 1.48556 9.59975 3.31824 9.59975Z" fill="#3E7FFC"/>
<path fill-rule="evenodd" clip-rule="evenodd" d="M35.0688 5.29418C36.1586 5.29418 37.0419 4.41059 37.0419 3.32063C37.0419 2.23066 36.1586 1.34707 35.0688 1.34707C33.9791 1.34707 33.0958 2.23066 33.0958 3.32063C33.0958 4.41059 33.9791 5.29418 35.0688 5.29418ZM35.0688 6.63979C36.9015 6.63979 38.3872 5.15375 38.3872 3.32063C38.3872 1.4875 36.9015 0.00146484 35.0688 0.00146484C33.2362 0.00146484 31.7505 1.4875 31.7505 3.32063C31.7505 5.15375 33.2362 6.63979 35.0688 6.63979Z" fill="#3E7FFC"/>
<path fill-rule="evenodd" clip-rule="evenodd" d="M36.6813 25.6594C37.771 25.6594 38.6544 24.7758 38.6544 23.6859C38.6544 22.5959 37.771 21.7123 36.6813 21.7123C35.5916 21.7123 34.7082 22.5959 34.7082 23.6859C34.7082 24.7758 35.5916 25.6594 36.6813 25.6594ZM36.6813 27.005C38.514 27.005 39.9996 25.519 39.9996 23.6859C39.9996 21.8527 38.514 20.3667 36.6813 20.3667C34.8486 20.3667 33.3629 21.8527 33.3629 23.6859C33.3629 25.519 34.8486 27.005 36.6813 27.005Z" fill="#3E7FFC"/>
<path fill-rule="evenodd" clip-rule="evenodd" d="M5.8302 32.6555C6.9199 32.6555 7.80328 31.7719 7.80328 30.682C7.80328 29.592 6.9199 28.7084 5.8302 28.7084C4.7405 28.7084 3.85712 29.592 3.85712 30.682C3.85712 31.7719 4.7405 32.6555 5.8302 32.6555ZM5.8302 34.0011C7.66288 34.0011 9.14856 32.5151 9.14856 30.682C9.14856 28.8488 7.66288 27.3628 5.8302 27.3628C3.99752 27.3628 2.51184 28.8488 2.51184 30.682C2.51184 32.5151 3.99752 34.0011 5.8302 34.0011Z" fill="#3E7FFC"/>
<path fill-rule="evenodd" clip-rule="evenodd" d="M19.9568 26.824C25.4796 26.824 29.9567 22.3458 29.9567 16.8216C29.9567 11.2975 25.4796 6.81932 19.9568 6.81932C14.434 6.81932 9.95687 11.2975 9.95687 16.8216C9.95687 22.3458 14.434 26.824 19.9568 26.824ZM19.9568 28.4387C26.3712 28.4387 31.5711 23.2376 31.5711 16.8216C31.5711 10.4057 26.3712 5.20459 19.9568 5.20459C13.5424 5.20459 8.34253 10.4057 8.34253 16.8216C8.34253 23.2376 13.5424 28.4387 19.9568 28.4387Z" fill="#3E7FFC"/>
<path fill-rule="evenodd" clip-rule="evenodd" d="M30.9177 20.2455C21.9014 25.8289 12.4916 22.5714 8.88818 20.2366L9.76586 18.8814C13.0581 21.0145 21.7685 24.012 30.0679 18.8726L30.9177 20.2455Z" fill="#3E7FFC"/>
<path fill-rule="evenodd" clip-rule="evenodd" d="M30.9177 20.2455C21.9014 25.8289 12.4916 22.5714 8.88818 20.2366L9.76586 18.8814C13.0581 21.0145 21.7685 24.012 30.0679 18.8726L30.9177 20.2455Z" fill="#3E7FFC"/>
<path fill-rule="evenodd" clip-rule="evenodd" d="M30.9177 20.2455C21.9014 25.8289 12.4916 22.5714 8.88818 20.2366L9.76586 18.8814C13.0581 21.0145 21.7685 24.012 30.0679 18.8726L30.9177 20.2455Z" fill="#3E7FFC"/>
<path fill-rule="evenodd" clip-rule="evenodd" d="M30.9177 13.4C21.9014 7.81662 12.4916 11.0741 8.88818 13.4089L9.76586 14.7641C13.0581 12.631 21.7685 9.63348 30.0679 14.7729L30.9177 13.4Z" fill="#3E7FFC"/>
<path fill-rule="evenodd" clip-rule="evenodd" d="M30.9177 13.4C21.9014 7.81662 12.4916 11.0741 8.88818 13.4089L9.76586 14.7641C13.0581 12.631 21.7685 9.63348 30.0679 14.7729L30.9177 13.4Z" fill="#3E7FFC"/>
<path fill-rule="evenodd" clip-rule="evenodd" d="M30.9177 13.4C21.9014 7.81662 12.4916 11.0741 8.88818 13.4089L9.76586 14.7641C13.0581 12.631 21.7685 9.63348 30.0679 14.7729L30.9177 13.4Z" fill="#3E7FFC"/>
<path fill-rule="evenodd" clip-rule="evenodd" d="M19.6864 18.5727C21.3457 18.5727 22.6909 17.2272 22.6909 15.5675C22.6909 13.9078 21.3457 12.5623 19.6864 12.5623C18.0271 12.5623 16.6819 13.9078 16.6819 15.5675C16.6819 17.2272 18.0271 18.5727 19.6864 18.5727ZM19.6864 19.6492C21.9401 19.6492 23.7671 17.8218 23.7671 15.5675C23.7671 13.3133 21.9401 11.4858 19.6864 11.4858C17.4327 11.4858 15.6057 13.3133 15.6057 15.5675C15.6057 17.8218 17.4327 19.6492 19.6864 19.6492Z" fill="#3E7FFC"/>
<path d="M21.57 20.3205C22.7807 19.5131 22.5864 18.7057 22.691 18.1675L22.8787 16.4152C22.9257 15.9769 23.2825 15.6367 23.7224 15.6108L23.8121 18.7954C23.7673 19.2888 23.4713 20.4281 21.9287 21.3969C20.9619 22.0041 20.3204 22.1145 19.9357 22.0461C19.6086 21.9879 19.5072 21.6248 19.5072 21.2925C19.5072 21.1704 19.5921 21.0649 19.7107 21.0358C20.1134 20.937 21.0208 20.6867 21.57 20.3205Z" fill="#3E7FFC"/>
<path fill-rule="evenodd" clip-rule="evenodd" d="M23.7526 15.5758C23.7616 15.584 23.7668 15.5954 23.7672 15.6076L23.8568 18.7922C23.8569 18.7939 23.8568 18.7957 23.8567 18.7975C23.8107 19.3033 23.5082 20.4558 21.9525 21.4329C20.9816 22.0427 20.3284 22.1595 19.9278 22.0882C19.7465 22.0559 19.629 21.9384 19.5582 21.7893C19.4881 21.6415 19.4623 21.4603 19.4623 21.2905C19.4623 21.1472 19.5619 21.0241 19.6999 20.9902C20.1033 20.8912 21.0032 20.6424 21.545 20.2811C22.1428 19.8825 22.39 19.4868 22.5024 19.1276C22.559 18.947 22.582 18.7741 22.5973 18.6112C22.6011 18.5706 22.6044 18.5303 22.6077 18.4906C22.6175 18.3735 22.6268 18.2611 22.6466 18.1588L22.8341 16.4084C22.8834 15.9483 23.2579 15.5912 23.7197 15.564C23.7318 15.5633 23.7437 15.5676 23.7526 15.5758ZM23.6789 15.6575C23.2822 15.7023 22.9662 16.0169 22.9232 16.4179L22.7355 18.1702C22.7354 18.1715 22.7352 18.1728 22.735 18.174C22.716 18.2716 22.7072 18.3776 22.6975 18.4939C22.6941 18.5345 22.6906 18.5764 22.6866 18.6196C22.671 18.7847 22.6473 18.965 22.588 19.1544C22.4688 19.5353 22.2077 19.947 21.5948 20.3558C21.0382 20.7269 20.1234 20.9787 19.7213 21.0773C19.6222 21.1016 19.552 21.1896 19.552 21.2905C19.552 21.453 19.5769 21.6195 19.6392 21.7508C19.7009 21.8808 19.7977 21.9739 19.9435 21.9999C20.3123 22.0655 20.9421 21.9616 21.9048 21.3569C23.4315 20.3981 23.7226 19.2745 23.7671 18.792L23.6789 15.6575Z" fill="#3E7FFC"/>
<path fill-rule="evenodd" clip-rule="evenodd" d="M16.7599 5.76745C11.1778 14.7859 14.4345 24.198 16.7687 27.8022L18.1236 26.9244C15.991 23.6313 12.9942 14.9188 18.1324 6.61743L16.7599 5.76745Z" fill="#3E7FFC"/>
<path fill-rule="evenodd" clip-rule="evenodd" d="M16.7599 5.76745C11.1778 14.7859 14.4345 24.198 16.7687 27.8022L18.1236 26.9244C15.991 23.6313 12.9942 14.9188 18.1324 6.61743L16.7599 5.76745Z" fill="#3E7FFC"/>
<path fill-rule="evenodd" clip-rule="evenodd" d="M16.7599 5.76745C11.1778 14.7859 14.4345 24.198 16.7687 27.8022L18.1236 26.9244C15.991 23.6313 12.9942 14.9188 18.1324 6.61743L16.7599 5.76745Z" fill="#3E7FFC"/>
<path d="M24.1264 12.7397C23.8821 11.1689 22.5997 8.33907 21.9383 7.01625C21.9028 6.94513 21.8843 6.86728 21.8843 6.78777C21.8843 6.50776 22.1112 6.28076 22.3912 6.28076H22.6199C22.8857 6.28076 23.1302 6.42447 23.2719 6.64938C23.4546 6.93931 23.7118 7.32108 23.9919 7.67122C24.53 8.34402 25.6511 12.2014 25.8753 13.1433C26.0995 14.0853 25.382 14.3544 25.2923 14.3544C25.2475 14.3544 24.4403 14.7581 24.1264 12.7397Z" fill="#3E7FFC"/>
<path fill-rule="evenodd" clip-rule="evenodd" d="M21.8394 6.7877C21.8394 6.48292 22.0864 6.23584 22.3911 6.23584H22.6199C22.902 6.23584 23.1604 6.38832 23.3098 6.6254C23.4919 6.91447 23.7482 7.29474 24.0268 7.64313C24.0974 7.73135 24.1755 7.86897 24.2584 8.04137C24.3417 8.21446 24.431 8.42514 24.5233 8.66121C24.7081 9.13338 24.906 9.70903 25.0939 10.2925C25.4697 11.4594 25.8064 12.6604 25.9188 13.1329C26.0341 13.6172 25.9078 13.9351 25.7351 14.1316C25.6496 14.229 25.5539 14.2953 25.4735 14.3373C25.4333 14.3583 25.3965 14.3735 25.3663 14.3835C25.3396 14.3924 25.3145 14.3983 25.2961 14.3991C25.2952 14.3993 25.294 14.3996 25.2926 14.4C25.2913 14.4004 25.2897 14.4009 25.2878 14.4014C25.2864 14.4018 25.285 14.4022 25.2834 14.4027C25.2757 14.405 25.2654 14.408 25.2536 14.4111C25.2248 14.4187 25.1856 14.4272 25.1385 14.4306C25.0441 14.4375 24.9194 14.4236 24.7867 14.3421C24.5226 14.18 24.2395 13.7589 24.082 12.7465C23.9608 11.9667 23.5809 10.8707 23.1471 9.80179C22.7138 8.73389 22.2284 7.6968 21.8982 7.03624C21.8595 6.95894 21.8394 6.87423 21.8394 6.7877ZM25.2979 14.3987C25.2979 14.3987 25.2977 14.3987 25.2974 14.3988C25.2977 14.3987 25.2979 14.3987 25.2979 14.3987ZM22.3911 6.32555C22.1359 6.32555 21.929 6.53246 21.929 6.7877C21.929 6.8602 21.9459 6.93119 21.9784 6.99612C22.3095 7.65838 22.7959 8.69763 23.2302 9.76805C23.6642 10.8374 24.0476 11.9418 24.1706 12.7327C24.3271 13.7387 24.6045 14.125 24.8336 14.2656C24.9476 14.3356 25.0528 14.3469 25.132 14.3411C25.1719 14.3382 25.2055 14.331 25.2307 14.3244C25.2412 14.3216 25.2501 14.319 25.2578 14.3167C25.2595 14.3162 25.2611 14.3158 25.2627 14.3153C25.2669 14.3141 25.2712 14.3128 25.2751 14.3119L25.2752 14.3118C25.278 14.3112 25.2849 14.3095 25.2922 14.3095C25.2959 14.3095 25.3113 14.3072 25.3381 14.2983C25.3635 14.2899 25.3958 14.2767 25.4319 14.2578C25.5043 14.22 25.5907 14.1601 25.6678 14.0724C25.8202 13.8989 25.9405 13.6113 25.8316 13.1537C25.7198 12.6842 25.3839 11.4856 25.0085 10.32C24.8209 9.73737 24.6236 9.16365 24.4398 8.6939C24.3479 8.459 24.2596 8.25059 24.1776 8.08026C24.0954 7.90925 24.0208 7.77916 23.9568 7.69917C23.6753 7.34729 23.4171 6.96401 23.2339 6.67322C23.0999 6.46048 22.8692 6.32555 22.6199 6.32555H22.3911Z" fill="#3E7FFC"/>
<path d="M24.0364 21.023C23.7922 22.5938 22.5097 25.4236 21.8484 26.7464C21.8128 26.8176 21.7943 26.8954 21.7943 26.9749C21.7943 27.2549 22.0213 27.4819 22.3012 27.4819H22.53C22.7957 27.4819 23.0403 27.3382 23.182 27.1133C23.3646 26.8234 23.6219 26.4416 23.9019 26.0915C24.44 25.4187 25.5611 21.5613 25.7853 20.6193C26.0095 19.6774 25.292 19.4083 25.2024 19.4083C25.1575 19.4083 24.3503 19.0046 24.0364 21.023Z" fill="#3E7FFC"/>
<path fill-rule="evenodd" clip-rule="evenodd" d="M21.7484 26.9789C21.7484 27.2837 21.9954 27.5308 22.3001 27.5308H22.5289C22.8111 27.5308 23.0695 27.3783 23.2188 27.1412C23.4009 26.8521 23.6572 26.4719 23.9359 26.1235C24.0064 26.0353 24.0846 25.8976 24.1675 25.7252C24.2508 25.5521 24.34 25.3415 24.4324 25.1054C24.6171 24.6332 24.815 24.0576 25.003 23.4741C25.3787 22.3072 25.7154 21.1062 25.8279 20.6337C25.9432 20.1494 25.8169 19.8315 25.6442 19.635C25.5587 19.5376 25.4629 19.4713 25.3825 19.4293C25.3423 19.4083 25.3056 19.3931 25.2754 19.3831C25.2486 19.3742 25.2236 19.3683 25.2051 19.3675C25.2042 19.3673 25.2031 19.367 25.2017 19.3666C25.2004 19.3662 25.1987 19.3657 25.1968 19.3652C25.1955 19.3648 25.194 19.3644 25.1925 19.3639C25.1847 19.3616 25.1745 19.3586 25.1626 19.3555C25.1339 19.3479 25.0946 19.3394 25.0476 19.336C24.9531 19.3291 24.8285 19.343 24.6958 19.4245C24.4316 19.5866 24.1485 20.0077 23.9911 21.0201C23.8698 21.7999 23.4899 22.8959 23.0562 23.9648C22.6229 25.0327 22.1375 26.0698 21.8072 26.7304C21.7686 26.8077 21.7484 26.8924 21.7484 26.9789ZM25.2069 19.3679C25.2069 19.3679 25.2067 19.3679 25.2065 19.3678C25.2068 19.3679 25.2069 19.3679 25.2069 19.3679ZM22.3001 27.4411C22.045 27.4411 21.8381 27.2341 21.8381 26.9789C21.8381 26.9064 21.855 26.8354 21.8874 26.7705C22.2185 26.1082 22.705 25.069 23.1393 23.9985C23.5732 22.9292 23.9567 21.8248 24.0797 21.0339C24.2361 20.0279 24.5136 19.6416 24.7427 19.501C24.8566 19.431 24.9618 19.4197 25.0411 19.4255C25.081 19.4284 25.1146 19.4356 25.1398 19.4423C25.1503 19.445 25.1592 19.4476 25.1669 19.4499C25.1685 19.4504 25.1702 19.4508 25.1717 19.4513C25.1759 19.4525 25.1803 19.4538 25.1842 19.4547L25.1843 19.4548C25.187 19.4554 25.1939 19.4571 25.2013 19.4571C25.205 19.4571 25.2204 19.4594 25.2472 19.4683C25.2725 19.4767 25.3048 19.4899 25.341 19.5088C25.4133 19.5466 25.4998 19.6065 25.5768 19.6942C25.7292 19.8677 25.8496 20.1553 25.7406 20.6129C25.6289 21.0824 25.2929 22.281 24.9176 23.4466C24.7299 24.0292 24.5327 24.6029 24.3489 25.0727C24.257 25.3076 24.1686 25.516 24.0867 25.6863C24.0044 25.8574 23.9298 25.9874 23.8658 26.0674C23.5844 26.4193 23.3262 26.8026 23.143 27.0934C23.0089 27.3061 22.7783 27.4411 22.5289 27.4411H22.3001Z" fill="#3E7FFC"/>
<path d="M26.1864 16.9123C26.1864 17.383 25.805 17.7646 25.3344 17.7646C24.8639 17.7646 24.4824 17.383 24.4824 16.9123C24.4824 16.4416 24.8639 16.0601 25.3344 16.0601C25.805 16.0601 26.1864 16.4416 26.1864 16.9123Z" fill="#3E7FFC"/>
<path d="M67.0599 15.1995V16.3995C67.0599 18.4928 66.4065 20.1662 65.0999 21.4195C63.8065 22.6595 62.1599 23.2795 60.1599 23.2795C57.9865 23.2795 56.1799 22.5795 54.7399 21.1795C53.3132 19.7795 52.5999 18.0595 52.5999 16.0195C52.5999 13.9795 53.3065 12.2528 54.7199 10.8395C56.1465 9.42618 57.8865 8.71952 59.9399 8.71952C61.2465 8.71952 62.4399 9.01285 63.5199 9.59952C64.6132 10.1862 65.4599 10.9595 66.0599 11.9195L63.3399 13.4795C63.0332 12.9995 62.5732 12.6062 61.9599 12.2995C61.3599 11.9928 60.6799 11.8395 59.9199 11.8395C58.7332 11.8395 57.7465 12.2328 56.9599 13.0195C56.1865 13.8062 55.7999 14.8128 55.7999 16.0395C55.7999 17.2528 56.1999 18.2462 56.9999 19.0195C57.7999 19.7795 58.8665 20.1595 60.1999 20.1595C62.0532 20.1595 63.2465 19.4395 63.7799 17.9995H60.0399V15.1995H67.0599ZM68.7639 22.9995V8.39952H71.7639V22.9995H68.7639ZM82.5192 21.7595C81.4926 22.7728 80.2392 23.2795 78.7592 23.2795C77.2792 23.2795 76.0259 22.7728 74.9992 21.7595C73.9726 20.7328 73.4592 19.4795 73.4592 17.9995C73.4592 16.5195 73.9726 15.2728 74.9992 14.2595C76.0259 13.2328 77.2792 12.7195 78.7592 12.7195C80.2392 12.7195 81.4926 13.2328 82.5192 14.2595C83.5459 15.2728 84.0592 16.5195 84.0592 17.9995C84.0592 19.4795 83.5459 20.7328 82.5192 21.7595ZM77.1192 19.6995C77.5592 20.1395 78.1059 20.3595 78.7592 20.3595C79.4126 20.3595 79.9592 20.1395 80.3992 19.6995C80.8392 19.2595 81.0592 18.6928 81.0592 17.9995C81.0592 17.3062 80.8392 16.7395 80.3992 16.2995C79.9592 15.8595 79.4126 15.6395 78.7592 15.6395C78.1059 15.6395 77.5592 15.8595 77.1192 16.2995C76.6792 16.7395 76.4592 17.3062 76.4592 17.9995C76.4592 18.6928 76.6792 19.2595 77.1192 19.6995ZM91.7361 12.7195C93.0561 12.7195 94.1828 13.2328 95.1161 14.2595C96.0494 15.2728 96.5161 16.5195 96.5161 17.9995C96.5161 19.4795 96.0494 20.7328 95.1161 21.7595C94.1828 22.7728 93.0561 23.2795 91.7361 23.2795C90.4561 23.2795 89.4628 22.8728 88.7561 22.0595V22.9995H85.7561V8.99952H88.7561V13.9395C89.4628 13.1262 90.4561 12.7195 91.7361 12.7195ZM89.4161 19.7795C89.8694 20.2195 90.4428 20.4395 91.1361 20.4395C91.8294 20.4395 92.3961 20.2195 92.8361 19.7795C93.2894 19.3395 93.5161 18.7462 93.5161 17.9995C93.5161 17.2528 93.2894 16.6595 92.8361 16.2195C92.3961 15.7795 91.8294 15.5595 91.1361 15.5595C90.4428 15.5595 89.8694 15.7795 89.4161 16.2195C88.9761 16.6595 88.7561 17.2528 88.7561 17.9995C88.7561 18.7462 88.9761 19.3395 89.4161 19.7795ZM100.977 11.5995C100.63 11.9462 100.21 12.1195 99.717 12.1195C99.2237 12.1195 98.797 11.9462 98.437 11.5995C98.0904 11.2395 97.917 10.8129 97.917 10.3195C97.917 9.82618 98.0904 9.40618 98.437 9.05952C98.797 8.69952 99.2237 8.51952 99.717 8.51952C100.21 8.51952 100.63 8.69952 100.977 9.05952C101.337 9.40618 101.517 9.82618 101.517 10.3195C101.517 10.8129 101.337 11.2395 100.977 11.5995ZM98.217 22.9995V12.9995H101.217V22.9995H98.217ZM112.912 22.9995H109.472L107.612 20.3595L105.752 22.9995H102.312L105.892 17.9195L102.432 12.9995H105.872L107.612 15.4795L109.352 12.9995H112.792L109.332 17.9195L112.912 22.9995ZM125.798 23.2795C123.704 23.2795 121.964 22.5862 120.578 21.1995C119.204 19.7995 118.518 18.0662 118.518 15.9995C118.518 13.9328 119.204 12.2062 120.578 10.8195C121.964 9.41952 123.704 8.71952 125.798 8.71952C127.051 8.71952 128.211 9.01285 129.278 9.59952C130.344 10.1729 131.184 10.9595 131.798 11.9595L129.038 13.5595C128.731 13.0128 128.291 12.5928 127.718 12.2995C127.144 11.9928 126.504 11.8395 125.798 11.8395C124.558 11.8395 123.564 12.2195 122.818 12.9795C122.084 13.7395 121.718 14.7462 121.718 15.9995C121.718 17.2528 122.084 18.2595 122.818 19.0195C123.564 19.7795 124.558 20.1595 125.798 20.1595C126.504 20.1595 127.144 20.0062 127.718 19.6995C128.304 19.3928 128.744 18.9728 129.038 18.4395L131.798 20.0395C131.198 21.0395 130.364 21.8328 129.298 22.4195C128.231 22.9928 127.064 23.2795 125.798 23.2795ZM140.555 12.9995H143.555V22.9995H140.555V22.0595C139.848 22.8728 138.855 23.2795 137.575 23.2795C136.255 23.2795 135.128 22.7728 134.195 21.7595C133.262 20.7328 132.795 19.4795 132.795 17.9995C132.795 16.5195 133.262 15.2728 134.195 14.2595C135.128 13.2328 136.255 12.7195 137.575 12.7195C138.855 12.7195 139.848 13.1262 140.555 13.9395V12.9995ZM136.455 19.7795C136.895 20.2195 137.468 20.4395 138.175 20.4395C138.882 20.4395 139.455 20.2195 139.895 19.7795C140.335 19.3395 140.555 18.7462 140.555 17.9995C140.555 17.2528 140.335 16.6595 139.895 16.2195C139.455 15.7795 138.882 15.5595 138.175 15.5595C137.468 15.5595 136.895 15.7795 136.455 16.2195C136.015 16.6595 135.795 17.2528 135.795 17.9995C135.795 18.7462 136.015 19.3395 136.455 19.7795ZM148.498 15.9195C148.498 16.1195 148.665 16.2862 148.998 16.4195C149.345 16.5395 149.758 16.6662 150.238 16.7995C150.718 16.9195 151.198 17.0795 151.678 17.2795C152.158 17.4795 152.565 17.8128 152.898 18.2795C153.245 18.7328 153.418 19.3062 153.418 19.9995C153.418 21.0795 153.018 21.8995 152.218 22.4595C151.418 23.0062 150.432 23.2795 149.258 23.2795C147.152 23.2795 145.718 22.4862 144.958 20.8995L147.558 19.4195C147.825 20.2062 148.392 20.5995 149.258 20.5995C149.978 20.5995 150.338 20.3928 150.338 19.9795C150.338 19.7795 150.165 19.6128 149.818 19.4795C149.485 19.3462 149.078 19.2195 148.598 19.0995C148.118 18.9662 147.638 18.7995 147.158 18.5995C146.678 18.3862 146.265 18.0595 145.918 17.6195C145.585 17.1795 145.418 16.6395 145.418 15.9995C145.418 14.9595 145.792 14.1528 146.538 13.5795C147.298 13.0062 148.232 12.7195 149.338 12.7195C150.165 12.7195 150.918 12.9062 151.598 13.2795C152.278 13.6395 152.825 14.1662 153.238 14.8595L150.678 16.2395C150.358 15.6528 149.912 15.3595 149.338 15.3595C148.778 15.3595 148.498 15.5462 148.498 15.9195ZM160.776 12.7195C161.843 12.7195 162.73 13.0862 163.436 13.8195C164.156 14.5528 164.516 15.5662 164.516 16.8595V22.9995H161.516V17.2995C161.516 16.7128 161.35 16.2662 161.016 15.9595C160.696 15.6395 160.283 15.4795 159.776 15.4795C159.203 15.4795 158.75 15.6528 158.416 15.9995C158.083 16.3462 157.916 16.8595 157.916 17.5395V22.9995H154.916V8.99952H157.916V13.9395C158.516 13.1262 159.47 12.7195 160.776 12.7195Z" fill="#3579FC"/>
</svg>
