<svg width="149" height="70" viewBox="0 0 149 70" fill="none" xmlns="http://www.w3.org/2000/svg">
<path fill-rule="evenodd" clip-rule="evenodd" d="M32.1125 45.207C32.8493 43.9789 33.3405 42.5028 33.8318 41.0315C35.3055 40.5403 36.7791 40.0466 38.0072 39.5579C36.7791 42.2596 34.5686 44.2245 32.1125 45.207ZM24.7441 46.187C24.7441 46.187 24.7441 45.9438 24.7441 46.187L24.0072 44.7158C23.516 43.7308 23.0248 42.7508 22.7791 41.7684C24.2528 42.014 25.7265 42.2596 27.2002 42.2596C28.6739 42.2596 30.1476 42.014 31.6212 41.7684C31.3756 42.7508 30.8844 43.7308 30.3932 44.7158L29.6563 46.187C28.9195 46.4351 28.1827 46.4351 27.2002 46.4351C26.2177 46.4351 25.4809 46.187 24.7441 46.187ZM16.3932 39.8035C17.6212 40.5403 19.0949 41.0315 20.5686 41.2747C21.0598 42.7508 21.5511 44.2245 22.2879 45.4526C19.5862 44.2245 17.6212 42.2596 16.3932 39.8035ZM22.2879 23.5929C21.5511 24.821 21.0598 26.2947 20.5686 27.7684C19.0949 28.2596 17.6212 28.7508 16.3932 29.2421C17.6212 26.7859 19.5862 24.5754 22.2879 23.5929ZM29.4107 22.6105C29.4107 22.6105 29.6563 22.6105 29.4107 22.6105L30.1476 24.0842C30.6388 25.0666 31.13 26.0491 31.3756 27.0315C29.9019 26.7859 28.4283 26.5403 26.9546 26.5403C25.4809 26.5403 24.0072 26.7859 22.5335 27.0315C22.7791 26.0491 23.2704 25.0666 23.7616 24.0842L24.4984 22.6105C25.2353 22.3649 25.9721 22.3649 26.9546 22.3649C27.937 22.3649 28.6739 22.6105 29.4107 22.6105ZM38.0072 29.2421C36.7791 28.5052 35.3055 28.014 33.8318 27.7684C33.3405 26.2947 32.8493 24.821 32.1125 23.5929C34.5686 24.5754 36.7791 26.7859 38.0072 29.2421ZM15.1651 34.4C15.1651 33.6631 15.1651 32.6807 15.4107 31.9438L16.6388 31.207C17.6212 30.7158 18.8493 30.2245 19.8318 29.7333C19.5862 31.207 19.3405 32.6807 19.3405 34.1544C19.3405 35.628 19.5862 37.1017 19.8318 38.5754C18.6037 38.0842 17.6212 37.8386 16.6388 37.1017L15.4107 36.3649C15.1651 36.1193 15.1651 35.1368 15.1651 34.4ZM33.5862 37.3473C33.0949 37.3473 32.6037 37.5929 32.3581 38.0842C32.3581 38.5754 32.1125 39.0666 32.1125 39.5579C30.3932 40.0466 28.6739 40.0466 26.9546 40.0466C25.2353 40.0466 23.516 39.8035 21.7967 39.5579C21.3055 37.8386 21.3055 36.1193 21.3055 34.4C21.3055 32.6807 21.5511 30.9614 21.7967 29.2421C23.516 28.7508 25.2353 28.7508 26.9546 28.7508C28.6739 28.7508 30.3932 28.9965 32.1125 29.2421C32.1125 29.7333 32.3581 30.2245 32.3581 30.7158C32.3581 31.207 32.8493 31.4526 33.3405 31.4526H33.5862C34.0774 31.4526 34.5686 30.9614 34.323 30.2245V29.7333C35.5511 30.2245 36.5335 30.7158 37.516 31.207L38.9897 31.9438C39.2353 32.6807 39.2353 33.6631 39.2353 34.4C39.2353 35.1368 39.2353 36.1193 38.9897 36.8561L37.7616 37.5929C36.7791 38.0842 35.5511 38.5754 34.5686 39.0666V38.5754C34.5686 37.8386 34.0774 37.3473 33.5862 37.3473ZM27.2002 20.4C19.5862 20.4 13.2002 26.5403 13.2002 34.4C13.2002 42.014 19.3405 48.4 27.2002 48.4C35.0598 48.4 41.2002 42.2596 41.2002 34.4C40.9546 26.7859 34.5686 20.4 27.2002 20.4Z" fill="white"/>
<mask id="mask0_85_78" style="mask-type:alpha" maskUnits="userSpaceOnUse" x="34" y="12" width="17" height="10">
<path d="M34.1992 12.868H50.3192V21.4355H34.1992V12.868Z" fill="white"/>
</mask>
<g mask="url(#mask0_85_78)">
<path fill-rule="evenodd" clip-rule="evenodd" d="M46.4192 14.8835C47.7192 14.8835 48.7592 15.8915 48.7592 17.1515C48.7592 18.4115 47.7192 19.4195 46.4192 19.4195C45.1192 19.4195 44.0792 18.4115 44.0792 17.1515C44.0792 15.8915 44.8592 14.8835 46.4192 14.8835ZM34.4592 21.1835C34.7192 21.4355 34.9792 21.4355 34.9792 21.4355C35.2392 21.4355 35.4992 21.1835 35.7592 20.9315L37.3192 18.6635C37.8392 18.4115 38.0992 18.1595 38.6192 18.1595H41.7392C42.2592 19.9235 43.8192 21.4355 45.8992 21.4355C48.2392 21.4355 50.3192 19.4195 50.3192 17.1515C50.3192 14.8835 48.2392 12.8675 45.8992 12.8675C43.8192 12.8675 41.9992 14.3795 41.7392 16.1435H38.3592C37.3192 16.1435 36.2792 16.6475 35.7592 17.4035L34.1992 19.6715C34.1992 20.1755 34.1992 20.6795 34.4592 21.1835Z" fill="white"/>
</g>
<path fill-rule="evenodd" clip-rule="evenodd" d="M8.94518 53.1765C7.72595 53.1765 6.75057 52.1907 6.75057 50.9554C6.75057 49.7201 7.72595 48.7294 8.94518 48.7294C10.1644 48.7294 11.1398 49.9647 11.1398 50.9554C11.1398 52.4353 10.1644 53.1765 8.94518 53.1765ZM19.9182 47.9882C19.4305 47.7412 18.9429 47.7412 18.699 48.2353L17.7236 49.7201C17.4798 49.9647 17.2359 50.2118 16.7482 50.2118H12.8467C12.359 48.4848 10.8959 47 8.94518 47C6.75057 47 4.7998 48.9765 4.7998 51.2C4.7998 53.426 6.75057 55.4 8.94518 55.4C10.8959 55.4 12.6029 53.9176 12.8467 52.1907H16.5044C17.4798 52.1907 18.4552 51.6941 18.9429 50.7059L19.9182 49.2235C20.4059 48.7294 20.1621 48.2353 19.9182 47.9882Z" fill="white"/>
<mask id="mask1_85_78" style="mask-type:alpha" maskUnits="userSpaceOnUse" x="2" y="18" width="14" height="9">
<path d="M2 18.2162H15.9604V26.7842H2V18.2162Z" fill="white"/>
</mask>
<g mask="url(#mask1_85_78)">
<path fill-rule="evenodd" clip-rule="evenodd" d="M4.05333 22.5002C4.05333 21.2402 5.08 20.2322 6.36333 20.2322C7.64667 20.2322 8.67333 21.2402 8.67333 22.5002C8.67333 23.7602 7.64667 24.7682 6.36333 24.7682C5.08 24.7682 4.05333 23.7602 4.05333 22.5002ZM10.47 23.5082H12.5233C13.0367 23.5082 13.55 23.7602 13.55 24.2642L14.0633 25.7762C14.32 26.2802 14.8333 26.5322 15.09 26.5322H15.3467C15.86 26.2802 16.1167 25.7762 15.86 25.2722L15.6033 23.7602C15.09 22.5002 13.8067 21.4922 12.5233 21.4922H10.47C9.95667 19.7282 8.41667 18.2162 6.36333 18.2162C4.05333 18.2162 2 20.2322 2 22.5002C2 24.7682 4.05333 26.7842 6.36333 26.7842C8.41667 26.7842 9.95667 25.5242 10.47 23.5082Z" fill="white"/>
</g>
<path fill-rule="evenodd" clip-rule="evenodd" d="M48.3491 45.0235C47.1576 45.0235 46.2044 44.0353 46.2044 42.8C46.2044 41.5647 47.1576 40.5764 48.3491 40.5764C49.5406 40.5764 50.4938 41.5647 50.4938 42.8C50.4938 44.0353 49.5406 45.0235 48.3491 45.0235ZM48.3491 38.6C46.4427 38.6 44.7747 40.0823 44.5364 41.8117H42.1534C41.6768 41.8117 41.2002 42.3059 41.2002 42.8C41.2002 43.2941 41.6768 43.7882 42.1534 43.7882H44.5364C45.013 45.5176 46.4427 47 48.3491 47C50.4938 47 52.4002 45.0235 52.4002 42.8C52.4002 40.5764 50.4938 38.6 48.3491 38.6Z" fill="white"/>
<path fill-rule="evenodd" clip-rule="evenodd" d="M35.3201 34.4C35.3201 33.84 34.7601 33.28 34.2001 33.28C33.6401 33.28 33.0801 33.84 33.0801 34.4C33.0801 34.96 33.9201 35.52 34.4801 35.52C35.0401 35.52 35.3201 35.24 35.3201 34.4Z" fill="white"/>
<path fill-rule="evenodd" clip-rule="evenodd" d="M64.8223 29.528C63.797 29.528 62.7716 30.032 62.0026 30.788C61.2336 31.544 60.7209 32.552 60.4646 33.56C60.2083 34.568 59.9519 35.828 59.9519 36.836C59.9519 38.852 60.7209 39.86 62.0026 39.86C63.2843 39.86 64.3097 39.104 65.5914 37.34L66.873 30.032C66.3604 29.78 65.5914 29.528 64.8223 29.528ZM64.8223 26C67.3857 26 69.6928 26.504 71.9998 27.764L69.6928 42.632C69.1801 45.6535 68.4111 47.924 66.873 49.184C65.335 50.444 63.2843 51.2 60.4646 51.2C58.1576 51.2 55.8505 50.444 53.7998 49.184L55.5942 45.908C57.3885 46.9135 58.9266 47.168 60.4646 47.168C61.7463 47.168 62.5153 46.9135 63.2843 46.412C64.0533 45.908 64.566 44.9 64.8223 43.388L65.0787 41.624C63.797 43.1335 62.259 43.892 60.4646 43.892C58.6702 43.892 57.1322 43.388 56.1068 42.128C55.0815 40.868 54.5688 39.356 54.5688 37.34C54.5688 36.08 54.8252 34.82 55.0815 33.56C55.3378 32.3 56.1068 31.04 56.8759 30.032C57.6449 28.772 58.6702 28.016 60.2083 27.26C61.7463 26.252 63.2843 26 64.8223 26Z" fill="white"/>
<path fill-rule="evenodd" clip-rule="evenodd" d="M81.8004 19L78.9463 38.9604C78.9463 39.7089 79.2058 40.2079 79.7247 40.2079C79.9842 40.2079 80.2436 40.2079 80.5031 39.9584L81.022 43.4515C79.9842 43.9505 78.9463 44.2 77.649 44.2C76.0923 44.2 75.0544 43.701 74.2761 42.9525C73.4977 41.9545 73.2382 40.7069 73.4977 39.2099L76.6112 19.7485L81.8004 19Z" fill="white"/>
<path fill-rule="evenodd" clip-rule="evenodd" d="M90.7226 40.4598C91.4748 40.4598 92.2271 40.2104 92.7286 39.7142C93.23 39.213 93.7315 38.4675 93.9823 37.7169C94.233 36.9714 94.4838 35.974 94.4838 35.2234V32.9793C94.4838 30.7376 93.7315 29.7402 91.9763 29.7402C91.2241 29.7402 90.4718 29.9871 89.9703 30.4858C89.4689 30.987 89.4689 31.7325 89.2181 32.7299C88.9674 33.7273 88.7166 34.4779 88.7166 35.2234C88.7166 35.974 88.4659 36.7195 88.4659 37.4676C88.2151 39.4649 89.2181 40.4598 90.7226 40.4598ZM90.4718 44.2C88.2151 44.2 86.4599 43.452 85.2062 42.2052C83.9524 40.9585 83.2002 39.213 83.2002 36.7195C83.2002 35.4728 83.4509 34.226 83.7017 32.9793C83.9524 31.7325 84.4539 30.4858 85.2062 29.4909C85.9584 28.4935 86.9614 27.743 88.2151 26.9974C89.4689 26.2469 90.9733 26 92.7286 26C94.9853 26 96.7405 26.7456 97.9942 27.9923C99.4987 29.239 100 30.987 100 33.2311C100 34.226 100 35.2234 99.7495 36.2208C99.4987 37.2207 99.248 38.2181 98.7465 39.213C98.245 40.2104 97.7435 40.9585 96.9912 41.7065C96.239 42.4571 95.4868 42.9533 94.233 43.452C92.9793 43.9507 91.7256 44.2 90.4718 44.2Z" fill="white"/>
<path fill-rule="evenodd" clip-rule="evenodd" d="M112.435 29.7298C111.2 29.7298 110.212 30.4784 109.223 31.726L107.988 40.21C108.729 40.4571 109.47 40.7091 110.212 40.7091C111.2 40.7091 111.941 40.21 112.682 39.4614C113.423 38.4633 113.917 37.4652 114.165 36.4671C114.412 35.2194 114.659 34.2213 114.659 32.9737C114.412 30.7279 113.67 29.7298 112.435 29.7298ZM114.412 25.9868C116.141 25.9868 117.376 26.4859 118.365 27.7335C119.353 28.9812 119.6 30.4784 119.6 32.7241C119.6 33.7222 119.6 34.7204 119.353 35.7185C119.106 36.7166 118.859 37.7147 118.365 38.7128C117.87 39.711 117.376 40.7091 116.635 41.4577C115.894 42.2063 114.906 42.9524 113.67 43.4539C112.435 43.953 111.2 44.2 109.717 44.2C107.494 44.2 105.023 43.7034 102.8 42.7053L106.012 19.4991L110.953 19L109.717 27.7335C110.706 26.4859 112.682 25.9868 114.412 25.9868Z" fill="white"/>
<path fill-rule="evenodd" clip-rule="evenodd" d="M125.9 23.4266C125.2 23.4266 124.5 23.1733 124.033 22.6666C123.567 22.16 123.333 21.6533 123.333 20.8933C123.333 19.88 123.567 19.12 124.267 18.6133C124.967 18.1066 125.667 17.6 126.6 17.6C127.3 17.6 128 17.8533 128.467 18.36C129.167 18.6133 129.4 19.3733 129.4 20.1333C129.4 21.1466 129.167 21.9066 128.467 22.4133C127.533 23.1733 127.067 23.4266 125.9 23.4266ZM128 26.72L125.667 44.2H121L123.333 26.72H128Z" fill="white"/>
<path fill-rule="evenodd" clip-rule="evenodd" d="M146.2 26L140.386 34.58L144.683 43.94H139.122L137.353 37.7L133.561 44.2H128L134.825 34.58L131.033 26.26H136.594L138.111 31.98L141.144 26.26C141.144 26.26 146.2 26.26 146.2 26Z" fill="white"/>
<path fill-rule="evenodd" clip-rule="evenodd" d="M28.0909 31.9043C27.5818 31.9043 27.0727 32.1478 26.8182 32.3913C26.5636 32.8782 26.3091 33.1217 26.0545 33.6086C25.8 34.0956 25.8 34.5826 25.8 35.0695C25.8 36.0434 26.0545 36.5304 26.8182 36.5304C27.3273 36.5304 27.8364 36.2869 28.3455 35.5565L28.8545 32.1478C28.6 31.9043 28.3455 31.9043 28.0909 31.9043ZM28.0909 30.2C29.3636 30.2 30.3818 30.4434 31.4 30.9304L30.3818 37.5043C30.1273 38.9652 29.6182 39.9391 29.1091 40.426C28.3455 41.1565 27.3273 41.4 26.0545 41.4C25.0364 41.4 24.0182 41.1565 23 40.426L23.7636 38.9652C24.5273 39.4521 25.2909 39.6956 26.0545 39.6956C26.5636 39.6956 27.0727 39.4521 27.3273 39.2086C27.5818 38.9652 27.8364 38.4782 28.0909 37.7478V37.0173C27.5818 37.7478 26.8182 37.9913 26.0545 37.9913C25.2909 37.9913 24.5273 37.7478 24.0182 37.2608C23.5091 36.7739 23.2545 36.0434 23.2545 35.0695C23.2545 34.5826 23.2545 33.8521 23.5091 33.3652C23.7636 32.8782 24.0182 32.3913 24.2727 31.6608C24.5273 31.1739 25.0364 30.6869 25.8 30.4434C26.5636 30.4434 27.3273 30.2 28.0909 30.2Z" fill="white"/>
</svg>
