<svg width="209" height="48" viewBox="0 0 209 48" fill="none" xmlns="http://www.w3.org/2000/svg">
<path d="M10.9807 10.0688H9.10276C8.80102 10.0688 8.53067 9.87965 8.44708 9.5872C8.2584 8.92705 8.02841 7.8187 8.60052 7.7891C9.41666 7.74689 11.2373 7.70045 11.9906 7.85243C12.9323 8.0424 13.1835 8.2957 13.4346 8.48568C13.6857 8.67565 14.2507 9.43555 14.5646 10.0055C14.8785 10.5754 15.1296 11.6519 15.2552 12.2852C15.3808 12.9184 15.1296 13.425 14.3763 13.6783C13.9438 13.8238 13.55 13.5648 13.2926 13.2899C13.1164 13.1018 13.0171 12.858 12.9353 12.6127C12.7663 12.1069 12.5237 11.3891 12.3673 10.9554C12.2807 10.7151 12.1521 10.5291 12.0188 10.39C11.756 10.1161 11.3585 10.0688 10.9807 10.0688Z" fill="#3E7FFC"/>
<path d="M16.8824 42.1527H15.0045H11.6772C11.6772 42.1527 10.861 44.3269 11.6772 44.3691C12.4933 44.4113 17.1391 44.5211 17.8924 44.3691C18.8341 44.1791 19.0852 43.9258 19.3364 43.7358C19.5875 43.5459 20.1525 42.786 20.4664 42.216C20.7803 41.6461 21.0942 41.2877 21.2197 40.6544C21.3453 40.0212 21.3453 39.5779 20.5919 39.3246C19.9892 39.1219 19.4619 39.3246 19.2735 39.6412C19.0224 40.0634 18.583 40.7811 18.2691 41.2662C18.1367 41.4709 18.0067 41.6467 17.8865 41.7871C17.6396 42.0756 17.2603 42.1527 16.8824 42.1527Z" fill="#3E7FFC"/>
<path d="M44.337 32.4854H46.9599C47.168 32.4854 47.3366 32.6555 47.3366 32.8653V34.2586C47.3366 34.5034 47.1399 34.7019 46.8972 34.7019H44.1288C43.9239 34.7019 43.7135 34.6933 43.5335 34.5947C43.2084 34.4168 42.8655 34.0384 42.942 33.4986C42.9617 33.3596 42.9889 33.2393 43.0213 33.1352C43.1846 32.6099 43.7912 32.4854 44.337 32.4854Z" fill="#3E7FFC"/>
<path d="M40.8124 5.8407H42.6903H46.0176C46.0176 5.8407 46.8338 3.66654 46.0177 3.62433C45.2015 3.58211 40.5558 3.47235 39.8024 3.62433C38.8607 3.8143 38.6096 4.0676 38.3585 4.25758C38.1073 4.44755 37.5423 5.20745 37.2284 5.77737C36.9145 6.3473 36.6007 6.70575 36.4751 7.339C36.3495 7.97225 36.3495 8.41553 37.1029 8.66883C37.7056 8.87147 38.2329 8.66883 38.4213 8.3522C38.6724 7.93004 39.1119 7.21235 39.4257 6.72725C39.5582 6.52254 39.6881 6.34671 39.8083 6.2063C40.0552 5.9178 40.4345 5.8407 40.8124 5.8407Z" fill="#3E7FFC"/>
<path fill-rule="evenodd" clip-rule="evenodd" d="M4.64572 11.6523C6.17131 11.6523 7.40804 10.4048 7.40804 8.86598C7.40804 7.32715 6.17131 6.07968 4.64572 6.07968C3.12013 6.07968 1.8834 7.32715 1.8834 8.86598C1.8834 10.4048 3.12013 11.6523 4.64572 11.6523ZM4.64572 13.552C7.21148 13.552 9.29144 11.454 9.29144 8.86598C9.29144 6.27795 7.21148 4.17993 4.64572 4.17993C2.07996 4.17993 0 6.27795 0 8.86598C0 11.454 2.07996 13.552 4.64572 13.552Z" fill="#3E7FFC"/>
<path fill-rule="evenodd" clip-rule="evenodd" d="M49.0949 7.47234C50.6205 7.47234 51.8573 6.22488 51.8573 4.68605C51.8573 3.14722 50.6205 1.89975 49.0949 1.89975C47.5694 1.89975 46.3326 3.14722 46.3326 4.68605C46.3326 6.22488 47.5694 7.47234 49.0949 7.47234ZM49.0949 9.37209C51.6607 9.37209 53.7407 7.27408 53.7407 4.68605C53.7407 2.09801 51.6607 0 49.0949 0C46.5292 0 44.4492 2.09801 44.4492 4.68605C44.4492 7.27408 46.5292 9.37209 49.0949 9.37209Z" fill="#3E7FFC"/>
<path fill-rule="evenodd" clip-rule="evenodd" d="M51.3542 36.2219C52.8798 36.2219 54.1165 34.9744 54.1165 33.4356C54.1165 31.8967 52.8798 30.6493 51.3542 30.6493C49.8286 30.6493 48.5919 31.8967 48.5919 33.4356C48.5919 34.9744 49.8286 36.2219 51.3542 36.2219ZM51.3542 38.1216C53.92 38.1216 55.9999 36.0236 55.9999 33.4356C55.9999 30.8475 53.92 28.7495 51.3542 28.7495C48.7885 28.7495 46.7085 30.8475 46.7085 33.4356C46.7085 36.0236 48.7885 38.1216 51.3542 38.1216Z" fill="#3E7FFC"/>
<path fill-rule="evenodd" clip-rule="evenodd" d="M8.16232 46.1003C9.68791 46.1003 10.9246 44.8528 10.9246 43.314C10.9246 41.7751 9.68791 40.5277 8.16232 40.5277C6.63674 40.5277 5.4 41.7751 5.4 43.314C5.4 44.8528 6.63674 46.1003 8.16232 46.1003ZM8.16232 48C10.7281 48 12.808 45.902 12.808 43.314C12.808 40.7259 10.7281 38.6279 8.16232 38.6279C5.59656 38.6279 3.5166 40.7259 3.5166 43.314C3.5166 45.902 5.59656 48 8.16232 48Z" fill="#3E7FFC"/>
<path fill-rule="evenodd" clip-rule="evenodd" d="M27.9378 37.8678C35.6697 37.8678 41.9377 31.5454 41.9377 23.7464C41.9377 15.9473 35.6697 9.62491 27.9378 9.62491C20.2058 9.62491 13.9378 15.9473 13.9378 23.7464C13.9378 31.5454 20.2058 37.8678 27.9378 37.8678ZM27.9378 40.1475C36.9179 40.1475 44.1978 32.8045 44.1978 23.7464C44.1978 14.6883 36.9179 7.34521 27.9378 7.34521C18.9576 7.34521 11.6777 14.6883 11.6777 23.7464C11.6777 32.8045 18.9576 40.1475 27.9378 40.1475Z" fill="#3E7FFC"/>
<path fill-rule="evenodd" clip-rule="evenodd" d="M43.2857 28.5789C30.6629 36.4617 17.4891 31.8627 12.4443 28.5664L13.6731 26.6531C18.2822 29.6647 30.4768 33.8966 42.096 26.6406L43.2857 28.5789Z" fill="#3E7FFC"/>
<path fill-rule="evenodd" clip-rule="evenodd" d="M43.2857 28.5789C30.6629 36.4617 17.4891 31.8627 12.4443 28.5664L13.6731 26.6531C18.2822 29.6647 30.4768 33.8966 42.096 26.6406L43.2857 28.5789Z" fill="#3E7FFC"/>
<path fill-rule="evenodd" clip-rule="evenodd" d="M43.2857 28.5789C30.6629 36.4617 17.4891 31.8627 12.4443 28.5664L13.6731 26.6531C18.2822 29.6647 30.4768 33.8966 42.096 26.6406L43.2857 28.5789Z" fill="#3E7FFC"/>
<path fill-rule="evenodd" clip-rule="evenodd" d="M43.2857 18.9147C30.6629 11.032 17.4891 15.631 12.4443 18.9272L13.6731 20.8406C18.2822 17.829 30.4768 13.597 42.096 20.853L43.2857 18.9147Z" fill="#3E7FFC"/>
<path fill-rule="evenodd" clip-rule="evenodd" d="M43.2857 18.9147C30.6629 11.032 17.4891 15.631 12.4443 18.9272L13.6731 20.8406C18.2822 17.829 30.4768 13.597 42.096 20.853L43.2857 18.9147Z" fill="#3E7FFC"/>
<path fill-rule="evenodd" clip-rule="evenodd" d="M43.2857 18.9147C30.6629 11.032 17.4891 15.631 12.4443 18.9272L13.6731 20.8406C18.2822 17.829 30.4768 13.597 42.096 20.853L43.2857 18.9147Z" fill="#3E7FFC"/>
<path fill-rule="evenodd" clip-rule="evenodd" d="M27.5602 26.2165C29.8832 26.2165 31.7664 24.317 31.7664 21.9738C31.7664 19.6305 29.8832 17.731 27.5602 17.731C25.2371 17.731 23.3539 19.6305 23.3539 21.9738C23.3539 24.317 25.2371 26.2165 27.5602 26.2165ZM27.5602 27.7363C30.7153 27.7363 33.2731 25.1563 33.2731 21.9738C33.2731 18.7912 30.7153 16.2112 27.5602 16.2112C24.405 16.2112 21.8472 18.7912 21.8472 21.9738C21.8472 25.1563 24.405 27.7363 27.5602 27.7363Z" fill="#3E7FFC"/>
<path d="M30.1975 28.6857C31.8925 27.5459 31.6205 26.406 31.767 25.6461L32.0297 23.1722C32.0955 22.5534 32.595 22.0732 33.2109 22.0366L33.3365 26.5327C33.2737 27.2293 32.8593 28.8377 30.6997 30.2055C29.3462 31.0628 28.4481 31.2186 27.9095 31.122C27.4516 31.0398 27.3096 30.5272 27.3096 30.0581C27.3096 29.8857 27.4285 29.7367 27.5944 29.6957C28.1583 29.5561 29.4286 29.2028 30.1975 28.6857Z" fill="#3E7FFC"/>
<path fill-rule="evenodd" clip-rule="evenodd" d="M33.2526 21.9903C33.2651 22.0019 33.2725 22.0181 33.273 22.0352L33.3985 26.5312C33.3986 26.5338 33.3985 26.5363 33.3983 26.5388C33.3339 27.2528 32.9104 28.8801 30.7324 30.2595C29.3731 31.1204 28.4586 31.2853 27.8978 31.1847C27.644 31.1391 27.4795 30.9732 27.3804 30.7626C27.2822 30.554 27.2461 30.2982 27.2461 30.0584C27.2461 29.8561 27.3855 29.6823 27.5788 29.6345C28.1435 29.4948 29.4034 29.1435 30.1619 28.6334C30.9989 28.0706 31.3449 27.512 31.5023 27.0049C31.5815 26.7499 31.6137 26.5057 31.6351 26.2758C31.6404 26.2185 31.6451 26.1616 31.6497 26.1056C31.6634 25.9402 31.6765 25.7815 31.7041 25.6371L31.9666 23.1658C32.0356 22.5162 32.56 22.0121 33.2065 21.9737C33.2235 21.9727 33.2401 21.9787 33.2526 21.9903ZM33.1493 22.1058C32.594 22.1689 32.1516 22.613 32.0915 23.1793L31.8287 25.6532C31.8285 25.655 31.8282 25.6568 31.8279 25.6586C31.8013 25.7963 31.789 25.946 31.7754 26.1101C31.7707 26.1675 31.7658 26.2266 31.7601 26.2876C31.7384 26.5208 31.7052 26.7752 31.6221 27.0427C31.4552 27.5805 31.0897 28.1617 30.2316 28.7388C29.4523 29.2628 28.1717 29.6182 27.6087 29.7575C27.47 29.7918 27.3717 29.916 27.3717 30.0584C27.3717 30.2878 27.4066 30.5229 27.4938 30.7083C27.5802 30.8918 27.7156 31.0233 27.9198 31.06C28.4361 31.1526 29.3178 31.0059 30.6656 30.1522C32.803 28.7985 33.2105 27.2122 33.2729 26.531L33.1493 22.1058Z" fill="#3E7FFC"/>
<path fill-rule="evenodd" clip-rule="evenodd" d="M23.4627 8.14066C15.6477 20.8731 20.2072 34.1612 23.475 39.2498L25.3719 38.0103C22.3862 33.3612 18.1907 21.0607 25.3843 9.34068L23.4627 8.14066Z" fill="#3E7FFC"/>
<path fill-rule="evenodd" clip-rule="evenodd" d="M23.4627 8.14066C15.6477 20.8731 20.2072 34.1612 23.475 39.2498L25.3719 38.0103C22.3862 33.3612 18.1907 21.0607 25.3843 9.34068L23.4627 8.14066Z" fill="#3E7FFC"/>
<path fill-rule="evenodd" clip-rule="evenodd" d="M23.4627 8.14066C15.6477 20.8731 20.2072 34.1612 23.475 39.2498L25.3719 38.0103C22.3862 33.3612 18.1907 21.0607 25.3843 9.34068L23.4627 8.14066Z" fill="#3E7FFC"/>
<path d="M33.7767 17.9838C33.4347 15.7662 31.6393 11.7709 30.7134 9.90337C30.6636 9.80296 30.6377 9.69305 30.6377 9.58079C30.6377 9.18546 30.9554 8.86499 31.3473 8.86499H31.6676C32.0397 8.86499 32.382 9.06788 32.5804 9.38541C32.8361 9.79474 33.1963 10.3337 33.5884 10.8281C34.3417 11.7779 35.9112 17.2239 36.2251 18.5537C36.539 19.8835 35.5345 20.2635 35.409 20.2635C35.3462 20.2635 34.2162 20.8334 33.7767 17.9838Z" fill="#3E7FFC"/>
<path fill-rule="evenodd" clip-rule="evenodd" d="M30.5747 9.58137C30.5747 9.15107 30.9205 8.80225 31.3471 8.80225H31.6674C32.0625 8.80225 32.4242 9.01752 32.6333 9.35223C32.8883 9.76035 33.2471 10.2972 33.6372 10.7891C33.7359 10.9136 33.8453 11.1079 33.9614 11.3513C34.078 11.5957 34.203 11.8931 34.3323 12.2264C34.5909 12.893 34.868 13.7058 35.1311 14.5296C35.6572 16.1769 36.1285 17.8726 36.286 18.5396C36.4474 19.2234 36.2706 19.6721 36.0288 19.9497C35.9091 20.0871 35.775 20.1807 35.6625 20.24C35.6062 20.2697 35.5548 20.2911 35.5125 20.3053C35.475 20.3178 35.44 20.3262 35.4141 20.3273C35.4128 20.3276 35.4113 20.328 35.4093 20.3286C35.4074 20.3291 35.4052 20.3298 35.4025 20.3306C35.4006 20.3311 35.3986 20.3317 35.3964 20.3324C35.3856 20.3356 35.3712 20.3398 35.3546 20.3442C35.3144 20.3549 35.2594 20.3669 35.1936 20.3717C35.0613 20.3814 34.8868 20.3618 34.701 20.2468C34.3312 20.0179 33.9349 19.4235 33.7145 17.9941C33.5447 16.8932 33.0128 15.3458 32.4056 13.8367C31.799 12.329 31.1194 10.8648 30.657 9.93227C30.6029 9.82314 30.5747 9.70353 30.5747 9.58137ZM35.4166 20.3267C35.4166 20.3267 35.4164 20.3268 35.416 20.3268C35.4164 20.3267 35.4166 20.3267 35.4166 20.3267ZM31.3471 8.9289C30.9899 8.9289 30.7003 9.22102 30.7003 9.58137C30.7003 9.68372 30.7239 9.78395 30.7693 9.87563C31.2329 10.8106 31.9139 12.2778 32.522 13.7891C33.1294 15.2989 33.6663 16.858 33.8385 17.9746C34.0575 19.3949 34.446 19.9403 34.7667 20.1389C34.9262 20.2376 35.0735 20.2536 35.1845 20.2454C35.2403 20.2413 35.2873 20.2311 35.3227 20.2217C35.3374 20.2178 35.3498 20.2142 35.3606 20.211C35.3629 20.2103 35.3652 20.2096 35.3674 20.209C35.3732 20.2072 35.3794 20.2055 35.3848 20.2041L35.3849 20.2041C35.3888 20.2031 35.3984 20.2007 35.4088 20.2007C35.4139 20.2007 35.4354 20.1976 35.473 20.185C35.5085 20.1732 35.5537 20.1545 35.6043 20.1278C35.7056 20.0744 35.8266 19.9899 35.9345 19.8661C36.1479 19.6211 36.3163 19.215 36.1638 18.569C36.0074 17.9062 35.5371 16.2139 35.0116 14.5684C34.7489 13.7458 34.4727 12.9358 34.2154 12.2726C34.0867 11.9409 33.963 11.6467 33.8483 11.4062C33.7331 11.1648 33.6287 10.9811 33.5391 10.8682C33.1451 10.3714 32.7835 9.83029 32.5271 9.41975C32.3394 9.11939 32.0165 8.9289 31.6674 8.9289H31.3471Z" fill="#3E7FFC"/>
<path d="M33.6517 29.6825C33.3097 31.9001 31.5143 35.8953 30.5884 37.7629C30.5386 37.8633 30.5127 37.9732 30.5127 38.0855C30.5127 38.4808 30.8304 38.8013 31.2223 38.8013H31.5426C31.9147 38.8013 32.257 38.5984 32.4554 38.2809C32.7111 37.8715 33.0713 37.3325 33.4634 36.8382C34.2167 35.8883 35.7862 30.4424 36.1001 29.1126C36.414 27.7827 35.4095 27.4028 35.284 27.4028C35.2212 27.4028 34.0912 26.8329 33.6517 29.6825Z" fill="#3E7FFC"/>
<path fill-rule="evenodd" clip-rule="evenodd" d="M30.4487 38.0854C30.4487 38.5157 30.7946 38.8645 31.2211 38.8645H31.5414C31.9365 38.8645 32.2982 38.6492 32.5073 38.3145C32.7623 37.9064 33.1211 37.3695 33.5112 36.8777C33.61 36.7531 33.7194 36.5588 33.8355 36.3154C33.952 36.0711 34.077 35.7736 34.2063 35.4403C34.465 34.7737 34.742 33.961 35.0051 33.1372C35.5312 31.4898 36.0026 29.7942 36.16 29.1271C36.3214 28.4434 36.1446 27.9946 35.9028 27.7171C35.7831 27.5797 35.6491 27.4861 35.5365 27.4267C35.4802 27.397 35.4288 27.3756 35.3865 27.3615C35.349 27.349 35.314 27.3405 35.2882 27.3395C35.2869 27.3391 35.2853 27.3387 35.2834 27.3382C35.2815 27.3376 35.2792 27.337 35.2765 27.3362C35.2746 27.3356 35.2726 27.335 35.2705 27.3344C35.2596 27.3312 35.2452 27.3269 35.2286 27.3225C35.1884 27.3119 35.1334 27.2998 35.0676 27.295C34.9354 27.2853 34.7609 27.3049 34.5751 27.42C34.2052 27.6489 33.8089 28.2433 33.5885 29.6726C33.4187 30.7736 32.8869 32.3209 32.2796 33.83C31.673 35.3377 30.9934 36.8019 30.5311 37.7345C30.477 37.8436 30.4487 37.9632 30.4487 38.0854ZM35.2906 27.34C35.2906 27.34 35.2904 27.34 35.29 27.3399C35.2904 27.34 35.2906 27.3401 35.2906 27.34ZM31.2211 38.7379C30.8639 38.7379 30.5743 38.4457 30.5743 38.0854C30.5743 37.983 30.5979 37.8828 30.6434 37.7911C31.1069 36.8561 31.7879 35.3889 32.396 33.8777C33.0035 32.3679 33.5403 30.8088 33.7125 29.6921C33.9316 28.2719 34.32 27.7264 34.6407 27.5279C34.8002 27.4292 34.9475 27.4132 35.0585 27.4213C35.1143 27.4254 35.1614 27.4356 35.1967 27.445C35.2114 27.4489 35.2238 27.4526 35.2346 27.4558C35.2369 27.4565 35.2392 27.4571 35.2414 27.4578C35.2472 27.4595 35.2534 27.4613 35.2588 27.4626L35.259 27.4627C35.2628 27.4636 35.2725 27.466 35.2828 27.466C35.288 27.466 35.3095 27.4692 35.347 27.4817C35.3825 27.4936 35.4277 27.5122 35.4783 27.5389C35.5796 27.5924 35.7006 27.6769 35.8085 27.8007C36.0219 28.0456 36.1904 28.4517 36.0379 29.0978C35.8814 29.7606 35.4111 31.4528 34.8856 33.0983C34.6229 33.921 34.3467 34.731 34.0894 35.3942C33.9607 35.7258 33.837 36.02 33.7223 36.2605C33.6072 36.502 33.5027 36.6856 33.4131 36.7985C33.0191 37.2953 32.6576 37.8365 32.4011 38.247C32.2135 38.5474 31.8906 38.7379 31.5414 38.7379H31.2211Z" fill="#3E7FFC"/>
<path d="M36.663 23.8734C36.663 24.538 36.1289 25.0767 35.4702 25.0767C34.8114 25.0767 34.2773 24.538 34.2773 23.8734C34.2773 23.2089 34.8114 22.6702 35.4702 22.6702C36.1289 22.6702 36.663 23.2089 36.663 23.8734Z" fill="#3E7FFC"/>
<path d="M90.072 21.64V23.08C90.072 25.592 89.288 27.6 87.72 29.104C86.168 30.592 84.192 31.336 81.792 31.336C79.184 31.336 77.016 30.496 75.288 28.816C73.576 27.136 72.72 25.072 72.72 22.624C72.72 20.176 73.568 18.104 75.264 16.408C76.976 14.712 79.064 13.864 81.528 13.864C83.096 13.864 84.528 14.216 85.824 14.92C87.136 15.624 88.152 16.552 88.872 17.704L85.608 19.576C85.24 19 84.688 18.528 83.952 18.16C83.232 17.792 82.416 17.608 81.504 17.608C80.08 17.608 78.896 18.08 77.952 19.024C77.024 19.968 76.56 21.176 76.56 22.648C76.56 24.104 77.04 25.296 78 26.224C78.96 27.136 80.24 27.592 81.84 27.592C84.064 27.592 85.496 26.728 86.136 25H81.648V21.64H90.072ZM92.1169 31V13.48H95.7169V31H92.1169ZM108.623 29.512C107.391 30.728 105.887 31.336 104.111 31.336C102.335 31.336 100.831 30.728 99.5993 29.512C98.3673 28.28 97.7513 26.776 97.7513 25C97.7513 23.224 98.3673 21.728 99.5993 20.512C100.831 19.28 102.335 18.664 104.111 18.664C105.887 18.664 107.391 19.28 108.623 20.512C109.855 21.728 110.471 23.224 110.471 25C110.471 26.776 109.855 28.28 108.623 29.512ZM102.143 27.04C102.671 27.568 103.327 27.832 104.111 27.832C104.895 27.832 105.551 27.568 106.079 27.04C106.607 26.512 106.871 25.832 106.871 25C106.871 24.168 106.607 23.488 106.079 22.96C105.551 22.432 104.895 22.168 104.111 22.168C103.327 22.168 102.671 22.432 102.143 22.96C101.615 23.488 101.351 24.168 101.351 25C101.351 25.832 101.615 26.512 102.143 27.04ZM119.684 18.664C121.268 18.664 122.62 19.28 123.74 20.512C124.86 21.728 125.42 23.224 125.42 25C125.42 26.776 124.86 28.28 123.74 29.512C122.62 30.728 121.268 31.336 119.684 31.336C118.148 31.336 116.956 30.848 116.108 29.872V31H112.508V14.2H116.108V20.128C116.956 19.152 118.148 18.664 119.684 18.664ZM116.9 27.136C117.444 27.664 118.132 27.928 118.964 27.928C119.796 27.928 120.476 27.664 121.004 27.136C121.548 26.608 121.82 25.896 121.82 25C121.82 24.104 121.548 23.392 121.004 22.864C120.476 22.336 119.796 22.072 118.964 22.072C118.132 22.072 117.444 22.336 116.9 22.864C116.372 23.392 116.108 24.104 116.108 25C116.108 25.896 116.372 26.608 116.9 27.136ZM130.773 17.32C130.357 17.736 129.853 17.944 129.261 17.944C128.669 17.944 128.157 17.736 127.725 17.32C127.309 16.888 127.101 16.376 127.101 15.784C127.101 15.192 127.309 14.688 127.725 14.272C128.157 13.84 128.669 13.624 129.261 13.624C129.853 13.624 130.357 13.84 130.773 14.272C131.205 14.688 131.421 15.192 131.421 15.784C131.421 16.376 131.205 16.888 130.773 17.32ZM127.461 31V19H131.061V31H127.461ZM145.095 31H140.967L138.735 27.832L136.503 31H132.375L136.671 24.904L132.519 19H136.647L138.735 21.976L140.823 19H144.951L140.799 24.904L145.095 31ZM160.558 31.336C158.046 31.336 155.958 30.504 154.294 28.84C152.646 27.16 151.822 25.08 151.822 22.6C151.822 20.12 152.646 18.048 154.294 16.384C155.958 14.704 158.046 13.864 160.558 13.864C162.062 13.864 163.454 14.216 164.734 14.92C166.014 15.608 167.022 16.552 167.758 17.752L164.446 19.672C164.078 19.016 163.55 18.512 162.862 18.16C162.174 17.792 161.406 17.608 160.558 17.608C159.07 17.608 157.878 18.064 156.982 18.976C156.102 19.888 155.662 21.096 155.662 22.6C155.662 24.104 156.102 25.312 156.982 26.224C157.878 27.136 159.07 27.592 160.558 27.592C161.406 27.592 162.174 27.408 162.862 27.04C163.566 26.672 164.094 26.168 164.446 25.528L167.758 27.448C167.038 28.648 166.038 29.6 164.758 30.304C163.478 30.992 162.078 31.336 160.558 31.336ZM178.266 19H181.866V31H178.266V29.872C177.418 30.848 176.226 31.336 174.69 31.336C173.106 31.336 171.754 30.728 170.634 29.512C169.514 28.28 168.954 26.776 168.954 25C168.954 23.224 169.514 21.728 170.634 20.512C171.754 19.28 173.106 18.664 174.69 18.664C176.226 18.664 177.418 19.152 178.266 20.128V19ZM173.346 27.136C173.874 27.664 174.562 27.928 175.41 27.928C176.258 27.928 176.946 27.664 177.474 27.136C178.002 26.608 178.266 25.896 178.266 25C178.266 24.104 178.002 23.392 177.474 22.864C176.946 22.336 176.258 22.072 175.41 22.072C174.562 22.072 173.874 22.336 173.346 22.864C172.818 23.392 172.554 24.104 172.554 25C172.554 25.896 172.818 26.608 173.346 27.136ZM187.798 22.504C187.798 22.744 187.998 22.944 188.398 23.104C188.814 23.248 189.31 23.4 189.886 23.56C190.462 23.704 191.038 23.896 191.614 24.136C192.19 24.376 192.678 24.776 193.078 25.336C193.494 25.88 193.702 26.568 193.702 27.4C193.702 28.696 193.222 29.68 192.262 30.352C191.302 31.008 190.118 31.336 188.71 31.336C186.182 31.336 184.462 30.384 183.55 28.48L186.67 26.704C186.99 27.648 187.67 28.12 188.71 28.12C189.574 28.12 190.006 27.872 190.006 27.376C190.006 27.136 189.798 26.936 189.382 26.776C188.982 26.616 188.494 26.464 187.918 26.32C187.342 26.16 186.766 25.96 186.19 25.72C185.614 25.464 185.118 25.072 184.702 24.544C184.302 24.016 184.102 23.368 184.102 22.6C184.102 21.352 184.55 20.384 185.446 19.696C186.358 19.008 187.478 18.664 188.806 18.664C189.798 18.664 190.702 18.888 191.518 19.336C192.334 19.768 192.99 20.4 193.486 21.232L190.414 22.888C190.03 22.184 189.494 21.832 188.806 21.832C188.134 21.832 187.798 22.056 187.798 22.504ZM202.532 18.664C203.812 18.664 204.876 19.104 205.724 19.984C206.588 20.864 207.02 22.08 207.02 23.632V31H203.42V24.16C203.42 23.456 203.22 22.92 202.82 22.552C202.436 22.168 201.94 21.976 201.332 21.976C200.644 21.976 200.1 22.184 199.7 22.6C199.3 23.016 199.1 23.632 199.1 24.448V31H195.5V14.2H199.1V20.128C199.82 19.152 200.964 18.664 202.532 18.664Z" fill="#3579FC"/>
</svg>
