<svg width="28" height="24" viewBox="0 0 28 24" fill="none" xmlns="http://www.w3.org/2000/svg">
<path d="M5.49132 4.99382H4.55236C4.40149 4.99382 4.26631 4.90003 4.22452 4.75503C4.13018 4.42771 4.01518 3.87817 4.30124 3.8635C4.70931 3.84256 5.61963 3.81954 5.99631 3.89489C6.46717 3.98909 6.59273 4.11468 6.71829 4.20887C6.84385 4.30306 7.12636 4.67984 7.28331 4.96242C7.44026 5.245 7.56582 5.77876 7.62861 6.09274C7.69139 6.40672 7.56582 6.6579 7.18914 6.78349C6.97288 6.8556 6.77601 6.72718 6.64728 6.59089C6.5592 6.49764 6.50956 6.37673 6.46862 6.25516C6.38416 6.00434 6.26285 5.64847 6.18465 5.43339C6.14135 5.31428 6.07706 5.22202 6.01037 5.15307C5.879 5.01725 5.68026 4.99382 5.49132 4.99382Z" fill="#3E7FFC"/>
<path d="M8.43965 20.9006H7.5007H5.83702C5.83702 20.9006 5.42893 21.9786 5.837 21.9996C6.24507 22.0205 8.56796 22.0749 8.94465 21.9996C9.4155 21.9054 9.54106 21.7798 9.66662 21.6856C9.79218 21.5914 10.0747 21.2146 10.2316 20.932C10.3886 20.6495 10.5455 20.4717 10.6083 20.1578C10.6711 19.8438 10.6711 19.624 10.2944 19.4984C9.99306 19.3979 9.72938 19.4984 9.63521 19.6554C9.50965 19.8647 9.28992 20.2205 9.13299 20.4611C9.06677 20.5626 9.0018 20.6497 8.94171 20.7194C8.81823 20.8624 8.62859 20.9006 8.43965 20.9006Z" fill="#3E7FFC"/>
<path d="M22.168 16.1079H23.4795C23.5835 16.1079 23.6678 16.1923 23.6678 16.2963V16.9871C23.6678 17.1085 23.5695 17.2069 23.4481 17.2069H22.0639C21.9615 17.2069 21.8563 17.2027 21.7663 17.1538C21.6037 17.0656 21.4323 16.8779 21.4705 16.6103C21.4803 16.5414 21.494 16.4817 21.5101 16.4301C21.5918 16.1697 21.8951 16.1079 22.168 16.1079Z" fill="#3E7FFC"/>
<path d="M20.406 2.8955H21.345H23.0087C23.0087 2.8955 23.4168 1.81751 23.0087 1.79658C22.6006 1.77565 20.2777 1.72122 19.9011 1.79658C19.4302 1.89077 19.3046 2.01636 19.1791 2.11056C19.0535 2.20475 18.771 2.58152 18.6141 2.8641C18.4571 3.14668 18.3002 3.32441 18.2374 3.63839C18.1746 3.95237 18.1746 4.17215 18.5513 4.29774C18.8526 4.39822 19.1163 4.29774 19.2105 4.14076C19.3361 3.93144 19.5558 3.5756 19.7127 3.33507C19.7789 3.23357 19.8439 3.14639 19.904 3.07677C20.0275 2.93373 20.2171 2.8955 20.406 2.8955Z" fill="#3E7FFC"/>
<path fill-rule="evenodd" clip-rule="evenodd" d="M2.32288 5.77623C3.08568 5.77623 3.70405 5.15771 3.70405 4.39473C3.70405 3.63174 3.08568 3.01322 2.32288 3.01322C1.56008 3.01322 0.941707 3.63174 0.941707 4.39473C0.941707 5.15771 1.56008 5.77623 2.32288 5.77623ZM2.32288 6.71816C3.60577 6.71816 4.64576 5.67793 4.64576 4.39473C4.64576 3.11153 3.60577 2.07129 2.32288 2.07129C1.03999 2.07129 0 3.11153 0 4.39473C0 5.67793 1.03999 6.71816 2.32288 6.71816Z" fill="#3E7FFC"/>
<path fill-rule="evenodd" clip-rule="evenodd" d="M24.5468 3.70494C25.3096 3.70494 25.9279 3.08642 25.9279 2.32344C25.9279 1.56045 25.3096 0.941934 24.5468 0.941934C23.784 0.941934 23.1656 1.56045 23.1656 2.32344C23.1656 3.08642 23.784 3.70494 24.5468 3.70494ZM24.5468 4.64687C25.8296 4.64687 26.8696 3.60664 26.8696 2.32344C26.8696 1.04024 25.8296 0 24.5468 0C23.2639 0 22.2239 1.04024 22.2239 2.32344C22.2239 3.60664 23.2639 4.64687 24.5468 4.64687Z" fill="#3E7FFC"/>
<path fill-rule="evenodd" clip-rule="evenodd" d="M25.677 17.9603C26.4398 17.9603 27.0582 17.3418 27.0582 16.5788C27.0582 15.8158 26.4398 15.1973 25.677 15.1973C24.9142 15.1973 24.2958 15.8158 24.2958 16.5788C24.2958 17.3418 24.9142 17.9603 25.677 17.9603ZM25.677 18.9022C26.9599 18.9022 27.9999 17.862 27.9999 16.5788C27.9999 15.2956 26.9599 14.2554 25.677 14.2554C24.3941 14.2554 23.3541 15.2956 23.3541 16.5788C23.3541 17.862 24.3941 18.9022 25.677 18.9022Z" fill="#3E7FFC"/>
<path fill-rule="evenodd" clip-rule="evenodd" d="M4.07971 22.8583C4.84251 22.8583 5.46088 22.2397 5.46088 21.4768C5.46088 20.7138 4.84251 20.0953 4.07971 20.0953C3.31691 20.0953 2.69854 20.7138 2.69854 21.4768C2.69854 22.2397 3.31691 22.8583 4.07971 22.8583ZM4.07971 23.8002C5.3626 23.8002 6.40259 22.76 6.40259 21.4768C6.40259 20.1936 5.3626 19.1533 4.07971 19.1533C2.79682 19.1533 1.75684 20.1936 1.75684 21.4768C1.75684 22.76 2.79682 23.8002 4.07971 23.8002Z" fill="#3E7FFC"/>
<path fill-rule="evenodd" clip-rule="evenodd" d="M13.968 18.7762C17.834 18.7762 20.968 15.6414 20.968 11.7745C20.968 7.90755 17.834 4.77278 13.968 4.77278C10.102 4.77278 6.96794 7.90755 6.96794 11.7745C6.96794 15.6414 10.102 18.7762 13.968 18.7762ZM13.968 19.9065C18.4581 19.9065 22.098 16.2657 22.098 11.7745C22.098 7.28329 18.4581 3.64246 13.968 3.64246C9.47785 3.64246 5.83789 7.28329 5.83789 11.7745C5.83789 16.2657 9.47785 19.9065 13.968 19.9065Z" fill="#3E7FFC"/>
<path fill-rule="evenodd" clip-rule="evenodd" d="M21.6415 14.1705C15.33 18.079 8.7431 15.7987 6.2207 14.1643L6.83508 13.2157C9.13968 14.7089 15.237 16.8071 21.0467 13.2095L21.6415 14.1705Z" fill="#3E7FFC"/>
<path fill-rule="evenodd" clip-rule="evenodd" d="M21.6415 14.1705C15.33 18.079 8.7431 15.7987 6.2207 14.1643L6.83508 13.2157C9.13968 14.7089 15.237 16.8071 21.0467 13.2095L21.6415 14.1705Z" fill="#3E7FFC"/>
<path fill-rule="evenodd" clip-rule="evenodd" d="M21.6415 14.1705C15.33 18.079 8.7431 15.7987 6.2207 14.1643L6.83508 13.2157C9.13968 14.7089 15.237 16.8071 21.0467 13.2095L21.6415 14.1705Z" fill="#3E7FFC"/>
<path fill-rule="evenodd" clip-rule="evenodd" d="M21.6415 9.37843C15.33 5.46999 8.7431 7.75028 6.2207 9.38462L6.83508 10.3333C9.13968 8.84008 15.237 6.74181 21.0467 10.3395L21.6415 9.37843Z" fill="#3E7FFC"/>
<path fill-rule="evenodd" clip-rule="evenodd" d="M21.6415 9.37843C15.33 5.46999 8.7431 7.75028 6.2207 9.38462L6.83508 10.3333C9.13968 8.84008 15.237 6.74181 21.0467 10.3395L21.6415 9.37843Z" fill="#3E7FFC"/>
<path fill-rule="evenodd" clip-rule="evenodd" d="M21.6415 9.37843C15.33 5.46999 8.7431 7.75028 6.2207 9.38462L6.83508 10.3333C9.13968 8.84008 15.237 6.74181 21.0467 10.3395L21.6415 9.37843Z" fill="#3E7FFC"/>
<path fill-rule="evenodd" clip-rule="evenodd" d="M13.7805 13C14.942 13 15.8836 12.0582 15.8836 10.8964C15.8836 9.73457 14.942 8.79273 13.7805 8.79273C12.6189 8.79273 11.6773 9.73457 11.6773 10.8964C11.6773 12.0582 12.6189 13 13.7805 13ZM13.7805 13.7536C15.3581 13.7536 16.637 12.4744 16.637 10.8964C16.637 9.3184 15.3581 8.03918 13.7805 8.03918C12.2029 8.03918 10.924 9.3184 10.924 10.8964C10.924 12.4744 12.2029 13.7536 13.7805 13.7536Z" fill="#3E7FFC"/>
<path d="M15.1 14.2241C15.9475 13.659 15.8115 13.0938 15.8847 12.717L16.0161 11.4904C16.049 11.1836 16.2987 10.9455 16.6067 10.9274L16.6695 13.1566C16.6381 13.502 16.4309 14.2995 15.3511 14.9777C14.6743 15.4027 14.2253 15.48 13.956 15.4321C13.727 15.3913 13.656 15.1372 13.656 14.9046C13.656 14.8191 13.7155 14.7452 13.7984 14.7249C14.0804 14.6557 14.7155 14.4805 15.1 14.2241Z" fill="#3E7FFC"/>
<path fill-rule="evenodd" clip-rule="evenodd" d="M16.6274 10.9014C16.6337 10.9072 16.6374 10.9152 16.6376 10.9237L16.7004 13.1529C16.7004 13.1542 16.7004 13.1554 16.7003 13.1567C16.6681 13.5107 16.4563 14.3175 15.3673 15.0015C14.6877 15.4283 14.2304 15.5101 13.95 15.4602C13.8231 15.4376 13.7408 15.3554 13.6913 15.251C13.6422 15.1475 13.6241 15.0207 13.6241 14.9018C13.6241 14.8015 13.6938 14.7153 13.7905 14.6916C14.0729 14.6223 14.7028 14.4481 15.0821 14.1952C15.5005 13.9162 15.6736 13.6392 15.7523 13.3878C15.7918 13.2614 15.8079 13.1403 15.8187 13.0263C15.8213 12.9979 15.8237 12.9697 15.826 12.9419C15.8328 12.8599 15.8394 12.7812 15.8532 12.7096L15.9844 11.4843C16.0189 11.1622 16.2811 10.9123 16.6044 10.8932C16.6129 10.8927 16.6212 10.8957 16.6274 10.9014ZM16.5758 10.9587C16.2981 10.99 16.0769 11.2102 16.0468 11.491L15.9155 12.7176C15.9154 12.7185 15.9152 12.7194 15.9151 12.7203C15.9018 12.7886 15.8956 12.8628 15.8888 12.9442C15.8864 12.9726 15.884 13.0019 15.8812 13.0322C15.8703 13.1477 15.8537 13.2739 15.8122 13.4065C15.7287 13.6732 15.546 13.9614 15.1169 14.2475C14.7273 14.5073 14.087 14.6835 13.8054 14.7526C13.7361 14.7696 13.6869 14.8312 13.6869 14.9018C13.6869 15.0155 13.7044 15.1321 13.748 15.224C13.7912 15.315 13.8589 15.3802 13.961 15.3984C14.2192 15.4443 14.66 15.3716 15.3339 14.9483C16.4026 14.2771 16.6064 13.4906 16.6376 13.1528L16.5758 10.9587Z" fill="#3E7FFC"/>
<path fill-rule="evenodd" clip-rule="evenodd" d="M11.7313 4.03642C7.82382 10.3494 10.1036 16.9379 11.7375 19.4609L12.686 18.8464C11.1931 16.5413 9.09534 10.4424 12.6921 4.63141L11.7313 4.03642Z" fill="#3E7FFC"/>
<path fill-rule="evenodd" clip-rule="evenodd" d="M11.7313 4.03642C7.82382 10.3494 10.1036 16.9379 11.7375 19.4609L12.686 18.8464C11.1931 16.5413 9.09534 10.4424 12.6921 4.63141L11.7313 4.03642Z" fill="#3E7FFC"/>
<path fill-rule="evenodd" clip-rule="evenodd" d="M11.7313 4.03642C7.82382 10.3494 10.1036 16.9379 11.7375 19.4609L12.686 18.8464C11.1931 16.5413 9.09534 10.4424 12.6921 4.63141L11.7313 4.03642Z" fill="#3E7FFC"/>
<path d="M16.889 8.91679C16.718 7.81727 15.8202 5.83634 15.3573 4.91036C15.3324 4.86057 15.3195 4.80608 15.3195 4.75041C15.3195 4.55441 15.4783 4.39551 15.6743 4.39551H15.8344C16.0205 4.39551 16.1916 4.4961 16.2908 4.65354C16.4187 4.8565 16.5988 5.12374 16.7948 5.36884C17.1715 5.83981 17.9562 8.54002 18.1132 9.19937C18.2701 9.85872 17.7679 10.0471 17.7051 10.0471C17.6737 10.0471 17.1087 10.3297 16.889 8.91679Z" fill="#3E7FFC"/>
<path fill-rule="evenodd" clip-rule="evenodd" d="M15.2899 4.75105C15.2899 4.5377 15.4628 4.36475 15.6761 4.36475H15.8363C16.0338 4.36475 16.2147 4.47148 16.3192 4.63744C16.4467 4.83979 16.6261 5.10599 16.8212 5.34986C16.8705 5.41161 16.9252 5.50795 16.9833 5.62863C17.0416 5.74979 17.1041 5.89727 17.1687 6.06252C17.298 6.39304 17.4366 6.79601 17.5681 7.20447C17.8312 8.02127 18.0668 8.862 18.1456 9.19274C18.2263 9.53175 18.1379 9.75426 18.017 9.89186C17.9571 9.95999 17.8901 10.0064 17.8338 10.0358C17.8057 10.0506 17.78 10.0612 17.7588 10.0682C17.7401 10.0744 17.7226 10.0786 17.7096 10.0791C17.709 10.0793 17.7082 10.0795 17.7072 10.0797C17.7063 10.08 17.7052 10.0803 17.7038 10.0807C17.7029 10.081 17.7019 10.0813 17.7008 10.0816C17.6954 10.0832 17.6882 10.0853 17.6799 10.0875C17.6598 10.0928 17.6323 10.0988 17.5994 10.1011C17.5332 10.1059 17.446 10.0962 17.3531 10.0392C17.1682 9.92569 16.97 9.63096 16.8598 8.92225C16.7749 8.37639 16.509 7.60919 16.2054 6.86094C15.9021 6.1134 15.5622 5.38743 15.3311 4.92503C15.304 4.87092 15.2899 4.81162 15.2899 4.75105ZM17.7109 10.0788C17.7109 10.0788 17.7108 10.0788 17.7106 10.0789C17.7108 10.0788 17.7109 10.0788 17.7109 10.0788ZM15.6761 4.42754C15.4975 4.42754 15.3527 4.57238 15.3527 4.75105C15.3527 4.8018 15.3645 4.85149 15.3872 4.89695C15.619 5.36054 15.9595 6.08802 16.2636 6.83732C16.5673 7.58591 16.8357 8.35894 16.9218 8.9126C17.0314 9.61679 17.2256 9.88723 17.3859 9.98566C17.4657 10.0346 17.5393 10.0425 17.5948 10.0385C17.6227 10.0365 17.6463 10.0314 17.6639 10.0268C17.6713 10.0248 17.6775 10.023 17.6829 10.0214C17.684 10.0211 17.6852 10.0208 17.6863 10.0204C17.6892 10.0196 17.6923 10.0187 17.695 10.018L17.6951 10.018C17.697 10.0175 17.7018 10.0164 17.707 10.0164C17.7096 10.0164 17.7203 10.0148 17.7391 10.0086C17.7568 10.0027 17.7794 9.99343 17.8047 9.98019C17.8554 9.9537 17.9159 9.91179 17.9698 9.85041C18.0765 9.72897 18.1608 9.52762 18.0845 9.20728C18.0063 8.87866 17.7711 8.03961 17.5084 7.22372C17.377 6.81584 17.2389 6.41424 17.1103 6.08541C17.0459 5.92098 16.9841 5.77508 16.9267 5.65586C16.8691 5.53615 16.8169 5.44508 16.7721 5.38909C16.5751 5.14277 16.3943 4.87447 16.2661 4.67092C16.1723 4.52199 16.0108 4.42754 15.8363 4.42754H15.6761Z" fill="#3E7FFC"/>
<path d="M16.8274 14.7153C16.6565 15.8148 15.7587 17.7957 15.2958 18.7217C15.2709 18.7715 15.2579 18.826 15.2579 18.8817C15.2579 19.0777 15.4168 19.2366 15.6128 19.2366H15.7729C15.9589 19.2366 16.1301 19.136 16.2293 18.9785C16.3572 18.7756 16.5372 18.5083 16.7333 18.2632C17.11 17.7923 17.8947 15.0921 18.0517 14.4327C18.2086 13.7734 17.7064 13.585 17.6436 13.585C17.6122 13.585 17.0472 13.3024 16.8274 14.7153Z" fill="#3E7FFC"/>
<path fill-rule="evenodd" clip-rule="evenodd" d="M15.2238 18.8844C15.2238 19.0978 15.3967 19.2708 15.61 19.2708H15.7701C15.9676 19.2708 16.1485 19.164 16.2531 18.9981C16.3805 18.7957 16.5599 18.5295 16.755 18.2856C16.8044 18.2239 16.8591 18.1275 16.9171 18.0069C16.9754 17.8857 17.0379 17.7382 17.1026 17.573C17.2319 17.2425 17.3704 16.8395 17.502 16.431C17.765 15.6142 18.0007 14.7735 18.0794 14.4428C18.1601 14.1037 18.0717 13.8812 17.9508 13.7436C17.891 13.6755 17.8239 13.6291 17.7677 13.5997C17.7395 13.5849 17.7138 13.5743 17.6927 13.5673C17.6739 13.5611 17.6564 13.5569 17.6435 13.5564C17.6428 13.5562 17.6421 13.556 17.6411 13.5558C17.6401 13.5555 17.639 13.5552 17.6377 13.5548C17.6367 13.5545 17.6357 13.5542 17.6346 13.5539C17.6292 13.5523 17.622 13.5502 17.6137 13.548C17.5936 13.5427 17.5661 13.5367 17.5332 13.5344C17.4671 13.5296 17.3798 13.5393 17.2869 13.5963C17.102 13.7098 16.9039 14.0045 16.7936 14.7132C16.7087 15.2591 16.4428 16.0263 16.1392 16.7746C15.8359 17.5221 15.4961 18.2481 15.2649 18.7105C15.2379 18.7646 15.2238 18.8239 15.2238 18.8844ZM17.6447 13.5567C17.6447 13.5567 17.6446 13.5567 17.6444 13.5566C17.6446 13.5567 17.6447 13.5567 17.6447 13.5567ZM15.61 19.208C15.4313 19.208 15.2865 19.0631 15.2865 18.8844C15.2865 18.8337 15.2983 18.784 15.3211 18.7385C15.5528 18.275 15.8934 17.5475 16.1974 16.7982C16.5011 16.0496 16.7696 15.2766 16.8557 14.7229C16.9652 14.0187 17.1594 13.7483 17.3198 13.6498C17.3995 13.6009 17.4732 13.593 17.5287 13.597C17.5566 13.599 17.5801 13.6041 17.5978 13.6087C17.6051 13.6107 17.6113 13.6125 17.6167 13.6141C17.6179 13.6144 17.619 13.6147 17.6201 13.6151C17.623 13.6159 17.6261 13.6168 17.6288 13.6175L17.6289 13.6175C17.6308 13.618 17.6356 13.6191 17.6408 13.6191C17.6434 13.6191 17.6541 13.6207 17.6729 13.6269C17.6907 13.6328 17.7133 13.6421 17.7386 13.6553C17.7892 13.6818 17.8497 13.7237 17.9037 13.7851C18.0104 13.9065 18.0946 14.1079 18.0183 14.4282C17.9401 14.7568 17.7049 15.5959 17.4422 16.4118C17.3109 16.8197 17.1728 17.2213 17.0441 17.5501C16.9798 17.7145 16.9179 17.8604 16.8606 17.9796C16.803 18.0994 16.7508 18.1904 16.706 18.2464C16.509 18.4927 16.3282 18.761 16.1999 18.9646C16.1061 19.1135 15.9447 19.208 15.7701 19.208H15.61Z" fill="#3E7FFC"/>
<path d="M18.3308 11.8373C18.3308 12.1668 18.0637 12.4339 17.7344 12.4339C17.405 12.4339 17.1379 12.1668 17.1379 11.8373C17.1379 11.5078 17.405 11.2407 17.7344 11.2407C18.0637 11.2407 18.3308 11.5078 18.3308 11.8373Z" fill="#3E7FFC"/>
</svg>
