<svg width="166" height="34" viewBox="0 0 166 34" fill="none" xmlns="http://www.w3.org/2000/svg">
<path d="M7.84395 7.13226H6.5026C6.28707 7.13226 6.09396 6.99828 6.03426 6.79114C5.89948 6.32355 5.7352 5.5385 6.14386 5.51754C6.72681 5.48763 8.02725 5.45474 8.56536 5.56239C9.238 5.69695 9.41738 5.87636 9.59675 6.01092C9.77612 6.14548 10.1797 6.68373 10.4039 7.08741C10.6281 7.49109 10.8075 8.2536 10.8972 8.70213C10.9869 9.15067 10.8075 9.5095 10.2694 9.68891C9.96044 9.79192 9.67921 9.60847 9.49531 9.41377C9.36948 9.28056 9.29857 9.10783 9.24008 8.93416C9.11942 8.57586 8.94612 8.06747 8.83442 7.76021C8.77256 7.59007 8.68071 7.45826 8.58544 7.35976C8.39777 7.16573 8.11386 7.13226 7.84395 7.13226Z" fill="#3E7FFC"/>
<path d="M12.0592 29.8573H10.7178H8.34114C8.34114 29.8573 7.75816 31.3973 8.34112 31.4272C8.92407 31.4571 12.2424 31.5349 12.7806 31.4272C13.4532 31.2927 13.6326 31.1132 13.8119 30.9787C13.9913 30.8441 14.3949 30.3059 14.6191 29.9022C14.8433 29.4985 15.0675 29.2446 15.1572 28.7961C15.2469 28.3475 15.2469 28.0336 14.7088 27.8542C14.2783 27.7106 13.9016 27.8542 13.7671 28.0784C13.5877 28.3775 13.2738 28.8858 13.0496 29.2294C12.955 29.3744 12.8622 29.4989 12.7764 29.5984C12.6 29.8027 12.3291 29.8573 12.0592 29.8573Z" fill="#3E7FFC"/>
<path d="M31.6692 23.0117H33.5427C33.6913 23.0117 33.8118 23.1322 33.8118 23.2809V24.2677C33.8118 24.4411 33.6713 24.5817 33.4979 24.5817H31.5205C31.3742 24.5817 31.2239 24.5756 31.0953 24.5058C30.8631 24.3798 30.6182 24.1117 30.6728 23.7294C30.6868 23.6309 30.7063 23.5458 30.7294 23.472C30.8461 23.0999 31.2793 23.0117 31.6692 23.0117Z" fill="#3E7FFC"/>
<path d="M29.1518 4.1368H30.4931H32.8698C32.8698 4.1368 33.4528 2.59683 32.8698 2.56693C32.2869 2.53702 28.9685 2.45928 28.4304 2.56692C27.7577 2.70148 27.5784 2.8809 27.399 3.01546C27.2196 3.15002 26.816 3.68826 26.5918 4.09194C26.3676 4.49563 26.1434 4.74952 26.0537 5.19806C25.9641 5.64659 25.9641 5.96057 26.5022 6.13998C26.9327 6.28351 27.3093 6.13998 27.4439 5.91571C27.6232 5.61669 27.9371 5.10835 28.1613 4.76475C28.2559 4.61975 28.3487 4.49521 28.4346 4.39576C28.611 4.19141 28.8819 4.1368 29.1518 4.1368Z" fill="#3E7FFC"/>
<path fill-rule="evenodd" clip-rule="evenodd" d="M3.31836 8.25268C4.40806 8.25268 5.29144 7.36909 5.29144 6.27912C5.29144 5.18916 4.40806 4.30557 3.31836 4.30557C2.22866 4.30557 1.34528 5.18916 1.34528 6.27912C1.34528 7.36909 2.22866 8.25268 3.31836 8.25268ZM3.31836 9.59828C5.15104 9.59828 6.63672 8.11224 6.63672 6.27912C6.63672 4.446 5.15104 2.95996 3.31836 2.95996C1.48568 2.95996 0 4.446 0 6.27912C0 8.11224 1.48568 9.59828 3.31836 9.59828Z" fill="#3E7FFC"/>
<path fill-rule="evenodd" clip-rule="evenodd" d="M35.0693 5.29272C36.159 5.29272 37.0424 4.40912 37.0424 3.31916C37.0424 2.2292 36.159 1.34561 35.0693 1.34561C33.9796 1.34561 33.0963 2.2292 33.0963 3.31916C33.0963 4.40912 33.9796 5.29272 35.0693 5.29272ZM35.0693 6.63832C36.902 6.63832 38.3877 5.15228 38.3877 3.31916C38.3877 1.48604 36.902 0 35.0693 0C33.2367 0 31.751 1.48604 31.751 3.31916C31.751 5.15228 33.2367 6.63832 35.0693 6.63832Z" fill="#3E7FFC"/>
<path fill-rule="evenodd" clip-rule="evenodd" d="M36.6816 25.6579C37.7713 25.6579 38.6547 24.7744 38.6547 23.6844C38.6547 22.5944 37.7713 21.7108 36.6816 21.7108C35.5919 21.7108 34.7086 22.5944 34.7086 23.6844C34.7086 24.7744 35.5919 25.6579 36.6816 25.6579ZM36.6816 27.0036C38.5143 27.0036 40 25.5175 40 23.6844C40 21.8513 38.5143 20.3652 36.6816 20.3652C34.849 20.3652 33.3633 21.8513 33.3633 23.6844C33.3633 25.5175 34.849 27.0036 36.6816 27.0036Z" fill="#3E7FFC"/>
<path fill-rule="evenodd" clip-rule="evenodd" d="M5.83008 32.654C6.91978 32.654 7.80316 31.7705 7.80316 30.6805C7.80316 29.5905 6.91978 28.7069 5.83008 28.7069C4.74038 28.7069 3.857 29.5905 3.857 30.6805C3.857 31.7705 4.74038 32.654 5.83008 32.654ZM5.83008 33.9996C7.66276 33.9996 9.14844 32.5136 9.14844 30.6805C9.14844 28.8474 7.66276 27.3613 5.83008 27.3613C3.9974 27.3613 2.51172 28.8474 2.51172 30.6805C2.51172 32.5136 3.9974 33.9996 5.83008 33.9996Z" fill="#3E7FFC"/>
<path fill-rule="evenodd" clip-rule="evenodd" d="M19.957 26.8225C25.4798 26.8225 29.957 22.3443 29.957 16.8202C29.957 11.296 25.4798 6.81785 19.957 6.81785C14.4342 6.81785 9.95711 11.296 9.95711 16.8202C9.95711 22.3443 14.4342 26.8225 19.957 26.8225ZM19.957 28.4372C26.3714 28.4372 31.5713 23.2361 31.5713 16.8202C31.5713 10.4043 26.3714 5.20313 19.957 5.20313C13.5427 5.20312 8.34277 10.4043 8.34277 16.8202C8.34277 23.2361 13.5427 28.4372 19.957 28.4372Z" fill="#3E7FFC"/>
<path fill-rule="evenodd" clip-rule="evenodd" d="M30.9182 20.244C21.9019 25.8274 12.4921 22.5699 8.88867 20.2352L9.76634 18.8799C13.0586 21.0131 21.769 24.0106 30.0684 18.8711L30.9182 20.244Z" fill="#3E7FFC"/>
<path fill-rule="evenodd" clip-rule="evenodd" d="M30.9182 20.244C21.9019 25.8274 12.4921 22.5699 8.88867 20.2352L9.76634 18.8799C13.0586 21.0131 21.769 24.0106 30.0684 18.8711L30.9182 20.244Z" fill="#3E7FFC"/>
<path fill-rule="evenodd" clip-rule="evenodd" d="M30.9182 20.244C21.9019 25.8274 12.4921 22.5699 8.88867 20.2352L9.76634 18.8799C13.0586 21.0131 21.769 24.0106 30.0684 18.8711L30.9182 20.244Z" fill="#3E7FFC"/>
<path fill-rule="evenodd" clip-rule="evenodd" d="M30.9182 13.3986C21.9019 7.81515 12.4921 11.0727 8.88867 13.4074L9.76634 14.7626C13.0586 12.6295 21.769 9.63201 30.0684 14.7715L30.9182 13.3986Z" fill="#3E7FFC"/>
<path fill-rule="evenodd" clip-rule="evenodd" d="M30.9182 13.3986C21.9019 7.81515 12.4921 11.0727 8.88867 13.4074L9.76634 14.7626C13.0586 12.6295 21.769 9.63201 30.0684 14.7715L30.9182 13.3986Z" fill="#3E7FFC"/>
<path fill-rule="evenodd" clip-rule="evenodd" d="M30.9182 13.3986C21.9019 7.81515 12.4921 11.0727 8.88867 13.4074L9.76634 14.7626C13.0586 12.6295 21.769 9.63201 30.0684 14.7715L30.9182 13.3986Z" fill="#3E7FFC"/>
<path fill-rule="evenodd" clip-rule="evenodd" d="M19.6862 18.5712C21.3455 18.5712 22.6906 17.2258 22.6906 15.566C22.6906 13.9063 21.3455 12.5609 19.6862 12.5609C18.0268 12.5609 16.6817 13.9063 16.6817 15.566C16.6817 17.2258 18.0268 18.5712 19.6862 18.5712ZM19.6862 19.6477C21.9399 19.6477 23.7668 17.8203 23.7668 15.566C23.7668 13.3118 21.9399 11.4844 19.6862 11.4844C17.4325 11.4844 15.6055 13.3118 15.6055 15.566C15.6055 17.8203 17.4325 19.6477 19.6862 19.6477Z" fill="#3E7FFC"/>
<path d="M21.5706 20.319C22.7813 19.5116 22.587 18.7043 22.6916 18.166L22.8793 16.4137C22.9263 15.9754 23.2831 15.6353 23.723 15.6094L23.8127 18.794C23.7679 19.2874 23.4719 20.4266 21.9293 21.3955C20.9625 22.0027 20.321 22.113 19.9363 22.0446C19.6092 21.9864 19.5078 21.6233 19.5078 21.291C19.5078 21.1689 19.5927 21.0634 19.7113 21.0343C20.1141 20.9355 21.0214 20.6852 21.5706 20.319Z" fill="#3E7FFC"/>
<path fill-rule="evenodd" clip-rule="evenodd" d="M23.7523 15.5743C23.7612 15.5825 23.7665 15.594 23.7668 15.6061L23.8565 18.7907C23.8565 18.7925 23.8565 18.7942 23.8563 18.796C23.8103 19.3018 23.5078 20.4544 21.9521 21.4314C20.9812 22.0412 20.328 22.158 19.9274 22.0867C19.7461 22.0545 19.6286 21.937 19.5578 21.7878C19.4877 21.64 19.4619 21.4588 19.4619 21.289C19.4619 21.1457 19.5615 21.0226 19.6995 20.9887C20.1029 20.8898 21.0029 20.6409 21.5446 20.2797C22.1425 19.881 22.3896 19.4854 22.5021 19.1262C22.5586 18.9456 22.5816 18.7726 22.5969 18.6097C22.6007 18.5691 22.6041 18.5289 22.6074 18.4892C22.6171 18.372 22.6265 18.2596 22.6462 18.1573L22.8337 16.4069C22.883 15.9468 23.2575 15.5897 23.7193 15.5626C23.7314 15.5619 23.7433 15.5661 23.7523 15.5743ZM23.6785 15.6561C23.2818 15.7008 22.9658 16.0154 22.9229 16.4165L22.7352 18.1688C22.735 18.1701 22.7349 18.1713 22.7346 18.1726C22.7156 18.2701 22.7068 18.3761 22.6971 18.4924C22.6937 18.533 22.6903 18.5749 22.6862 18.6181C22.6707 18.7833 22.647 18.9635 22.5876 19.153C22.4684 19.5339 22.2073 19.9456 21.5944 20.3543C21.0378 20.7255 20.1231 20.9772 19.7209 21.0759C19.6219 21.1002 19.5516 21.1881 19.5516 21.289C19.5516 21.4515 19.5765 21.618 19.6389 21.7493C19.7006 21.8793 19.7973 21.9725 19.9431 21.9984C20.3119 22.064 20.9417 21.9601 21.9044 21.3555C23.4311 20.3966 23.7222 19.273 23.7668 18.7905L23.6785 15.6561Z" fill="#3E7FFC"/>
<path fill-rule="evenodd" clip-rule="evenodd" d="M16.7602 5.76599C11.1782 14.7845 14.4349 24.1965 16.7691 27.8008L18.124 26.9229C15.9914 23.6299 12.9946 14.9174 18.1328 6.61597L16.7602 5.76599Z" fill="#3E7FFC"/>
<path fill-rule="evenodd" clip-rule="evenodd" d="M16.7602 5.76599C11.1782 14.7845 14.4349 24.1965 16.7691 27.8008L18.124 26.9229C15.9914 23.6299 12.9946 14.9174 18.1328 6.61597L16.7602 5.76599Z" fill="#3E7FFC"/>
<path fill-rule="evenodd" clip-rule="evenodd" d="M16.7602 5.76599C11.1782 14.7845 14.4349 24.1965 16.7691 27.8008L18.124 26.9229C15.9914 23.6299 12.9946 14.9174 18.1328 6.61597L16.7602 5.76599Z" fill="#3E7FFC"/>
<path d="M24.1269 12.7382C23.8826 11.1675 22.6002 8.3376 21.9388 7.01479C21.9033 6.94367 21.8848 6.86582 21.8848 6.7863C21.8848 6.50629 22.1117 6.2793 22.3916 6.2793H22.6204C22.8862 6.2793 23.1307 6.423 23.2724 6.64791C23.4551 6.93785 23.7123 7.31962 23.9924 7.66976C24.5305 8.34256 25.6516 12.2 25.8758 13.1419C26.1 14.0838 25.3825 14.3529 25.2928 14.3529C25.248 14.3529 24.4408 14.7566 24.1269 12.7382Z" fill="#3E7FFC"/>
<path fill-rule="evenodd" clip-rule="evenodd" d="M21.8398 6.78623C21.8398 6.48145 22.0869 6.23438 22.3916 6.23438H22.6203C22.9025 6.23438 23.1609 6.38686 23.3103 6.62393C23.4924 6.91301 23.7487 7.29328 24.0273 7.64167C24.0979 7.72988 24.176 7.86751 24.2589 8.03991C24.3422 8.21299 24.4315 8.42368 24.5238 8.65974C24.7086 9.13191 24.9065 9.70757 25.0944 10.2911C25.4702 11.4579 25.8068 12.6589 25.9193 13.1314C26.0346 13.6157 25.9083 13.9336 25.7356 14.1302C25.6501 14.2275 25.5544 14.2938 25.474 14.3358C25.4338 14.3569 25.397 14.372 25.3668 14.382C25.34 14.3909 25.315 14.3969 25.2966 14.3976C25.2956 14.3979 25.2945 14.3982 25.2931 14.3986C25.2918 14.3989 25.2902 14.3994 25.2882 14.4C25.2869 14.4004 25.2855 14.4008 25.2839 14.4012C25.2762 14.4035 25.2659 14.4065 25.254 14.4096C25.2253 14.4172 25.186 14.4257 25.139 14.4291C25.0446 14.436 24.9199 14.4221 24.7872 14.3406C24.5231 14.1785 24.24 13.7575 24.0825 12.745C23.9612 11.9652 23.5814 10.8693 23.1476 9.80032C22.7143 8.73243 22.2289 7.69533 21.8986 7.03478C21.86 6.95748 21.8398 6.87276 21.8398 6.78623ZM25.2983 14.3972C25.2983 14.3972 25.2982 14.3973 25.2979 14.3973C25.2982 14.3972 25.2983 14.3972 25.2983 14.3972ZM22.3916 6.32408C22.1364 6.32408 21.9295 6.53099 21.9295 6.78623C21.9295 6.85873 21.9464 6.92972 21.9789 6.99466C22.31 7.65692 22.7964 8.69617 23.2307 9.76659C23.6646 10.836 24.0481 11.9403 24.1711 12.7312C24.3276 13.7372 24.605 14.1236 24.8341 14.2642C24.9481 14.3341 25.0532 14.3454 25.1325 14.3397C25.1724 14.3368 25.206 14.3295 25.2312 14.3229C25.2417 14.3201 25.2506 14.3175 25.2583 14.3153C25.26 14.3148 25.2616 14.3143 25.2632 14.3138C25.2673 14.3126 25.2717 14.3114 25.2756 14.3104L25.2757 14.3104C25.2784 14.3097 25.2853 14.308 25.2927 14.308C25.2964 14.308 25.3118 14.3058 25.3386 14.2969C25.364 14.2885 25.3962 14.2753 25.4324 14.2563C25.5048 14.2185 25.5912 14.1586 25.6682 14.071C25.8207 13.8975 25.941 13.6098 25.8321 13.1522C25.7203 12.6828 25.3844 11.4841 25.009 10.3186C24.8214 9.73591 24.6241 9.16219 24.4403 8.69244C24.3484 8.45754 24.26 8.24912 24.1781 8.0788C24.0959 7.90779 24.0213 7.77769 23.9573 7.69771C23.6758 7.34582 23.4176 6.96255 23.2344 6.67176C23.1004 6.45901 22.8697 6.32408 22.6203 6.32408H22.3916Z" fill="#3E7FFC"/>
<path d="M24.0371 21.0216C23.7928 22.5923 22.5103 25.4222 21.849 26.745C21.8134 26.8161 21.7949 26.894 21.7949 26.9735C21.7949 27.2535 22.0219 27.4805 22.3018 27.4805H22.5306C22.7964 27.4805 23.0409 27.3368 23.1826 27.1119C23.3652 26.8219 23.6225 26.4401 23.9025 26.09C24.4406 25.4172 25.5617 21.5598 25.7859 20.6179C26.0101 19.676 25.2927 19.4068 25.203 19.4068C25.1581 19.4068 24.351 19.0032 24.0371 21.0216Z" fill="#3E7FFC"/>
<path fill-rule="evenodd" clip-rule="evenodd" d="M21.748 26.9774C21.748 27.2822 21.9951 27.5293 22.2998 27.5293H22.5286C22.8107 27.5293 23.0691 27.3768 23.2185 27.1397C23.4006 26.8507 23.6569 26.4704 23.9355 26.122C24.0061 26.0338 24.0842 25.8962 24.1671 25.7238C24.2504 25.5507 24.3397 25.34 24.432 25.1039C24.6168 24.6318 24.8147 24.0561 25.0026 23.4726C25.3784 22.3057 25.715 21.1047 25.8275 20.6322C25.9428 20.1479 25.8165 19.8301 25.6438 19.6335C25.5583 19.5362 25.4626 19.4699 25.3822 19.4278C25.342 19.4068 25.3052 19.3916 25.275 19.3816C25.2482 19.3728 25.2232 19.3668 25.2048 19.366C25.2038 19.3658 25.2027 19.3655 25.2013 19.3651C25.2 19.3647 25.1984 19.3643 25.1964 19.3637C25.1951 19.3633 25.1937 19.3629 25.1921 19.3624C25.1844 19.3602 25.1741 19.3572 25.1622 19.354C25.1335 19.3465 25.0942 19.3379 25.0472 19.3345C24.9528 19.3277 24.8281 19.3416 24.6954 19.423C24.4313 19.5852 24.1482 20.0062 23.9907 21.0186C23.8694 21.7984 23.4896 22.8944 23.0558 23.9633C22.6225 25.0312 22.1371 26.0683 21.8069 26.7289C21.7682 26.8062 21.748 26.8909 21.748 26.9774ZM25.2065 19.3664C25.2065 19.3664 25.2064 19.3664 25.2061 19.3664C25.2064 19.3664 25.2065 19.3665 25.2065 19.3664ZM22.2998 27.4396C22.0446 27.4396 21.8377 27.2327 21.8377 26.9774C21.8377 26.9049 21.8546 26.834 21.8871 26.769C22.2182 26.1068 22.7046 25.0675 23.1389 23.9971C23.5728 22.9277 23.9563 21.8234 24.0793 21.0324C24.2358 20.0265 24.5132 19.6401 24.7423 19.4995C24.8563 19.4296 24.9614 19.4183 25.0407 19.424C25.0806 19.4269 25.1142 19.4341 25.1394 19.4408C25.1499 19.4435 25.1588 19.4461 25.1665 19.4484C25.1682 19.4489 25.1698 19.4494 25.1714 19.4498C25.1755 19.4511 25.1799 19.4523 25.1838 19.4533L25.1839 19.4533C25.1867 19.454 25.1936 19.4557 25.2009 19.4557C25.2046 19.4557 25.22 19.4579 25.2468 19.4668C25.2722 19.4752 25.3045 19.4884 25.3406 19.5073C25.413 19.5452 25.4994 19.605 25.5764 19.6927C25.7289 19.8662 25.8492 20.1538 25.7403 20.6115C25.6285 21.0809 25.2926 22.2796 24.9172 23.4451C24.7296 24.0278 24.5323 24.6015 24.3485 25.0712C24.2566 25.3061 24.1682 25.5146 24.0863 25.6849C24.0041 25.8559 23.9295 25.986 23.8655 26.066C23.584 26.4178 23.3258 26.8011 23.1426 27.0919C23.0086 27.3047 22.7779 27.4396 22.5286 27.4396H22.2998Z" fill="#3E7FFC"/>
<path d="M26.1864 16.9109C26.1864 17.3816 25.805 17.7632 25.3344 17.7632C24.8639 17.7632 24.4824 17.3816 24.4824 16.9109C24.4824 16.4402 24.8639 16.0586 25.3344 16.0586C25.805 16.0586 26.1864 16.4402 26.1864 16.9109Z" fill="#3E7FFC"/>
<path d="M67.06 15.1981V16.398C67.06 18.4914 66.4067 20.1647 65.1 21.418C63.8067 22.658 62.16 23.278 60.16 23.278C57.9867 23.278 56.18 22.578 54.74 21.178C53.3133 19.778 52.6 18.058 52.6 16.0181C52.6 13.9781 53.3067 12.2514 54.72 10.8381C56.1467 9.42472 57.8867 8.71805 59.94 8.71805C61.2467 8.71805 62.44 9.01139 63.52 9.59805C64.6133 10.1847 65.46 10.9581 66.06 11.9181L63.34 13.4781C63.0333 12.9981 62.5733 12.6047 61.96 12.2981C61.36 11.9914 60.68 11.8381 59.92 11.8381C58.7333 11.8381 57.7467 12.2314 56.96 13.0181C56.1867 13.8047 55.8 14.8114 55.8 16.038C55.8 17.2514 56.2 18.2447 57 19.018C57.8 19.778 58.8667 20.158 60.2 20.158C62.0533 20.158 63.2467 19.438 63.78 17.998H60.04V15.1981H67.06ZM68.7641 22.998V8.39805H71.7641V22.998H68.7641ZM82.5194 21.758C81.4927 22.7714 80.2394 23.278 78.7594 23.278C77.2794 23.278 76.026 22.7714 74.9994 21.758C73.9727 20.7314 73.4594 19.478 73.4594 17.998C73.4594 16.518 73.9727 15.2714 74.9994 14.2581C76.026 13.2314 77.2794 12.7181 78.7594 12.7181C80.2394 12.7181 81.4927 13.2314 82.5194 14.2581C83.546 15.2714 84.0594 16.518 84.0594 17.998C84.0594 19.478 83.546 20.7314 82.5194 21.758ZM77.1194 19.698C77.5594 20.138 78.106 20.358 78.7594 20.358C79.4127 20.358 79.9594 20.138 80.3994 19.698C80.8394 19.258 81.0594 18.6914 81.0594 17.998C81.0594 17.3047 80.8394 16.738 80.3994 16.298C79.9594 15.858 79.4127 15.638 78.7594 15.638C78.106 15.638 77.5594 15.858 77.1194 16.298C76.6794 16.738 76.4594 17.3047 76.4594 17.998C76.4594 18.6914 76.6794 19.258 77.1194 19.698ZM91.7362 12.7181C93.0562 12.7181 94.1829 13.2314 95.1162 14.2581C96.0496 15.2714 96.5162 16.518 96.5162 17.998C96.5162 19.478 96.0496 20.7314 95.1162 21.758C94.1829 22.7714 93.0562 23.278 91.7362 23.278C90.4562 23.278 89.4629 22.8714 88.7562 22.058V22.998H85.7562V8.99805H88.7562V13.9381C89.4629 13.1247 90.4562 12.7181 91.7362 12.7181ZM89.4162 19.778C89.8696 20.218 90.4429 20.438 91.1362 20.438C91.8296 20.438 92.3962 20.218 92.8362 19.778C93.2896 19.338 93.5162 18.7447 93.5162 17.998C93.5162 17.2514 93.2896 16.658 92.8362 16.218C92.3962 15.7781 91.8296 15.5581 91.1362 15.5581C90.4429 15.5581 89.8696 15.7781 89.4162 16.218C88.9762 16.658 88.7562 17.2514 88.7562 17.998C88.7562 18.7447 88.9762 19.338 89.4162 19.778ZM100.977 11.5981C100.63 11.9447 100.21 12.1181 99.7172 12.1181C99.2238 12.1181 98.7972 11.9447 98.4372 11.5981C98.0905 11.2381 97.9172 10.8114 97.9172 10.3181C97.9172 9.82472 98.0905 9.40472 98.4372 9.05805C98.7972 8.69805 99.2238 8.51805 99.7172 8.51805C100.21 8.51805 100.63 8.69805 100.977 9.05805C101.337 9.40472 101.517 9.82472 101.517 10.3181C101.517 10.8114 101.337 11.2381 100.977 11.5981ZM98.2172 22.998V12.9981H101.217V22.998H98.2172ZM112.912 22.998H109.472L107.612 20.358L105.752 22.998H102.312L105.892 17.918L102.432 12.9981H105.872L107.612 15.4781L109.352 12.9981H112.792L109.332 17.918L112.912 22.998ZM125.798 23.278C123.705 23.278 121.965 22.5847 120.578 21.198C119.205 19.798 118.518 18.0647 118.518 15.998C118.518 13.9314 119.205 12.2047 120.578 10.8181C121.965 9.41805 123.705 8.71805 125.798 8.71805C127.051 8.71805 128.211 9.01139 129.278 9.59805C130.345 10.1714 131.185 10.9581 131.798 11.9581L129.038 13.5581C128.731 13.0114 128.291 12.5914 127.718 12.2981C127.145 11.9914 126.505 11.8381 125.798 11.8381C124.558 11.8381 123.565 12.2181 122.818 12.9781C122.085 13.7381 121.718 14.7447 121.718 15.998C121.718 17.2514 122.085 18.258 122.818 19.018C123.565 19.778 124.558 20.158 125.798 20.158C126.505 20.158 127.145 20.0047 127.718 19.698C128.305 19.3914 128.745 18.9714 129.038 18.438L131.798 20.038C131.198 21.038 130.365 21.8314 129.298 22.418C128.231 22.9914 127.065 23.278 125.798 23.278ZM140.555 12.9981H143.555V22.998H140.555V22.058C139.849 22.8714 138.855 23.278 137.575 23.278C136.255 23.278 135.129 22.7714 134.195 21.758C133.262 20.7314 132.795 19.478 132.795 17.998C132.795 16.518 133.262 15.2714 134.195 14.2581C135.129 13.2314 136.255 12.7181 137.575 12.7181C138.855 12.7181 139.849 13.1247 140.555 13.9381V12.9981ZM136.455 19.778C136.895 20.218 137.469 20.438 138.175 20.438C138.882 20.438 139.455 20.218 139.895 19.778C140.335 19.338 140.555 18.7447 140.555 17.998C140.555 17.2514 140.335 16.658 139.895 16.218C139.455 15.7781 138.882 15.5581 138.175 15.5581C137.469 15.5581 136.895 15.7781 136.455 16.218C136.015 16.658 135.795 17.2514 135.795 17.998C135.795 18.7447 136.015 19.338 136.455 19.778ZM148.499 15.9181C148.499 16.118 148.665 16.2847 148.999 16.418C149.345 16.538 149.759 16.6647 150.239 16.798C150.719 16.918 151.199 17.078 151.679 17.278C152.159 17.478 152.565 17.8114 152.899 18.278C153.245 18.7314 153.419 19.3047 153.419 19.998C153.419 21.078 153.019 21.898 152.219 22.458C151.419 23.0047 150.432 23.278 149.259 23.278C147.152 23.278 145.719 22.4847 144.959 20.898L147.559 19.418C147.825 20.2047 148.392 20.598 149.259 20.598C149.979 20.598 150.339 20.3914 150.339 19.978C150.339 19.778 150.165 19.6114 149.819 19.478C149.485 19.3447 149.079 19.218 148.599 19.098C148.119 18.9647 147.639 18.798 147.159 18.598C146.679 18.3847 146.265 18.058 145.919 17.618C145.585 17.178 145.419 16.638 145.419 15.998C145.419 14.9581 145.792 14.1514 146.539 13.5781C147.299 13.0047 148.232 12.7181 149.339 12.7181C150.165 12.7181 150.919 12.9047 151.599 13.2781C152.279 13.6381 152.825 14.1647 153.239 14.8581L150.679 16.238C150.359 15.6514 149.912 15.358 149.339 15.358C148.779 15.358 148.499 15.5447 148.499 15.9181ZM160.776 12.7181C161.843 12.7181 162.73 13.0847 163.436 13.8181C164.156 14.5514 164.516 15.5647 164.516 16.858V22.998H161.516V17.298C161.516 16.7114 161.35 16.2647 161.016 15.958C160.696 15.638 160.283 15.4781 159.776 15.4781C159.203 15.4781 158.75 15.6514 158.416 15.998C158.083 16.3447 157.916 16.858 157.916 17.538V22.998H154.916V8.99805H157.916V13.9381C158.516 13.1247 159.47 12.7181 160.776 12.7181Z" fill="#3579FC"/>
</svg>
