<svg width="126" height="141" viewBox="0 0 126 141" fill="none" xmlns="http://www.w3.org/2000/svg">
<path d="M55.7894 96.3437C80.4159 96.3437 100.38 76.6758 100.38 52.4143C100.38 28.1527 80.4159 8.48486 55.7894 8.48486C31.1629 8.48486 11.1992 28.1527 11.1992 52.4143C11.1992 76.6758 31.1629 96.3437 55.7894 96.3437Z" fill="#F0F4FF"/>
<path d="M2.62064 60.3224C3.54968 60.3224 4.38582 59.5921 4.38582 58.588C4.38582 57.6751 3.64259 56.8535 2.62064 56.8535C1.6916 56.8535 0.855469 57.5838 0.855469 58.588C0.948373 59.5921 1.6916 60.3224 2.62064 60.3224Z" fill="url(#paint0_linear_5174_33743)"/>
<path d="M20.4722 92.9996C21.4012 92.9996 22.2374 92.2693 22.2374 91.2652C22.2374 90.261 21.4941 89.5308 20.4722 89.5308C19.5432 89.5308 18.707 90.261 18.707 91.2652C18.707 92.2693 19.5432 92.9996 20.4722 92.9996Z" fill="url(#paint1_linear_5174_33743)"/>
<path d="M113.642 34.6702C115.129 33.3009 115.314 30.9275 113.828 29.4669C112.434 27.9151 110.019 27.8238 108.532 29.2844C107.046 30.6537 106.86 33.0271 108.347 34.4877C109.833 35.9482 112.156 36.0395 113.642 34.6702Z" fill="#EAEEF9"/>
<path d="M108.996 19.1515C109.926 19.1515 110.669 18.4212 110.669 17.5084C110.669 16.5955 109.926 15.8652 108.996 15.8652C108.067 15.8652 107.324 16.5955 107.324 17.5084C107.417 18.4212 108.16 19.1515 108.996 19.1515Z" fill="url(#paint2_linear_5174_33743)"/>
<path d="M9.44968 47.2886C10.2804 47.0167 10.6495 46.201 10.4649 45.3854C10.1881 44.5698 9.35738 44.2073 8.5267 44.3885C7.69602 44.6604 7.32683 45.476 7.51143 46.2917C7.78832 47.1073 8.619 47.5604 9.44968 47.2886Z" fill="#EAEEF9"/>
<path d="M26.0326 6.74709C26.8111 6.74709 27.4422 6.127 27.4422 5.36207C27.4422 4.59715 26.8111 3.97705 26.0326 3.97705C25.2541 3.97705 24.623 4.59715 24.623 5.36207C24.623 6.127 25.2541 6.74709 26.0326 6.74709Z" fill="#FFCA3F"/>
<path d="M61.8027 24.6597C71.1335 26.6042 78.7596 32.9682 82.3483 41.4536" stroke="#738EFF" stroke-width="3" stroke-miterlimit="10" stroke-linecap="round" stroke-linejoin="round"/>
<path d="M48.5248 79.7265C36.2333 76.5444 27.082 65.4958 27.082 52.3258C27.082 51.9723 27.082 51.6187 27.082 51.2651" stroke="#738EFF" stroke-width="3" stroke-miterlimit="10" stroke-linecap="round" stroke-linejoin="round"/>
<path d="M62.8787 28.9022L59.918 24.306L64.5833 21.3892" stroke="#738EFF" stroke-width="3" stroke-miterlimit="10" stroke-linecap="round" stroke-linejoin="round"/>
<path d="M47.3556 75.1299L49.6883 80.0797L44.6641 82.4662" stroke="#738EFF" stroke-width="3" stroke-miterlimit="10" stroke-linecap="round" stroke-linejoin="round"/>
<g filter="url(#filter0_d_5174_33743)">
<path d="M92.0679 107.787L58.0658 100.544C57.5376 100.432 57.1757 99.879 57.2902 99.3597L67.8301 51.585C67.9447 51.0657 68.5071 50.7098 69.0353 50.8223L103.037 58.0647C103.566 58.1772 103.927 58.73 103.813 59.2493L93.2874 106.959C93.2245 107.557 92.6621 107.913 92.0679 107.787Z" fill="white"/>
</g>
<path d="M96.0116 75.8016L67.6215 69.7545C67.3574 69.6982 67.1362 69.4474 67.2078 69.123C67.265 68.8635 67.5203 68.6462 67.8505 68.7165L96.2406 74.7636C96.5047 74.8198 96.7258 75.0707 96.6542 75.3951C96.597 75.6546 96.2757 75.8578 96.0116 75.8016Z" fill="#E6ECF5"/>
<path d="M95.4256 78.4632L67.0355 72.4161C66.7714 72.3599 66.5503 72.109 66.6218 71.7846C66.6791 71.5251 66.9344 71.3078 67.2645 71.3781L95.6546 77.4252C95.9187 77.4814 96.1399 77.7323 96.0683 78.0567C95.9967 78.3811 95.6897 78.5194 95.4256 78.4632Z" fill="#E6ECF5"/>
<path d="M94.826 81.1888L66.4359 75.1417C66.1718 75.0854 65.9507 74.8346 66.0222 74.5102C66.0795 74.2507 66.3348 74.0334 66.6649 74.1037L95.055 80.1508C95.3191 80.207 95.5403 80.4579 95.4687 80.7823C95.3971 81.1066 95.0901 81.245 94.826 81.1888Z" fill="#E6ECF5"/>
<path d="M92.5093 91.3664L82.9359 89.3272C82.6718 89.271 82.4507 89.0201 82.5222 88.6957C82.5795 88.4363 82.8348 88.2189 83.1649 88.2893L92.7383 90.3284C93.0024 90.3846 93.2236 90.6355 93.152 90.9599C93.0287 91.2053 92.7734 91.4226 92.5093 91.3664Z" fill="#E6ECF5"/>
<path d="M76.443 90.8673C77.1646 87.2831 74.838 83.7293 71.1406 82.9417L71.0746 82.9277C67.3773 82.1402 63.7475 84.4932 62.9456 88.1283C62.1436 91.7633 64.522 95.3961 68.2193 96.1836C70.266 96.6196 72.2491 96.0905 73.8043 94.9946C75.1184 94.0512 76.042 92.6848 76.4144 90.9971C76.4287 90.9322 76.443 90.8673 76.443 90.8673ZM68.7062 93.9767C66.1973 93.4423 64.5945 90.9941 65.1387 88.5274C65.6828 86.0608 68.1735 84.4845 70.6824 85.0189L70.7484 85.033C73.2573 85.5674 74.8084 87.9366 74.3446 90.3524C74.3302 90.4173 74.3302 90.4173 74.3159 90.4822C74.0725 91.5857 73.4472 92.5399 72.5491 93.1641C71.41 93.9409 70.0927 94.272 68.7062 93.9767Z" fill="#E6EDF5"/>
<path d="M76.4445 90.8669L74.2658 90.4028C74.7296 87.987 73.1785 85.6178 70.6696 85.0834L70.6036 85.0693L71.0762 82.9272L71.1422 82.9413C74.8395 83.7288 77.1805 87.2178 76.4445 90.8669Z" fill="url(#paint3_linear_5174_33743)"/>
<path d="M76.4294 90.9316C76.0571 92.6193 75.1335 93.9857 73.8194 94.9291L72.4695 93.2144C73.3676 92.5902 73.9929 91.636 74.2363 90.5325C74.2507 90.4676 74.2507 90.4676 74.265 90.4026L76.4438 90.8667L76.4294 90.9316Z" fill="url(#paint4_linear_5174_33743)"/>
<path d="M80.5831 89.0295C80.9842 89.115 81.3799 88.8645 81.4669 88.4702C81.5539 88.0758 81.2992 87.6869 80.8981 87.6015C80.497 87.516 80.1013 87.7665 80.0143 88.1608C79.9274 88.5551 80.182 88.9441 80.5831 89.0295Z" fill="#E6ECF5"/>
<path d="M91.8531 94.3517L82.2797 92.3126C82.0156 92.2563 81.7944 92.0055 81.866 91.6811C81.9232 91.4216 82.1785 91.2043 82.5087 91.2746L92.0821 93.3137C92.3462 93.37 92.5673 93.6209 92.4958 93.9452C92.3725 94.1907 92.1172 94.408 91.8531 94.3517Z" fill="#E6ECF5"/>
<path d="M79.9268 92.0158C80.3279 92.1013 80.7236 91.8509 80.8106 91.4565C80.8976 91.0622 80.643 90.6732 80.2419 90.5878C79.8408 90.5024 79.4451 90.7528 79.3581 91.1471C79.2711 91.5415 79.5257 91.9304 79.9268 92.0158Z" fill="url(#paint5_linear_5174_33743)"/>
<path d="M91.1929 97.3376L81.6195 95.2984C81.3554 95.2422 81.1343 94.9913 81.2058 94.6669C81.2631 94.4074 81.5184 94.1901 81.8485 94.2605L91.4219 96.2996C91.686 96.3558 91.9072 96.6067 91.8356 96.9311C91.7123 97.1765 91.457 97.3938 91.1929 97.3376Z" fill="#E6ECF5"/>
<path d="M79.2628 95.0012C79.6639 95.0866 80.0596 94.8362 80.1466 94.4419C80.2336 94.0475 79.9789 93.6586 79.5778 93.5731C79.1767 93.4877 78.781 93.7381 78.694 94.1325C78.607 94.5268 78.8617 94.9158 79.2628 95.0012Z" fill="url(#paint6_linear_5174_33743)"/>
<path d="M68.0792 66.1137L97.2616 72.3296L99.825 60.7105L94.7021 61.9979L91.8869 63.1653L87.5437 62.1722L83.2847 63.3039L79.8833 63.0552L78.4084 64.1002L74.5026 65.511L71.0066 65.378L68.0792 66.1137Z" fill="url(#paint7_linear_5174_33743)"/>
<path d="M68.0817 66.1141L97.2641 72.3299L99.2117 63.502L94.2177 64.2052L91.4884 64.9831L87.1452 63.9901L82.9865 64.6674L79.5994 64.3537L78.2105 65.0093L74.4049 65.9657L70.9375 65.7029L68.0817 66.1141Z" fill="#E6EDF5"/>
<path d="M68.0809 66.1149L97.2633 72.3307L98.366 67.3325L93.5295 67.3218L90.9291 67.5155L86.5716 66.5873L82.5704 66.5506L79.2119 66.1071L77.9089 66.3733L74.2752 66.5507L70.8507 66.0932L68.0809 66.1149Z" fill="#CED7E2"/>
<path d="M17.6844 42.605L14.7178 42.1548L14.4004 40.3096L18.5536 40.9398L17.6844 42.605Z" fill="#1C3754"/>
<path d="M40.9285 46.1328L37.962 45.6826L37.6445 43.8374L41.7977 44.4677L40.9285 46.1328Z" fill="#1C3754"/>
<path d="M45.6525 45.3514L10.5286 40.0211C9.2233 39.823 8.34594 38.6416 8.54825 37.3545L14.0567 2.30997C14.259 1.02286 15.4582 0.156591 16.7635 0.354676L51.8874 5.68496C53.1927 5.88305 54.0701 7.06446 53.8677 8.35157L48.3593 43.3961C48.1616 44.654 46.9281 45.545 45.6525 45.3514Z" fill="#2D5887"/>
<path d="M43.3621 42.3364L13.5779 37.8165C12.1243 37.5959 11.1216 36.2457 11.3469 34.8123L16.0185 5.09176C16.2438 3.65838 17.6144 2.66836 19.068 2.88895L48.8521 7.40889C50.3057 7.62949 51.3084 8.97967 51.0831 10.413L46.4115 40.1336C46.1862 41.567 44.8157 42.557 43.3621 42.3364ZM18.8656 4.17606C18.124 4.06352 17.4387 4.55853 17.3238 5.28984L12.6522 35.0104C12.5373 35.7417 13.0386 36.4168 13.7802 36.5294L43.5644 41.0493C44.306 41.1618 44.9913 40.6668 45.1062 39.9355L49.7778 10.215C49.8928 9.48364 49.3914 8.80855 48.6498 8.696L18.8656 4.17606Z" fill="#1C3754"/>
<path d="M48.3466 15.2705L48.7559 12.667L51.1588 13.0316L50.0368 20.1693L47.6339 19.8046L47.7259 19.2196" fill="#1C3754"/>
<path d="M48.5357 29.706L46.1328 29.3413L45.0063 36.5082L47.4092 36.8728L48.5357 29.706Z" fill="#1C3754"/>
<path d="M35.5586 27.8264C36.3195 27.0433 36.8456 26.015 37.0295 24.8449C37.2042 23.7333 37.0434 22.6307 36.5881 21.6631L41.1451 18.3712C41.6248 18.0247 41.726 17.3812 41.3704 16.9379C41.0195 16.4653 40.3668 16.3663 39.8871 16.7128L35.3894 20.0136C34.596 19.2643 33.6129 18.7557 32.456 18.5801C31.2693 18.4 30.1119 18.6137 29.1208 19.1222L25.7321 14.5946C25.3812 14.122 24.7285 14.023 24.2488 14.3695C23.7692 14.716 23.668 15.3596 24.0235 15.8029L27.4327 20.3935C26.7654 21.1608 26.2827 22.1058 26.1126 23.1882C25.9379 24.2998 26.1283 25.4069 26.554 26.37L21.8257 29.7856C21.346 30.1321 21.2448 30.7757 21.6004 31.219C21.7759 31.4553 22.0291 31.5835 22.296 31.624C22.563 31.6646 22.8438 31.6173 23.0837 31.4441L27.812 28.0285C28.6054 28.7778 29.5885 29.2864 30.7455 29.462C31.8431 29.6286 32.932 29.4644 33.8796 29.0391L37.2888 33.6297C37.4643 33.866 37.7175 33.9943 37.9845 34.0348C38.2515 34.0753 38.5322 34.0281 38.7721 33.8548C39.2518 33.5083 39.3529 32.8648 38.9974 32.4215L35.5586 27.8264Z" fill="#1C3754"/>
<path d="M35.166 26.6589C35.9269 25.8758 36.453 24.8475 36.6369 23.6774C36.8117 22.5658 36.6509 21.4632 36.1955 20.4956L40.7525 17.2038C41.2322 16.8573 41.3334 16.2137 40.9778 15.7704C40.6269 15.2978 39.9743 15.1988 39.4946 15.5453L35.0015 18.8169C34.208 18.0675 33.2249 17.5589 32.068 17.3833C30.8814 17.2033 29.724 17.417 28.7328 17.9255L25.3441 13.3979C24.9932 12.9253 24.3406 12.8263 23.8609 13.1728C23.3812 13.5193 23.28 14.1628 23.6356 14.6062L27.0447 19.1968C26.3774 19.9641 25.8948 20.9091 25.7246 21.9915C25.5499 23.1031 25.7404 24.2102 26.1661 25.1733L21.4331 28.6181C20.9534 28.9646 20.8523 29.6082 21.2078 30.0515C21.3833 30.2878 21.6365 30.416 21.9035 30.4566C22.1705 30.4971 22.4512 30.4498 22.6911 30.2766L27.4194 26.861C28.2128 27.6104 29.196 28.119 30.3529 28.2945C31.4505 28.4611 32.5394 28.2969 33.4871 27.8717L36.8962 32.4623C37.0717 32.6985 37.3249 32.8268 37.5919 32.8673C37.8589 32.9079 38.1397 32.8606 38.3795 32.6874C38.8592 32.3409 38.9604 31.6973 38.6048 31.254L35.166 26.6589Z" fill="#E6EDF5"/>
<path d="M30.8909 24.8724C32.0214 25.0439 33.0799 24.2793 33.2551 23.1646C33.4303 22.0498 32.6559 21.0071 31.5254 20.8355C30.395 20.664 29.3365 21.4286 29.1613 22.5433C28.986 23.6581 29.7604 24.7008 30.8909 24.8724Z" fill="#CED7E2"/>
<path opacity="0.1" d="M34.6717 40.2397L27.1074 39.0918L27.0845 39.2377L34.6488 40.3857L34.6717 40.2397Z" fill="#4F3500"/>
<defs>
<filter id="filter0_d_5174_33743" x="35.2695" y="39.8013" width="90.5645" height="101.011" filterUnits="userSpaceOnUse" color-interpolation-filters="sRGB">
<feFlood flood-opacity="0" result="BackgroundImageFix"/>
<feColorMatrix in="SourceAlpha" type="matrix" values="0 0 0 0 0 0 0 0 0 0 0 0 0 0 0 0 0 0 127 0" result="hardAlpha"/>
<feOffset dy="11"/>
<feGaussianBlur stdDeviation="11"/>
<feColorMatrix type="matrix" values="0 0 0 0 0.397708 0 0 0 0 0.47749 0 0 0 0 0.575 0 0 0 0.18 0"/>
<feBlend mode="normal" in2="BackgroundImageFix" result="effect1_dropShadow_5174_33743"/>
<feBlend mode="normal" in="SourceGraphic" in2="effect1_dropShadow_5174_33743" result="shape"/>
</filter>
<linearGradient id="paint0_linear_5174_33743" x1="0.923196" y1="58.5969" x2="4.22138" y2="58.5969" gradientUnits="userSpaceOnUse">
<stop stop-color="#83A6FF"/>
<stop offset="1" stop-color="#5A78FF"/>
</linearGradient>
<linearGradient id="paint1_linear_5174_33743" x1="18.7454" y1="91.2693" x2="22.0436" y2="91.2693" gradientUnits="userSpaceOnUse">
<stop stop-color="#FF66A9"/>
<stop offset="1" stop-color="#F53689"/>
</linearGradient>
<linearGradient id="paint2_linear_5174_33743" x1="107.463" y1="17.5276" x2="110.561" y2="17.5276" gradientUnits="userSpaceOnUse">
<stop stop-color="#83A6FF"/>
<stop offset="1" stop-color="#5A78FF"/>
</linearGradient>
<linearGradient id="paint3_linear_5174_33743" x1="70.396" y1="86.1509" x2="77.1298" y2="87.6365" gradientUnits="userSpaceOnUse">
<stop stop-color="#FF66A9"/>
<stop offset="1" stop-color="#F53689"/>
</linearGradient>
<linearGradient id="paint4_linear_5174_33743" x1="72.6614" y1="92.3535" x2="75.9314" y2="93.0749" gradientUnits="userSpaceOnUse">
<stop stop-color="#83A6FF"/>
<stop offset="1" stop-color="#5A78FF"/>
</linearGradient>
<linearGradient id="paint5_linear_5174_33743" x1="79.4047" y1="91.1545" x2="80.8082" y2="91.4642" gradientUnits="userSpaceOnUse">
<stop stop-color="#FF66A9"/>
<stop offset="1" stop-color="#F53689"/>
</linearGradient>
<linearGradient id="paint6_linear_5174_33743" x1="78.7396" y1="94.1447" x2="80.1431" y2="94.4543" gradientUnits="userSpaceOnUse">
<stop stop-color="#83A6FF"/>
<stop offset="1" stop-color="#5A78FF"/>
</linearGradient>
<linearGradient id="paint7_linear_5174_33743" x1="69.3871" y1="60.3075" x2="98.523" y2="66.7353" gradientUnits="userSpaceOnUse">
<stop stop-color="#FF66A9"/>
<stop offset="1" stop-color="#F53689"/>
</linearGradient>
</defs>
</svg>
