<svg width="24" height="24" viewBox="0 0 24 24" fill="none" xmlns="http://www.w3.org/2000/svg">
<path fill-rule="evenodd" clip-rule="evenodd" d="M13.5969 19.2001C18.457 19.2001 22.3969 15.2602 22.3969 10.4001C22.3969 5.53999 18.457 1.6001 13.5969 1.6001C8.73677 1.6001 4.79688 5.53999 4.79688 10.4001C4.79688 15.2602 8.73677 19.2001 13.5969 19.2001Z" stroke="#4B5563" stroke-width="1.5" stroke-linecap="round"/>
<path d="M23.1977 23.2001C23.1977 23.2001 19.931 22.0001 16.3977 22.0001C13.6302 22.0001 6.36416 22.7362 3.34409 23.0554C2.5928 23.1348 1.91281 22.6062 1.80597 21.8583V21.8583C1.69269 21.0653 2.26688 20.3393 3.0646 20.2667L4.75514 20.1131C5.55071 20.0407 6.28497 19.6553 6.79638 19.0416L7.99766 17.6001" stroke="#4B5563" stroke-width="1.5" stroke-linecap="round"/>
<path d="M7.99609 16.8001C7.99609 16.8001 11.1961 6.00008 21.5961 7.20008" stroke="#4B5563" stroke-width="1.5" stroke-linecap="round"/>
<path d="M11.1992 18.8001C11.1992 18.8001 11.9992 9.6001 21.9992 9.6001" stroke="#4B5563" stroke-width="1.5" stroke-linecap="round"/>
<path d="M14.3984 18.8001C14.3984 18.8001 15.1984 12.4001 21.5984 12.8001" stroke="#4B5563" stroke-width="1.5" stroke-linecap="round"/>
<path d="M5.59766 7.20007C5.59766 7.20007 9.59766 7.20007 11.5977 9.60007" stroke="#4B5563" stroke-width="1.5" stroke-linecap="round"/>
<path d="M8.79688 3.20007C8.79688 3.20007 13.9969 4.00007 15.9969 7.20007" stroke="#4B5563" stroke-width="1.5" stroke-linecap="round"/>
</svg>
