<svg width="70" height="66" viewBox="0 0 70 66" fill="none" xmlns="http://www.w3.org/2000/svg">
<path d="M16.0979 63.8421C9.92568 61.9797 5.46169 56.9585 4.78468 51.224C3.99575 44.6829 8.76401 41.9308 11.8837 42.0949C13.9942 42.2322 15.8091 44.0299 15.3317 45.9702C14.4508 49.4358 7.04167 50.3073 4.21687 45.8484C3.18259 44.2036 3.06248 42.0542 3.90745 40.2253C5.29493 37.1089 8.95165 35.0901 12.3358 33.4914C13.098 33.1454 13.8603 32.7994 14.6836 32.4347C16.5133 31.6492 18.7547 30.6813 21.2559 29.6897" stroke="#84A1FF" stroke-width="1.5" stroke-miterlimit="10" stroke-linecap="round" stroke-linejoin="round" stroke-dasharray="2 5"/>
<path d="M33.8289 24.6778L30.6105 27.6284C30.0081 28.1404 29.1628 27.8544 28.92 27.0563L27.3068 19.2619" fill="#667FFF"/>
<path d="M64.9746 2.79796L62.9228 4.95441L41.4579 27.6817C40.4815 28.7447 38.874 28.8015 37.7476 27.9474L29.102 20.8925L27.3668 19.4616L22.5798 15.4766C21.5524 14.592 21.8897 12.8525 23.208 12.5572L60.2575 4.02693L64.9746 2.79796Z" fill="#84A1FF"/>
<path d="M64.9731 2.79801L62.9212 4.95446L29.1692 20.7624L27.3349 19.3618L60.3247 3.89683L64.9731 2.79801Z" fill="#667FFF"/>
</svg>
