<svg width="159" height="142" viewBox="0 0 159 142" fill="none" xmlns="http://www.w3.org/2000/svg">
<path d="M80.3806 118C111.812 118 137.292 92.4802 137.292 61C137.292 29.5198 111.812 4 80.3806 4C48.9491 4 23.4688 29.5198 23.4688 61C23.4688 92.4802 48.9491 118 80.3806 118Z" fill="#EAEEF9"/>
<path d="M25.4923 27.6109C26.9959 27.1214 27.8186 25.5038 27.3299 23.9979C26.8412 22.492 25.2261 21.668 23.7225 22.1575C22.2189 22.6469 21.3962 24.2645 21.8849 25.7704C22.3736 27.2763 23.9887 28.1003 25.4923 27.6109Z" fill="#EAEEF9"/>
<path d="M31.7422 18.2558C32.7647 17.923 33.3241 16.823 32.9918 15.799C32.6595 14.775 31.5612 14.2147 30.5388 14.5475C29.5164 14.8803 28.9569 15.9803 29.2892 17.0043C29.6215 18.0283 30.7198 18.5887 31.7422 18.2558Z" fill="#EAEEF9"/>
<path d="M137.786 29.4306C139.56 27.8069 139.684 25.0503 138.063 23.2735C136.442 21.4966 133.689 21.3726 131.915 22.9963C130.141 24.62 130.017 27.3767 131.639 29.1535C133.26 30.9303 136.012 31.0544 137.786 29.4306Z" fill="#EAEEF9"/>
<path d="M134.817 91.6696C135.564 90.9859 135.616 89.8252 134.933 89.077C134.251 88.3289 133.092 88.2767 132.345 88.9603C131.598 89.644 131.546 90.8047 132.228 91.5529C132.911 92.301 134.07 92.3532 134.817 91.6696Z" fill="#EAEEF9"/>
<path d="M37.0949 108.366C38.3598 108.366 39.3851 107.339 39.3851 106.073C39.3851 104.806 38.3598 103.779 37.0949 103.779C35.8301 103.779 34.8047 104.806 34.8047 106.073C34.8047 107.339 35.8301 108.366 37.0949 108.366Z" fill="#D4DDE5"/>
<path d="M124.465 10.1932C125.477 10.1932 126.297 9.37165 126.297 8.3582C126.297 7.34476 125.477 6.52319 124.465 6.52319C123.453 6.52319 122.633 7.34476 122.633 8.3582C122.633 9.37165 123.453 10.1932 124.465 10.1932Z" fill="#ADB6C8"/>
<g filter="url(#filter0_d_4194_27596)">
<path d="M136.722 53.5452L117.599 103.893C116.912 105.614 114.965 106.416 113.362 105.728L64.6947 86.5753C62.9771 85.8872 62.1755 83.9375 62.8626 82.3319L88.1695 17.8772C88.8565 16.1568 90.8032 15.354 92.4064 16.0421L127.676 29.9194L136.722 53.5452Z" fill="white"/>
</g>
<path d="M114.739 84.8551L85.5384 73.3863C85.0804 73.2716 84.9659 72.8129 85.0804 72.3541C85.1949 71.8954 85.6529 71.7807 86.111 71.8954L115.311 83.3642C115.769 83.4789 115.884 83.9376 115.769 84.3964C115.54 84.7404 115.082 84.9698 114.739 84.8551Z" fill="#E3EAF2"/>
<path d="M81.8711 71.8953L76.7181 69.8309C76.26 69.7162 76.1455 69.2575 76.2601 68.7987C76.3746 68.34 76.8326 68.2253 77.2906 68.3399L82.4436 70.4043C82.9017 70.519 83.0162 70.9778 82.9017 71.4365C82.7872 71.8953 82.3291 72.01 81.8711 71.8953Z" fill="#E3EAF2"/>
<path d="M117.71 76.9416L104.656 71.7806C104.198 71.6659 104.083 71.2072 104.198 70.7484C104.312 70.2897 104.77 70.175 105.228 70.2897L118.282 75.4506C118.74 75.5653 118.855 76.0241 118.74 76.4828C118.626 76.9416 118.168 77.0563 117.71 76.9416Z" fill="#E3EAF2"/>
<path d="M99.1644 69.6015L80.1556 62.1468C79.6975 62.0321 79.583 61.5734 79.6976 61.1146C79.8121 60.6559 80.2701 60.5412 80.7281 60.6559L99.7369 68.1106C100.195 68.2253 100.309 68.684 100.195 69.1428C100.08 69.6015 99.6224 69.7162 99.1644 69.6015Z" fill="#E3EAF2"/>
<path d="M121.038 69.1427L115.999 67.193C115.541 67.0783 115.427 66.6195 115.541 66.1608C115.656 65.702 116.114 65.5873 116.572 65.702L121.61 67.6517C122.068 67.7664 122.183 68.2252 122.068 68.6839C121.954 69.1427 121.496 69.2573 121.038 69.1427Z" fill="#E3EAF2"/>
<path d="M111.302 65.2433L83.4759 54.2332C83.0179 54.1185 82.9034 53.6598 83.0179 53.201C83.1324 52.7423 83.5904 52.6276 84.0485 52.7423L111.875 63.7524C112.333 63.867 112.447 64.3258 112.333 64.7845C112.218 65.2433 111.76 65.4727 111.302 65.2433Z" fill="#E3EAF2"/>
<path d="M89.2014 84.7405L87.4837 84.0523C87.0257 83.9376 86.9112 83.4789 87.0257 83.0201C87.1402 82.5614 87.5982 82.4467 88.0563 82.5614L89.7739 83.2495C90.232 83.3642 90.3465 83.823 90.232 84.2817C90.003 84.7405 89.5449 84.8551 89.2014 84.7405Z" fill="#E3EAF2"/>
<path d="M84.2741 82.7905L73.9681 78.6617C73.5101 78.547 73.3955 78.0883 73.5101 77.6295C73.6246 77.1708 74.0826 77.0561 74.5407 77.1708L84.8466 81.2995C85.3047 81.4142 85.4192 81.873 85.3047 82.3317C85.1902 82.7905 84.6176 82.9052 84.2741 82.7905Z" fill="#E3EAF2"/>
<path d="M124.47 61.3439L106.492 54.2332C106.033 54.1185 105.919 53.6598 106.033 53.201C106.148 52.7423 106.606 52.6276 107.064 52.7423L125.042 59.853C125.5 59.9676 125.615 60.4264 125.5 60.8851C125.386 61.3439 124.813 61.4586 124.47 61.3439Z" fill="#E3EAF2"/>
<path d="M100.652 51.9394L86.7962 46.4344C86.3382 46.3197 86.2237 45.861 86.3382 45.4022C86.4527 44.9435 86.9107 44.8288 87.3688 44.9435L101.225 50.5632C101.683 50.6779 101.797 51.1366 101.683 51.5954C101.568 52.0541 101.11 52.1688 100.652 51.9394Z" fill="#E3EAF2"/>
<path d="M117.481 38.0623L94.1213 28.8872C93.5487 28.6578 93.3197 28.0844 93.5487 27.5109C93.7777 26.9375 94.3503 26.7081 94.9228 26.9375L118.283 36.1126C118.856 36.3419 119.085 36.9154 118.856 37.4888C118.627 38.0623 118.054 38.2916 117.481 38.0623Z" fill="#CED7E2"/>
<path d="M100.881 37.9474L91.9494 34.3921C91.3768 34.1627 91.1478 33.5893 91.3768 33.0158C91.6058 32.4424 92.1784 32.213 92.751 32.4424L101.683 35.9977C102.255 36.2271 102.484 36.8005 102.255 37.374C102.026 37.9474 101.339 38.1768 100.881 37.9474Z" fill="#CED7E2"/>
<path d="M127.673 29.9194L122.291 43.682C121.489 45.6317 122.635 47.9255 124.467 48.6136L136.719 53.4305" fill="#DDE3E9"/>
<g filter="url(#filter1_d_4194_27596)">
<path d="M82.6709 31.8693L105.001 80.8411C105.688 82.5614 105.001 84.5111 103.283 85.1993L55.4174 106.302C53.6997 106.99 51.753 106.302 51.066 104.582L23.2398 41.2737C22.5528 39.5534 23.2398 37.6037 24.9575 36.9156L59.6543 21.5474L82.6709 31.8693Z" fill="white"/>
</g>
<path d="M89.4275 69.4869L60.6853 82.2173C60.3418 82.4467 59.8837 82.2173 59.6547 81.8732C59.4257 81.5292 59.6547 81.0704 59.9982 80.841L88.7404 68.1106C89.084 67.8813 89.542 68.1106 89.771 68.4547C90 68.7988 89.771 69.3722 89.4275 69.4869Z" fill="#E3EAF2"/>
<path d="M57.1378 83.7083L52.0993 85.8874C51.7558 86.1168 51.2978 85.8874 51.0688 85.5433C50.8397 85.1993 51.0688 84.7405 51.4123 84.5111L56.4508 82.3321C56.7943 82.1027 57.2523 82.3321 57.4814 82.6761C57.7104 83.1349 57.5959 83.5936 57.1378 83.7083Z" fill="#E3EAF2"/>
<path d="M85.8777 61.8028L73.0525 67.4225C72.7089 67.6519 72.2509 67.4225 72.0219 67.0785C71.7929 66.7344 72.0219 66.2757 72.3654 66.0463L85.1906 60.4266C85.5341 60.1972 85.9922 60.4266 86.2212 60.7706C86.4502 61.1147 86.3357 61.5734 85.8777 61.8028Z" fill="#E3EAF2"/>
<path d="M67.6709 69.8311L49.0056 78.0887C48.6621 78.3181 48.204 78.0887 47.975 77.7446C47.746 77.4006 47.975 76.9418 48.3185 76.7124L66.9838 68.4549C67.3273 68.2255 67.7854 68.4549 68.0144 68.7989C68.2434 69.2577 68.1289 69.7165 67.6709 69.8311Z" fill="#E3EAF2"/>
<path d="M82.7889 53.8895L77.865 56.0686C77.5214 56.2979 77.0634 56.0686 76.8344 55.7245C76.6054 55.3804 76.8344 54.9217 77.1779 54.6923L82.1019 52.5132C82.4454 52.2839 82.9034 52.5132 83.1325 52.8573C83.3615 53.316 83.1325 53.7748 82.7889 53.8895Z" fill="#E3EAF2"/>
<path d="M73.1627 58.1329L45.7947 70.2898C45.4511 70.5192 44.9931 70.2898 44.7641 69.9458C44.535 69.6017 44.7641 69.143 45.1076 68.9136L72.5902 56.7566C72.9337 56.5273 73.3918 56.7566 73.6208 57.1007C73.7353 57.5595 73.6208 58.0182 73.1627 58.1329Z" fill="#E3EAF2"/>
<path d="M71.4498 87.6078L69.7322 88.4106C69.3886 88.6399 68.9306 88.4106 68.7016 88.0665C68.4725 87.7224 68.7016 87.2637 69.0451 87.0343L70.7628 86.2315C71.1063 86.0021 71.5643 86.2315 71.7934 86.5756C72.0224 86.9196 71.7934 87.3784 71.4498 87.6078Z" fill="#E3EAF2"/>
<path d="M66.5252 89.7867L56.3337 94.2595C55.9902 94.4889 55.5321 94.2595 55.3031 93.9155C55.0741 93.5714 55.3031 93.1127 55.6467 92.8833L65.8381 88.4104C66.1816 88.1811 66.6397 88.4104 66.8687 88.7545C67.0977 89.0986 66.9832 89.5573 66.5252 89.7867Z" fill="#E3EAF2"/>
<path d="M79.5778 46.0907L61.9431 53.8895C61.5996 54.1188 61.1415 53.8895 60.9125 53.5454C60.6835 53.2013 60.9125 52.7426 61.256 52.5132L78.8907 44.7144C79.2342 44.485 79.6923 44.7144 79.9213 45.0585C80.1503 45.4025 79.9213 45.8613 79.5778 46.0907Z" fill="#E3EAF2"/>
<path d="M56.2183 56.4124L42.5915 62.3762C42.248 62.6056 41.79 62.3762 41.5609 62.0322C41.3319 61.6881 41.5609 61.2293 41.9045 61L55.5313 55.0362C55.8748 54.8068 56.3328 55.0362 56.5619 55.3802C56.7909 55.7243 56.6764 56.1831 56.2183 56.4124Z" fill="#E3EAF2"/>
<path d="M58.1661 34.6218L35.1494 44.7144C34.5768 44.9438 34.0043 44.7144 33.7753 44.1409C33.5462 43.5675 33.7753 42.9941 34.3478 42.7647L57.25 32.6721C57.8225 32.4428 58.3951 32.6721 58.6241 33.2456C58.8531 33.819 58.6241 34.3924 58.1661 34.6218Z" fill="#CED7E2"/>
<path d="M46.373 46.4346L37.5556 50.334C36.9831 50.5633 36.4105 50.334 36.1815 49.7605C35.9525 49.1871 36.1815 48.6136 36.7541 48.3843L45.5714 44.4849C46.1439 44.2555 46.7165 44.4849 46.9455 45.0583C47.1745 45.5171 46.9455 46.2052 46.373 46.4346Z" fill="#CED7E2"/>
<path d="M59.6562 21.6619L65.6108 35.1951C66.4124 37.0301 68.8171 37.9476 70.6493 37.1448L82.6729 31.8691" fill="#E6EDF5"/>
<g filter="url(#filter2_d_4194_27596)">
<path d="M117.823 35.654L118.624 104.467C118.624 106.761 116.792 108.71 114.387 108.71H47.6275C45.3373 108.71 43.3906 106.875 43.3906 104.467V16.0423C43.3906 13.7485 45.2228 11.7988 47.6275 11.7988H96.0656L117.823 35.654Z" fill="white"/>
</g>
<path d="M75.9119 94.9477H73.5072C72.9346 94.9477 72.4766 94.4889 72.4766 93.9155C72.4766 93.3421 72.9346 92.8833 73.5072 92.8833H75.9119C76.4844 92.8833 76.9425 93.3421 76.9425 93.9155C76.9425 94.4889 76.4844 94.9477 75.9119 94.9477Z" fill="#E3EAF2"/>
<path d="M69.1518 94.9477H54.9525C54.3799 94.9477 53.9219 94.4889 53.9219 93.9155C53.9219 93.3421 54.3799 92.8833 54.9525 92.8833H69.1518C69.7244 92.8833 70.1824 93.3421 70.1824 93.9155C70.1824 94.4889 69.7244 94.9477 69.1518 94.9477Z" fill="#E3EAF2"/>
<path d="M87.7028 26.2496H55.6398C54.9527 26.2496 54.2656 25.6761 54.2656 24.8733C54.2656 24.1852 54.8382 23.4971 55.6398 23.4971H87.7028C88.3898 23.4971 89.0769 24.0705 89.0769 24.8733C88.9624 25.6761 88.3898 26.2496 87.7028 26.2496Z" fill="#CED7E2"/>
<path d="M67.8924 33.9337H55.6398C54.9527 33.9337 54.2656 33.3602 54.2656 32.5574C54.2656 31.8693 54.8382 31.1812 55.6398 31.1812H67.8924C68.5795 31.1812 69.2665 31.7546 69.2665 32.5574C69.152 33.3602 68.5795 33.9337 67.8924 33.9337Z" fill="#CED7E2"/>
<path d="M96.0625 11.9133V30.8369C96.0625 33.4747 98.3527 35.6538 100.986 35.6538H117.82" fill="#D5DDE5"/>
<path d="M107.292 48.3843H90.5729C90.5729 48.3843 90.5729 48.3843 90.4584 48.3843C90.4584 48.3843 90.4584 48.3843 90.3439 48.3843H73.1673C73.1673 48.3843 73.1673 48.3843 73.0528 48.3843C73.0528 48.3843 73.0528 48.3843 72.9383 48.3843H56.7922C54.9601 48.3843 53.5859 49.8752 53.5859 51.7102V80.841C53.5859 82.676 55.0746 84.167 56.7922 84.167H107.177C109.009 84.167 110.383 82.676 110.383 80.841V51.7102C110.498 49.8752 109.009 48.3843 107.292 48.3843ZM74.0834 74.1891V67.6519H89.5423V74.1891H74.0834ZM89.5423 76.1388V82.2173H74.0834V76.1388H89.5423ZM89.5423 59.0503V65.5875H74.0834V59.0503H89.5423ZM74.0834 57.1006V50.334H89.5423V57.1006H74.0834ZM108.551 65.5875H91.489V59.0503H108.551V65.5875ZM72.1367 65.5875H55.5326V59.0503H72.0222V65.5875H72.1367ZM55.5326 67.6519H72.0222V74.1891H55.5326V67.6519ZM91.489 67.6519H108.551V74.1891H91.489V67.6519ZM108.551 51.7102V57.1006H91.489V50.334H107.292C107.979 50.334 108.551 50.9074 108.551 51.7102ZM56.7922 50.334H72.0222V57.1006H55.5326V51.7102C55.5326 50.9074 56.1052 50.334 56.7922 50.334ZM55.5326 80.841V76.1388H72.0222V82.2173H56.7922C56.1052 82.2173 55.5326 81.6438 55.5326 80.841ZM107.292 82.2173H91.489V76.1388H108.551V80.841C108.551 81.6438 107.979 82.2173 107.292 82.2173Z" fill="#E3EAF2"/>
<defs>
<filter id="filter0_d_4194_27596" x="40.6172" y="4.79639" width="118.102" height="134.178" filterUnits="userSpaceOnUse" color-interpolation-filters="sRGB">
<feFlood flood-opacity="0" result="BackgroundImageFix"/>
<feColorMatrix in="SourceAlpha" type="matrix" values="0 0 0 0 0 0 0 0 0 0 0 0 0 0 0 0 0 0 127 0" result="hardAlpha"/>
<feOffset dy="11"/>
<feGaussianBlur stdDeviation="11"/>
<feColorMatrix type="matrix" values="0 0 0 0 0.397708 0 0 0 0 0.47749 0 0 0 0 0.575 0 0 0 0.18 0"/>
<feBlend mode="normal" in2="BackgroundImageFix" result="effect1_dropShadow_4194_27596"/>
<feBlend mode="normal" in="SourceGraphic" in2="effect1_dropShadow_4194_27596" result="shape"/>
</filter>
<filter id="filter1_d_4194_27596" x="0.976562" y="10.5474" width="126.289" height="129.018" filterUnits="userSpaceOnUse" color-interpolation-filters="sRGB">
<feFlood flood-opacity="0" result="BackgroundImageFix"/>
<feColorMatrix in="SourceAlpha" type="matrix" values="0 0 0 0 0 0 0 0 0 0 0 0 0 0 0 0 0 0 127 0" result="hardAlpha"/>
<feOffset dy="11"/>
<feGaussianBlur stdDeviation="11"/>
<feColorMatrix type="matrix" values="0 0 0 0 0.397708 0 0 0 0 0.47749 0 0 0 0 0.575 0 0 0 0.18 0"/>
<feBlend mode="normal" in2="BackgroundImageFix" result="effect1_dropShadow_4194_27596"/>
<feBlend mode="normal" in="SourceGraphic" in2="effect1_dropShadow_4194_27596" result="shape"/>
</filter>
<filter id="filter2_d_4194_27596" x="21.3906" y="0.798828" width="119.234" height="140.911" filterUnits="userSpaceOnUse" color-interpolation-filters="sRGB">
<feFlood flood-opacity="0" result="BackgroundImageFix"/>
<feColorMatrix in="SourceAlpha" type="matrix" values="0 0 0 0 0 0 0 0 0 0 0 0 0 0 0 0 0 0 127 0" result="hardAlpha"/>
<feOffset dy="11"/>
<feGaussianBlur stdDeviation="11"/>
<feColorMatrix type="matrix" values="0 0 0 0 0.397708 0 0 0 0 0.47749 0 0 0 0 0.575 0 0 0 0.18 0"/>
<feBlend mode="normal" in2="BackgroundImageFix" result="effect1_dropShadow_4194_27596"/>
<feBlend mode="normal" in="SourceGraphic" in2="effect1_dropShadow_4194_27596" result="shape"/>
</filter>
</defs>
</svg>
