<svg width="147" height="138" viewBox="0 0 147 138" fill="none" xmlns="http://www.w3.org/2000/svg">
<path d="M72.23 120C100.22 120 122.911 97.2541 122.911 69.1954C122.911 41.1367 100.22 18.3906 72.23 18.3906C44.2396 18.3906 21.5488 41.1367 21.5488 69.1954C21.5488 97.2541 44.2396 120 72.23 120Z" fill="#EAEEF9"/>
<path d="M34.9073 36.2812H107.003C109.858 36.2812 112.102 38.5302 112.102 41.3924V87.086C112.102 89.9483 109.858 92.1972 107.003 92.1972H34.9073C32.052 92.1972 29.8086 89.9483 29.8086 87.086V41.3924C29.8086 38.5302 32.154 36.2812 34.9073 36.2812Z" fill="#DAE2EB"/>
<path d="M131.139 56.5521C132.719 55.1048 132.83 52.6478 131.386 51.0641C129.942 49.4804 127.491 49.3698 125.911 50.817C124.331 52.2643 124.221 54.7213 125.665 56.305C127.109 57.8887 129.56 57.9993 131.139 56.5521Z" fill="#EAEEF9"/>
<path d="M42.9438 23.4731C44.2828 23.0369 45.0154 21.5951 44.5802 20.2528C44.145 18.9106 42.7068 18.1762 41.3678 18.6124C40.0288 19.0487 39.2962 20.4904 39.7314 21.8327C40.1666 23.1749 41.6048 23.9094 42.9438 23.4731Z" fill="#EAEEF9"/>
<path d="M47.9601 15.2217C48.9175 15.2217 49.6937 14.4436 49.6937 13.4839C49.6937 12.5241 48.9175 11.7461 47.9601 11.7461C47.0027 11.7461 46.2266 12.5241 46.2266 13.4839C46.2266 14.4436 47.0027 15.2217 47.9601 15.2217Z" fill="url(#paint0_linear_5467_46075)"/>
<path d="M130.356 39.5524C131.257 39.5524 131.988 38.8201 131.988 37.9168C131.988 37.0135 131.257 36.2812 130.356 36.2812C129.455 36.2812 128.725 37.0135 128.725 37.9168C128.725 38.8201 129.455 39.5524 130.356 39.5524Z" fill="url(#paint1_linear_5467_46075)"/>
<path d="M90.3395 15.3117C90.7968 14.8928 90.8288 14.1815 90.4109 13.7231C89.9929 13.2647 89.2834 13.2327 88.8261 13.6516C88.3688 14.0705 88.3368 14.7818 88.7548 15.2402C89.1727 15.6987 89.8822 15.7307 90.3395 15.3117Z" fill="#EAEEF9"/>
<path d="M113.549 65.5984V88.0874C113.549 90.9497 111.204 93.4032 108.246 93.4032H34.1112C31.2559 93.4032 28.8086 91.0519 28.8086 88.0874V63.6562" stroke="#1676EE" stroke-width="3" stroke-linecap="round" stroke-linejoin="round"/>
<g filter="url(#filter0_d_5467_46075)">
<path d="M107.153 53H83.8378C81.5689 53 79.3783 53.7828 77.6571 55.1915L71.5544 60.2002C69.8332 61.6088 67.6426 62.3913 65.3737 62.3913H38.8507C36.1906 62.3913 34 64.5828 34 67.2436C34 67.4784 34.0001 67.7131 34.0783 67.9479L38.9291 93.774C39.3202 96.2001 41.3544 98 43.7798 98H100.268C102.693 98 104.727 96.2784 105.119 93.8523L111.926 58.5566C112.395 55.8957 110.595 53.4696 107.935 53C107.701 53 107.388 53 107.153 53Z" fill="white"/>
</g>
<g filter="url(#filter1_d_5467_46075)">
<path d="M117.729 46.0742H87.3403C84.3831 46.0742 81.5279 47.0967 79.2845 48.9368L71.3304 55.4789C69.087 57.3189 66.2318 58.341 63.2746 58.341H28.7052C25.238 58.341 22.3828 61.2034 22.3828 64.679C22.3828 64.9857 22.3829 65.2922 22.4849 65.5989L28.8072 99.3325C29.3171 102.501 31.9684 104.852 35.1296 104.852H108.755C111.916 104.852 114.567 102.604 115.077 99.4348L123.949 53.3321C124.561 49.8566 122.216 46.6876 118.748 46.0742C118.442 46.0742 118.035 46.0742 117.729 46.0742Z" fill="white"/>
</g>
<path d="M58.8901 81.0344C60.6923 81.0344 62.1532 79.5696 62.1532 77.763C62.1532 75.9564 60.6923 74.4922 58.8901 74.4922C57.0879 74.4922 55.627 75.9564 55.627 77.763C55.627 79.5696 57.0879 81.0344 58.8901 81.0344Z" fill="#1C3754"/>
<path d="M84.5873 80.9328C86.3895 80.9328 87.8505 79.4686 87.8505 77.662C87.8505 75.8554 86.3895 74.3906 84.5873 74.3906C82.7851 74.3906 81.3242 75.8554 81.3242 77.662C81.3242 79.4686 82.7851 80.9328 84.5873 80.9328Z" fill="#1C3754"/>
<g filter="url(#filter2_d_5467_46075)">
<path d="M118.676 101.687C118.352 103.066 117.866 104.445 117.3 105.662C115.763 108.581 113.417 110.933 110.504 112.393C107.51 113.934 103.95 114.502 100.31 113.772C91.8952 111.988 86.4745 103.796 88.2544 95.3613C90.0344 86.9264 98.206 81.4924 106.62 83.2767C109.614 83.9256 112.284 85.3854 114.468 87.4942C118.19 91.225 119.727 96.5779 118.676 101.687Z" fill="url(#paint2_linear_5467_46075)"/>
</g>
<path d="M117.29 105.651C115.753 108.571 113.406 110.923 110.494 112.383L97.3867 99.2439L99.8139 98.2705L104.264 98.0273H109.685L117.29 105.651Z" fill="url(#paint3_linear_5467_46075)"/>
<path d="M108.389 97.135H104.829V93.5664C104.829 92.8365 104.262 92.1875 103.453 92.1875C102.725 92.1875 102.078 92.7554 102.078 93.5664V97.135H98.518C97.7898 97.135 97.1426 97.7029 97.1426 98.5139C97.1426 99.3249 97.7089 99.8924 98.518 99.8924H102.078V103.461C102.078 104.191 102.644 104.84 103.453 104.84C104.182 104.84 104.829 104.272 104.829 103.461V99.8924H108.389C109.117 99.8924 109.764 99.3249 109.764 98.5139C109.764 97.7029 109.117 97.135 108.389 97.135Z" fill="url(#paint4_linear_5467_46075)"/>
<path d="M67.7432 57.3391C64.1741 50.388 63.3583 41.9035 65.7037 34.339C68.0491 26.7745 73.4537 20.2322 80.286 16.5522C82.4274 15.4277 84.7728 14.5077 87.2202 14.4055C89.6676 14.3033 92.217 15.1211 93.8485 17.0633C95.4801 18.9033 95.7861 21.8678 94.4604 23.9123C93.0327 25.8545 90.2794 26.57 87.934 26.0589C84.263 25.3434 81.2037 22.4811 80.286 19.0056C79.3682 15.53 80.5919 11.4411 83.3452 9.08993C85.1807 7.45436 87.6281 6.63658 89.9735 5.92102C101.191 2.64988 113.326 2.24099 124.747 4.69434" stroke="#C9D4E2" stroke-miterlimit="10" stroke-dasharray="4 4"/>
<path d="M74.8806 84.5273H68.6602V86.0607H74.8806V84.5273Z" fill="#1C3754"/>
<path d="M130.765 2.0347C130.663 3.56805 130.561 4.89695 129.439 5.20361C128.317 5.51028 127.807 4.48805 127.093 3.05693C126.38 1.72804 126.788 0.399137 128.011 0.092468C129.235 -0.214201 130.968 0.194691 130.765 2.0347Z" fill="#DAE2EB"/>
<path d="M129.643 9.18867C129.949 7.34865 130.255 6.42865 129.235 5.91753C128.114 5.40642 127.4 6.32642 126.278 7.5531C125.258 8.67755 125.87 10.2109 126.89 10.722C128.012 11.3353 129.337 10.722 129.643 9.18867Z" fill="#DAE2EB"/>
<path d="M130.969 5.92058C130.867 6.63614 130.357 7.14725 129.643 7.24948C129.338 7.24948 129.032 7.24948 128.624 7.24948C127.196 7.04503 126.074 6.12502 126.176 5.20502C126.278 4.28501 127.604 3.7739 129.134 3.97834C129.44 3.97834 129.745 4.08056 129.949 4.18279C130.663 4.38723 131.071 5.10279 130.969 5.92058C130.969 5.81835 130.969 5.92058 130.969 5.92058Z" fill="#1C3754"/>
<path d="M19.4102 34.0292C19.4102 32.2914 19.4102 30.6558 20.6338 30.1447C21.9595 29.6336 22.6733 30.8603 23.5911 32.4958C24.5089 34.0292 24.101 35.5625 22.7753 36.0736C21.6536 36.5848 19.4102 36.2781 19.4102 34.0292Z" fill="#DAE2EB"/>
<path d="M20.1223 25.6467C19.9183 27.7934 19.6124 28.9178 20.9381 29.4289C22.2637 29.94 22.9776 28.8156 24.2012 27.18C25.221 25.7489 24.5072 24.0111 23.1815 23.5C21.8558 22.9889 20.3262 23.9089 20.1223 25.6467Z" fill="#DAE2EB"/>
<path d="M19 29.6334C19 28.8157 19.6118 28.2023 20.3257 28.1001C20.6316 27.9979 21.0395 27.9979 21.4474 28.1001C23.079 28.2023 24.4046 29.1223 24.3027 30.1446C24.2007 31.1668 22.875 31.8824 21.2434 31.6779C20.9375 31.6779 20.6316 31.5757 20.3257 31.4735C19.5099 31.269 19 30.4512 19 29.6334Z" fill="#1C3754"/>
<path d="M25.832 29.9414C36.3354 29.9414 55.7105 36.0748 56.0164 58.4616" stroke="#C9D4E2" stroke-miterlimit="10" stroke-dasharray="4 4"/>
<defs>
<filter id="filter0_d_5467_46075" x="24" y="34" width="98" height="65" filterUnits="userSpaceOnUse" color-interpolation-filters="sRGB">
<feFlood flood-opacity="0" result="BackgroundImageFix"/>
<feColorMatrix in="SourceAlpha" type="matrix" values="0 0 0 0 0 0 0 0 0 0 0 0 0 0 0 0 0 0 127 0" result="hardAlpha"/>
<feOffset dy="-9"/>
<feGaussianBlur stdDeviation="5"/>
<feColorMatrix type="matrix" values="0 0 0 0 0.397708 0 0 0 0 0.47749 0 0 0 0 0.575 0 0 0 0.13 0"/>
<feBlend mode="normal" in2="BackgroundImageFix" result="effect1_dropShadow_5467_46075"/>
<feBlend mode="normal" in="SourceGraphic" in2="effect1_dropShadow_5467_46075" result="shape"/>
</filter>
<filter id="filter1_d_5467_46075" x="0.382812" y="35.0742" width="145.664" height="102.777" filterUnits="userSpaceOnUse" color-interpolation-filters="sRGB">
<feFlood flood-opacity="0" result="BackgroundImageFix"/>
<feColorMatrix in="SourceAlpha" type="matrix" values="0 0 0 0 0 0 0 0 0 0 0 0 0 0 0 0 0 0 127 0" result="hardAlpha"/>
<feOffset dy="11"/>
<feGaussianBlur stdDeviation="11"/>
<feColorMatrix type="matrix" values="0 0 0 0 0.397708 0 0 0 0 0.47749 0 0 0 0 0.575 0 0 0 0.18 0"/>
<feBlend mode="normal" in2="BackgroundImageFix" result="effect1_dropShadow_5467_46075"/>
<feBlend mode="normal" in="SourceGraphic" in2="effect1_dropShadow_5467_46075" result="shape"/>
</filter>
<filter id="filter2_d_5467_46075" x="81.5687" y="80.5573" width="43.7785" height="43.843" filterUnits="userSpaceOnUse" color-interpolation-filters="sRGB">
<feFlood flood-opacity="0" result="BackgroundImageFix"/>
<feColorMatrix in="SourceAlpha" type="matrix" values="0 0 0 0 0 0 0 0 0 0 0 0 0 0 0 0 0 0 127 0" result="hardAlpha"/>
<feOffset dy="3.96705"/>
<feGaussianBlur stdDeviation="3.17364"/>
<feColorMatrix type="matrix" values="0 0 0 0 0.1125 0 0 0 0 0.295916 0 0 0 0 1 0 0 0 0.22 0"/>
<feBlend mode="normal" in2="BackgroundImageFix" result="effect1_dropShadow_5467_46075"/>
<feBlend mode="normal" in="SourceGraphic" in2="effect1_dropShadow_5467_46075" result="shape"/>
</filter>
<linearGradient id="paint0_linear_5467_46075" x1="46.2789" y1="13.4405" x2="49.6495" y2="13.4405" gradientUnits="userSpaceOnUse">
<stop stop-color="#FF66A9"/>
<stop offset="1" stop-color="#F53689"/>
</linearGradient>
<linearGradient id="paint1_linear_5467_46075" x1="128.781" y1="37.9576" x2="131.947" y2="37.9576" gradientUnits="userSpaceOnUse">
<stop stop-color="#FF66A9"/>
<stop offset="1" stop-color="#F53689"/>
</linearGradient>
<linearGradient id="paint2_linear_5467_46075" x1="87.9249" y1="98.5275" x2="119.015" y2="98.5275" gradientUnits="userSpaceOnUse">
<stop stop-color="#83A6FF"/>
<stop offset="1" stop-color="#5A78FF"/>
</linearGradient>
<linearGradient id="paint3_linear_5467_46075" x1="103.899" y1="99.015" x2="112.343" y2="107.438" gradientUnits="userSpaceOnUse">
<stop stop-color="#4F6AFF"/>
<stop offset="1" stop-color="#657EFF" stop-opacity="0"/>
</linearGradient>
<linearGradient id="paint4_linear_5467_46075" x1="107.369" y1="102.435" x2="100.696" y2="95.7793" gradientUnits="userSpaceOnUse">
<stop offset="0.0113208" stop-color="#C2D1FF"/>
<stop offset="1" stop-color="white"/>
</linearGradient>
</defs>
</svg>
