<svg width="120" height="108" viewBox="0 0 120 108" fill="none" xmlns="http://www.w3.org/2000/svg">
<path d="M58.0459 107C84.4514 107 105.857 85.3611 105.857 58.6681C105.857 31.975 84.4514 10.3359 58.0459 10.3359C31.6403 10.3359 10.2344 31.975 10.2344 58.6681C10.2344 85.3611 31.6403 107 58.0459 107Z" fill="#EAEEF9"/>
<path d="M93.3252 104.03C106.67 93.4603 115.19 77.0702 115.19 58.6679C115.19 26.8679 89.5042 1 58.0467 1C26.5893 1 1 26.7706 1 58.6679C1 76.8479 9.31504 93.0641 22.3132 103.645" stroke="#EAEEF9" stroke-width="2" stroke-miterlimit="10" stroke-linecap="round" stroke-linejoin="round" stroke-dasharray="1 6"/>
<path d="M26.4693 20.15C27.7324 19.735 28.4236 18.3634 28.013 17.0865C27.6025 15.8095 26.2456 15.1108 24.9825 15.5259C23.7193 15.9409 23.0281 17.3125 23.4387 18.5894C23.8493 19.8663 25.2061 20.565 26.4693 20.15Z" fill="#EAEEF9"/>
<path d="M31.8104 12.1881C32.6694 11.9059 33.1394 10.9732 32.8602 10.1049C32.581 9.23659 31.6584 8.76147 30.7994 9.04369C29.9405 9.32591 29.4705 10.2586 29.7497 11.1269C30.0288 11.9952 30.9515 12.4703 31.8104 12.1881Z" fill="#EAEEF9"/>
<path d="M73.2482 9.07091C74.0983 9.07091 74.7874 8.37428 74.7874 7.51495C74.7874 6.65561 74.0983 5.95898 73.2482 5.95898C72.3981 5.95898 71.709 6.65561 71.709 7.51495C71.709 8.37428 72.3981 9.07091 73.2482 9.07091Z" fill="#AFB6C7"/>
<path d="M5.78523 25.3882C6.41276 24.8085 6.45658 23.8243 5.88312 23.1899C5.30965 22.5556 4.33605 22.5113 3.70851 23.091C3.08098 23.6707 3.03715 24.6549 3.61062 25.2892C4.18409 25.9236 5.15769 25.9679 5.78523 25.3882Z" fill="#E5E9F5"/>
<path d="M106.992 18.6519C107.62 18.0722 107.664 17.088 107.09 16.4536C106.517 15.8193 105.543 15.775 104.916 16.3547C104.288 16.9344 104.244 17.9185 104.818 18.5529C105.391 19.1873 106.365 19.2316 106.992 18.6519Z" fill="#E6EAF5"/>
<path d="M29.2155 84.201L10.0221 47.6334C9.20877 45.8215 10.0221 43.6802 11.9739 42.8566C13.6005 42.1977 15.5524 42.6919 16.5283 44.3391L40.1134 78.4358C41.9026 81.4008 41.0893 85.1893 38.1615 87.0012C35.2337 88.8131 31.4926 87.9895 29.7034 85.0246C29.5408 84.6951 29.3781 84.3657 29.2155 84.201Z" fill="#949DAD"/>
<path d="M32.468 91.944C38.1275 91.944 42.7154 87.2979 42.7154 81.5667C42.7154 75.8355 38.1275 71.1895 32.468 71.1895C26.8086 71.1895 22.2207 75.8355 22.2207 81.5667C22.2207 87.2979 26.8086 91.944 32.468 91.944Z" fill="#BDC3CF"/>
<path d="M44.0168 22.2664L16.04 48.7861C14.5761 50.2685 12.1362 50.1038 10.6723 48.6214C9.20842 47.1389 9.37108 44.6681 10.835 43.1856L10.9976 43.0209L40.9263 18.6426C41.9023 17.819 43.5288 17.9837 44.3421 18.972C44.9927 19.9603 44.9927 21.4428 44.0168 22.2664Z" fill="#949DAD"/>
<path d="M63.536 33.1385C62.7227 33.4679 61.9094 33.4679 61.0961 33.1385L41.7401 23.2554C40.4388 22.5965 39.7882 20.7846 40.4388 19.4669C41.0895 18.1491 42.8787 17.4902 44.1799 18.1491L63.536 28.0322C64.8372 28.6911 65.4879 30.503 64.8372 31.8207C64.6746 32.4796 64.1866 32.9738 63.536 33.1385Z" fill="#949DAD"/>
<path d="M13.9241 53.3996C18.1463 53.3996 21.569 49.9335 21.569 45.6578C21.569 41.3821 18.1463 37.916 13.9241 37.916C9.702 37.916 6.2793 41.3821 6.2793 45.6578C6.2793 49.9335 9.702 53.3996 13.9241 53.3996Z" fill="#BDC3CF"/>
<path d="M13.9241 49.2808C15.9004 49.2808 17.5026 47.6584 17.5026 45.657C17.5026 43.6556 15.9004 42.0332 13.9241 42.0332C11.9478 42.0332 10.3457 43.6556 10.3457 45.657C10.3457 47.6584 11.9478 49.2808 13.9241 49.2808Z" fill="#949DAD"/>
<path d="M42.7151 28.5265C46.9373 28.5265 50.36 25.0604 50.36 20.7847C50.36 16.5091 46.9373 13.043 42.7151 13.043C38.493 13.043 35.0703 16.5091 35.0703 20.7847C35.0703 25.0604 38.493 28.5265 42.7151 28.5265Z" fill="#BDC3CF"/>
<path d="M42.7132 24.4078C44.6895 24.4078 46.2916 22.7853 46.2916 20.784C46.2916 18.7826 44.6895 17.1602 42.7132 17.1602C40.7369 17.1602 39.1348 18.7826 39.1348 20.784C39.1348 22.7853 40.7369 24.4078 42.7132 24.4078Z" fill="#949DAD"/>
<path d="M62.0725 29.6797C59.3073 30.8327 57.0301 33.1388 55.7289 36.1037C53.9397 40.5511 55.2409 45.4927 58.494 48.6223L61.4218 45.1632C59.6326 43.1866 58.982 40.3864 59.9579 37.7509C60.6086 35.939 61.9098 34.6212 63.5364 33.9624L62.0725 29.6797Z" fill="#BDC3CF"/>
<path d="M68.9038 33.798C71.8316 34.951 73.4582 37.7513 73.2955 40.7162L77.6872 40.8809C78.0125 36.1041 75.0847 31.4919 70.5304 29.5153C67.7652 28.3623 64.6748 28.527 62.0723 29.68L63.5362 33.9627C65.1627 33.1391 67.1146 32.9744 68.9038 33.798Z" fill="#BDC3CF"/>
<path d="M44.827 103.803H16.8501C10.0186 103.803 4.48828 98.2024 4.48828 91.2842C4.48828 84.3661 10.0186 78.7656 16.8501 78.7656H44.827C51.6585 78.7656 57.1888 84.3661 57.1888 91.2842C57.1888 98.2024 51.6585 103.803 44.827 103.803Z" fill="white"/>
<path d="M44.8271 105.614H16.8503C9.0428 105.614 2.69922 99.1901 2.69922 91.2836C2.69922 83.3772 9.0428 76.9531 16.8503 76.9531H44.8271C52.6346 76.9531 58.9782 83.3772 58.9782 91.2836C58.9782 99.1901 52.6346 105.614 44.8271 105.614ZM16.8503 80.5769C10.9947 80.5769 6.27765 85.3538 6.27765 91.2836C6.27765 97.2135 10.9947 101.99 16.8503 101.99H44.8271C50.6827 101.99 55.3998 97.2135 55.3998 91.2836C55.3998 85.3538 50.6827 80.5769 44.8271 80.5769H16.8503Z" fill="#BDC3CF"/>
<path d="M44.5037 98.8611C48.636 98.8611 51.9858 95.4688 51.9858 91.2841C51.9858 87.0994 48.636 83.707 44.5037 83.707C40.3714 83.707 37.0215 87.0994 37.0215 91.2841C37.0215 95.4688 40.3714 98.8611 44.5037 98.8611Z" fill="#BDC3CF"/>
<path d="M44.5019 95.4019C46.7478 95.4019 48.5683 93.5583 48.5683 91.284C48.5683 89.0097 46.7478 87.166 44.5019 87.166C42.2561 87.166 40.4355 89.0097 40.4355 91.284C40.4355 93.5583 42.2561 95.4019 44.5019 95.4019Z" fill="#949DAD"/>
<path d="M17.8279 98.8611C21.9602 98.8611 25.3101 95.4688 25.3101 91.2841C25.3101 87.0994 21.9602 83.707 17.8279 83.707C13.6956 83.707 10.3457 87.0994 10.3457 91.2841C10.3457 95.4688 13.6956 98.8611 17.8279 98.8611Z" fill="#BDC3CF"/>
<path d="M17.8281 95.4019C20.0739 95.4019 21.8945 93.5583 21.8945 91.284C21.8945 89.0097 20.0739 87.166 17.8281 87.166C15.5823 87.166 13.7617 89.0097 13.7617 91.284C13.7617 93.5583 15.5823 95.4019 17.8281 95.4019Z" fill="#949DAD"/>
<path d="M67.0071 33.2555C67.8563 31.052 66.7809 28.5686 64.605 27.7085C62.4291 26.8485 59.9768 27.9376 59.1275 30.1411C58.2783 32.3446 59.3537 34.828 61.5296 35.688C63.7055 36.5481 66.1579 35.459 67.0071 33.2555Z" fill="#BDC3CF"/>
<path d="M64.8855 32.4163C65.2774 31.3993 64.7811 30.2531 63.7768 29.8562C62.7726 29.4592 61.6407 29.9619 61.2488 30.9789C60.8568 31.9959 61.3532 33.1421 62.3574 33.539C63.3617 33.9359 64.4935 33.4333 64.8855 32.4163Z" fill="#949DAD"/>
<path d="M3.35156 106.074H119" stroke="#D6DEE8" stroke-width="2" stroke-miterlimit="10" stroke-linecap="round" stroke-linejoin="round"/>
<path d="M112.858 86.8676C112.743 87.4509 112.532 88.0148 112.322 88.579C112.283 88.7734 112.149 88.9486 112.13 89.0459C111.803 89.688 111.477 90.3302 111.054 90.9532C110.919 91.1284 110.784 91.3037 110.765 91.4009C110.361 91.9266 109.86 92.4334 109.36 92.9399C109.128 93.0959 108.994 93.2709 108.743 93.5242C107.452 94.4796 106.006 95.2021 104.502 95.7111C104.193 95.7507 103.962 95.9067 103.653 95.9463C103.132 96.0447 102.707 96.1623 102.205 96.1635C101.897 96.2031 101.491 96.2237 101.201 96.1661C101.008 96.1277 100.796 96.1866 100.603 96.1482C99.2128 96.0738 97.8606 95.8049 96.469 95.2252C90.2645 92.5775 87.3687 85.3349 89.9973 79.0899C92.6258 72.8449 99.8194 69.9322 106.024 72.5799C108.247 73.5269 110.046 75.0967 111.461 77.0951C113.129 79.8509 113.718 83.5032 112.858 86.8676Z" fill="#C5CDDB"/>
<path d="M102.973 73.7928C101.041 73.4087 99.0919 73.6273 97.2404 74.3703C94.7332 75.387 92.7498 77.3158 91.7525 79.8448C89.5457 84.9615 91.975 90.9997 97.1742 93.1445C98.6624 93.7434 100.304 94.0701 101.945 93.8913C102.35 93.8708 102.659 93.8313 103.18 93.7329C103.392 93.6741 103.604 93.615 103.913 93.5754C105.186 93.2225 106.401 92.656 107.365 91.8375C107.499 91.6622 107.73 91.5062 107.846 91.4281C108.231 90.9996 108.713 90.5904 109.001 90.1427C109.117 90.0647 109.155 89.8703 109.271 89.7923C109.694 89.1693 110.117 88.5462 110.366 87.7876C111.69 84.6165 111.39 81.0219 109.433 78.2085C108.348 76.5786 106.8 75.2604 104.944 74.4875C104.306 74.1586 103.649 73.9272 102.973 73.7928Z" fill="#B9C2D1"/>
<path d="M104.518 77.6232C105.986 77.814 107.225 79.1715 107.152 80.571C107.156 82.0869 105.865 83.0424 104.436 83.1624C104.224 83.2212 103.934 83.1636 103.625 83.2032C103.046 83.088 102.564 83.4973 102.354 84.0614C102.239 84.6447 102.434 85.1885 102.994 85.4009C103.187 85.4393 103.381 85.4777 103.651 85.6326C104.984 85.9986 105.818 87.3765 105.629 88.854C105.324 90.4096 103.705 91.5018 102.082 91.0782C100.092 90.4804 99.4489 88.1303 100.661 86.5532C101.2 85.8522 101.121 85.2305 100.695 84.8428C100.269 84.4551 99.7675 84.4563 99.3049 84.7684C99.0736 84.9244 98.939 85.0997 98.8233 85.1777C96.9554 87.0285 94.1328 85.5582 94.088 83.2261C93.9835 80.1751 97.8809 79.2328 99.316 81.6393C99.471 81.8722 99.5295 82.0858 99.6655 82.4159C99.8791 82.8624 100.42 83.172 100.845 83.0544C101.578 82.8972 101.886 82.3522 101.593 81.284C101.184 79.7885 102.106 78.1537 103.592 77.742C104.016 77.6244 104.228 77.5656 104.518 77.6232Z" fill="white"/>
<path d="M80.543 88.4223C78.26 93.9279 71.9532 96.4114 70.0216 96.0274C60.8337 96.8268 53.8582 87.3594 57.5807 78.6046C60.2473 72.1652 67.6533 69.193 73.9353 71.9571C80.1588 74.5076 83.2097 81.9829 80.543 88.4223Z" fill="#C5CDDB"/>
<path d="M65.1961 74.0583C62.689 75.0749 60.7055 77.0038 59.7082 79.5328C54.7967 91.2834 72.3312 100.123 78.225 87.4564C81.7747 79.0714 73.4891 70.6567 65.1961 74.0583Z" fill="#B9C2D1"/>
<path d="M73.6483 84.6198L68.3632 86.4983L64.2797 82.7571L70.4017 76.0956L73.6483 84.6198Z" fill="white"/>
<path d="M73.4574 85.5909L67.4294 91.261L67.4484 91.1638L63.9922 83.709L68.1914 87.3721L73.4574 85.5909Z" fill="white"/>
<path d="M73.6483 84.6173L68.3632 86.4957L64.2796 82.7545L69.3157 81.6346L73.6483 84.6173Z" fill="white"/>
<path opacity="0.3" d="M68.1912 87.3706L73.4572 85.5894L67.4292 91.2595L67.4482 91.1623L68.1912 87.3706Z" fill="#A2A2A2"/>
<path opacity="0.3" d="M73.649 84.618L68.3639 86.4964L70.4023 76.0938L73.649 84.618Z" fill="#A2A2A2"/>
<path d="M100.329 59.1255C100.291 59.32 100.156 59.4953 100.118 59.6897C99.7722 60.4291 99.3301 61.1492 98.8879 61.8693C98.7532 62.0446 98.6185 62.2199 98.4838 62.3951C97.9641 62.9989 97.4446 63.6026 96.8474 64.09C96.6161 64.246 96.3657 64.4989 96.1345 64.655C94.7087 65.7856 93.0503 66.5673 91.3526 67.0378C91.0438 67.0774 90.716 67.2142 90.4072 67.2538C89.8862 67.3522 89.3651 67.4507 88.7475 67.53C88.1299 67.6092 87.5314 67.5911 86.8363 67.5539C85.2528 67.4411 83.7075 67.1336 82.2383 66.4375C75.2028 63.4225 71.8799 55.2876 74.8731 48.206C77.8663 41.1244 85.9469 37.7812 92.9825 40.7962C95.476 41.898 97.5464 43.6231 99.1161 45.8543C101.752 49.8128 102.19 54.7482 100.329 59.1255Z" fill="#C5CDDB"/>
<path d="M89.8614 42.3967C87.7365 41.9742 85.4976 42.135 83.4148 43.034C80.5798 44.1875 78.3459 46.3699 77.1949 49.1713C74.7581 54.9494 77.4404 61.745 83.2776 64.2186C84.9399 64.9532 86.794 65.2211 88.6277 65.0807C89.0331 65.0603 89.4574 64.9426 89.9784 64.8442C90.1906 64.7853 90.4995 64.7454 90.8274 64.6085C92.3129 64.1968 93.5468 63.5333 94.7412 62.5586C94.9725 62.4026 95.1072 62.2273 95.3385 62.0712C95.82 61.6619 96.224 61.1365 96.6281 60.6108C96.7628 60.4355 96.8784 60.3575 96.9165 60.1631C97.4552 59.4621 97.8008 58.7228 98.1655 57.8862C99.6621 54.3454 99.2652 50.2261 97.1718 47.0826C95.9313 45.2198 94.2091 43.7662 92.1605 42.9549C91.3878 42.8013 90.6341 42.5503 89.8614 42.3967Z" fill="#B9C2D1"/>
<path d="M84.7269 61.8707C84.1474 61.7555 83.6645 61.6595 83.085 61.5443C83.2564 60.6693 83.4279 59.7943 83.6184 58.8221C82.575 58.5136 81.6092 58.3216 80.5467 58.1103C80.9876 56.8849 81.1032 56.8069 81.1794 56.418C81.1984 56.3208 81.295 56.34 81.3916 56.3592C81.6814 56.4168 81.9711 56.4744 82.3575 56.5512C82.8404 56.6472 82.9751 56.472 83.0513 56.0831C83.4894 53.847 83.9085 51.7081 84.3467 49.472C84.4801 48.7915 84.1318 48.5202 83.6489 48.4242C83.2626 48.3474 82.9728 48.2898 82.5865 48.213C82.6817 47.7269 82.796 47.1435 82.8913 46.6574C83.4708 46.7726 84.6298 47.0031 85.6922 47.2143C85.8854 47.2527 85.8854 47.2527 85.9235 47.0583C86.0378 46.4749 86.3236 45.0166 86.4188 44.5305C86.9983 44.6457 87.4812 44.7418 88.0607 44.857C87.8893 45.732 87.7178 46.607 87.5273 47.5792C87.9137 47.656 88.3 47.7328 88.6863 47.8096C88.8578 46.9346 89.0292 46.0596 89.2198 45.0874C89.7027 45.1834 90.1856 45.2794 90.6685 45.3755C90.6114 45.6671 90.1922 47.806 90.1541 48.0004C90.1351 48.0977 90.116 48.1949 90.2126 48.2141C92.0096 48.7734 93.4407 49.664 93.1753 51.5304C93.1385 52.2301 92.9276 52.7943 92.446 53.2036C92.0801 53.5348 91.7522 53.6717 91.4434 53.7113C91.8883 54.0017 92.9901 54.5238 93.1288 55.8645C93.2267 56.389 93.1315 56.8752 92.9206 57.4393C92.7097 58.0034 92.4213 58.4511 92.0362 58.8796C91.5356 59.3861 90.9955 59.5818 90.2623 59.739C89.4325 59.877 88.6407 59.8206 87.8681 59.667C87.7715 59.6478 87.6749 59.6286 87.6368 59.8231C87.4844 60.6008 87.351 61.2814 87.1415 62.3508C86.6586 62.2548 86.1756 62.1588 85.6927 62.0628C85.8642 61.1878 86.0356 60.3128 86.2071 59.4378C85.8208 59.361 85.4344 59.2842 85.0481 59.2073C85.0698 60.1207 84.8983 60.9957 84.7269 61.8707ZM86.2509 54.093C86.0414 55.1624 85.8128 56.3291 85.5842 57.4958C87.2451 57.725 88.0954 57.9951 89.0599 57.6818C89.5809 57.5833 89.9468 57.2521 90.0611 56.6687C90.1754 56.0854 90.0585 55.6581 89.6327 55.2704C88.8778 54.5143 87.2358 54.1878 86.2509 54.093C86.27 53.9958 86.2509 54.093 86.2509 54.093ZM87.1463 49.5236C86.9368 50.593 86.7463 51.5653 86.5557 52.5375C87.1162 52.7499 88.2943 52.8831 88.9119 52.8039C90.649 52.6443 90.6832 50.9339 89.7935 50.353C88.9229 49.6748 87.938 49.58 87.1463 49.5236Z" fill="white"/>
<path d="M108.211 71.5908C107.824 71.514 107.495 71.1455 107.59 70.6594L109.781 59.4789C109.857 59.0901 110.223 58.7588 110.706 58.8548C111.189 58.9508 111.422 59.3001 111.327 59.7862L109.117 71.0639C109.04 71.4528 108.597 71.6676 108.211 71.5908Z" fill="#AFB6C7"/>
<path d="M104.154 70.784C103.768 70.7072 103.438 70.3387 103.534 69.8526L104.791 63.436C104.867 63.0471 105.233 62.7158 105.716 62.8118C106.199 62.9078 106.432 63.2571 106.336 63.7432L105.06 70.2571C104.984 70.646 104.54 70.8608 104.154 70.784Z" fill="#AFB6C7"/>
<path d="M67.9293 68.7332C67.5429 68.6564 67.2138 68.2879 67.309 67.8018L68.5663 61.3852C68.6425 60.9963 69.0085 60.665 69.4914 60.761C69.9743 60.8571 70.2069 61.2063 70.1117 61.6924L68.8543 68.1091C68.7591 68.5952 68.3156 68.81 67.9293 68.7332Z" fill="#AFB6C7"/>
<path d="M62.8712 68.9402C62.4849 68.8634 62.1557 68.4949 62.251 68.0088L64.537 56.3422C64.6133 55.9533 64.9792 55.6221 65.4621 55.7181C65.945 55.8141 66.1776 56.1634 66.0824 56.6495L63.7963 68.3161C63.7201 68.7049 63.3542 69.0362 62.8712 68.9402Z" fill="#AFB6C7"/>
</svg>
