<svg width="137" height="118" viewBox="0 0 137 118" fill="none" xmlns="http://www.w3.org/2000/svg">
<path d="M64.9089 105.185C90.816 105.185 111.818 84.1607 111.818 58.2258C111.818 32.291 90.816 11.2666 64.9089 11.2666C39.0018 11.2666 18 32.291 18 58.2258C18 84.1607 39.0018 105.185 64.9089 105.185Z" fill="#D9DCE3"/>
<path d="M133.413 65.1904C135.394 64.5496 136.478 62.4318 135.834 60.4602C135.19 58.4886 133.062 57.4098 131.081 58.0506C129.1 58.6915 128.016 60.8092 128.66 62.7808C129.304 64.7524 131.432 65.8312 133.413 65.1904Z" fill="#EAEEF9"/>
<path d="M54.8597 2.49915L55.4991 2.97874C55.659 3.05867 55.8189 2.89881 55.7389 2.73894L55.4192 2.01956C55.2594 1.77976 55.3393 1.46003 55.4991 1.14031L55.9787 0.500852C56.0587 0.340988 55.8988 0.181125 55.7389 0.261057L55.0196 0.580784C54.7798 0.740648 54.46 0.660716 54.1403 0.500852L53.5008 0.0212607C53.341 -0.0586711 53.1811 0.101193 53.2611 0.261057L53.5808 0.980443C53.7407 1.22024 53.6607 1.53997 53.5008 1.85969L53.0213 2.49915C52.9413 2.65901 53.1012 2.81888 53.2611 2.73894L53.9804 2.41922C54.3002 2.25935 54.6199 2.33928 54.8597 2.49915Z" fill="#AFB6C7"/>
<path d="M100.48 3.49915L101.332 3.97874C101.545 4.05867 101.758 3.89881 101.652 3.73894L101.226 3.01956C101.012 2.77976 101.119 2.46003 101.332 2.14031L101.972 1.50085C102.078 1.34099 101.865 1.18113 101.652 1.26106L100.693 1.58078C100.373 1.74065 99.9467 1.66072 99.5204 1.50085L98.6678 1.02126C98.4546 0.941329 98.2415 1.10119 98.3481 1.26106L98.7744 1.98044C98.9875 2.22024 98.8809 2.53997 98.6678 2.85969L98.0283 3.49915C97.9218 3.65901 98.1349 3.81887 98.3481 3.73894L99.3073 3.41922C99.627 3.25935 100.053 3.33928 100.48 3.49915Z" fill="#AFB6C7"/>
<path d="M7.38802 48L1 51.3092" stroke="#CED7E2" stroke-miterlimit="10" stroke-linecap="round" stroke-linejoin="round"/>
<path d="M75.2496 117.145C75.9475 116.673 76.1276 115.728 75.652 115.035C75.1763 114.342 74.225 114.163 73.5272 114.636C72.8294 115.108 72.6493 116.053 73.1249 116.745C73.6005 117.438 74.5518 117.617 75.2496 117.145Z" fill="#EAEEF9"/>
<path d="M46.1041 105.742H39.6021L38.2871 101.8H47.4191L46.1041 105.742Z" fill="#A4AFBB"/>
<path d="M94.9051 105.742H88.3301L87.0151 101.8H96.1471L94.9051 105.742Z" fill="#A4AFBB"/>
<path d="M107.105 102.458H29.6662C26.9632 102.458 24.7715 100.268 24.7715 97.5667V19.3146C24.7715 16.6137 26.9632 14.4238 29.6662 14.4238H107.105C109.808 14.4238 112 16.6137 112 19.3146V97.5667C112 100.268 109.808 102.458 107.105 102.458Z" fill="#E9EFFB"/>
<path d="M102.357 95.9608H34.4879C32.4423 95.9608 30.689 94.2819 30.689 92.165V23.5484C30.689 21.5045 32.3692 19.7526 34.4879 19.7526H102.357C104.402 19.7526 106.155 21.4315 106.155 23.5484V92.165C106.155 94.2819 104.475 95.9608 102.357 95.9608Z" fill="#A4AFBB"/>
<g opacity="0.8">
<g opacity="0.8">
<path opacity="0.5" d="M66.5581 83.7703L65.9737 86.2521H64.6587L65.2431 83.7703H66.5581Z" fill="white"/>
</g>
<g opacity="0.8">
<path opacity="0.5" d="M67.0697 93.5519L66.4852 95.9608H65.0972L65.6816 93.5519H67.0697Z" fill="white"/>
</g>
<g opacity="0.8">
<path opacity="0.5" d="M67.9461 91.0698L67.3617 93.5517H65.9736L66.5581 91.0698H67.9461Z" fill="white"/>
</g>
<g opacity="0.8">
<path opacity="0.5" d="M67.0697 81.3613L66.4852 83.7702H65.0972L65.6816 81.3613H67.0697Z" fill="white"/>
</g>
<g opacity="0.8">
<path opacity="0.5" d="M67.9471 78.8796L67.3627 81.3615H65.9746L66.5591 78.8796H67.9471Z" fill="white"/>
</g>
</g>
<path d="M86.1382 54.3527C71.2349 55.8856 48.2954 55.5206 30.689 56.0316V45.0822C30.9081 44.5712 31.1273 44.1332 31.2734 43.6952C31.6387 42.8193 32.3692 42.0893 33.2459 41.7973C33.392 41.7243 33.6112 41.6513 33.7573 41.6513C35.7298 41.0674 37.9945 41.2863 40.1131 41.9433C41.209 42.3083 42.2318 42.6733 43.1815 43.1113C45.154 44.0602 47.1265 45.1552 49.172 45.8851C50.1948 46.2501 51.1446 46.5421 52.1673 46.6881C52.8979 46.8341 53.7015 46.8341 54.4321 46.7611C58.304 46.4691 61.5185 43.8412 65.2443 42.6003C69.7737 41.0674 74.9607 41.7973 78.8326 44.5712C80.8782 45.9581 82.6315 48.44 81.7549 50.7029C81.6818 50.9219 81.6818 51.1409 81.7549 51.3599C82.3393 53.2578 88.4029 54.1337 86.1382 54.3527Z" fill="#F1F3F9"/>
<path d="M106.083 54.3525H29.959V60.9222H106.083V54.3525Z" fill="white"/>
<path opacity="0.4" d="M93.3703 63.404C95.5491 63.404 97.3153 60.5607 97.3153 57.0533C97.3153 53.5459 95.5491 50.7026 93.3703 50.7026C91.1915 50.7026 89.4253 53.5459 89.4253 57.0533C89.4253 60.5607 91.1915 63.404 93.3703 63.404Z" fill="url(#paint0_linear_2904:26753)"/>
<path d="M90.4481 52.4546H85.6265V61.5791H90.4481V52.4546Z" fill="#1C3754"/>
<path d="M98.9961 20.4094L73.938 10.7009C73.4267 9.67892 72.6961 8.72996 71.8194 8H66.5594C65.4636 8.073 64.5869 9.02195 64.5869 10.3359V104.428C64.5869 105.742 65.5366 106.691 66.6325 106.764H71.8194L72.4769 104.866L98.9961 95.8147C100.676 95.2307 101.845 93.4788 101.845 91.5079V24.6432C101.699 22.7453 100.603 20.9934 98.9961 20.4094Z" fill="url(#paint1_linear_2904:26753)"/>
<path d="M72.331 8.14579L104.11 20.4092C105.717 21.0662 106.813 22.7451 106.813 24.643V91.5077C106.813 93.4786 105.644 95.2305 103.964 95.8145L72.2579 106.691C70.9429 107.129 69.6279 106.034 69.6279 104.428V10.3357C69.6279 8.72976 71.016 7.63482 72.331 8.14579Z" fill="white"/>
<path d="M102.868 57.1998C102.868 52.0171 100.823 47.5643 97.9736 45.8124V45.0094H95.0514C91.0333 45.2284 87.8188 50.5571 87.8188 57.1268C87.8188 63.6965 91.0333 69.0252 95.0514 69.2442H97.9736V68.4412C100.823 66.8353 102.868 62.4555 102.868 57.1998Z" fill="#D5DAE8"/>
<path d="M103.792 63.3645L103.7 63.595L103.827 63.8078L107.987 70.7345C108.112 70.9643 108.194 71.3252 108.194 71.7533C108.194 72.1731 108.115 72.6111 107.965 72.9778C107.866 73.1738 107.781 73.3085 107.705 73.3966C107.629 73.4838 107.584 73.4998 107.569 73.5037L107.567 73.5043C107.562 73.5024 107.556 73.4998 107.548 73.4959C107.504 73.4739 107.437 73.4242 107.369 73.3365L102.923 66.4189L102.542 65.8251L102.108 66.3821C101.138 67.6283 99.921 68.4896 98.6101 68.7529C97.1744 69.0123 95.7206 68.5616 94.5065 67.4833L94.0581 67.085L93.747 67.5978L86.6851 79.2367C86.6627 79.2631 86.6439 79.2881 86.629 79.3085C86.6036 79.3433 86.5796 79.3795 86.5625 79.4051C86.5507 79.4229 86.5414 79.4367 86.5334 79.4483C86.4269 79.5011 86.242 79.5307 85.9673 79.4621C85.6602 79.3854 85.2971 79.1962 84.9491 78.8824C84.688 78.6201 84.4883 78.354 84.3637 78.1121C84.2546 77.9006 84.2173 77.7366 84.2183 77.6218C84.244 77.5609 84.2608 77.5106 84.2738 77.4714L84.2748 77.4684C84.292 77.417 84.3011 77.3907 84.3207 77.3514L84.3366 77.3196L84.3479 77.2859C84.4051 77.1145 84.53 76.8623 84.6548 76.6752L84.6548 76.6753L84.6595 76.668L92.2573 64.8426L92.4112 64.6031L92.2838 64.3486C91.3006 62.3837 90.7294 59.9074 90.7294 57.1267C90.7294 54.4865 91.2296 52.0785 92.144 50.1107L92.2601 49.8608L92.1109 49.6292L84.5861 37.9498L84.5862 37.9498L84.5817 37.9431C84.4255 37.7089 84.3225 37.5483 84.2748 37.4054L84.2375 37.2934L84.1635 37.2195C84.1624 37.2174 84.161 37.2147 84.1596 37.2114C84.1571 37.2055 84.1555 37.2003 84.1547 37.1968C84.1546 37.1963 84.1545 37.1959 84.1544 37.1956V37.1675L84.1506 37.1366C84.132 36.9881 84.1753 36.7687 84.3288 36.4927C84.4777 36.2249 84.7099 35.9418 85.0015 35.6814C85.349 35.3992 85.6921 35.2433 85.9692 35.1893C86.2393 35.1366 86.3931 35.1873 86.4633 35.2373L86.5155 35.2895L86.5732 35.3471C86.5961 35.3986 86.6206 35.4371 86.6356 35.4596C86.6521 35.4844 86.6683 35.5057 86.6823 35.5229L93.6006 46.9472L93.9218 47.4775L94.372 47.0513C95.6705 45.8222 97.116 45.322 98.5978 45.6439L98.5977 45.644L98.6104 45.6464C99.9789 45.9069 101.196 46.827 102.249 48.2293L102.681 48.8048L103.07 48.1992L107.377 41.4877C107.448 41.3824 107.504 41.3475 107.527 41.3373C107.542 41.3304 107.551 41.3295 107.569 41.3352C107.629 41.3538 107.802 41.467 107.959 41.8439C108.113 42.2137 108.194 42.6582 108.194 43.084C108.194 43.5119 108.113 43.8726 107.987 44.1024L103.901 50.8829L103.778 51.0866L103.859 51.3104C104.495 53.0771 104.852 55.1363 104.852 57.2727C104.852 59.4858 104.494 61.6104 103.792 63.3645ZM107.579 73.508C107.579 73.508 107.578 73.508 107.577 73.5076L107.579 73.508Z" fill="#DFE9F5" stroke="#DDDEE2"/>
<path d="M100.823 57.0533C100.823 55.0094 100.238 53.1845 99.2884 52.2356V51.5056H97.8273C96.147 51.5056 94.832 53.9875 94.832 57.0533C94.832 60.1192 96.147 62.6011 97.8273 62.6011H99.2884V61.8711C100.165 60.9222 100.823 59.0972 100.823 57.0533Z" fill="#CED7E2"/>
<path d="M99.5075 62.6011C101.162 62.6011 102.503 60.1173 102.503 57.0533C102.503 53.9894 101.162 51.5056 99.5075 51.5056C97.8532 51.5056 96.5122 53.9894 96.5122 57.0533C96.5122 60.1173 97.8532 62.6011 99.5075 62.6011Z" fill="white"/>
<path d="M53.7542 42.6667L53.7535 42.6677C47.0629 51.3723 33.4178 44.9615 35.6446 34.4623L35.6447 34.4617C37.3166 26.5268 47.1382 23.6067 52.8468 29.3106C56.4685 32.9295 56.8141 38.706 53.7542 42.6667Z" fill="#F1F3F9" stroke="#A4AFBB"/>
<path d="M55.0166 93.4787V95.5226C55.0166 95.8146 54.7974 96.0336 54.5052 96.0336H34.488C34.1957 96.0336 33.9766 95.8146 33.9766 95.5226V93.4787C33.9766 93.1868 34.1957 92.9678 34.488 92.9678H54.5052C54.7974 93.0408 55.0166 93.2598 55.0166 93.4787Z" fill="#DAE0E8"/>
<path opacity="0.5" d="M38.7252 93.0414L37.9947 95.9612H35.1455L35.8761 93.0414H38.7252Z" fill="white"/>
<path opacity="0.5" d="M48.953 93.0414L48.2225 95.9612H46.6152L47.2727 93.0414H48.953Z" fill="white"/>
<path opacity="0.5" d="M39.8942 93.0414L39.1637 95.9612H38.4331L39.1637 93.0414H39.8942Z" fill="white"/>
<path opacity="0.1" d="M54.9435 95.6683H33.9766V96.0342H54.9435V95.6683Z" fill="#4F3500"/>
<path d="M56.6235 90.4861V92.53C56.6235 92.822 56.4044 93.041 56.1121 93.041H36.0949C35.8027 93.041 35.5835 92.822 35.5835 92.53V90.4861C35.5835 90.1941 35.8027 89.9751 36.0949 89.9751H56.1121C56.4044 90.0481 56.6235 90.2671 56.6235 90.4861Z" fill="#DAE0E8"/>
<path opacity="0.5" d="M39.6024 90.0481L38.9449 93.041H36.0957L36.7532 90.0481H39.6024Z" fill="white"/>
<path opacity="0.5" d="M49.1716 90.0481L48.441 93.041H46.7607L47.4913 90.0481H49.1716Z" fill="white"/>
<path opacity="0.5" d="M40.8434 90.0481L40.1129 93.041H39.3823L40.1129 90.0481H40.8434Z" fill="white"/>
<path opacity="0.1" d="M56.6237 92.675H35.6567V93.0409H56.6237V92.675Z" fill="#4F3500"/>
<path d="M56.0395 87.5669V89.6108C56.0395 89.9028 55.8204 90.1218 55.5282 90.1218H35.5109C35.2187 90.1218 34.9995 89.9028 34.9995 89.6108V87.5669C34.9995 87.2749 35.2187 87.0559 35.5109 87.0559H55.5282C55.8204 87.0559 56.0395 87.2749 56.0395 87.5669Z" fill="#DAE0E8"/>
<path opacity="0.5" d="M40.4787 87.0554L39.7481 90.0483H36.8989L37.6295 87.0554H40.4787Z" fill="white"/>
<path opacity="0.5" d="M49.976 87.0554L49.3185 90.0483H47.6382L48.3687 87.0554H49.976Z" fill="white"/>
<path opacity="0.5" d="M41.6478 87.0554L40.9903 90.0483H40.2598L40.9173 87.0554H41.6478Z" fill="white"/>
<path opacity="0.1" d="M56.0392 89.6835H35.0723V90.0493H56.0392V89.6835Z" fill="#4F3500"/>
<path d="M55.0166 78.6606V80.7045C55.0166 80.9965 54.7974 81.2155 54.5052 81.2155H34.488C34.1957 81.2155 33.9766 80.9965 33.9766 80.7045V78.6606C33.9766 78.3686 34.1957 78.1497 34.488 78.1497H54.5052C54.7974 78.1497 55.0166 78.3686 55.0166 78.6606Z" fill="#DAE0E8"/>
<path opacity="0.5" d="M38.7252 78.1492L37.9947 81.142H35.1455L35.8761 78.1492H38.7252Z" fill="white"/>
<path opacity="0.5" d="M48.953 78.1492L48.2225 81.142H46.6152L47.2727 78.1492H48.953Z" fill="white"/>
<path opacity="0.5" d="M39.8942 78.1492L39.1637 81.142H38.4331L39.1637 78.1492H39.8942Z" fill="white"/>
<path opacity="0.1" d="M54.9435 80.7773H33.9766V81.1432H54.9435V80.7773Z" fill="#4F3500"/>
<path d="M56.6235 84.573V86.6169C56.6235 86.9089 56.4044 87.1279 56.1121 87.1279H36.0949C35.8027 87.1279 35.5835 86.9089 35.5835 86.6169V84.573C35.5835 84.281 35.8027 84.062 36.0949 84.062H56.1121C56.4044 84.062 56.6235 84.281 56.6235 84.573Z" fill="#DAE0E8"/>
<path opacity="0.5" d="M41.0628 84.062L40.4053 87.0549H37.5562L38.2137 84.062H41.0628Z" fill="white"/>
<path opacity="0.5" d="M50.6335 84.062L49.9029 87.0549H48.2227L48.9532 84.062H50.6335Z" fill="white"/>
<path opacity="0.5" d="M42.3049 84.062L41.5743 87.0549H40.8438L41.5743 84.062H42.3049Z" fill="white"/>
<path opacity="0.1" d="M56.6237 86.7631H35.6567V87.1289H56.6237V86.7631Z" fill="#4F3500"/>
<path d="M53.3364 81.5803V83.6242C53.3364 83.9162 53.1172 84.1352 52.825 84.1352H32.8078C32.5156 84.1352 32.2964 83.9162 32.2964 83.6242V81.5803C32.2964 81.2883 32.5156 81.0693 32.8078 81.0693H52.825C53.1172 81.1423 53.3364 81.3613 53.3364 81.5803Z" fill="#DAE0E8"/>
<path opacity="0.5" d="M42.1593 81.1426L41.4288 84.0624H38.5796L39.3101 81.1426H42.1593Z" fill="white"/>
<path opacity="0.5" d="M51.6561 81.1426L50.9986 84.0624H49.3184L50.0489 81.1426H51.6561Z" fill="white"/>
<path opacity="0.5" d="M43.3275 81.1426L42.67 84.0624H41.9395L42.597 81.1426H43.3275Z" fill="white"/>
<path opacity="0.1" d="M53.3366 83.7705H32.3696V84.1363H53.3366V83.7705Z" fill="#4F3500"/>
<path opacity="0.5" d="M58.5966 99.0995L57.9391 102.165H56.478L57.0625 99.0995H58.5966Z" fill="white"/>
<path opacity="0.5" d="M51.2183 99.0995L50.5608 102.165H49.9033L50.5608 99.0995H51.2183Z" fill="white"/>
<path d="M45.5041 41.4657C44.1481 41.4657 43.0141 41.0097 42.1021 40.0977C41.2021 39.1857 40.7521 38.0637 40.7521 36.7317C40.7521 35.3877 41.2021 34.2657 42.1021 33.3657C43.0141 32.4537 44.1481 31.9977 45.5041 31.9977C46.3801 31.9977 47.1781 32.2077 47.8981 32.6277C48.6181 33.0477 49.1581 33.6117 49.5181 34.3197L47.8441 35.2917C47.6401 34.8597 47.3281 34.5237 46.9081 34.2837C46.5001 34.0317 46.0261 33.9057 45.4861 33.9057C44.6941 33.9057 44.0281 34.1757 43.4881 34.7157C42.9601 35.2557 42.6961 35.9277 42.6961 36.7317C42.6961 37.5357 42.9601 38.2077 43.4881 38.7477C44.0281 39.2877 44.6941 39.5577 45.4861 39.5577C46.0141 39.5577 46.4881 39.4317 46.9081 39.1797C47.3401 38.9277 47.6641 38.5917 47.8801 38.1717L49.5541 39.1257C49.1701 39.8457 48.6181 40.4157 47.8981 40.8357C47.1781 41.2557 46.3801 41.4657 45.5041 41.4657Z" fill="#A4AFBB"/>
<defs>
<linearGradient id="paint0_linear_2904:26753" x1="89.4874" y1="57.3064" x2="97.3198" y2="56.7529" gradientUnits="userSpaceOnUse">
<stop offset="0.00289017" stop-color="#FFD44F"/>
<stop offset="1" stop-color="#FFA607"/>
</linearGradient>
<linearGradient id="paint1_linear_2904:26753" x1="64.5745" y1="57.3672" x2="101.901" y2="57.3672" gradientUnits="userSpaceOnUse">
<stop stop-color="#D5DAE8"/>
<stop offset="1" stop-color="#9AA3BA"/>
</linearGradient>
</defs>
</svg>
