<svg width="140" height="96" viewBox="0 0 140 96" fill="none" xmlns="http://www.w3.org/2000/svg">
<path d="M70.8445 95.3331C96.7516 95.3331 117.753 74.2597 117.753 48.2643C117.753 22.269 96.7516 1.19556 70.8445 1.19556C44.9374 1.19556 23.9355 22.269 23.9355 48.2643C23.9355 74.2597 44.9374 95.3331 70.8445 95.3331Z" fill="#EAEEF9"/>
<path d="M43.7345 5.23505C44.9738 4.83087 45.6519 3.49513 45.2491 2.2516C44.8463 1.00806 43.515 0.327621 42.2757 0.731797C41.0364 1.13597 40.3583 2.47171 40.7611 3.71525C41.1639 4.95878 42.4951 5.63922 43.7345 5.23505Z" fill="#EAEEF9"/>
<path d="M97.0829 86.9991H11.854L27.4274 15.1174H112.751L97.0829 86.9991Z" fill="white"/>
<path d="M97.0829 86.9991H11.854L27.4274 15.1174H112.751L97.0829 86.9991Z" fill="#D5DAE8"/>
<path d="M47.9088 86.9991H30.259C27.0499 86.9991 24.4072 84.2526 24.5959 81.0326L27.4275 15.1174H31.6748L47.9088 86.9991Z" fill="url(#paint0_linear_2791:14773)"/>
<path d="M131.439 86.9991H46.2097L31.7689 31.7856L31.6745 31.4068L27.4272 15.1174H112.751L116.432 29.2286L116.998 31.4068L117.092 31.7856L131.439 86.9991Z" fill="white"/>
<path d="M116.998 31.4068H31.6745L27.4272 15.1174H112.751L116.432 29.2286L116.998 31.4068Z" fill="#EFF3FB"/>
<path opacity="0.3" d="M49.8909 26.7662C51.559 26.7662 52.9112 25.4094 52.9112 23.7357C52.9112 22.0619 51.559 20.7051 49.8909 20.7051C48.2228 20.7051 46.8706 22.0619 46.8706 23.7357C46.8706 25.4094 48.2228 26.7662 49.8909 26.7662Z" fill="#ADB6C8"/>
<path opacity="0.3" d="M99.7259 26.7662C101.394 26.7662 102.746 25.4094 102.746 23.7357C102.746 22.0619 101.394 20.7051 99.7259 20.7051C98.0578 20.7051 96.7056 22.0619 96.7056 23.7357C96.7056 25.4094 98.0578 26.7662 99.7259 26.7662Z" fill="#ADB6C8"/>
<path d="M49.1359 24.9668C48.5696 24.9668 48.0977 24.4933 48.0977 23.925C48.0977 23.3568 48.5696 22.8833 49.1359 22.8833C51.2123 22.8833 53.3832 19.9474 53.3832 15.4962C53.3832 15.4015 53.3832 15.2121 53.3832 15.1174C53.2888 10.7609 51.118 8.10916 49.1359 8.10916C47.2482 8.10916 45.1718 10.6662 44.8886 14.6439H42.7178C43.0009 9.71916 45.7381 6.02563 49.0415 6.02563C52.5337 6.02563 55.2709 10.098 55.4596 15.3068C55.4596 15.4015 55.4596 15.4962 55.4596 15.5909C55.554 20.7997 52.7225 24.9668 49.1359 24.9668Z" fill="#ADB6C8"/>
<path d="M98.6872 24.9668C98.1209 24.9668 97.6489 24.4933 97.6489 23.925C97.6489 23.3568 98.1209 22.8833 98.6872 22.8833C100.764 22.8833 102.934 19.9474 102.934 15.4962C102.934 15.4015 102.934 15.2121 102.934 15.1174C102.84 10.7609 100.669 8.10916 98.6872 8.10916C96.7995 8.10916 94.723 10.6662 94.4399 14.6439H92.269C92.5522 9.71916 95.2893 6.02563 98.5928 6.02563C102.085 6.02563 104.822 10.098 105.011 15.3068C105.011 15.4015 105.011 15.4962 105.011 15.5909C105.105 20.7997 102.274 24.9668 98.6872 24.9668Z" fill="#ADB6C8"/>
<path d="M1 86.9043H138.329" stroke="#D5DAE8" stroke-width="2" stroke-miterlimit="10" stroke-linecap="round" stroke-linejoin="round"/>
<path opacity="0.3" d="M100.198 52.7154C99.6314 52.7154 99.2539 52.2419 99.2539 51.7683C99.2539 51.2001 99.6314 50.8213 100.198 50.8213H103.124C103.69 50.8213 104.067 51.2948 104.067 51.7683C104.067 52.3366 103.596 52.7154 103.124 52.7154H100.198Z" fill="#D5DAE8"/>
<path opacity="0.3" d="M59.9902 79.4226C59.6126 79.4226 59.2351 79.1385 59.0463 78.7596L57.5362 73.172H50.0798C49.5135 73.172 49.136 72.6985 49.136 72.2249C49.136 71.6567 49.6079 71.2779 50.0798 71.2779H56.9699L54.6103 62.9438H47.4371C46.8708 62.9438 46.4932 62.4702 46.4932 61.9967C46.4932 61.4285 46.8708 61.0497 47.4371 61.0497H54.044L51.6844 52.7156H44.8887C44.3224 52.7156 43.9449 52.242 43.9449 51.7685C43.9449 51.2003 44.3224 50.8214 44.8887 50.8214H51.2124L48.8528 42.4873H42.3403C41.774 42.4873 41.3965 42.0138 41.3965 41.5403C41.3965 40.972 41.774 40.5932 42.3403 40.5932H48.2865L47.3427 37.1838C47.2483 36.7103 47.5315 36.142 48.0034 36.0473C48.0978 36.0473 48.1921 36.0473 48.2865 36.0473C48.6641 36.0473 49.0416 36.3315 49.2304 36.7103L50.363 40.5932H57.9137C58.48 40.5932 58.8576 40.972 58.8576 41.5403C58.8576 42.1085 58.48 42.4873 57.9137 42.4873H50.9293L53.2889 50.8214H65.1813L61.4059 37.1838C61.3115 36.7103 61.5947 36.142 62.0666 36.0473C62.161 36.0473 62.2554 36.0473 62.3498 36.0473C62.7273 36.0473 63.1048 36.3315 63.2936 36.7103L64.4262 40.5932H68.4847C69.051 40.5932 69.4286 40.972 69.4286 41.5403C69.4286 42.1085 68.9567 42.4873 68.4847 42.4873H64.9925L67.3521 50.8214H75.3748C75.9411 50.8214 76.3186 51.295 76.3186 51.7685C76.3186 52.3367 75.9411 52.7156 75.3748 52.7156H67.9184L70.278 61.0497H82.2648L77.0737 42.4873H74.5253C73.959 42.4873 73.5815 42.0138 73.5815 41.5403C73.5815 40.972 74.0534 40.5932 74.5253 40.5932H76.5074L75.5636 37.1838C75.4692 36.8997 75.5636 36.7103 75.6579 36.4262C75.7523 36.2368 75.9411 36.0473 76.2242 35.9526C76.3186 35.9526 76.413 35.9526 76.5074 35.9526C76.8849 35.9526 77.2625 36.2368 77.4512 36.6156L78.5838 40.4985H80.5659C81.1322 40.4985 81.5098 40.8773 81.5098 41.4456C81.5098 42.0138 81.1322 42.3926 80.5659 42.3926H79.1502L81.5098 50.7267H93.4966L91.1369 42.3926H85.002C84.4357 42.3926 84.0581 41.9191 84.0581 41.4456C84.0581 40.8773 84.5301 40.4985 85.002 40.4985H90.2875L89.3436 37.0891C89.2493 36.6156 89.5324 36.0473 90.0043 35.9526C90.0987 35.9526 90.1931 35.9526 90.2875 35.9526C90.665 35.9526 91.0426 36.2368 91.2313 36.6156L92.3639 40.4985H104.351L103.407 37.0891C103.312 36.6156 103.596 36.0473 104.068 35.9526C104.162 35.9526 104.256 35.9526 104.351 35.9526C104.728 35.9526 105.106 36.2368 105.295 36.6156L106.427 40.4985H113.789C114.355 40.4985 114.733 40.8773 114.733 41.4456C114.733 42.0138 114.355 42.3926 113.789 42.3926H106.71L109.07 50.7267H116.149C116.715 50.7267 117.093 51.2003 117.093 51.6738C117.093 52.242 116.715 52.6208 116.149 52.6208H109.636L111.996 60.955H118.792C119.358 60.955 119.735 61.4285 119.735 61.902C119.735 62.4702 119.358 62.8491 118.792 62.8491H112.562L114.922 71.1832H121.34C121.906 71.1832 122.284 71.6567 122.284 72.1302C122.284 72.6985 121.812 73.0773 121.34 73.0773H115.394L116.809 78.0967C116.904 78.5702 116.621 79.1385 116.149 79.2332C116.054 79.2332 115.96 79.2332 115.866 79.2332C115.488 79.2332 115.111 78.949 114.922 78.5702L113.412 73.0773H101.425L102.841 78.002C102.935 78.2861 102.841 78.4755 102.746 78.7596C102.652 78.949 102.463 79.1385 102.18 79.2332C102.086 79.2332 101.991 79.2332 101.897 79.2332C101.519 79.2332 101.142 78.949 100.953 78.5702L99.4428 73.172H87.456L88.8717 78.0967C88.9661 78.5702 88.683 79.1385 88.211 79.2332C88.1167 79.2332 88.0223 79.2332 87.9279 79.2332C87.5503 79.2332 87.1728 78.949 86.984 78.5702L85.4739 73.172H73.4871L74.9029 78.0967C74.9973 78.5702 74.7141 79.1385 74.2422 79.2332C74.1478 79.2332 74.0534 79.2332 73.959 79.2332C73.5815 79.2332 73.204 78.949 73.0152 78.5702L71.505 73.172H59.5182L60.934 78.1914C61.0284 78.4755 60.934 78.6649 60.8396 78.949C60.7452 79.1385 60.5565 79.3279 60.2733 79.4226C60.1789 79.4226 60.0846 79.4226 59.9902 79.4226ZM86.8897 71.2779H112.845L110.486 62.9438H98.4989L99.3484 65.9744C99.4427 66.2585 99.3484 66.4479 99.254 66.732C99.1596 66.9214 98.9708 67.1108 98.6877 67.2055C98.5933 67.2055 98.4989 67.2055 98.4045 67.2055C98.027 67.2055 97.6494 66.9214 97.4607 66.5426L96.5168 63.0385H92.9302C92.3639 63.0385 91.9864 62.565 91.9864 62.0914C91.9864 61.5232 92.3639 61.1444 92.9302 61.1444H95.9505L93.5909 52.8103H81.6985L84.0581 61.1444H86.984C87.5503 61.1444 87.9279 61.6179 87.9279 62.0914C87.9279 62.6597 87.5503 63.0385 86.984 63.0385H84.5301L86.8897 71.2779ZM72.9208 71.2779H84.9076L82.548 62.9438H70.5612L72.9208 71.2779ZM58.9519 71.2779H70.9387L68.5791 62.9438H65.0869C64.5206 62.9438 64.1431 62.4702 64.1431 61.9967C64.1431 61.4285 64.615 61.0497 65.0869 61.0497H68.1072L65.7476 52.7156H53.7608L56.1204 61.0497H59.2351C59.8014 61.0497 60.1789 61.5232 60.1789 61.9967C60.1789 62.5649 59.707 62.9438 59.2351 62.9438H56.6867L58.9519 71.2779ZM98.027 61.0497H110.014L104.823 42.4873H92.7415L98.027 61.0497Z" fill="#D5DAE8"/>
<path d="M71.0391 51.3851C67.1171 51.3851 63.8226 48.8757 62.5675 45.2686C62.2538 44.4844 62.7244 43.7002 63.5088 43.3866C64.2932 43.0729 65.0776 43.5434 65.3914 44.3276C66.1758 46.6801 68.529 48.4052 71.0391 48.4052C73.5492 48.4052 75.9024 46.8369 76.6868 44.3276C77.0006 43.5434 77.785 43.0729 78.5694 43.3866C79.3538 43.7002 79.8245 44.4844 79.5107 45.2686C78.2557 49.0326 74.9611 51.3851 71.0391 51.3851Z" fill="#ADB6C8"/>
<path d="M94.7281 51.3851C90.806 51.3851 87.5115 48.8757 86.2565 45.2686C85.9427 44.4844 86.4134 43.7002 87.1978 43.3866C87.9822 43.0729 88.7666 43.5434 89.0803 44.3276C89.8648 46.6801 92.218 48.4052 94.7281 48.4052C97.2382 48.4052 99.5914 46.8369 100.376 44.3276C100.69 43.5434 101.474 43.0729 102.258 43.3866C103.043 43.7002 103.513 44.4844 103.2 45.2686C101.945 49.0326 98.6501 51.3851 94.7281 51.3851Z" fill="#ADB6C8"/>
<path d="M87.5292 70.5879C89.522 70.5879 91.1374 68.9729 91.1374 66.9807C91.1374 64.9885 89.522 63.3735 87.5292 63.3735C85.5364 63.3735 83.9209 64.9885 83.9209 66.9807C83.9209 68.9729 85.5364 70.5879 87.5292 70.5879Z" fill="#ADB6C8"/>
<path d="M12.4887 5.52247V0.872803H30.4588V5.52247L18.1969 20.3169H30.6703V24.9665H11.8545V20.3169L24.1165 5.52247H12.4887Z" fill="#ADB6C8"/>
<path d="M35.6884 34.8671V31.9082H47.3162V34.8671L39.4939 44.3778H47.5276V47.3367H35.2656V44.3778L43.0879 34.8671H35.6884Z" fill="#ADB6C8"/>
<defs>
<linearGradient id="paint0_linear_2791:14773" x1="24.5787" y1="51.0475" x2="47.9437" y2="51.0475" gradientUnits="userSpaceOnUse">
<stop stop-color="#D5DAE8"/>
<stop offset="1" stop-color="#9AA3BA"/>
</linearGradient>
</defs>
</svg>
