<svg width="120" height="101" viewBox="0 0 120 101" fill="none" xmlns="http://www.w3.org/2000/svg">
<path d="M61.6384 99.9999C85.4522 99.9999 104.757 80.5493 104.757 56.5559C104.757 32.5624 85.4522 13.1118 61.6384 13.1118C37.8245 13.1118 18.5195 32.5624 18.5195 56.5559C18.5195 80.5493 37.8245 99.9999 61.6384 99.9999Z" fill="#EAEEF9"/>
<path d="M61.6398 77.2726C72.9957 77.2726 82.2015 67.9973 82.2015 56.5558C82.2015 45.1142 72.9957 35.839 61.6398 35.839C50.2839 35.839 41.0781 45.1142 41.0781 56.5558C41.0781 67.9973 50.2839 77.2726 61.6398 77.2726Z" fill="white"/>
<path d="M33.4434 99.9998C19.3886 90.7341 10.1055 74.7376 10.1055 56.5557C10.1055 27.8844 33.1832 4.72009 61.5531 4.72009C89.923 4.72009 113.001 27.9718 113.001 56.5557C113.001 74.7376 103.718 90.7341 89.576 99.9998" stroke="#EAEEF9" stroke-width="1.5" stroke-miterlimit="10" stroke-linecap="round" stroke-linejoin="round" stroke-dasharray="1 6"/>
<path d="M33.1692 21.9148C34.3083 21.5418 34.9317 20.3089 34.5614 19.1611C34.1911 18.0133 32.9675 17.3853 31.8283 17.7584C30.6891 18.1314 30.0658 19.3643 30.4361 20.5121C30.8063 21.6598 32.03 22.2879 33.1692 21.9148Z" fill="#EAEEF9"/>
<path d="M37.8769 14.7018C38.6515 14.4481 39.0754 13.6097 38.8236 12.8293C38.5718 12.0488 37.7398 11.6217 36.9651 11.8754C36.1905 12.1291 35.7666 12.9674 36.0184 13.7479C36.2702 14.5284 37.1022 14.9555 37.8769 14.7018Z" fill="#EAEEF9"/>
<path d="M117.366 44.154C118.71 42.9165 118.804 40.8154 117.576 39.4612C116.348 38.1069 114.262 38.0123 112.918 39.2499C111.574 40.4875 111.48 42.5886 112.708 43.9428C113.937 45.297 116.022 45.3916 117.366 44.154Z" fill="#EAEEF9"/>
<path d="M117.675 29.3268C118.241 28.8058 118.28 27.9211 117.763 27.3509C117.246 26.7807 116.368 26.7409 115.802 27.262C115.236 27.783 115.197 28.6677 115.714 29.2379C116.231 29.8081 117.109 29.8479 117.675 29.3268Z" fill="#EAEEF9"/>
<path d="M75.2592 11.8879C76.0259 11.8879 76.6474 11.2617 76.6474 10.4893C76.6474 9.71687 76.0259 9.0907 75.2592 9.0907C74.4926 9.0907 73.8711 9.71687 73.8711 10.4893C73.8711 11.2617 74.4926 11.8879 75.2592 11.8879Z" fill="url(#paint0_linear_3435_35756)"/>
<path d="M14.4484 26.6557C15.0143 26.1346 15.0538 25.25 14.5366 24.6798C14.0195 24.1095 13.1414 24.0697 12.5755 24.5908C12.0096 25.1119 11.97 25.9965 12.4872 26.5668C13.0044 27.137 13.8824 27.1768 14.4484 26.6557Z" fill="#51DFD4"/>
<path d="M118.972 55.4125C119.538 54.8915 119.577 54.0068 119.06 53.4366C118.543 52.8664 117.665 52.8266 117.099 53.3476C116.533 53.8687 116.493 54.7534 117.011 55.3236C117.528 55.8938 118.406 55.9336 118.972 55.4125Z" fill="#1CE069"/>
<path d="M46.2964 67.7534C45.9493 69.3269 45.5154 70.7255 44.8213 72.1241C44.7346 72.3863 44.561 72.7359 44.3875 72.9982C43.867 74.0471 43.2598 75.096 42.5657 75.9701C42.3055 76.3198 42.0452 76.6696 41.6981 77.0192C39.963 79.0297 37.7941 80.7777 35.4516 82.0015C35.0178 82.2637 34.5839 82.4387 34.0634 82.6136C33.2826 82.9632 32.5018 83.2254 31.7209 83.4002C28.5977 84.2743 25.3008 84.4491 21.9172 83.7498C10.7254 81.3896 3.61133 70.3756 5.9538 59.1867C8.29627 47.9105 19.2277 40.7428 30.3327 43.1029C34.2369 43.8896 37.8807 45.9001 40.7437 48.7847C45.6022 53.7672 47.7713 60.8478 46.2964 67.7534Z" fill="#C3C9D4"/>
<path d="M24.5073 73.9507C23.8132 73.9507 23.2059 73.9507 22.5119 73.9507C22.5119 72.8143 22.5119 71.7654 22.5119 70.629C21.2972 70.4542 19.9959 70.5416 18.7812 70.5416C19.0415 69.0556 19.0415 68.8808 19.1283 68.4437C19.1283 68.3563 19.215 68.2689 19.3018 68.2689C19.6488 68.2689 20.0826 68.2689 20.4297 68.2689C21.037 68.2689 21.1237 68.094 21.1237 67.5696C21.1237 64.8598 21.1237 62.15 21.1237 59.4402C21.1237 58.6535 20.6032 58.3913 20.0826 58.3913C19.6488 58.3913 19.215 58.3913 18.7812 58.3913C18.7812 57.7794 18.7812 57.0801 18.7812 56.4682C19.4753 56.4682 20.8634 56.4682 22.2516 56.4682C22.5119 56.4682 22.5119 56.4682 22.5119 56.2059C22.5119 55.5066 22.5119 53.7584 22.5119 53.0591C23.2059 53.0591 23.8132 53.0591 24.5073 53.0591C24.5073 54.1954 24.5073 55.2444 24.5073 56.3808C25.0278 56.3808 25.4616 56.3808 25.9822 56.3808C25.9822 55.2444 25.9822 54.1954 25.9822 53.0591C26.5895 53.0591 27.1968 53.0591 27.8041 53.0591C27.8041 53.4087 27.8041 56.1185 27.8041 56.2933C27.8041 56.4682 27.8041 56.4682 27.9776 56.4682C30.2333 56.7304 32.142 57.4297 32.3155 59.7024C32.4023 60.4892 32.3155 61.2759 31.795 61.8878C31.4479 62.3248 31.0142 62.5871 30.7539 62.7619C31.3612 62.9367 32.7493 63.2864 33.2699 64.8598C33.4434 65.4717 33.4434 66.0836 33.3566 66.7829C33.2699 67.4822 33.0096 68.094 32.6626 68.7059C32.2288 69.4052 31.5347 69.8423 30.7539 70.1045C29.8863 70.4542 28.932 70.629 27.9776 70.629C27.8041 70.629 27.8041 70.7164 27.8041 70.8038C27.8041 71.7654 27.8041 72.6395 27.8041 73.9507C27.1968 73.9507 26.5895 73.9507 25.9822 73.9507C25.9822 72.9017 25.9822 71.7654 25.9822 70.7164C25.4616 70.7164 25.0278 70.7164 24.5073 70.7164C24.5073 71.7654 24.5073 72.9017 24.5073 73.9507ZM24.5073 64.2479C24.5073 65.6465 24.5073 66.9577 24.5073 68.3563C26.5027 68.2689 27.5438 68.3563 28.6717 67.7444C29.279 67.4822 29.5393 67.0451 29.626 66.3458C29.7128 65.6465 29.3658 65.122 28.8452 64.7724C27.8041 64.1605 25.7219 64.2479 24.5073 64.2479C24.594 64.2479 24.594 64.2479 24.5073 64.2479ZM24.5073 58.6535C24.5073 59.8773 24.5073 61.1885 24.5073 62.4122C25.2881 62.4996 26.6762 62.4122 27.3703 62.2374C29.3658 61.7129 29.0187 59.615 27.8909 59.0905C26.6762 58.4787 25.4616 58.5661 24.5073 58.6535Z" fill="white"/>
<path d="M112.667 52.1067C112.32 53.6801 111.886 55.0787 111.192 56.4773C111.106 56.7396 110.932 57.0892 110.759 57.3515C110.238 58.4004 109.631 59.4493 108.937 60.3234C108.677 60.673 108.416 61.0224 108.069 61.3721C106.334 63.3826 104.165 65.131 101.823 66.3548C101.389 66.617 100.955 66.792 100.434 66.9668C99.6536 67.3165 98.8729 67.5786 98.092 67.7535C94.9687 68.6276 91.6719 68.8023 88.2883 68.103C77.0965 65.7429 69.9824 54.7288 72.3249 43.54C74.6674 32.2638 85.5988 25.096 96.7038 27.4562C100.608 28.2429 104.252 30.2534 107.115 33.138C111.973 38.1205 114.056 45.2885 112.667 52.1067Z" fill="#A8ADB8"/>
<path d="M91.1403 58.741V56.5557C88.1905 56.2935 86.1083 54.8075 85.0672 52.5348L84.9805 52.3599L88.017 51.0487L88.1038 51.2236C88.6243 52.5348 90.533 53.5837 92.5284 53.5837C93.396 53.5837 96.3458 53.4089 96.3458 51.2236C96.3458 50.0872 95.1312 49.3879 92.4417 49.0383C88.9713 48.6012 85.7613 47.9893 85.7613 44.0557C85.7613 41.4334 87.7567 39.5977 91.1403 39.1606V37.1501H94.3504V39.1606C95.9988 39.4229 97.9942 40.0348 99.1221 42.3949L99.2088 42.5697L96.4326 43.8809L96.3458 43.7935C95.7385 42.832 94.0901 42.1327 92.6152 42.1327C91.5741 42.1327 89.1449 42.3075 89.1449 44.1432C89.1449 45.4543 90.7065 45.804 92.7887 45.9788C95.8252 46.3285 99.9029 46.8529 99.9029 51.2236C99.9029 54.5452 97.2134 56.2061 94.4371 56.4683V58.8285H91.1403V58.741Z" fill="white"/>
<path d="M19.2188 99.9998H107.799" stroke="#EBF0F6" stroke-width="2" stroke-miterlimit="10" stroke-linecap="round" stroke-linejoin="round"/>
<path d="M110.486 69.4056L13.7507 92.57C11.495 93.0944 9.2393 91.6958 8.71875 89.4231L113.523 64.2483C114.043 66.6084 112.742 68.8812 110.486 69.4056Z" fill="#C3C9D4"/>
<path d="M52.1846 94.8426L59.559 82.5175C60.5134 80.944 62.7691 80.944 63.7234 82.5175L71.0979 94.8426C72.2257 96.7657 70.8376 99.3007 68.5819 99.3007H54.6138C52.3581 99.3007 50.97 96.8531 52.1846 94.8426Z" fill="#C3C9D4"/>
<path d="M103.199 0H93.6555C92.7011 0 91.9203 0.786713 91.9203 1.74825C91.9203 2.70979 92.7011 3.4965 93.6555 3.4965H98.6875L73.7879 23.0769L68.2353 10.6643C68.1486 10.4895 68.0618 10.3147 67.8883 10.2273C67.1942 9.52797 66.1531 9.52797 65.4591 10.1399L39.8654 34.2657L34.0526 22.6399V22.5524C33.9658 22.3776 33.8791 22.2902 33.7923 22.2028C33.185 21.5035 32.0572 21.5035 31.3631 22.1154L0.130137 51.7482C-0.0433791 51.9231 -0.0433791 52.1853 0.130137 52.3601C0.303654 52.535 0.563928 52.535 0.737445 52.4475L31.9704 26.1364L37.87 37.8496C37.9567 38.0245 38.0435 38.1119 38.1302 38.2867C38.8243 38.986 39.8654 38.986 40.5595 38.3741L65.9796 14.3357L71.4454 26.5734C71.5321 26.6608 71.5321 26.8357 71.6189 26.9231C72.2262 27.7098 73.2673 27.7972 74.0481 27.1853L101.464 5.68182V11.3636C101.464 12.3252 102.245 13.1119 103.199 13.1119C104.153 13.1119 104.934 12.3252 104.934 11.3636V1.74825C104.934 0.786713 104.153 0 103.199 0Z" fill="url(#paint1_linear_3435_35756)"/>
<path d="M103.199 0H93.6555C92.7011 0 91.9203 0.786713 91.9203 1.74825C91.9203 2.70979 92.7011 3.4965 93.6555 3.4965H98.6875L73.7879 23.0769L68.2353 10.6643C68.1486 10.4895 68.0618 10.3147 67.8883 10.2273C67.1942 9.52797 66.1531 9.52797 65.4591 10.1399L39.8654 34.2657L34.0526 22.6399V22.5524C33.9658 22.3776 33.8791 22.2902 33.7923 22.2028C33.185 21.5035 32.0572 21.5035 31.3631 22.1154L0.130137 51.7482C-0.0433791 51.9231 -0.0433791 52.1853 0.130137 52.3601C0.303654 52.535 0.563928 52.535 0.737445 52.4475L31.9704 26.1364L37.87 37.8496C37.9567 38.0245 38.0435 38.1119 38.1302 38.2867C38.8243 38.986 39.8654 38.986 40.5595 38.3741L65.9796 14.3357L71.4454 26.5734C71.5321 26.6608 71.5321 26.8357 71.6189 26.9231C72.2262 27.7098 73.2673 27.7972 74.0481 27.1853L101.464 5.68182V11.3636C101.464 12.3252 102.245 13.1119 103.199 13.1119C104.153 13.1119 104.934 12.3252 104.934 11.3636V1.74825C104.934 0.786713 104.153 0 103.199 0Z" fill="url(#paint2_linear_3435_35756)"/>
<defs>
<linearGradient id="paint0_linear_3435_35756" x1="73.9474" y1="10.5287" x2="76.6405" y2="10.5287" gradientUnits="userSpaceOnUse">
<stop offset="0.00289017" stop-color="#FFD44F"/>
<stop offset="1" stop-color="#FFA607"/>
</linearGradient>
<linearGradient id="paint1_linear_3435_35756" x1="9.06624" y1="47.2028" x2="87.7337" y2="64.0378" gradientUnits="userSpaceOnUse">
<stop stop-color="#51DFD4"/>
<stop offset="1" stop-color="#1BE068"/>
</linearGradient>
<linearGradient id="paint2_linear_3435_35756" x1="24.3938" y1="4.78261" x2="43.0615" y2="61.6009" gradientUnits="userSpaceOnUse">
<stop stop-color="#83A6FF"/>
<stop offset="1" stop-color="#5A78FF"/>
</linearGradient>
</defs>
</svg>
