<svg width="121" height="104" viewBox="0 0 121 104" fill="none" xmlns="http://www.w3.org/2000/svg">
<path d="M57.3902 92.7057C80.2494 92.7057 98.7804 74.1757 98.7804 51.3178C98.7804 28.4599 80.2494 9.92993 57.3902 9.92993C34.531 9.92993 16 28.4599 16 51.3178C16 74.1757 34.531 92.7057 57.3902 92.7057Z" fill="#D9DCE3"/>
<path d="M117.835 57.4561C119.583 56.8913 120.54 55.0248 119.972 53.2871C119.404 51.5494 117.526 50.5986 115.778 51.1634C114.03 51.7282 113.073 53.5947 113.642 55.3324C114.21 57.07 116.087 58.0208 117.835 57.4561Z" fill="#EAEEF9"/>
<path d="M48.5232 2.20264L49.0874 2.62533C49.2285 2.69578 49.3696 2.55489 49.299 2.41399L49.0169 1.77995C48.8759 1.56861 48.9464 1.28681 49.0874 1.00502L49.5106 0.44143C49.5811 0.300533 49.4401 0.159636 49.299 0.230085L48.6643 0.511879C48.4527 0.652776 48.1706 0.582327 47.8885 0.44143L47.3243 0.0187383C47.1832 -0.0517103 47.0421 0.0891876 47.1127 0.230085L47.3948 0.864121C47.5358 1.07547 47.4653 1.35726 47.3243 1.63906L46.9011 2.20264C46.8306 2.34354 46.9716 2.48444 47.1127 2.41399L47.7474 2.13219C48.0295 1.9913 48.3116 2.06175 48.5232 2.20264Z" fill="#AFB6C7"/>
<path d="M88.7763 3.08399L89.5285 3.50668C89.7166 3.57713 89.9047 3.43623 89.8107 3.29534L89.4345 2.6613C89.2464 2.44995 89.3405 2.16816 89.5285 1.88637L90.0928 1.32278C90.1868 1.18188 89.9987 1.04098 89.8107 1.11143L88.9643 1.39323C88.6822 1.53412 88.3061 1.46367 87.9299 1.32278L87.1776 0.900086C86.9895 0.829637 86.8015 0.970535 86.8955 1.11143L87.2717 1.74547C87.4597 1.95681 87.3657 2.23861 87.1776 2.5204L86.6134 3.08399C86.5194 3.22489 86.7074 3.36578 86.8955 3.29534L87.7418 3.01354C88.024 2.87265 88.4001 2.94309 88.7763 3.08399Z" fill="#AFB6C7"/>
<path d="M6.63649 42.3052L1 45.2217" stroke="#CED7E2" stroke-width="0.881358" stroke-miterlimit="10" stroke-linecap="round" stroke-linejoin="round"/>
<path d="M66.5125 103.247C67.128 102.83 67.2871 101.997 66.8677 101.386C66.4483 100.775 65.6094 100.618 64.9939 101.034C64.3784 101.451 64.2194 102.284 64.6387 102.895C65.0581 103.506 65.897 103.663 66.5125 103.247Z" fill="#EAEEF9"/>
<path d="M40.7977 93.1963H35.0607L33.9004 89.7222H41.958L40.7977 93.1963Z" fill="#A4AFBB"/>
<path d="M83.8573 93.1963H78.0558L76.8955 89.7222H84.9531L83.8573 93.1963Z" fill="#A4AFBB"/>
<path d="M94.6219 90.3016H26.2935C23.9084 90.3016 21.9746 88.3715 21.9746 85.9911V17.0229C21.9746 14.6425 23.9084 12.7124 26.2935 12.7124H94.6219C97.007 12.7124 98.9408 14.6425 98.9408 17.0229V85.9911C98.9408 88.3715 97.007 90.3016 94.6219 90.3016Z" fill="#E9EFFB"/>
<path d="M90.4324 84.5757H30.5483C28.7433 84.5757 27.1963 83.0959 27.1963 81.2302V20.7544C27.1963 18.953 28.6789 17.4089 30.5483 17.4089H90.4324C92.2373 17.4089 93.7843 18.8887 93.7843 20.7544V81.2302C93.7843 83.0959 92.3017 84.5757 90.4324 84.5757Z" fill="#A4AFBB"/>
<g opacity="0.8">
<path opacity="0.5" d="M58.8449 73.8315L58.3292 76.019H57.1689L57.6846 73.8315H58.8449Z" fill="white"/>
<path opacity="0.5" d="M59.2956 82.4526L58.7799 84.5757H57.5552L58.0709 82.4526H59.2956Z" fill="white"/>
<path opacity="0.5" d="M60.0695 80.265L59.5539 82.4524H58.3291L58.8448 80.265H60.0695Z" fill="white"/>
<path opacity="0.5" d="M59.2956 71.7083L58.7799 73.8313H57.5552L58.0709 71.7083H59.2956Z" fill="white"/>
<path opacity="0.5" d="M60.07 69.5211L59.5543 71.7085H58.3296L58.8453 69.5211H60.07Z" fill="white"/>
</g>
<path d="M76.122 47.9041C62.972 49.2552 42.7313 48.9335 27.1963 49.3838V39.7334C27.3897 39.2831 27.5831 38.8971 27.712 38.5111C28.0343 37.739 28.6789 37.0957 29.4524 36.8383C29.5813 36.774 29.7747 36.7097 29.9036 36.7097C31.6441 36.195 33.6424 36.388 35.5117 36.967C36.4786 37.2887 37.3811 37.6104 38.2191 37.9964C39.9595 38.8327 41.7 39.7978 43.5049 40.4411C44.4073 40.7628 45.2453 41.0202 46.1478 41.1488C46.7924 41.2775 47.5014 41.2775 48.1461 41.2132C51.5625 40.9558 54.3988 38.6397 57.6863 37.546C61.6828 36.195 66.2595 36.8383 69.676 39.2831C71.4809 40.5055 73.0279 42.6929 72.2544 44.6873C72.1899 44.8803 72.1899 45.0733 72.2544 45.2663C72.7701 46.9391 78.1203 47.7111 76.122 47.9041Z" fill="#F1F3F9"/>
<path d="M93.7199 47.9039H26.5518V53.6942H93.7199V47.9039Z" fill="white"/>
<path opacity="0.4" d="M82.5029 55.8816C84.4253 55.8816 85.9837 53.3756 85.9837 50.2844C85.9837 47.1931 84.4253 44.6871 82.5029 44.6871C80.5804 44.6871 79.022 47.1931 79.022 50.2844C79.022 53.3756 80.5804 55.8816 82.5029 55.8816Z" fill="url(#paint0_linear_2904_26753)"/>
<path d="M79.9243 46.2312H75.6699V54.2732H79.9243V46.2312Z" fill="#1C3754"/>
<path d="M87.4675 17.9879L65.3574 9.43121C64.9062 8.53051 64.2616 7.69414 63.4881 7.05078H58.8469C57.88 7.11512 57.1064 7.95149 57.1064 9.10953V92.0386C57.1064 93.1966 57.9444 94.033 58.9114 94.0973H63.4881L64.0682 92.4246L87.4675 84.4469C88.9501 83.9323 89.9815 82.3882 89.9815 80.6511V21.7194C89.8525 20.0466 88.8856 18.5026 87.4675 17.9879Z" fill="url(#paint1_linear_2904_26753)"/>
<path d="M63.9397 7.17922L91.9802 17.9877C93.3983 18.5667 94.3652 20.0464 94.3652 21.7191V80.6509C94.3652 82.388 93.3339 83.932 91.8513 84.4467L63.8753 94.0328C62.715 94.4188 61.5547 93.4538 61.5547 92.0384V9.1093C61.5547 7.6939 62.7794 6.72886 63.9397 7.17922Z" fill="white"/>
<path d="M90.8844 50.4134C90.8844 45.8456 89.0795 41.9211 86.5655 40.377V39.6693H83.9871C80.4417 39.8623 77.6055 44.5588 77.6055 50.3491C77.6055 56.1393 80.4417 60.8358 83.9871 61.0288H86.5655V60.3211C89.0795 58.9058 90.8844 55.0456 90.8844 50.4134Z" fill="#D5DAE8"/>
<path d="M91.6997 55.8465L91.6183 56.0498L91.7311 56.2375L95.4012 62.3425C95.5119 62.545 95.5841 62.8629 95.5841 63.2402C95.5841 63.6101 95.5144 63.9961 95.3821 64.3193C95.2947 64.492 95.2196 64.6106 95.1522 64.6883C95.0854 64.7652 95.0459 64.7794 95.0318 64.7829L95.0297 64.7834C95.0254 64.7818 95.0198 64.7794 95.0129 64.776C94.9738 64.7565 94.9152 64.7127 94.8548 64.6353L90.9323 58.5385L90.5961 58.0158L90.2141 58.506C89.3582 59.6043 88.2842 60.3636 87.1273 60.5957C85.8601 60.8244 84.577 60.4271 83.5056 59.4766L83.1107 59.1262L82.8365 59.5775L76.6055 69.8355C76.5858 69.8588 76.5691 69.8808 76.556 69.8988C76.5336 69.9295 76.5124 69.9614 76.4974 69.9839C76.4869 69.9996 76.4786 70.0119 76.4716 70.0221C76.3775 70.0688 76.214 70.0949 75.9713 70.0343C75.7002 69.9667 75.3798 69.7999 75.0726 69.5233C74.8423 69.2921 74.6661 69.0575 74.5561 68.8444C74.4599 68.658 74.4271 68.5135 74.4278 68.4125C74.4505 68.3588 74.4653 68.3145 74.4769 68.28L74.4777 68.2774C74.4929 68.2321 74.5009 68.2089 74.5182 68.1743L74.5323 68.1463L74.5422 68.1165C74.5926 67.9655 74.7028 67.7432 74.813 67.5783L74.813 67.5784L74.8171 67.572L81.5211 57.1495L81.6569 56.9383L81.5444 56.7138C80.6769 54.9821 80.173 52.7996 80.173 50.3489C80.173 48.022 80.6143 45.8997 81.4211 44.1655L81.5236 43.9451L81.3918 43.7408L74.7524 33.447L74.7524 33.447L74.7485 33.4411C74.6107 33.2347 74.5198 33.0931 74.4777 32.9672L74.4448 32.8685L74.3795 32.8033C74.3785 32.8015 74.3773 32.7991 74.376 32.7962C74.3738 32.7911 74.3724 32.7865 74.3717 32.7834C74.3716 32.783 74.3716 32.7827 74.3715 32.7824V32.7577L74.3681 32.7304C74.3517 32.5997 74.3899 32.4064 74.5254 32.1631C74.6567 31.9272 74.8616 31.6776 75.1189 31.4481C75.4256 31.1993 75.7284 31.0618 75.9731 31.0142C76.2116 30.9677 76.3476 31.0124 76.4097 31.0567L76.4558 31.1026L76.5067 31.1535C76.527 31.1989 76.5486 31.2328 76.5618 31.2526C76.5764 31.2745 76.5907 31.2933 76.603 31.3084L82.7074 41.3773L82.9904 41.8441L83.387 41.469C84.5328 40.3857 85.8085 39.9447 87.1163 40.2284L87.1163 40.2286L87.1275 40.2307C88.3353 40.4603 89.4096 41.2714 90.3383 42.5073L90.7189 43.0137L91.0614 42.4808L94.8622 36.5655C94.9248 36.4728 94.9742 36.4419 94.9941 36.4329C95.0079 36.4267 95.0159 36.4259 95.0322 36.4309C95.0856 36.4475 95.2377 36.5474 95.3764 36.8794C95.5124 37.2053 95.5841 37.597 95.5841 37.9722C95.5841 38.3493 95.512 38.6672 95.4013 38.8697L91.7959 44.8457L91.6875 45.0254L91.7587 45.2228C92.3203 46.7799 92.635 48.5947 92.635 50.4775C92.635 52.4281 92.3193 54.3005 91.6997 55.8465ZM95.0405 64.7867C95.0405 64.7867 95.0399 64.7866 95.0386 64.7863L95.0405 64.7867Z" fill="#DFE9F5" stroke="#DDDEE2" stroke-width="0.881358"/>
<path d="M89.0792 50.2843C89.0792 48.4829 88.5636 46.8745 87.7256 46.0381V45.3948H86.4363C84.9538 45.3948 83.7935 47.5822 83.7935 50.2843C83.7935 52.9864 84.9538 55.1738 86.4363 55.1738H87.7256V54.5305C88.4991 53.6941 89.0792 52.0857 89.0792 50.2843Z" fill="#CED7E2"/>
<path d="M87.9193 55.1738C89.3789 55.1738 90.5622 52.9847 90.5622 50.2843C90.5622 47.5839 89.3789 45.3948 87.9193 45.3948C86.4596 45.3948 85.2764 47.5839 85.2764 50.2843C85.2764 52.9847 86.4596 55.1738 87.9193 55.1738Z" fill="white"/>
<path d="M47.5484 37.6043L47.5477 37.6052C41.6428 45.279 29.6039 39.6251 31.5682 30.3736L31.5684 30.373C33.0434 23.38 41.71 20.8053 46.7476 25.8332C49.9433 29.0227 50.2482 34.1136 47.5484 37.6043Z" fill="#F1F3F9" stroke="#A4AFBB" stroke-width="0.881358"/>
<path d="M48.6614 82.3881V84.1895C48.6614 84.4468 48.468 84.6399 48.2102 84.6399H30.5479C30.2901 84.6399 30.0967 84.4468 30.0967 84.1895V82.3881C30.0967 82.1308 30.2901 81.9377 30.5479 81.9377H48.2102C48.468 82.0021 48.6614 82.1951 48.6614 82.3881Z" fill="#DAE0E8"/>
<path opacity="0.5" d="M34.2865 82.0027L33.6419 84.5761H31.1279L31.7725 82.0027H34.2865Z" fill="white"/>
<path opacity="0.5" d="M43.3113 82.0027L42.6667 84.5761H41.2485L41.8287 82.0027H43.3113Z" fill="white"/>
<path opacity="0.5" d="M35.318 82.0027L34.6734 84.5761H34.0288L34.6734 82.0027H35.318Z" fill="white"/>
<path opacity="0.1" d="M48.5969 84.3179H30.0967V84.6403H48.5969V84.3179Z" fill="#4F3500"/>
<path d="M50.0794 79.7505V81.5519C50.0794 81.8093 49.886 82.0023 49.6281 82.0023H31.9659C31.708 82.0023 31.5146 81.8093 31.5146 81.5519V79.7505C31.5146 79.4932 31.708 79.3002 31.9659 79.3002H49.6281C49.886 79.3645 50.0794 79.5575 50.0794 79.7505Z" fill="#DAE0E8"/>
<path opacity="0.5" d="M35.0599 79.3645L34.4798 82.0023H31.9658L32.546 79.3645H35.0599Z" fill="white"/>
<path opacity="0.5" d="M43.5042 79.3645L42.8596 82.0023H41.377L42.0216 79.3645H43.5042Z" fill="white"/>
<path opacity="0.5" d="M36.1554 79.3645L35.5108 82.0023H34.8662L35.5108 79.3645H36.1554Z" fill="white"/>
<path opacity="0.1" d="M50.0794 81.6797H31.5791V82.0021H50.0794V81.6797Z" fill="#4F3500"/>
<path d="M49.5642 77.1777V78.9791C49.5642 79.2364 49.3708 79.4294 49.113 79.4294H31.4507C31.1929 79.4294 30.9995 79.2364 30.9995 78.9791V77.1777C30.9995 76.9203 31.1929 76.7273 31.4507 76.7273H49.113C49.3708 76.7273 49.5642 76.9203 49.5642 77.1777Z" fill="#DAE0E8"/>
<path opacity="0.5" d="M35.8344 76.7269L35.1898 79.3647H32.6758L33.3204 76.7269H35.8344Z" fill="white"/>
<path opacity="0.5" d="M44.2141 76.7269L43.634 79.3647H42.1514L42.796 76.7269H44.2141Z" fill="white"/>
<path opacity="0.5" d="M36.8659 76.7269L36.2857 79.3647H35.6411L36.2213 76.7269H36.8659Z" fill="white"/>
<path opacity="0.1" d="M49.5642 79.0432H31.064V79.3656H49.5642V79.0432Z" fill="#4F3500"/>
<path d="M48.6614 69.3282V71.1296C48.6614 71.3869 48.468 71.5799 48.2102 71.5799H30.5479C30.2901 71.5799 30.0967 71.3869 30.0967 71.1296V69.3282C30.0967 69.0708 30.2901 68.8778 30.5479 68.8778H48.2102C48.468 68.8778 48.6614 69.0708 48.6614 69.3282Z" fill="#DAE0E8"/>
<path opacity="0.5" d="M34.2865 68.8773L33.6419 71.5151H31.1279L31.7725 68.8773H34.2865Z" fill="white"/>
<path opacity="0.5" d="M43.3113 68.8773L42.6667 71.5151H41.2485L41.8287 68.8773H43.3113Z" fill="white"/>
<path opacity="0.5" d="M35.318 68.8773L34.6734 71.5151H34.0288L34.6734 68.8773H35.318Z" fill="white"/>
<path opacity="0.1" d="M48.5969 71.1936H30.0967V71.516H48.5969V71.1936Z" fill="#4F3500"/>
<path d="M50.0794 74.539V76.3404C50.0794 76.5977 49.886 76.7907 49.6281 76.7907H31.9659C31.708 76.7907 31.5146 76.5977 31.5146 76.3404V74.539C31.5146 74.2816 31.708 74.0886 31.9659 74.0886H49.6281C49.886 74.0886 50.0794 74.2816 50.0794 74.539Z" fill="#DAE0E8"/>
<path opacity="0.5" d="M36.349 74.0886L35.7689 76.7264H33.2549L33.835 74.0886H36.349Z" fill="white"/>
<path opacity="0.5" d="M44.7937 74.0886L44.1491 76.7264H42.6665L43.3111 74.0886H44.7937Z" fill="white"/>
<path opacity="0.5" d="M37.445 74.0886L36.8004 76.7264H36.1558L36.8004 74.0886H37.445Z" fill="white"/>
<path opacity="0.1" d="M50.0794 76.4692H31.5791V76.7917H50.0794V76.4692Z" fill="#4F3500"/>
<path d="M47.1795 71.9014V73.7028C47.1795 73.9602 46.9861 74.1532 46.7282 74.1532H29.066C28.8081 74.1532 28.6147 73.9602 28.6147 73.7028V71.9014C28.6147 71.6441 28.8081 71.451 29.066 71.451H46.7282C46.9861 71.5154 47.1795 71.7084 47.1795 71.9014Z" fill="#DAE0E8"/>
<path opacity="0.5" d="M37.3178 71.5156L36.6732 74.0891H34.1592L34.8038 71.5156H37.3178Z" fill="white"/>
<path opacity="0.5" d="M45.6965 71.5156L45.1164 74.0891H43.6338L44.2784 71.5156H45.6965Z" fill="white"/>
<path opacity="0.5" d="M38.3478 71.5156L37.7677 74.0891H37.123L37.7032 71.5156H38.3478Z" fill="white"/>
<path opacity="0.1" d="M47.1795 73.8318H28.6792V74.1542H47.1795V73.8318Z" fill="#4F3500"/>
<path opacity="0.5" d="M51.8205 87.342L51.2404 90.0442H49.9512L50.4669 87.342H51.8205Z" fill="white"/>
<path opacity="0.5" d="M45.3102 87.342L44.7301 90.0442H44.1499L44.7301 87.342H45.3102Z" fill="white"/>
<path d="M39.9443 36.2062C38.7491 36.2062 37.7497 35.8043 36.9459 35.0005C36.1527 34.1967 35.7561 33.2079 35.7561 32.0339C35.7561 30.8493 36.1527 29.8605 36.9459 29.0672C37.7497 28.2634 38.7491 27.8615 39.9443 27.8615C40.7163 27.8615 41.4197 28.0466 42.0542 28.4168C42.6888 28.787 43.1647 29.2841 43.482 29.9081L42.0066 30.7647C41.8268 30.384 41.5519 30.0879 41.1817 29.8763C40.8221 29.6542 40.4043 29.5432 39.9284 29.5432C39.2304 29.5432 38.6434 29.7811 38.1674 30.2571C37.7021 30.733 37.4694 31.3253 37.4694 32.0339C37.4694 32.7425 37.7021 33.3348 38.1674 33.8107C38.6434 34.2866 39.2304 34.5246 39.9284 34.5246C40.3938 34.5246 40.8115 34.4136 41.1817 34.1915C41.5624 33.9694 41.848 33.6732 42.0384 33.303L43.5138 34.1439C43.1753 34.7784 42.6888 35.2808 42.0542 35.651C41.4197 36.0212 40.7163 36.2062 39.9443 36.2062Z" fill="#A4AFBB"/>
<defs>
<linearGradient id="paint0_linear_2904_26753" x1="79.0768" y1="50.5074" x2="85.9877" y2="50.0184" gradientUnits="userSpaceOnUse">
<stop offset="0.00289017" stop-color="#FFD44F"/>
<stop offset="1" stop-color="#FFA607"/>
</linearGradient>
<linearGradient id="paint1_linear_2904_26753" x1="57.0955" y1="50.561" x2="90.0306" y2="50.561" gradientUnits="userSpaceOnUse">
<stop stop-color="#D5DAE8"/>
<stop offset="1" stop-color="#9AA3BA"/>
</linearGradient>
</defs>
</svg>
