<svg width="140" height="119" viewBox="0 0 140 119" fill="none" xmlns="http://www.w3.org/2000/svg">
<path d="M71.7618 101.746C99.388 101.746 121.783 79.3305 121.783 51.6796C121.783 24.0287 99.388 1.61328 71.7618 1.61328C44.1357 1.61328 21.7402 24.0287 21.7402 51.6796C21.7402 79.3305 44.1357 101.746 71.7618 101.746Z" fill="#EFF3FF"/>
<path d="M111.92 7.79274C114.033 7.79274 115.745 6.07888 115.745 3.96473C115.745 1.85058 114.033 0.136719 111.92 0.136719C109.808 0.136719 108.096 1.85058 108.096 3.96473C108.096 6.07888 109.808 7.79274 111.92 7.79274Z" fill="#EAEEF9"/>
<path d="M26.1685 17.2634C27.5582 17.2634 28.6847 16.1359 28.6847 14.745C28.6847 13.3541 27.5582 12.2266 26.1685 12.2266C24.7789 12.2266 23.6523 13.3541 23.6523 14.745C23.6523 16.1359 24.7789 17.2634 26.1685 17.2634Z" fill="#EAEEF9"/>
<path d="M14.795 23.7102C15.7399 23.7102 16.506 22.9435 16.506 21.9977C16.506 21.0519 15.7399 20.2852 14.795 20.2852C13.85 20.2852 13.084 21.0519 13.084 21.9977C13.084 22.9435 13.85 23.7102 14.795 23.7102Z" fill="#B9C2D1"/>
<path d="M96.0166 3.22359C96.906 3.22359 97.627 2.50196 97.627 1.61179C97.627 0.721625 96.906 0 96.0166 0C95.1272 0 94.4062 0.721625 94.4062 1.61179C94.4062 2.50196 95.1272 3.22359 96.0166 3.22359Z" fill="#949DAD"/>
<path d="M67.5336 101.68C67.5336 106.414 65.5206 110.645 62.2999 113.668C61.3941 114.473 60.4883 115.179 59.3812 115.783C56.9657 117.193 54.1475 117.999 51.1281 117.999C48.1087 117.999 45.2906 117.193 42.8751 115.783C42.4725 115.582 42.1705 115.38 41.7679 115.078C37.5408 112.156 34.7227 107.22 34.7227 101.68C34.7227 92.6135 42.0699 85.3604 51.0275 85.3604C60.1864 85.2597 67.5336 92.6135 67.5336 101.68Z" fill="#DCE2F0"/>
<path d="M47.8071 105.306C48.0084 105.507 48.2097 105.809 48.5116 106.011C48.7129 106.212 48.9142 106.313 49.1155 106.515C49.2161 106.615 49.4174 106.716 49.5181 106.817C49.5181 106.817 49.6187 106.817 49.6187 106.918L49.7194 107.018V108.429C49.7194 108.429 49.7194 108.429 49.6187 108.328C49.5181 108.227 49.3168 108.126 49.2161 108.026C49.0148 107.925 48.8135 107.723 48.6122 107.623C48.5116 107.623 48.5116 107.522 48.411 107.522C47.7064 107.119 47.1025 106.716 47.1025 106.212C47.2032 106.011 47.4045 105.709 47.8071 105.306ZM62.099 113.163C61.4951 111.854 60.3879 110.544 58.9789 109.839C58.2744 109.537 57.4692 109.234 56.664 109.234C56.4627 109.234 56.1608 109.234 55.9595 109.234C55.8588 109.234 55.7582 109.234 55.6575 109.234C54.5504 109.134 54.4498 108.932 54.4498 108.932V106.615C55.1543 106.011 55.8588 105.306 56.4627 104.601C56.966 103.895 57.3685 103.089 57.5698 102.082C58.4757 101.881 59.0795 101.075 58.9789 100.067C58.9789 99.6644 58.677 99.2615 58.677 98.8585C58.677 98.6571 58.677 98.4556 58.677 98.2541C58.677 98.1534 58.677 97.9519 58.677 97.8512C58.677 97.7504 58.677 97.549 58.677 97.4482C58.5763 96.7431 58.375 96.0379 57.9724 95.232C56.7647 93.0158 54.5504 91.6055 51.9336 91.6055C51.4304 91.6055 50.9271 91.7062 50.4239 91.8069C49.5181 92.0084 48.6122 92.4114 47.9077 93.0158C47.8071 93.1165 47.6058 93.2173 47.5051 93.4187L47.4045 93.5195C46.5993 94.3254 45.8948 95.232 45.5928 96.3401C45.1902 97.4482 45.1902 98.5563 45.2909 99.6644C45.2909 99.6644 45.2909 99.6644 45.2909 99.7652V99.8659C45.2909 100.067 45.3915 100.067 45.2909 100.168C45.2909 100.269 45.1902 100.269 45.1902 100.37C44.989 100.672 44.8883 101.075 45.0896 101.679C45.4922 102.687 46.0961 102.586 46.8006 103.089C46.8006 103.089 46.7 103.089 46.7 103.19L45.9954 103.392C42.7747 104.399 41.6676 107.119 43.0767 108.832C43.5799 109.436 44.3851 109.94 45.5928 110.242C45.2909 110.242 44.989 110.443 44.7877 110.645C43.3786 111.753 42.4728 113.465 42.2715 115.077C42.2715 115.178 42.2715 115.279 42.2715 115.379C42.6741 115.581 42.976 115.883 43.3786 116.085H59.3815C60.388 115.48 61.3944 114.775 62.3002 113.969C62.1996 113.465 62.1996 113.264 62.099 113.163Z" fill="white"/>
<path d="M62.2996 113.669C61.3938 114.475 60.4879 115.18 59.3808 115.784C56.9653 117.195 54.1472 118.001 51.1278 118.001C48.1083 118.001 45.2902 117.195 42.8747 115.784C42.4721 115.583 42.1702 115.381 41.7676 115.079C41.7676 114.978 41.7676 114.878 41.7676 114.777C41.9689 113.165 42.8747 111.453 44.2838 110.345C44.485 110.143 44.787 110.042 45.0889 109.942C43.8812 109.74 43.076 109.236 42.5728 108.531H46.3973C47.5045 110.042 49.2155 110.949 51.2284 110.949C52.9394 110.949 54.4491 110.244 55.5562 109.136C55.6569 109.136 55.7575 109.136 55.8582 109.136C56.0595 109.136 56.2608 109.136 56.5627 109.136C57.3679 109.136 58.173 109.337 58.8776 109.74C60.2866 110.445 61.2931 111.654 61.9976 113.064C62.1989 113.266 62.1989 113.467 62.2996 113.669Z" fill="#B9C2D1"/>
<path d="M54.5497 106.617V108.733L48.209 108.934L48.5109 107.524C48.6116 107.524 48.6116 107.625 48.7122 107.625C48.9135 107.725 49.1148 107.927 49.3161 108.028C49.4167 108.128 49.5174 108.229 49.7187 108.33C49.7187 108.33 49.8193 108.33 49.8193 108.43V107.02L49.7187 106.919C50.8258 107.524 52.3355 107.927 54.5497 106.617Z" fill="url(#paint0_linear_5481_46108)"/>
<path d="M58.6765 97.8526C57.4687 98.2555 56.0596 98.457 54.7512 98.3563C52.6376 98.1548 50.6247 97.3489 49.0144 95.9386C48.5111 97.4496 47.2027 98.5578 45.693 99.2629C45.4917 99.3637 45.2904 99.4644 45.0891 99.4644C45.0891 99.4644 45.0891 99.4644 45.0891 99.3637C44.9885 98.2555 44.9885 97.1474 45.3911 96.0393C45.693 94.9312 46.3975 94.0246 47.2027 93.2187L47.3034 93.118C47.404 93.0172 47.6053 92.9165 47.7059 92.715C48.4105 92.1106 49.3163 91.7076 50.2221 91.5062C50.7254 91.4054 51.2286 91.3047 51.7318 91.3047C54.3486 91.3047 56.6635 92.715 57.7706 94.9312C58.1732 95.7371 58.3745 96.543 58.4752 97.1474C58.6765 97.5504 58.6765 97.7519 58.6765 97.8526Z" fill="#929DAF"/>
<path d="M50.6253 112.763C50.0214 113.468 49.0149 113.468 48.1091 113.468C49.0149 112.561 48.5117 109.64 45.291 109.942C40.8625 109.136 41.2651 104.502 45.6936 103.092L46.3981 102.891L46.4987 102.991C46.8007 103.898 47.3039 104.704 47.8071 105.308C45.9955 106.819 48.5117 107.222 49.7194 108.431C50.7259 109.036 51.6317 111.554 50.6253 112.763Z" fill="#929DAF"/>
<path d="M67.5336 101.68C67.5336 106.414 65.5206 110.645 62.2999 113.668C61.3941 114.473 60.4883 115.179 59.3812 115.783C56.9657 117.193 54.1475 117.999 51.1281 117.999C48.1087 117.999 45.2906 117.193 42.8751 115.783C42.4725 115.582 42.1705 115.38 41.7679 115.078C37.5408 112.156 34.7227 107.22 34.7227 101.68C34.7227 92.6135 42.0699 85.3604 51.0275 85.3604C60.1864 85.2597 67.5336 92.6135 67.5336 101.68Z" stroke="white" stroke-width="1.6434" stroke-miterlimit="10" stroke-linecap="round" stroke-linejoin="round"/>
<path d="M112.826 61.5887C112.826 66.1219 111.014 70.1514 108.196 73.1735C107.995 73.4757 107.693 73.6772 107.391 73.8787C104.372 76.6993 100.346 78.4118 95.9174 78.4118C92.3948 78.4118 89.0734 77.3037 86.356 75.3897C85.5508 74.886 84.8463 74.1809 84.1417 73.5764C81.0217 70.5543 79.1094 66.3234 79.1094 61.5887C79.1094 52.3209 86.6579 44.7656 95.9174 44.7656C105.278 44.7656 112.826 52.3209 112.826 61.5887Z" fill="#E9F0F8"/>
<path d="M112.826 61.5895C112.826 66.5257 110.713 70.8574 107.391 73.9802C104.372 76.8009 100.346 78.5134 95.9174 78.5134C92.3948 78.5134 89.0734 77.4053 86.356 75.4913C81.9275 72.4692 79.1094 67.4323 79.1094 61.6903C79.1094 52.4225 86.6579 44.8672 95.9174 44.8672C105.177 44.8672 112.826 52.3217 112.826 61.5895Z" fill="#DCE2F0"/>
<path d="M108.197 73.1731C107.996 73.4753 107.694 73.6767 107.392 73.8782C104.373 76.6989 100.347 78.4114 95.9183 78.4114C92.3956 78.4114 89.0743 77.3033 86.3568 75.3893C85.5516 74.8856 84.8471 74.1804 84.1426 73.576C84.5452 73.0723 85.1491 72.7701 86.4575 72.2664L86.9607 72.0649C87.9672 71.662 89.3762 71.1583 91.1879 70.3524C91.4898 70.2517 91.6911 70.0502 91.8924 69.8487C91.9931 69.748 92.0937 69.6473 92.0937 69.4458C92.1943 69.2443 92.295 68.9421 92.295 68.7406V65.3156C92.1943 65.2148 92.1943 65.2148 92.0937 65.1141C91.7918 64.7111 91.5905 64.2075 91.5905 63.603L91.3892 63.5023C90.4833 63.7038 90.584 62.7971 90.3827 60.9839C90.2821 60.2787 90.3827 60.0772 90.7853 59.9765L91.0872 59.5735C90.4833 58.1632 90.1814 56.8536 90.1814 55.8463C90.1814 54.1337 90.8859 53.0256 91.8924 52.5219C91.2885 51.3131 91.2885 50.9102 91.2885 50.9102C91.2885 50.9102 94.8112 51.5146 96.0189 51.3131C97.5286 51.0109 99.9442 51.4138 100.85 53.4286C102.36 54.033 102.863 54.9396 103.064 55.947C103.266 57.5588 102.36 59.2713 102.158 59.9765V60.0772C102.36 60.178 102.46 60.3794 102.36 61.0846C102.158 62.7971 102.158 63.8045 101.353 63.603L100.548 65.0134C100.548 65.2148 100.548 65.2148 100.447 65.3156C100.447 65.6178 100.447 66.1215 100.447 68.8414C100.447 69.1436 100.548 69.5465 100.749 69.748C100.85 69.8487 100.85 69.9495 100.951 69.9495C101.152 70.1509 101.353 70.3524 101.555 70.3524C103.567 71.1583 104.977 71.7627 106.084 72.1657C107.09 72.5686 107.795 72.8708 108.197 73.1731Z" fill="white"/>
<path d="M108.197 73.172C107.996 73.4742 107.694 73.6757 107.392 73.8771C104.373 76.6978 100.347 78.4103 95.9183 78.4103C92.3956 78.4103 89.0743 77.3022 86.3568 75.3882C85.5516 74.8845 84.8471 74.1793 84.1426 73.5749C84.5452 73.0712 85.1491 72.769 86.4575 72.2653L86.9607 72.0639C87.9672 71.6609 89.3762 71.1572 91.1879 70.3513C91.4898 70.2506 91.6911 70.0491 91.8924 69.8477C92.8989 71.258 94.5092 72.1646 96.4215 72.1646C98.2332 72.1646 99.8435 71.258 100.85 69.9484C101.051 70.1499 101.253 70.3513 101.454 70.3513C103.467 71.1572 104.876 71.7617 105.983 72.1646C107.09 72.5676 107.795 72.8698 108.197 73.172Z" fill="#B9C2D1"/>
<path d="M102.059 59.8758C102.159 59.4728 101.958 58.8684 101.757 58.5662C101.757 58.4654 101.656 58.4654 101.656 58.3647C100.951 56.9544 99.4417 56.4507 98.0326 56.35C94.3087 56.1485 94.0068 56.8536 92.8997 55.8463C93.3022 56.35 93.3022 57.2566 92.6984 58.264C92.2958 58.9691 91.5912 59.3721 90.8867 59.5735C89.1757 55.7455 90.0815 53.3278 91.6919 52.5219C91.088 51.3131 91.088 50.9102 91.088 50.9102C91.088 50.9102 94.6106 51.5146 95.8184 51.3131C97.3281 51.0109 99.7436 51.4138 100.649 53.4286C102.159 54.033 102.662 54.9396 102.864 55.947C103.166 57.4581 102.26 59.1706 102.059 59.8758Z" fill="#929DAF"/>
<path d="M92.3947 68.7421V65.317C92.294 65.2163 92.294 65.2163 92.1934 65.1155V64.9141C92.3947 65.2163 92.596 65.5185 92.8979 65.72L95.6154 67.634C96.2192 68.1376 97.1251 68.1376 97.7289 67.634L100.245 65.4177C100.346 65.317 100.446 65.317 100.547 65.2163C100.547 65.5185 100.547 66.0222 100.547 68.7421C100.547 68.9435 100.547 69.0443 100.648 69.2458H92.3947C92.294 69.0443 92.3947 68.9435 92.3947 68.7421Z" fill="url(#paint1_linear_5481_46108)"/>
<path d="M112.826 61.5895C112.826 66.5257 110.713 70.8574 107.391 73.9802C104.372 76.8009 100.346 78.5134 95.9174 78.5134C92.3948 78.5134 89.0734 77.4053 86.356 75.4913C81.9275 72.4692 79.1094 67.4323 79.1094 61.6903C79.1094 52.4225 86.6579 44.8672 95.9174 44.8672C105.177 44.8672 112.826 52.3217 112.826 61.5895Z" stroke="white" stroke-width="1.6604" stroke-miterlimit="10" stroke-linecap="round" stroke-linejoin="round"/>
<path d="M0 73.272C0 76.4956 2.61682 79.1148 5.83753 79.1148H57.5701C58.0733 79.1148 58.5766 79.3163 58.8785 79.6185L66.1251 86.8715C66.3264 87.1738 66.729 87.2745 67.1316 87.073C67.4335 86.9723 67.7355 86.5693 67.7355 86.2671V52.7217C67.7355 49.4981 65.1186 46.8789 61.8979 46.8789H5.83753C2.61682 46.8789 0 49.4981 0 52.7217V73.272Z" fill="#DDE5F9"/>
<path opacity="0.7" d="M55.0548 59.9731H10.5688C10.1663 59.9731 9.76367 59.5702 9.76367 59.1673V56.5481C9.76367 56.1451 10.1663 55.7422 10.5688 55.7422H55.0548C55.4574 55.7422 55.86 56.1451 55.86 56.5481V59.1673C55.86 59.6709 55.5581 59.9731 55.0548 59.9731Z" fill="#929DAF"/>
<path opacity="0.7" d="M37.9448 70.9536H10.5688C10.1663 70.9536 9.76367 70.5507 9.76367 70.1477V67.5286C9.76367 67.1256 10.1663 66.7227 10.5688 66.7227H37.9448C38.3474 66.7227 38.75 67.1256 38.75 67.5286V70.1477C38.75 70.6514 38.4481 70.9536 37.9448 70.9536Z" fill="#929DAF"/>
<path d="M140.001 33.6849C140.001 36.6063 137.686 38.9233 134.767 38.9233H88.2683C87.8657 38.9233 87.3624 39.1247 87.0605 39.427L80.5184 45.9749C80.3171 46.1763 79.9146 46.2771 79.6126 46.1763C79.3107 46.0756 79.1094 45.7734 79.1094 45.4712V15.25C79.1094 12.3287 81.4243 10.0117 84.343 10.0117H134.667C137.585 10.0117 139.9 12.3287 139.9 15.25V33.6849H140.001Z" fill="#DDE5F9"/>
<path opacity="0.7" d="M129.634 21.7968H89.6772C89.2746 21.7968 88.9727 21.4945 88.9727 21.0916V18.6739C88.9727 18.271 89.2746 17.9688 89.6772 17.9688H129.634C130.037 17.9688 130.339 18.271 130.339 18.6739V21.0916C130.339 21.4945 130.037 21.7968 129.634 21.7968Z" fill="#929DAF"/>
<path opacity="0.7" d="M114.336 31.6718H89.6772C89.2746 31.6718 88.9727 31.3696 88.9727 30.9666V28.5489C88.9727 28.146 89.2746 27.8438 89.6772 27.8438H114.336C114.738 27.8438 115.04 28.146 115.04 28.5489V30.9666C115.04 31.2688 114.638 31.6718 114.336 31.6718Z" fill="#929DAF"/>
<defs>
<linearGradient id="paint0_linear_5481_46108" x1="51.3671" y1="108.862" x2="51.3671" y2="107.648" gradientUnits="userSpaceOnUse">
<stop stop-color="white"/>
<stop offset="0.9913" stop-color="#D6DEEA"/>
</linearGradient>
<linearGradient id="paint1_linear_5481_46108" x1="96.4042" y1="69.1109" x2="96.4042" y2="66.8419" gradientUnits="userSpaceOnUse">
<stop stop-color="white"/>
<stop offset="0.9913" stop-color="#D6DEEA"/>
</linearGradient>
</defs>
</svg>
