<svg width="133" height="117" viewBox="0 0 133 117" fill="none" xmlns="http://www.w3.org/2000/svg">
<path d="M69.028 108C98.1577 108 121.774 83.8701 121.774 54C121.774 24.1299 98.1577 0 69.028 0C39.8983 0 16.2825 24.1299 16.2825 54C16.2825 83.8701 39.8983 108 69.028 108Z" fill="#D9DCE3"/>
<path opacity="0.5" d="M128.793 30.4786C131.116 30.4786 133 28.5824 133 26.2433C133 23.9043 131.116 22.0081 128.793 22.0081C126.469 22.0081 124.585 23.9043 124.585 26.2433C124.585 28.5824 126.469 30.4786 128.793 30.4786Z" fill="#AFB6C7"/>
<path d="M12.6405 34.8661C14.2493 34.8661 15.5535 33.5335 15.5535 31.8897C15.5535 30.2459 14.2493 28.9133 12.6405 28.9133C11.0317 28.9133 9.72754 30.2459 9.72754 31.8897C9.72754 33.5335 11.0317 34.8661 12.6405 34.8661Z" fill="#EAEEF9"/>
<path opacity="0.8" d="M15.2844 97.4118C17.0271 97.4118 18.4399 95.9896 18.4399 94.2353C18.4399 92.481 17.0271 91.0588 15.2844 91.0588C13.5417 91.0588 12.1289 92.481 12.1289 94.2353C12.1289 95.9896 13.5417 97.4118 15.2844 97.4118Z" fill="#AFB6C7"/>
<g filter="url(#filter0_d_2963:19619)">
<path d="M118.975 32.4212H28.7772C26.8005 32.4212 25.24 30.8267 25.24 28.807V8.07865C25.24 6.05897 26.8005 4.46448 28.7772 4.46448H118.871C120.848 4.46448 122.408 6.05897 122.408 8.07865V28.807C122.512 30.8267 120.848 32.4212 118.975 32.4212Z" fill="white"/>
</g>
<path d="M47.0874 18.3897C47.0874 20.7283 46.047 22.8542 44.4865 24.3424C43.1341 25.618 41.2614 26.3621 39.2848 26.3621C37.3081 26.3621 35.4355 25.618 34.083 24.3424C32.4185 22.8542 31.4822 20.7283 31.4822 18.3897C31.4822 14.0314 35.0194 10.4172 39.2848 10.4172C43.5502 10.4172 47.0874 14.0314 47.0874 18.3897Z" fill="#DCE1EE"/>
<path d="M44.4865 24.3425C43.134 25.6181 41.2614 26.3622 39.2847 26.3622C37.3081 26.3622 35.4355 25.6181 34.083 24.3425C34.7072 24.1299 35.4355 23.811 36.3718 23.3858C36.5798 23.2795 36.7879 23.0669 36.8919 22.8543C36.996 22.748 36.996 22.5354 36.996 22.4291V20.4095L36.8919 20.3032C36.6839 20.0906 36.5798 19.7717 36.5798 19.4528L36.3718 19.3465C35.8516 19.4528 35.9556 18.9213 35.7476 17.8583C35.7476 17.4331 35.7476 17.3268 35.9556 17.2205L36.1637 17.0079C35.2274 14.7756 35.6435 13.3937 36.6839 12.8622C36.3718 12.1181 36.3718 11.9055 36.3718 11.9055C36.3718 11.9055 38.4525 12.2244 39.0767 12.1181C40.013 11.9055 41.3654 12.1181 41.8856 13.3937C42.7179 13.7126 43.03 14.2441 43.134 14.8819C43.2381 15.8386 42.7179 16.9016 42.6138 17.2205C42.7179 17.3268 42.8219 17.4331 42.7179 17.752C42.6138 18.7087 42.6138 19.3465 42.0937 19.2402L41.6775 20.1969C41.6775 20.3032 41.6775 20.3032 41.6775 20.4095C41.6775 20.5158 41.6775 20.8347 41.6775 22.5354C41.6775 22.748 41.7816 22.9606 41.7816 23.0669C41.8856 23.2795 42.0937 23.3858 42.1977 23.4921C43.134 23.811 43.8623 24.1299 44.4865 24.3425Z" fill="white"/>
<path d="M42.6411 17.3268C42.6411 17.1055 42.5328 16.7736 42.4245 16.5523V16.4417C41.9914 15.5566 41.1252 15.2247 40.2589 15.2247C38.0933 15.114 37.8767 15.5566 37.1188 14.8928C37.3353 15.2247 37.3353 15.7779 37.0105 16.4417C36.7939 16.8842 36.3608 17.1055 35.9277 17.2162C34.9531 14.8928 35.3863 13.4545 36.4691 12.9013C36.1442 12.1268 36.1442 11.9055 36.1442 11.9055C36.1442 11.9055 38.3098 12.2374 38.9595 12.1268C39.9341 11.9055 41.3417 12.1268 41.8831 13.4545C42.7494 13.7864 43.0742 14.3396 43.1825 15.0034C43.2908 15.7779 42.7494 16.8842 42.6411 17.3268Z" fill="#A2ABBC"/>
<path d="M41.7815 23.0669V23.4921H36.8918V22.9606C36.9959 22.8543 36.9959 22.6417 36.9959 22.5354V20.5157L36.8918 20.4094V20.3031C36.9959 20.5157 37.0999 20.622 37.308 20.8346L38.8685 21.8976C39.1806 22.2165 39.7008 22.2165 40.1169 21.8976L41.5734 20.622L41.6774 20.5157C41.6774 20.622 41.6774 20.9409 41.6774 22.6417C41.5734 22.748 41.6774 22.8543 41.7815 23.0669Z" fill="url(#paint0_linear_2963:19619)"/>
<path d="M72.68 16.0513H52.7053C52.1851 16.0513 51.873 15.6261 51.873 15.2009V12.5434C51.873 12.0119 52.2892 11.693 52.7053 11.693H72.68C73.2001 11.693 73.5123 12.1182 73.5123 12.5434V15.2009C73.5123 15.7324 73.2001 16.0513 72.68 16.0513Z" fill="#CED6E2"/>
<path d="M96.3999 25.0865H52.7053C52.1851 25.0865 51.873 24.6613 51.873 24.2361V21.5787C51.873 21.0472 52.2892 20.7283 52.7053 20.7283H96.3999C96.92 20.7283 97.2322 21.1535 97.2322 21.5787V24.2361C97.2322 24.7676 96.816 25.0865 96.3999 25.0865Z" fill="#CED6E2"/>
<g filter="url(#filter1_d_2963:19619)">
<path d="M118.975 102.154H28.7772C26.8005 102.154 25.24 100.559 25.24 98.5394V77.8111C25.24 75.7914 26.8005 74.1969 28.7772 74.1969H118.871C120.848 74.1969 122.408 75.7914 122.408 77.8111V98.5394C122.512 100.559 120.848 102.154 118.975 102.154Z" fill="white"/>
</g>
<path d="M47.0874 88.1221C47.0874 90.4607 46.047 92.5867 44.4865 94.0749C43.1341 95.3504 41.2614 96.0945 39.2848 96.0945C37.3081 96.0945 35.4355 95.3504 34.083 94.0749C32.4185 92.5867 31.4822 90.4607 31.4822 88.1221C31.4822 83.7638 35.0194 80.1497 39.2848 80.1497C43.5502 80.1497 47.0874 83.7638 47.0874 88.1221Z" fill="#DCE1EE"/>
<path d="M44.4865 94.0748C43.134 95.3504 41.2614 96.0945 39.2847 96.0945C37.3081 96.0945 35.4355 95.3504 34.083 94.0748C34.7072 93.8622 35.4355 93.5433 36.3718 93.1181C36.5798 93.0118 36.7879 92.7992 36.8919 92.5866C36.996 92.4803 36.996 92.2677 36.996 92.1614V90.1418L36.8919 90.0354C36.6839 89.8229 36.5798 89.504 36.5798 89.1851L36.3718 89.0788C35.8516 89.1851 35.9556 88.6536 35.7476 87.5906C35.7476 87.1654 35.7476 87.0591 35.9556 86.9528L36.1637 86.7402C35.2274 84.5079 35.6435 83.126 36.6839 82.5945C36.3718 81.8504 36.3718 81.6378 36.3718 81.6378C36.3718 81.6378 38.4525 81.9567 39.0767 81.8504C40.013 81.6378 41.3654 81.8504 41.8856 83.126C42.7179 83.4449 43.03 83.9764 43.134 84.6142C43.2381 85.5709 42.7179 86.6339 42.6138 86.9528C42.7179 87.0591 42.8219 87.1654 42.7179 87.4843C42.6138 88.441 42.6138 89.0788 42.0937 88.9725L41.6775 89.8229C41.6775 89.9292 41.6775 89.9291 41.6775 90.0354C41.6775 90.1417 41.6775 90.4606 41.6775 92.1614C41.6775 92.374 41.7816 92.5866 41.7816 92.6929C41.8856 92.9055 42.0937 93.0118 42.1977 93.1181C43.134 93.6496 43.8623 93.8622 44.4865 94.0748Z" fill="white"/>
<path d="M42.6411 87.0591C42.6411 86.8378 42.5328 86.5059 42.4245 86.2846V86.174C41.9914 85.2889 41.1252 84.957 40.2589 84.957C38.0933 84.8463 37.8767 85.2889 37.1188 84.625C37.3353 84.957 37.3353 85.5102 37.0105 86.174C36.7939 86.6165 36.3608 86.8378 35.9277 86.9485C34.9531 84.6251 35.3863 83.1868 36.4691 82.6336C36.1442 81.8591 36.1442 81.6378 36.1442 81.6378C36.1442 81.6378 38.3098 81.9697 38.9595 81.8591C39.9341 81.6378 41.3417 81.8591 41.8831 83.1868C42.7494 83.5187 43.0742 84.0719 43.1825 84.7357C43.2908 85.6208 42.7494 86.6165 42.6411 87.0591Z" fill="#A2ABBC"/>
<path d="M41.7815 92.7993V93.2245H36.8918V92.693C36.9959 92.5867 36.9959 92.3741 36.9959 92.2678V90.2481L36.8918 90.1418V90.0355C36.9959 90.2481 37.0999 90.3544 37.308 90.567L38.8685 91.63C39.1806 91.9489 39.7008 91.9489 40.1169 91.63L41.5734 90.3544L41.6774 90.2481C41.6774 90.3544 41.6774 90.6733 41.6774 92.3741C41.5734 92.4804 41.6774 92.693 41.7815 92.7993Z" fill="url(#paint1_linear_2963:19619)"/>
<path d="M72.68 85.8899H52.7053C52.1851 85.8899 51.873 85.4647 51.873 85.0395V82.382C51.873 81.8505 52.2892 81.5316 52.7053 81.5316H72.68C73.2001 81.5316 73.5123 81.9568 73.5123 82.382V85.0395C73.5123 85.4647 73.2001 85.8899 72.68 85.8899Z" fill="#CED6E2"/>
<path d="M96.3999 94.9253H52.7053C52.1851 94.9253 51.873 94.5001 51.873 94.0749V91.4174C51.873 90.8859 52.2892 90.567 52.7053 90.567H96.3999C96.92 90.567 97.2322 90.9922 97.2322 91.4174V94.0749C97.2322 94.5001 96.816 94.9253 96.3999 94.9253Z" fill="#CED6E2"/>
<g filter="url(#filter2_d_2963:19619)">
<path d="M102.631 67.2873H12.5372C10.5605 67.2873 9 65.6928 9 63.6731V42.9447C9 40.9251 10.5605 39.3306 12.5372 39.3306H102.631C104.608 39.3306 106.168 40.9251 106.168 42.9447V63.6731C106.272 65.6928 104.608 67.2873 102.631 67.2873Z" fill="white"/>
</g>
<path d="M56.4397 50.9175H36.4651C35.9449 50.9175 35.6328 50.4923 35.6328 50.0671V47.4096C35.6328 46.8781 36.049 46.5592 36.4651 46.5592H56.4397C56.9599 46.5592 57.272 46.9844 57.272 47.4096V50.0671C57.272 50.5986 56.9599 50.9175 56.4397 50.9175Z" fill="#CED6E2"/>
<path d="M80.1596 60.0591H36.4651C35.9449 60.0591 35.6328 59.6339 35.6328 59.2087V56.5512C35.6328 56.0197 36.049 55.7008 36.4651 55.7008H80.0556C80.5758 55.7008 80.8879 56.126 80.8879 56.5512V59.2087C80.9919 59.6339 80.5758 60.0591 80.1596 60.0591Z" fill="#CED6E2"/>
<path d="M30.9514 53.2558C30.9514 55.4881 30.0151 57.5077 28.5586 58.9959C28.4546 59.1022 28.4546 59.1022 28.3506 59.2085C26.9981 60.4841 25.1255 61.2282 23.1488 61.2282C21.1722 61.2282 19.4036 60.4841 18.0511 59.3148C18.0511 59.3148 18.0511 59.3148 17.9471 59.3148C16.2825 57.8266 15.2422 55.7006 15.2422 53.2558C15.2422 48.8975 18.7794 45.2833 23.0448 45.2833C27.4142 45.2833 30.9514 48.8975 30.9514 53.2558Z" fill="#DCE1EE"/>
<path d="M28.5277 59.1579C28.2112 58.4033 27.6837 57.7565 26.8397 57.3253C26.4177 57.1097 26.1012 57.002 25.5737 57.002H25.2572C24.5187 57.002 24.4131 56.8942 24.4131 56.8942V55.6006C25.2572 54.9538 25.8902 54.0914 26.1012 53.1212C26.6287 53.0134 26.9452 52.5822 26.8397 52.0433C26.8397 51.8277 26.6287 51.6121 26.6287 51.3965C26.6287 51.2887 26.6287 51.1809 26.6287 51.0731C26.6287 50.9653 26.6287 50.9653 26.6287 50.8575C26.6287 50.7497 26.6287 50.7497 26.6287 50.6419C26.6287 50.2107 26.5232 49.8873 26.2067 49.4561C25.5737 48.2703 24.3076 47.5157 22.9361 47.5157C22.6196 47.5157 22.4086 47.5157 22.0921 47.6235C21.5646 47.7313 21.1426 47.9469 20.7206 48.2703C20.6151 48.3781 20.6151 48.3781 20.5096 48.4859C20.5096 48.4859 20.5096 48.4859 20.4041 48.5937C19.9821 49.0249 19.6656 49.5639 19.4546 50.1029C19.2436 50.6419 19.2436 51.2887 19.2436 51.9355C19.2436 51.9355 19.2436 51.9355 19.2436 52.0433C19.2436 52.1511 19.2436 52.1511 19.2436 52.2588C19.2436 52.2588 19.2436 52.3666 19.1381 52.3666C19.3491 52.1511 19.2436 52.4744 19.3491 52.69C19.5601 53.229 19.8766 53.1212 20.2986 53.4446C20.2986 53.4446 20.2986 53.4446 20.1931 53.4446L19.7711 53.5524C17.4501 54.307 17.2391 56.7864 19.5601 57.3253C19.3491 57.4331 19.2436 57.5409 19.1381 57.5409C18.5051 58.0799 18.0831 58.7267 17.8721 59.3735C19.2436 60.5593 21.0371 61.3139 23.0416 61.3139C25.0462 61.3139 26.9452 60.5593 28.3167 59.2657C28.4222 59.3735 28.5277 59.2657 28.5277 59.1579C28.6332 59.1579 28.6332 59.1579 28.5277 59.1579ZM21.9866 56.5708C21.8811 56.463 21.7756 56.3552 21.7756 56.3552C21.6701 56.2474 21.5646 56.2474 21.4591 56.1396C21.4591 56.1396 21.3536 56.1396 21.3536 56.0318C21.0371 55.8162 20.7206 55.6006 20.6151 55.2772C20.6151 55.1694 20.7206 54.9538 20.9316 54.7382C21.0371 54.846 21.1426 54.9538 21.2481 55.1694C21.3536 55.2772 21.4591 55.385 21.5646 55.4928C21.6701 55.4928 21.7756 55.6006 21.7756 55.7084C21.7756 55.7084 21.7756 55.7084 21.8811 55.7084C21.8811 55.7084 21.8811 55.7084 21.9866 55.7084V56.5708Z" fill="white"/>
<path d="M25.3855 56.9402C25.2815 57.3654 25.0734 57.6843 25.0734 57.6843L21.1201 57.0465L21.3282 55.9835C21.3282 55.9835 21.4322 55.9835 21.4322 56.0898C21.5363 56.1961 21.6403 56.1961 21.7443 56.3024C21.8484 56.3024 21.8484 56.4087 21.9524 56.515V55.7709C21.9524 55.7709 21.9524 55.7709 21.8484 55.7709C22.4726 56.0898 23.3048 56.3024 24.4492 55.5583V56.8339C24.5533 56.8339 24.6573 56.9402 25.3855 56.9402Z" fill="url(#paint2_linear_2963:19619)"/>
<path d="M24.563 51.0113C25.3052 51.0113 26.0473 50.9029 26.6835 50.6863C26.6835 50.6863 26.6835 50.5779 26.7895 50.4696C26.6835 50.1446 26.5775 49.7113 26.3654 49.2779C25.7293 48.0862 24.4569 47.3279 23.0786 47.3279C22.7605 47.3279 22.4554 47.3511 22.03 47.4594C21.4638 47.6362 21.2009 47.7916 21.0668 47.8746C21.0668 47.8746 20.7569 48.0876 20.5339 48.3029C20.311 48.5182 19.7918 49.2779 19.5797 49.8196C19.3676 50.4696 19.1966 51.0221 19.3026 51.6721C19.4086 51.6721 19.5797 51.5529 19.6857 51.5529C20.5339 51.1196 21.1701 50.5779 21.4882 49.7112C22.3364 50.4696 23.3967 50.9029 24.563 51.0113Z" fill="#A2ABBC"/>
<path d="M20.9641 54.8503C21.0683 54.9566 21.1725 55.0629 21.2767 55.1692C21.1725 55.0629 21.0683 54.9566 20.9641 54.8503Z" fill="#3973F4"/>
<path d="M22.4207 58.7833C22.1086 59.2085 21.5884 59.2085 21.0683 59.2085C21.5884 58.677 21.2763 57.0826 19.6118 57.2952C17.219 56.87 17.5311 54.3188 19.8199 53.5747L20.236 53.4684C20.236 53.4684 20.236 53.4684 20.34 53.5747C20.5481 54.1062 20.7562 54.4251 21.0683 54.8503C20.132 55.7007 21.4844 55.9133 22.1086 56.5511C22.5248 56.7637 22.9409 58.1455 22.4207 58.7833Z" fill="#A2ABBC"/>
<defs>
<filter id="filter0_d_2963:19619" x="16.24" y="0.464478" width="115.173" height="45.9567" filterUnits="userSpaceOnUse" color-interpolation-filters="sRGB">
<feFlood flood-opacity="0" result="BackgroundImageFix"/>
<feColorMatrix in="SourceAlpha" type="matrix" values="0 0 0 0 0 0 0 0 0 0 0 0 0 0 0 0 0 0 127 0" result="hardAlpha"/>
<feOffset dy="5"/>
<feGaussianBlur stdDeviation="4.5"/>
<feColorMatrix type="matrix" values="0 0 0 0 0.397708 0 0 0 0 0.47749 0 0 0 0 0.575 0 0 0 0.17 0"/>
<feBlend mode="normal" in2="BackgroundImageFix" result="effect1_dropShadow_2963:19619"/>
<feBlend mode="normal" in="SourceGraphic" in2="effect1_dropShadow_2963:19619" result="shape"/>
</filter>
<filter id="filter1_d_2963:19619" x="16.24" y="70.1969" width="115.173" height="45.9567" filterUnits="userSpaceOnUse" color-interpolation-filters="sRGB">
<feFlood flood-opacity="0" result="BackgroundImageFix"/>
<feColorMatrix in="SourceAlpha" type="matrix" values="0 0 0 0 0 0 0 0 0 0 0 0 0 0 0 0 0 0 127 0" result="hardAlpha"/>
<feOffset dy="5"/>
<feGaussianBlur stdDeviation="4.5"/>
<feColorMatrix type="matrix" values="0 0 0 0 0.397708 0 0 0 0 0.47749 0 0 0 0 0.575 0 0 0 0.17 0"/>
<feBlend mode="normal" in2="BackgroundImageFix" result="effect1_dropShadow_2963:19619"/>
<feBlend mode="normal" in="SourceGraphic" in2="effect1_dropShadow_2963:19619" result="shape"/>
</filter>
<filter id="filter2_d_2963:19619" x="0" y="35.3306" width="115.173" height="45.9567" filterUnits="userSpaceOnUse" color-interpolation-filters="sRGB">
<feFlood flood-opacity="0" result="BackgroundImageFix"/>
<feColorMatrix in="SourceAlpha" type="matrix" values="0 0 0 0 0 0 0 0 0 0 0 0 0 0 0 0 0 0 127 0" result="hardAlpha"/>
<feOffset dy="5"/>
<feGaussianBlur stdDeviation="4.5"/>
<feColorMatrix type="matrix" values="0 0 0 0 0.397708 0 0 0 0 0.47749 0 0 0 0 0.575 0 0 0 0.17 0"/>
<feBlend mode="normal" in2="BackgroundImageFix" result="effect1_dropShadow_2963:19619"/>
<feBlend mode="normal" in="SourceGraphic" in2="effect1_dropShadow_2963:19619" result="shape"/>
</filter>
<linearGradient id="paint0_linear_2963:19619" x1="39.3381" y1="23.5115" x2="39.3381" y2="21.7547" gradientUnits="userSpaceOnUse">
<stop stop-color="white"/>
<stop offset="1" stop-color="#E2E5EC"/>
</linearGradient>
<linearGradient id="paint1_linear_2963:19619" x1="39.3381" y1="93.2439" x2="39.3381" y2="91.4871" gradientUnits="userSpaceOnUse">
<stop stop-color="white"/>
<stop offset="1" stop-color="#E2E5EC"/>
</linearGradient>
<linearGradient id="paint2_linear_2963:19619" x1="23.2541" y1="57.6973" x2="23.2541" y2="56.5261" gradientUnits="userSpaceOnUse">
<stop stop-color="white"/>
<stop offset="1" stop-color="#E2E5EC"/>
</linearGradient>
</defs>
</svg>
