<svg width="124" height="118" viewBox="0 0 124 118" fill="none" xmlns="http://www.w3.org/2000/svg">
<path d="M62.3983 84.0089C73.4227 84.0089 82.3597 75.2034 82.3597 64.3414C82.3597 53.4794 73.4227 44.674 62.3983 44.674C51.374 44.674 42.437 53.4794 42.437 64.3414C42.437 75.2034 51.374 84.0089 62.3983 84.0089Z" fill="#FCFCFC"/>
<path d="M72.1303 117.177C72.8067 116.723 72.9813 115.815 72.5203 115.148C72.0592 114.482 71.1371 114.31 70.4606 114.764C69.7842 115.218 69.6096 116.127 70.0707 116.793C70.5317 117.46 71.4538 117.632 72.1303 117.177Z" fill="#EAEEF9"/>
<path d="M63.4981 117.425C92.4873 117.425 115.997 94.1927 115.997 65.5048C115.997 36.8169 92.4873 13.585 63.4981 13.585C34.509 13.585 10.9995 36.8169 10.9995 65.5048C10.9995 94.1927 34.509 117.425 63.4981 117.425Z" fill="#EAEEF9"/>
<path d="M1.9249 75.8966L2.58677 76.388C2.75224 76.4699 2.91771 76.3061 2.83497 76.1423L2.50404 75.4051C2.33857 75.1594 2.4213 74.8317 2.58677 74.5041L3.08318 73.8488C3.16591 73.685 3.00044 73.5212 2.83497 73.6031L2.09036 73.9307C1.84216 74.0945 1.51123 74.0126 1.18029 73.8488L0.518411 73.3574C0.352942 73.2754 0.187477 73.4393 0.270212 73.6031L0.60115 74.3403C0.766619 74.586 0.683879 74.9136 0.518411 75.2413L0.022006 75.8966C-0.0607284 76.0604 0.104743 76.2242 0.270212 76.1423L1.01482 75.8147C1.34576 75.6508 1.6767 75.7327 1.9249 75.8966Z" fill="#AFB6C7"/>
<path d="M90.8115 49.3714C90.309 55.8458 86.7909 62.0215 80.7598 65.6073C75.2314 68.9939 68.6978 69.492 62.9683 67.5994H62.8678C62.4657 67.4002 61.9631 67.3006 61.561 67.1014C61.561 66.703 61.6616 66.3046 61.6616 65.9061C61.6616 65.8065 61.6616 65.8065 61.6616 65.7069C62.5662 59.7305 65.9838 54.2521 71.5122 50.8655C77.6438 47.18 84.7805 46.8812 90.8115 49.3714Z" fill="#AFB6C7"/>
<path opacity="0.5" d="M87.4945 50.9651C87.4945 51.0647 87.4946 51.0647 87.394 51.1643C84.7806 51.6623 82.3682 52.6584 80.0563 53.7541C77.7444 54.9494 75.533 56.3439 73.5227 57.838C71.4118 59.3321 69.502 61.0254 67.5921 62.7187C66.6875 63.6152 65.7828 64.5116 64.8782 65.4081C64.2751 66.1053 63.5714 66.8026 62.9683 67.4998C62.5663 67.3006 62.0637 67.201 61.6616 67.0018C61.6616 66.6034 61.7621 66.2049 61.7621 65.8065C61.7621 65.7069 61.7621 65.7069 61.7621 65.6073C61.8627 65.5077 61.9632 65.4081 61.9632 65.4081C62.4658 64.9101 62.8678 64.5116 63.3704 64.0136C64.3756 63.1171 65.3808 62.2207 66.3859 61.4238C68.3963 59.7305 70.5071 58.2364 72.819 56.7423C75.0304 55.3478 77.3423 54.0529 79.7547 52.9572C82.1671 51.9612 84.6801 51.1643 87.2935 50.7659C87.394 50.8655 87.4945 50.9651 87.4945 50.9651Z" fill="white"/>
<path d="M56.9376 59.4318C56.7366 59.5314 56.5356 59.631 56.3345 59.631C56.1335 59.7306 55.9325 59.8302 55.6309 59.8302C52.0123 60.9259 47.8911 60.627 44.373 58.4357C40.4528 56.0451 38.1409 52.0608 37.8394 47.7777C41.7595 46.0844 46.4838 46.2836 50.404 48.6742C53.9221 50.766 56.1335 54.1526 56.8371 57.9377C56.8371 58.0373 56.8371 58.0373 56.8371 58.1369C56.8371 58.6349 56.9376 59.0333 56.9376 59.4318Z" fill="#AFB6C7"/>
<path opacity="0.5" d="M56.9373 59.4316C56.7363 59.5313 56.5352 59.6309 56.3342 59.6309C56.3342 59.6309 56.3342 59.6309 56.3342 59.5313L55.9321 59.2324C55.7311 58.9336 55.4295 58.6348 55.2285 58.4356C54.7259 57.8379 54.1228 57.3399 53.6202 56.8419C52.5146 55.8458 51.2078 54.9493 50.0016 54.0529C48.6949 53.1564 47.3882 52.3596 46.0815 51.6623C44.6742 50.9651 43.267 50.3674 41.7592 49.969C41.6587 49.969 41.6587 49.8694 41.6587 49.8694C41.6587 49.7698 41.7592 49.7698 41.7592 49.7698C44.8752 50.3674 47.7902 51.6623 50.5042 53.256C51.8109 54.0529 53.1177 54.9493 54.3239 55.9454C54.927 56.4434 55.5301 56.9415 56.1332 57.5391C56.3342 57.7383 56.5352 57.9375 56.7363 58.2364C56.8368 58.6348 56.9373 59.0332 56.9373 59.4316Z" fill="white"/>
<path d="M81.0632 91.0069V98.6767C81.0632 100.569 79.5555 102.063 77.6456 102.063H44.9775C44.2739 102.063 43.4698 101.864 42.8667 101.466C42.7662 101.366 42.6657 101.366 42.5651 101.266C42.3641 101.167 42.2636 100.968 42.0626 100.868C41.6605 100.47 41.3589 100.071 41.1579 99.4735L39.7507 95.8877C39.047 94.1944 39.8512 92.4014 41.4594 91.6046L46.5858 89.214C47.4905 88.8156 48.1941 88.1183 48.5962 87.2219L51.5112 81.6439C52.0138 80.6478 53.0189 80.0502 54.2251 80.0502H70.2074L71.8156 81.9427L78.3493 83.4368L81.0632 91.0069Z" fill="#9BA8B8"/>
<path opacity="0.6" d="M78.4491 83.6361L74.3279 89.5129L71.9155 82.142L78.4491 83.6361Z" fill="#2F333E"/>
<path d="M81.0628 92.302V98.7764C81.0628 100.669 79.555 102.163 77.6452 102.163H44.9771C43.8714 102.163 42.8662 101.765 42.1626 100.968L57.7428 86.8236L67.694 95.2902L81.0628 92.302Z" fill="#9BA8B8"/>
<path d="M74.3282 89.5133L59.3512 88.2184L51.6113 81.8436V81.744C52.1139 80.7479 53.1191 80.1503 54.3253 80.1503H63.9749L74.3282 89.5133Z" fill="#9BA8B8"/>
<path d="M79.3544 91.5048L74.6301 89.3134L77.6456 84.6319L74.228 89.0146L67.0913 83.0382L73.6249 89.2138L59.452 88.0185L52.6168 82.7394L58.9494 88.2178L47.0884 98.2781L59.452 88.6162L67.3929 95.1902C67.3929 95.1902 67.3929 95.1902 67.4934 95.1902C67.4934 95.1902 67.4934 95.1902 67.4934 95.0906L60.1556 88.6162L74.4291 89.8115L79.3544 91.704V91.5048Z" fill="white"/>
<path d="M60.9581 83.0373C61.6617 79.7503 61.8628 76.2641 61.2597 72.977C60.9581 71.2837 60.5561 69.69 59.9529 68.1959C59.7519 67.7975 59.6514 67.3991 59.4504 67.1002L58.8473 65.905L58.2442 64.6101C58.0431 64.2116 57.9426 63.7136 57.7416 63.3152C57.3395 62.4187 57.1385 61.5223 56.9374 60.6258C56.7364 59.7293 56.5354 58.7333 56.5354 57.8368C56.3343 55.9443 56.4348 54.0517 56.6359 52.2588C57.1385 48.5734 58.3447 45.0871 59.8524 41.8001C60.0535 41.302 60.6566 41.1028 61.0586 41.302C61.5612 41.5013 61.7623 41.9993 61.5612 42.4973C60.2545 45.7844 59.2493 49.0714 58.9478 52.5576C58.7467 54.2509 58.8473 55.9443 59.0483 57.6376C59.1488 58.4344 59.3498 59.3309 59.5509 60.1278C59.8524 60.9246 60.0535 61.7215 60.355 62.5183C60.5561 62.9167 60.6566 63.3152 60.8576 63.7136L61.4607 64.8093L62.0638 66.0046C62.2648 66.403 62.4659 66.901 62.6669 67.2994C63.4711 68.9928 64.0742 70.8853 64.3757 72.6782C65.1798 76.3637 65.0793 80.2484 64.4762 83.9338C64.2752 84.9299 63.3705 85.5275 62.4659 85.3283C61.4607 84.9299 60.7571 84.0334 60.9581 83.0373Z" fill="#D7DBE3"/>
<path d="M83.7902 26.073C83.6897 26.571 83.5893 27.0691 83.3883 27.5671C83.2877 27.9655 83.0868 28.3641 82.9863 28.7626C82.7853 29.3602 82.4837 29.9577 82.1821 30.5553C82.0816 30.8541 81.8804 31.1528 81.7799 31.4517C81.1768 32.5473 80.5737 33.5435 79.7695 34.5396C79.468 34.938 79.1665 35.3365 78.865 35.6353C77.0557 37.7271 74.7437 39.5202 72.2308 40.8151C71.7282 41.0143 71.3262 41.3128 70.8236 41.5121C70.0195 41.8109 69.2153 42.1096 68.3107 42.4084C67.8081 42.508 67.4061 42.6079 66.9035 42.7075C63.9885 43.3052 60.9729 43.4048 57.9574 42.7075C46.1968 40.317 38.5575 28.8621 41.0704 17.2081C43.4828 5.55406 55.0424 -2.01588 66.8029 0.474298C70.9241 1.37076 74.7437 3.3628 77.7592 6.35101C83.0866 11.5306 85.298 19.0009 83.7902 26.073Z" fill="white"/>
<path d="M81.78 11.7294C81.6795 11.5302 81.4786 11.2312 81.3781 11.032C80.4734 9.43826 79.2672 7.84494 77.86 6.45044C74.8445 3.46224 71.0249 1.46971 66.9037 0.573246C55.1432 -1.81732 43.5836 5.65349 41.1712 17.3075C39.5629 24.9772 42.2769 32.5472 47.7048 37.5275C50.5193 40.1173 54.0374 42.0101 58.0581 42.807C61.1742 43.4046 64.1896 43.4046 67.0041 42.807C67.5066 42.7074 67.9089 42.6075 68.4114 42.5079C69.2156 42.3086 70.1202 42.0099 70.9244 41.6115C71.427 41.4123 71.9295 41.2129 72.3315 40.914C74.8445 39.6192 77.1564 37.9261 78.9658 35.7348C79.2673 35.3363 79.5688 34.9378 79.8703 34.639C80.5739 33.6429 81.2776 32.6468 81.8807 31.5511C82.0817 31.2523 82.1821 30.9535 82.2826 30.6547C82.5842 30.0571 82.7853 29.4596 83.0868 28.862C83.1873 28.5632 83.2879 28.3637 83.3884 28.0648C83.3884 27.9652 83.489 27.7661 83.489 27.6665C83.5896 27.1685 83.7905 26.6705 83.891 26.1724C84.7957 21.0925 84.0919 16.0125 81.78 11.7294ZM78.4632 28.9612C78.3627 29.1604 78.2621 29.4594 78.1616 29.6587C77.659 30.5551 77.1563 31.352 76.5532 32.1488C76.3522 32.4477 76.0507 32.7464 75.8496 33.0452C74.3419 34.7385 72.5325 36.1332 70.5222 37.2289C70.1201 37.4281 69.7182 37.6273 69.4166 37.7269C68.8135 38.0257 68.1099 38.2247 67.4063 38.4239C64.7928 39.2207 61.8778 39.3206 59.0633 38.723C49.5142 36.7308 43.483 27.5668 45.3929 18.1042C47.4032 8.6415 56.6507 2.66499 66.1999 4.55752C69.5169 5.25477 72.633 6.84877 75.0454 9.33895C76.4527 10.7334 77.5584 12.3269 78.3626 14.0202C78.4631 14.2194 78.5636 14.5184 78.6642 14.7176C80.0714 17.905 80.4733 21.3915 79.7697 24.8777C79.7697 24.9773 79.7698 25.0767 79.6693 25.1763C79.6693 25.276 79.5687 25.4751 79.5687 25.5747C79.2672 26.77 78.8652 27.8655 78.4632 28.9612Z" fill="#AFB6C7"/>
<path d="M65.8972 5.2556C67.204 5.55442 68.41 5.95304 69.5157 6.45108C69.7167 6.55068 70.0182 6.6501 70.2193 6.7497C71.1239 7.14813 71.9282 7.74577 72.6318 8.24381C72.9334 8.44302 73.2348 8.74203 73.5364 8.94125C75.2452 10.3357 76.5519 12.1284 77.5571 14.1205C77.7581 14.5189 77.9592 14.8179 78.0597 15.2163C78.3612 15.8139 78.5622 16.5111 78.7632 17.1087C79.4669 19.5989 79.6679 22.388 79.0648 25.177C77.155 34.2412 68.209 40.1181 58.9614 38.2256C49.8143 36.333 43.884 27.468 45.7938 18.3042C46.4974 15.1168 48.1055 12.1286 50.4174 9.83761C54.4381 5.75373 60.2683 4.06032 65.8972 5.2556Z" stroke="#E9EEF6" stroke-width="1.94018" stroke-miterlimit="10"/>
<path d="M62.1508 29.366C59.8123 29.366 57.8566 28.5795 56.2837 27.0067C54.7316 25.4339 53.9555 23.4989 53.9555 21.2017C53.9555 18.8838 54.7316 16.9488 56.2837 15.3967C57.8566 13.8238 59.8123 13.0374 62.1508 13.0374C63.6616 13.0374 65.0378 13.3996 66.2795 14.1239C67.5213 14.8482 68.4525 15.8209 69.0734 17.0419L66.1864 18.7183C65.8346 17.9732 65.2965 17.3938 64.5722 16.9799C63.8685 16.5453 63.0511 16.328 62.1198 16.328C60.7539 16.328 59.6053 16.7936 58.674 17.7249C57.7634 18.6562 57.3081 19.8151 57.3081 21.2017C57.3081 22.5883 57.7634 23.7472 58.674 24.6785C59.6053 25.6098 60.7539 26.0754 62.1198 26.0754C63.0304 26.0754 63.8478 25.8581 64.5722 25.4235C65.3172 24.9889 65.876 24.4094 66.2485 23.6851L69.1355 25.3304C68.4732 26.5721 67.5213 27.5551 66.2795 28.2795C65.0378 29.0038 63.6616 29.366 62.1508 29.366Z" fill="#AFB6C7"/>
<path d="M120.238 38.9928C122.316 38.9928 124 37.3208 124 35.2582C124 33.1956 122.316 31.5236 120.238 31.5236C118.16 31.5236 116.476 33.1956 116.476 35.2582C116.476 37.3208 118.16 38.9928 120.238 38.9928Z" fill="#EAEEF9"/>
<path d="M8.52218 35.9295C9.59289 35.9295 10.4609 35.0702 10.4609 34.0102C10.4609 32.9501 9.59289 32.0908 8.52218 32.0908C7.45148 32.0908 6.5835 32.9501 6.5835 34.0102C6.5835 35.0702 7.45148 35.9295 8.52218 35.9295Z" fill="#EAEEF9"/>
</svg>
