<svg width="20" height="20" viewBox="0 0 20 20" fill="none" xmlns="http://www.w3.org/2000/svg">
<path d="M17.0592 6.25002L17.6675 5.64169C17.83 5.47925 17.9212 5.25892 17.9212 5.02919C17.9212 4.79946 17.83 4.57914 17.6675 4.41669C17.5051 4.25425 17.2848 4.16299 17.055 4.16299C16.8253 4.16299 16.605 4.25425 16.4425 4.41669L15.8342 5.00002L15.2259 4.39169C15.0601 4.22925 14.8366 4.1393 14.6045 4.14165C14.3725 4.14399 14.1508 4.23843 13.9884 4.40419C13.8259 4.56995 13.736 4.79345 13.7383 5.02553C13.7407 5.25761 13.8351 5.47925 14.0009 5.64169L14.6092 6.25002L14.0009 6.85836C13.8384 7.0208 13.7472 7.24112 13.7472 7.47086C13.7472 7.70059 13.8384 7.92091 14.0009 8.08336C14.1633 8.2458 14.3836 8.33706 14.6134 8.33706C14.8431 8.33706 15.0634 8.2458 15.2259 8.08336L15.8342 7.50002L16.4425 8.10836C16.6083 8.2708 16.8318 8.36074 17.0639 8.3584C17.296 8.35606 17.5176 8.26162 17.68 8.09586C17.8425 7.9301 17.9324 7.70659 17.9301 7.47452C17.9277 7.24244 17.8333 7.0208 17.6675 6.85836L17.0592 6.25002Z" fill="#FCFCFC"/>
<path d="M8.33333 9.16667C8.9926 9.16667 9.63707 8.97117 10.1852 8.6049C10.7334 8.23863 11.1606 7.71803 11.4129 7.10895C11.6652 6.49986 11.7312 5.82964 11.6026 5.18303C11.474 4.53643 11.1565 3.94249 10.6904 3.47631C10.2242 3.01014 9.63024 2.69267 8.98363 2.56405C8.33703 2.43543 7.66681 2.50144 7.05772 2.75374C6.44863 3.00603 5.92804 3.43327 5.56177 3.98143C5.1955 4.5296 5 5.17406 5 5.83334C5 6.71739 5.35119 7.56524 5.97631 8.19036C6.60143 8.81548 7.44928 9.16667 8.33333 9.16667Z" fill="#FCFCFC"/>
<path d="M13.3333 17.5C13.5543 17.5 13.7663 17.4122 13.9226 17.256C14.0789 17.0997 14.1667 16.8877 14.1667 16.6667C14.1667 15.1196 13.5521 13.6359 12.4581 12.5419C11.3642 11.448 9.88043 10.8334 8.33333 10.8334C6.78624 10.8334 5.30251 11.448 4.20854 12.5419C3.11458 13.6359 2.5 15.1196 2.5 16.6667C2.5 16.8877 2.5878 17.0997 2.74408 17.256C2.90036 17.4122 3.11232 17.5 3.33333 17.5H13.3333Z" fill="#FCFCFC"/>
</svg>
