<svg width="24" height="24" viewBox="0 0 24 24" fill="none" xmlns="http://www.w3.org/2000/svg">
<path d="M10.0001 5C10.0001 4.46957 10.2108 3.96086 10.5859 3.58579C10.961 3.21071 11.4697 3 12.0001 3C12.5306 3 13.0393 3.21071 13.4143 3.58579C13.7894 3.96086 14.0001 4.46957 14.0001 5C15.1485 5.54303 16.1275 6.38833 16.8322 7.4453C17.5368 8.50227 17.9406 9.73107 18.0001 11V14C18.0754 14.6217 18.2956 15.2171 18.6429 15.7381C18.9903 16.2592 19.4552 16.6914 20.0001 17H4.00012C4.54506 16.6914 5.00993 16.2592 5.35731 15.7381C5.70469 15.2171 5.92487 14.6217 6.00012 14V11C6.05968 9.73107 6.46342 8.50227 7.16807 7.4453C7.87272 6.38833 8.85171 5.54303 10.0001 5" stroke="#4B5563" stroke-width="1.75" stroke-linecap="round" stroke-linejoin="round"/>
<path d="M9 17V18C9 18.7956 9.31607 19.5587 9.87868 20.1213C10.4413 20.6839 11.2044 21 12 21C12.7956 21 13.5587 20.6839 14.1213 20.1213C14.6839 19.5587 15 18.7956 15 18V17" stroke="#4B5563" stroke-width="1.75" stroke-linecap="round" stroke-linejoin="round"/>
</svg>
