<svg width="24" height="24" viewBox="0 0 24 24" fill="none" xmlns="http://www.w3.org/2000/svg">
<path d="M20.0669 14.9334V4.48337C20.0669 2.96458 18.8357 1.73337 17.3169 1.73337H10.5336L3.93359 8.33337V19.5167C3.93359 21.0355 5.16481 22.2667 6.68359 22.2667H7.60026" stroke="#4B5563" stroke-width="1.375" stroke-linecap="round"/>
<path d="M3.93359 8.33337H8.70026C9.71278 8.33337 10.5336 7.51256 10.5336 6.50003V1.73337" stroke="#4B5563" stroke-width="1.375" stroke-linecap="round"/>
<path fill-rule="evenodd" clip-rule="evenodd" d="M12.2134 17.1333C12.8976 17.1333 13.4296 17.274 13.8092 17.5555C14.1888 17.837 14.3785 18.2543 14.3785 18.8073C14.3785 19.3851 14.1925 19.8209 13.8204 20.1148C13.4483 20.4086 12.9501 20.5555 12.3257 20.5555H11.7638V22.2666H10.5352V17.1333H12.2134ZM12.2208 19.6814C12.5105 19.6814 12.7315 19.6135 12.8838 19.4777C13.0362 19.3419 13.1123 19.1184 13.1123 18.8073C13.1123 18.2691 12.8077 17.9999 12.1983 17.9999H11.7638V19.6814H12.2208ZM16.4754 17.1333C17.2895 17.1333 17.9425 17.3148 18.4345 17.6777C18.9265 18.0407 19.1725 18.7061 19.1725 19.674C19.1725 20.6271 18.9327 21.2975 18.4533 21.6851C17.9738 22.0728 17.3519 22.2666 16.5877 22.2666H15.0294V17.1333H16.4754ZM16.2576 18.0148V21.3852H16.6622C17.0667 21.3852 17.3739 21.2605 17.5837 21.0111C17.7935 20.7617 17.8983 20.316 17.8983 19.6741C17.8983 19.2346 17.8459 18.8938 17.741 18.6518C17.6361 18.4099 17.4938 18.2432 17.314 18.1518C17.1342 18.0605 16.9119 18.0148 16.6472 18.0148H16.2576ZM19.9099 22.2666V17.1333H23.0041L22.8768 17.9999H21.1386V19.3629H22.652V20.2296H21.1386V22.2666H19.9099Z" fill="#4B5563"/>
</svg>
