<svg width="24" height="24" viewBox="0 0 24 24" fill="none" xmlns="http://www.w3.org/2000/svg">
<g clip-path="url(#clip0_4529_22820)">
<path fill-rule="evenodd" clip-rule="evenodd" d="M9.6 11.2C10.4837 11.2 11.2 10.4837 11.2 9.6C11.2 8.71634 10.4837 8 9.6 8C8.71634 8 8 8.71634 8 9.6C8 10.4837 8.71634 11.2 9.6 11.2ZM14.3998 16C15.2835 16 15.9998 15.2836 15.9998 14.4C15.9998 13.5163 15.2835 12.8 14.3998 12.8C13.5161 12.8 12.7998 13.5163 12.7998 14.4C12.7998 15.2836 13.5161 16 14.3998 16ZM14.9655 9.0343C14.6531 8.72188 14.1465 8.72188 13.8341 9.0343L9.03412 13.8343C8.7217 14.1467 8.7217 14.6533 9.03412 14.9657C9.34654 15.2781 9.85307 15.2781 10.1655 14.9657L14.9655 10.1657C15.2779 9.85325 15.2779 9.34672 14.9655 9.0343Z" fill="#4B5563"/>
<circle cx="12" cy="12" r="10.25" stroke="#4B5563" stroke-width="1.5"/>
</g>
<defs>
<clipPath id="clip0_4529_22820">
<rect width="24" height="24" fill="white"/>
</clipPath>
</defs>
</svg>
