<svg width="32" height="32" viewBox="0 0 32 32" fill="none" xmlns="http://www.w3.org/2000/svg">
<path d="M22.0441 20.2885C25.1932 18.518 27.5808 17.1691 27.7865 17.0643C28.4446 16.7057 29.1246 15.7571 27.7865 15.0204C27.3545 14.7887 25.0285 13.4816 22.0441 11.7962L17.9072 16.0737L22.0439 20.2885H22.0441Z" fill="#FFD900"/>
<path d="M17.9072 16.0739L4.73438 29.6667C5.04336 29.7087 5.39245 29.6247 5.80421 29.3931C6.66827 28.909 15.8278 23.7874 22.0444 20.2895L17.9072 16.0739V16.0739Z" fill="#F43249"/>
<path d="M17.907 16.0739L22.0437 11.8172C22.0437 11.8172 6.73048 3.26095 5.80376 2.75609C5.45511 2.5438 5.06387 2.48104 4.71387 2.5438L17.907 16.0737V16.0739Z" fill="#00EE76"/>
<path d="M17.907 16.0739L4.71361 2.54401C4.17813 2.67068 3.72559 3.15502 3.72559 4.14514V28.0649C3.72559 28.9718 4.07581 29.6248 4.73389 29.6875L17.9068 16.0737L17.907 16.0739Z" fill="#00D3FF"/>
</svg>
