<svg width="24" height="24" viewBox="0 0 24 24" fill="none" xmlns="http://www.w3.org/2000/svg">
<path fill-rule="evenodd" clip-rule="evenodd" d="M11.9992 7.20017C16.8593 7.20017 20.7992 5.76748 20.7992 4.00017C20.7992 2.23286 16.8593 0.800171 11.9992 0.800171C7.13911 0.800171 3.19922 2.23286 3.19922 4.00017C3.19922 5.76748 7.13911 7.20017 11.9992 7.20017Z" stroke="white" stroke-width="1.5" stroke-linecap="round"/>
<path d="M3.19922 12.4001V20.0001C3.19922 21.7675 7.13911 23.2001 11.9992 23.2001C16.8593 23.2001 20.7992 21.7675 20.7992 20.0001V12.4001" stroke="white" stroke-width="1.5" stroke-linecap="round"/>
<path d="M3.19922 4.00018V12.0002C3.19922 13.7675 7.13911 15.2002 11.9992 15.2002C16.8593 15.2002 20.7992 13.7675 20.7992 12.0002V4.00018" stroke="white" stroke-width="1.5" stroke-linecap="round"/>
<path fill-rule="evenodd" clip-rule="evenodd" d="M18.3969 10.4006C18.3969 10.8424 18.0387 11.2006 17.5969 11.2006C17.155 11.2006 16.7969 10.8424 16.7969 10.4006C16.7969 9.95876 17.155 9.60059 17.5969 9.60059C18.0387 9.60059 18.3969 9.95876 18.3969 10.4006ZM18.3969 18.4006C18.3969 18.8424 18.0387 19.2006 17.5969 19.2006C17.155 19.2006 16.7969 18.8424 16.7969 18.4006C16.7969 17.9588 17.155 17.6006 17.5969 17.6006C18.0387 17.6006 18.3969 17.9588 18.3969 18.4006Z" fill="white"/>
</svg>
