<svg width="56" height="56" viewBox="0 0 56 56" fill="none" xmlns="http://www.w3.org/2000/svg">
<rect width="56" height="56" rx="6" fill="#4279E3" fill-opacity="0.1"/>
<path d="M16.1315 37.3934C18.3815 35.1434 18.6065 34.5809 20.0127 35.9871C21.419 37.3934 20.8565 37.5621 18.6065 39.8684C16.919 41.5559 14.7815 41.2184 14.7815 41.2184C14.7815 41.2184 14.444 39.0809 16.1315 37.3934Z" fill="#FF9D27"/>
<path d="M20.4062 39.6998C21.3062 37.3373 21.5874 37.0561 20.2937 36.3248C18.9999 35.5935 18.9999 36.0998 18.1562 38.4623C17.4812 40.2061 18.2687 41.7811 18.2687 41.7811C18.2687 41.7811 19.7874 41.4998 20.4062 39.6998Z" fill="#FF9D27"/>
<path d="M19.1133 37.506C19.6195 36.2122 19.6195 35.931 20.2945 36.3247C21.0257 36.7185 20.857 36.8872 20.3507 38.181C20.0132 39.1372 19.1695 39.3622 19.1695 39.3622C19.1695 39.3622 18.7758 38.5185 19.1133 37.506Z" fill="#FDF516"/>
<path d="M19.6184 35.7065C18.8871 34.4128 18.6059 34.694 16.2434 35.594C14.4996 36.269 14.1621 37.7315 14.1621 37.7315C14.1621 37.7315 15.7371 38.519 17.4809 37.844C19.8434 36.944 20.3496 36.944 19.6184 35.7065Z" fill="#FF9D27"/>
<path d="M18.4383 36.8872C19.732 36.3809 20.0133 36.3809 19.6195 35.7059C19.2258 34.9747 19.057 35.1434 17.7633 35.6497C16.807 35.9872 16.582 36.8309 16.582 36.8309C16.582 36.8309 17.482 37.2247 18.4383 36.8872Z" fill="#FDF516"/>
<path d="M17.8193 36.7748C19.0568 35.5373 19.1693 35.1999 19.9568 35.9874C20.7443 36.7749 20.4068 36.8873 19.1693 38.1248C18.2131 39.0811 17.0318 38.8561 17.0318 38.8561C17.0318 38.8561 16.9193 37.7311 17.8193 36.7748Z" fill="#FDF516"/>
<path d="M20.4062 31.3747C16.9188 25.5247 11.125 27.9434 11.125 27.9434C11.125 27.9434 19.3938 19.6747 24.9625 25.2435L20.4062 31.3747Z" fill="#3BAACF"/>
<path d="M23.1062 27.0434L24.9062 25.2434C19.3938 19.6747 11.125 27.9434 11.125 27.9434C11.125 27.9434 18.3812 22.7684 23.1062 27.0434Z" fill="#428BC1"/>
<path d="M24.625 35.5936C30.475 39.0811 28.0562 44.8749 28.0562 44.8749C28.0562 44.8749 36.325 36.6061 30.7562 31.0374L24.625 35.5936Z" fill="#3BAACF"/>
<path d="M28.9566 32.8938L30.7566 31.0938C36.3254 36.6625 28.0566 44.9312 28.0566 44.9312C28.0566 44.9312 33.2316 37.6187 28.9566 32.8938Z" fill="#428BC1"/>
<path d="M37.45 27.3816C30.8688 33.9066 23.6125 37.4503 21.0813 34.9191C18.55 32.3878 22.0938 25.1316 28.6187 18.5503C36.2687 10.9003 44.7625 11.2378 44.7625 11.2378C44.7625 11.2378 45.0437 19.7316 37.45 27.3816Z" fill="#C5D0D8"/>
<path d="M35.7626 25.525C29.2376 32.05 22.7126 36.325 21.1938 34.8062C19.6751 33.2875 23.9501 26.7625 30.4751 20.2375C38.1251 12.5875 44.8751 11.125 44.8751 11.125C44.8751 11.125 43.4126 17.875 35.7626 25.525Z" fill="#DAE3EA"/>
<path d="M23.6688 36.7185C23.3875 36.9997 22.9375 36.9997 22.6563 36.7185L19.2813 33.3435C19 33.0622 19 32.556 19.2813 32.2747L20.2937 31.2622L24.6813 35.6497L23.6688 36.7185Z" fill="#C94747"/>
<path d="M22.7129 35.7063C22.4316 35.9875 22.0941 36.1 21.9254 35.9313L20.0129 34.0188C19.8441 33.85 19.9566 33.5125 20.2379 33.2313L21.2504 32.2188L23.7254 34.6938L22.7129 35.7063Z" fill="#F15744"/>
<path d="M21.7554 37.1124C21.5867 37.2811 21.1929 37.2811 21.0242 37.1124L18.8304 34.9186C18.6617 34.7499 18.7179 34.4124 18.8867 34.2436L19.5617 33.5686L22.4304 36.4374L21.7554 37.1124Z" fill="#3E4347"/>
<path d="M21.307 36.6628C21.1383 36.8315 20.8008 36.8878 20.6883 36.7753L19.1695 35.2565C19.057 35.144 19.1133 34.8628 19.3383 34.694L20.0133 34.019L21.982 35.9878L21.307 36.6628Z" fill="#62727A"/>
<path d="M44.7629 11.2374C44.7629 11.2374 41.7254 11.1249 37.6191 12.6999L43.3004 18.3811C44.8754 14.2749 44.7629 11.2374 44.7629 11.2374Z" fill="#C94747"/>
<path d="M44.7625 11.2378C44.7625 11.2378 42.3438 11.744 38.6875 13.8253L42.175 17.3128C44.2563 13.6565 44.7625 11.2378 44.7625 11.2378Z" fill="#F15744"/>
<path d="M34.4688 24.3438C36.0221 24.3438 37.2812 23.0846 37.2812 21.5312C37.2812 19.9779 36.0221 18.7188 34.4688 18.7188C32.9154 18.7188 31.6562 19.9779 31.6562 21.5312C31.6562 23.0846 32.9154 24.3438 34.4688 24.3438Z" fill="#EDF4F9"/>
<path d="M34.4695 23.3878C35.4947 23.3878 36.3258 22.5567 36.3258 21.5315C36.3258 20.5064 35.4947 19.6753 34.4695 19.6753C33.4444 19.6753 32.6133 20.5064 32.6133 21.5315C32.6133 22.5567 33.4444 23.3878 34.4695 23.3878Z" fill="#3BAACF"/>
<path d="M28.8438 29.9688C30.3971 29.9688 31.6562 28.7096 31.6562 27.1562C31.6562 25.6029 30.3971 24.3438 28.8438 24.3438C27.2904 24.3438 26.0312 25.6029 26.0312 27.1562C26.0312 28.7096 27.2904 29.9688 28.8438 29.9688Z" fill="#EDF4F9"/>
<path d="M28.8445 29.0128C29.8697 29.0128 30.7008 28.1817 30.7008 27.1565C30.7008 26.1314 29.8697 25.3003 28.8445 25.3003C27.8194 25.3003 26.9883 26.1314 26.9883 27.1565C26.9883 28.1817 27.8194 29.0128 28.8445 29.0128Z" fill="#3BAACF"/>
<path d="M37.5066 13.8814C37.3379 14.0501 37.0004 14.0501 36.8316 13.8814C36.6629 13.7126 36.6629 13.3751 36.8316 13.2064C37.0004 13.0376 37.3379 13.0376 37.5066 13.2064C37.6754 13.3751 37.6754 13.7126 37.5066 13.8814Z" fill="white"/>
<path d="M38.4637 15.2879C38.7122 15.2879 38.9137 15.0865 38.9137 14.8379C38.9137 14.5894 38.7122 14.3879 38.4637 14.3879C38.2151 14.3879 38.0137 14.5894 38.0137 14.8379C38.0137 15.0865 38.2151 15.2879 38.4637 15.2879Z" fill="white"/>
<path d="M39.8133 16.6378C40.0618 16.6378 40.2633 16.4363 40.2633 16.1878C40.2633 15.9393 40.0618 15.7378 39.8133 15.7378C39.5648 15.7378 39.3633 15.9393 39.3633 16.1878C39.3633 16.4363 39.5648 16.6378 39.8133 16.6378Z" fill="white"/>
<path d="M41.1062 17.9876C41.3548 17.9876 41.5562 17.7862 41.5562 17.5376C41.5562 17.2891 41.3548 17.0876 41.1062 17.0876C40.8577 17.0876 40.6562 17.2891 40.6562 17.5376C40.6562 17.7862 40.8577 17.9876 41.1062 17.9876Z" fill="white"/>
<path d="M42.4559 19.2811C42.7044 19.2811 42.9059 19.0796 42.9059 18.8311C42.9059 18.5826 42.7044 18.3811 42.4559 18.3811C42.2073 18.3811 42.0059 18.5826 42.0059 18.8311C42.0059 19.0796 42.2073 19.2811 42.4559 19.2811Z" fill="white"/>
</svg>
