<svg width="24" height="24" viewBox="0 0 24 24" fill="none" xmlns="http://www.w3.org/2000/svg">
<path d="M7.46997 22.7081L4.75189 22.8871C2.9884 23.0032 1.46469 21.6677 1.34859 19.9042C1.32135 19.4905 1.37477 19.0754 1.50589 18.682L3.57608 12.4715C4.78471 8.84559 8.17792 6.3999 11.9999 6.3999C15.822 6.3999 19.2152 8.84559 20.4238 12.4715C20.566 12.8981 20.6727 13.2181 20.7438 13.4314" stroke="#4B5563" stroke-width="1.5" stroke-linecap="round"/>
<path d="M4.97656 21.3306C5.54854 22.1754 7.45722 22.8514 9.92287 23.0986C10.5806 23.1645 11.2779 23.2 12 23.2C12.8635 23.2 13.6914 23.1493 14.4586 23.0564" stroke="#4B5563" stroke-width="1.5" stroke-linecap="round"/>
<path d="M8.39996 6.39995L7.7232 5.38481C7.02691 4.34038 7.84492 2.9537 9.09584 3.05794L10.8 3.19995" stroke="#4B5563" stroke-width="1.5" stroke-linecap="round"/>
<path d="M15.2 6.40008L16.4028 4.5959C17.1466 3.48018 16.1797 2.01972 14.8621 2.26874V2.26874C14.4217 2.35198 13.9671 2.23578 13.6206 1.95143L13.5779 1.91634C12.5748 1.09307 11.0586 1.71299 10.9196 3.00319L10.7692 4.40008" stroke="#4B5563" stroke-width="1.5" stroke-linecap="round"/>
<path d="M17.6 15.2001V13.6001H23.2V23.2001H17.6" stroke="#4B5563" stroke-width="1.5" stroke-linecap="round"/>
<path d="M19.2 16.8001H22.4" stroke="#4B5563" stroke-width="1.5" stroke-linecap="round"/>
<path d="M20 20.0001H22.4" stroke="#4B5563" stroke-width="1.5" stroke-linecap="round"/>
<path fill-rule="evenodd" clip-rule="evenodd" d="M16 23.2002C18.2091 23.2002 20 21.4093 20 19.2002C20 16.9911 18.2091 15.2002 16 15.2002C13.7909 15.2002 12 16.9911 12 19.2002C12 21.4093 13.7909 23.2002 16 23.2002Z" stroke="#4B5563" stroke-width="1.5" stroke-linecap="round"/>
</svg>
