<svg width="40" height="40" viewBox="0 0 40 40" fill="none" xmlns="http://www.w3.org/2000/svg">
<path fill-rule="evenodd" clip-rule="evenodd" d="M23.3696 35.0802C23.609 34.8978 23.8866 34.7721 24.179 34.7009C31.8818 32.825 37.5999 25.8803 37.5999 17.6C37.5999 7.87979 29.7201 0 19.9999 0C10.2797 0 2.3999 7.87979 2.3999 17.6C2.3999 24.1118 5.9363 29.7976 11.1933 32.8416C11.5693 33.0593 11.8809 33.376 12.0713 33.7665L14.5031 38.7515C15.0705 39.9148 16.5603 40.2682 17.5898 39.4838L23.3696 35.0802Z" fill="#7868E6"/>
<path d="M27.8972 12.3256L22.8972 7.32556C22.6966 7.125 22.4183 7 22.1111 7C21.4978 7 21.0005 7.49778 21 8.11111C21 8.41778 21.1244 8.69611 21.3255 8.89722L19.1816 11.0411L24.1816 16.0411L26.3255 13.8972C26.5266 14.0978 26.8044 14.2222 27.1111 14.2222C27.7244 14.2222 28.2228 13.7244 28.2222 13.1111C28.2222 12.8044 28.0978 12.5267 27.8972 12.3256Z" fill="white"/>
<path d="M22.1112 7H13.7779C12.5507 7 11.5557 7.995 11.5557 9.22222V24.7778C11.5557 26.005 12.5507 27 13.7779 27H26.0001C27.2273 27 28.2223 26.005 28.2223 24.7778V13.1111H23.2223C22.6668 13.1111 22.1112 12.5556 22.1112 12V7Z" fill="#FCFCFC"/>
<path d="M22.0001 7H21.0001V12C21.0001 13.2272 21.9951 14 23.2223 14H28.2223V13.1111H23.2223C22.6667 13.1111 22.0001 12.5556 22.0001 12V7ZM19.3334 11.4444C19.3334 11.7511 19.0845 12 18.7778 12H14.3334C14.0267 12 13.7778 11.7511 13.7778 11.4444C13.7778 11.1378 14.0267 10.8889 14.3334 10.8889H18.7778C19.0845 10.8889 19.3334 11.1378 19.3334 11.4444ZM19.3334 13.6667C19.3334 13.9733 19.0845 14.2222 18.7778 14.2222H14.3334C14.0267 14.2222 13.7778 13.9733 13.7778 13.6667C13.7778 13.36 14.0267 13.1111 14.3334 13.1111H18.7778C19.0845 13.1111 19.3334 13.36 19.3334 13.6667ZM26.0001 15.8889C26.0001 16.1956 25.7517 16.4444 25.4445 16.4444H14.3334C14.0267 16.4444 13.7778 16.1956 13.7778 15.8889C13.7778 15.5822 14.0267 15.3333 14.3334 15.3333H25.4445C25.7517 15.3333 26.0001 15.5822 26.0001 15.8889ZM26.0001 18.1111C26.0001 18.4183 25.7517 18.6667 25.4445 18.6667H14.3334C14.0267 18.6667 13.7778 18.4183 13.7778 18.1111C13.7778 17.8039 14.0267 17.5556 14.3334 17.5556H25.4445C25.7517 17.5556 26.0001 17.8039 26.0001 18.1111ZM26.0001 20.3333C26.0001 20.6406 25.7517 20.8889 25.4445 20.8889H14.3334C14.0267 20.8889 13.7778 20.6406 13.7778 20.3333C13.7778 20.0261 14.0267 19.7778 14.3334 19.7778H25.4445C25.7517 19.7778 26.0001 20.0261 26.0001 20.3333ZM26.0001 22.5556C26.0001 22.8628 25.7517 23.1111 25.4445 23.1111H14.3334C14.0267 23.1111 13.7778 22.8628 13.7778 22.5556C13.7778 22.2483 14.0267 22 14.3334 22H25.4445C25.7517 22 26.0001 22.2483 26.0001 22.5556Z" fill="#B3BDC4"/>
<path d="M28.2223 17.5561C28.2223 17.5561 24.9415 17.5551 24.9254 17.5561C24.7638 17.5561 24.4199 17.6431 24.2283 17.8591L22.9351 19.3233C22.5773 19.7277 22.5773 20.3826 22.9351 20.788L24.2283 22.2523C24.4199 22.4682 24.7638 22.5552 24.9254 22.5552C24.936 22.5562 26.8958 22.5552 28.2223 22.5552V17.5561Z" fill="#66757F"/>
<path d="M29.3333 17.5557C29.3333 17.5557 24.8578 17.5546 24.8422 17.5557C24.6805 17.5557 24.3367 17.6329 24.145 17.8251L22.8517 19.1262C22.4944 19.4857 22.4944 20.0679 22.8517 20.4284L24.145 21.7296C24.3367 21.9218 24.6805 22.0001 24.8422 22.0001C24.8578 22.0012 29.3333 22.0001 29.3333 22.0001C29.9467 22.0001 30.4444 21.5018 30.4444 20.8884V18.6668C30.4444 18.0534 29.9467 17.5557 29.3333 17.5557Z" fill="#FF4242"/>
</svg>
