<svg width="60" height="60" viewBox="0 0 60 60" fill="none" xmlns="http://www.w3.org/2000/svg">
<circle cx="30" cy="30" r="30" fill="#F5F8FF"/>
<path d="M25.3336 43.0658L28.1336 40.2658H40.0669C41.7238 40.2658 43.0669 38.9226 43.0669 37.2658V22.7324C43.0669 21.0756 41.7238 19.7324 40.0669 19.7324H19.9336C18.2767 19.7324 16.9336 21.0756 16.9336 22.7324V37.2658C16.9336 38.9226 18.2767 40.2658 19.9336 40.2658H22.5336" stroke="#111827" stroke-linecap="round"/>
<path fill-rule="evenodd" clip-rule="evenodd" d="M26.734 28.132C27.5072 28.132 28.134 27.5052 28.134 26.732C28.134 25.9588 27.5072 25.332 26.734 25.332C25.9608 25.332 25.334 25.9588 25.334 26.732C25.334 27.5052 25.9608 28.132 26.734 28.132Z" fill="#111827"/>
<path fill-rule="evenodd" clip-rule="evenodd" d="M33.2672 34.6652C34.0404 34.6652 34.6672 34.0384 34.6672 33.2652C34.6672 32.492 34.0404 31.8652 33.2672 31.8652C32.494 31.8652 31.8672 32.492 31.8672 33.2652C31.8672 34.0384 32.494 34.6652 33.2672 34.6652Z" fill="#111827"/>
<path d="M26.2676 33.7323L33.7342 26.2656" stroke="#111827" stroke-linecap="round"/>
</svg>
