<svg width="148" height="122" viewBox="0 0 148 122" fill="none" xmlns="http://www.w3.org/2000/svg">
<path d="M76.1128 108.179C102.115 108.179 123.194 87.1366 123.194 61.1795C123.194 35.2225 102.115 14.1802 76.1128 14.1802C50.1104 14.1802 29.0312 35.2225 29.0312 61.1795C29.0312 87.1366 50.1104 108.179 76.1128 108.179Z" fill="#EAEEF9"/>
<path d="M34.9667 106.44L36.0324 107.074C36.2989 107.179 36.5653 106.968 36.4321 106.757L35.8992 105.806C35.6328 105.489 35.766 105.066 36.0324 104.644L36.8318 103.799C36.965 103.587 36.6985 103.376 36.4321 103.482L35.2331 103.904C34.8335 104.116 34.3006 104.01 33.7677 103.799L32.7019 103.165C32.4355 103.059 32.1691 103.27 32.3023 103.482L32.8352 104.433C33.1016 104.75 32.9684 105.172 32.7019 105.595L31.9026 106.44C31.7694 106.651 32.0358 106.862 32.3023 106.757L33.5013 106.334C33.9009 106.123 34.4338 106.229 34.9667 106.44Z" fill="#AFB6C7"/>
<path d="M55.6355 13.7689C55.6851 13.0338 55.1257 12.402 54.3861 12.3579C53.6465 12.3137 53.0066 12.8738 52.957 13.6089C52.9074 14.344 53.4668 14.9757 54.2064 15.0199C54.946 15.0641 55.5859 14.5039 55.6355 13.7689Z" fill="#EAEEF9"/>
<path d="M77.648 7.86459C77.9729 6.95879 77.4865 5.95039 76.5617 5.61228C75.6369 5.27416 74.6239 5.73436 74.2991 6.64017C73.9743 7.54597 74.4606 8.55437 75.3854 8.89248C76.3102 9.2306 77.3232 8.7704 77.648 7.86459Z" fill="#AFB6C7"/>
<path d="M131.09 72.7192C132.838 72.1593 133.794 70.3091 133.226 68.5866C132.658 66.8641 130.78 65.9215 129.032 66.4814C127.284 67.0413 126.328 68.8915 126.896 70.614C127.464 72.3365 129.342 73.2791 131.09 72.7192Z" fill="#EAEEF9"/>
<path opacity="0.8" d="M35.454 36.2855C36.0542 36.2855 36.5408 35.7998 36.5408 35.2006C36.5408 34.6014 36.0542 34.1157 35.454 34.1157C34.8538 34.1157 34.3672 34.6014 34.3672 35.2006C34.3672 35.7998 34.8538 36.2855 35.454 36.2855Z" fill="white"/>
<path opacity="0.5" d="M38.5516 36.2855C39.1518 36.2855 39.6384 35.7998 39.6384 35.2006C39.6384 34.6014 39.1518 34.1157 38.5516 34.1157C37.9514 34.1157 37.4648 34.6014 37.4648 35.2006C37.4648 35.7998 37.9514 36.2855 38.5516 36.2855Z" fill="white"/>
<path opacity="0.2" d="M41.6415 36.2855C42.2417 36.2855 42.7283 35.7998 42.7283 35.2006C42.7283 34.6014 42.2417 34.1157 41.6415 34.1157C41.0413 34.1157 40.5547 34.6014 40.5547 35.2006C40.5547 35.7998 41.0413 36.2855 41.6415 36.2855Z" fill="white"/>
<g filter="url(#filter0_d_3653_20665)">
<path d="M124.988 94.0344H97.9016C97.1493 94.0344 96.4805 93.4502 96.4805 92.6157V83.6028C96.4805 82.8517 97.0657 82.1841 97.9016 82.1841H124.988C125.74 82.1841 126.409 82.7683 126.409 83.6028V92.6157C126.325 93.4502 125.74 94.0344 124.988 94.0344Z" fill="white"/>
</g>
<path d="M121.229 86.8574H102.002C101.667 86.8574 101.5 86.607 101.5 86.3567C101.5 86.0229 101.751 85.856 102.002 85.856H121.146C121.48 85.856 121.647 86.1063 121.647 86.3567C121.731 86.607 121.48 86.8574 121.229 86.8574Z" fill="url(#paint0_linear_3653_20665)"/>
<path d="M114.541 90.7798H102.002C101.667 90.7798 101.5 90.5294 101.5 90.279C101.5 89.9452 101.751 89.7783 102.002 89.7783H114.541C114.876 89.7783 115.043 90.0287 115.043 90.279C115.043 90.5294 114.792 90.7798 114.541 90.7798Z" fill="url(#paint1_linear_3653_20665)"/>
<g filter="url(#filter1_d_3653_20665)">
<path d="M63.6145 18.9989L75.8335 80.2191C76.1817 81.9637 75.0367 83.6756 73.289 84.0232L31.6627 92.3024C29.9151 92.65 28.2003 91.507 27.852 89.7623L15.6331 28.5421C15.2849 26.7975 16.4299 25.0857 18.1776 24.7381L59.8038 16.4589C61.5515 16.1113 63.2663 17.2543 63.6145 18.9989Z" fill="white"/>
</g>
<path d="M23.607 53.1754L22.0977 53.4756L22.3984 54.9823L23.9077 54.6821L23.607 53.1754Z" fill="#EAEEF9"/>
<path d="M23.0015 50.1622L21.4922 50.4624L21.7929 51.9691L23.3023 51.6689L23.0015 50.1622Z" fill="#EAEEF9"/>
<path d="M22.4 47.1485L20.8906 47.4487L21.1914 48.9554L22.7007 48.6552L22.4 47.1485Z" fill="#EAEEF9"/>
<path d="M20.6148 38.1881L19.1055 38.4883L19.4062 39.995L20.9155 39.6948L20.6148 38.1881Z" fill="#F3F5FA"/>
<path d="M27.2906 55.4937L25.7812 55.7939L26.082 57.3007L27.5913 57.0005L27.2906 55.4937Z" fill="#EAEEF9"/>
<path d="M26.7047 52.5597L25.1953 52.8599L25.496 54.3666L27.0054 54.0664L26.7047 52.5597Z" fill="#EAEEF9"/>
<path d="M24.9156 43.5982L23.4062 43.8984L23.707 45.4052L25.2163 45.1049L24.9156 43.5982Z" fill="#EAEEF9"/>
<path d="M30.3883 54.877L28.8789 55.1772L29.1796 56.684L30.689 56.3838L30.3883 54.877Z" fill="#EAEEF9"/>
<path d="M29.2008 48.9298L27.6914 49.23L27.9921 50.7367L29.5015 50.4365L29.2008 48.9298Z" fill="#EAEEF9"/>
<path d="M28.5992 45.9161L27.0898 46.2163L27.3906 47.723L28.8999 47.4228L28.5992 45.9161Z" fill="#EAEEF9"/>
<path d="M27.4156 39.9693L25.9062 40.2695L26.207 41.7762L27.7163 41.476L27.4156 39.9693Z" fill="#F3F5FA"/>
<path d="M26.8101 36.9552L25.3008 37.2554L25.6015 38.7621L27.1109 38.4619L26.8101 36.9552Z" fill="#EAEEF9"/>
<path d="M25.6226 31.0074L24.1133 31.3076L24.414 32.8143L25.9234 32.5141L25.6226 31.0074Z" fill="#EAEEF9"/>
<path d="M25.0211 27.9947L23.5117 28.2949L23.8124 29.8016L25.3218 29.5014L25.0211 27.9947Z" fill="#F3F5FA"/>
<path d="M32.9 51.3272L31.3906 51.6274L31.6913 53.1342L33.2007 52.834L32.9 51.3272Z" fill="#EAEEF9"/>
<path d="M32.3023 48.3136L30.793 48.6138L31.0937 50.1205L32.603 49.8203L32.3023 48.3136Z" fill="#EAEEF9"/>
<path d="M30.5094 39.3521L29 39.6523L29.3007 41.1591L30.8101 40.8589L30.5094 39.3521Z" fill="#F3F5FA"/>
<path d="M29.3219 33.4044L27.8125 33.7046L28.1132 35.2113L29.6226 34.9111L29.3219 33.4044Z" fill="#EAEEF9"/>
<path d="M36.5836 53.6446L35.0742 53.9448L35.3749 55.4515L36.8843 55.1513L36.5836 53.6446Z" fill="#EAEEF9"/>
<path d="M35.9976 50.711L34.4883 51.0112L34.789 52.5179L36.2984 52.2177L35.9976 50.711Z" fill="#EAEEF9"/>
<path d="M34.2086 41.7501L32.6992 42.0503L32.9999 43.557L34.5093 43.2568L34.2086 41.7501Z" fill="#EAEEF9"/>
<path d="M33.0054 35.7227L31.4961 36.0229L31.7968 37.5297L33.3062 37.2295L33.0054 35.7227Z" fill="#F3F5FA"/>
<path d="M39.6851 53.0284L38.1758 53.3286L38.4765 54.8353L39.9859 54.5351L39.6851 53.0284Z" fill="#EAEEF9"/>
<path d="M39.0992 50.0948L37.5898 50.395L37.8906 51.9017L39.3999 51.6015L39.0992 50.0948Z" fill="#EAEEF9"/>
<path d="M38.4937 47.0811L36.9844 47.3813L37.2851 48.8881L38.7945 48.5879L38.4937 47.0811Z" fill="#EAEEF9"/>
<path d="M37.8961 44.0675L36.3867 44.3677L36.6874 45.8744L38.1968 45.5742L37.8961 44.0675Z" fill="#EAEEF9"/>
<path d="M37.3101 41.1334L35.8008 41.4336L36.1015 42.9403L37.6109 42.6401L37.3101 41.1334Z" fill="#EAEEF9"/>
<path d="M36.7047 38.1197L35.1953 38.4199L35.496 39.9266L37.0054 39.6264L36.7047 38.1197Z" fill="#EAEEF9"/>
<path d="M34.9195 29.1593L33.4102 29.4595L33.7109 30.9662L35.2202 30.666L34.9195 29.1593Z" fill="#EAEEF9"/>
<path d="M42.7828 52.4127L41.2734 52.7129L41.5742 54.2196L43.0835 53.9194L42.7828 52.4127Z" fill="#EAEEF9"/>
<path d="M42.1969 49.4786L40.6875 49.7788L40.9882 51.2855L42.4976 50.9853L42.1969 49.4786Z" fill="#EAEEF9"/>
<path d="M41.5914 46.4654L40.082 46.7656L40.3828 48.2723L41.8921 47.9721L41.5914 46.4654Z" fill="#EAEEF9"/>
<path d="M40.4078 40.5177L38.8984 40.8179L39.1992 42.3246L40.7085 42.0244L40.4078 40.5177Z" fill="#EAEEF9"/>
<path d="M39.8023 37.504L38.293 37.8042L38.5937 39.3109L40.103 39.0107L39.8023 37.504Z" fill="#F3F5FA"/>
<path d="M45.8804 51.7965L44.3711 52.0967L44.6718 53.6034L46.1812 53.3032L45.8804 51.7965Z" fill="url(#paint2_linear_3653_20665)"/>
<path d="M45.2906 48.8624L43.7812 49.1626L44.082 50.6693L45.5913 50.3691L45.2906 48.8624Z" fill="#EAEEF9"/>
<path d="M44.689 45.8487L43.1797 46.1489L43.4804 47.6556L44.9898 47.3554L44.689 45.8487Z" fill="#EAEEF9"/>
<path d="M44.0914 42.8346L42.582 43.1348L42.8828 44.6415L44.3921 44.3413L44.0914 42.8346Z" fill="#F3F5FA"/>
<path d="M43.5015 39.901L41.9922 40.2012L42.2929 41.7079L43.8023 41.4077L43.5015 39.901Z" fill="#EAEEF9"/>
<path d="M42.3023 33.8746L40.793 34.1748L41.0937 35.6815L42.603 35.3813L42.3023 33.8746Z" fill="#EAEEF9"/>
<path d="M49.0601 51.1642L47.5508 51.4644L47.8515 52.9711L49.3609 52.6709L49.0601 51.1642Z" fill="#EAEEF9"/>
<path d="M48.4703 48.2306L46.9609 48.5308L47.2617 50.0375L48.771 49.7373L48.4703 48.2306Z" fill="#EAEEF9"/>
<path d="M47.8687 45.2164L46.3594 45.5166L46.6601 47.0233L48.1694 46.7231L47.8687 45.2164Z" fill="url(#paint3_linear_3653_20665)"/>
<path d="M47.2672 42.2032L45.7578 42.5034L46.0585 44.0101L47.5679 43.7099L47.2672 42.2032Z" fill="#EAEEF9"/>
<path d="M46.6812 39.2696L45.1719 39.5698L45.4726 41.0765L46.9819 40.7763L46.6812 39.2696Z" fill="#EAEEF9"/>
<path d="M46.0797 36.2555L44.5703 36.5557L44.871 38.0624L46.3804 37.7622L46.0797 36.2555Z" fill="#EAEEF9"/>
<path d="M52.1539 50.5479L50.6445 50.8481L50.9453 52.3549L52.4546 52.0547L52.1539 50.5479Z" fill="#EAEEF9"/>
<path d="M51.5679 47.6139L50.0586 47.9141L50.3593 49.4208L51.8687 49.1206L51.5679 47.6139Z" fill="#EAEEF9"/>
<path d="M50.9664 44.6007L49.457 44.9009L49.7578 46.4076L51.2671 46.1074L50.9664 44.6007Z" fill="#EAEEF9"/>
<path d="M49.7789 38.6534L48.2695 38.9536L48.5703 40.4603L50.0796 40.1601L49.7789 38.6534Z" fill="#F3F5FA"/>
<path d="M48.5758 32.6261L47.0664 32.9263L47.3671 34.433L48.8765 34.1328L48.5758 32.6261Z" fill="#EAEEF9"/>
<path d="M46.7867 23.6651L45.2773 23.9653L45.5781 25.472L47.0874 25.1718L46.7867 23.6651Z" fill="#F3F5FA"/>
<path d="M54.6656 46.9977L53.1562 47.2979L53.457 48.8046L54.9663 48.5044L54.6656 46.9977Z" fill="#EAEEF9"/>
<path d="M54.064 43.9845L52.5547 44.2847L52.8554 45.7914L54.3648 45.4912L54.064 43.9845Z" fill="#F3F5FA"/>
<path d="M53.4625 40.9708L51.9531 41.271L52.2539 42.7777L53.7632 42.4775L53.4625 40.9708Z" fill="#EAEEF9"/>
<path d="M51.0875 29.0758L49.5781 29.376L49.8789 30.8827L51.3882 30.5825L51.0875 29.0758Z" fill="#EAEEF9"/>
<path d="M58.3492 49.3155L56.8398 49.6157L57.1406 51.1224L58.6499 50.8222L58.3492 49.3155Z" fill="#EAEEF9"/>
<path d="M57.1656 43.3687L55.6562 43.6689L55.957 45.1757L57.4663 44.8755L57.1656 43.3687Z" fill="#EAEEF9"/>
<path d="M55.9781 37.421L54.4688 37.7212L54.7695 39.2279L56.2788 38.9277L55.9781 37.421Z" fill="#EAEEF9"/>
<path d="M55.3765 34.4068L53.8672 34.707L54.1679 36.2137L55.6773 35.9135L55.3765 34.4068Z" fill="#F3F5FA"/>
<path d="M61.4469 48.6998L59.9375 49L60.2382 50.5067L61.7476 50.2065L61.4469 48.6998Z" fill="#EAEEF9"/>
<path d="M59.6617 39.7384L58.1523 40.0386L58.4531 41.5453L59.9624 41.2451L59.6617 39.7384Z" fill="#F3F5FA"/>
<path d="M58.4742 33.7906L56.9648 34.0908L57.2656 35.5975L58.7749 35.2973L58.4742 33.7906Z" fill="#EAEEF9"/>
<path d="M64.5445 48.0836L63.0352 48.3838L63.3359 49.8905L64.8452 49.5903L64.5445 48.0836Z" fill="#EAEEF9"/>
<path d="M63.9586 45.149L62.4492 45.4492L62.7499 46.9559L64.2593 46.6557L63.9586 45.149Z" fill="#EAEEF9"/>
<path d="M63.3609 42.1358L61.8516 42.436L62.1523 43.9427L63.6616 43.6425L63.3609 42.1358Z" fill="#EAEEF9"/>
<path d="M62.7594 39.1222L61.25 39.4224L61.5507 40.9291L63.0601 40.6289L62.7594 39.1222Z" fill="#EAEEF9"/>
<path d="M62.1734 36.1881L60.6641 36.4883L60.9648 37.995L62.4741 37.6948L62.1734 36.1881Z" fill="#F3F5FA"/>
<path d="M60.3844 27.2276L58.875 27.5278L59.1757 29.0345L60.6851 28.7343L60.3844 27.2276Z" fill="#EAEEF9"/>
<path d="M67.65 47.4674L66.1406 47.7676L66.4413 49.2743L67.9507 48.9741L67.65 47.4674Z" fill="#EAEEF9"/>
<path d="M66.4586 41.5191L64.9492 41.8193L65.2499 43.326L66.7593 43.0258L66.4586 41.5191Z" fill="#EAEEF9"/>
<path d="M65.8609 38.5064L64.3516 38.8066L64.6523 40.3134L66.1616 40.0132L65.8609 38.5064Z" fill="#F3F5FA"/>
<path d="M68.2914 58.2851L69.8008 57.9849L69.5001 56.4782L67.9907 56.7783L68.2914 58.2851Z" fill="#EAEEF9"/>
<path d="M67.6821 55.2489L69.1914 54.9487L68.8907 53.442L67.3813 53.7422L67.6821 55.2489Z" fill="#EAEEF9"/>
<path d="M67.0922 52.2919L68.6016 51.9917L68.3008 50.485L66.7915 50.7852L67.0922 52.2919Z" fill="#EAEEF9"/>
<path d="M65.768 61.8617L67.2773 61.5615L66.9766 60.0548L65.4673 60.355L65.768 61.8617Z" fill="#EAEEF9"/>
<path d="M65.1742 58.9047L66.6836 58.6045L66.3829 57.0978L64.8735 57.398L65.1742 58.9047Z" fill="#EAEEF9"/>
<path d="M63.9789 52.912L65.4883 52.6118L65.1876 51.1051L63.6782 51.4053L63.9789 52.912Z" fill="#EAEEF9"/>
<path d="M62.6508 62.4818L64.1602 62.1816L63.8594 60.6749L62.3501 60.9751L62.6508 62.4818Z" fill="#EAEEF9"/>
<path d="M62.061 59.5248L63.5703 59.2246L63.2696 57.7179L61.7602 58.0181L62.061 59.5248Z" fill="#EAEEF9"/>
<path d="M61.4516 56.4882L62.9609 56.188L62.6602 54.6813L61.1509 54.9815L61.4516 56.4882Z" fill="#EAEEF9"/>
<path d="M60.8617 53.5321L62.3711 53.2319L62.0704 51.7252L60.561 52.0254L60.8617 53.5321Z" fill="#EAEEF9"/>
<path d="M59.5297 63.102L61.0391 62.8018L60.7383 61.295L59.229 61.5952L59.5297 63.102Z" fill="#EAEEF9"/>
<path d="M58.9438 60.1444L60.4531 59.8442L60.1524 58.3375L58.643 58.6377L58.9438 60.1444Z" fill="#EAEEF9"/>
<path d="M58.3344 57.1083L59.8438 56.8081L59.543 55.3014L58.0337 55.6016L58.3344 57.1083Z" fill="#EAEEF9"/>
<path d="M57.7485 54.1518L59.2578 53.8516L58.9571 52.3448L57.4477 52.6451L57.7485 54.1518Z" fill="#EAEEF9"/>
<path d="M56.4164 63.7221L57.9258 63.4219L57.6251 61.9152L56.1157 62.2154L56.4164 63.7221Z" fill="#EAEEF9"/>
<path d="M55.8227 60.7646L57.332 60.4644L57.0313 58.9576L55.522 59.2578L55.8227 60.7646Z" fill="#EAEEF9"/>
<path d="M55.2211 57.7284L56.7305 57.4282L56.4297 55.9215L54.9204 56.2217L55.2211 57.7284Z" fill="#EAEEF9"/>
<path d="M53.2953 64.3422L54.8047 64.042L54.504 62.5353L52.9946 62.8355L53.2953 64.3422Z" fill="#EAEEF9"/>
<path d="M52.7016 61.3842L54.2109 61.084L53.9102 59.5773L52.4009 59.8775L52.7016 61.3842Z" fill="#EAEEF9"/>
<path d="M52.1 58.3485L53.6094 58.0483L53.3086 56.5416L51.7993 56.8418L52.1 58.3485Z" fill="#EAEEF9"/>
<path d="M51.5102 55.392L53.0195 55.0918L52.7188 53.5851L51.2095 53.8853L51.5102 55.392Z" fill="#EAEEF9"/>
<path d="M50.1782 64.9618L51.6875 64.6616L51.3868 63.1549L49.8774 63.4551L50.1782 64.9618Z" fill="#EAEEF9"/>
<path d="M49.5883 62.0048L51.0977 61.7046L50.7969 60.1979L49.2876 60.4981L49.5883 62.0048Z" fill="#EAEEF9"/>
<path d="M48.9789 58.9687L50.4883 58.6685L50.1876 57.1617L48.6782 57.4619L48.9789 58.9687Z" fill="#EAEEF9"/>
<path d="M47.0585 65.5775L48.6473 65.2615L48.3466 63.7548L46.7578 64.0708L47.0585 65.5775Z" fill="url(#paint4_linear_3653_20665)"/>
<path d="M46.5492 62.6093L48.0586 62.3091L47.7579 60.8024L46.2485 61.1026L46.5492 62.6093Z" fill="#EAEEF9"/>
<path d="M45.9477 59.5731L47.457 59.2729L47.1563 57.7662L45.647 58.0664L45.9477 59.5731Z" fill="#EAEEF9"/>
<path d="M45.3539 56.6156L46.8633 56.3154L46.5626 54.8087L45.0532 55.1089L45.3539 56.6156Z" fill="#F3F5FA"/>
<path d="M44.0258 66.1864L45.5352 65.8862L45.2344 64.3795L43.7251 64.6797L44.0258 66.1864Z" fill="#EAEEF9"/>
<path d="M43.4281 63.2289L44.9375 62.9287L44.6368 61.422L43.1274 61.7222L43.4281 63.2289Z" fill="#EAEEF9"/>
<path d="M42.7734 60.246L44.2827 59.9458L43.982 58.4391L42.4727 58.7393L42.7734 60.246Z" fill="url(#paint5_linear_3653_20665)"/>
<path d="M42.2328 57.2357L43.7422 56.9355L43.4415 55.4288L41.9321 55.729L42.2328 57.2357Z" fill="#EAEEF9"/>
<path d="M40.9047 66.8056L42.4141 66.5054L42.1133 64.9987L40.604 65.2989L40.9047 66.8056Z" fill="#EAEEF9"/>
<path d="M40.3149 63.8495L41.8242 63.5493L41.5235 62.0426L40.0141 62.3428L40.3149 63.8495Z" fill="#EAEEF9"/>
<path d="M39.7055 60.8129L41.2148 60.5127L40.9141 59.006L39.4048 59.3062L39.7055 60.8129Z" fill="#EAEEF9"/>
<path d="M37.1977 64.4691L38.707 64.1689L38.4063 62.6622L36.897 62.9624L37.1977 64.4691Z" fill="#EAEEF9"/>
<path d="M36.5922 61.433L38.1016 61.1328L37.8008 59.6261L36.2915 59.9263L36.5922 61.433Z" fill="#F3F5FA"/>
<path d="M35.9985 58.4755L37.5078 58.1753L37.2071 56.6686L35.6977 56.9688L35.9985 58.4755Z" fill="#EAEEF9"/>
<path d="M34.6742 68.0458L36.1836 67.7456L35.8829 66.2389L34.3735 66.5391L34.6742 68.0458Z" fill="#EAEEF9"/>
<path d="M33.475 62.0526L34.9844 61.7524L34.6836 60.2457L33.1743 60.5459L33.475 62.0526Z" fill="#EAEEF9"/>
<path d="M31.5571 68.6664L33.0664 68.3662L32.7657 66.8595L31.2563 67.1597L31.5571 68.6664Z" fill="#EAEEF9"/>
<path d="M29.768 59.7162L31.2773 59.416L30.9766 57.9093L29.4673 58.2095L29.768 59.7162Z" fill="#F3F5FA"/>
<path d="M28.436 69.286L29.9453 68.9858L29.6446 67.4791L28.1352 67.7793L28.436 69.286Z" fill="#EAEEF9"/>
<path d="M27.85 66.3285L29.3594 66.0283L29.0587 64.5216L27.5493 64.8218L27.85 66.3285Z" fill="#EAEEF9"/>
<path d="M27.2407 63.2929L28.75 62.9927L28.4493 61.486L26.9399 61.7862L27.2407 63.2929Z" fill="#EAEEF9"/>
<path d="M25.3227 69.9062L26.832 69.606L26.5313 68.0992L25.022 68.3994L25.3227 69.9062Z" fill="#EAEEF9"/>
<path d="M24.1274 63.913L25.6367 63.6128L25.336 62.1061L23.8266 62.4063L24.1274 63.913Z" fill="#EAEEF9"/>
<path d="M23.5336 60.956L25.043 60.6558L24.7422 59.149L23.2329 59.4492L23.5336 60.956Z" fill="#F3F5FA"/>
<path d="M61.4942 62.956C61.4625 62.7974 61.3356 62.5753 61.2245 62.4325C61.0818 62.1311 60.9549 61.909 60.8279 61.6869C60.701 61.4648 60.5899 61.322 60.4788 61.1792C59.352 59.6719 57.7645 58.3386 55.8427 57.8139C54.8897 57.5912 53.8731 57.4636 52.8404 57.669C52.5227 57.7322 52.2843 57.7796 52.046 57.827C51.3311 57.9692 50.8386 57.9847 50.5845 57.9528C50.1714 57.9525 50.0603 57.8097 50.0603 57.8097L49.4747 54.8756C50.2697 53.893 50.9058 52.942 51.4309 51.8482C51.8764 50.7702 52.2268 49.6287 52.2435 48.4711C53.3082 48.0119 53.8968 46.823 53.5005 45.6651C53.3103 45.1258 52.9134 44.7925 52.8026 44.2374C52.7551 43.9995 52.6918 43.6823 52.6443 43.4444C52.6126 43.2858 52.581 43.1272 52.5335 42.8893C52.5019 42.7307 52.4702 42.5721 52.3433 42.35C52.1372 41.7314 51.8359 41.0493 51.3599 40.3195C51.2329 40.0974 51.0266 39.8911 50.8996 39.669C48.9316 37.2571 45.7077 36.002 42.4507 36.6498C41.8152 36.7762 41.1955 36.9819 40.5917 37.2669C39.527 37.726 38.5256 38.5023 37.7148 39.4056C37.5876 39.5958 37.3809 39.8018 37.2537 39.992C37.2537 39.992 37.1901 40.0871 37.1106 40.1029C36.2679 41.26 35.7109 42.6075 35.5828 44.0346C35.3752 45.4775 35.5648 46.8414 36.0086 48.2372L36.0244 48.3165L36.0403 48.3958C36.0877 48.6337 36.1672 48.6179 36.0399 48.8081C35.9763 48.9032 35.9922 48.9825 35.9286 49.0776C35.7694 49.5215 35.7213 50.1082 36.0862 50.6952C36.7208 51.8058 37.563 51.4734 38.5793 52.0133C38.4999 52.0291 38.5157 52.1084 38.4362 52.1242L37.4827 52.7261C34.2089 54.5315 33.2535 57.6072 34.5547 59.5745C34.7611 59.7808 34.9038 60.0822 35.1896 60.2727C35.9834 60.9393 37.1428 61.3683 38.7154 61.3853C38.3182 61.4643 37.9685 61.7813 37.7777 62.0666C36.2991 63.7623 35.6143 66.1246 35.708 68.2496C35.7552 68.8998 36.3426 69.3601 36.9782 69.2337L60.6511 64.5253C61.3502 64.3038 61.7797 63.5588 61.4942 62.956ZM40.7218 54.8851C41.0234 55.1549 41.325 55.4247 41.7061 55.6787C41.9919 55.8692 42.2619 55.9804 42.6271 56.1551C42.8176 56.2821 43.0718 56.314 43.2623 56.441L43.3576 56.5045C43.437 56.4887 43.4528 56.568 43.5481 56.6315L43.8963 58.3761L43.8011 58.3126C43.6105 58.1856 43.42 58.0586 43.2453 58.0109C42.9753 57.8997 42.6259 57.8043 42.3559 57.6931C42.2607 57.6296 42.1812 57.6454 42.0859 57.5819C41.1966 57.2641 40.2914 56.867 40.1806 56.3119C40.1015 55.9154 40.2606 55.4715 40.7218 54.8851Z" fill="#EAEEF9"/>
<path d="M52.0876 48.502C52.0867 49.7389 51.8158 50.8646 51.275 51.8791C50.7499 52.973 50.1138 53.924 49.3188 54.9066L49.5721 56.1754L46.315 56.8232L43.3711 42.0732L51.1562 40.5248C51.6322 41.2546 51.9177 41.8575 52.1396 42.5554C52.1712 42.714 52.2187 42.9519 52.3298 43.0947C52.3615 43.2533 52.3931 43.4119 52.4406 43.6498C52.4881 43.8877 52.5514 44.2049 52.5989 44.4428C52.7097 44.9979 53.1066 45.3312 53.2968 45.8705C53.7409 46.854 53.2317 48.0271 52.0876 48.502Z" fill="#E3E7F5"/>
<path d="M61.685 63.0833C61.1125 63.9392 59.9687 64.0018 59.2851 64.7149L37.042 69.1389C36.4859 69.2495 36.0096 68.932 35.8352 68.472C35.8194 68.3927 35.7877 68.2341 35.7719 68.1548C35.6781 66.0298 36.3788 63.7468 37.8415 61.9718C38.0324 61.6865 38.3979 61.4489 38.7793 61.2906C37.2066 61.2736 36.0473 60.8445 35.2535 60.1779C34.9677 59.9874 34.8408 59.7653 34.6186 59.4797L40.2588 58.3579L40.5604 58.6277C42.1796 60.1196 44.3714 60.7555 46.5163 60.3289C48.105 60.0129 49.583 59.1418 50.5689 57.8738C50.823 57.9057 51.1408 57.8425 51.6332 57.827C51.7921 57.7954 51.8716 57.7796 52.0304 57.748C52.2688 57.7006 52.5071 57.6532 52.8248 57.59C53.8575 57.3846 54.8741 57.5122 55.8271 57.735C57.7489 58.2597 59.4159 59.5771 60.4632 61.1002C60.5743 61.243 60.7013 61.4651 60.8124 61.6079C60.9551 61.9093 61.5581 62.8612 61.685 63.0833Z" fill="white"/>
<path d="M61.6882 63.0831C61.1157 63.939 59.9719 64.0016 59.2883 64.7147L37.2835 69.0913C36.7594 68.9482 36.2989 68.71 35.759 68.4876C35.7431 68.4083 35.7115 68.2497 35.6956 68.1704C35.6019 66.0454 36.3025 63.7624 37.7653 61.9873C37.9561 61.702 38.3217 61.4644 38.703 61.3061C37.1304 61.2891 35.971 60.8601 35.1772 60.1935L39.9436 59.2455C41.6739 60.8801 44.1357 61.6273 46.5983 61.1375C48.7432 60.7109 50.3962 59.4751 51.5412 57.7633C51.7 57.7317 51.7795 57.7159 51.9384 57.6843C52.1767 57.6369 52.415 57.5895 52.7328 57.5263C53.7655 57.3209 54.7821 57.4485 55.735 57.6712C57.6568 58.1959 59.3238 59.5134 60.3712 61.0365C60.4823 61.1793 60.6092 61.4014 60.7203 61.5442C60.9583 61.9091 61.5612 62.861 61.6882 63.0831Z" fill="#989EA5"/>
<path d="M49.4765 54.8754C49.3971 54.8912 49.3971 54.8912 49.4765 54.8754L50.0302 58.0632L42.1337 59.8811L42.0877 57.5817C42.183 57.6452 42.2624 57.6294 42.3577 57.6929C42.6277 57.8041 42.9771 57.8995 43.2471 58.0107C43.4218 58.0584 43.6123 58.1854 43.8028 58.3124L43.8981 58.3759L43.5499 56.6313C43.4705 56.6471 43.4546 56.5678 43.3752 56.5836C45.1064 56.9813 47.0921 56.9986 49.4765 54.8754Z" fill="url(#paint6_linear_3653_20665)"/>
<path d="M52.3887 43.0001C50.9107 43.8712 49.2741 44.3616 47.5901 44.6141C44.9211 44.8976 42.1733 44.3723 39.8391 43.0226C39.6629 45.0365 38.2795 46.7957 36.6107 47.9521C36.3882 48.0788 36.1816 48.2848 35.9591 48.4115L35.9432 48.3322C35.5153 47.0157 35.3098 45.5724 35.5174 44.1295C35.725 42.6866 36.2025 41.3549 37.0453 40.1979C37.1089 40.1028 37.1089 40.1028 37.1883 40.087C37.3156 39.8968 37.5222 39.6908 37.6495 39.5006C38.4603 38.5973 39.398 37.9161 40.5421 37.4412C41.146 37.1562 41.7657 36.9505 42.4012 36.8241C45.6582 36.1763 48.8821 37.4314 50.8501 39.8432C51.612 40.7635 52.0402 41.6677 52.2779 42.4449C52.3254 42.6829 52.3571 42.8415 52.3887 43.0001Z" fill="#A4AFBB"/>
<path d="M46.0654 63.4678C45.5246 64.4823 44.2535 64.7351 43.1414 64.9563C44.1114 63.6091 42.6684 60.1034 38.6961 61.3057L38.6167 61.3215C32.8501 61.3966 32.3302 55.4813 37.3997 52.7416L38.2103 52.2506C38.3055 52.3141 38.3055 52.3141 38.4008 52.3776C39.0196 53.4088 39.845 54.234 40.6388 54.9006C38.7786 57.1669 42.0033 57.1851 43.7817 58.233C45.2905 58.7574 47.0357 61.7083 46.0654 63.4678Z" fill="#A4AFBB"/>
<path d="M71.958 60.7908L75.8358 80.2195C76.184 81.9641 75.039 83.6759 73.2913 84.0235L31.665 92.3027C29.9174 92.6503 28.2025 91.5073 27.8543 89.7627L23.9766 70.334L71.958 60.7908Z" fill="white"/>
<path d="M55.651 71.7849L43.2585 74.2497C42.6229 74.3761 42.0513 73.9951 41.9247 73.3607C41.7981 72.7263 42.1798 72.1557 42.8153 72.0293L55.2078 69.5645C55.8433 69.4381 56.415 69.8191 56.5416 70.4535C56.6682 71.0879 56.2865 71.6585 55.651 71.7849Z" fill="#A4AFBB"/>
<path d="M61.6383 75.7055L39.1569 80.177C38.5214 80.3034 37.9498 79.9224 37.8231 79.2879C37.6965 78.6535 38.0782 78.0829 38.7137 77.9565L61.1951 73.4851C61.8306 73.3587 62.4022 73.7397 62.5288 74.3741C62.6554 75.0085 62.2738 75.5791 61.6383 75.7055Z" fill="#E3EAF2"/>
<path d="M55.804 82.0608L46.9863 83.8146C46.5891 83.8936 46.208 83.6395 46.1289 83.243L45.9706 82.45C45.8914 82.0535 46.1459 81.6731 46.5431 81.5941L55.3609 79.8403C55.7581 79.7613 56.1391 80.0153 56.2183 80.4118L56.3765 81.2048C56.4557 81.6013 56.2012 81.9818 55.804 82.0608Z" fill="#E3EAF2"/>
<g filter="url(#filter2_d_3653_20665)">
<path d="M134.466 16.5894L124.207 66.4883C123.915 67.9103 122.503 68.8335 121.069 68.5398L86.9286 61.5451C85.4952 61.2514 84.5617 59.8477 84.854 58.4257L95.113 8.52684C95.4053 7.10485 96.8173 6.18168 98.2507 6.47535L132.392 13.4701C133.825 13.7637 134.758 15.1674 134.466 16.5894Z" fill="white"/>
</g>
<path d="M93.2965 29.5744L92.0586 29.3208L91.8061 30.5489L93.044 30.8025L93.2965 29.5744Z" fill="#EAEEF9"/>
<path d="M93.8043 27.1179L92.5664 26.8643L92.3139 28.0923L93.5518 28.346L93.8043 27.1179Z" fill="#EAEEF9"/>
<path d="M94.3043 24.6618L93.0664 24.4082L92.8139 25.6363L94.0518 25.8899L94.3043 24.6618Z" fill="#EAEEF9"/>
<path d="M95.8082 17.3576L94.5703 17.104L94.3178 18.3321L95.5558 18.5857L95.8082 17.3576Z" fill="#F3F5FA"/>
<path d="M95.3473 32.4865L94.1094 32.2329L93.8569 33.461L95.0948 33.7146L95.3473 32.4865Z" fill="#EAEEF9"/>
<path d="M95.8356 30.0944L94.5977 29.8408L94.3452 31.0689L95.5831 31.3225L95.8356 30.0944Z" fill="#EAEEF9"/>
<path d="M97.3395 22.7912L96.1016 22.5376L95.8491 23.7657L97.087 24.0193L97.3395 22.7912Z" fill="#EAEEF9"/>
<path d="M97.8864 33.007L96.6484 32.7534L96.396 33.9815L97.6339 34.2351L97.8864 33.007Z" fill="#EAEEF9"/>
<path d="M98.8825 28.1589L97.6445 27.9053L97.392 29.1334L98.63 29.387L98.8825 28.1589Z" fill="#EAEEF9"/>
<path d="M99.3903 25.7028L98.1523 25.4492L97.8999 26.6773L99.1378 26.9309L99.3903 25.7028Z" fill="#EAEEF9"/>
<path d="M100.382 20.8557L99.1445 20.6021L98.892 21.8301L100.13 22.0838L100.382 20.8557Z" fill="#F3F5FA"/>
<path d="M100.89 18.3996L99.6523 18.146L99.3999 19.3741L100.638 19.6277L100.89 18.3996Z" fill="#EAEEF9"/>
<path d="M101.886 13.5515L100.648 13.2979L100.396 14.5259L101.634 14.7796L101.886 13.5515Z" fill="#EAEEF9"/>
<path d="M102.394 11.0954L101.156 10.8418L100.904 12.0699L102.142 12.3235L102.394 11.0954Z" fill="#F3F5FA"/>
<path d="M100.922 31.1355L99.6836 30.8818L99.4311 32.1099L100.669 32.3635L100.922 31.1355Z" fill="#EAEEF9"/>
<path d="M101.422 28.6794L100.184 28.4258L99.9311 29.6539L101.169 29.9075L101.422 28.6794Z" fill="#EAEEF9"/>
<path d="M102.925 21.3757L101.688 21.1221L101.435 22.3502L102.673 22.6038L102.925 21.3757Z" fill="#F3F5FA"/>
<path d="M103.922 16.5276L102.684 16.2739L102.431 17.502L103.669 17.7556L103.922 16.5276Z" fill="#EAEEF9"/>
<path d="M103.035 34.0608L101.797 33.8071L101.544 35.0352L102.782 35.2888L103.035 34.0608Z" fill="#EAEEF9"/>
<path d="M103.523 31.6706L102.285 31.417L102.033 32.6451L103.271 32.8987L103.523 31.6706Z" fill="#EAEEF9"/>
<path d="M105.027 24.3654L103.789 24.1118L103.537 25.3399L104.775 25.5935L105.027 24.3654Z" fill="#EAEEF9"/>
<path d="M106.039 19.4538L104.801 19.2002L104.548 20.4283L105.786 20.6819L106.039 19.4538Z" fill="#F3F5FA"/>
<path d="M105.578 34.5817L104.34 34.3281L104.087 35.5562L105.325 35.8098L105.578 34.5817Z" fill="#EAEEF9"/>
<path d="M106.066 32.1906L104.828 31.937L104.576 33.1651L105.814 33.4187L106.066 32.1906Z" fill="#EAEEF9"/>
<path d="M106.57 29.7346L105.332 29.481L105.08 30.709L106.317 30.9627L106.57 29.7346Z" fill="#EAEEF9"/>
<path d="M107.078 27.2785L105.84 27.0249L105.587 28.253L106.825 28.5066L107.078 27.2785Z" fill="#EAEEF9"/>
<path d="M107.566 24.8869L106.328 24.6333L106.076 25.8614L107.314 26.115L107.566 24.8869Z" fill="#EAEEF9"/>
<path d="M108.074 22.4304L106.836 22.1768L106.583 23.4048L107.821 23.6585L108.074 22.4304Z" fill="#EAEEF9"/>
<path d="M109.578 15.1267L108.34 14.873L108.087 16.1011L109.325 16.3548L109.578 15.1267Z" fill="#EAEEF9"/>
<path d="M108.117 35.1027L106.879 34.8491L106.626 36.0772L107.864 36.3308L108.117 35.1027Z" fill="#EAEEF9"/>
<path d="M108.609 32.7111L107.371 32.4575L107.119 33.6856L108.357 33.9392L108.609 32.7111Z" fill="#EAEEF9"/>
<path d="M109.117 30.2546L107.879 30.001L107.626 31.2291L108.864 31.4827L109.117 30.2546Z" fill="#EAEEF9"/>
<path d="M110.109 25.4074L108.871 25.1538L108.619 26.3819L109.857 26.6355L110.109 25.4074Z" fill="#EAEEF9"/>
<path d="M110.613 22.9519L109.375 22.6982L109.123 23.9263L110.36 24.1799L110.613 22.9519Z" fill="#F3F5FA"/>
<path d="M110.656 35.6233L109.418 35.3696L109.165 36.5977L110.403 36.8513L110.656 35.6233Z" fill="url(#paint7_linear_3653_20665)"/>
<path d="M111.148 33.2317L109.91 32.978L109.658 34.2061L110.896 34.4597L111.148 33.2317Z" fill="#EAEEF9"/>
<path d="M111.652 30.7751L110.414 30.5215L110.162 31.7496L111.4 32.0032L111.652 30.7751Z" fill="#EAEEF9"/>
<path d="M112.16 28.3195L110.922 28.0659L110.669 29.294L111.907 29.5476L112.16 28.3195Z" fill="#F3F5FA"/>
<path d="M112.648 25.9279L111.41 25.6743L111.158 26.9024L112.396 27.156L112.648 25.9279Z" fill="#EAEEF9"/>
<path d="M113.664 21.0153L112.426 20.7617L112.173 21.9898L113.411 22.2434L113.664 21.0153Z" fill="#EAEEF9"/>
<path d="M113.203 36.1438L111.965 35.8901L111.712 37.1182L112.95 37.3718L113.203 36.1438Z" fill="#EAEEF9"/>
<path d="M113.687 33.7522L112.449 33.4985L112.197 34.7266L113.435 34.9802L113.687 33.7522Z" fill="#EAEEF9"/>
<path d="M114.195 31.2956L112.957 31.042L112.705 32.2701L113.942 32.5237L114.195 31.2956Z" fill="url(#paint8_linear_3653_20665)"/>
<path d="M114.699 28.8401L113.461 28.5864L113.208 29.8145L114.446 30.0681L114.699 28.8401Z" fill="#EAEEF9"/>
<path d="M115.191 26.4489L113.953 26.1953L113.701 27.4234L114.939 27.677L115.191 26.4489Z" fill="#EAEEF9"/>
<path d="M115.695 23.9924L114.457 23.7388L114.205 24.9668L115.442 25.2205L115.695 23.9924Z" fill="#EAEEF9"/>
<path d="M115.742 36.6648L114.504 36.4111L114.251 37.6392L115.489 37.8928L115.742 36.6648Z" fill="#EAEEF9"/>
<path d="M116.23 34.2732L114.992 34.0195L114.74 35.2476L115.978 35.5012L116.23 34.2732Z" fill="#EAEEF9"/>
<path d="M116.738 31.8166L115.5 31.563L115.248 32.7911L116.485 33.0447L116.738 31.8166Z" fill="#EAEEF9"/>
<path d="M117.73 26.969L116.492 26.7153L116.24 27.9434L117.478 28.197L117.73 26.969Z" fill="#F3F5FA"/>
<path d="M118.746 22.0568L117.508 21.8032L117.255 23.0313L118.493 23.2849L118.746 22.0568Z" fill="#EAEEF9"/>
<path d="M120.242 14.7526L119.004 14.499L118.751 15.7271L119.989 15.9807L120.242 14.7526Z" fill="#F3F5FA"/>
<path d="M118.773 34.7937L117.535 34.54L117.283 35.7681L118.521 36.0217L118.773 34.7937Z" fill="#EAEEF9"/>
<path d="M119.277 32.3381L118.039 32.0845L117.787 33.3126L119.025 33.5662L119.277 32.3381Z" fill="#F3F5FA"/>
<path d="M119.785 29.8816L118.547 29.6279L118.294 30.856L119.532 31.1096L119.785 29.8816Z" fill="#EAEEF9"/>
<path d="M121.773 20.1858L120.535 19.9321L120.283 21.1602L121.521 21.4138L121.773 20.1858Z" fill="#EAEEF9"/>
<path d="M120.82 37.7053L119.582 37.4517L119.33 38.6797L120.567 38.9334L120.82 37.7053Z" fill="#EAEEF9"/>
<path d="M121.816 32.8576L120.578 32.604L120.326 33.8321L121.564 34.0857L121.816 32.8576Z" fill="#EAEEF9"/>
<path d="M122.812 28.01L121.574 27.7563L121.322 28.9844L122.56 29.2381L122.812 28.01Z" fill="#EAEEF9"/>
<path d="M123.32 25.5544L122.082 25.3008L121.83 26.5289L123.067 26.7825L123.32 25.5544Z" fill="#F3F5FA"/>
<path d="M123.429 38.2395L122.191 37.9858L121.939 39.2139L123.177 39.4675L123.429 38.2395Z" fill="#EAEEF9"/>
<path d="M124.925 30.9353L123.688 30.6816L123.435 31.9097L124.673 32.1633L124.925 30.9353Z" fill="#F3F5FA"/>
<path d="M125.925 26.0876L124.688 25.834L124.435 27.0621L125.673 27.3157L125.925 26.0876Z" fill="#EAEEF9"/>
<path d="M125.968 38.76L124.73 38.5063L124.478 39.7344L125.716 39.9881L125.968 38.76Z" fill="#EAEEF9"/>
<path d="M126.461 36.3689L125.223 36.1152L124.97 37.3433L126.208 37.5969L126.461 36.3689Z" fill="#EAEEF9"/>
<path d="M126.964 33.9118L125.727 33.6582L125.474 34.8863L126.712 35.1399L126.964 33.9118Z" fill="#EAEEF9"/>
<path d="M127.472 31.4558L126.234 31.2021L125.982 32.4302L127.22 32.6839L127.472 31.4558Z" fill="#EAEEF9"/>
<path d="M127.961 29.0647L126.723 28.811L126.47 30.0391L127.708 30.2927L127.961 29.0647Z" fill="#F3F5FA"/>
<path d="M129.464 21.7605L128.227 21.5068L127.974 22.7349L129.212 22.9885L129.464 21.7605Z" fill="#EAEEF9"/>
<path d="M128.507 39.281L127.27 39.0273L127.017 40.2554L128.255 40.509L128.507 39.281Z" fill="#EAEEF9"/>
<path d="M129.507 34.4328L128.27 34.1792L128.017 35.4073L129.255 35.6609L129.507 34.4328Z" fill="#EAEEF9"/>
<path d="M130.011 31.9768L128.773 31.7231L128.521 32.9512L129.759 33.2049L130.011 31.9768Z" fill="#F3F5FA"/>
<path d="M125.485 47.6038L126.723 47.8574L126.975 46.6293L125.737 46.3757L125.485 47.6038Z" fill="#EAEEF9"/>
<path d="M125.993 45.1287L127.23 45.3823L127.483 44.1542L126.245 43.9006L125.993 45.1287Z" fill="#EAEEF9"/>
<path d="M126.493 42.719L127.73 42.9727L127.983 41.7446L126.745 41.491L126.493 42.719Z" fill="#EAEEF9"/>
<path d="M122.43 49.4905L123.668 49.7441L123.92 48.5161L122.683 48.2624L122.43 49.4905Z" fill="#EAEEF9"/>
<path d="M122.93 47.0804L124.168 47.334L124.42 46.1059L123.183 45.8523L122.93 47.0804Z" fill="#EAEEF9"/>
<path d="M123.934 42.1956L125.172 42.4492L125.424 41.2211L124.186 40.9675L123.934 42.1956Z" fill="#EAEEF9"/>
<path d="M119.875 48.9666L121.113 49.2202L121.366 47.9921L120.128 47.7385L119.875 48.9666Z" fill="#EAEEF9"/>
<path d="M120.371 46.5564L121.609 46.8101L121.862 45.582L120.624 45.3284L120.371 46.5564Z" fill="#EAEEF9"/>
<path d="M120.883 44.0813L122.121 44.335L122.374 43.1069L121.136 42.8533L120.883 44.0813Z" fill="#EAEEF9"/>
<path d="M121.375 41.6717L122.613 41.9253L122.866 40.6972L121.628 40.4436L121.375 41.6717Z" fill="#EAEEF9"/>
<path d="M117.383 48.4558L118.621 48.7095L118.874 47.4814L117.636 47.2278L117.383 48.4558Z" fill="#EAEEF9"/>
<path d="M117.883 46.0462L119.121 46.2998L119.374 45.0717L118.136 44.8181L117.883 46.0462Z" fill="#EAEEF9"/>
<path d="M118.387 43.5711L119.625 43.8247L119.877 42.5966L118.64 42.343L118.387 43.5711Z" fill="#EAEEF9"/>
<path d="M118.887 41.1609L120.125 41.4146L120.377 40.1865L119.14 39.9328L118.887 41.1609Z" fill="#EAEEF9"/>
<path d="M114.828 47.9324L116.066 48.186L116.319 46.958L115.081 46.7043L114.828 47.9324Z" fill="#EAEEF9"/>
<path d="M115.325 45.5218L116.562 45.7754L116.815 44.5473L115.577 44.2937L115.325 45.5218Z" fill="#EAEEF9"/>
<path d="M115.832 43.0472L117.07 43.3008L117.323 42.0727L116.085 41.8191L115.832 43.0472Z" fill="#EAEEF9"/>
<path d="M112.27 47.408L113.508 47.6616L113.76 46.4335L112.522 46.1799L112.27 47.408Z" fill="#EAEEF9"/>
<path d="M112.766 44.9983L114.004 45.252L114.256 44.0239L113.018 43.7702L112.766 44.9983Z" fill="#EAEEF9"/>
<path d="M113.278 42.5237L114.516 42.7773L114.768 41.5493L113.53 41.2956L113.278 42.5237Z" fill="#EAEEF9"/>
<path d="M113.77 40.1126L115.008 40.3662L115.26 39.1381L114.022 38.8845L113.77 40.1126Z" fill="#EAEEF9"/>
<path d="M109.711 46.8846L110.949 47.1382L111.202 45.9101L109.964 45.6565L109.711 46.8846Z" fill="#EAEEF9"/>
<path d="M110.211 44.4744L111.449 44.728L111.702 43.4999L110.464 43.2463L110.211 44.4744Z" fill="#EAEEF9"/>
<path d="M110.723 41.9993L111.961 42.2529L112.213 41.0248L110.975 40.7712L110.723 41.9993Z" fill="#EAEEF9"/>
<path d="M107.162 46.3575L108.4 46.6111L108.652 45.383L107.414 45.1294L107.162 46.3575Z" fill="url(#paint9_linear_3653_20665)"/>
<path d="M107.653 43.9505L108.891 44.2041L109.143 42.976L107.905 42.7224L107.653 43.9505Z" fill="#EAEEF9"/>
<path d="M108.161 41.4759L109.398 41.7295L109.651 40.5014L108.413 40.2478L108.161 41.4759Z" fill="#EAEEF9"/>
<path d="M108.657 39.0657L109.895 39.3193L110.147 38.0913L108.909 37.8376L108.657 39.0657Z" fill="#F3F5FA"/>
<path d="M104.602 45.8367L105.84 46.0903L106.092 44.8623L104.854 44.6086L104.602 45.8367Z" fill="#EAEEF9"/>
<path d="M105.098 43.427L106.336 43.6807L106.588 42.4526L105.35 42.199L105.098 43.427Z" fill="#EAEEF9"/>
<path d="M105.615 40.9893L106.853 41.2429L107.105 40.0149L105.867 39.7612L105.615 40.9893Z" fill="url(#paint10_linear_3653_20665)"/>
<path d="M106.102 38.5423L107.34 38.7959L107.592 37.5678L106.354 37.3142L106.102 38.5423Z" fill="#EAEEF9"/>
<path d="M102.047 45.3138L103.285 45.5674L103.538 44.3393L102.3 44.0857L102.047 45.3138Z" fill="#EAEEF9"/>
<path d="M102.539 42.9031L103.777 43.1567L104.03 41.9287L102.792 41.675L102.539 42.9031Z" fill="#EAEEF9"/>
<path d="M103.051 40.429L104.289 40.6826L104.542 39.4545L103.304 39.2009L103.051 40.429Z" fill="#EAEEF9"/>
<path d="M99.9886 42.3802L101.227 42.6338L101.479 41.4057L100.241 41.1521L99.9886 42.3802Z" fill="#EAEEF9"/>
<path d="M100.493 39.9051L101.73 40.1587L101.983 38.9306L100.745 38.677L100.493 39.9051Z" fill="#F3F5FA"/>
<path d="M100.993 37.4949L102.23 37.7485L102.483 36.5205L101.245 36.2668L100.993 37.4949Z" fill="#EAEEF9"/>
<path d="M97.0004 44.2791L98.2383 44.5327L98.4908 43.3046L97.2528 43.051L97.0004 44.2791Z" fill="#EAEEF9"/>
<path d="M98.0043 39.3943L99.2422 39.6479L99.4947 38.4199L98.2567 38.1662L98.0043 39.3943Z" fill="#EAEEF9"/>
<path d="M94.4418 43.7557L95.6797 44.0093L95.9322 42.7812L94.6942 42.5276L94.4418 43.7557Z" fill="#EAEEF9"/>
<path d="M95.9457 36.4598L97.1836 36.7134L97.4361 35.4853L96.1982 35.2317L95.9457 36.4598Z" fill="#F3F5FA"/>
<path d="M91.8832 43.2312L93.1211 43.4849L93.3736 42.2568L92.1357 42.0032L91.8832 43.2312Z" fill="#EAEEF9"/>
<path d="M92.3793 40.8216L93.6172 41.0752L93.8697 39.8471L92.6317 39.5935L92.3793 40.8216Z" fill="#EAEEF9"/>
<path d="M92.891 38.347L94.1289 38.6006L94.3814 37.3725L93.1435 37.1189L92.891 38.347Z" fill="#EAEEF9"/>
<path d="M89.3285 42.7078L90.5664 42.9614L90.8189 41.7333L89.581 41.4797L89.3285 42.7078Z" fill="#EAEEF9"/>
<path d="M90.3324 37.8225L91.5703 38.0762L91.8228 36.8481L90.5849 36.5945L90.3324 37.8225Z" fill="#EAEEF9"/>
<path d="M90.8285 35.4129L92.0664 35.6665L92.3189 34.4384L91.081 34.1848L90.8285 35.4129Z" fill="#F3F5FA"/>
<path d="M119.966 46.8265C119.652 47.0317 119.404 47.2502 119.103 47.3907C115.613 49.5047 111.372 50.3197 107.007 49.4253C103.553 48.7178 100.508 47.0162 98.2223 44.5945C97.5468 43.9172 96.963 43.124 96.4443 42.3442C96.8631 41.9585 97.5811 41.7688 98.9905 41.5187L99.5516 41.4315C100.609 41.2439 102.083 41.0072 103.989 40.6566C104.276 40.5807 104.563 40.5048 104.746 40.273C104.838 40.1571 104.995 40.0545 105.022 39.9252C105.192 39.758 105.245 39.4995 105.298 39.2409L105.976 35.9445C105.924 35.8665 105.937 35.8019 105.885 35.7239C105.718 35.2181 105.615 34.7256 105.656 34.1951L105.422 34.0125C104.536 34.0328 104.787 33.1413 104.95 31.3561C105.031 30.6317 105.123 30.5158 105.475 30.4533L105.816 30.1189C105.456 28.5634 105.435 27.3465 105.648 26.3124C105.98 24.6965 106.922 23.7445 108.006 23.4276C107.763 22.3 107.79 21.8342 107.79 21.8342C107.79 21.8342 111.124 23.1234 112.35 23.1052C113.915 23.089 116.181 23.9574 116.616 26.1346C116.798 26.2393 116.915 26.3306 117.097 26.4353C118.085 27.244 118.317 28.0997 118.274 28.9666C118.151 30.558 116.958 32.065 116.617 32.7359C116.617 32.7359 116.603 32.8005 116.668 32.8139C116.902 32.9966 116.928 33.2038 116.665 33.8235C116.124 35.464 115.989 36.4468 115.182 36.0794L114.135 37.2119C114.108 37.3412 114.03 37.3925 114.003 37.5218C113.95 37.7803 113.857 38.2328 113.299 40.9475C113.285 41.0121 113.259 41.1414 113.246 41.206C113.192 41.4645 113.283 41.6852 113.373 41.9058C113.425 41.9837 113.477 42.0617 113.529 42.1397C113.684 42.3737 113.853 42.543 114.087 42.7256C115.869 43.9664 117.196 44.7771 118.159 45.3785C119.043 46.0312 119.628 46.4879 119.966 46.8265Z" fill="#EAEEF9"/>
<path d="M116.734 33.8362C116.193 35.4767 116.059 36.4596 115.251 36.0922L114.204 37.2247C114.177 37.354 114.099 37.4053 114.072 37.5345C114.019 37.7931 113.926 38.2455 113.368 40.9602C113.355 41.0249 113.328 41.1541 113.315 41.2188L109.536 40.4446L112.605 25.5137L117.166 26.4481C118.154 27.2567 118.386 28.1125 118.343 28.9794C118.22 30.5707 117.027 32.0777 116.686 32.7487C116.686 32.7487 116.672 32.8133 116.738 32.8267C116.906 32.996 116.932 33.2032 116.734 33.8362Z" fill="#E3E7F5"/>
<path d="M120.537 51.9947C117.046 54.1087 111.362 50.3844 106.996 49.49C103.543 48.7825 95.753 50.0155 93.4538 47.6585C93.0123 47.1638 93.9695 45.8107 94.2579 45.3983C94.7698 44.5601 95.2816 43.722 95.9104 42.9752C97.2731 41.301 101.955 41.3171 103.978 40.7213C104.344 40.5942 104.566 40.5049 104.736 40.3377C106.275 43.7515 110.706 44.6592 113.454 42.1911C113.609 42.425 113.778 42.5944 114.012 42.777C114.077 42.7904 114.129 42.8684 114.194 42.8817C119.749 46.5793 120.206 46.3362 120.523 48.7587C120.573 49.1732 120.85 51.7895 120.537 51.9947Z" fill="white"/>
<path d="M120.537 51.9942C117.047 54.1082 111.363 50.3839 106.997 49.4895C103.544 48.7821 95.7538 50.0151 93.4546 47.658C93.0131 47.1634 93.9703 45.8102 94.2588 45.3978C94.7706 44.5597 95.2824 43.7215 95.9112 42.9747C97.2739 41.3005 101.956 41.3166 103.979 40.7209C103.979 40.7209 103.979 40.7209 104.044 40.7342C105.816 44.6671 110.963 45.7217 114.13 42.8679L114.195 42.8812C119.75 46.5788 120.207 46.3357 120.524 48.7582C120.574 49.1727 120.851 51.789 120.537 51.9942Z" fill="#B2BACD"/>
<path d="M116.623 32.7362C116.768 32.3617 116.679 31.8046 116.628 31.3901C116.642 31.3254 116.59 31.2474 116.603 31.1828C116.217 29.7566 114.838 28.8679 113.484 28.5229C109.94 27.5948 109.468 28.2391 108.508 26.9646C108.727 27.5484 108.62 28.4021 107.886 29.3294C107.349 29.9603 106.566 30.1367 105.874 30.1971C105.003 26.1792 106.263 24.0124 108.065 23.5059C107.769 22.3003 107.797 21.8345 107.797 21.8345C107.797 21.8345 111.131 23.1237 112.357 23.1054C113.922 23.0893 116.187 23.9576 116.623 26.1349C117.936 27.0103 118.337 28.0353 118.268 29.0316C118.209 30.6362 116.952 32.1299 116.623 32.7362Z" fill="#A4AFBB"/>
<path d="M105.342 39.3833L106.019 36.0869C105.967 36.0089 105.916 35.9309 105.929 35.8663L105.969 35.6724C106.098 36.0356 106.24 36.3342 106.526 36.5948L108.76 38.9386C109.24 39.5758 110.152 39.7627 110.845 39.3657L113.708 37.662C113.786 37.6107 113.93 37.5728 114.021 37.4569C113.968 37.7154 113.875 38.1679 113.317 40.8826C113.277 41.0765 113.251 41.2057 113.289 41.3484L105.21 39.6931C105.275 39.7065 105.315 39.5126 105.342 39.3833Z" fill="url(#paint11_linear_3653_20665)"/>
<path d="M127.463 50.6529L124.207 66.4887C123.914 67.9107 122.502 68.8339 121.069 68.5402L86.9282 61.5455C85.4948 61.2518 84.5613 59.8481 84.8536 58.4261L88.1094 42.5903L127.463 50.6529Z" fill="white"/>
<path d="M111.622 53.7383L101.458 51.6559C100.937 51.5491 100.626 51.0812 100.732 50.5641C100.838 50.047 101.309 49.7393 101.83 49.8461L111.994 51.9285C112.515 52.0352 112.827 52.5032 112.72 53.0202C112.614 53.5373 112.143 53.845 111.622 53.7383Z" fill="#ADB6C8"/>
<path d="M114.967 58.6005L96.5284 54.8229C96.0071 54.7161 95.6959 54.2482 95.8022 53.7311C95.9085 53.214 96.3792 52.9063 96.9004 53.0131L115.339 56.7907C115.86 56.8975 116.172 57.3654 116.065 57.8825C115.959 58.3996 115.423 58.694 114.967 58.6005Z" fill="#E3EAF2"/>
<path d="M108.528 61.5244L101.296 60.0427C100.971 59.976 100.763 59.6641 100.83 59.3409L100.962 58.6945C101.029 58.3713 101.343 58.1662 101.668 58.2329L108.901 59.7146C109.226 59.7814 109.434 60.0933 109.367 60.4165L109.234 61.0629C109.168 61.386 108.854 61.5912 108.528 61.5244Z" fill="#E3EAF2"/>
<path opacity="0.6" d="M76.3401 99.3755C85.4356 99.3755 92.809 92.015 92.809 82.9353C92.809 73.8557 85.4356 66.4951 76.3401 66.4951C67.2445 66.4951 59.8711 73.8557 59.8711 82.9353C59.8711 92.015 67.2445 99.3755 76.3401 99.3755Z" fill="white"/>
<path d="M100.996 102.965L97.485 106.386L87.4531 96.4553L90.8807 93.0337L100.996 102.965Z" fill="#989EA5"/>
<path d="M62.9593 68.5823C55.4354 76.093 55.4354 88.1937 62.9593 95.621C70.4832 103.048 82.6051 103.132 90.0453 95.621C97.5692 88.1103 97.5692 76.0096 90.0453 68.5823C82.5215 61.155 70.3996 61.0715 62.9593 68.5823ZM86.9522 92.6167C81.1839 98.375 71.7372 98.375 65.9689 92.6167C60.2006 86.8585 60.2006 77.4283 65.9689 71.67C71.7372 65.9118 81.1839 65.9118 86.9522 71.67C92.8041 77.4283 92.8041 86.775 86.9522 92.6167Z" fill="#A4AFBB"/>
<path d="M106.427 111.811C104.838 113.396 102.33 113.396 100.826 111.811L90.6266 101.713C89.9578 101.129 89.9578 100.044 90.6266 99.4598L93.9705 96.1217C94.5557 95.5376 95.5589 95.5376 96.2277 96.1217L106.427 106.22C107.932 107.805 107.932 110.309 106.427 111.811Z" fill="#A4AFBB"/>
<path d="M76.6731 92.2828C75.9207 92.2828 75.3355 91.6987 75.3355 90.9476C75.3355 90.1965 76.0043 89.5289 76.7567 89.5289C77.5091 89.5289 78.1779 90.1131 78.1779 90.8642C78.0943 91.6987 77.5091 92.2828 76.7567 92.2828H76.6731ZM76.7567 88.0268C76.0043 88.0268 75.4191 87.4426 75.3355 86.6915C75.3355 86.6081 75.3355 86.6081 75.3355 86.5246V83.7707C75.3355 82.352 76.2551 81.1002 77.5927 80.5994C78.6795 80.2656 79.3483 79.1807 79.2647 78.0959C79.1811 76.8441 78.1779 75.7592 76.8403 75.6757H76.6731C75.5863 75.6757 74.5831 76.4268 74.2488 77.5117C74.0816 78.0959 73.4964 78.4297 72.9112 78.4297C72.744 78.4297 72.5768 78.4297 72.4096 78.3462C71.7408 78.0959 71.3228 77.4282 71.49 76.6772C72.1588 74.4239 74.2488 72.7549 76.6731 72.7549C76.7567 72.7549 76.9239 72.7549 77.0075 72.7549C78.4287 72.8383 79.7663 73.4225 80.6859 74.5074C81.6055 75.5923 82.107 76.9275 82.0234 78.3462C81.9398 80.4325 80.5187 82.352 78.5959 83.103H78.5123H78.4287C78.2615 83.1865 78.0943 83.3534 78.1779 83.6038V86.2742C78.1779 86.6915 78.0943 87.0253 77.8435 87.2757C77.5927 87.526 77.2583 87.6929 76.8403 87.7764L76.7567 88.0268Z" fill="#B2BACD"/>
<defs>
<filter id="filter0_d_3653_20665" x="77.8495" y="72.8686" width="67.1916" height="49.112" filterUnits="userSpaceOnUse" color-interpolation-filters="sRGB">
<feFlood flood-opacity="0" result="BackgroundImageFix"/>
<feColorMatrix in="SourceAlpha" type="matrix" values="0 0 0 0 0 0 0 0 0 0 0 0 0 0 0 0 0 0 127 0" result="hardAlpha"/>
<feOffset dy="9.31548"/>
<feGaussianBlur stdDeviation="9.31548"/>
<feColorMatrix type="matrix" values="0 0 0 0 0.397708 0 0 0 0 0.47749 0 0 0 0 0.575 0 0 0 0.18 0"/>
<feBlend mode="normal" in2="BackgroundImageFix" result="effect1_dropShadow_3653_20665"/>
<feBlend mode="normal" in="SourceGraphic" in2="effect1_dropShadow_3653_20665" result="shape"/>
</filter>
<filter id="filter1_d_3653_20665" x="0.110102" y="8.66638" width="91.2446" height="106.889" filterUnits="userSpaceOnUse" color-interpolation-filters="sRGB">
<feFlood flood-opacity="0" result="BackgroundImageFix"/>
<feColorMatrix in="SourceAlpha" type="matrix" values="0 0 0 0 0 0 0 0 0 0 0 0 0 0 0 0 0 0 127 0" result="hardAlpha"/>
<feOffset dy="7.73011"/>
<feGaussianBlur stdDeviation="7.73011"/>
<feColorMatrix type="matrix" values="0 0 0 0 0.397708 0 0 0 0 0.47749 0 0 0 0 0.575 0 0 0 0.18 0"/>
<feBlend mode="normal" in2="BackgroundImageFix" result="effect1_dropShadow_3653_20665"/>
<feBlend mode="normal" in="SourceGraphic" in2="effect1_dropShadow_3653_20665" result="shape"/>
</filter>
<filter id="filter2_d_3653_20665" x="71.9959" y="0.0184522" width="75.3285" height="87.7831" filterUnits="userSpaceOnUse" color-interpolation-filters="sRGB">
<feFlood flood-opacity="0" result="BackgroundImageFix"/>
<feColorMatrix in="SourceAlpha" type="matrix" values="0 0 0 0 0 0 0 0 0 0 0 0 0 0 0 0 0 0 127 0" result="hardAlpha"/>
<feOffset dy="6.40245"/>
<feGaussianBlur stdDeviation="6.40245"/>
<feColorMatrix type="matrix" values="0 0 0 0 0.397708 0 0 0 0 0.47749 0 0 0 0 0.575 0 0 0 0.18 0"/>
<feBlend mode="normal" in2="BackgroundImageFix" result="effect1_dropShadow_3653_20665"/>
<feBlend mode="normal" in="SourceGraphic" in2="effect1_dropShadow_3653_20665" result="shape"/>
</filter>
<linearGradient id="paint0_linear_3653_20665" x1="101.48" y1="86.2998" x2="121.731" y2="86.2998" gradientUnits="userSpaceOnUse">
<stop stop-color="#CED7E2"/>
<stop offset="1" stop-color="#E6ECF5"/>
</linearGradient>
<linearGradient id="paint1_linear_3653_20665" x1="101.48" y1="90.2756" x2="115.068" y2="90.2756" gradientUnits="userSpaceOnUse">
<stop stop-color="#CED7E2"/>
<stop offset="1" stop-color="#E6ECF5"/>
</linearGradient>
<linearGradient id="paint2_linear_3653_20665" x1="44.563" y1="52.8727" x2="46.0873" y2="52.5685" gradientUnits="userSpaceOnUse">
<stop stop-color="#83A6FF"/>
<stop offset="1" stop-color="#5A78FF"/>
</linearGradient>
<linearGradient id="paint3_linear_3653_20665" x1="46.4768" y1="46.2838" x2="48.0011" y2="45.9795" gradientUnits="userSpaceOnUse">
<stop stop-color="#FF66A9"/>
<stop offset="1" stop-color="#F53689"/>
</linearGradient>
<linearGradient id="paint4_linear_3653_20665" x1="48.4655" y1="64.5167" x2="46.9411" y2="64.8209" gradientUnits="userSpaceOnUse">
<stop stop-color="#83A6FF"/>
<stop offset="1" stop-color="#5A78FF"/>
</linearGradient>
<linearGradient id="paint5_linear_3653_20665" x1="44.1662" y1="59.1642" x2="42.6419" y2="59.4684" gradientUnits="userSpaceOnUse">
<stop stop-color="#FF66A9"/>
<stop offset="1" stop-color="#F53689"/>
</linearGradient>
<linearGradient id="paint6_linear_3653_20665" x1="46.0911" y1="58.8339" x2="45.6515" y2="56.6235" gradientUnits="userSpaceOnUse">
<stop stop-color="#EAEEF9"/>
<stop offset="0.9913" stop-color="#CED5E6"/>
</linearGradient>
<linearGradient id="paint7_linear_3653_20665" x1="109.283" y1="36.0071" x2="110.533" y2="36.2642" gradientUnits="userSpaceOnUse">
<stop stop-color="#83A6FF"/>
<stop offset="1" stop-color="#5A78FF"/>
</linearGradient>
<linearGradient id="paint8_linear_3653_20665" x1="112.834" y1="31.6626" x2="114.084" y2="31.9196" gradientUnits="userSpaceOnUse">
<stop stop-color="#FF66A9"/>
<stop offset="1" stop-color="#F53689"/>
</linearGradient>
<linearGradient id="paint9_linear_3653_20665" x1="108.531" y1="46" x2="107.281" y2="45.743" gradientUnits="userSpaceOnUse">
<stop stop-color="#83A6FF"/>
<stop offset="1" stop-color="#5A78FF"/>
</linearGradient>
<linearGradient id="paint10_linear_3653_20665" x1="106.981" y1="40.6117" x2="105.73" y2="40.3546" gradientUnits="userSpaceOnUse">
<stop stop-color="#FF66A9"/>
<stop offset="1" stop-color="#F53689"/>
</linearGradient>
<linearGradient id="paint11_linear_3653_20665" x1="109.199" y1="40.6663" x2="109.671" y2="38.3632" gradientUnits="userSpaceOnUse">
<stop stop-color="#EAEEF9"/>
<stop offset="0.9913" stop-color="#CED5E6"/>
</linearGradient>
</defs>
</svg>
