<svg width="18" height="18" viewBox="0 0 18 18" fill="none" xmlns="http://www.w3.org/2000/svg">
<g opacity="0.5" clip-path="url(#clip0_2997:15667)">
<path d="M9.89812 8.40903C10.0629 8.06238 10.2644 7.62299 10.4235 7.22567C10.5676 6.86744 10.4032 6.37667 10.0817 6.16264C8.01272 4.78267 0.994625 0.807485 0.200552 9.74107C0.166273 10.1259 0.0980365 10.1304 0.0598989 9.74596C-0.0743867 8.40099 -0.136963 5.42876 1.63724 3.8284C1.92408 3.56992 2.42951 3.19806 2.75275 2.9868C3.90292 2.23369 6.78949 0.937977 10.941 3.15362C11.282 3.3355 11.6147 3.19208 11.6952 2.81431L11.9841 1.4546C12.0642 1.07683 12.2912 1.03869 12.4914 1.36926L15.8946 7.0007C16.0944 7.33127 15.9502 7.66531 15.5725 7.74718L10.2747 8.88964C9.89639 8.97118 9.73232 8.75779 9.89812 8.40903ZM15.1938 15.3935C14.0436 16.1456 11.1574 17.4388 7.00558 15.2249C6.66453 15.043 6.29511 15.1763 6.16989 15.5418L5.81836 16.5682C5.69314 16.9337 5.44579 16.9526 5.26604 16.6105L2.54843 11.4369C2.36861 11.0948 2.52257 10.7261 2.89231 10.6134L7.38342 9.24149C7.75283 9.12888 7.96867 9.33905 7.86577 9.71201C7.75032 10.1293 7.60099 10.6733 7.47468 11.1381C7.37358 11.511 7.5478 11.9969 7.8738 12.205C9.96739 13.5406 17.054 17.3706 17.8257 8.56151C17.8592 8.17673 17.9219 8.17357 17.9547 8.55836C18.0709 9.91877 18.096 12.9417 16.3096 14.5522C16.0225 14.8104 15.5174 15.1823 15.1938 15.3935Z" fill="#4B5563"/>
</g>
<defs>
<clipPath id="clip0_2997:15667">
<rect width="18" height="18" fill="white"/>
</clipPath>
</defs>
</svg>
