<svg width="24" height="24" viewBox="0 0 24 24" fill="none" xmlns="http://www.w3.org/2000/svg">
<path d="M0.800049 19.2002V6.0002C0.800049 4.4538 2.05365 3.2002 3.60005 3.2002V3.2002" stroke="#4B5563" stroke-width="1.5" stroke-linecap="round"/>
<path d="M5.99927 10.4009V6.20093C5.99927 4.54407 7.34241 3.20093 8.99927 3.20093H15.9993L19.9993 7.20093V10.4009" stroke="#3579FC" stroke-width="1.5" stroke-linecap="round"/>
<path d="M15.9993 3.20093V6.60093C15.9993 7.15321 16.447 7.60093 16.9993 7.60093H19.9993" stroke="#3579FC" stroke-width="1.5" stroke-linecap="round"/>
<path fill-rule="evenodd" clip-rule="evenodd" d="M2.92313 12.4687C3.32636 11.2352 4.47694 10.4009 5.77461 10.4009L19.6846 10.4009C21.6587 10.4009 23.0947 12.2746 22.5815 14.1808L21.3968 18.5808C21.0442 19.8906 19.8565 20.8009 18.5 20.8009H2.95715C1.59689 20.8009 0.633469 19.4723 1.05615 18.1794L2.92313 12.4687Z" stroke="#4B5563" stroke-width="1.5" stroke-linecap="round"/>
</svg>
