<svg width="24" height="24" viewBox="0 0 24 24" fill="none" xmlns="http://www.w3.org/2000/svg">
<path d="M22.3977 14.4V7C22.3977 5.34315 21.0545 4 19.3977 4H4.59766C2.9408 4 1.59766 5.34315 1.59766 7V19.4C1.59766 21.0569 2.9408 22.4 4.59766 22.4H14.3977" stroke="#3579FC" stroke-width="1.5" stroke-linecap="round"/>
<path d="M1.59766 9.6002H22.3977" stroke="#3579FC" stroke-width="1.5" stroke-linecap="round"/>
<path d="M6.39609 1.6001V6.4001" stroke="#3579FC" stroke-width="1.5" stroke-linecap="round"/>
<path d="M17.5992 1.6001V6.4001" stroke="#3579FC" stroke-width="1.5" stroke-linecap="round"/>
<path fill-rule="evenodd" clip-rule="evenodd" d="M17.5961 23.2C20.6889 23.2 23.1961 20.6928 23.1961 17.6C23.1961 14.5072 20.6889 12 17.5961 12C14.5033 12 11.9961 14.5072 11.9961 17.6C11.9961 20.6928 14.5033 23.2 17.5961 23.2Z" stroke="#3579FC" stroke-width="1.5" stroke-linecap="round"/>
<path d="M15.9961 17.9998L17.1187 19.1224C17.1602 19.164 17.2286 19.1609 17.2662 19.1157L19.1961 16.7998" stroke="#3579FC" stroke-width="1.5" stroke-linecap="round"/>
</svg>
