<svg width="132" height="128" viewBox="0 0 132 128" fill="none" xmlns="http://www.w3.org/2000/svg">
<path d="M69.7981 101.8C97.5977 101.8 120.135 79.0553 120.135 50.9C120.135 22.7447 97.4984 0 69.7981 0C41.9985 0 19.4609 22.7447 19.4609 50.9C19.4609 79.0553 41.9985 101.8 69.7981 101.8Z" fill="#EAEEF9"/>
<path d="M123.262 83.7415C125.51 83.7415 127.333 81.9023 127.333 79.6335C127.333 77.3646 125.51 75.5254 123.262 75.5254C121.014 75.5254 119.191 77.3646 119.191 79.6335C119.191 81.9023 121.014 83.7415 123.262 83.7415Z" fill="#EAEEF9"/>
<path d="M129.221 67.7099C130.757 67.7099 132.001 66.4538 132.001 64.9044C132.001 63.3549 130.757 62.0989 129.221 62.0989C127.686 62.0989 126.441 63.3549 126.441 64.9044C126.441 66.4538 127.686 67.7099 129.221 67.7099Z" fill="#EAEEF9"/>
<path d="M22.1393 17.4343C23.6747 17.4343 24.9193 16.1782 24.9193 14.6288C24.9193 13.0793 23.6747 11.8232 22.1393 11.8232C20.604 11.8232 19.3594 13.0793 19.3594 14.6288C19.3594 16.1782 20.604 17.4343 22.1393 17.4343Z" fill="#EAEEF9"/>
<path d="M5.16278 71.5406C8.01411 71.5406 10.3256 69.2079 10.3256 66.3304C10.3256 63.4528 8.01411 61.1201 5.16278 61.1201C2.31146 61.1201 0 63.4528 0 66.3304C0 69.2079 2.31146 71.5406 5.16278 71.5406Z" fill="#EAEEF9"/>
<path d="M107.337 52.1016L110.02 51.2854C110.215 51.2285 110.215 50.9438 110.02 50.8869L107.337 50.0707C107.268 50.0517 107.218 50.0011 107.199 49.9315L106.391 47.2301C106.334 47.034 106.052 47.034 105.996 47.2301L105.187 49.9315C105.168 50.0011 105.118 50.0517 105.049 50.0707L102.372 50.8869C102.178 50.9438 102.178 51.2285 102.372 51.2854L105.055 52.1016C105.124 52.1205 105.175 52.1711 105.193 52.2407L106.002 54.9485C106.058 55.1446 106.341 55.1446 106.397 54.9485L107.206 52.2407C107.218 52.1711 107.268 52.1205 107.337 52.1016Z" fill="#ADB6C8"/>
<path d="M91.4545 23.0449L94.1376 22.2288C94.3319 22.1719 94.3319 21.8872 94.1376 21.8303L91.4545 21.0142C91.3855 20.9952 91.3354 20.9446 91.3166 20.875L90.5079 18.1737C90.4515 17.9776 90.1694 17.9776 90.1129 18.1737L89.3043 20.875C89.2854 20.9446 89.2353 20.9952 89.1663 21.0142L86.4895 21.8303C86.2952 21.8872 86.2952 22.1719 86.4895 22.2288L89.1726 23.0449C89.2416 23.0639 89.2917 23.1145 89.3105 23.1841L90.1192 25.8917C90.1756 26.0878 90.4577 26.0878 90.5142 25.8917L91.3229 23.1841C91.3354 23.1145 91.3855 23.0639 91.4545 23.0449Z" fill="#ADB6C8"/>
<path d="M51.1008 26.4254L53.4485 25.7113C53.6186 25.6615 53.6186 25.4124 53.4485 25.3626L51.1008 24.6485C51.0405 24.6319 50.9966 24.5876 50.9801 24.5267L50.2725 22.1631C50.2232 21.9915 49.9763 21.9915 49.927 22.1631L49.2193 24.5267C49.2029 24.5876 49.159 24.6319 49.0987 24.6485L46.7564 25.3626C46.5864 25.4124 46.5864 25.6615 46.7564 25.7113L49.1042 26.4254C49.1645 26.442 49.2084 26.4863 49.2248 26.5472L49.9324 28.9163C49.9818 29.0879 50.2286 29.0879 50.278 28.9163L50.9856 26.5472C50.9966 26.4863 51.0405 26.442 51.1008 26.4254Z" fill="#ADB6C8"/>
<path d="M34.2219 69.9394L36.5696 69.1233C36.7397 69.0664 36.7397 68.7817 36.5696 68.7247L34.2219 67.9086C34.1616 67.8896 34.1177 67.839 34.1012 67.7694L33.3936 65.068C33.3443 64.8719 33.0974 64.8719 33.048 65.068L32.3404 67.7694C32.324 67.839 32.2801 67.8896 32.2198 67.9086L29.8775 68.7247C29.7075 68.7817 29.7075 69.0664 29.8775 69.1233L32.2253 69.9394C32.2856 69.9584 32.3295 70.009 32.3459 70.0786L33.0535 72.7864C33.1029 72.9825 33.3497 72.9825 33.3991 72.7864L34.1067 70.0786C34.1177 70.009 34.1616 69.9584 34.2219 69.9394Z" fill="#ADB6C8"/>
<path d="M30.4638 39.0817L32.1407 38.5716C32.2622 38.536 32.2622 38.3581 32.1407 38.3225L30.4638 37.8125C30.4207 37.8006 30.3893 37.769 30.3776 37.7255L29.8721 36.0372C29.8369 35.9147 29.6605 35.9147 29.6253 36.0372L29.1198 37.7255C29.1081 37.769 29.0767 37.8006 29.0336 37.8125L27.3606 38.3225C27.2392 38.3581 27.2392 38.536 27.3606 38.5716L29.0376 39.0817C29.0807 39.0935 29.112 39.1251 29.1238 39.1686L29.6292 40.8609C29.6645 40.9834 29.8408 40.9834 29.876 40.8609L30.3815 39.1686C30.3893 39.1251 30.4207 39.0935 30.4638 39.0817Z" fill="#ADB6C8"/>
<path d="M48.3348 55.8209L50.0118 55.3109C50.1332 55.2753 50.1332 55.0974 50.0118 55.0618L48.3348 54.5517C48.2917 54.5399 48.2604 54.5083 48.2486 54.4648L47.7432 52.7765C47.708 52.6539 47.5316 52.6539 47.4964 52.7765L46.9909 54.4648C46.9792 54.5083 46.9478 54.5399 46.9047 54.5517L45.2317 55.0618C45.1103 55.0974 45.1103 55.2753 45.2317 55.3109L46.9087 55.8209C46.9518 55.8328 46.9831 55.8644 46.9949 55.9079L47.5003 57.6001C47.5356 57.7227 47.7119 57.7227 47.7471 57.6001L48.2526 55.9079C48.2604 55.8644 48.2917 55.8328 48.3348 55.8209Z" fill="#ADB6C8"/>
<path d="M62.5497 8.13585L64.2266 7.62581C64.3481 7.59023 64.3481 7.41231 64.2266 7.37673L62.5497 6.86669C62.5066 6.85483 62.4752 6.8232 62.4635 6.7797L61.9581 5.09144C61.9228 4.96887 61.7465 4.96887 61.7112 5.09144L61.2058 6.7797C61.194 6.8232 61.1627 6.85483 61.1196 6.86669L59.4466 7.37673C59.3251 7.41231 59.3251 7.59023 59.4466 7.62581L61.1235 8.13585C61.1666 8.14771 61.1979 8.17934 61.2097 8.22284L61.7151 9.91506C61.7504 10.0376 61.9267 10.0376 61.962 9.91506L62.4674 8.22284C62.4752 8.17934 62.5066 8.14771 62.5497 8.13585Z" fill="#ADB6C8"/>
<path d="M102.288 80.6293L103.965 80.1192C104.086 80.0836 104.086 79.9057 103.965 79.8701L102.288 79.3601C102.245 79.3482 102.214 79.3166 102.202 79.2731L101.696 77.5848C101.661 77.4623 101.485 77.4623 101.449 77.5848L100.944 79.2731C100.932 79.3166 100.901 79.3482 100.858 79.3601L99.1848 79.8701C99.0634 79.9057 99.0634 80.0836 99.1848 80.1192L100.862 80.6293C100.905 80.6411 100.936 80.6728 100.948 80.7162L101.453 82.4085C101.489 82.531 101.665 82.531 101.7 82.4085L102.206 80.7162C102.214 80.6728 102.245 80.6411 102.288 80.6293Z" fill="#ADB6C8"/>
<path d="M54.9669 58.6658C50.7446 61.7703 45.1953 66.2749 45.1953 70.2316C45.1953 72.5442 45.1953 75.8342 45.1953 78.1691C45.1953 79.113 46.552 79.6833 47.3313 79.1505C49.3718 77.7553 52.8859 76.1579 57.9225 76.6232C66.4877 77.4146 56.4145 62.9269 56.4145 62.9269L54.9669 58.6658Z" fill="url(#paint0_linear_4828_26725)"/>
<path d="M85.6689 58.6658C89.8912 61.8312 95.4405 66.2749 95.4405 70.2316C95.4405 72.5442 95.4405 75.8342 95.4405 78.1691C95.4405 79.113 94.0838 79.6833 93.3046 79.1505C91.264 77.7553 87.75 76.1579 82.7133 76.6232C74.1481 77.4146 84.2213 62.9269 84.2213 62.9269L85.6689 58.6658Z" fill="url(#paint1_linear_4828_26725)"/>
<g filter="url(#filter0_d_4828_26725)">
<path d="M70.2889 15.0811C62.3269 20.8031 52.7966 34.8647 54.5458 52.7613C56.2347 70.6579 57.7427 79.4845 60.9999 81.615C64.3174 83.7456 67.5746 84.2325 70.2889 84.2325C73.0032 84.2325 76.2604 83.7456 79.5779 81.615C82.8954 79.4845 84.3431 70.6579 86.032 52.7613C87.7209 34.8647 78.1906 20.8031 70.2889 15.0811Z" fill="url(#paint2_linear_4828_26725)"/>
</g>
<g filter="url(#filter1_d_4828_26725)">
<path d="M76.319 86.7282H64.2553C63.2902 86.7282 62.5664 85.9369 62.5664 85.0238V82.041H78.0682V84.9629C78.0079 85.9369 77.2238 86.7282 76.319 86.7282Z" fill="url(#paint3_linear_4828_26725)"/>
</g>
<path d="M71.1303 57.6919H69.4414V80.154H71.1303V57.6919Z" fill="url(#paint4_linear_4828_26725)"/>
<path d="M70.2879 45.4564C73.5859 45.4564 76.2594 42.7583 76.2594 39.43C76.2594 36.1017 73.5859 33.4036 70.2879 33.4036C66.9899 33.4036 64.3164 36.1017 64.3164 39.43C64.3164 42.7583 66.9899 45.4564 70.2879 45.4564Z" stroke="#3579FC" stroke-width="4" stroke-miterlimit="10"/>
<path d="M78.5505 98.355C78.5505 103.286 74.6298 128 69.744 128C64.8582 128 60.9375 103.286 60.9375 98.355C60.9375 93.4243 64.8582 89.4675 69.744 89.4675C74.6298 89.4675 78.5505 93.4851 78.5505 98.355Z" fill="#FFA724"/>
<path d="M69.7476 116.617C67.9983 112.843 66.0078 102.373 66.0078 99.0246C66.0078 96.9549 67.6967 95.2505 69.7476 95.2505C71.7984 95.2505 73.4873 96.9549 73.4873 99.0246C73.4873 102.373 71.4968 112.782 69.7476 116.617Z" fill="white"/>
<defs>
<filter id="filter0_d_4828_26725" x="32.3359" y="4.08105" width="75.8945" height="113.151" filterUnits="userSpaceOnUse" color-interpolation-filters="sRGB">
<feFlood flood-opacity="0" result="BackgroundImageFix"/>
<feColorMatrix in="SourceAlpha" type="matrix" values="0 0 0 0 0 0 0 0 0 0 0 0 0 0 0 0 0 0 127 0" result="hardAlpha"/>
<feOffset dy="11"/>
<feGaussianBlur stdDeviation="11"/>
<feColorMatrix type="matrix" values="0 0 0 0 0.397708 0 0 0 0 0.47749 0 0 0 0 0.575 0 0 0 0.27 0"/>
<feBlend mode="normal" in2="BackgroundImageFix" result="effect1_dropShadow_4828_26725"/>
<feBlend mode="normal" in="SourceGraphic" in2="effect1_dropShadow_4828_26725" result="shape"/>
</filter>
<filter id="filter1_d_4828_26725" x="40.5664" y="71.041" width="59.5" height="48.6873" filterUnits="userSpaceOnUse" color-interpolation-filters="sRGB">
<feFlood flood-opacity="0" result="BackgroundImageFix"/>
<feColorMatrix in="SourceAlpha" type="matrix" values="0 0 0 0 0 0 0 0 0 0 0 0 0 0 0 0 0 0 127 0" result="hardAlpha"/>
<feOffset dy="11"/>
<feGaussianBlur stdDeviation="11"/>
<feColorMatrix type="matrix" values="0 0 0 0 0.397708 0 0 0 0 0.47749 0 0 0 0 0.575 0 0 0 0.27 0"/>
<feBlend mode="normal" in2="BackgroundImageFix" result="effect1_dropShadow_4828_26725"/>
<feBlend mode="normal" in="SourceGraphic" in2="effect1_dropShadow_4828_26725" result="shape"/>
</filter>
<linearGradient id="paint0_linear_4828_26725" x1="53.286" y1="59.4418" x2="53.286" y2="71.9812" gradientUnits="userSpaceOnUse">
<stop stop-color="#B0BACC"/>
<stop offset="1" stop-color="#969EAE"/>
</linearGradient>
<linearGradient id="paint1_linear_4828_26725" x1="87.3524" y1="59.4418" x2="87.3524" y2="71.9812" gradientUnits="userSpaceOnUse">
<stop stop-color="#B0BACC"/>
<stop offset="1" stop-color="#969EAE"/>
</linearGradient>
<linearGradient id="paint2_linear_4828_26725" x1="70.2719" y1="13.4815" x2="70.2719" y2="84.978" gradientUnits="userSpaceOnUse">
<stop stop-color="#FDFEFF"/>
<stop offset="0.9964" stop-color="#ECF0F5"/>
</linearGradient>
<linearGradient id="paint3_linear_4828_26725" x1="70.3123" y1="81.9326" x2="70.3123" y2="86.7787" gradientUnits="userSpaceOnUse">
<stop stop-color="#FDFEFF"/>
<stop offset="0.9964" stop-color="#ECF0F5"/>
</linearGradient>
<linearGradient id="paint4_linear_4828_26725" x1="70.286" y1="58.4722" x2="70.286" y2="71.0799" gradientUnits="userSpaceOnUse">
<stop stop-color="#B0BACC"/>
<stop offset="1" stop-color="#969EAE"/>
</linearGradient>
</defs>
</svg>
