<svg width="25" height="24" viewBox="0 0 25 24" fill="none" xmlns="http://www.w3.org/2000/svg">
<path d="M23.2647 13.6003V7.21062C23.2647 6.46934 22.8561 5.79023 22.1802 5.48583C20.2042 4.59587 15.8642 2.90309 12.0009 3.20026C8.46378 3.47235 6.59235 5.96543 5.75718 7.53206C5.36565 8.26648 5.64612 9.13269 6.31297 9.63066V9.63066C6.93917 10.0983 7.78264 10.1513 8.46248 9.7658L12.5496 7.44822C12.6978 7.36417 12.884 7.3903 13.0034 7.5119L21.8237 16.4968C22.4345 17.1191 22.4622 18.1071 21.887 18.7626V18.7626C21.2852 19.4484 20.2435 19.5225 19.5507 18.9286L15.2009 15.2003" stroke="#4B5563" stroke-width="1.5" stroke-linecap="round"/>
<path d="M8.04098 4.40017L1.91061 3.72279C1.31844 3.65736 0.800781 4.12098 0.800781 4.71675V14.1524C0.800781 15.0879 1.12425 15.9937 1.76553 16.6747C3.82142 18.8581 8.6952 23.4552 11.7498 21.6002" stroke="#4B5563" stroke-width="1.5" stroke-linecap="round"/>
<path d="M15.2008 15.2004L18.1886 17.8206C18.8125 18.3677 18.8924 19.3101 18.3695 19.9544V19.9544C17.8174 20.6346 16.8106 20.7198 16.1521 20.1419L12.8008 17.2004" stroke="#4B5563" stroke-width="1.5" stroke-linecap="round"/>
<path d="M12.801 17.2004L14.8278 18.9739C15.4803 19.5448 15.558 20.532 15.003 21.198V21.198C14.4464 21.8659 13.4577 21.9658 12.7787 21.4226L10.001 19.2004" stroke="#4B5563" stroke-width="1.5" stroke-linecap="round"/>
</svg>
