<svg width="643" height="435" viewBox="0 0 643 435" fill="none" xmlns="http://www.w3.org/2000/svg">
<mask id="mask0_5575_49058" style="mask-type:alpha" maskUnits="userSpaceOnUse" x="0" y="0" width="643" height="435">
<path fill-rule="evenodd" clip-rule="evenodd" d="M311.911 4.75851C376.488 10.5365 441.453 24.5871 486.979 70.672C532.226 116.474 565.422 136.63 576.5 200C591.354 284.971 684.933 320.532 620.5 378C555.44 436.027 412.441 441.494 326.5 426.5C265.42 415.843 188.147 455.014 136.938 420.113C73.4843 376.867 7.63966 321.831 0.760493 245.44C-6.46483 165.205 38.5822 85.6018 102.371 36.2599C160.414 -8.63808 238.775 -1.78518 311.911 4.75851Z" fill="#EFF2F5"/>
</mask>
<g mask="url(#mask0_5575_49058)">
<rect x="-33" y="-20" width="774" height="473" fill="url(#paint0_linear_5575_49058)"/>
<g clip-path="url(#clip0_5575_49058)">
<path d="M121.024 375.152H195.742V381.209H121.024V375.152Z" fill="#E0E4EB"/>
<path d="M125.643 361.579C126.272 359.652 128.068 358.347 130.095 358.347H186.867C188.894 358.347 190.691 359.652 191.319 361.579L195.742 375.152H121.22L125.643 361.579Z" fill="#E0E4EB"/>
<path d="M97.947 117.609V140.472H311.93L291.196 119.563L97.947 117.609Z" stroke="#DBDFE6" stroke-width="3.12154" stroke-miterlimit="10" stroke-linejoin="round"/>
<path d="M219.411 140.472V119.563L243.274 140.472V119.563L267.333 140.472V119.563L291.195 140.472V120.345V119.563" stroke="#DBDFE6" stroke-width="3.12154" stroke-miterlimit="10" stroke-linejoin="round"/>
<path d="M123.57 140.472V118" stroke="#DBDFE6" stroke-width="3.12154" stroke-miterlimit="10" stroke-linejoin="round"/>
<path d="M195.352 119.563V140.472L171.489 119.563" stroke="#DBDFE6" stroke-width="3.12154" stroke-miterlimit="10" stroke-linejoin="round"/>
<path d="M171.492 119.563V140.472" stroke="#DBDFE6" stroke-width="3.12154" stroke-miterlimit="10" stroke-linejoin="round"/>
<path d="M145.674 348.577H171.297V96.3101L158.388 84.3905L145.674 96.3101V348.577Z" stroke="#DBDFE6" stroke-width="3.12154" stroke-miterlimit="10" stroke-linejoin="round"/>
<path d="M171.297 97.6781H145.674" stroke="#DBDFE6" stroke-width="3.12154" stroke-miterlimit="10"/>
<path d="M171.297 162.161H145.674" stroke="#DBDFE6" stroke-width="3.12154" stroke-miterlimit="10" stroke-linejoin="round"/>
<path d="M171.297 182.874H145.674" stroke="#DBDFE6" stroke-width="3.12154" stroke-miterlimit="10"/>
<path d="M171.297 203.392H145.674" stroke="#DBDFE6" stroke-width="3.12154" stroke-miterlimit="10"/>
<path d="M171.297 224.105H145.674" stroke="#DBDFE6" stroke-width="3.12154" stroke-miterlimit="10"/>
<path d="M171.297 244.817H145.674" stroke="#DBDFE6" stroke-width="3.12154" stroke-miterlimit="10"/>
<path d="M171.297 265.53H145.674" stroke="#DBDFE6" stroke-width="3.12154" stroke-miterlimit="10"/>
<path d="M171.297 286.047H145.674" stroke="#DBDFE6" stroke-width="3.12154" stroke-miterlimit="10"/>
<path d="M171.297 306.76H145.674" stroke="#DBDFE6" stroke-width="3.12154" stroke-miterlimit="10"/>
<path d="M171.297 327.473H145.674" stroke="#DBDFE6" stroke-width="3.12154" stroke-miterlimit="10"/>
<path d="M272.227 119.368L158.389 84.3905L104.209 117.805" stroke="#DBDFE6" stroke-width="3.12154" stroke-miterlimit="10" stroke-linejoin="round"/>
<path d="M171.492 140.471L145.673 118.391" stroke="#DBDFE6" stroke-width="3.12154" stroke-miterlimit="10" stroke-linejoin="round"/>
<path d="M146.457 141.253L170.711 161.38" stroke="#DBDFE6" stroke-width="3.12154" stroke-miterlimit="10" stroke-linejoin="round"/>
<path d="M146.457 98.0688L170.906 117.609" stroke="#DBDFE6" stroke-width="3.12154" stroke-miterlimit="10" stroke-linejoin="round"/>
<path d="M124.353 118.391L144.695 140.08" stroke="#DBDFE6" stroke-width="3.12154" stroke-miterlimit="10" stroke-linejoin="round"/>
<path d="M122.984 140.08L98.1436 118.391" stroke="#DBDFE6" stroke-width="3.12154" stroke-miterlimit="10" stroke-linejoin="round"/>
<path d="M196.139 119.368L218.633 139.494" stroke="#DBDFE6" stroke-width="3.12154" stroke-miterlimit="10" stroke-linejoin="round"/>
<path d="M146.653 162.748L170.711 182.093" stroke="#DBDFE6" stroke-width="3.12154" stroke-miterlimit="10" stroke-linejoin="round"/>
<path d="M146.653 183.656L170.711 202.61" stroke="#DBDFE6" stroke-width="3.12154" stroke-miterlimit="10" stroke-linejoin="round"/>
<path d="M146.457 204.173L170.711 223.323" stroke="#DBDFE6" stroke-width="3.12154" stroke-miterlimit="10" stroke-linejoin="round"/>
<path d="M146.457 225.082L170.711 244.036" stroke="#DBDFE6" stroke-width="3.12154" stroke-miterlimit="10" stroke-linejoin="round"/>
<path d="M146.457 245.599L170.711 264.553" stroke="#DBDFE6" stroke-width="3.12154" stroke-miterlimit="10" stroke-linejoin="round"/>
<path d="M146.457 266.116L170.711 285.266" stroke="#DBDFE6" stroke-width="3.12154" stroke-miterlimit="10" stroke-linejoin="round"/>
<path d="M146.457 286.829L170.711 305.979" stroke="#DBDFE6" stroke-width="3.12154" stroke-miterlimit="10" stroke-linejoin="round"/>
<path d="M146.457 307.542L170.711 326.691" stroke="#DBDFE6" stroke-width="3.12154" stroke-miterlimit="10" stroke-linejoin="round"/>
<path d="M146.457 328.45L170.711 347.404" stroke="#DBDFE6" stroke-width="3.12154" stroke-miterlimit="10" stroke-linejoin="round"/>
<path d="M133.932 348.381H182.847C184.571 348.381 185.969 349.779 185.969 351.503V358.347H130.811V351.503C130.811 349.779 132.208 348.381 133.932 348.381Z" fill="#E0E4EB"/>
<path d="M199.263 159.426L184.593 174.081C183.615 175.058 182.246 175.644 181.073 175.644H144.3V141.253H201.023V155.713C200.632 157.276 200.241 158.449 199.263 159.426Z" fill="#E7EBF2"/>
<path d="M165.847 156.864L151.756 156.864C150.894 156.864 150.195 156.165 150.195 155.303L150.195 148.459C150.195 147.597 150.894 146.899 151.756 146.899L165.847 146.899C166.709 146.899 167.408 147.597 167.408 148.459L167.408 155.303C167.408 156.165 166.709 156.864 165.847 156.864Z" fill="white"/>
<path d="M188.097 156.864L174.006 156.864C173.144 156.864 172.445 156.165 172.445 155.303L172.445 148.459C172.445 147.597 173.144 146.898 174.006 146.898L188.097 146.898C188.959 146.898 189.658 147.597 189.658 148.459L189.658 155.303C189.658 156.165 188.959 156.864 188.097 156.864Z" fill="white"/>
<path d="M101.779 320.117H94.1094V382.646H101.779V320.117Z" fill="#B9C0D0"/>
<path d="M156.208 320.117H148.539V382.646H156.208V320.117Z" fill="#B9C0D0"/>
<path d="M387.765 380.422C366.984 380.916 342.244 380.422 324.679 380.174C307.114 380.669 282.375 380.916 261.594 380.422C282.127 368.806 289.055 347.303 290.291 332.969H358.82C360.304 347.303 367.231 368.806 387.765 380.422Z" fill="url(#paint1_linear_5575_49058)"/>
<path d="M453.574 153.043V330.744C453.574 335.193 450.11 338.406 445.905 338.406H203.458C199.253 338.406 195.789 334.946 195.789 330.744V153.043C195.789 148.842 199.253 145.382 203.458 145.382H445.905C450.11 145.382 453.574 148.595 453.574 153.043Z" fill="#E8EDF8"/>
<path d="M453.577 153.043V306.277H196.039V153.043C196.039 148.842 199.503 145.382 203.708 145.382H446.155C450.113 145.382 453.577 148.595 453.577 153.043Z" fill="#B9C0D0"/>
<path d="M444.418 154.773H205.188V297.379H444.17V154.773H444.418Z" fill="white"/>
<path d="M324.682 328.52C328.235 328.52 331.115 325.643 331.115 322.094C331.115 318.545 328.235 315.668 324.682 315.668C321.13 315.668 318.25 318.545 318.25 322.094C318.25 325.643 321.13 328.52 324.682 328.52Z" fill="#B9C0D0"/>
<path d="M595.008 327.037H588.328V381.905H595.008V327.037Z" fill="#B9C0D0"/>
<path d="M642.758 327.037H636.078V381.905H642.758V327.037Z" fill="#B9C0D0"/>
<path d="M651.166 329.509H580.906V352H651.166V329.509Z" fill="#E8EDF8"/>
<path d="M597.974 329.509L590.552 352H582.141L589.315 329.509H597.974Z" fill="url(#paint2_linear_5575_49058)"/>
<path d="M615.044 329.509L607.622 352H599.211L606.385 329.509H615.044Z" fill="#FFA724"/>
<path d="M632.114 329.509L624.693 352H616.281L623.456 329.509H632.114Z" fill="url(#paint3_linear_5575_49058)"/>
<path d="M649.185 329.509L641.763 352H633.352L640.526 329.509H649.185Z" fill="#FFA724"/>
<path d="M165.851 323.083H85.6953V348.786H165.851V323.083Z" fill="#E8EDF8"/>
<path d="M104.997 323.083L96.5859 348.539H86.9375L95.3489 323.083H104.997Z" fill="#FFA724"/>
<path d="M124.536 323.083L116.125 348.539H106.477L114.641 323.083H124.536Z" fill="url(#paint4_linear_5575_49058)"/>
<path d="M144.083 323.083L135.672 348.539H126.023L134.187 323.083H144.083Z" fill="#FFA724"/>
<path d="M163.63 323.083L155.219 348.539H145.57L153.734 323.083H163.63Z" fill="url(#paint5_linear_5575_49058)"/>
<path d="M506.266 314.185H538.674" stroke="#BBC1CF" stroke-width="3.12154" stroke-miterlimit="10"/>
<path d="M537.685 315.42L507.008 339.394" stroke="#BBC1CF" stroke-width="3.12154" stroke-miterlimit="10" stroke-linejoin="round"/>
<path d="M248.239 288.729H217.562C215.089 288.729 213.109 286.752 213.109 284.28V166.143C213.109 163.671 215.089 161.694 217.562 161.694H248.239C250.713 161.694 252.692 163.671 252.692 166.143V284.28C252.692 286.752 250.713 288.729 248.239 288.729Z" fill="#E8EDF8"/>
<path d="M246.013 205.289H219.789C219.294 205.289 219.047 205.042 219.047 204.548V202.57C219.047 202.076 219.294 201.829 219.789 201.829H245.765C246.26 201.829 246.508 202.076 246.508 202.57V204.548C246.755 205.042 246.26 205.289 246.013 205.289Z" fill="url(#paint6_linear_5575_49058)"/>
<path d="M246.013 215.67H219.789C219.294 215.67 219.047 215.423 219.047 214.928V212.951C219.047 212.457 219.294 212.21 219.789 212.21H245.765C246.26 212.21 246.508 212.457 246.508 212.951V214.928C246.755 215.423 246.26 215.67 246.013 215.67Z" fill="url(#paint7_linear_5575_49058)"/>
<path d="M246.013 226.297H219.789C219.294 226.297 219.047 226.05 219.047 225.555V223.578C219.047 223.084 219.294 222.837 219.789 222.837H245.765C246.26 222.837 246.508 223.084 246.508 223.578V225.555C246.755 225.803 246.26 226.297 246.013 226.297Z" fill="url(#paint8_linear_5575_49058)"/>
<path d="M246.013 242.678H219.789C219.294 242.678 219.047 242.43 219.047 241.936V239.959C219.047 239.465 219.294 239.218 219.789 239.218H245.765C246.26 239.218 246.508 239.465 246.508 239.959V241.936C246.755 242.183 246.26 242.678 246.013 242.678Z" fill="url(#paint9_linear_5575_49058)"/>
<path d="M246.013 253.057H219.789C219.294 253.057 219.047 252.81 219.047 252.316V250.338C219.047 249.844 219.294 249.597 219.789 249.597H245.765C246.26 249.597 246.508 249.844 246.508 250.338V252.316C246.755 252.81 246.26 253.057 246.013 253.057Z" fill="url(#paint10_linear_5575_49058)"/>
<g filter="url(#filter0_d_5575_49058)">
<path d="M311.562 286.251H262.866C262.085 286.251 261.461 285.627 261.461 284.846V249.885C261.461 249.105 262.085 248.48 262.866 248.48H311.562C312.342 248.48 312.966 249.105 312.966 249.885V284.846C312.966 285.627 312.342 286.251 311.562 286.251Z" fill="white"/>
</g>
<g filter="url(#filter1_d_5575_49058)">
<path d="M368.687 286.251H319.991C319.21 286.251 318.586 285.627 318.586 284.846V249.885C318.586 249.105 319.21 248.48 319.991 248.48H368.687C369.467 248.48 370.091 249.105 370.091 249.885V284.846C370.247 285.627 369.623 286.251 368.687 286.251Z" fill="white"/>
</g>
<path d="M285.495 276.262C281.125 276.262 277.379 272.672 277.379 268.302C277.379 264.088 280.5 260.81 284.402 260.342V256.596C278.471 257.064 273.633 262.215 273.633 268.458C273.633 275.013 278.939 280.32 285.495 280.32C288.772 280.32 291.738 279.071 293.767 276.886L290.957 274.233C289.553 275.638 287.524 276.262 285.495 276.262ZM286.431 256.44V260.186C290.177 260.654 292.986 263.464 293.455 267.053H297.357C296.888 261.435 292.206 256.908 286.431 256.44Z" fill="#3579FC" fill-opacity="0.2"/>
<path d="M297.355 267.209H293.609C293.141 263.464 290.176 260.654 286.586 260.342V256.596C292.205 256.908 296.887 261.435 297.355 267.209Z" fill="#3579FC"/>
<path d="M366.03 253.475H322.797V259.25H366.03V253.475Z" fill="#E6EDF5"/>
<path d="M347.924 255.348H336.062V257.065H347.924V255.348Z" fill="#CED7E2"/>
<path d="M359.792 255.348H355.578V257.065H359.792V255.348Z" fill="#CED7E2"/>
<path d="M366.03 264.4H322.797V270.175H366.03V264.4Z" fill="#E6EDF5"/>
<path d="M345.897 266.585H337.625V268.302H345.897V266.585Z" fill="#CED7E2"/>
<path d="M364.468 266.585H357.133V268.302H364.468V266.585Z" fill="#CED7E2"/>
<path d="M366.03 275.482H322.797V281.256H366.03V275.482Z" fill="#E6EDF5"/>
<path d="M349.797 277.51H336.062V279.227H349.797V277.51Z" fill="#CED7E2"/>
<path d="M362.911 277.51H360.57V279.227H362.911V277.51Z" fill="#CED7E2"/>
<g filter="url(#filter2_d_5575_49058)">
<path d="M426.28 286.251H377.584C376.804 286.251 376.18 285.627 376.18 284.846V249.885C376.18 249.105 376.804 248.48 377.584 248.48H426.28C427.061 248.48 427.685 249.105 427.685 249.885V284.846C427.685 285.47 427.061 286.251 426.28 286.251Z" fill="white"/>
</g>
<path d="M422 282H380V258C382.194 258.144 384.388 258.287 386.425 258.862C387.366 259.15 387.993 259.437 388.619 260.012C388.933 260.299 388.933 260.443 388.933 260.587C389.246 261.305 389.873 261.737 390.97 261.88L391.91 262.024C393.791 262.168 395.201 263.174 395.358 264.323L395.672 266.335C397.709 266.766 397.866 266.766 399.746 267.198C400.06 267.341 400.06 267.198 400.216 267.054C400.373 266.91 400.53 266.91 400.687 266.91C401 266.91 401 266.91 401.313 266.766C401.627 266.623 401.94 266.623 402.097 266.91C402.881 267.916 404.448 268.491 405.388 269.353C406.485 270.359 408.366 270.216 409.619 270.216C409.933 270.216 410.403 270.359 410.716 270.503C412.284 271.509 414.791 274.814 416.828 274.814C417.612 274.814 418.239 275.102 418.709 275.389C420.433 277.689 421.53 279.557 422 282Z" fill="#EAEEF9"/>
<path d="M421.061 282C420.597 279.857 419.514 278.143 417.813 276.286C417.658 276.143 417.194 276 416.73 276C414.874 276 413.327 274.429 411.781 273C411.162 272.429 410.543 271.857 410.079 271.571C409.924 271.429 409.615 271.429 409.615 271.429C409.306 271.429 409.151 271.429 408.842 271.429C407.604 271.429 405.903 271.286 404.665 270.286C404.356 269.857 403.892 269.571 403.273 269.286C402.655 268.857 402.036 268.571 401.572 268C401.417 268 401.108 268 400.953 268C400.799 268.143 400.18 268.429 399.406 268.143L398.478 267.857C397.55 267.714 397.086 267.571 395.54 267.286H395.076L394.766 264.571C394.766 263.857 393.683 263.286 392.446 263.143L391.518 263C390.126 262.857 388.888 262.143 388.579 261V260.857C388.115 260.429 387.651 260.143 387.032 260C385.176 259.429 383.011 259.286 381 259.143L381.155 257C383.32 257.143 385.64 257.286 387.806 258C388.888 258.286 389.817 258.857 390.435 259.571C390.59 259.714 390.899 260.143 391.054 260.714C391.209 261 391.518 261.143 391.982 261.143L392.91 261.286C395.385 261.429 397.086 262.857 397.396 264.571L397.55 265.714C398.478 265.857 398.942 266 399.716 266.143L400.644 266.286C400.953 266.143 401.263 266 401.572 266C401.727 266 401.727 266 401.881 266C402.655 265.714 403.583 266 404.047 266.571C404.356 266.857 404.975 267.286 405.439 267.571C406.058 268 406.676 268.286 407.14 268.857C407.604 269.286 408.687 269.286 409.77 269.429C410.079 269.429 410.234 269.429 410.543 269.429C411.162 269.429 411.626 269.714 412.09 269.857L412.245 270C412.863 270.429 413.637 271 414.255 271.714C415.183 272.714 416.73 274 417.504 274C418.432 274 419.36 274.286 420.133 274.857C422.299 277 423.536 279.143 424 281.714L421.061 282Z" fill="#989FB0"/>
<path d="M420.509 265.805H402.092C401.312 265.805 400.688 265.18 400.688 264.4V257.845C400.688 257.064 401.312 256.44 402.092 256.44H420.509C421.29 256.44 421.914 257.064 421.914 257.845V264.4C421.914 265.18 421.29 265.805 420.509 265.805Z" fill="#989FB0"/>
<path d="M418.164 259.094H404.585C404.273 259.094 404.117 259.406 404.117 259.562C404.117 259.718 404.273 260.186 404.429 260.186H418.008C418.32 260.186 418.476 259.874 418.476 259.718C418.476 259.562 418.32 259.094 418.164 259.094Z" fill="white"/>
<path d="M411.765 262.215H404.429C404.117 262.215 403.961 262.527 403.961 262.683C403.961 262.995 404.273 263.151 404.429 263.151H411.765C412.077 263.151 412.233 262.839 412.233 262.683C412.233 262.527 411.921 262.215 411.765 262.215Z" fill="white"/>
<path d="M298.312 150.446L350.683 140.037C354.521 139.215 358.36 140.037 361.376 141.954L401.682 165.237" stroke="#BBC1CF" stroke-width="3.12154" stroke-miterlimit="10" stroke-linejoin="round"/>
<g filter="url(#filter3_d_5575_49058)">
<path d="M400.552 263.72L276.241 244.981C272.387 244.468 269.817 240.874 270.331 237.024L282.921 147.437C283.435 143.586 287.033 141.019 290.887 141.533L415.198 160.272C419.053 160.785 421.622 164.379 421.108 168.229L408.518 257.816C408.004 261.41 404.406 264.234 400.552 263.72Z" fill="white"/>
</g>
<path d="M396.479 253.525L285.354 236.187C282.213 235.768 280.119 232.839 280.538 229.701L290.8 156.683C291.218 153.544 294.15 151.452 297.292 151.871L408.416 169.209C411.557 169.628 413.652 172.557 413.233 175.695L402.971 248.713C402.552 251.642 399.62 253.944 396.479 253.525Z" fill="#ECF0F7"/>
<path d="M59.4766 382.646H669.003" stroke="#CDD6E1" stroke-width="4.68231" stroke-miterlimit="10" stroke-linecap="round" stroke-linejoin="round"/>
<path d="M270.242 380.67H236.844L238.328 376.962L241.792 367.571L244.76 359.415L248.224 350.023L250.698 343.597C251.193 342.361 252.43 341.373 253.667 341.373C254.903 341.373 256.141 342.114 256.635 343.597L259.109 350.023L262.573 359.415L265.541 367.571L269.005 376.962L270.242 380.67Z" fill="#E8EDF8"/>
<path d="M262.583 359.415H244.781L248.127 350.27H259.19L262.583 359.415Z" fill="url(#paint11_linear_5575_49058)"/>
<path d="M268.997 376.963H238.32L241.784 367.571H265.534L268.997 376.963Z" fill="url(#paint12_linear_5575_49058)"/>
<path d="M270.242 380.67H236.596C235.607 380.67 234.617 379.929 234.617 378.693C234.617 377.704 235.359 376.716 236.596 376.716H270.242C271.232 376.716 272.221 377.457 272.221 378.693C272.221 379.929 271.479 380.67 270.242 380.67Z" fill="#E8EDF8"/>
<path d="M453.265 380.67H419.867L421.352 376.962L424.815 367.571L427.784 359.415L431.247 350.023L433.721 343.597C434.216 342.361 435.453 341.373 436.69 341.373C437.927 341.373 439.164 342.114 439.659 343.597L442.133 350.023L445.596 359.415L448.565 367.571L452.028 376.962L453.265 380.67Z" fill="#E8EDF8"/>
<path d="M445.606 359.415H427.805L431.15 350.27H442.213L445.606 359.415Z" fill="url(#paint13_linear_5575_49058)"/>
<path d="M452.021 376.963H421.344L424.807 367.571H448.557L452.021 376.963Z" fill="url(#paint14_linear_5575_49058)"/>
<path d="M453.265 380.67H419.62C418.63 380.67 417.641 379.929 417.641 378.693C417.641 377.704 418.383 376.716 419.62 376.716H453.265C454.255 376.716 455.245 377.457 455.245 378.693C455.245 379.929 454.502 380.67 453.265 380.67Z" fill="#E8EDF8"/>
<path d="M321.725 205.304C325.002 205.802 328.197 203.449 328.696 200.17C329.194 196.892 326.843 193.697 323.566 193.199C320.289 192.701 317.094 195.054 316.595 198.333C316.097 201.611 318.448 204.806 321.725 205.304Z" fill="#989FB0"/>
<path d="M368.123 212.354C371.401 212.852 374.596 210.499 375.094 207.221C375.593 203.942 373.242 200.747 369.964 200.249C366.687 199.752 363.492 202.105 362.994 205.383C362.457 208.914 364.846 211.857 368.123 212.354Z" fill="#989FB0"/>
<path d="M325.451 179.195L311.047 184.36L312.337 187.96L326.741 182.795L325.451 179.195Z" fill="#989FB0"/>
<path d="M371.28 186.061L368.977 189.117L381.197 198.325L383.5 195.269L371.28 186.061Z" fill="#989FB0"/>
<path d="M342.776 222.949C346.675 223.541 350.196 221.65 350.641 218.725C351.085 215.8 348.286 212.949 344.387 212.357C340.489 211.764 336.968 213.656 336.523 216.581C336.078 219.506 338.878 222.357 342.776 222.949Z" fill="#989FB0"/>
<path d="M235.359 405H564.017" stroke="#CDD6E1" stroke-width="4.68231" stroke-miterlimit="10" stroke-linecap="round" stroke-linejoin="round"/>
<path d="M128.461 405H169.995" stroke="#CDD6E1" stroke-width="4.68231" stroke-miterlimit="10" stroke-linecap="round" stroke-linejoin="round"/>
<path d="M241.221 178.111C241.221 180.093 240.515 181.897 239.333 183.31C237.846 185.093 235.61 186.221 233.1 186.221C230.695 186.221 228.544 185.177 227.057 183.521C225.78 182.087 225 180.188 225 178.111C225 173.628 228.628 170 233.111 170C237.593 170 241.221 173.628 241.221 178.111Z" fill="#DEE9FF"/>
<path d="M239.347 183.31C237.86 185.093 235.624 186.221 233.114 186.221C230.709 186.221 228.557 185.177 227.07 183.521C227.323 183.321 227.64 183.141 228.03 182.983L228.325 182.867C228.884 182.646 229.612 182.372 230.593 181.96C230.814 181.865 230.994 181.697 231.089 181.475C231.141 181.359 231.173 181.222 231.173 181.085V179.26C231.141 179.218 231.11 179.186 231.089 179.144C230.93 178.912 230.825 178.638 230.793 178.343L230.635 178.269C230.161 178.385 230.192 177.879 230.076 176.908C230.023 176.507 230.087 176.423 230.266 176.36L230.414 176.159C229.507 174.103 229.96 172.816 230.857 172.363C230.561 171.709 230.54 171.477 230.54 171.477C230.54 171.477 232.449 171.793 233.114 171.666C233.947 171.498 235.234 171.698 235.708 172.805C236.499 173.122 236.816 173.618 236.879 174.166C236.995 175.031 236.499 175.98 236.404 176.349C236.415 176.37 236.425 176.381 236.425 176.391C236.552 176.455 236.594 176.56 236.552 176.908C236.436 177.826 236.468 178.395 235.993 178.269L235.571 179.007C235.55 179.091 235.55 179.123 235.539 179.186C235.518 179.323 235.529 179.598 235.529 181.106C235.529 181.285 235.582 181.454 235.677 181.612C235.782 181.77 235.93 181.907 236.12 181.981C236.12 181.981 236.13 181.981 236.141 181.992C237.227 182.445 238.007 182.741 238.577 182.962C238.872 183.057 239.125 183.184 239.347 183.31Z" fill="white"/>
<path d="M236.423 176.339C236.465 176.107 236.36 175.822 236.275 175.622C236.265 175.59 236.244 175.558 236.233 175.516C235.864 174.778 235.052 174.482 234.272 174.44C232.278 174.335 232.099 174.714 231.477 174.145C231.666 174.44 231.688 174.894 231.392 175.463C231.181 175.864 230.781 176.043 230.433 176.159C229.525 174.103 229.979 172.816 230.875 172.363C230.58 171.709 230.559 171.477 230.559 171.477C230.559 171.477 232.468 171.793 233.122 171.666C233.955 171.498 235.242 171.698 235.717 172.805C236.508 173.122 236.813 173.618 236.887 174.166C237.003 175.02 236.518 175.959 236.423 176.339Z" fill="url(#paint15_linear_5575_49058)"/>
<path d="M235.695 181.591V181.95H231.086V181.486C231.139 181.37 231.17 181.232 231.17 181.095V179.26C231.139 179.218 231.107 179.186 231.086 179.144V179.039C231.181 179.207 231.307 179.366 231.466 179.492L232.911 180.494C233.248 180.779 233.733 180.789 234.081 180.515L235.431 179.302C235.473 179.26 235.526 179.218 235.568 179.176C235.547 179.313 235.558 179.587 235.558 181.095C235.547 181.275 235.6 181.454 235.695 181.591Z" fill="url(#paint16_linear_5575_49058)"/>
</g>
</g>
<path d="M356.094 76.427V106.579" stroke="#BBC1CF" stroke-width="3.12154" stroke-miterlimit="10" stroke-linejoin="round"/>
<path d="M356.22 119.678C361.07 119.678 365.002 115.75 365.002 110.904C365.002 106.059 361.07 102.13 356.22 102.13C351.37 102.13 347.438 106.059 347.438 110.904C347.438 115.75 351.37 119.678 356.22 119.678Z" fill="#B9C0D0"/>
<path d="M347.688 134.26C347.688 139.697 352.635 144.146 358.573 142.663C361.789 141.922 364.263 139.45 365.005 136.237C365.995 131.541 363.273 127.093 359.068 125.857C357.583 125.363 356.594 124.127 356.594 122.397V114.735" stroke="#BBC1CF" stroke-width="3.12154" stroke-miterlimit="10" stroke-linejoin="round"/>
<path d="M569.848 374.49H475.344V382.151H569.848V374.49Z" fill="url(#paint17_linear_5575_49058)"/>
<path d="M563.727 356.467C563.099 354.539 561.302 353.235 559.275 353.235H485.669C483.643 353.235 481.846 354.539 481.218 356.467L475.344 374.49H569.601L563.727 356.467Z" fill="#CAD0DD"/>
<path d="M599.04 48.7452V77.6618H328.391L354.614 51.2167L599.04 48.7452Z" stroke="#BBC1CF" stroke-width="3.12154" stroke-miterlimit="10" stroke-linejoin="round"/>
<path d="M445.411 77.6619V51.2168L415.229 77.6619V51.2168L384.799 77.6619V51.2168L354.617 77.6619V52.2054V51.2168" stroke="#BBC1CF" stroke-width="3.12154" stroke-miterlimit="10" stroke-linejoin="round"/>
<path d="M566.633 77.6619V49.2396" stroke="#BBC1CF" stroke-width="3.12154" stroke-miterlimit="10" stroke-linejoin="round"/>
<path d="M475.836 51.2168V77.6619L506.018 51.2168" stroke="#BBC1CF" stroke-width="3.12154" stroke-miterlimit="10" stroke-linejoin="round"/>
<path d="M506.023 51.2168V77.6619" stroke="#BBC1CF" stroke-width="3.12154" stroke-miterlimit="10" stroke-linejoin="round"/>
<path d="M538.674 340.877H506.266V21.8059L522.594 6.72974L538.674 21.8059V340.877Z" stroke="#BBC1CF" stroke-width="3.12154" stroke-miterlimit="10" stroke-linejoin="round"/>
<path d="M506.266 23.5364H538.674" stroke="#BBC1CF" stroke-width="3.12154" stroke-miterlimit="10"/>
<path d="M506.266 105.096H538.674" stroke="#BBC1CF" stroke-width="3.12154" stroke-miterlimit="10" stroke-linejoin="round"/>
<path d="M506.266 131.293H538.674" stroke="#BBC1CF" stroke-width="3.12154" stroke-miterlimit="10"/>
<path d="M506.266 157.244H538.674" stroke="#BBC1CF" stroke-width="3.12154" stroke-miterlimit="10"/>
<path d="M506.266 183.443H538.674" stroke="#BBC1CF" stroke-width="3.12154" stroke-miterlimit="10"/>
<path d="M506.266 209.641H538.674" stroke="#BBC1CF" stroke-width="3.12154" stroke-miterlimit="10"/>
<path d="M506.266 235.838H538.674" stroke="#BBC1CF" stroke-width="3.12154" stroke-miterlimit="10"/>
<path d="M506.266 261.789H538.674" stroke="#BBC1CF" stroke-width="3.12154" stroke-miterlimit="10"/>
<path d="M506.266 287.987H538.674" stroke="#BBC1CF" stroke-width="3.12154" stroke-miterlimit="10"/>
<path d="M378.609 50.9697L522.593 6.72974L591.121 48.9925" stroke="#BBC1CF" stroke-width="3.12154" stroke-miterlimit="10" stroke-linejoin="round"/>
<path d="M506.023 77.6616L538.679 49.7336" stroke="#BBC1CF" stroke-width="3.12154" stroke-miterlimit="10" stroke-linejoin="round"/>
<path d="M537.685 78.6506L507.008 104.107" stroke="#BBC1CF" stroke-width="3.12154" stroke-miterlimit="10" stroke-linejoin="round"/>
<path d="M537.69 24.0303L506.766 48.7453" stroke="#BBC1CF" stroke-width="3.12154" stroke-miterlimit="10" stroke-linejoin="round"/>
<path d="M565.643 49.7336L539.914 77.1673" stroke="#BBC1CF" stroke-width="3.12154" stroke-miterlimit="10" stroke-linejoin="round"/>
<path d="M567.375 77.1673L598.794 49.7336" stroke="#BBC1CF" stroke-width="3.12154" stroke-miterlimit="10" stroke-linejoin="round"/>
<path d="M474.849 50.9694L446.398 76.4258" stroke="#BBC1CF" stroke-width="3.12154" stroke-miterlimit="10" stroke-linejoin="round"/>
<path d="M537.437 105.837L507.008 130.305" stroke="#BBC1CF" stroke-width="3.12154" stroke-miterlimit="10" stroke-linejoin="round"/>
<path d="M537.437 132.282L507.008 156.256" stroke="#BBC1CF" stroke-width="3.12154" stroke-miterlimit="10" stroke-linejoin="round"/>
<path d="M537.685 158.233L507.008 182.454" stroke="#BBC1CF" stroke-width="3.12154" stroke-miterlimit="10" stroke-linejoin="round"/>
<path d="M537.685 184.678L507.008 208.652" stroke="#BBC1CF" stroke-width="3.12154" stroke-miterlimit="10" stroke-linejoin="round"/>
<path d="M537.685 210.629L507.008 234.603" stroke="#BBC1CF" stroke-width="3.12154" stroke-miterlimit="10" stroke-linejoin="round"/>
<path d="M537.685 236.58L507.008 260.8" stroke="#BBC1CF" stroke-width="3.12154" stroke-miterlimit="10" stroke-linejoin="round"/>
<path d="M537.685 262.778L507.008 286.999" stroke="#BBC1CF" stroke-width="3.12154" stroke-miterlimit="10" stroke-linejoin="round"/>
<path d="M537.685 288.975L507.008 313.196" stroke="#BBC1CF" stroke-width="3.12154" stroke-miterlimit="10" stroke-linejoin="round"/>
<path d="M554.355 340.63H490.832C489.108 340.63 487.711 342.028 487.711 343.752V353.235H557.476V343.752C557.476 342.028 556.079 340.63 554.355 340.63Z" fill="url(#paint18_linear_5575_49058)"/>
<path d="M470.891 101.636L489.445 120.172C490.682 121.408 492.414 122.149 493.898 122.149H540.408V78.651H468.664V96.9401C469.159 98.9173 469.654 100.4 470.891 101.636Z" fill="#B9C0D0"/>
<path d="M512.743 98.3956L531.392 98.3956C532.254 98.3956 532.953 97.6968 532.953 96.8349L532.953 87.3517C532.953 86.4897 532.254 85.791 531.392 85.791L512.743 85.791C511.881 85.791 511.182 86.4897 511.182 87.3517L511.182 96.8349C511.182 97.6968 511.881 98.3956 512.743 98.3956Z" fill="white"/>
<path d="M484.603 98.3956L503.252 98.3956C504.114 98.3956 504.812 97.6968 504.812 96.8349L504.812 87.3517C504.812 86.4897 504.114 85.791 503.252 85.791L484.603 85.791C483.741 85.791 483.042 86.4897 483.042 87.3517L483.042 96.8349C483.042 97.6968 483.741 98.3956 484.603 98.3956Z" fill="white"/>
<defs>
<filter id="filter0_d_5575_49058" x="255.218" y="245.359" width="63.994" height="50.2568" filterUnits="userSpaceOnUse" color-interpolation-filters="sRGB">
<feFlood flood-opacity="0" result="BackgroundImageFix"/>
<feColorMatrix in="SourceAlpha" type="matrix" values="0 0 0 0 0 0 0 0 0 0 0 0 0 0 0 0 0 0 127 0" result="hardAlpha"/>
<feOffset dy="3.12154"/>
<feGaussianBlur stdDeviation="3.12154"/>
<feComposite in2="hardAlpha" operator="out"/>
<feColorMatrix type="matrix" values="0 0 0 0 0.396078 0 0 0 0 0.478431 0 0 0 0 0.576471 0 0 0 0.12 0"/>
<feBlend mode="normal" in2="BackgroundImageFix" result="effect1_dropShadow_5575_49058"/>
<feBlend mode="normal" in="SourceGraphic" in2="effect1_dropShadow_5575_49058" result="shape"/>
</filter>
<filter id="filter1_d_5575_49058" x="312.343" y="245.359" width="64.0174" height="50.2568" filterUnits="userSpaceOnUse" color-interpolation-filters="sRGB">
<feFlood flood-opacity="0" result="BackgroundImageFix"/>
<feColorMatrix in="SourceAlpha" type="matrix" values="0 0 0 0 0 0 0 0 0 0 0 0 0 0 0 0 0 0 127 0" result="hardAlpha"/>
<feOffset dy="3.12154"/>
<feGaussianBlur stdDeviation="3.12154"/>
<feComposite in2="hardAlpha" operator="out"/>
<feColorMatrix type="matrix" values="0 0 0 0 0.396078 0 0 0 0 0.478431 0 0 0 0 0.576471 0 0 0 0.12 0"/>
<feBlend mode="normal" in2="BackgroundImageFix" result="effect1_dropShadow_5575_49058"/>
<feBlend mode="normal" in="SourceGraphic" in2="effect1_dropShadow_5575_49058" result="shape"/>
</filter>
<filter id="filter2_d_5575_49058" x="369.937" y="245.359" width="63.994" height="50.2568" filterUnits="userSpaceOnUse" color-interpolation-filters="sRGB">
<feFlood flood-opacity="0" result="BackgroundImageFix"/>
<feColorMatrix in="SourceAlpha" type="matrix" values="0 0 0 0 0 0 0 0 0 0 0 0 0 0 0 0 0 0 127 0" result="hardAlpha"/>
<feOffset dy="3.12154"/>
<feGaussianBlur stdDeviation="3.12154"/>
<feComposite in2="hardAlpha" operator="out"/>
<feColorMatrix type="matrix" values="0 0 0 0 0.396078 0 0 0 0 0.478431 0 0 0 0 0.576471 0 0 0 0.12 0"/>
<feBlend mode="normal" in2="BackgroundImageFix" result="effect1_dropShadow_5575_49058"/>
<feBlend mode="normal" in="SourceGraphic" in2="effect1_dropShadow_5575_49058" result="shape"/>
</filter>
<filter id="filter3_d_5575_49058" x="252.714" y="135.617" width="186.009" height="157.416" filterUnits="userSpaceOnUse" color-interpolation-filters="sRGB">
<feFlood flood-opacity="0" result="BackgroundImageFix"/>
<feColorMatrix in="SourceAlpha" type="matrix" values="0 0 0 0 0 0 0 0 0 0 0 0 0 0 0 0 0 0 127 0" result="hardAlpha"/>
<feOffset dy="11.7011"/>
<feGaussianBlur stdDeviation="8.7758"/>
<feColorMatrix type="matrix" values="0 0 0 0 0.397708 0 0 0 0 0.47749 0 0 0 0 0.575 0 0 0 0.16 0"/>
<feBlend mode="normal" in2="BackgroundImageFix" result="effect1_dropShadow_5575_49058"/>
<feBlend mode="normal" in="SourceGraphic" in2="effect1_dropShadow_5575_49058" result="shape"/>
</filter>
<linearGradient id="paint0_linear_5575_49058" x1="120" y1="154.5" x2="554.5" y2="442" gradientUnits="userSpaceOnUse">
<stop stop-color="#F5F8FD"/>
<stop offset="1" stop-color="#F5F8FD" stop-opacity="0"/>
</linearGradient>
<linearGradient id="paint1_linear_5575_49058" x1="324.79" y1="379.243" x2="324.79" y2="336.785" gradientUnits="userSpaceOnUse">
<stop stop-color="#F5F8FF"/>
<stop offset="0.9913" stop-color="#D8E0EB"/>
</linearGradient>
<linearGradient id="paint2_linear_5575_49058" x1="590.057" y1="329.509" x2="590.057" y2="352" gradientUnits="userSpaceOnUse">
<stop stop-color="#E3E8F0"/>
<stop offset="1" stop-color="#CCD3DE"/>
</linearGradient>
<linearGradient id="paint3_linear_5575_49058" x1="624.198" y1="329.509" x2="624.198" y2="352" gradientUnits="userSpaceOnUse">
<stop stop-color="#E3E8F0"/>
<stop offset="1" stop-color="#CCD3DE"/>
</linearGradient>
<linearGradient id="paint4_linear_5575_49058" x1="115.506" y1="323.083" x2="115.506" y2="348.539" gradientUnits="userSpaceOnUse">
<stop stop-color="#E3E8F0"/>
<stop offset="1" stop-color="#CCD3DE"/>
</linearGradient>
<linearGradient id="paint5_linear_5575_49058" x1="154.6" y1="323.083" x2="154.6" y2="348.539" gradientUnits="userSpaceOnUse">
<stop stop-color="#E3E8F0"/>
<stop offset="1" stop-color="#CCD3DE"/>
</linearGradient>
<linearGradient id="paint6_linear_5575_49058" x1="241.421" y1="201.829" x2="224.078" y2="201.829" gradientUnits="userSpaceOnUse">
<stop stop-color="#E3E8F0"/>
<stop offset="1" stop-color="#CCD3DE"/>
</linearGradient>
<linearGradient id="paint7_linear_5575_49058" x1="241.421" y1="212.21" x2="224.078" y2="212.21" gradientUnits="userSpaceOnUse">
<stop stop-color="#E3E8F0"/>
<stop offset="1" stop-color="#CCD3DE"/>
</linearGradient>
<linearGradient id="paint8_linear_5575_49058" x1="241.421" y1="222.837" x2="224.078" y2="222.837" gradientUnits="userSpaceOnUse">
<stop stop-color="#E3E8F0"/>
<stop offset="1" stop-color="#CCD3DE"/>
</linearGradient>
<linearGradient id="paint9_linear_5575_49058" x1="241.421" y1="239.218" x2="224.078" y2="239.218" gradientUnits="userSpaceOnUse">
<stop stop-color="#E3E8F0"/>
<stop offset="1" stop-color="#CCD3DE"/>
</linearGradient>
<linearGradient id="paint10_linear_5575_49058" x1="241.421" y1="249.597" x2="224.078" y2="249.597" gradientUnits="userSpaceOnUse">
<stop stop-color="#E3E8F0"/>
<stop offset="1" stop-color="#CCD3DE"/>
</linearGradient>
<linearGradient id="paint11_linear_5575_49058" x1="259.25" y1="350.27" x2="248.034" y2="350.27" gradientUnits="userSpaceOnUse">
<stop stop-color="#E3E8F0"/>
<stop offset="1" stop-color="#CCD3DE"/>
</linearGradient>
<linearGradient id="paint12_linear_5575_49058" x1="263.254" y1="367.571" x2="243.926" y2="367.571" gradientUnits="userSpaceOnUse">
<stop stop-color="#E3E8F0"/>
<stop offset="1" stop-color="#CCD3DE"/>
</linearGradient>
<linearGradient id="paint13_linear_5575_49058" x1="442.274" y1="350.27" x2="431.058" y2="350.27" gradientUnits="userSpaceOnUse">
<stop stop-color="#E3E8F0"/>
<stop offset="1" stop-color="#CCD3DE"/>
</linearGradient>
<linearGradient id="paint14_linear_5575_49058" x1="446.277" y1="367.571" x2="426.95" y2="367.571" gradientUnits="userSpaceOnUse">
<stop stop-color="#E3E8F0"/>
<stop offset="1" stop-color="#CCD3DE"/>
</linearGradient>
<linearGradient id="paint15_linear_5575_49058" x1="229.934" y1="173.908" x2="236.906" y2="173.908" gradientUnits="userSpaceOnUse">
<stop stop-color="#B0BACC"/>
<stop offset="1" stop-color="#969EAE"/>
</linearGradient>
<linearGradient id="paint16_linear_5575_49058" x1="233.392" y1="181.967" x2="233.392" y2="180.364" gradientUnits="userSpaceOnUse">
<stop stop-color="white"/>
<stop offset="1" stop-color="#E2E5EC"/>
</linearGradient>
<linearGradient id="paint17_linear_5575_49058" x1="475.258" y1="378.176" x2="569.69" y2="378.176" gradientUnits="userSpaceOnUse">
<stop stop-color="#B0BACC"/>
<stop offset="1" stop-color="#969EAE"/>
</linearGradient>
<linearGradient id="paint18_linear_5575_49058" x1="487.81" y1="347.025" x2="557.509" y2="347.025" gradientUnits="userSpaceOnUse">
<stop stop-color="#B0BACC"/>
<stop offset="1" stop-color="#969EAE"/>
</linearGradient>
<clipPath id="clip0_5575_49058">
<rect width="612" height="400" fill="white" transform="translate(57 5)"/>
</clipPath>
</defs>
</svg>
