<svg width="159" height="148" viewBox="0 0 159 148" fill="none" xmlns="http://www.w3.org/2000/svg">
<path d="M128.8 54.8077C128.8 67.2128 124.695 78.7156 117.815 87.963C114.043 92.925 109.493 97.3232 104.278 100.706C95.8451 106.345 85.7477 109.615 74.8736 109.615C45.0253 109.503 20.8359 84.9181 20.8359 54.8077C20.8359 24.4718 45.0253 0 74.7626 0C85.6367 0 95.7341 3.27042 104.167 8.7963C109.382 12.1795 113.932 16.5776 117.704 21.5397C124.695 30.787 128.8 42.2899 128.8 54.8077Z" fill="url(#paint0_linear_4194_27677)"/>
<path d="M17.8473 95.2933C18.8459 95.2933 19.7336 94.5039 19.7336 93.3761C19.7336 92.3612 18.9569 91.459 17.8473 91.459C16.8486 91.459 15.9609 92.2484 15.9609 93.3761C16.0719 94.5039 16.8486 95.2933 17.8473 95.2933Z" fill="url(#paint1_linear_4194_27677)"/>
<path d="M107.277 5.1878C108.276 5.1878 109.163 4.39839 109.163 3.27066C109.163 2.2557 108.387 1.35352 107.277 1.35352C106.278 1.35352 105.391 2.14293 105.391 3.27066C105.391 4.28562 106.278 5.1878 107.277 5.1878Z" fill="url(#paint2_linear_4194_27677)"/>
<path d="M140.667 38.0035C142.332 36.4247 142.443 33.8309 140.889 32.1393C139.336 30.4477 136.784 30.335 135.008 31.9138C133.344 33.4926 133.233 36.0864 134.786 37.778C136.34 39.4696 139.003 39.5824 140.667 38.0035Z" fill="#EAEEF9"/>
<path d="M139.799 19.7357C140.797 19.7357 141.574 18.9463 141.574 17.9313C141.574 16.9164 140.797 16.127 139.799 16.127C138.8 16.127 138.023 16.9164 138.023 17.9313C138.023 18.9463 138.8 19.7357 139.799 19.7357Z" fill="url(#paint3_linear_4194_27677)"/>
<path d="M84.6551 23.1308C85.9524 23.1018 87.0042 21.8838 86.9763 20.5654C86.9485 19.247 85.7504 18.1788 84.453 18.2078C83.1556 18.2368 82.1038 19.4548 82.1317 20.7732C82.1596 22.0916 83.3577 23.1598 84.6551 23.1308Z" fill="#EAEEF9"/>
<g filter="url(#filter0_d_4194_27677)">
<path d="M136.589 33.9683L116.578 111.414C116.261 112.641 115.3 113.509 114.13 113.759C105.466 115.197 94.5334 114.719 82.9826 111.643C71.6041 108.612 61.8034 103.754 54.8237 97.9621C53.9251 97.1609 53.5071 95.9259 53.824 94.6994L73.8352 17.2532C74.3785 15.1506 76.5099 14.0328 78.5788 14.5839L133.747 29.2785C135.861 29.6543 137.132 31.8657 136.589 33.9683Z" fill="#CED7E2"/>
</g>
<path d="M136.589 33.9673L130.522 57.4465L67.7685 40.7314L73.8352 17.2522C74.3785 15.1496 76.5099 14.0319 78.5788 14.5829L133.747 29.2775C135.861 29.6533 137.132 31.8647 136.589 33.9673Z" fill="#CED7E2"/>
<path d="M131.577 34.1309L78.1328 19.8955L73.7412 36.8916L127.013 51.0811L131.405 34.085L131.577 34.1309Z" fill="white"/>
<path d="M129.784 35.3381L126.117 49.5307L75.4309 36.0301L79.0981 21.8375L129.784 35.3381ZM133.312 33.0942L130.554 32.3594L79.8678 18.8588L77.1094 18.124L76.385 20.9275L72.7178 35.1201L71.9934 37.9236L74.7518 38.6583L125.265 52.1131L128.024 52.8478L128.748 50.0443L132.415 35.8517L133.14 33.0482L133.312 33.0942Z" fill="#A3AFC2"/>
<path d="M79.4478 59.0105L73.0689 57.3114C71.8621 56.99 71.2265 55.8843 71.5434 54.6578L72.4489 51.1534C72.7658 49.9269 73.8542 49.2804 75.061 49.6018L81.4398 51.3009C82.6466 51.6223 83.2823 52.728 82.9654 53.9546L82.0599 57.4589C81.9606 58.5561 80.6546 59.3319 79.4478 59.0105Z" fill="url(#paint4_linear_4194_27677)"/>
<path d="M76.9556 68.6472L70.5767 66.9481C69.3699 66.6267 68.7343 65.521 69.0512 64.2945L69.9567 60.7901C70.2736 59.5636 71.362 58.9171 72.5688 59.2385L78.9477 60.9376C80.1545 61.2591 80.7901 62.3648 80.4732 63.5913L79.5677 67.0956C79.4684 68.1929 78.1624 68.9686 76.9556 68.6472Z" fill="#A3AFC2"/>
<path d="M74.4712 78.2839L68.0924 76.5848C66.8856 76.2634 66.2499 75.1577 66.5669 73.9312L67.4723 70.4268C67.7893 69.2003 68.8776 68.5538 70.0844 68.8753L76.4633 70.5743C77.6701 70.8958 78.3057 72.0015 77.9888 73.228L77.0833 76.7323C76.9388 78.0048 75.678 78.6054 74.4712 78.2839Z" fill="#A3AFC2"/>
<path d="M71.9868 87.9197L65.608 86.2206C64.4012 85.8991 63.7656 84.7935 64.0825 83.5669L64.988 80.0626C65.3049 78.8361 66.3932 78.1896 67.6001 78.511L73.9789 80.2101C75.1857 80.5315 75.8213 81.6372 75.5044 82.8637L74.5989 86.3681C74.4997 87.4653 73.1936 88.2411 71.9868 87.9197Z" fill="#A3AFC2"/>
<path d="M69.479 97.5573L63.1002 95.8583C61.8934 95.5368 61.2577 94.4312 61.5747 93.2046L62.4801 89.7003C62.7971 88.4738 63.8854 87.8273 65.0922 88.1487L71.4711 89.8478C72.6779 90.1692 73.3135 91.2749 72.9966 92.5014L72.0911 96.0058C71.9466 97.2782 70.6858 97.8788 69.479 97.5573Z" fill="#A3AFC2"/>
<path d="M92.9009 62.5945L86.5221 60.8954C85.3153 60.5739 84.6796 59.4683 84.9965 58.2417L85.902 54.7374C86.2189 53.5109 87.3073 52.8644 88.5141 53.1858L94.8929 54.8849C96.0998 55.2063 96.7354 56.312 96.4185 57.5385L95.513 61.0429C95.2414 62.0942 94.1077 62.9159 92.9009 62.5945Z" fill="#A3AFC2"/>
<path d="M90.4087 72.2312L84.0299 70.5321C82.8231 70.2107 82.1874 69.105 82.5044 67.8785L83.4098 64.3741C83.7268 63.1476 84.8151 62.5011 86.0219 62.8225L92.4008 64.5216C93.6076 64.843 94.2432 65.9487 93.9263 67.1753L93.0208 70.6796C92.7492 71.7309 91.6155 72.5526 90.4087 72.2312Z" fill="#A3AFC2"/>
<path d="M87.9321 81.8689L81.5533 80.1698C80.3465 79.8484 79.7109 78.7427 80.0278 77.5162L80.9333 74.0118C81.2502 72.7853 82.3386 72.1388 83.5454 72.4602L89.9242 74.1593C91.131 74.4807 91.7666 75.5864 91.4497 76.813L90.5442 80.3173C90.2273 81.5438 89.1389 82.1903 87.9321 81.8689Z" fill="#A3AFC2"/>
<path d="M85.4321 91.5046L79.0533 89.8055C77.8465 89.4841 77.2109 88.3784 77.5278 87.1519L78.4333 83.6475C78.7502 82.421 79.8386 81.7745 81.0454 82.096L87.4242 83.795C88.631 84.1165 89.2666 85.2222 88.9497 86.4487L88.0442 89.9531C87.7726 91.0044 86.6389 91.8261 85.4321 91.5046Z" fill="#A3AFC2"/>
<path d="M82.94 101.141L76.5611 99.4423C75.3543 99.1208 74.7187 98.0151 75.0356 96.7886L75.9411 93.2843C76.258 92.0577 77.3464 91.4112 78.5532 91.7327L84.932 93.4317C86.1388 93.7532 86.7745 94.8589 86.4575 96.0854L85.5521 99.5898C85.2351 100.816 84.1468 101.463 82.94 101.141Z" fill="#A3AFC2"/>
<path d="M106.174 66.1286L99.7955 64.4296C98.5887 64.1081 97.9531 63.0024 98.27 61.7759L99.1755 58.2716C99.4924 57.045 100.581 56.3985 101.788 56.72L108.166 58.4191C109.373 58.7405 110.009 59.8462 109.692 61.0727L108.786 64.5771C108.687 65.6743 107.381 66.4501 106.174 66.1286Z" fill="#A3AFC2"/>
<path d="M103.674 75.7654L97.2955 74.0663C96.0887 73.7448 95.4531 72.6392 95.77 71.4126L96.6755 67.9083C96.9924 66.6818 98.0807 66.0353 99.2876 66.3567L105.666 68.0558C106.873 68.3772 107.509 69.4829 107.192 70.7094L106.286 74.2138C106.187 75.311 104.881 76.0868 103.674 75.7654Z" fill="#A3AFC2"/>
<path d="M101.198 85.4021L94.8189 83.703C93.6121 83.3816 92.9765 82.2759 93.2934 81.0494L94.1989 77.545C94.5158 76.3185 95.6042 75.672 96.811 75.9934L103.19 77.6925C104.397 78.0139 105.032 79.1196 104.715 80.3462L103.81 83.8505C103.665 85.123 102.405 85.7235 101.198 85.4021Z" fill="#A3AFC2"/>
<path d="M98.7056 95.0378L92.3267 93.3387C91.1199 93.0173 90.4843 91.9116 90.8012 90.6851L91.7067 87.1807C92.0236 85.9542 93.112 85.3077 94.3188 85.6292L100.698 87.3282C101.904 87.6497 102.54 88.7554 102.223 89.9819L101.318 93.4863C101.218 94.5835 99.9124 95.3593 98.7056 95.0378Z" fill="#A3AFC2"/>
<path d="M96.2056 104.676L89.8267 102.976C88.6199 102.655 87.9843 101.549 88.3012 100.323L89.2067 96.8184C89.5236 95.5919 90.612 94.9454 91.8188 95.2669L98.1977 96.9659C99.4045 97.2874 100.04 98.3931 99.7232 99.6196L98.8177 103.124C98.6732 104.396 97.4124 104.997 96.2056 104.676Z" fill="#A3AFC2"/>
<path d="M119.463 69.6657L113.085 67.9667C111.878 67.6452 111.242 66.5395 111.559 65.313L112.465 61.8087C112.781 60.5822 113.87 59.9357 115.077 60.2571L121.455 61.9562C122.662 62.2776 123.298 63.3833 122.981 64.6098L122.076 68.1142C121.804 69.1655 120.67 69.9872 119.463 69.6657Z" fill="#A3AFC2"/>
<path d="M116.963 79.3025L110.585 77.6034C109.378 77.282 108.742 76.1763 109.059 74.9497L109.965 71.4454C110.281 70.2189 111.37 69.5724 112.577 69.8938L118.955 71.5929C120.162 71.9143 120.798 73.02 120.481 74.2466L119.576 77.7509C119.304 78.8022 118.17 79.6239 116.963 79.3025Z" fill="#A3AFC2"/>
<path d="M114.479 88.9392L108.1 87.2401C106.893 86.9187 106.258 85.813 106.575 84.5865L107.48 81.0821C107.797 79.8556 108.885 79.2091 110.092 79.5305L116.471 81.2296C117.678 81.551 118.314 82.6568 117.997 83.8833L117.091 87.3876C116.774 88.6141 115.686 89.2606 114.479 88.9392Z" fill="#A3AFC2"/>
<path d="M111.979 98.5769L105.6 96.8778C104.393 96.5564 103.758 95.4507 104.075 94.2242L104.98 90.7198C105.297 89.4933 106.385 88.8468 107.592 89.1682L113.971 90.8673C115.178 91.1887 115.814 92.2944 115.497 93.521L114.591 97.0253C114.319 98.0766 113.186 98.8983 111.979 98.5769Z" fill="#A3AFC2"/>
<path d="M109.487 108.213L103.108 106.514C101.901 106.192 101.266 105.086 101.582 103.86L102.488 100.356C102.805 99.129 103.893 98.4825 105.1 98.804L111.479 100.503C112.686 100.824 113.321 101.93 113.004 103.157L112.099 106.661C111.782 107.888 110.694 108.534 109.487 108.213Z" fill="#A3AFC2"/>
<path opacity="0.7" d="M124.757 36.9932L126.063 36.2184L120.891 34.8408L121.654 36.1666L124.757 36.9932Z" fill="#111827"/>
<path opacity="0.7" d="M119.753 44.2755L118.447 45.0502L123.619 46.4279L122.856 45.1021L119.753 44.2755Z" fill="#111827"/>
<path opacity="0.7" d="M123.67 41.947L122.901 44.9257L123.664 46.2525L124.75 42.0473L124.369 41.3839L123.67 41.947Z" fill="#111827"/>
<path opacity="0.7" d="M124.892 37.2163L124.077 40.3703L124.631 41.0796L125.284 40.6917L126.371 36.4865L124.892 37.2163Z" fill="#111827"/>
<path opacity="0.7" d="M120.799 39.4964L121.614 36.3425L120.852 35.0156L119.765 39.2208L119.974 39.8383L120.799 39.4964Z" fill="#111827"/>
<path opacity="0.7" d="M120.385 41.074L119.876 40.1895L119.395 40.6233L118.264 45.0037L119.57 44.228L120.385 41.074Z" fill="#111827"/>
<g filter="url(#filter1_d_4194_27677)">
<path d="M54.154 41.9725C54.4473 44.89 54.1886 47.8626 53.4543 50.5427C51.6796 57.2935 46.8877 62.8722 40.5879 65.6548C38.4587 66.6607 36.0636 67.2399 33.6347 67.4825C20.9491 68.8626 9.63215 59.4523 8.33495 46.548C7.03776 33.6438 16.2679 22.295 28.9648 21.027C41.5512 19.7701 52.8681 29.1804 54.154 41.9725Z" fill="url(#paint5_linear_4194_27677)"/>
</g>
<path d="M52.6482 48.0169C50.7631 54.7787 45.3675 62.1178 39.079 65.0125L24.4201 52.3092L37.8673 50.7397L27.7963 40.4116L29.9159 34.873L30.0779 33.1568L32.083 30.9165L52.6482 48.0169Z" fill="url(#paint6_linear_4194_27677)"/>
<path d="M37.1535 35.8503L34.8848 38.7969C34.8848 38.7969 33.2803 37.2571 31.0722 37.4776C29.4161 37.643 28.5239 38.7521 28.6367 39.8742C29.0089 43.5772 38.6209 40.4639 39.3428 47.6454C39.6474 50.6751 38.0186 53.3312 34.5532 54.3573L34.8352 57.1626L31.1918 57.5264L30.9211 54.8333C26.89 54.6692 24.6432 52.2868 24.6432 52.2868L26.9232 49.4524C26.9232 49.4524 28.7936 51.419 31.7746 51.1213C33.8723 50.9118 34.974 49.6684 34.8274 48.2097C34.4551 44.5067 24.8432 47.62 24.1213 40.4385C23.8506 37.7454 25.5897 35.0783 28.7352 34.1975L28.4532 31.3922L32.0966 31.0284L32.3786 33.8337C35.416 34.097 37.1535 35.8503 37.1535 35.8503Z" fill="url(#paint7_linear_4194_27677)"/>
<defs>
<filter id="filter0_d_4194_27677" x="31.7188" y="3.44434" width="126.992" height="144.091" filterUnits="userSpaceOnUse" color-interpolation-filters="sRGB">
<feFlood flood-opacity="0" result="BackgroundImageFix"/>
<feColorMatrix in="SourceAlpha" type="matrix" values="0 0 0 0 0 0 0 0 0 0 0 0 0 0 0 0 0 0 127 0" result="hardAlpha"/>
<feOffset dy="11"/>
<feGaussianBlur stdDeviation="11"/>
<feColorMatrix type="matrix" values="0 0 0 0 0.397708 0 0 0 0 0.47749 0 0 0 0 0.575 0 0 0 0.18 0"/>
<feBlend mode="normal" in2="BackgroundImageFix" result="effect1_dropShadow_4194_27677"/>
<feBlend mode="normal" in="SourceGraphic" in2="effect1_dropShadow_4194_27677" result="shape"/>
</filter>
<filter id="filter1_d_4194_27677" x="0.210938" y="17.9141" width="62.0625" height="62.7031" filterUnits="userSpaceOnUse" color-interpolation-filters="sRGB">
<feFlood flood-opacity="0" result="BackgroundImageFix"/>
<feColorMatrix in="SourceAlpha" type="matrix" values="0 0 0 0 0 0 0 0 0 0 0 0 0 0 0 0 0 0 127 0" result="hardAlpha"/>
<feOffset dy="5"/>
<feGaussianBlur stdDeviation="4"/>
<feColorMatrix type="matrix" values="0 0 0 0 0.1125 0 0 0 0 0.295916 0 0 0 0 1 0 0 0 0.22 0"/>
<feBlend mode="normal" in2="BackgroundImageFix" result="effect1_dropShadow_4194_27677"/>
<feBlend mode="normal" in="SourceGraphic" in2="effect1_dropShadow_4194_27677" result="shape"/>
</filter>
<linearGradient id="paint0_linear_4194_27677" x1="74.8181" y1="0" x2="74.8181" y2="109.615" gradientUnits="userSpaceOnUse">
<stop stop-color="#EAEEF9"/>
<stop offset="1" stop-color="#EAEEF9" stop-opacity="0.32"/>
</linearGradient>
<linearGradient id="paint1_linear_4194_27677" x1="16.0548" y1="93.4511" x2="19.6416" y2="93.4511" gradientUnits="userSpaceOnUse">
<stop stop-color="#FF66A9"/>
<stop offset="1" stop-color="#F53689"/>
</linearGradient>
<linearGradient id="paint2_linear_4194_27677" x1="105.401" y1="3.27517" x2="108.988" y2="3.27517" gradientUnits="userSpaceOnUse">
<stop stop-color="#FF66A9"/>
<stop offset="1" stop-color="#F53689"/>
</linearGradient>
<linearGradient id="paint3_linear_4194_27677" x1="138.093" y1="17.9323" x2="141.462" y2="17.9323" gradientUnits="userSpaceOnUse">
<stop stop-color="#83A6FF"/>
<stop offset="1" stop-color="#5A78FF"/>
</linearGradient>
<linearGradient id="paint4_linear_4194_27677" x1="71.8217" y1="53.1235" x2="82.9106" y2="55.1788" gradientUnits="userSpaceOnUse">
<stop stop-color="#FF66A9"/>
<stop offset="1" stop-color="#F53689"/>
</linearGradient>
<linearGradient id="paint5_linear_4194_27677" x1="17.0014" y1="26.4637" x2="46.6998" y2="62.5762" gradientUnits="userSpaceOnUse">
<stop stop-color="#83A6FF"/>
<stop offset="1" stop-color="#5A78FF"/>
</linearGradient>
<linearGradient id="paint6_linear_4194_27677" x1="35.6187" y1="47.4206" x2="48.7989" y2="59.3799" gradientUnits="userSpaceOnUse">
<stop stop-color="#4F6AFF"/>
<stop offset="1" stop-color="#657EFF" stop-opacity="0"/>
</linearGradient>
<linearGradient id="paint7_linear_4194_27677" x1="38.8314" y1="56.8642" x2="25.2474" y2="35.8219" gradientUnits="userSpaceOnUse">
<stop offset="0.0113208" stop-color="#C2D1FF"/>
<stop offset="1" stop-color="white"/>
</linearGradient>
</defs>
</svg>
