<svg width="56" height="56" viewBox="0 0 56 56" fill="none" xmlns="http://www.w3.org/2000/svg">
<rect width="56" height="56" rx="6" fill="#4279E3" fill-opacity="0.1"/>
<path d="M44.3125 21.7562C40.825 18.6062 37.3375 15.4 33.85 12.25C28.7313 20.0125 20.0688 26.9313 11.8562 31.9375C11.6312 33.0063 11.4062 34.0187 11.125 35.0312C14.725 38.2938 18.325 41.6125 21.925 44.875C30.4188 40.2062 39.4188 33.5688 44.875 26.0312C44.7062 24.625 44.4813 23.2188 44.3125 21.7562Z" fill="#699635"/>
<path d="M22.6 40.7125C19.0562 37.45 15.5125 34.1875 11.9688 30.9812C20.8 25.975 28.225 19.1687 33.6812 11.125C37.225 14.3875 40.7687 17.5937 44.3125 20.8562C38.8563 28.9 31.4312 35.7062 22.6 40.7125Z" fill="#83BF4F"/>
<path d="M21.7008 38.5749C19.3383 36.4374 16.9758 34.2436 14.6133 32.1061C14.782 31.9936 14.8945 31.9374 15.0633 31.8249C15.5133 31.5436 15.6258 31.0374 15.232 30.6436L14.8945 30.3061C22.0383 25.9186 28.2258 20.2936 33.0633 13.7686L33.4008 14.1061C33.7945 14.4436 34.357 14.3874 34.6945 13.9936C34.807 13.8811 34.8633 13.7124 34.9758 13.5999C37.3383 15.7374 39.7008 17.9311 42.0633 20.0686C41.9508 20.1811 41.8945 20.3499 41.782 20.4624C41.4445 20.9124 41.5008 21.5311 41.8945 21.9249L42.232 22.2624C37.3945 28.7311 31.207 34.3561 24.0633 38.7436L23.7258 38.4061C23.332 38.0686 22.657 38.0124 22.1508 38.2936C21.982 38.4061 21.8695 38.4624 21.7008 38.5749ZM16.132 32.1624C18.0445 33.9061 19.957 35.6499 21.9258 37.4499C22.657 37.2249 23.5008 37.2811 24.1758 37.6186C30.7008 33.4561 36.382 28.2811 40.9383 22.2624C40.5445 21.6436 40.4883 20.8561 40.7695 20.1811C38.857 18.4374 36.9445 16.6936 34.9758 14.8936C34.4695 15.3436 33.7383 15.3999 33.1195 15.0624C28.5633 21.1374 22.882 26.3124 16.357 30.4749C16.6945 31.0374 16.6383 31.7124 16.132 32.1624Z" fill="#699635"/>
<path d="M21.2512 30.9811C21.8699 30.7561 22.5449 30.8124 22.9949 31.2061C22.7137 31.4311 22.3762 31.6561 22.0949 31.8811C21.9824 31.7686 21.7012 31.7686 21.5887 31.8811C21.4199 31.9936 21.3637 32.1624 21.5324 32.2749C21.6449 32.3874 21.9262 32.3874 22.0949 32.2749C22.7699 31.8249 23.7262 31.7686 24.2324 32.2749C24.6262 32.6686 24.6824 33.2311 24.2887 33.6811C24.4012 33.7936 24.5137 33.8499 24.6262 33.9624C24.3449 34.1311 24.0637 34.3561 23.7824 34.5249C23.6699 34.4124 23.5574 34.2999 23.4449 34.2436C22.8262 34.4124 22.1512 34.3561 21.7574 33.9624C22.0949 33.7374 22.3762 33.5686 22.7137 33.3436C22.8262 33.4561 23.1074 33.4561 23.2762 33.3436C23.4449 33.2311 23.4449 33.0624 23.3324 32.9499C23.2199 32.8374 22.9949 32.8374 22.8262 32.9499C22.4324 33.2311 21.9262 33.3436 21.4762 33.2874C21.1387 33.2311 20.8574 33.1186 20.6324 32.9499C20.2387 32.5561 20.2387 32.0499 20.5762 31.5999C20.4637 31.5436 20.4074 31.4311 20.2949 31.3186C20.5762 31.1499 20.8574 30.9249 21.1387 30.7561C21.0824 30.8124 21.1949 30.8686 21.2512 30.9811Z" fill="#699635"/>
<path d="M34.3008 18.9436C34.807 18.6061 35.4258 18.6061 35.8195 18.9999L35.1445 19.8436C35.032 19.7311 34.807 19.7311 34.6945 19.8999C34.582 20.0686 34.582 20.2936 34.6945 20.4061C34.807 20.5186 35.032 20.5186 35.1445 20.3499C35.6508 19.7311 36.4945 19.6186 37.0008 20.0686C37.3945 20.4624 37.507 21.0811 37.282 21.6436C37.3945 21.7561 37.507 21.8124 37.6195 21.9249C37.3945 22.2061 37.2258 22.4311 37.0008 22.7124C36.8883 22.5999 36.7758 22.4874 36.6633 22.4311C36.157 22.7124 35.5945 22.7124 35.2008 22.3186C35.4258 22.0374 35.707 21.7561 35.932 21.4749C36.0445 21.5874 36.2695 21.5874 36.382 21.4186C36.4945 21.2499 36.4945 21.0249 36.382 20.9124C36.2695 20.7999 36.0445 20.7999 35.932 20.9686C35.6508 21.3061 35.2008 21.5311 34.807 21.5311C34.5258 21.5311 34.2445 21.4186 34.0195 21.2499C33.6258 20.8561 33.5133 20.2936 33.7383 19.7311C33.6258 19.6749 33.5695 19.5624 33.457 19.4499C33.682 19.2249 33.907 18.9436 34.0758 18.6624C34.0758 18.7749 34.1883 18.8311 34.3008 18.9436Z" fill="#699635"/>
<path d="M32.613 29.9688C30.813 31.6001 27.7755 31.5438 26.0318 29.9688C24.288 28.3376 24.4005 25.8063 26.2005 24.1751C28.0005 22.5438 30.813 22.3751 32.5568 24.0063C34.3568 25.5813 34.413 28.3376 32.613 29.9688Z" fill="#699635"/>
<path d="M22.2617 23.781L32.893 33.5122C34.1305 32.4997 35.2555 31.431 36.3805 30.306L25.8055 20.5747C24.6805 21.6435 23.4992 22.7122 22.2617 23.781Z" fill="#FFDD7D"/>
<path d="M32.9492 37.7875C34.1305 36.8875 35.3117 35.9313 36.4367 34.975V30.25C35.3117 31.375 34.1305 32.4438 32.9492 33.4563V37.7875Z" fill="#DBB471"/>
<path d="M16.8066 23.8934C17.4254 23.6684 17.9316 23.3309 18.4379 22.9372C18.9441 22.5434 19.3941 22.1497 19.9004 21.6997C20.4066 21.3059 20.9129 20.8559 21.4754 20.5747C22.0379 20.2372 22.7691 20.0684 23.3879 20.1809C22.7691 20.2934 22.2066 20.5747 21.7004 20.9684C21.1941 21.3059 20.7441 21.7559 20.2379 22.1497C19.7316 22.5434 19.2254 22.9934 18.6629 23.3309C18.1004 23.6684 17.4254 23.8934 16.8066 23.8934Z" fill="#8D9998"/>
<path d="M32.3866 28.6185C32.3866 28.6185 35.1429 29.406 41.5554 27.7185C47.9679 26.031 44.9304 44.481 33.2304 44.481C31.9366 44.481 31.8804 42.8497 35.4804 39.9247C35.4804 39.9247 30.4179 41.106 32.6116 37.3372C32.6116 37.3372 29.0116 37.956 30.6429 35.0872C30.6429 35.0872 31.3741 32.9497 30.6991 30.531C30.7554 30.531 31.1491 29.2935 32.3866 28.6185Z" fill="#E8E8E8"/>
<path d="M44.5945 29.519C44.707 34.469 40.7695 42.6815 32.9508 42.6815H32.8383C32.107 43.8628 32.4445 44.5378 33.232 44.5378C42.1195 44.4815 46.0008 33.9065 44.5945 29.519Z" fill="#D1D1D1"/>
<path d="M40.5445 32.2188C38.857 38.2938 32.107 38.8 32.107 38.8C31.8258 40.0938 32.3883 40.6563 33.1195 40.6563C35.5945 40.7125 40.207 36.6063 40.5445 32.2188Z" fill="#D1D1D1"/>
<path d="M35.8186 32.2188C31.8249 37.8438 30.4186 35.7625 30.4186 35.7625C29.4061 38.0125 32.0499 38.0125 32.4999 37.5063C33.7936 36.1 35.8749 33.175 35.8186 32.2188Z" fill="#D1D1D1"/>
<path d="M32.7812 42.85C33.4562 41.95 34.3 41.2188 35.1437 40.4875C35.9875 39.7563 36.8312 39.025 37.675 38.2375C38.4625 37.45 39.25 36.55 39.8125 35.5375C40.375 34.525 40.6562 33.3438 40.5437 32.2188C40.4312 33.3438 40.0375 34.4125 39.4187 35.3125C38.8 36.2125 38.0687 37.0563 37.2812 37.8438C36.4937 38.6313 35.65 39.3625 34.8625 40.2063C34.0188 40.9375 33.2875 41.8375 32.7812 42.85Z" fill="#8D9998"/>
<path d="M32.1055 38.8C32.3305 38.1813 32.668 37.675 33.0617 37.1688C33.4555 36.6625 33.8492 36.2125 34.2992 35.7063C34.693 35.2 35.143 34.6938 35.4242 34.1313C35.7617 33.5688 35.9305 32.8375 35.818 32.2188C35.7055 32.8375 35.4242 33.4 35.0305 33.9063C34.693 34.4125 34.243 34.8625 33.8492 35.3687C33.4555 35.875 33.0055 36.3813 32.668 36.9438C32.3305 37.5063 32.1055 38.1813 32.1055 38.8Z" fill="#8D9998"/>
<path d="M26.9875 23.6122C26.9875 23.6122 26.2 20.856 27.8875 14.4435C29.575 8.03099 11.125 11.0685 11.125 22.7685C11.125 24.0622 12.7563 24.1185 15.6813 20.5185C15.6813 20.5185 14.5 25.581 18.2687 23.3872C18.2687 23.3872 17.65 26.9872 20.5188 25.356C20.5188 25.356 22.6562 24.6247 25.075 25.2997C25.075 25.2435 26.3125 24.8497 26.9875 23.6122Z" fill="#E8E8E8"/>
<path d="M26.0875 11.4063C21.1375 11.2938 12.925 15.2313 12.925 23.05V23.1625C11.7437 23.8375 11.125 23.5563 11.125 22.7688C11.125 13.8813 21.7 10 26.0875 11.4063Z" fill="#D1D1D1"/>
<path d="M23.3873 15.4565C17.3123 17.144 16.806 23.894 16.806 23.894C15.5123 24.1753 14.9498 23.6128 14.9498 22.8815C14.8935 20.4065 18.9998 15.794 23.3873 15.4565Z" fill="#D1D1D1"/>
<path d="M23.387 20.1814C17.762 24.1752 19.8433 25.5814 19.8433 25.5814C17.5933 26.5939 17.5933 23.9502 18.0995 23.5002C19.5058 22.2064 22.4308 20.1252 23.387 20.1814Z" fill="#D1D1D1"/>
<path d="M12.7559 23.2188C13.6559 22.5438 14.3871 21.7001 15.1184 20.8563C15.8496 20.0126 16.5809 19.1688 17.3684 18.3251C18.1559 17.5376 19.0559 16.7501 20.0684 16.1876C21.0809 15.6251 22.2621 15.3438 23.3871 15.4563C22.2621 15.5688 21.1934 15.9626 20.2934 16.5813C19.3934 17.2001 18.5496 17.9313 17.7621 18.7188C16.9746 19.5063 16.2434 20.3501 15.3996 21.1376C14.6121 21.9813 13.7684 22.7126 12.7559 23.2188Z" fill="#8D9998"/>
</svg>
