<svg width="94" height="74" viewBox="0 0 94 74" fill="none" xmlns="http://www.w3.org/2000/svg">
<path d="M63.256 10.031C64.1513 10.031 64.8772 9.30874 64.8772 8.41782C64.8772 7.52691 64.1513 6.80469 63.256 6.80469C62.3606 6.80469 61.6348 7.52691 61.6348 8.41782C61.6348 9.30874 62.3606 10.031 63.256 10.031Z" fill="#EAEEF9"/>
<path d="M47.5981 49.4697C59.3085 49.4697 68.8017 40.0238 68.8017 28.3716C68.8017 16.7194 59.3085 7.27344 47.5981 7.27344C35.8877 7.27344 26.3945 16.7194 26.3945 28.3716C26.3945 40.0238 35.8877 49.4697 47.5981 49.4697Z" fill="#EAEEF9"/>
<path d="M24.0881 12.6694C24.6771 12.6694 25.1546 12.1943 25.1546 11.6081C25.1546 11.022 24.6771 10.5469 24.0881 10.5469C23.499 10.5469 23.0215 11.022 23.0215 11.6081C23.0215 12.1943 23.499 12.6694 24.0881 12.6694Z" fill="#EAEEF9"/>
<path d="M25.2429 17.7597C25.6434 17.7597 25.9681 17.4366 25.9681 17.0381C25.9681 16.6395 25.6434 16.3164 25.2429 16.3164C24.8423 16.3164 24.5176 16.6395 24.5176 17.0381C24.5176 17.4366 24.8423 17.7597 25.2429 17.7597Z" fill="url(#paint0_linear_5686_63375)"/>
<path d="M58.4346 7.35843C58.8116 7.35843 59.1172 7.05434 59.1172 6.67922C59.1172 6.3041 58.8116 6 58.4346 6C58.0576 6 57.752 6.3041 57.752 6.67922C57.752 7.05434 58.0576 7.35843 58.4346 7.35843Z" fill="#EAEEF9"/>
<path d="M62.4033 46.667C62.7803 46.667 63.0859 46.3629 63.0859 45.9878C63.0859 45.6127 62.7803 45.3086 62.4033 45.3086C62.0263 45.3086 61.7207 45.6127 61.7207 45.9878C61.7207 46.3629 62.0263 46.667 62.4033 46.667Z" fill="url(#paint1_linear_5686_63375)"/>
<path d="M35.0127 16.3623C35.3897 16.3623 35.6953 16.0582 35.6953 15.6831C35.6953 15.308 35.3897 15.0039 35.0127 15.0039C34.6357 15.0039 34.3301 15.308 34.3301 15.6831C34.3301 16.0582 34.6357 16.3623 35.0127 16.3623Z" fill="url(#paint2_linear_5686_63375)"/>
<g filter="url(#filter0_d_5686_63375)">
<path d="M41.3691 49.0075H22.7679C22.3413 49.0075 22 48.6679 22 48.2434V21.2446C22 20.8201 22.3413 20.4805 22.7679 20.4805H41.3691C41.7957 20.4805 42.137 20.8201 42.137 21.2446V48.2434C42.137 48.6679 41.7957 49.0075 41.3691 49.0075Z" fill="white"/>
</g>
<path d="M35.8249 35.1629C35.8249 35.2478 35.8249 35.2903 35.7823 35.3752C35.7396 35.5025 35.7396 35.6723 35.6969 35.7997C35.6543 35.8846 35.6543 35.927 35.6116 36.0119C35.5689 36.1393 35.5263 36.2666 35.441 36.394V36.4365C35.3983 36.4789 35.3983 36.5638 35.3556 36.6063C35.313 36.6487 35.2703 36.7336 35.2276 36.7761L36.5502 37.9222C36.5929 37.8373 36.6355 37.7949 36.6782 37.71C36.8062 37.4977 36.9342 37.2855 37.0195 37.0732C37.0622 36.9883 37.0622 36.9459 37.1048 36.861C37.1901 36.6487 37.2755 36.4365 37.3608 36.2242C37.3608 36.1817 37.4035 36.0968 37.4035 36.0544C37.4461 35.927 37.4461 35.7997 37.4888 35.6723C37.4888 35.6299 37.5315 35.545 37.5315 35.5025C37.5315 35.4601 37.5314 35.3752 37.5741 35.3327V35.2903C37.5741 35.2478 37.5741 35.1629 37.5741 35.1205H35.8249V35.1629ZM32.1132 38.4316C30.0654 38.4316 28.3589 36.7761 28.3589 34.7384C28.3589 32.8281 29.7668 31.2999 31.6013 31.0452V29.3047C28.8282 29.5169 26.6523 31.8942 26.6523 34.7384C26.6523 37.7524 29.1268 40.2146 32.1559 40.2146C33.6491 40.2146 35.0143 39.6203 35.9956 38.6439L34.673 37.4977C33.9904 38.092 33.0945 38.4316 32.1132 38.4316ZM32.5825 29.3047V31.0452C34.289 31.2574 35.6116 32.5734 35.8249 34.229H37.5741C37.3608 31.597 35.2276 29.5169 32.5825 29.3047Z" fill="#E3EAF2"/>
<path d="M37.6146 34.229H35.8654C35.6521 32.531 34.2869 31.215 32.623 31.0452V29.3047C35.2255 29.5169 37.3587 31.597 37.6146 34.229Z" fill="url(#paint3_linear_5686_63375)"/>
<path d="M37.6137 35.168C37.6137 35.2104 37.6137 35.2953 37.6137 35.3378V35.3802C37.6137 35.4227 37.6137 35.5076 37.5711 35.55C37.5711 35.5925 37.5711 35.6774 37.5284 35.7198C37.4858 35.8472 37.4858 35.9745 37.4431 36.1019C37.4431 36.1443 37.4004 36.2292 37.4004 36.2717C37.3151 36.484 37.2724 36.6962 37.1445 36.9085C37.1018 36.9934 37.1018 37.0358 37.0591 37.1207C36.9738 37.333 36.8458 37.5452 36.7178 37.7575C36.6752 37.8424 36.6325 37.8848 36.5898 37.9697L35.2246 36.7811C35.2673 36.7387 35.3099 36.6538 35.3526 36.6113C35.3953 36.5689 35.4379 36.4839 35.4379 36.4415V36.399C35.4806 36.2717 35.5659 36.1443 35.6086 36.017C35.6512 35.9321 35.6512 35.8896 35.6939 35.8047C35.7366 35.6774 35.7792 35.5076 35.7792 35.3802C35.7792 35.2953 35.8219 35.2529 35.8219 35.168H37.6137Z" fill="url(#paint4_linear_5686_63375)"/>
<path d="M26.3071 24.8501H24.1739C24.046 24.8501 23.918 24.7227 23.918 24.5953V24.3406C23.918 24.2133 24.046 24.0859 24.1739 24.0859H26.3071C26.4351 24.0859 26.5631 24.2133 26.5631 24.3406V24.5953C26.5631 24.7227 26.4351 24.8501 26.3071 24.8501Z" fill="#CED7E2"/>
<path d="M40.9842 24.8501H28.3986C28.2706 24.8501 28.1426 24.7227 28.1426 24.5953V24.3406C28.1426 24.2133 28.2706 24.0859 28.3986 24.0859H40.9842C41.1122 24.0859 41.2402 24.2133 41.2402 24.3406V24.5953C41.2402 24.7227 41.1122 24.8501 40.9842 24.8501Z" fill="#E3EAF2"/>
<path d="M26.3071 27.354H24.1739C24.046 27.354 23.918 27.2266 23.918 27.0993V26.8445C23.918 26.7172 24.046 26.5898 24.1739 26.5898H26.3071C26.4351 26.5898 26.5631 26.7172 26.5631 26.8445V27.0993C26.5631 27.2266 26.4351 27.354 26.3071 27.354Z" fill="#CED7E2"/>
<path d="M40.9842 27.354H28.3986C28.2706 27.354 28.1426 27.2266 28.1426 27.0993V26.8445C28.1426 26.7172 28.2706 26.5898 28.3986 26.5898H40.9842C41.1122 26.5898 41.2402 26.7172 41.2402 26.8445V27.0993C41.2402 27.2266 41.1122 27.354 40.9842 27.354Z" fill="#E3EAF2"/>
<path d="M28.5248 42.7656H27.0742V46.5438H28.5248V42.7656Z" fill="url(#paint5_linear_5686_63375)"/>
<path d="M31.1732 42.0898H29.7227V46.5896H31.1732V42.0898Z" fill="url(#paint6_linear_5686_63375)"/>
<path d="M33.8607 43.3555H32.4102V46.5817H33.8607V43.3555Z" fill="url(#paint7_linear_5686_63375)"/>
<path d="M36.5052 44.418H35.0547V46.583H36.5052V44.418Z" fill="url(#paint8_linear_5686_63375)"/>
<g filter="url(#filter1_d_5686_63375)">
<path d="M71.2731 40.1291H52.6293C52.2026 40.1291 51.8613 39.7895 51.8613 39.365V12.4086C51.8613 11.9841 52.2026 11.6445 52.6293 11.6445H71.2304C71.657 11.6445 71.9983 11.9841 71.9983 12.4086V39.4075C71.9983 39.7895 71.657 40.1291 71.2731 40.1291Z" fill="white"/>
</g>
<path d="M70.6759 26.3789H55.7012V28.1194H70.6759V26.3789Z" fill="#E6EDF5"/>
<path d="M64.4043 26.9727H60.3086V27.4821H64.4043V26.9727Z" fill="#CED7E2"/>
<path d="M69.6107 26.9727H68.1602V27.4821H69.6107V26.9727Z" fill="url(#paint9_linear_5686_63375)"/>
<path d="M70.6759 30.0703H55.7012V31.8108H70.6759V30.0703Z" fill="#E6EDF5"/>
<path d="M63.167 30.707H60.3086V31.2164H63.167V30.707Z" fill="#CED7E2"/>
<path d="M69.6089 30.707H67.0918V31.2164H69.6089V30.707Z" fill="url(#paint10_linear_5686_63375)"/>
<path d="M70.6759 33.8086H55.7012V35.5491H70.6759V33.8086Z" fill="#E6EDF5"/>
<path d="M65.0442 34.4023H60.3086V34.9118H65.0442V34.4023Z" fill="#CED7E2"/>
<path d="M69.6094 34.4023H68.7988V34.9118H69.6094V34.4023Z" fill="url(#paint11_linear_5686_63375)"/>
<path d="M69.6095 13.8984H64.9592H64.9166H64.8739H60.0957H60.053H60.0103H55.5307C55.0187 13.8984 54.6348 14.3229 54.6348 14.8324V22.9405C54.6348 23.4499 55.0614 23.8744 55.5307 23.8744H69.6095C70.1215 23.8744 70.5055 23.4499 70.5055 22.9405V14.8324C70.5055 14.3229 70.0788 13.8984 69.6095 13.8984ZM60.3516 21.0727V19.2473H64.6606V21.0727H60.3516ZM64.6606 21.6245V23.2801H60.3516V21.6245H64.6606ZM64.6606 16.9125V18.7378H60.3516V16.9125H64.6606ZM60.3516 16.3181V14.4928H64.6606V16.3606H60.3516V16.3181ZM69.9508 18.6954H65.2152V16.87H69.9508V18.6954ZM59.7543 18.6954H55.1467V16.87H59.7543V18.6954ZM55.1467 19.2473H59.7543V21.0727H55.1467V19.2473ZM65.2152 19.2473H69.9508V21.0727H65.2152V19.2473ZM69.9508 14.8324V16.3181H65.2152V14.4928H69.6095C69.7802 14.4928 69.9508 14.6201 69.9508 14.8324ZM55.5307 14.4928H59.797V16.3606H55.1467V14.8748C55.1467 14.6201 55.3174 14.4928 55.5307 14.4928ZM55.1467 22.9405V21.6245H59.7543V23.2801H55.488C55.3174 23.3226 55.1467 23.1528 55.1467 22.9405ZM69.6095 23.3226H65.2152V21.667H69.9508V22.9829C69.9508 23.1528 69.7802 23.3226 69.6095 23.3226Z" fill="#E3EAF2"/>
<g filter="url(#filter2_d_5686_63375)">
<path d="M57.5406 42.8044H38.8968C38.4702 42.8044 38.1289 42.4648 38.1289 42.0403V15.0415C38.1289 14.617 38.4702 14.2773 38.8968 14.2773H57.498C57.9246 14.2773 58.2659 14.617 58.2659 15.0415V42.0403C58.2659 42.4648 57.9246 42.8044 57.5406 42.8044Z" fill="white"/>
</g>
<path d="M55.9579 34.6959H41.0685C40.9405 34.6959 40.8125 34.5685 40.8125 34.4412V34.3563C40.8125 34.2289 40.9405 34.1016 41.0685 34.1016H55.9579C56.0859 34.1016 56.2139 34.2289 56.2139 34.3563V34.4412C56.2139 34.5685 56.1286 34.6959 55.9579 34.6959Z" fill="#E3EAF2"/>
<path d="M55.9579 36.524H41.0685C40.9405 36.524 40.8125 36.3966 40.8125 36.2693V36.1844C40.8125 36.057 40.9405 35.9297 41.0685 35.9297H55.9579C56.0859 35.9297 56.2139 36.057 56.2139 36.1844V36.2693C56.2139 36.3966 56.1286 36.524 55.9579 36.524Z" fill="#E3EAF2"/>
<path d="M44.9508 38.3013H41.1111C40.9405 38.3013 40.8125 38.174 40.8125 38.0042C40.8125 37.8344 40.9405 37.707 41.1111 37.707H44.9508C45.1215 37.707 45.2495 37.8344 45.2495 38.0042C45.2495 38.174 45.1215 38.3013 44.9508 38.3013Z" fill="#E3EAF2"/>
<path d="M44.9508 32.6568H41.1111C40.9405 32.6568 40.8125 32.5295 40.8125 32.3597C40.8125 32.1899 40.9405 32.0625 41.1111 32.0625H44.9508C45.1215 32.0625 45.2495 32.1899 45.2495 32.3597C45.2495 32.5295 45.1215 32.6568 44.9508 32.6568Z" fill="#CED7E2"/>
<path d="M55.106 18.6511C54.85 18.6511 54.594 18.7784 54.4234 18.9907L52.4182 18.4813C52.3329 18.4388 52.2049 18.4813 52.1196 18.5662L48.7919 21.8773C48.6639 21.8349 48.5359 21.7924 48.4079 21.7924C48.2799 21.7924 48.1519 21.8349 48.0239 21.8773L45.4641 19.3303C45.5068 19.2454 45.5068 19.1605 45.5068 19.0331C45.5068 18.5662 45.1228 18.2266 44.6962 18.2266C44.2696 18.2266 43.8856 18.6086 43.8856 19.0331C43.8856 19.118 43.8856 19.2454 43.9283 19.3303L41.8378 21.4104C41.7524 21.3679 41.6244 21.3679 41.5391 21.3679C41.0698 21.3679 40.7285 21.75 40.7285 22.1745C40.7285 22.599 41.1125 22.9811 41.5391 22.9811C41.9657 22.9811 42.3497 22.599 42.3497 22.1745C42.3497 22.0472 42.3071 21.9622 42.2644 21.8349L44.3549 19.7548C44.4829 19.7972 44.5682 19.8397 44.6962 19.8397C44.8242 19.8397 44.9522 19.7972 45.0375 19.7548L47.5973 22.3019C47.5546 22.3868 47.5546 22.4717 47.5546 22.5566C47.5546 23.0235 47.9386 23.3631 48.3652 23.3631C48.8345 23.3631 49.1758 22.9811 49.1758 22.5566C49.1758 22.4717 49.1758 22.3868 49.1332 22.3019L52.3756 19.0756L54.2101 19.5425C54.2527 19.9246 54.594 20.2642 55.0207 20.2642C55.49 20.2642 55.8313 19.8822 55.8313 19.4576C55.9166 18.9907 55.5326 18.6511 55.106 18.6511ZM41.5818 22.599C41.3685 22.599 41.1978 22.4292 41.1978 22.217C41.1978 22.0047 41.3685 21.8349 41.5818 21.8349C41.7951 21.8349 41.9657 22.0047 41.9657 22.217C41.9657 22.3868 41.7951 22.599 41.5818 22.599ZM44.7389 19.4152C44.5255 19.4152 44.3549 19.2454 44.3549 19.0331C44.3549 18.8209 44.5255 18.6511 44.7389 18.6511C44.9522 18.6511 45.1228 18.8209 45.1228 19.0331C45.1228 19.2454 44.9948 19.4152 44.7389 19.4152ZM48.4505 22.9811C48.2372 22.9811 48.0666 22.8113 48.0666 22.599C48.0666 22.3868 48.2372 22.217 48.4505 22.217C48.6639 22.217 48.8345 22.3868 48.8345 22.599C48.8772 22.8113 48.7065 22.9811 48.4505 22.9811ZM55.106 19.8397C54.8927 19.8397 54.722 19.6699 54.722 19.4576C54.722 19.2454 54.8927 19.0756 55.106 19.0756C55.3193 19.0756 55.49 19.2454 55.49 19.4576C55.49 19.6699 55.3193 19.8397 55.106 19.8397Z" fill="url(#paint12_linear_5686_63375)"/>
<path d="M42.0102 29.6404H41.157C41.0717 29.6404 40.9863 29.5555 40.9863 29.4706V25.3104C40.9863 25.2255 41.0717 25.1406 41.157 25.1406H42.0102C42.0956 25.1406 42.1809 25.2255 42.1809 25.3104V29.4706C42.1809 29.5555 42.0956 29.6404 42.0102 29.6404Z" fill="url(#paint13_linear_5686_63375)"/>
<path d="M42.5233 29.6416H41.5421C41.4567 29.6416 41.4141 29.5991 41.4141 29.5142V27.6039C41.4141 27.519 41.4567 27.4766 41.5421 27.4766H42.5233C42.6086 27.4766 42.6513 27.519 42.6513 27.6039V29.5142C42.6513 29.5991 42.566 29.6416 42.5233 29.6416Z" fill="url(#paint14_linear_5686_63375)"/>
<path d="M44.229 29.6403H43.3757C43.2904 29.6403 43.2051 29.5554 43.2051 29.4705V26.5839C43.2051 26.499 43.2904 26.4141 43.3757 26.4141H44.229C44.3143 26.4141 44.3996 26.499 44.3996 26.5839V29.4705C44.3996 29.5554 44.3143 29.6403 44.229 29.6403Z" fill="url(#paint15_linear_5686_63375)"/>
<path d="M46.4458 29.6416H45.5925C45.5072 29.6416 45.4219 29.5567 45.4219 29.4718V27.6464C45.4219 27.5615 45.5072 27.4766 45.5925 27.4766H46.4458C46.5311 27.4766 46.6164 27.5615 46.6164 27.6464V29.4718C46.6164 29.5567 46.5311 29.6416 46.4458 29.6416Z" fill="url(#paint16_linear_5686_63375)"/>
<path d="M48.6645 29.6375H47.8113C47.726 29.6375 47.6406 29.5526 47.6406 29.4677V26.0292C47.6406 25.9443 47.726 25.8594 47.8113 25.8594H48.6645C48.7499 25.8594 48.8352 25.9443 48.8352 26.0292V29.4677C48.8352 29.5526 48.7925 29.6375 48.6645 29.6375Z" fill="url(#paint17_linear_5686_63375)"/>
<path d="M50.9263 29.6424H50.073C49.9877 29.6424 49.9023 29.5575 49.9023 29.4726V27.3925C49.9023 27.3076 49.9877 27.2227 50.073 27.2227H50.9263C51.0116 27.2227 51.0969 27.3076 51.0969 27.3925V29.4726C51.0969 29.5575 51.0116 29.6424 50.9263 29.6424Z" fill="url(#paint18_linear_5686_63375)"/>
<path d="M53.147 29.6403H52.2937C52.2084 29.6403 52.123 29.5554 52.123 29.4705V26.5839C52.123 26.499 52.2084 26.4141 52.2937 26.4141H53.147C53.2323 26.4141 53.3176 26.499 53.3176 26.5839V29.4705C53.3176 29.5554 53.2323 29.6403 53.147 29.6403Z" fill="url(#paint19_linear_5686_63375)"/>
<path d="M55.3618 29.6416H54.5085C54.4232 29.6416 54.3379 29.5567 54.3379 29.4718V27.6464C54.3379 27.5615 54.4232 27.4766 54.5085 27.4766H55.3618C55.4471 27.4766 55.5325 27.5615 55.5325 27.6464V29.4718C55.5325 29.5567 55.4471 29.6416 55.3618 29.6416Z" fill="url(#paint20_linear_5686_63375)"/>
<path d="M44.7401 29.6402H43.7162C43.6735 29.6402 43.6309 29.5977 43.6309 29.5553V28.4091C43.6309 28.3667 43.6735 28.3242 43.7162 28.3242H44.7401C44.7828 28.3242 44.8254 28.3667 44.8254 28.4091V29.5553C44.8254 29.5977 44.7828 29.6402 44.7401 29.6402Z" fill="url(#paint21_linear_5686_63375)"/>
<path d="M47.0015 29.6396H45.9349C45.8923 29.6396 45.8496 29.5972 45.8496 29.5547V29.0029C45.8496 28.9604 45.8923 28.918 45.9349 28.918H47.0015C47.0442 28.918 47.0868 28.9604 47.0868 29.0029V29.5547C47.0442 29.5972 47.0442 29.6396 47.0015 29.6396Z" fill="url(#paint22_linear_5686_63375)"/>
<path d="M49.2206 29.6404H48.1967C48.154 29.6404 48.1113 29.598 48.1113 29.5555V28.749C48.1113 28.7065 48.154 28.6641 48.1967 28.6641H49.2206C49.2632 28.6641 49.3059 28.7065 49.3059 28.749V29.5555C49.3059 29.598 49.3059 29.6404 49.2206 29.6404Z" fill="url(#paint23_linear_5686_63375)"/>
<path d="M51.4377 29.64H50.4564C50.4138 29.64 50.3711 29.5975 50.3711 29.5551V28.0693C50.3711 28.0268 50.4138 27.9844 50.4564 27.9844H51.4377C51.4803 27.9844 51.523 28.0268 51.523 28.0693V29.5551C51.5657 29.5975 51.523 29.64 51.4377 29.64Z" fill="url(#paint24_linear_5686_63375)"/>
<path d="M53.7867 29.6404H52.6774C52.6348 29.6404 52.6348 29.6404 52.6348 29.5979V29.3432C52.6348 29.3008 52.6348 29.3008 52.6774 29.3008H53.7867C53.8293 29.3008 53.8293 29.3008 53.8293 29.3432V29.5555C53.8293 29.5979 53.8293 29.6404 53.7867 29.6404Z" fill="url(#paint25_linear_5686_63375)"/>
<path d="M56.0035 29.643H54.8942C54.8942 29.643 54.8516 29.643 54.8516 29.6003V29.4724C54.8516 29.4724 54.8516 29.4297 54.8942 29.4297H56.0035C56.0035 29.4297 56.0461 29.4297 56.0461 29.4724L56.0035 29.643C56.0461 29.6003 56.0035 29.643 56.0035 29.643Z" fill="url(#paint26_linear_5686_63375)"/>
<g filter="url(#filter3_d_5686_63375)">
<path d="M48.109 45.0092C51.4548 45.0092 54.1671 42.3104 54.1671 38.9812C54.1671 35.652 51.4548 32.9531 48.109 32.9531C44.7631 32.9531 42.0508 35.652 42.0508 38.9812C42.0508 42.3104 44.7631 45.0092 48.109 45.0092Z" fill="white"/>
<path d="M53.7829 38.0039H42.5625V39.6595H53.7829V38.0039Z" fill="#E6EDF5"/>
<path d="M53.7829 34.7344H42.5625V36.39H53.7829V34.7344Z" fill="#E6EDF5"/>
<path d="M57.1928 46.3148L55.9129 47.5884L52.2012 43.9376L53.4811 42.6641L57.1928 46.3148Z" fill="#526DFF"/>
<path d="M43.158 33.6632C40.3848 36.4225 40.3848 40.8799 43.158 43.6392C45.9311 46.3985 50.4107 46.3985 53.1838 43.6392C55.9569 40.8799 55.9569 36.4225 53.1838 33.6632C50.4107 30.9039 45.9311 30.9039 43.158 33.6632ZM52.0319 42.493C49.8987 44.6156 46.443 44.6156 44.2672 42.493C42.134 40.3705 42.134 36.932 44.2672 34.767C46.4004 32.6444 49.8561 32.6444 52.0319 34.767C54.165 36.932 54.165 40.3705 52.0319 42.493Z" fill="url(#paint27_linear_5686_63375)"/>
<path d="M59.2002 49.5849C58.6455 50.1367 57.7069 50.1367 57.1097 49.5849L53.3553 45.8916C53.142 45.6794 53.142 45.2973 53.3553 45.0426L54.5925 43.8115C54.8058 43.5993 55.1898 43.5993 55.4031 43.8115L59.2002 47.5048C59.7974 48.0991 59.7974 49.033 59.2002 49.5849Z" fill="url(#paint28_linear_5686_63375)"/>
</g>
<defs>
<filter id="filter0_d_5686_63375" x="0" y="9.48047" width="64.1367" height="72.5273" filterUnits="userSpaceOnUse" color-interpolation-filters="sRGB">
<feFlood flood-opacity="0" result="BackgroundImageFix"/>
<feColorMatrix in="SourceAlpha" type="matrix" values="0 0 0 0 0 0 0 0 0 0 0 0 0 0 0 0 0 0 127 0" result="hardAlpha"/>
<feOffset dy="11"/>
<feGaussianBlur stdDeviation="11"/>
<feColorMatrix type="matrix" values="0 0 0 0 0.397708 0 0 0 0 0.47749 0 0 0 0 0.575 0 0 0 0.18 0"/>
<feBlend mode="normal" in2="BackgroundImageFix" result="effect1_dropShadow_5686_63375"/>
<feBlend mode="normal" in="SourceGraphic" in2="effect1_dropShadow_5686_63375" result="shape"/>
</filter>
<filter id="filter1_d_5686_63375" x="29.8613" y="0.644531" width="64.1367" height="72.4844" filterUnits="userSpaceOnUse" color-interpolation-filters="sRGB">
<feFlood flood-opacity="0" result="BackgroundImageFix"/>
<feColorMatrix in="SourceAlpha" type="matrix" values="0 0 0 0 0 0 0 0 0 0 0 0 0 0 0 0 0 0 127 0" result="hardAlpha"/>
<feOffset dy="11"/>
<feGaussianBlur stdDeviation="11"/>
<feColorMatrix type="matrix" values="0 0 0 0 0.397708 0 0 0 0 0.47749 0 0 0 0 0.575 0 0 0 0.18 0"/>
<feBlend mode="normal" in2="BackgroundImageFix" result="effect1_dropShadow_5686_63375"/>
<feBlend mode="normal" in="SourceGraphic" in2="effect1_dropShadow_5686_63375" result="shape"/>
</filter>
<filter id="filter2_d_5686_63375" x="16.1289" y="3.27734" width="64.1367" height="72.5273" filterUnits="userSpaceOnUse" color-interpolation-filters="sRGB">
<feFlood flood-opacity="0" result="BackgroundImageFix"/>
<feColorMatrix in="SourceAlpha" type="matrix" values="0 0 0 0 0 0 0 0 0 0 0 0 0 0 0 0 0 0 127 0" result="hardAlpha"/>
<feOffset dy="11"/>
<feGaussianBlur stdDeviation="11"/>
<feColorMatrix type="matrix" values="0 0 0 0 0.397708 0 0 0 0 0.47749 0 0 0 0 0.575 0 0 0 0.18 0"/>
<feBlend mode="normal" in2="BackgroundImageFix" result="effect1_dropShadow_5686_63375"/>
<feBlend mode="normal" in="SourceGraphic" in2="effect1_dropShadow_5686_63375" result="shape"/>
</filter>
<filter id="filter3_d_5686_63375" x="33.0781" y="28.5938" width="34.5703" height="34.4053" filterUnits="userSpaceOnUse" color-interpolation-filters="sRGB">
<feFlood flood-opacity="0" result="BackgroundImageFix"/>
<feColorMatrix in="SourceAlpha" type="matrix" values="0 0 0 0 0 0 0 0 0 0 0 0 0 0 0 0 0 0 127 0" result="hardAlpha"/>
<feOffset dy="5"/>
<feGaussianBlur stdDeviation="4"/>
<feColorMatrix type="matrix" values="0 0 0 0 0.1125 0 0 0 0 0.295916 0 0 0 0 1 0 0 0 0.22 0"/>
<feBlend mode="normal" in2="BackgroundImageFix" result="effect1_dropShadow_5686_63375"/>
<feBlend mode="normal" in="SourceGraphic" in2="effect1_dropShadow_5686_63375" result="shape"/>
</filter>
<linearGradient id="paint0_linear_5686_63375" x1="24.5447" y1="17.0545" x2="25.9544" y2="17.0545" gradientUnits="userSpaceOnUse">
<stop stop-color="#FF66A9"/>
<stop offset="1" stop-color="#F53689"/>
</linearGradient>
<linearGradient id="paint1_linear_5686_63375" x1="61.7226" y1="45.9698" x2="63.047" y2="45.9698" gradientUnits="userSpaceOnUse">
<stop stop-color="#FF66A9"/>
<stop offset="1" stop-color="#F53689"/>
</linearGradient>
<linearGradient id="paint2_linear_5686_63375" x1="34.3433" y1="15.6951" x2="35.6677" y2="15.6951" gradientUnits="userSpaceOnUse">
<stop stop-color="#83A6FF"/>
<stop offset="1" stop-color="#5A78FF"/>
</linearGradient>
<linearGradient id="paint3_linear_5686_63375" x1="32.5753" y1="31.7672" x2="37.5936" y2="31.7672" gradientUnits="userSpaceOnUse">
<stop stop-color="#FF66A9"/>
<stop offset="1" stop-color="#F53689"/>
</linearGradient>
<linearGradient id="paint4_linear_5686_63375" x1="35.2379" y1="36.56" x2="37.5971" y2="36.56" gradientUnits="userSpaceOnUse">
<stop stop-color="#83A6FF"/>
<stop offset="1" stop-color="#5A78FF"/>
</linearGradient>
<linearGradient id="paint5_linear_5686_63375" x1="27.0585" y1="44.6743" x2="28.4968" y2="44.6743" gradientUnits="userSpaceOnUse">
<stop stop-color="#83A6FF"/>
<stop offset="1" stop-color="#5A78FF"/>
</linearGradient>
<linearGradient id="paint6_linear_5686_63375" x1="29.7329" y1="44.3346" x2="31.1712" y2="44.3346" gradientUnits="userSpaceOnUse">
<stop stop-color="#83A6FF"/>
<stop offset="1" stop-color="#5A78FF"/>
</linearGradient>
<linearGradient id="paint7_linear_5686_63375" x1="32.4038" y1="44.9619" x2="33.8421" y2="44.9619" gradientUnits="userSpaceOnUse">
<stop stop-color="#83A6FF"/>
<stop offset="1" stop-color="#5A78FF"/>
</linearGradient>
<linearGradient id="paint8_linear_5686_63375" x1="35.0743" y1="45.4889" x2="36.5126" y2="45.4889" gradientUnits="userSpaceOnUse">
<stop stop-color="#83A6FF"/>
<stop offset="1" stop-color="#5A78FF"/>
</linearGradient>
<linearGradient id="paint9_linear_5686_63375" x1="68.1758" y1="27.24" x2="69.6451" y2="27.24" gradientUnits="userSpaceOnUse">
<stop stop-color="#83A6FF"/>
<stop offset="1" stop-color="#5A78FF"/>
</linearGradient>
<linearGradient id="paint10_linear_5686_63375" x1="67.1124" y1="30.9492" x2="69.6434" y2="30.9492" gradientUnits="userSpaceOnUse">
<stop stop-color="#FF66A9"/>
<stop offset="1" stop-color="#F53689"/>
</linearGradient>
<linearGradient id="paint11_linear_5686_63375" x1="68.8129" y1="34.6618" x2="69.6439" y2="34.6618" gradientUnits="userSpaceOnUse">
<stop stop-color="#83A6FF"/>
<stop offset="1" stop-color="#5A78FF"/>
</linearGradient>
<linearGradient id="paint12_linear_5686_63375" x1="40.7406" y1="20.7982" x2="55.9225" y2="20.7982" gradientUnits="userSpaceOnUse">
<stop stop-color="#FF66A9"/>
<stop offset="1" stop-color="#F53689"/>
</linearGradient>
<linearGradient id="paint13_linear_5686_63375" x1="40.9656" y1="27.3931" x2="42.1682" y2="27.3931" gradientUnits="userSpaceOnUse">
<stop stop-color="#83A6FF"/>
<stop offset="1" stop-color="#5A78FF"/>
</linearGradient>
<linearGradient id="paint14_linear_5686_63375" x1="41.4348" y1="28.553" x2="42.6374" y2="28.553" gradientUnits="userSpaceOnUse">
<stop stop-color="#FF66A9"/>
<stop offset="1" stop-color="#F53689"/>
</linearGradient>
<linearGradient id="paint15_linear_5686_63375" x1="43.1939" y1="28.0282" x2="44.3966" y2="28.0282" gradientUnits="userSpaceOnUse">
<stop stop-color="#83A6FF"/>
<stop offset="1" stop-color="#5A78FF"/>
</linearGradient>
<linearGradient id="paint16_linear_5686_63375" x1="45.4203" y1="28.5552" x2="46.6229" y2="28.5552" gradientUnits="userSpaceOnUse">
<stop stop-color="#83A6FF"/>
<stop offset="1" stop-color="#5A78FF"/>
</linearGradient>
<linearGradient id="paint17_linear_5686_63375" x1="47.6486" y1="27.7333" x2="48.8512" y2="27.7333" gradientUnits="userSpaceOnUse">
<stop stop-color="#83A6FF"/>
<stop offset="1" stop-color="#5A78FF"/>
</linearGradient>
<linearGradient id="paint18_linear_5686_63375" x1="49.8773" y1="28.4224" x2="51.0799" y2="28.4224" gradientUnits="userSpaceOnUse">
<stop stop-color="#83A6FF"/>
<stop offset="1" stop-color="#5A78FF"/>
</linearGradient>
<linearGradient id="paint19_linear_5686_63375" x1="52.1075" y1="28.0282" x2="53.3102" y2="28.0282" gradientUnits="userSpaceOnUse">
<stop stop-color="#83A6FF"/>
<stop offset="1" stop-color="#5A78FF"/>
</linearGradient>
<linearGradient id="paint20_linear_5686_63375" x1="54.3319" y1="28.5552" x2="55.5346" y2="28.5552" gradientUnits="userSpaceOnUse">
<stop stop-color="#83A6FF"/>
<stop offset="1" stop-color="#5A78FF"/>
</linearGradient>
<linearGradient id="paint21_linear_5686_63375" x1="43.638" y1="28.9734" x2="44.8406" y2="28.9734" gradientUnits="userSpaceOnUse">
<stop stop-color="#FF66A9"/>
<stop offset="1" stop-color="#F53689"/>
</linearGradient>
<linearGradient id="paint22_linear_5686_63375" x1="45.8547" y1="29.2909" x2="47.0574" y2="29.2909" gradientUnits="userSpaceOnUse">
<stop stop-color="#FF66A9"/>
<stop offset="1" stop-color="#F53689"/>
</linearGradient>
<linearGradient id="paint23_linear_5686_63375" x1="48.1179" y1="29.1444" x2="49.3206" y2="29.1444" gradientUnits="userSpaceOnUse">
<stop stop-color="#FF66A9"/>
<stop offset="1" stop-color="#F53689"/>
</linearGradient>
<linearGradient id="paint24_linear_5686_63375" x1="50.3561" y1="28.7788" x2="51.5587" y2="28.7788" gradientUnits="userSpaceOnUse">
<stop stop-color="#FF66A9"/>
<stop offset="1" stop-color="#F53689"/>
</linearGradient>
<linearGradient id="paint25_linear_5686_63375" x1="52.6443" y1="29.4742" x2="53.847" y2="29.4742" gradientUnits="userSpaceOnUse">
<stop stop-color="#FF66A9"/>
<stop offset="1" stop-color="#F53689"/>
</linearGradient>
<linearGradient id="paint26_linear_5686_63375" x1="54.836" y1="29.5292" x2="56.0386" y2="29.5292" gradientUnits="userSpaceOnUse">
<stop stop-color="#FF66A9"/>
<stop offset="1" stop-color="#F53689"/>
</linearGradient>
<linearGradient id="paint27_linear_5686_63375" x1="41.0851" y1="38.6462" x2="55.245" y2="38.6462" gradientUnits="userSpaceOnUse">
<stop stop-color="#83A6FF"/>
<stop offset="1" stop-color="#5A78FF"/>
</linearGradient>
<linearGradient id="paint28_linear_5686_63375" x1="53.1934" y1="46.8344" x2="59.6453" y2="46.8344" gradientUnits="userSpaceOnUse">
<stop stop-color="#83A6FF"/>
<stop offset="1" stop-color="#5A78FF"/>
</linearGradient>
</defs>
</svg>
