<svg width="24" height="24" viewBox="0 0 24 24" fill="none" xmlns="http://www.w3.org/2000/svg">
<path d="M23.9973 17.7004C24.0965 20.9994 21.4197 23.7986 18.1481 23.8986H16.5618L12.1997 23.9986C5.65642 24.0986 0.203713 18.9001 0.00543293 12.3019C-0.192847 5.70384 5.06158 0.205421 11.6048 0.00547848C18.1481 -0.194464 23.6008 5.10401 23.7991 11.7021L23.8982 14.2014L23.9973 17.7004Z" fill="url(#paint0_linear_7356_54433)"/>
<path d="M23.9973 17.7004C24.0965 20.9994 21.4197 23.7986 18.1481 23.8986H16.5618L12.1997 23.9986C5.65642 24.0986 0.203713 18.9001 0.00543293 12.3019C-0.192847 5.70384 5.06158 0.205421 11.6048 0.00547848C18.1481 -0.194464 23.6008 5.10401 23.7991 11.7021L23.8982 14.2014L23.9973 17.7004Z" fill="url(#paint1_linear_7356_54433)"/>
<path d="M22.7079 17.4C22.807 20.699 20.1302 23.4982 16.8586 23.5982H15.2724L8.03516 16.3003L14.1818 9.10236L16.4621 7.80273L22.6088 14.001L22.7079 17.4Z" fill="url(#paint2_linear_7356_54433)"/>
<path d="M14.481 12.1018L16.563 10.0024C17.1578 9.40256 17.1578 8.50282 16.563 7.903C15.9681 7.30317 15.0759 7.30317 14.481 7.903L12.3991 10.0024L10.3171 7.903C9.72229 7.30317 8.83003 7.30317 8.23519 7.903C7.64035 8.50282 7.64035 9.40256 8.23519 10.0024L10.3171 12.1018L8.23519 14.2012C7.64035 14.801 7.64035 15.7008 8.23519 16.3006C8.53261 16.6005 8.92917 16.7005 9.32573 16.7005C9.72229 16.7005 10.1189 16.6005 10.4163 16.3006L12.4982 14.2012L14.5802 16.3006C15.175 16.9004 16.0673 16.9004 16.6621 16.3006C16.9595 16.0007 17.0587 15.6008 17.0587 15.2009C17.0587 14.801 16.9595 14.4011 16.6621 14.1012L14.481 12.1018Z" fill="url(#paint3_linear_7356_54433)"/>
<defs>
<linearGradient id="paint0_linear_7356_54433" x1="0.0527228" y1="11.9844" x2="23.9999" y2="11.9844" gradientUnits="userSpaceOnUse">
<stop stop-color="#FF66A9"/>
<stop offset="1" stop-color="#F53689"/>
</linearGradient>
<linearGradient id="paint1_linear_7356_54433" x1="0.100299" y1="12.1055" x2="23.9403" y2="12.1055" gradientUnits="userSpaceOnUse">
<stop offset="0.00289017" stop-color="#FFD44F"/>
<stop offset="1" stop-color="#FFA607"/>
</linearGradient>
<linearGradient id="paint2_linear_7356_54433" x1="11.9329" y1="11.7196" x2="17.8233" y2="17.561" gradientUnits="userSpaceOnUse">
<stop stop-color="#F5BF2E"/>
<stop offset="1" stop-color="#D985AC" stop-opacity="0"/>
</linearGradient>
<linearGradient id="paint3_linear_7356_54433" x1="16.2895" y1="16.1317" x2="8.69887" y2="8.54451" gradientUnits="userSpaceOnUse">
<stop offset="0.0113208" stop-color="white"/>
<stop offset="1" stop-color="white"/>
</linearGradient>
</defs>
</svg>
