<svg width="24" height="24" viewBox="0 0 24 24" fill="none" xmlns="http://www.w3.org/2000/svg">
<path fill-rule="evenodd" clip-rule="evenodd" d="M8.0001 6.40034C11.5347 6.40034 14.4001 5.32583 14.4001 4.00034C14.4001 2.67486 11.5347 1.60034 8.0001 1.60034C4.46548 1.60034 1.6001 2.67486 1.6001 4.00034C1.6001 5.32583 4.46548 6.40034 8.0001 6.40034Z" stroke="#4B5563" stroke-width="1.5" stroke-linecap="round"/>
<path d="M1.6001 20.0002C1.6001 21.3257 4.46547 22.4002 8.0001 22.4002C9.77214 22.4002 11.376 22.1302 12.5349 21.6938" stroke="#4B5563" stroke-width="1.5" stroke-linecap="round"/>
<path d="M1.6001 15.2004C1.6001 16.5259 4.46548 17.6004 8.0001 17.6004C8.80226 17.6004 9.56995 17.5451 10.2775 17.444" stroke="#4B5563" stroke-width="1.5" stroke-linecap="round"/>
<path d="M1.6001 9.60034C1.6001 10.9258 4.46548 12.0003 8.0001 12.0003C11.5347 12.0003 14.4001 10.9258 14.4001 9.60034" stroke="#4B5563" stroke-width="1.5" stroke-linecap="round"/>
<path d="M1.60007 4.00024V20.0002" stroke="#4B5563" stroke-width="1.5" stroke-linecap="round"/>
<path d="M14.4001 4.00024V10.8002" stroke="#4B5563" stroke-width="1.5" stroke-linecap="round"/>
<path fill-rule="evenodd" clip-rule="evenodd" d="M16.8 23.2004C20.3346 23.2004 23.2 20.335 23.2 16.8004C23.2 13.2658 20.3346 10.4004 16.8 10.4004C13.2654 10.4004 10.4 13.2658 10.4 16.8004C10.4 20.335 13.2654 23.2004 16.8 23.2004Z" stroke="#3579FC" stroke-width="1.5" stroke-linecap="round"/>
<path fill-rule="evenodd" clip-rule="evenodd" d="M18.4016 16.7885C18.2527 16.9025 18.0581 17.0196 17.8177 17.1396H19.2001V17.9047H16.2978C16.212 18.0187 16.169 18.1777 16.169 18.3818C16.169 18.5918 16.2334 18.7508 16.3622 18.8588C16.491 18.9669 16.7014 19.0209 16.9933 19.0209C17.5143 19.0209 17.9951 18.8228 18.4359 18.4268L19.2001 19.3179C18.6048 19.906 17.852 20.2 16.9418 20.2C16.4552 20.2 16.0388 20.119 15.6925 19.957C15.3461 19.795 15.0842 19.5685 14.9068 19.2774C14.7293 18.9864 14.6406 18.6488 14.6406 18.2647C14.6406 18.1327 14.6492 18.0127 14.6663 17.9047H14.4001V17.1396H15.0527C15.1787 17.0196 15.339 16.9025 15.5336 16.7885H14.4001V16.0144H17.1994C17.2967 15.9424 17.3626 15.8674 17.3969 15.7894C17.4313 15.7113 17.4484 15.6093 17.4484 15.4833C17.4484 15.3153 17.3941 15.1878 17.2853 15.1008C17.1765 15.0137 16.9962 14.9702 16.7443 14.9702C16.5096 14.9702 16.2907 15.0107 16.0874 15.0918C15.8842 15.1728 15.6824 15.2973 15.4821 15.4653L14.7866 14.6102C15.0556 14.3401 15.359 14.1376 15.6967 14.0026C16.0345 13.8676 16.4238 13.8 16.8645 13.8C17.2538 13.8 17.6073 13.8736 17.925 14.0206C18.2427 14.1676 18.4946 14.3776 18.6806 14.6507C18.8667 14.9237 18.9597 15.2403 18.9597 15.6003C18.9597 15.7684 18.9454 15.9064 18.9168 16.0144H19.2001V16.7885H18.4016Z" fill="#3579FC"/>
</svg>
