<svg width="254" height="27" viewBox="0 0 254 27" fill="none" xmlns="http://www.w3.org/2000/svg">
<g filter="url(#filter0_d_85_101)">
<path d="M4.94 15H7.4V4.94L11.86 11.1H12.22L16.64 4.88V15H19.08V0.999999H16.76L12.2 7.54L7.42 0.999999H4.94V15ZM30.4473 6H28.1473V11.98C27.6273 12.66 26.8873 13.08 26.1273 13.08C24.8673 13.08 24.4073 12.22 24.4073 11.02V6H22.1073V11.5C22.1073 14.08 23.5073 15.22 25.2673 15.22C26.6673 15.22 27.6073 14.56 28.1473 13.9V15H30.4473V6ZM33.0105 12.52C33.0105 14.36 33.7505 15.2 35.1305 15.2C36.2105 15.2 36.9905 14.86 37.5105 14.44L37.0305 12.68C36.7505 12.88 36.4505 13.04 36.0905 13.04C35.5505 13.04 35.3105 12.6 35.3105 11.58V0.999999H33.0105V12.52ZM38.787 11.58C38.787 13.88 39.547 15.2 41.587 15.2C42.747 15.2 43.707 14.76 44.247 14.32L43.547 12.54C43.227 12.78 42.787 13.06 42.167 13.06C41.407 13.06 41.087 12.42 41.087 11.44V8.16H43.987V6H41.087V3.5H38.787V11.58ZM46.5341 15H48.8341V6H46.5341V15ZM46.2941 2.76C46.2941 3.68 46.9541 4.2 47.7341 4.2C48.3941 4.2 49.0541 3.68 49.0541 2.76C49.0541 1.94 48.3941 1.42 47.7341 1.42C46.9541 1.42 46.2941 1.94 46.2941 2.76ZM57.7009 15H60.0009V6H54.1409V5.08C54.1409 3.48 54.8809 2.94 56.2609 2.94C57.1009 2.94 57.7009 3.42 58.0409 3.96L59.7009 2.66C59.1009 1.72 58.0009 0.779999 55.8409 0.779999C53.4609 0.779999 51.8409 2.04 51.8409 4.88V15H54.1409V8.16H57.7009V15ZM62.3464 15H64.6464V8.86C65.1864 8.32 65.8264 8 66.6064 8C67.8864 8 68.6264 8.68 68.6264 10.12V15H70.9264V9.72C70.9264 6.9 69.4264 5.84 67.2264 5.84C66.1464 5.84 65.1864 6.32 64.6464 6.9V6H62.3464V15ZM73.9644 8.32C74.6244 8.02 75.2844 7.7 76.3244 7.7C77.6644 7.7 78.0644 8.52 78.0044 10.02C77.5644 9.7 76.7644 9.44 75.9644 9.44C74.1444 9.44 72.6844 10.38 72.6844 12.36C72.6844 14.1 73.8644 15.12 75.5044 15.12C76.7244 15.12 77.6844 14.64 78.1644 13.96V15H80.1644V9.52C80.1644 7.14 79.2244 5.78 76.5644 5.78C75.3844 5.78 74.1644 6.18 73.3844 6.64L73.9644 8.32ZM76.2644 13.18C75.5444 13.18 74.9844 12.8 74.9844 12.12C74.9844 11.36 75.6644 11 76.4244 11C77.0844 11 77.6044 11.14 78.0044 11.44V12.36C77.7244 12.76 77.2244 13.18 76.2644 13.18ZM82.5222 15H84.8222V8.86C85.3622 8.32 86.0022 8 86.7822 8C88.0622 8 88.8022 8.68 88.8022 10.12V15H91.1022V9.72C91.1022 6.9 89.6022 5.84 87.4022 5.84C86.3222 5.84 85.3622 6.32 84.8222 6.9V6H82.5222V15ZM100.26 11.98C99.6802 12.62 98.9202 13.08 97.9402 13.08C96.5802 13.08 95.3402 12.1 95.3402 10.5C95.3402 8.92 96.5602 7.94 97.8402 7.94C98.6602 7.94 99.4002 8.16 100.08 8.82L101.16 7C100.32 6.16 99.0202 5.78 97.5402 5.78C94.8002 5.78 92.8802 7.88 92.8802 10.5C92.8802 13.34 94.8402 15.22 97.7602 15.22C99.2202 15.22 100.58 14.68 101.34 13.66L100.26 11.98ZM109.758 12.48C109.238 12.9 108.318 13.3 107.218 13.3C105.798 13.3 104.718 12.56 104.518 11.2H111.018C111.118 10.86 111.158 10.52 111.158 9.96C111.158 7.44 109.218 5.78 106.898 5.78C103.938 5.78 102.138 7.88 102.138 10.5C102.138 13.34 104.078 15.22 106.978 15.22C108.238 15.22 109.518 14.86 110.418 14.1L109.758 12.48ZM106.798 7.7C108.118 7.7 108.878 8.56 108.858 9.66H104.438C104.678 8.48 105.418 7.7 106.798 7.7ZM124.069 11.98C123.489 12.62 122.729 13.08 121.749 13.08C120.389 13.08 119.149 12.1 119.149 10.5C119.149 8.92 120.369 7.94 121.649 7.94C122.469 7.94 123.209 8.16 123.889 8.82L124.969 7C124.129 6.16 122.829 5.78 121.349 5.78C118.609 5.78 116.689 7.88 116.689 10.5C116.689 13.34 118.649 15.22 121.569 15.22C123.029 15.22 124.389 14.68 125.149 13.66L124.069 11.98ZM126.995 15H129.295V8.96C129.555 8.44 129.975 8 130.775 8C131.255 8 131.495 8.08 131.935 8.34L132.755 6.18C132.455 5.96 132.095 5.84 131.355 5.84C130.275 5.84 129.715 6.3 129.295 6.88V6H126.995V15ZM142.745 6H140.125L138.505 10.9C138.345 11.36 138.265 11.8 138.185 12.22C138.045 11.78 137.925 11.36 137.745 10.92L135.645 6H132.885L137.045 15L136.845 15.48C136.465 16.42 136.045 16.88 135.465 16.88C135.105 16.88 134.765 16.7 134.525 16.56L133.785 18.3C134.305 18.68 134.905 19 135.725 19C137.045 19 137.885 18.22 139.205 15L142.745 6ZM144.124 19H146.424V14.78C146.944 15.08 147.724 15.22 148.524 15.22C151.404 15.22 153.284 13.1 153.284 10.36C153.284 7.7 151.684 5.78 149.204 5.78C148.044 5.78 146.984 6.26 146.424 6.86V6H144.124V19ZM148.484 7.94C150.004 7.94 150.844 8.98 150.844 10.42C150.844 11.92 149.924 13.08 148.324 13.08C147.564 13.08 147.044 12.96 146.424 12.56V8.92C146.984 8.3 147.704 7.94 148.484 7.94ZM155.076 11.58C155.076 13.88 155.836 15.2 157.876 15.2C159.036 15.2 159.996 14.76 160.536 14.32L159.836 12.54C159.516 12.78 159.076 13.06 158.456 13.06C157.696 13.06 157.376 12.42 157.376 11.44V8.16H160.276V6H157.376V3.5H155.076V11.58ZM161.572 10.5C161.572 13.2 163.492 15.22 166.472 15.22C169.452 15.22 171.372 13.2 171.372 10.5C171.372 7.8 169.452 5.78 166.472 5.78C163.492 5.78 161.572 7.8 161.572 10.5ZM164.032 10.5C164.032 8.94 165.112 7.94 166.472 7.94C167.872 7.94 168.932 8.98 168.932 10.5C168.932 12.06 167.892 13.08 166.472 13.08C165.072 13.08 164.032 12 164.032 10.5ZM177.6 19H179.9V14.78C180.42 15.08 181.2 15.22 182 15.22C184.88 15.22 186.76 13.1 186.76 10.36C186.76 7.7 185.16 5.78 182.68 5.78C181.52 5.78 180.46 6.26 179.9 6.86V6H177.6V19ZM181.96 7.94C183.48 7.94 184.32 8.98 184.32 10.42C184.32 11.92 183.4 13.08 181.8 13.08C181.04 13.08 180.52 12.96 179.9 12.56V8.92C180.46 8.3 181.18 7.94 181.96 7.94ZM188.753 12.52C188.753 14.36 189.493 15.2 190.873 15.2C191.953 15.2 192.733 14.86 193.253 14.44L192.773 12.68C192.493 12.88 192.193 13.04 191.833 13.04C191.293 13.04 191.053 12.6 191.053 11.58V0.999999H188.753V12.52ZM195.429 8.32C196.089 8.02 196.749 7.7 197.789 7.7C199.129 7.7 199.529 8.52 199.469 10.02C199.029 9.7 198.229 9.44 197.429 9.44C195.609 9.44 194.149 10.38 194.149 12.36C194.149 14.1 195.329 15.12 196.969 15.12C198.189 15.12 199.149 14.64 199.629 13.96V15H201.629V9.52C201.629 7.14 200.689 5.78 198.029 5.78C196.849 5.78 195.629 6.18 194.849 6.64L195.429 8.32ZM197.729 13.18C197.009 13.18 196.449 12.8 196.449 12.12C196.449 11.36 197.129 11 197.889 11C198.549 11 199.069 11.14 199.469 11.44V12.36C199.189 12.76 198.689 13.18 197.729 13.18ZM203.787 11.58C203.787 13.88 204.547 15.2 206.587 15.2C207.747 15.2 208.707 14.76 209.247 14.32L208.547 12.54C208.227 12.78 207.787 13.06 207.167 13.06C206.407 13.06 206.087 12.42 206.087 11.44V8.16H208.987V6H206.087V3.5H203.787V11.58ZM211.294 15H213.594V8.16H216.034V6H213.594V4.72C213.594 3.48 214.134 2.94 214.914 2.94C215.434 2.94 215.934 3.08 216.234 3.38L217.014 1.62C216.554 1.14 215.574 0.779999 214.494 0.779999C212.494 0.779999 211.294 2.04 211.294 4.54V15ZM217.04 10.5C217.04 13.2 218.96 15.22 221.94 15.22C224.92 15.22 226.84 13.2 226.84 10.5C226.84 7.8 224.92 5.78 221.94 5.78C218.96 5.78 217.04 7.8 217.04 10.5ZM219.5 10.5C219.5 8.94 220.58 7.94 221.94 7.94C223.34 7.94 224.4 8.98 224.4 10.5C224.4 12.06 223.36 13.08 221.94 13.08C220.54 13.08 219.5 12 219.5 10.5ZM228.831 15H231.131V8.96C231.391 8.44 231.811 8 232.611 8C233.091 8 233.331 8.08 233.771 8.34L234.591 6.18C234.291 5.96 233.931 5.84 233.191 5.84C232.111 5.84 231.551 6.3 231.131 6.88V6H228.831V15ZM249.561 9.12C249.561 6.66 248.321 5.84 246.681 5.84C245.281 5.84 244.281 6.44 243.641 7.28C243.321 6.46 242.401 5.84 241.021 5.84C239.901 5.84 238.841 6.28 238.201 7V6H235.901V15H238.201V8.96C238.601 8.36 239.261 8 240.081 8C241.061 8 241.581 8.62 241.581 9.56V15H243.881V9.7C243.881 9.5 243.861 9.18 243.861 9.04C244.181 8.42 244.861 8 245.721 8C246.801 8 247.261 8.6 247.261 9.72V15H249.561V9.12Z" fill="white"/>
</g>
<defs>
<filter id="filter0_d_85_101" x="0.94043" y="0.780029" width="252.621" height="26.22" filterUnits="userSpaceOnUse" color-interpolation-filters="sRGB">
<feFlood flood-opacity="0" result="BackgroundImageFix"/>
<feColorMatrix in="SourceAlpha" type="matrix" values="0 0 0 0 0 0 0 0 0 0 0 0 0 0 0 0 0 0 127 0" result="hardAlpha"/>
<feOffset dy="4"/>
<feGaussianBlur stdDeviation="2"/>
<feComposite in2="hardAlpha" operator="out"/>
<feColorMatrix type="matrix" values="0 0 0 0 0 0 0 0 0 0 0 0 0 0 0 0 0 0 0.25 0"/>
<feBlend mode="normal" in2="BackgroundImageFix" result="effect1_dropShadow_85_101"/>
<feBlend mode="normal" in="SourceGraphic" in2="effect1_dropShadow_85_101" result="shape"/>
</filter>
</defs>
</svg>
