<svg width="186" height="19" viewBox="0 0 186 19" fill="none" xmlns="http://www.w3.org/2000/svg">
<path d="M0.94 15H3.4V4.94L7.86 11.1H8.22L12.64 4.88V15H15.08V0.999999H12.76L8.2 7.54L3.42 0.999999H0.94V15ZM26.4473 6H24.1473V11.98C23.6273 12.66 22.8873 13.08 22.1273 13.08C20.8673 13.08 20.4073 12.22 20.4073 11.02V6H18.1073V11.5C18.1073 14.08 19.5073 15.22 21.2673 15.22C22.6673 15.22 23.6073 14.56 24.1473 13.9V15H26.4473V6ZM29.0105 12.52C29.0105 14.36 29.7505 15.2 31.1305 15.2C32.2105 15.2 32.9905 14.86 33.5105 14.44L33.0305 12.68C32.7505 12.88 32.4505 13.04 32.0905 13.04C31.5505 13.04 31.3105 12.6 31.3105 11.58V0.999999H29.0105V12.52ZM34.787 11.58C34.787 13.88 35.547 15.2 37.587 15.2C38.747 15.2 39.707 14.76 40.247 14.32L39.547 12.54C39.227 12.78 38.787 13.06 38.167 13.06C37.407 13.06 37.087 12.42 37.087 11.44V8.16H39.987V6H37.087V3.5H34.787V11.58ZM42.5341 15H44.8341V6H42.5341V15ZM42.2941 2.76C42.2941 3.68 42.9541 4.2 43.7341 4.2C44.3941 4.2 45.0541 3.68 45.0541 2.76C45.0541 1.94 44.3941 1.42 43.7341 1.42C42.9541 1.42 42.2941 1.94 42.2941 2.76ZM53.7009 15H56.0009V6H50.1409V5.08C50.1409 3.48 50.8809 2.94 52.2609 2.94C53.1009 2.94 53.7009 3.42 54.0409 3.96L55.7009 2.66C55.1009 1.72 54.0009 0.779999 51.8409 0.779999C49.4609 0.779999 47.8409 2.04 47.8409 4.88V15H50.1409V8.16H53.7009V15ZM58.3464 15H60.6464V8.86C61.1864 8.32 61.8264 8 62.6064 8C63.8864 8 64.6264 8.68 64.6264 10.12V15H66.9264V9.72C66.9264 6.9 65.4264 5.84 63.2264 5.84C62.1464 5.84 61.1864 6.32 60.6464 6.9V6H58.3464V15ZM69.9644 8.32C70.6244 8.02 71.2844 7.7 72.3244 7.7C73.6644 7.7 74.0644 8.52 74.0044 10.02C73.5644 9.7 72.7644 9.44 71.9644 9.44C70.1444 9.44 68.6844 10.38 68.6844 12.36C68.6844 14.1 69.8644 15.12 71.5044 15.12C72.7244 15.12 73.6844 14.64 74.1644 13.96V15H76.1644V9.52C76.1644 7.14 75.2244 5.78 72.5644 5.78C71.3844 5.78 70.1644 6.18 69.3844 6.64L69.9644 8.32ZM72.2644 13.18C71.5444 13.18 70.9844 12.8 70.9844 12.12C70.9844 11.36 71.6644 11 72.4244 11C73.0844 11 73.6044 11.14 74.0044 11.44V12.36C73.7244 12.76 73.2244 13.18 72.2644 13.18ZM78.5222 15H80.8222V8.86C81.3622 8.32 82.0022 8 82.7822 8C84.0622 8 84.8022 8.68 84.8022 10.12V15H87.1022V9.72C87.1022 6.9 85.6022 5.84 83.4022 5.84C82.3222 5.84 81.3622 6.32 80.8222 6.9V6H78.5222V15ZM96.2602 11.98C95.6802 12.62 94.9202 13.08 93.9402 13.08C92.5802 13.08 91.3402 12.1 91.3402 10.5C91.3402 8.92 92.5602 7.94 93.8402 7.94C94.6602 7.94 95.4002 8.16 96.0802 8.82L97.1602 7C96.3202 6.16 95.0202 5.78 93.5402 5.78C90.8002 5.78 88.8802 7.88 88.8802 10.5C88.8802 13.34 90.8402 15.22 93.7602 15.22C95.2202 15.22 96.5802 14.68 97.3402 13.66L96.2602 11.98ZM105.758 12.48C105.238 12.9 104.318 13.3 103.218 13.3C101.798 13.3 100.718 12.56 100.518 11.2H107.018C107.118 10.86 107.158 10.52 107.158 9.96C107.158 7.44 105.218 5.78 102.898 5.78C99.938 5.78 98.138 7.88 98.138 10.5C98.138 13.34 100.078 15.22 102.978 15.22C104.238 15.22 105.518 14.86 106.418 14.1L105.758 12.48ZM102.798 7.7C104.118 7.7 104.878 8.56 104.858 9.66H100.438C100.678 8.48 101.418 7.7 102.798 7.7ZM113.249 19H115.549V14.78C116.069 15.08 116.849 15.22 117.649 15.22C120.529 15.22 122.409 13.1 122.409 10.36C122.409 7.7 120.809 5.78 118.329 5.78C117.169 5.78 116.109 6.26 115.549 6.86V6H113.249V19ZM117.609 7.94C119.129 7.94 119.969 8.98 119.969 10.42C119.969 11.92 119.049 13.08 117.449 13.08C116.689 13.08 116.169 12.96 115.549 12.56V8.92C116.109 8.3 116.829 7.94 117.609 7.94ZM124.401 12.52C124.401 14.36 125.141 15.2 126.521 15.2C127.601 15.2 128.381 14.86 128.901 14.44L128.421 12.68C128.141 12.88 127.841 13.04 127.481 13.04C126.941 13.04 126.701 12.6 126.701 11.58V0.999999H124.401V12.52ZM131.078 8.32C131.738 8.02 132.398 7.7 133.438 7.7C134.778 7.7 135.178 8.52 135.118 10.02C134.678 9.7 133.878 9.44 133.078 9.44C131.258 9.44 129.798 10.38 129.798 12.36C129.798 14.1 130.978 15.12 132.618 15.12C133.838 15.12 134.798 14.64 135.278 13.96V15H137.278V9.52C137.278 7.14 136.338 5.78 133.678 5.78C132.498 5.78 131.278 6.18 130.498 6.64L131.078 8.32ZM133.378 13.18C132.658 13.18 132.098 12.8 132.098 12.12C132.098 11.36 132.778 11 133.538 11C134.198 11 134.718 11.14 135.118 11.44V12.36C134.838 12.76 134.338 13.18 133.378 13.18ZM139.435 11.58C139.435 13.88 140.195 15.2 142.235 15.2C143.395 15.2 144.355 14.76 144.895 14.32L144.195 12.54C143.875 12.78 143.435 13.06 142.815 13.06C142.055 13.06 141.735 12.42 141.735 11.44V8.16H144.635V6H141.735V3.5H139.435V11.58ZM146.943 15H149.243V8.16H151.683V6H149.243V4.72C149.243 3.48 149.783 2.94 150.562 2.94C151.083 2.94 151.583 3.08 151.883 3.38L152.663 1.62C152.203 1.14 151.223 0.779999 150.143 0.779999C148.143 0.779999 146.943 2.04 146.943 4.54V15ZM152.689 10.5C152.689 13.2 154.609 15.22 157.589 15.22C160.569 15.22 162.489 13.2 162.489 10.5C162.489 7.8 160.569 5.78 157.589 5.78C154.609 5.78 152.689 7.8 152.689 10.5ZM155.149 10.5C155.149 8.94 156.229 7.94 157.589 7.94C158.989 7.94 160.049 8.98 160.049 10.5C160.049 12.06 159.009 13.08 157.589 13.08C156.189 13.08 155.149 12 155.149 10.5ZM164.479 15H166.779V8.96C167.039 8.44 167.459 8 168.259 8C168.739 8 168.979 8.08 169.419 8.34L170.239 6.18C169.939 5.96 169.579 5.84 168.839 5.84C167.759 5.84 167.199 6.3 166.779 6.88V6H164.479V15ZM185.21 9.12C185.21 6.66 183.97 5.84 182.33 5.84C180.93 5.84 179.93 6.44 179.29 7.28C178.97 6.46 178.05 5.84 176.67 5.84C175.55 5.84 174.49 6.28 173.85 7V6H171.55V15H173.85V8.96C174.25 8.36 174.91 8 175.73 8C176.71 8 177.23 8.62 177.23 9.56V15H179.53V9.7C179.53 9.5 179.51 9.18 179.51 9.04C179.83 8.42 180.51 8 181.37 8C182.45 8 182.91 8.6 182.91 9.72V15H185.21V9.12Z" fill="white"/>
</svg>
