<svg width="159" height="143" viewBox="0 0 159 143" fill="none" xmlns="http://www.w3.org/2000/svg">
<path d="M80.3812 119C111.813 119 137.294 93.2585 137.294 61.5048C137.294 29.7511 111.813 4.00964 80.3812 4.00964C48.9493 4.00964 23.4688 29.7511 23.4688 61.5048C23.4688 93.2585 48.9493 119 80.3812 119Z" fill="#EAEEF9"/>
<path d="M25.4923 27.826C26.9959 27.3323 27.8187 25.7006 27.33 24.1816C26.8412 22.6626 25.2261 21.8315 23.7225 22.3252C22.2189 22.8189 21.3962 24.4505 21.8849 25.9695C22.3736 27.4885 23.9887 28.3197 25.4923 27.826Z" fill="#EAEEF9"/>
<path d="M31.7423 18.3891C32.7647 18.0534 33.3242 16.9439 32.9918 15.911C32.6595 14.878 31.5613 14.3128 30.5388 14.6486C29.5164 14.9843 28.9569 16.0938 29.2892 17.1267C29.6215 18.1597 30.7198 18.7249 31.7423 18.3891Z" fill="#EAEEF9"/>
<path d="M137.786 29.6613C139.56 28.0234 139.684 25.2428 138.063 23.4506C136.442 21.6583 133.689 21.5332 131.915 23.171C130.141 24.8088 130.017 27.5894 131.639 29.3817C133.26 31.1739 136.012 31.2991 137.786 29.6613Z" fill="#EAEEF9"/>
<path d="M134.821 92.4411C135.568 91.7515 135.62 90.5807 134.937 89.826C134.254 89.0714 133.096 89.0187 132.349 89.7083C131.602 90.3979 131.549 91.5687 132.232 92.3234C132.915 93.078 134.074 93.1307 134.821 92.4411Z" fill="#EAEEF9"/>
<path d="M37.0949 109.282C38.3598 109.282 39.3852 108.246 39.3852 106.968C39.3852 105.69 38.3598 104.655 37.0949 104.655C35.8301 104.655 34.8047 105.69 34.8047 106.968C34.8047 108.246 35.8301 109.282 37.0949 109.282Z" fill="url(#paint0_linear_4286_23702)"/>
<path d="M124.473 10.2571C125.485 10.2571 126.305 9.42838 126.305 8.40613C126.305 7.38387 125.485 6.55518 124.473 6.55518C123.461 6.55518 122.641 7.38387 122.641 8.40613C122.641 9.42838 123.461 10.2571 124.473 10.2571Z" fill="url(#paint1_linear_4286_23702)"/>
<g filter="url(#filter0_d_4286_23702)">
<path d="M136.723 53.9864L117.599 104.772C116.912 106.507 114.966 107.317 113.362 106.623L64.6948 87.3036C62.9771 86.6094 62.1755 84.6428 62.8626 83.0232L88.1697 18.0086C88.8568 16.2733 90.8035 15.4635 92.4067 16.1576L127.676 30.1554L136.723 53.9864Z" fill="white"/>
</g>
<path d="M114.735 85.5688L85.5345 74.0004C85.0765 73.8847 84.9619 73.422 85.0765 72.9592C85.191 72.4965 85.649 72.3808 86.1071 72.4965L115.308 84.0649C115.766 84.1806 115.88 84.6434 115.766 85.1061C115.537 85.4532 115.079 85.6845 114.735 85.5688Z" fill="#E3EAF2"/>
<path d="M81.8711 72.4957L76.7181 70.4134C76.26 70.2977 76.1455 69.835 76.2601 69.3723C76.3746 68.9095 76.8326 68.7938 77.2907 68.9095L82.4437 70.9918C82.9017 71.1075 83.0163 71.5703 82.9017 72.033C82.7872 72.4957 82.3292 72.6114 81.8711 72.4957Z" fill="#E3EAF2"/>
<path d="M117.718 77.586L104.663 72.3802C104.205 72.2645 104.091 71.8017 104.205 71.339C104.32 70.8763 104.778 70.7606 105.236 70.8763L118.29 76.0821C118.748 76.1977 118.863 76.6605 118.748 77.1232C118.634 77.586 118.176 77.7016 117.718 77.586Z" fill="#E3EAF2"/>
<path d="M99.1646 70.1824L80.1556 62.6629C79.6975 62.5472 79.583 62.0844 79.6976 61.6217C79.8121 61.159 80.2701 61.0433 80.7282 61.159L99.7371 68.6785C100.195 68.7941 100.31 69.2569 100.195 69.7196C100.081 70.1824 99.6226 70.298 99.1646 70.1824Z" fill="#E3EAF2"/>
<path d="M121.034 69.7194L115.995 67.7528C115.537 67.6371 115.423 67.1744 115.537 66.7116C115.652 66.2489 116.11 66.1332 116.568 66.2489L121.607 68.2155C122.065 68.3312 122.179 68.7939 122.065 69.2567C121.95 69.7194 121.492 69.8351 121.034 69.7194Z" fill="#E3EAF2"/>
<path d="M111.302 65.7856L83.4759 54.6799C83.0179 54.5642 82.9034 54.1015 83.0179 53.6387C83.1324 53.176 83.5904 53.0603 84.0485 53.176L111.875 64.2817C112.333 64.3974 112.447 64.8601 112.333 65.3229C112.218 65.7856 111.76 66.017 111.302 65.7856Z" fill="#E3EAF2"/>
<path d="M89.2014 85.4532L87.4837 84.7591C87.0257 84.6434 86.9112 84.1807 87.0257 83.718C87.1402 83.2552 87.5982 83.1395 88.0563 83.2552L89.774 83.9493C90.232 84.065 90.3465 84.5278 90.232 84.9905C90.003 85.4532 89.5449 85.5689 89.2014 85.4532Z" fill="#E3EAF2"/>
<path d="M84.2781 83.4863L73.972 79.3217C73.514 79.206 73.3994 78.7433 73.514 78.2805C73.6285 77.8178 74.0865 77.7021 74.5446 77.8178L84.8506 81.9824C85.3087 82.0981 85.4232 82.5609 85.3087 83.0236C85.1942 83.4863 84.6216 83.602 84.2781 83.4863Z" fill="#E3EAF2"/>
<path d="M124.47 61.8523L106.492 54.6799C106.033 54.5642 105.919 54.1015 106.033 53.6387C106.148 53.176 106.606 53.0603 107.064 53.176L125.042 60.3484C125.501 60.4641 125.615 60.9269 125.501 61.3896C125.386 61.8523 124.813 61.968 124.47 61.8523Z" fill="#E3EAF2"/>
<path d="M100.652 52.367L86.7962 46.8142C86.3382 46.6985 86.2237 46.2358 86.3382 45.773C86.4527 45.3103 86.9107 45.1946 87.3688 45.3103L101.225 50.9788C101.683 51.0945 101.797 51.5572 101.683 52.02C101.568 52.4827 101.11 52.5984 100.652 52.367Z" fill="#E3EAF2"/>
<path d="M117.486 38.3688L94.1252 29.1141C93.5526 28.8827 93.3236 28.3043 93.5526 27.7259C93.7816 27.1474 94.3542 26.9161 94.9267 27.1474L118.287 36.4022C118.86 36.6336 119.089 37.212 118.86 37.7904C118.631 38.3688 118.058 38.6002 117.486 38.3688Z" fill="#CED7E2"/>
<path d="M100.881 38.2539L91.9494 34.6677C91.3768 34.4363 91.1478 33.8579 91.3768 33.2794C91.6058 32.701 92.1784 32.4697 92.751 32.701L101.683 36.2872C102.255 36.5186 102.484 37.097 102.255 37.6755C102.026 38.2539 101.339 38.4852 100.881 38.2539Z" fill="#CED7E2"/>
<path d="M127.677 30.1555L122.295 44.0376C121.493 46.0043 122.639 48.318 124.471 49.0121L136.723 53.8708" fill="#E6EDF5"/>
<g filter="url(#filter1_d_4286_23702)">
<path d="M82.6716 32.1202L105.001 81.5174C105.688 83.2527 105.001 85.2193 103.284 85.9134L55.4177 107.199C53.7 107.893 51.7533 107.199 51.0663 105.464L23.2399 41.6063C22.5528 39.871 23.2399 37.9044 24.9575 37.2103L59.6547 21.7086L82.6716 32.1202Z" fill="white"/>
</g>
<path d="M89.4278 70.0645L60.6853 82.9055C60.3418 83.1369 59.8837 82.9055 59.6547 82.5585C59.4257 82.2114 59.6547 81.7487 59.9982 81.5173L88.7407 68.6763C89.0843 68.445 89.5423 68.6763 89.7713 69.0234C90.0004 69.3704 89.7713 69.9488 89.4278 70.0645Z" fill="#E3EAF2"/>
<path d="M57.134 84.4091L52.0955 86.6071C51.7519 86.8385 51.2939 86.6071 51.0648 86.2601C50.8358 85.913 51.0648 85.4503 51.4084 85.2189L56.4469 83.0209C56.7904 82.7896 57.2485 83.0209 57.4775 83.368C57.7065 83.8307 57.592 84.2935 57.134 84.4091Z" fill="#E3EAF2"/>
<path d="M85.8778 62.3138L73.0525 67.9823C72.709 68.2137 72.2509 67.9823 72.0219 67.6353C71.7929 67.2882 72.0219 66.8255 72.3654 66.5941L85.1908 60.9256C85.5343 60.6942 85.9923 60.9256 86.2214 61.2726C86.4504 61.6197 86.3359 62.0824 85.8778 62.3138Z" fill="#E3EAF2"/>
<path d="M67.6711 70.412L49.0056 78.7412C48.6621 78.9726 48.204 78.7412 47.975 78.3942C47.746 78.0471 47.975 77.5844 48.3185 77.353L66.984 69.0237C67.3275 68.7924 67.7856 69.0237 68.0146 69.3708C68.2436 69.8335 68.1291 70.2963 67.6711 70.412Z" fill="#E3EAF2"/>
<path d="M82.7851 54.331L77.8611 56.529C77.5175 56.7603 77.0595 56.529 76.8305 56.1819C76.6014 55.8349 76.8305 55.3721 77.174 55.1407L82.098 52.9427C82.4416 52.7114 82.8996 52.9427 83.1286 53.2898C83.3577 53.7525 83.1286 54.2153 82.7851 54.331Z" fill="#E3EAF2"/>
<path d="M73.1669 58.6118L45.7986 70.8744C45.455 71.1058 44.997 70.8744 44.768 70.5273C44.5389 70.1803 44.768 69.7175 45.1115 69.4862L72.5944 57.2236C72.9379 56.9923 73.396 57.2236 73.625 57.5707C73.7395 58.0334 73.625 58.4962 73.1669 58.6118Z" fill="#E3EAF2"/>
<path d="M71.4538 88.3425L69.7361 89.1523C69.3925 89.3837 68.9345 89.1523 68.7055 88.8052C68.4764 88.4582 68.7055 87.9954 69.049 87.7641L70.7667 86.9543C71.1102 86.7229 71.5683 86.9543 71.7973 87.3013C72.0263 87.6484 71.7973 88.1111 71.4538 88.3425Z" fill="#E3EAF2"/>
<path d="M66.5253 90.5406L56.3337 95.0522C55.9902 95.2836 55.5322 95.0522 55.3031 94.7052C55.0741 94.3581 55.3031 93.8954 55.6467 93.664L65.8382 89.1523C66.1818 88.921 66.6398 89.1523 66.8688 89.4994C67.0979 89.8464 66.9833 90.3092 66.5253 90.5406Z" fill="#E3EAF2"/>
<path d="M79.578 46.4641L61.9431 54.3307C61.5996 54.562 61.1415 54.3307 60.9125 53.9836C60.6835 53.6366 60.9125 53.1738 61.256 52.9425L78.8909 45.0759C79.2344 44.8446 79.6925 45.0759 79.9215 45.423C80.1505 45.77 79.9215 46.2328 79.578 46.4641Z" fill="#E3EAF2"/>
<path d="M56.2185 56.8764L42.5915 62.892C42.248 63.1233 41.79 62.892 41.5609 62.5449C41.3319 62.1978 41.5609 61.7351 41.9045 61.5037L55.5314 55.4882C55.8749 55.2568 56.333 55.4882 56.562 55.8352C56.791 56.1823 56.6765 56.645 56.2185 56.8764Z" fill="#E3EAF2"/>
<path d="M58.1663 34.8966L35.1494 45.0768C34.5768 45.3082 34.0043 45.0768 33.7753 44.4984C33.5462 43.92 33.7753 43.3416 34.3478 43.1102L57.2502 32.93C57.8228 32.6986 58.3953 32.93 58.6244 33.5084C58.8534 34.0868 58.6244 34.6652 58.1663 34.8966Z" fill="#CED7E2"/>
<path d="M46.3731 46.8119L37.5557 50.7452C36.9831 50.9765 36.4105 50.7452 36.1815 50.1667C35.9525 49.5883 36.1815 49.0099 36.7541 48.7785L45.5715 44.8453C46.1441 44.6139 46.7166 44.8453 46.9456 45.4237C47.1747 45.8864 46.9456 46.5805 46.3731 46.8119Z" fill="#CED7E2"/>
<path d="M59.6562 21.8237L65.6109 35.4745C66.4125 37.3254 68.8172 38.2509 70.6494 37.4411L82.6732 32.1196" fill="#E6EDF5"/>
<g filter="url(#filter2_d_4286_23702)">
<path d="M117.827 35.9385L118.629 105.349C118.629 107.663 116.797 109.629 114.392 109.629H47.6315C45.3412 109.629 43.3945 107.778 43.3945 105.349V16.1564C43.3945 13.8427 45.2267 11.8761 47.6315 11.8761H96.07L117.827 35.9385Z" fill="white"/>
</g>
<path d="M75.9158 95.7482H73.5111C72.9385 95.7482 72.4805 95.2854 72.4805 94.707C72.4805 94.1286 72.9385 93.6658 73.5111 93.6658H75.9158C76.4884 93.6658 76.9464 94.1286 76.9464 94.707C76.9464 95.2854 76.4884 95.7482 75.9158 95.7482Z" fill="#E3EAF2"/>
<path d="M69.1598 95.7482H54.9603C54.3877 95.7482 53.9297 95.2854 53.9297 94.707C53.9297 94.1286 54.3877 93.6658 54.9603 93.6658H69.1598C69.7323 93.6658 70.1904 94.1286 70.1904 94.707C70.1904 95.2854 69.7323 95.7482 69.1598 95.7482Z" fill="#E3EAF2"/>
<path d="M87.7109 26.4523H55.6476C54.9605 26.4523 54.2734 25.8739 54.2734 25.0641C54.2734 24.37 54.846 23.6759 55.6476 23.6759H87.7109C88.398 23.6759 89.0851 24.2543 89.0851 25.0641C88.9706 25.8739 88.398 26.4523 87.7109 26.4523Z" fill="#CED7E2"/>
<path d="M67.9004 34.204H55.6476C54.9605 34.204 54.2734 33.6256 54.2734 32.8158C54.2734 32.1217 54.846 31.4276 55.6476 31.4276H67.9004C68.5874 31.4276 69.2745 32.006 69.2745 32.8158C69.16 33.6256 68.5874 34.204 67.9004 34.204Z" fill="#CED7E2"/>
<path d="M96.0703 11.9909V31.0788C96.0703 33.7396 98.3606 35.9376 100.994 35.9376H117.828" fill="#E6EDF5"/>
<path d="M107.292 48.7803H90.5733C90.5733 48.7803 90.5733 48.7803 90.4588 48.7803C90.4588 48.7803 90.4588 48.7803 90.3443 48.7803H73.1675C73.1675 48.7803 73.1675 48.7803 73.053 48.7803C73.053 48.7803 73.053 48.7803 72.9385 48.7803H56.7923C54.9601 48.7803 53.5859 50.2842 53.5859 52.1352V81.519C53.5859 83.37 55.0746 84.8739 56.7923 84.8739H107.178C109.01 84.8739 110.384 83.37 110.384 81.519V52.1352C110.498 50.2842 109.01 48.7803 107.292 48.7803ZM74.0836 74.8093V68.2153H89.5427V74.8093H74.0836ZM89.5427 76.776V82.9072H74.0836V76.776H89.5427V76.776ZM89.5427 59.539V66.133H74.0836V59.539H89.5427ZM74.0836 57.5723V50.747H89.5427V57.5723H74.0836ZM108.552 66.133H91.4894V59.539H108.552V66.133ZM72.1369 66.133H55.5326V59.539H72.0224V66.133H72.1369ZM55.5326 68.2153H72.0224V74.8093H55.5326V68.2153ZM91.4894 68.2153H108.552V74.8093H91.4894V68.2153ZM108.552 52.1352V57.5723H91.4894V50.747H107.292C107.979 50.747 108.552 51.3254 108.552 52.1352ZM56.7923 50.747H72.0224V57.5723H55.5326V52.1352C55.5326 51.3254 56.1052 50.747 56.7923 50.747ZM55.5326 81.519V76.776H72.0224V82.9072H56.7923C56.1052 82.9072 55.5326 82.3288 55.5326 81.519ZM107.292 82.9072H91.4894V76.776H108.552V81.519C108.552 82.3288 107.979 82.9072 107.292 82.9072Z" fill="#E3EAF2"/>
<g filter="url(#filter3_d_4286_23702)">
<path d="M100.703 45.2912C99.6814 45.2912 97.2296 44.3596 96.4123 44.0491C92.1217 42.0825 85.0727 36.2861 81.1907 36.2861C77.3087 36.2861 70.2597 41.979 65.9691 44.0491C65.254 44.3596 62.7 45.2912 61.6784 45.2912C60.0439 45.3947 58.818 46.8438 59.0223 48.3964C59.4309 52.2262 60.4525 59.0576 63.1086 67.8557C66.582 78.724 76.1849 85.2449 79.8626 87.4186C80.7821 87.9361 81.8037 87.9361 82.7231 87.4186C86.4008 85.2449 96.0037 78.724 99.2728 67.8557C101.929 59.0576 102.95 52.2262 103.359 48.3964C103.563 46.8438 102.338 45.3947 100.703 45.2912Z" fill="url(#paint2_linear_4286_23702)"/>
</g>
<path d="M99.3757 49.1214C98.9671 52.2266 98.1498 57.5055 96.3109 64.1299C96.1066 64.958 95.8001 65.8896 95.4937 66.7176C92.7354 75.7227 84.9713 81.4156 81.1915 83.6928C80.7828 83.4858 80.3742 83.1752 79.9655 82.8647C75.9814 80.1735 69.4432 74.7912 66.9914 66.7176C64.6418 58.9546 63.6202 52.6406 63.1094 49.1214C64.9482 48.7074 67.1957 47.8793 67.6044 47.6723C69.3411 46.8443 71.2821 45.7057 73.3252 44.3601C75.5727 42.911 79.7612 40.3233 81.1915 40.3233C82.6217 40.3233 86.8102 43.0145 89.0577 44.3601C91.1008 45.6022 93.0419 46.8443 94.7786 47.6723C95.2893 47.7758 97.5368 48.7074 99.3757 49.1214Z" fill="url(#paint3_linear_4286_23702)"/>
<path d="M96.3114 64.0261C96.107 64.8541 95.8006 65.7857 95.4941 66.6137C92.7358 75.6189 84.9718 81.3118 81.1919 83.5889C80.7833 83.3819 80.3746 83.0714 79.966 82.7609L72.4062 61.2314L75.9818 60.6103L80.4768 63.9226L90.1818 56.8841L93.2466 55.849C93.2466 55.9525 94.5747 59.5753 96.3114 64.0261Z" fill="url(#paint4_linear_4286_23702)"/>
<path d="M78.9438 68.3741L72.8143 62.1637C72.4057 61.7496 72.4057 60.9216 72.8143 60.5076L75.2661 58.0234C75.6747 57.6094 76.492 57.6094 76.9006 58.0234L79.7611 60.9216C80.1697 61.3356 80.7827 61.3356 81.0891 60.9216L88.751 53.1585C89.1597 52.7445 89.9769 52.7445 90.3856 53.1585L92.8374 55.6427C93.246 56.0567 93.246 56.8848 92.8374 57.2988L82.0086 68.3741C81.0891 69.2021 79.7611 69.2021 78.9438 68.3741Z" fill="url(#paint5_linear_4286_23702)"/>
<path d="M126.174 19.9005C124.717 20.8803 123.016 21.4518 121.154 21.4518C116.134 21.4518 112.004 17.2879 112.004 12.2259C112.004 7.1639 116.134 3 121.154 3C126.174 3 130.304 7.1639 130.304 12.2259C130.304 15.41 128.684 18.2676 126.174 19.9005Z" fill="url(#paint6_linear_4286_23702)"/>
<path d="M119.938 15.6541C119.614 15.6541 119.371 15.5725 119.128 15.3276L116.78 12.9599C116.375 12.5516 116.375 11.8168 116.78 11.4086C117.185 11.0004 117.914 11.0004 118.319 11.4086L119.857 12.9599L123.825 8.95925C124.23 8.55102 124.958 8.55102 125.363 8.95925C125.768 9.36747 125.768 10.1023 125.363 10.5105L120.586 15.3276C120.505 15.5725 120.262 15.6541 119.938 15.6541Z" fill="white"/>
<defs>
<filter id="filter0_d_4286_23702" x="40.6172" y="4.90973" width="118.105" height="134.961" filterUnits="userSpaceOnUse" color-interpolation-filters="sRGB">
<feFlood flood-opacity="0" result="BackgroundImageFix"/>
<feColorMatrix in="SourceAlpha" type="matrix" values="0 0 0 0 0 0 0 0 0 0 0 0 0 0 0 0 0 0 127 0" result="hardAlpha"/>
<feOffset dy="11"/>
<feGaussianBlur stdDeviation="11"/>
<feColorMatrix type="matrix" values="0 0 0 0 0.397708 0 0 0 0 0.47749 0 0 0 0 0.575 0 0 0 0.18 0"/>
<feBlend mode="normal" in2="BackgroundImageFix" result="effect1_dropShadow_4286_23702"/>
<feBlend mode="normal" in="SourceGraphic" in2="effect1_dropShadow_4286_23702" result="shape"/>
</filter>
<filter id="filter1_d_4286_23702" x="0.976562" y="10.7086" width="126.289" height="129.757" filterUnits="userSpaceOnUse" color-interpolation-filters="sRGB">
<feFlood flood-opacity="0" result="BackgroundImageFix"/>
<feColorMatrix in="SourceAlpha" type="matrix" values="0 0 0 0 0 0 0 0 0 0 0 0 0 0 0 0 0 0 127 0" result="hardAlpha"/>
<feOffset dy="11"/>
<feGaussianBlur stdDeviation="11"/>
<feColorMatrix type="matrix" values="0 0 0 0 0.397708 0 0 0 0 0.47749 0 0 0 0 0.575 0 0 0 0.18 0"/>
<feBlend mode="normal" in2="BackgroundImageFix" result="effect1_dropShadow_4286_23702"/>
<feBlend mode="normal" in="SourceGraphic" in2="effect1_dropShadow_4286_23702" result="shape"/>
</filter>
<filter id="filter2_d_4286_23702" x="21.3945" y="0.876099" width="119.234" height="141.753" filterUnits="userSpaceOnUse" color-interpolation-filters="sRGB">
<feFlood flood-opacity="0" result="BackgroundImageFix"/>
<feColorMatrix in="SourceAlpha" type="matrix" values="0 0 0 0 0 0 0 0 0 0 0 0 0 0 0 0 0 0 127 0" result="hardAlpha"/>
<feOffset dy="11"/>
<feGaussianBlur stdDeviation="11"/>
<feColorMatrix type="matrix" values="0 0 0 0 0.397708 0 0 0 0 0.47749 0 0 0 0 0.575 0 0 0 0.18 0"/>
<feBlend mode="normal" in2="BackgroundImageFix" result="effect1_dropShadow_4286_23702"/>
<feBlend mode="normal" in="SourceGraphic" in2="effect1_dropShadow_4286_23702" result="shape"/>
</filter>
<filter id="filter3_d_4286_23702" x="51" y="33.2861" width="60.3828" height="67.5207" filterUnits="userSpaceOnUse" color-interpolation-filters="sRGB">
<feFlood flood-opacity="0" result="BackgroundImageFix"/>
<feColorMatrix in="SourceAlpha" type="matrix" values="0 0 0 0 0 0 0 0 0 0 0 0 0 0 0 0 0 0 127 0" result="hardAlpha"/>
<feOffset dy="5"/>
<feGaussianBlur stdDeviation="4"/>
<feColorMatrix type="matrix" values="0 0 0 0 0.1125 0 0 0 0 0.295916 0 0 0 0 1 0 0 0 0.22 0"/>
<feBlend mode="normal" in2="BackgroundImageFix" result="effect1_dropShadow_4286_23702"/>
<feBlend mode="normal" in="SourceGraphic" in2="effect1_dropShadow_4286_23702" result="shape"/>
</filter>
<linearGradient id="paint0_linear_4286_23702" x1="34.8035" y1="106.916" x2="39.3419" y2="106.916" gradientUnits="userSpaceOnUse">
<stop stop-color="#FF66A9"/>
<stop offset="1" stop-color="#F53689"/>
</linearGradient>
<linearGradient id="paint1_linear_4286_23702" x1="122.706" y1="8.40751" x2="126.261" y2="8.40751" gradientUnits="userSpaceOnUse">
<stop stop-color="#FF66A9"/>
<stop offset="1" stop-color="#F53689"/>
</linearGradient>
<linearGradient id="paint2_linear_4286_23702" x1="78.7639" y1="52.2468" x2="93.4047" y2="72.5199" gradientUnits="userSpaceOnUse">
<stop stop-color="#83A6FF"/>
<stop offset="1" stop-color="#5A78FF"/>
</linearGradient>
<linearGradient id="paint3_linear_4286_23702" x1="94.421" y1="73.6838" x2="72.3901" y2="45.9941" gradientUnits="userSpaceOnUse">
<stop stop-color="#83A6FF"/>
<stop offset="1" stop-color="#5A78FF"/>
</linearGradient>
<linearGradient id="paint4_linear_4286_23702" x1="81.0848" y1="60.3101" x2="87.682" y2="70.8003" gradientUnits="userSpaceOnUse">
<stop stop-color="#4F6AFF"/>
<stop offset="1" stop-color="#657EFF" stop-opacity="0"/>
</linearGradient>
<linearGradient id="paint5_linear_4286_23702" x1="86.6929" y1="62.9597" x2="80.4792" y2="56.3012" gradientUnits="userSpaceOnUse">
<stop offset="0.0113208" stop-color="#C2D1FF"/>
<stop offset="1" stop-color="white"/>
</linearGradient>
<linearGradient id="paint6_linear_4286_23702" x1="111.989" y1="12.168" x2="130.313" y2="12.168" gradientUnits="userSpaceOnUse">
<stop stop-color="#FF66A9"/>
<stop offset="1" stop-color="#F53689"/>
</linearGradient>
</defs>
</svg>
