<svg width="19" height="18" viewBox="0 0 19 18" fill="none" xmlns="http://www.w3.org/2000/svg">
<path fill-rule="evenodd" clip-rule="evenodd" d="M5.01662 10.3532L0.937659 8.74757C0.523384 8.58381 0.519788 7.96696 0.932888 7.79893L17.6731 0.988008C18.028 0.843241 18.3942 1.17117 18.3169 1.56423L15.3127 16.8048C15.2419 17.1646 14.8419 17.3278 14.5595 17.1114L10.4586 13.9712C10.2096 13.7805 9.87006 13.7907 9.63174 13.9955L7.35806 15.9505C7.09412 16.178 6.69648 16.0512 6.59545 15.7083L5.01662 10.3532ZM14.3143 4.31644L6.34247 9.49473C6.03694 9.69365 5.89307 10.0828 5.99178 10.4471L6.8537 13.6413C6.9149 13.8677 7.22641 13.8445 7.25608 13.6106L7.48019 11.8589C7.52244 11.5291 7.67163 11.2253 7.90287 10.9983L14.4819 4.54832C14.605 4.42795 14.4576 4.22363 14.3143 4.31644Z" fill="white"/>
<path d="M6.34247 9.49864L14.3143 4.32034C14.4576 4.22754 14.605 4.43185 14.4819 4.55223L7.90287 11.0022C7.67163 11.2292 7.52244 11.533 7.48019 11.8628L7.25608 13.6145C7.22641 13.8484 6.9149 13.8716 6.8537 13.6452L5.99178 10.451C5.89307 10.0867 6.03694 9.69755 6.34247 9.49864Z" fill="#EAEAEA"/>
</svg>
