<svg width="152" height="24" viewBox="0 0 152 24" fill="none" xmlns="http://www.w3.org/2000/svg">
<path d="M3.83813 11.1926L19.8012 5.07487C20.5421 4.80883 21.1892 5.25452 20.9491 6.36808L20.9505 6.36671L18.2325 19.0944C18.0311 19.9968 17.4916 20.2162 16.7369 19.7911L12.5978 16.759L10.6014 18.6706C10.3806 18.8901 10.1944 19.0752 9.76668 19.0752L10.0606 14.8884L17.7317 8.00001C18.0655 7.70791 17.6572 7.54334 17.217 7.83407L7.73715 13.7666L3.65049 12.4995C2.76335 12.2197 2.74403 11.6177 3.83813 11.1926Z" fill="white"/>
<path d="M32.458 15.2451C32.54 17.0498 34.0508 18.1641 36.334 18.1641C38.7061 18.1641 40.1895 16.9746 40.1895 15.0879C40.1895 13.625 39.3213 12.791 37.2432 12.3604L36.1768 12.1416C34.9463 11.8818 34.4541 11.4512 34.4541 10.7812C34.4541 9.9541 35.2334 9.43457 36.3271 9.43457C37.4551 9.43457 38.2344 9.99512 38.3164 10.9248H40.0049C39.9639 9.16113 38.5215 7.97168 36.3408 7.97168C34.2012 7.97168 32.6768 9.14746 32.6768 10.8838C32.6768 12.3262 33.5996 13.2559 35.5752 13.6592L36.6348 13.8779C37.9199 14.1445 38.4121 14.582 38.4121 15.293C38.4121 16.1133 37.585 16.7012 36.3955 16.7012C35.165 16.7012 34.2764 16.1543 34.1465 15.2451H32.458ZM41.3789 18H43.0811V10.7539H41.3789V18ZM42.2197 9.66016C42.7461 9.66016 43.1562 9.24316 43.1562 8.7373C43.1562 8.22461 42.7461 7.81445 42.2197 7.81445C41.707 7.81445 41.29 8.22461 41.29 8.7373C41.29 9.24316 41.707 9.66016 42.2197 9.66016ZM47.709 16.6533C46.6357 16.6533 45.9521 15.792 45.9521 14.3564C45.9521 12.9346 46.6357 12.0322 47.709 12.0322C48.7959 12.0322 49.5 12.9482 49.5 14.3564C49.5 15.7715 48.7959 16.6533 47.709 16.6533ZM47.7021 20.7344C49.8145 20.7344 51.2021 19.6133 51.2021 17.8838V10.7539H49.5342V11.998H49.5068C49.0898 11.1641 48.2559 10.6309 47.2236 10.6309C45.3711 10.6309 44.209 12.0596 44.209 14.3496C44.209 16.6055 45.3984 18.0068 47.1895 18.0068C48.2285 18.0068 49.083 17.4873 49.459 16.708H49.5V17.9316C49.5 18.8545 48.8643 19.4766 47.7568 19.4766C46.9502 19.4766 46.3281 19.1006 46.1436 18.5469H44.4551C44.626 19.8184 45.9111 20.7344 47.7021 20.7344ZM52.5898 18H54.292V13.8027C54.292 12.7637 54.9141 12.0596 55.8916 12.0596C56.8623 12.0596 57.3408 12.6338 57.3408 13.6592V18H59.043V13.3174C59.043 11.6426 58.1338 10.6172 56.5342 10.6172C55.4199 10.6172 54.6475 11.1367 54.2578 11.998H54.2236V10.7539H52.5898V18ZM63.2539 18H64.9561V10.7539H63.2539V18ZM64.0947 9.66016C64.6211 9.66016 65.0312 9.24316 65.0312 8.7373C65.0312 8.22461 64.6211 7.81445 64.0947 7.81445C63.582 7.81445 63.165 8.22461 63.165 8.7373C63.165 9.24316 63.582 9.66016 64.0947 9.66016ZM66.3848 18H68.0869V13.8027C68.0869 12.7637 68.709 12.0596 69.6865 12.0596C70.6572 12.0596 71.1357 12.6338 71.1357 13.6592V18H72.8379V13.3174C72.8379 11.6426 71.9287 10.6172 70.3291 10.6172C69.2148 10.6172 68.4424 11.1367 68.0527 11.998H68.0186V10.7539H66.3848V18ZM83.3857 10.7539H81.6084L79.9268 16.4209H79.8926L78.2109 10.7539H76.3926L78.9629 18H80.8359L83.3857 10.7539ZM84.2129 18H85.915V10.7539H84.2129V18ZM85.0537 9.66016C85.5801 9.66016 85.9902 9.24316 85.9902 8.7373C85.9902 8.22461 85.5801 7.81445 85.0537 7.81445C84.541 7.81445 84.124 8.22461 84.124 8.7373C84.124 9.24316 84.541 9.66016 85.0537 9.66016ZM89.9893 16.8311C89.251 16.8311 88.7588 16.4551 88.7588 15.8604C88.7588 15.2861 89.2305 14.917 90.0508 14.8623L91.7256 14.7598V15.3135C91.7256 16.1885 90.9531 16.8311 89.9893 16.8311ZM89.4766 18.1162C90.4062 18.1162 91.3154 17.6309 91.7324 16.8447H91.7666V18H93.4072V13.0098C93.4072 11.5537 92.2383 10.6035 90.4404 10.6035C88.5947 10.6035 87.4395 11.5742 87.3643 12.9277H88.9434C89.0527 12.3262 89.5654 11.9365 90.3721 11.9365C91.2129 11.9365 91.7256 12.374 91.7256 13.1328V13.6523L89.8115 13.7617C88.0479 13.8711 87.0566 14.6436 87.0566 15.9287C87.0566 17.2344 88.0752 18.1162 89.4766 18.1162ZM98.0557 9.05859V10.7539H97.0166V12.0664H98.0557V16.0723C98.0557 17.4805 98.6709 18.0342 100.236 18.0342C100.599 18.0342 100.934 18.0068 101.118 17.9658V16.667C101.009 16.6875 100.79 16.7012 100.633 16.7012C100.031 16.7012 99.7578 16.4277 99.7578 15.833V12.0664H101.125V10.7539H99.7578V9.05859H98.0557ZM105.274 11.9229C106.252 11.9229 106.908 12.6406 106.942 13.666H103.559C103.627 12.6543 104.317 11.9229 105.274 11.9229ZM106.949 15.833C106.765 16.4346 106.163 16.8311 105.37 16.8311C104.256 16.8311 103.545 16.0518 103.545 14.8896V14.7871H108.61V14.2334C108.61 12.0322 107.325 10.6035 105.268 10.6035C103.176 10.6035 101.85 12.1143 101.85 14.4043C101.85 16.7148 103.162 18.1436 105.336 18.1436C107.052 18.1436 108.323 17.2002 108.542 15.833H106.949ZM109.759 18H111.461V8.13574H109.759V18ZM116.034 11.9229C117.012 11.9229 117.668 12.6406 117.702 13.666H114.318C114.387 12.6543 115.077 11.9229 116.034 11.9229ZM117.709 15.833C117.524 16.4346 116.923 16.8311 116.13 16.8311C115.016 16.8311 114.305 16.0518 114.305 14.8896V14.7871H119.37V14.2334C119.37 12.0322 118.085 10.6035 116.027 10.6035C113.936 10.6035 112.609 12.1143 112.609 14.4043C112.609 16.7148 113.922 18.1436 116.096 18.1436C117.812 18.1436 119.083 17.2002 119.302 15.833H117.709ZM123.67 16.6533C122.597 16.6533 121.913 15.792 121.913 14.3564C121.913 12.9346 122.597 12.0322 123.67 12.0322C124.757 12.0322 125.461 12.9482 125.461 14.3564C125.461 15.7715 124.757 16.6533 123.67 16.6533ZM123.663 20.7344C125.775 20.7344 127.163 19.6133 127.163 17.8838V10.7539H125.495V11.998H125.468C125.051 11.1641 124.217 10.6309 123.185 10.6309C121.332 10.6309 120.17 12.0596 120.17 14.3496C120.17 16.6055 121.359 18.0068 123.15 18.0068C124.189 18.0068 125.044 17.4873 125.42 16.708H125.461V17.9316C125.461 18.8545 124.825 19.4766 123.718 19.4766C122.911 19.4766 122.289 19.1006 122.104 18.5469H120.416C120.587 19.8184 121.872 20.7344 123.663 20.7344ZM128.551 18H130.253V13.7822C130.253 12.7637 130.834 12.1416 131.798 12.1416C132.085 12.1416 132.345 12.1826 132.488 12.2373V10.6992C132.365 10.6719 132.174 10.6309 131.955 10.6309C131.101 10.6309 130.465 11.1367 130.219 12.0186H130.185V10.7539H128.551V18ZM135.845 16.8311C135.106 16.8311 134.614 16.4551 134.614 15.8604C134.614 15.2861 135.086 14.917 135.906 14.8623L137.581 14.7598V15.3135C137.581 16.1885 136.809 16.8311 135.845 16.8311ZM135.332 18.1162C136.262 18.1162 137.171 17.6309 137.588 16.8447H137.622V18H139.263V13.0098C139.263 11.5537 138.094 10.6035 136.296 10.6035C134.45 10.6035 133.295 11.5742 133.22 12.9277H134.799C134.908 12.3262 135.421 11.9365 136.228 11.9365C137.068 11.9365 137.581 12.374 137.581 13.1328V13.6523L135.667 13.7617C133.903 13.8711 132.912 14.6436 132.912 15.9287C132.912 17.2344 133.931 18.1162 135.332 18.1162ZM140.637 18H142.339V13.5635C142.339 12.6885 142.913 12.0527 143.733 12.0527C144.526 12.0527 145.019 12.5518 145.019 13.3584V18H146.673V13.5225C146.673 12.6543 147.233 12.0527 148.054 12.0527C148.888 12.0527 149.353 12.5586 149.353 13.4473V18H151.055V13.0303C151.055 11.5811 150.118 10.6172 148.689 10.6172C147.644 10.6172 146.782 11.1777 146.434 12.0732H146.393C146.126 11.1436 145.395 10.6172 144.369 10.6172C143.385 10.6172 142.619 11.1709 142.305 12.0117H142.271V10.7539H140.637V18Z" fill="white"/>
</svg>
