<svg width="123" height="145" viewBox="0 0 123 145" fill="none" xmlns="http://www.w3.org/2000/svg">
<path d="M5.63373 19.8773C7.12453 19.39 7.94025 17.7793 7.4557 16.2798C6.97116 14.7804 5.36982 13.9599 3.87902 14.4473C2.38822 14.9346 1.57249 16.5453 2.05704 18.0447C2.54159 19.5442 4.14293 20.3647 5.63373 19.8773Z" fill="#EAEEF9"/>
<path d="M11.8295 10.5624C12.8433 10.2309 13.398 9.13569 13.0685 8.11605C12.739 7.09641 11.6501 6.53849 10.6363 6.8699C9.62258 7.20131 9.06789 8.29655 9.39738 9.3162C9.72688 10.3358 10.8158 10.8938 11.8295 10.5624Z" fill="#EAEEF9"/>
<path d="M104.877 20.3618C106.636 18.7451 106.759 16.0002 105.151 14.231C103.544 12.4618 100.815 12.3383 99.056 13.955C97.297 15.5718 97.1742 18.3167 98.7816 20.0859C100.389 21.8551 103.118 21.9786 104.877 20.3618Z" fill="#EAEEF9"/>
<path d="M118.659 12.4499C119.4 11.7691 119.451 10.6134 118.775 9.86847C118.098 9.12355 116.949 9.07152 116.208 9.75227C115.468 10.433 115.416 11.5887 116.093 12.3337C116.769 13.0786 117.919 13.1306 118.659 12.4499Z" fill="#EAEEF9"/>
<path d="M10.6201 113.889C11.3607 113.209 11.4124 112.053 10.7356 111.308C10.0588 110.563 8.90974 110.511 8.16913 111.192C7.42851 111.872 7.37678 113.028 8.05359 113.773C8.7304 114.518 9.87945 114.57 10.6201 113.889Z" fill="#EAEEF9"/>
<path d="M56.4277 119.927C87.5918 119.927 112.855 94.5168 112.855 63.1713C112.855 31.8258 87.5918 6.41528 56.4277 6.41528C25.2635 6.41528 0 31.8258 0 63.1713C0 94.5168 25.2635 119.927 56.4277 119.927Z" fill="#EAEEF9"/>
<path d="M21.6892 55.9769L14.3093 24.4584C13.7417 22.0603 15.2176 19.7763 17.4884 19.2054L66.1956 7.55725L93.7849 26.3998L111.042 95.7175C111.61 98.1156 110.134 100.4 107.863 100.971L40.6498 116.958C38.2656 117.529 35.9948 116.045 35.4271 113.761L21.1215 53.5787" fill="white"/>
<path d="M106.726 53.8071L80.7263 120.27C79.818 122.554 77.3202 123.582 75.0495 122.668L11.1284 96.4027C8.85765 95.4891 7.83582 92.9768 8.74411 90.6928L43.1457 5.73011C44.054 3.44617 46.5518 2.41839 48.8225 3.33197L95.259 22.4029L106.726 53.8071Z" fill="white"/>
<path d="M95.1437 22.4028L87.7638 40.6744C86.7419 43.1867 88.1044 46.27 90.6022 47.2978L106.724 53.8071" fill="white"/>
<g filter="url(#filter0_d_3281_17013)">
<path d="M100.026 107.48C100.026 109.878 98.0961 111.819 95.7118 111.819H26.6816C24.2973 111.819 22.3672 109.878 22.3672 107.48V15.6653C22.3672 13.2672 24.2973 11.3258 26.6816 11.3258H76.7512L99.2314 36.1066L99.6856 77.6744L100.026 107.48Z" fill="white"/>
</g>
<path d="M87.3108 85.554H45.87C45.1888 85.554 44.6211 84.983 44.6211 84.2978C44.6211 83.6126 45.1888 83.0416 45.87 83.0416H87.3108C87.9921 83.0416 88.5597 83.6126 88.5597 84.2978C88.4462 84.983 87.9921 85.554 87.3108 85.554Z" fill="#E3EAF2"/>
<path d="M40.7613 85.554H33.495C32.8138 85.554 32.2461 84.983 32.2461 84.2978C32.2461 83.6126 32.8138 83.0416 33.495 83.0416H40.7613C41.4426 83.0416 42.0102 83.6126 42.0102 84.2978C42.0102 84.983 41.4426 85.554 40.7613 85.554Z" fill="url(#paint0_linear_3281_17013)"/>
<path d="M87.1968 74.2484H68.6903C68.0091 74.2484 67.4414 73.6774 67.4414 72.9923C67.4414 72.3071 68.0091 71.7361 68.6903 71.7361H87.1968C87.878 71.7361 88.4457 72.3071 88.4457 72.9923C88.3321 73.7916 87.878 74.2484 87.1968 74.2484Z" fill="#E3EAF2"/>
<path d="M60.8565 74.2484H33.8348C33.1536 74.2484 32.5859 73.6774 32.5859 72.9923C32.5859 72.3071 33.1536 71.7361 33.8348 71.7361H60.8565C61.5378 71.7361 62.1054 72.3071 62.1054 72.9923C62.1054 73.7916 61.5378 74.2484 60.8565 74.2484Z" fill="#E3EAF2"/>
<path d="M87.5384 63.0571H80.3856C79.7044 63.0571 79.1367 62.4862 79.1367 61.801C79.1367 61.1158 79.7044 60.5448 80.3856 60.5448H87.5384C88.2196 60.5448 88.7873 61.1158 88.7873 61.801C88.7873 62.4862 88.2196 63.0571 87.5384 63.0571Z" fill="url(#paint1_linear_3281_17013)"/>
<path d="M73.6854 63.0571H34.1747C33.4935 63.0571 32.9258 62.4862 32.9258 61.801C32.9258 61.1158 33.4935 60.5448 34.1747 60.5448H73.6854C74.3666 60.5448 74.9343 61.1158 74.9343 61.801C74.9343 62.4862 74.3666 63.0571 73.6854 63.0571Z" fill="#E3EAF2"/>
<path d="M55.9733 97.8872H53.4755C52.7942 97.8872 52.2266 97.3162 52.2266 96.631C52.2266 95.9459 52.7942 95.3749 53.4755 95.3749H55.9733C56.6545 95.3749 57.2222 95.9459 57.2222 96.631C57.1086 97.3162 56.541 97.8872 55.9733 97.8872Z" fill="#E3EAF2"/>
<path d="M48.9344 97.8872H34.1747C33.4935 97.8872 32.9258 97.3162 32.9258 96.631C32.9258 95.9459 33.4935 95.3749 34.1747 95.3749H48.8209C49.5021 95.3749 50.0698 95.9459 50.0698 96.631C50.1833 97.3162 49.6157 97.8872 48.9344 97.8872Z" fill="#E3EAF2"/>
<path d="M87.8764 51.8657H62.4442C61.763 51.8657 61.1953 51.2947 61.1953 50.6096C61.1953 49.9244 61.763 49.3534 62.4442 49.3534H87.8764C88.5576 49.3534 89.1253 49.9244 89.1253 50.6096C89.1253 51.2947 88.5576 51.8657 87.8764 51.8657Z" fill="#E3EAF2"/>
<path d="M54.2699 51.8657H34.5145C33.8333 51.8657 33.2656 51.2947 33.2656 50.6096C33.2656 49.9244 33.8333 49.3534 34.5145 49.3534H54.1564C54.8376 49.3534 55.4053 49.9244 55.4053 50.6096C55.4053 51.2947 54.9511 51.8657 54.2699 51.8657Z" fill="#E3EAF2"/>
<path d="M68.1211 26.5141H34.9684C34.0601 26.5141 33.3789 25.8289 33.3789 24.9153C33.3789 24.0017 34.0601 23.3165 34.9684 23.3165H68.1211C69.0294 23.3165 69.7106 24.0017 69.7106 24.9153C69.7106 25.7147 68.9158 26.5141 68.1211 26.5141Z" fill="#1C3754"/>
<path d="M47.571 34.5078H34.9684C34.0601 34.5078 33.3789 33.8226 33.3789 32.9091C33.3789 31.9955 34.0601 31.3103 34.9684 31.3103H47.6845C48.5928 31.3103 49.274 31.9955 49.274 32.9091C49.1605 33.7084 48.4793 34.5078 47.571 34.5078Z" fill="#1C3754"/>
<path d="M76.75 11.3258V30.9677C76.75 33.7085 79.1343 35.9924 81.8591 35.9924H99.2302" fill="#EAEEF9"/>
<g filter="url(#filter1_d_3281_17013)">
<path d="M113.763 98.1157C113.763 100.856 113.309 103.369 112.287 105.767C110.016 111.705 105.134 116.273 99.1167 118.329C97.0731 119.014 94.9159 119.356 92.6451 119.356C80.9509 119.356 71.5273 109.878 71.5273 98.1157C71.5273 86.3534 80.9509 76.875 92.6451 76.875C104.339 76.875 113.763 86.4676 113.763 98.1157Z" fill="url(#paint2_linear_3281_17013)"/>
</g>
<path d="M112.287 105.767C110.016 111.705 105.134 116.273 99.1164 118.329L87.3086 106.452L88.5575 98.915L89.5793 90.4644L92.4177 88.6373L93.8937 88.8657L95.1426 88.5231L112.287 105.767Z" fill="url(#paint3_linear_3281_17013)"/>
<path d="M96.5052 95.2607V91.4921C96.5052 89.4366 94.8022 87.7236 92.7585 87.7236C91.7367 87.7236 90.8284 88.1804 90.0336 88.8656C89.3524 89.5508 88.8983 90.4644 88.8983 91.6063V95.3748C87.8765 96.06 87.0817 96.8594 86.4005 98.0014C85.8328 99.0292 85.4922 100.285 85.4922 101.541C85.4922 105.538 88.6712 108.736 92.645 108.736C96.6188 108.736 99.7978 105.538 99.7978 101.541C99.9113 98.8008 98.5489 96.5168 96.5052 95.2607ZM93.5533 102.227V104.168C93.5533 104.396 93.3262 104.625 93.0991 104.625H92.3044C92.0773 104.625 91.8502 104.396 91.8502 104.168V102.912V102.227C91.169 101.884 90.8284 101.085 90.9419 100.285C91.0555 99.6001 91.6232 99.0292 92.3044 98.915C93.4397 98.6866 94.4616 99.6001 94.4616 100.628C94.4616 101.313 94.121 101.884 93.5533 102.227ZM94.8022 94.4613C94.121 94.2329 93.4397 94.1187 92.645 94.1187C91.9638 94.1187 91.2826 94.2329 90.6013 94.4613V91.6063C90.6013 91.0354 90.8284 90.4644 91.169 90.1218C91.5096 89.7792 92.0773 89.5508 92.645 89.5508C93.7804 89.5508 94.6886 90.4644 94.6886 91.6063V94.4613H94.8022Z" fill="url(#paint4_linear_3281_17013)"/>
<defs>
<filter id="filter0_d_3281_17013" x="0.367188" y="0.325806" width="121.66" height="144.494" filterUnits="userSpaceOnUse" color-interpolation-filters="sRGB">
<feFlood flood-opacity="0" result="BackgroundImageFix"/>
<feColorMatrix in="SourceAlpha" type="matrix" values="0 0 0 0 0 0 0 0 0 0 0 0 0 0 0 0 0 0 127 0" result="hardAlpha"/>
<feOffset dy="11"/>
<feGaussianBlur stdDeviation="11"/>
<feColorMatrix type="matrix" values="0 0 0 0 0.397708 0 0 0 0 0.47749 0 0 0 0 0.575 0 0 0 0.18 0"/>
<feBlend mode="normal" in2="BackgroundImageFix" result="effect1_dropShadow_3281_17013"/>
<feBlend mode="normal" in="SourceGraphic" in2="effect1_dropShadow_3281_17013" result="shape"/>
</filter>
<filter id="filter1_d_3281_17013" x="63.5273" y="73.875" width="58.2344" height="58.4813" filterUnits="userSpaceOnUse" color-interpolation-filters="sRGB">
<feFlood flood-opacity="0" result="BackgroundImageFix"/>
<feColorMatrix in="SourceAlpha" type="matrix" values="0 0 0 0 0 0 0 0 0 0 0 0 0 0 0 0 0 0 127 0" result="hardAlpha"/>
<feOffset dy="5"/>
<feGaussianBlur stdDeviation="4"/>
<feColorMatrix type="matrix" values="0 0 0 0 0.1125 0 0 0 0 0.295916 0 0 0 0 1 0 0 0 0.22 0"/>
<feBlend mode="normal" in2="BackgroundImageFix" result="effect1_dropShadow_3281_17013"/>
<feBlend mode="normal" in="SourceGraphic" in2="effect1_dropShadow_3281_17013" result="shape"/>
</filter>
<linearGradient id="paint0_linear_3281_17013" x1="32.2706" y1="84.3004" x2="41.9848" y2="84.3004" gradientUnits="userSpaceOnUse">
<stop stop-color="#FF66A9"/>
<stop offset="1" stop-color="#F53689"/>
</linearGradient>
<linearGradient id="paint1_linear_3281_17013" x1="79.1402" y1="61.8328" x2="88.749" y2="61.8328" gradientUnits="userSpaceOnUse">
<stop stop-color="#FF66A9"/>
<stop offset="1" stop-color="#F53689"/>
</linearGradient>
<linearGradient id="paint2_linear_3281_17013" x1="81.3316" y1="80.7526" x2="104.756" y2="116.22" gradientUnits="userSpaceOnUse">
<stop stop-color="#83A6FF"/>
<stop offset="1" stop-color="#5A78FF"/>
</linearGradient>
<linearGradient id="paint3_linear_3281_17013" x1="88.7163" y1="94.9207" x2="103.776" y2="109.893" gradientUnits="userSpaceOnUse">
<stop stop-color="#4F6AFF"/>
<stop offset="1" stop-color="#657EFF" stop-opacity="0"/>
</linearGradient>
<linearGradient id="paint4_linear_3281_17013" x1="98.4885" y1="104.687" x2="89.0536" y2="95.3064" gradientUnits="userSpaceOnUse">
<stop offset="0.0113208" stop-color="#C2D1FF"/>
<stop offset="1" stop-color="white"/>
</linearGradient>
</defs>
</svg>
