<svg width="56" height="56" viewBox="0 0 56 56" fill="none" xmlns="http://www.w3.org/2000/svg">
<rect width="56" height="56" rx="6" fill="#4279E3" fill-opacity="0.1"/>
<path d="M43.6575 13.1289H12.25C12.1661 13.1289 12.0856 13.0956 12.0263 13.0362C11.9669 12.9769 11.9336 12.8964 11.9336 12.8125C11.9336 12.7286 11.9669 12.6481 12.0263 12.5888C12.0856 12.5294 12.1661 12.4961 12.25 12.4961H43.6575C43.7415 12.4961 43.8219 12.5294 43.8813 12.5888C43.9406 12.6481 43.9739 12.7286 43.9739 12.8125C43.9739 12.8964 43.9406 12.9769 43.8813 13.0362C43.8219 13.0956 43.7415 13.1289 43.6575 13.1289ZM43.9739 16.2872C43.9739 16.2033 43.9406 16.1228 43.8813 16.0635C43.8219 16.0041 43.7415 15.9708 43.6575 15.9708H12.25C12.1661 15.9708 12.0856 16.0041 12.0263 16.0635C11.9669 16.1228 11.9336 16.2033 11.9336 16.2872C11.9336 16.3711 11.9669 16.4516 12.0263 16.5109C12.0856 16.5703 12.1661 16.6036 12.25 16.6036H43.6575C43.7415 16.6036 43.8219 16.5703 43.8813 16.5109C43.9406 16.4516 43.9739 16.3711 43.9739 16.2872ZM43.9739 19.7619C43.9739 19.678 43.9406 19.5975 43.8813 19.5382C43.8219 19.4788 43.7415 19.4455 43.6575 19.4455H12.25C12.1661 19.4455 12.0856 19.4788 12.0263 19.5382C11.9669 19.5975 11.9336 19.678 11.9336 19.7619C11.9336 19.8458 11.9669 19.9263 12.0263 19.9856C12.0856 20.045 12.1661 20.0783 12.25 20.0783H43.6575C43.7415 20.0783 43.8219 20.045 43.8813 19.9856C43.9406 19.9263 43.9739 19.8458 43.9739 19.7619ZM43.9739 23.2366C43.9739 23.1527 43.9406 23.0722 43.8813 23.0129C43.8219 22.9535 43.7415 22.9202 43.6575 22.9202H12.25C12.1661 22.9202 12.0856 22.9535 12.0263 23.0129C11.9669 23.0722 11.9336 23.1527 11.9336 23.2366C11.9336 23.3205 11.9669 23.401 12.0263 23.4603C12.0856 23.5197 12.1661 23.553 12.25 23.553H43.6575C43.7415 23.553 43.8219 23.5197 43.8813 23.4603C43.9406 23.401 43.9739 23.3205 43.9739 23.2366ZM43.9739 26.7113C43.9739 26.6274 43.9406 26.5469 43.8813 26.4876C43.8219 26.4282 43.7415 26.3949 43.6575 26.3949H12.25C12.1661 26.3949 12.0856 26.4282 12.0263 26.4876C11.9669 26.5469 11.9336 26.6274 11.9336 26.7113C11.9336 26.7952 11.9669 26.8757 12.0263 26.935C12.0856 26.9944 12.1661 27.0277 12.25 27.0277H43.6575C43.7415 27.0277 43.8219 26.9944 43.8813 26.935C43.9406 26.8757 43.9739 26.7952 43.9739 26.7113ZM43.9739 30.186C43.9739 30.1021 43.9406 30.0216 43.8813 29.9623C43.8219 29.9029 43.7415 29.8696 43.6575 29.8696H12.25C12.1661 29.8696 12.0856 29.9029 12.0263 29.9623C11.9669 30.0216 11.9336 30.1021 11.9336 30.186C11.9336 30.2699 11.9669 30.3504 12.0263 30.4097C12.0856 30.4691 12.1661 30.5024 12.25 30.5024H43.6575C43.7415 30.5024 43.8219 30.4691 43.8813 30.4097C43.9406 30.3504 43.9739 30.2699 43.9739 30.186ZM43.9739 33.6607C43.9739 33.5768 43.9406 33.4963 43.8813 33.437C43.8219 33.3776 43.7415 33.3443 43.6575 33.3443H12.25C12.1661 33.3443 12.0856 33.3776 12.0263 33.437C11.9669 33.4963 11.9336 33.5768 11.9336 33.6607C11.9336 33.7446 11.9669 33.8251 12.0263 33.8845C12.0856 33.9438 12.1661 33.9771 12.25 33.9771H43.6575C43.7415 33.9771 43.8219 33.9438 43.8813 33.8845C43.9406 33.8251 43.9739 33.7446 43.9739 33.6607ZM43.9739 37.1354C43.9739 37.0515 43.9406 36.971 43.8813 36.9117C43.8219 36.8524 43.7415 36.819 43.6575 36.819H12.25C12.1661 36.819 12.0856 36.8524 12.0263 36.9117C11.9669 36.971 11.9336 37.0515 11.9336 37.1354C11.9336 37.2193 11.9669 37.2998 12.0263 37.3592C12.0856 37.4185 12.1661 37.4518 12.25 37.4518H43.6575C43.7415 37.4518 43.8219 37.4185 43.8813 37.3592C43.9406 37.2998 43.9739 37.2193 43.9739 37.1354ZM43.9739 40.6101C43.9739 40.5262 43.9406 40.4457 43.8813 40.3864C43.8219 40.3271 43.7415 40.2937 43.6575 40.2937H12.25C12.1661 40.2937 12.0856 40.3271 12.0263 40.3864C11.9669 40.4457 11.9336 40.5262 11.9336 40.6101C11.9336 40.694 11.9669 40.7745 12.0263 40.8339C12.0856 40.8932 12.1661 40.9265 12.25 40.9265H43.6575C43.7415 40.9265 43.8219 40.8932 43.8813 40.8339C43.9406 40.7745 43.9739 40.694 43.9739 40.6101Z" fill="#DCE2E2"/>
<path d="M22.9345 43.9895H15.8125V19.6594C15.8125 18.7901 16.5172 18.0853 17.3866 18.0853H21.3604C22.2298 18.0853 22.9345 18.7901 22.9345 19.6594V43.9895Z" fill="#FF473E"/>
<path d="M32.3896 43.9896H25.2676V30.8249C25.2676 29.9556 25.9723 29.2509 26.8417 29.2509H30.8155C31.6848 29.2509 32.3896 29.9556 32.3896 30.8249V43.9896Z" fill="#00B1FF"/>
<path d="M41.8446 43.9899H34.7227V15.6886C34.7227 14.8192 35.4274 14.1145 36.2967 14.1145H40.2706C41.1399 14.1145 41.8447 14.8192 41.8447 15.6886V43.9899H41.8446Z" fill="#A97DFF"/>
<path d="M43.6575 44.4122H12.25C12.1195 44.4122 11.9943 44.3603 11.902 44.268C11.8097 44.1757 11.7578 44.0506 11.7578 43.92V12.8125C11.7578 12.682 11.8097 12.5568 11.902 12.4645C11.9943 12.3722 12.1195 12.3203 12.25 12.3203C12.3805 12.3203 12.5057 12.3722 12.598 12.4645C12.6903 12.5568 12.7422 12.682 12.7422 12.8125V43.4278H43.6575C43.7881 43.4278 43.9133 43.4797 44.0056 43.572C44.0979 43.6643 44.1497 43.7895 44.1497 43.92C44.1497 44.0506 44.0979 44.1757 44.0056 44.268C43.9133 44.3603 43.7881 44.4122 43.6575 44.4122Z" fill="#B9C5C6"/>
</svg>
