<svg width="18" height="14" viewBox="0 0 18 14" fill="none" xmlns="http://www.w3.org/2000/svg">
<path fill-rule="evenodd" clip-rule="evenodd" d="M17.2032 1.91024C16.5998 2.17788 15.9501 2.35884 15.2695 2.44075C15.9646 2.02358 16.4985 1.36449 16.7495 0.578716C16.0988 0.964457 15.3786 1.24448 14.6111 1.39496C13.9971 0.740632 13.1224 0.332031 12.1541 0.332031C10.2947 0.332031 8.78667 1.83881 8.78667 3.69799C8.78667 3.96277 8.81756 4.21898 8.87452 4.46566C6.07673 4.32565 3.59656 2.9846 1.93603 0.948266C1.64544 1.44544 1.48035 2.02358 1.48035 2.64077C1.48035 3.80847 2.07505 4.83902 2.97772 5.44192C2.4255 5.42478 1.9061 5.27334 1.45332 5.02094C1.45332 5.03522 1.45332 5.04951 1.45332 5.0638C1.45332 6.69439 2.61279 8.05449 4.15361 8.36403C3.87074 8.44118 3.57435 8.48214 3.26638 8.48214C3.05013 8.48214 2.8387 8.46118 2.63306 8.42118C3.06171 9.75842 4.30518 10.7318 5.77841 10.7594C4.6257 11.6614 3.1737 12.1995 1.5962 12.1995C1.32492 12.1995 1.05653 12.1843 0.792969 12.1529C2.28262 13.1082 4.05224 13.6654 5.95412 13.6654C12.1463 13.6654 15.533 8.53643 15.533 4.08849C15.533 3.94181 15.5292 3.79799 15.5234 3.65322C16.1808 3.1789 16.7524 2.58553 17.2032 1.91119V1.91024Z" fill="white"/>
</svg>
