<svg width="56" height="56" viewBox="0 0 56 56" fill="none" xmlns="http://www.w3.org/2000/svg">
<rect width="56" height="56" rx="6" fill="#4279E3" fill-opacity="0.1"/>
<g clip-path="url(#clip0_3254:37157)">
<path d="M20.7314 12.629C20.268 12.5565 20.2485 12.548 20.4665 12.5142C20.8844 12.4494 21.8713 12.5377 22.5513 12.7007C24.1388 13.0812 25.5834 14.056 27.1254 15.7871L27.535 16.247L28.1211 16.152C30.5899 15.7519 33.1015 16.0699 35.2023 17.0484C35.7801 17.3176 36.6914 17.8534 36.8053 17.9911C36.8415 18.035 36.908 18.3175 36.9531 18.619C37.1091 19.6619 37.031 20.4613 36.7148 21.0583C36.5426 21.3833 36.533 21.4862 36.6488 21.7643C36.7412 21.9862 36.9987 22.1504 37.2538 22.15C37.7757 22.1493 38.3376 21.2984 38.598 20.1144L38.7015 19.6442L38.9063 19.8781C40.03 21.1619 40.9127 22.9126 41.0643 24.1588L41.1037 24.4837L40.915 24.1883C40.5899 23.6801 40.2632 23.3341 39.845 23.055C39.0909 22.552 38.2937 22.3808 36.1825 22.2686C34.2757 22.1673 33.1964 22.0031 32.1264 21.6512C30.3057 21.0527 29.3878 20.2555 27.2251 17.3944C26.2645 16.1236 25.6707 15.4205 25.0801 14.8543C23.7381 13.5677 22.4194 12.893 20.7314 12.629Z" fill="#FF1C89"/>
<path d="M21.6327 18.7831C20.6919 17.4771 20.1098 15.4748 20.2358 13.978L20.2748 13.5148L20.4889 13.5542C20.8911 13.6281 21.5845 13.8883 21.9091 14.0872C22.8001 14.6328 23.1858 15.3511 23.5783 17.1957C23.6932 17.736 23.844 18.3475 23.9134 18.5545C24.0251 18.8876 24.4473 19.6659 24.7905 20.1713C25.0377 20.5353 24.8735 20.7078 24.327 20.6581C23.4925 20.5821 22.362 19.7954 21.6327 18.7831Z" fill="#FF1C89"/>
<path d="M36.0953 28.5023C31.6988 26.7175 30.1504 25.1682 30.1504 22.5541C30.1504 22.1694 30.1635 21.8546 30.1795 21.8546C30.1955 21.8546 30.3656 21.9816 30.5575 22.1368C31.449 22.8578 32.4474 23.1657 35.2111 23.5723C36.8375 23.8115 37.7527 24.0048 38.597 24.2871C41.2804 25.1844 42.9406 27.0054 43.3366 29.4858C43.4516 30.2065 43.3841 31.5581 43.1976 32.2704C43.0505 32.833 42.601 33.8471 42.4817 33.8861C42.4487 33.8969 42.4164 33.7691 42.4078 33.5954C42.3627 32.664 41.8959 31.7573 41.1121 31.078C40.2207 30.3058 39.0233 29.691 36.0953 28.5023Z" fill="#FF1C89"/>
<path d="M33.0076 29.2433C32.9525 28.9127 32.857 28.4906 32.7953 28.3053L32.6831 27.9683L32.8915 28.2041C33.1799 28.5304 33.4077 28.948 33.6008 29.5042C33.7482 29.9287 33.7648 30.0549 33.7637 30.7447C33.7626 31.422 33.7442 31.5639 33.6081 31.946C33.3935 32.5485 33.1271 32.9758 32.6802 33.4343C31.8771 34.2586 30.8445 34.7148 29.3545 34.9041C29.0955 34.9368 28.3407 34.9923 27.677 35.0271C26.0045 35.1148 24.9037 35.2961 23.9146 35.6463C23.7724 35.6966 23.6455 35.7273 23.6326 35.7143C23.5925 35.6741 24.266 35.2693 24.8222 34.9991C25.6065 34.6181 26.3873 34.4103 28.1366 34.1166C29.0007 33.9713 29.8931 33.7953 30.1197 33.7253C32.2597 33.0637 33.3597 31.3565 33.0076 29.2433Z" fill="#FF1C89"/>
<path d="M35.0246 32.8524C34.4405 31.5863 34.3063 30.3638 34.6263 29.2237C34.6606 29.1019 34.7156 29.0022 34.7488 29.0022C34.7819 29.0022 34.9197 29.0773 35.055 29.1691C35.3243 29.3518 35.8642 29.6596 37.3024 30.4503C39.0971 31.4369 40.1205 32.2009 40.8164 33.0738C41.4258 33.8382 41.8029 34.7089 41.9845 35.7707C42.0873 36.3719 42.0269 37.8189 41.8739 38.4244C41.3913 40.3339 40.2699 41.8337 38.6703 42.7089C38.4359 42.8372 38.2255 42.9424 38.2028 42.9429C38.1799 42.9434 38.2654 42.7244 38.3926 42.4564C38.9305 41.3222 38.9919 40.2189 38.585 38.9909C38.3359 38.2389 37.828 37.3214 36.8026 35.7707C35.6101 33.9679 35.3179 33.4882 35.0246 32.8524Z" fill="#FF1C89"/>
<path d="M18.5111 39.6838C20.1426 38.2948 22.1726 37.3081 24.0218 37.0051C24.8187 36.8746 26.1462 36.9263 26.8842 37.1168C28.0671 37.4221 29.1252 38.1058 29.6755 38.9203C30.2133 39.7163 30.4441 40.4101 30.6843 41.9536C30.7791 42.5626 30.8821 43.1738 30.9133 43.3123C31.0937 44.1123 31.4448 44.7516 31.8798 45.0728C32.5708 45.5828 33.7606 45.6143 34.9311 45.1541C35.1297 45.0758 35.3021 45.0218 35.3142 45.0341C35.3568 45.0766 34.7674 45.4743 34.3516 45.6838C33.7921 45.9656 33.3472 46.0746 32.7561 46.0746C31.6841 46.0746 30.7941 45.5248 30.0515 44.4036C29.9053 44.1828 29.5769 43.5221 29.3215 42.9348C28.5374 41.1316 28.1503 40.5823 27.2398 39.9811C26.4476 39.4581 25.4258 39.3643 24.6571 39.7443C23.6474 40.2436 23.3657 41.5446 24.0889 42.3691C24.3763 42.6968 24.9123 42.9793 25.3506 43.0343C26.1705 43.1373 26.8751 42.5083 26.8751 41.6736C26.8751 41.1316 26.6685 40.8223 26.1484 40.5856C25.4381 40.2623 24.6746 40.6403 24.6782 41.3131C24.6798 41.6001 24.8037 41.7801 25.0889 41.9103C25.2719 41.9938 25.2762 42.0003 25.1269 41.9691C24.4752 41.8328 24.3225 41.0406 24.8465 40.5146C25.4757 39.8833 26.7767 40.1618 27.2235 41.0238C27.4112 41.3858 27.433 42.1068 27.2693 42.5421C26.9031 43.5166 25.8352 44.0288 24.752 43.7501C24.0144 43.5601 23.7141 43.3546 22.8249 42.4311C21.2797 40.8261 20.6799 40.5151 18.4523 40.1646L18.0254 40.0973L18.5111 39.6838Z" fill="#FF1C89"/>
<path fill-rule="evenodd" clip-rule="evenodd" d="M11.2599 10.96C16.4201 17.2749 19.9741 19.8803 20.3691 20.4308C20.6952 20.8853 20.5724 21.2939 20.0138 21.6142C19.7031 21.7922 19.0644 21.9726 18.7446 21.9726C18.3829 21.9726 18.2587 21.832 18.2587 21.832C18.049 21.6314 17.9309 21.6664 16.8539 19.7389C15.3587 17.3995 14.1074 15.4589 14.0733 15.4264C13.9944 15.3513 13.9957 15.3538 16.7015 20.2353C17.1386 21.2528 16.7884 21.6262 16.7884 21.7711C16.7884 22.0659 16.7087 22.2208 16.348 22.6265C15.7468 23.3027 15.4781 24.0626 15.284 25.6353C15.0666 27.3981 14.455 28.6434 12.7601 30.7747C11.768 32.0223 11.6057 32.251 11.3554 32.7538C11.04 33.3871 10.9533 33.7417 10.9182 34.5412C10.8811 35.3867 10.9534 35.933 11.2096 36.7412C11.4338 37.449 11.6679 37.9163 12.2663 38.8507C12.7828 39.6573 13.0802 40.2568 13.0802 40.4912C13.0802 40.6777 13.1155 40.678 13.9158 40.4958C15.8309 40.0598 17.3861 39.2927 18.2607 38.3527C18.802 37.771 18.929 37.4498 18.9332 36.6528C18.9359 36.1313 18.9177 36.022 18.7779 35.722C18.5503 35.2338 18.1361 34.8278 17.223 34.1985C16.0267 33.3738 15.5157 32.7099 15.3745 31.7969C15.2587 31.0478 15.3931 30.5193 16.0549 29.1206C16.7399 27.6729 16.9097 27.056 17.0245 25.5967C17.0987 24.6539 17.2014 24.2822 17.47 23.9837C17.7502 23.6725 18.0024 23.5671 18.6958 23.4716C19.8263 23.3159 20.5461 23.021 21.1378 22.4712C21.651 21.9943 21.8658 21.5348 21.8988 20.843L21.9238 20.3187L21.6369 19.9815C20.5982 18.7603 10.5643 10 10.5004 10C10.4867 10 10.8286 10.432 11.2599 10.96ZM13.6633 35.498C13.8981 35.0785 13.7733 34.5395 13.3805 34.276C13.0093 34.0272 12.4327 34.1445 12.4327 34.4688C12.4327 34.5678 12.487 34.6397 12.6093 34.7033C12.8152 34.81 12.8302 34.9303 12.6681 35.1758C12.504 35.4245 12.5173 35.6432 12.7055 35.7917C13.0089 36.0312 13.4383 35.8995 13.6633 35.498Z" fill="#FF1C89"/>
<path fill-rule="evenodd" clip-rule="evenodd" d="M22.6379 23.7464C22.1072 23.9108 21.5913 24.4779 21.4317 25.0725C21.3343 25.4353 21.3895 26.0716 21.5354 26.2682C21.7712 26.5856 21.9991 26.6692 22.6164 26.6648C23.825 26.6563 24.8756 26.1337 24.9977 25.4804C25.0979 24.9448 24.6364 24.2026 24.0008 23.8767C23.6729 23.7087 22.9754 23.642 22.6379 23.7464ZM24.0507 24.8603C24.2371 24.5933 24.1555 24.3047 23.8386 24.1096C23.2349 23.7379 22.3221 24.0455 22.3221 24.6204C22.3221 24.9066 22.7981 25.2189 23.2345 25.2189C23.5249 25.2189 23.9223 25.0443 24.0507 24.8603Z" fill="#FF1C89"/>
</g>
<defs>
<clipPath id="clip0_3254:37157">
<rect x="9" y="10" width="36" height="36" rx="6" fill="white"/>
</clipPath>
</defs>
</svg>
