<svg width="40" height="40" viewBox="0 0 40 40" fill="none" xmlns="http://www.w3.org/2000/svg">
<g clip-path="url(#clip0_2938_11253)">
<path d="M39.3962 24.8381C36.725 35.5525 25.8731 42.0731 15.1574 39.4012C4.44624 36.7301 -2.07432 25.8775 0.597994 15.1639C3.26796 4.44838 14.1199 -2.07268 24.8322 0.598468C35.5471 3.26961 42.0673 14.1234 39.3959 24.8383L39.3961 24.8381H39.3962Z" fill="#26A17B"/>
<path fill-rule="evenodd" clip-rule="evenodd" d="M21.8399 21.2886C21.7092 21.2983 21.034 21.3383 19.5278 21.3383C18.3298 21.3383 17.4792 21.3026 17.1808 21.2886C12.5512 21.0867 9.0956 20.2879 9.0956 19.3314C9.0956 18.375 12.5512 17.5772 17.1808 17.3721V20.493C17.4836 20.5146 18.3505 20.5653 19.5485 20.5653C20.986 20.5653 21.7059 20.5059 21.8355 20.4941V17.3742C26.4553 17.5783 29.9033 18.3771 29.9033 19.3314C29.9033 20.2857 26.4564 21.0846 21.8355 21.2875L21.8399 21.2886ZM21.8399 17.0515V14.2587H28.2871V10H10.7336V14.2587H17.1797V17.0504C11.9402 17.289 8 18.3177 8 19.5506C8 20.7834 11.9402 21.8111 17.1797 22.0507V31H21.8388V22.0475C27.0663 21.8089 31 20.7812 31 19.5495C31 18.3177 27.0696 17.29 21.8388 17.0504L21.8399 17.0515Z" fill="white"/>
</g>
<defs>
<clipPath id="clip0_2938_11253">
<rect width="40" height="40" fill="white"/>
</clipPath>
</defs>
</svg>
