<svg width="81" height="62" viewBox="0 0 81 62" fill="none" xmlns="http://www.w3.org/2000/svg">
<path d="M17.4939 5.09109C14.6865 3.12884 9.4634 -2.84518 7.58045 2.59182C6.15059 6.74242 3.3674 10.4892 1.72001 14.6039C1.11381 16.1318 -0.189353 18.6904 1.05245 20.2166C2.07178 21.479 3.57682 21.2067 4.64373 20.2176C8.13666 16.9669 7.24817 10.4679 10.2308 7.08515C12.5109 11.6604 12.9653 17.4146 14.698 22.2578C16.4402 27.397 18.4386 32.4485 20.6858 37.3935C22.6042 41.445 25.1806 47.0405 30.2325 47.7061C35.2844 48.3718 39.4093 43.5338 42.2553 40.1562C43.8834 38.1964 45.5483 36.2623 47.1084 34.3325C48.6686 32.4027 50.4812 30.0221 52.9277 29.2538C57.3318 27.8791 60.9755 36.0793 62.4896 39.1976C64.9514 44.2406 67.3525 49.3032 70.0718 54.2242C72.1352 57.9897 75.2975 62.5233 80.1929 61.2519C85.3466 59.9132 88.7731 54.3392 91.2358 50.0432C93.9272 45.3417 96.2883 39.5341 97.0639 34.1363C97.1562 33.5116 97.4882 28.7485 95.7642 30.3082C95.5677 30.4884 95.5685 32.4019 95.4818 32.8059C95.1281 34.2524 94.6981 35.6786 94.1935 37.0786C92.7826 41.058 91.0424 44.9109 88.9906 48.5978C87.207 51.8661 82.805 59.3062 78.0635 58.4316C75.638 57.9831 74.3536 55.0175 73.2721 53.1387C71.8229 50.5769 70.6845 47.8838 69.4216 45.2122C66.4709 38.8981 62.0412 23.6045 52.6768 24.8655C47.7565 25.5232 43.9014 30.9603 40.9799 34.5019C38.7683 37.1846 33.4197 45.3182 29.2721 42.2953C27.1283 40.7272 25.9249 37.3769 24.9137 35.0283C23.6753 32.1647 22.4423 29.3048 21.2755 26.406C20.0476 23.3484 18.8436 20.279 17.6634 17.1979C16.5642 14.2921 14.7719 11.2582 14.0078 8.25364C16.3477 8.93658 20.8868 14.1537 23.4438 12.9362C27.1419 11.1609 18.7819 5.99137 17.4939 5.09109Z" fill="url(#paint0_linear_5483_37102)"/>
<defs>
<linearGradient id="paint0_linear_5483_37102" x1="102.609" y1="34.2656" x2="-6.95011" y2="24.2577" gradientUnits="userSpaceOnUse">
<stop stop-color="#9FC8FF"/>
<stop offset="1" stop-color="#577CFF"/>
</linearGradient>
</defs>
</svg>
