<svg width="20" height="20" viewBox="0 0 20 20" fill="none" xmlns="http://www.w3.org/2000/svg">
<path d="M18.0507 3.54169C17.8848 3.39602 17.6679 3.32211 17.4477 3.33617C17.2274 3.35023 17.0216 3.45112 16.8757 3.61669L15.3173 5.40836L14.7923 4.81669C14.6454 4.65093 14.4386 4.55034 14.2174 4.53706C13.9963 4.52378 13.7789 4.59888 13.6132 4.74586C13.4474 4.89283 13.3468 5.09963 13.3335 5.32077C13.3203 5.54191 13.3954 5.75926 13.5423 5.92502L14.7007 7.22502C14.7795 7.3124 14.876 7.38208 14.9837 7.42948C15.0914 7.47688 15.208 7.50092 15.3257 7.50002C15.4426 7.4987 15.5579 7.47279 15.6641 7.42397C15.7704 7.37516 15.8652 7.30453 15.9423 7.21669L18.1173 4.71669C18.264 4.5519 18.3394 4.33567 18.3269 4.11541C18.3144 3.89515 18.215 3.68883 18.0507 3.54169Z" fill="white"/>
<path d="M8.33333 9.16667C8.9926 9.16667 9.63707 8.97117 10.1852 8.6049C10.7334 8.23863 11.1606 7.71803 11.4129 7.10895C11.6652 6.49986 11.7312 5.82964 11.6026 5.18303C11.474 4.53643 11.1565 3.94249 10.6904 3.47631C10.2242 3.01014 9.63024 2.69267 8.98363 2.56405C8.33703 2.43543 7.66681 2.50144 7.05772 2.75374C6.44863 3.00603 5.92804 3.43327 5.56177 3.98143C5.1955 4.5296 5 5.17406 5 5.83334C5 6.71739 5.35119 7.56524 5.97631 8.19036C6.60143 8.81548 7.44928 9.16667 8.33333 9.16667Z" fill="white"/>
<path d="M13.3333 17.4999C13.5543 17.4999 13.7663 17.4121 13.9226 17.2558C14.0789 17.0996 14.1667 16.8876 14.1667 16.6666C14.1667 15.1195 13.5521 13.6358 12.4581 12.5418C11.3642 11.4478 9.88043 10.8333 8.33333 10.8333C6.78624 10.8333 5.30251 11.4478 4.20854 12.5418C3.11458 13.6358 2.5 15.1195 2.5 16.6666C2.5 16.8876 2.5878 17.0996 2.74408 17.2558C2.90036 17.4121 3.11232 17.4999 3.33333 17.4999" fill="white"/>
</svg>
