<svg width="24" height="24" viewBox="0 0 24 24" fill="none" xmlns="http://www.w3.org/2000/svg">
<path d="M1.59766 22.4H14.3977" stroke="#4B5563" stroke-width="1.5" stroke-linecap="round"/>
<path fill-rule="evenodd" clip-rule="evenodd" d="M12.4412 3.59917C11.979 3.16136 11.9691 2.42856 12.4193 1.97844V1.97844C12.8525 1.54518 13.552 1.53573 13.9968 1.95712L19.9541 7.60093C20.4163 8.03874 20.4262 8.77153 19.976 9.22166V9.22166C19.5428 9.65491 18.8433 9.66436 18.3985 9.24298L12.4412 3.59917Z" stroke="#4B5563" stroke-width="1.5" stroke-linecap="round"/>
<path fill-rule="evenodd" clip-rule="evenodd" d="M1.99922 14C1.55739 13.5581 1.55739 12.8418 1.99922 12.4V12.4C2.44105 11.9581 3.15739 11.9581 3.59922 12.4L9.35313 18.1539C9.79496 18.5957 9.79496 19.312 9.35313 19.7539V19.7539C8.9113 20.1957 8.19496 20.1957 7.75313 19.7539L1.99922 14Z" stroke="#4B5563" stroke-width="1.5" stroke-linecap="round"/>
<path d="M4.39844 12.4L12.3984 4" stroke="#4B5563" stroke-width="1.5" stroke-linecap="round"/>
<path d="M9.59766 17.6L17.5977 9.19995" stroke="#4B5563" stroke-width="1.5" stroke-linecap="round"/>
<path d="M12.7984 14.4001L19.2599 21.5416C19.8793 22.2262 20.9456 22.2528 21.5985 21.6V21.6C22.2513 20.9472 22.2246 19.8809 21.54 19.2615L14.3984 12.8001" stroke="#4B5563" stroke-width="1.5" stroke-linecap="round"/>
</svg>
