<svg width="40" height="40" viewBox="0 0 40 40" fill="none" xmlns="http://www.w3.org/2000/svg">
<g clip-path="url(#clip0_2739:9912)">
<path d="M39.3965 24.8388C36.7254 35.5532 25.8734 42.0738 15.1578 39.402C4.44661 36.7308 -2.07396 25.8782 0.59836 15.1647C3.26833 4.44911 14.1203 -2.07194 24.8326 0.599201C35.5475 3.27034 42.0677 14.1241 39.3962 24.839L39.3964 24.8388H39.3965Z" fill="#F7931A"/>
<path d="M28.8502 17.1363C29.2483 14.4747 27.222 13.044 24.4511 12.0896L25.35 8.48429L23.1553 7.93743L22.2803 11.4478C21.7033 11.3039 21.1108 11.1683 20.5219 11.0339L21.4033 7.50035L19.21 6.95349L18.3106 10.5576C17.8332 10.4489 17.3642 10.3415 16.9093 10.2283L16.9118 10.217L13.8853 9.46118L13.3015 11.8052C13.3015 11.8052 14.9298 12.1785 14.8954 12.2014C15.7842 12.4233 15.9449 13.0116 15.9182 13.4779L14.8943 17.5852C14.9555 17.6007 15.0348 17.6232 15.1224 17.6584C15.0492 17.6402 14.9713 17.6204 14.8905 17.601L13.4553 23.3548C13.3467 23.6248 13.071 24.03 12.4496 23.8761C12.4716 23.908 10.8545 23.478 10.8545 23.478L9.76489 25.9902L12.6209 26.7022C13.1522 26.8354 13.6729 26.9748 14.1856 27.1059L13.2774 30.7526L15.4696 31.2995L16.3689 27.6915C16.9678 27.8541 17.549 28.004 18.1179 28.1454L17.2216 31.7364L19.4164 32.2832L20.3244 28.6434C24.0668 29.3516 26.8808 29.0661 28.0652 25.6811C29.0196 22.9558 28.0177 21.3839 26.0489 20.3588C27.4829 20.0281 28.563 19.0849 28.851 17.1366L28.8503 17.1361L28.8502 17.1363ZM23.8359 24.1676C23.1577 26.8929 18.5691 25.4197 17.0814 25.0503L18.2866 20.2191C19.7742 20.5905 24.5448 21.3254 23.836 24.1676H23.8359ZM24.5146 17.0968C23.8959 19.5757 20.0768 18.3163 18.8379 18.0075L19.9306 13.6259C21.1695 13.9347 25.1592 14.5111 24.5148 17.0968H24.5146Z" fill="white"/>
</g>
<defs>
<clipPath id="clip0_2739:9912">
<rect width="40" height="40" fill="white"/>
</clipPath>
</defs>
</svg>
