<svg width="24" height="24" viewBox="0 0 24 24" fill="none" xmlns="http://www.w3.org/2000/svg">
<g opacity="0.7">
<path fill-rule="evenodd" clip-rule="evenodd" d="M1.60034 10.2007C1.60034 8.54383 2.94349 7.20068 4.60034 7.20068H19.4003C21.0572 7.20068 22.4003 8.54383 22.4003 10.2007V19.4007C22.4003 21.0575 21.0572 22.4007 19.4003 22.4007H4.60034C2.94349 22.4007 1.60034 21.0575 1.60034 19.4007V10.2007Z" stroke="#4B5563" stroke-width="1.5" stroke-linecap="round"/>
<path fill-rule="evenodd" clip-rule="evenodd" d="M18.4004 16.0008C19.2841 16.0008 20.0004 15.2844 20.0004 14.4008C20.0004 13.5171 19.2841 12.8008 18.4004 12.8008C17.5168 12.8008 16.8004 13.5171 16.8004 14.4008C16.8004 15.2844 17.5168 16.0008 18.4004 16.0008Z" fill="#4B5563"/>
<path d="M18.4 7.19995V3.85141C18.4 2.52265 17.1282 1.56333 15.8505 1.92836L3.77581 5.37828C2.4879 5.74626 1.59998 6.92341 1.59998 8.26286V10.4" stroke="#4B5563" stroke-width="1.5" stroke-linecap="round"/>
</g>
</svg>
