<svg width="151" height="111" viewBox="0 0 151 111" fill="none" xmlns="http://www.w3.org/2000/svg">
<path d="M77.4062 103C103.087 103 123.906 82.1812 123.906 56.5C123.906 30.8188 103.087 10 77.4062 10C51.725 10 30.9062 30.8188 30.9062 56.5C30.9062 82.1812 51.725 103 77.4062 103Z" fill="#EAEEF9"/>
<path d="M96.266 11.1305C98.3782 11.1305 100.091 9.41027 100.091 7.28827C100.091 5.16627 98.3782 3.44604 96.266 3.44604C94.1537 3.44604 92.4414 5.16627 92.4414 7.28827C92.4414 9.41027 94.1537 11.1305 96.266 11.1305Z" fill="#EAEEF9"/>
<path d="M22.5162 51.6616C23.9058 51.6616 25.0323 50.5298 25.0323 49.1338C25.0323 47.7377 23.9058 46.606 22.5162 46.606C21.1265 46.606 20 47.7377 20 49.1338C20 50.5298 21.1265 51.6616 22.5162 51.6616Z" fill="#EAEEF9"/>
<g filter="url(#filter0_d_3092:17736)">
<path d="M142.001 20.6995C142.001 22.061 141.866 23.2864 141.595 24.6479C141.595 24.784 141.595 24.784 141.595 24.9202C140.241 30.6385 136.044 35.4037 130.764 37.446C130.493 37.5821 130.357 37.5821 130.087 37.7183C128.327 38.3991 126.431 38.6714 124.4 38.6714C114.652 38.6714 106.664 30.6385 106.664 20.8357C106.664 11.0329 114.652 3 124.4 3C134.148 3 142.001 10.8967 142.001 20.6995Z" fill="white"/>
</g>
<path d="M58 57H53V68H58V57Z" fill="#CED6E2"/>
<path d="M69 52H64V68H69V52Z" fill="#CED6E2"/>
<path d="M81 57H76V68H81V57Z" fill="#CED6E2"/>
<path d="M92 44H87V68H92V44Z" fill="#CED6E2"/>
<path d="M103 51H99V68H103V51Z" fill="#CED6E2"/>
<path d="M58 65H53V68H58V65Z" fill="white"/>
<path d="M69 64H64V68H69V64Z" fill="white"/>
<path d="M81 65H76V68H81V65Z" fill="white"/>
<path d="M92 63H87V68H92V63Z" fill="white"/>
<path d="M103 64H99V68H103V64Z" fill="white"/>
<g filter="url(#filter1_d_3092:17736)">
<path d="M55.8076 65C53.7879 65 52.0712 64.4585 51.0613 64.1878C50.2534 63.9171 49.8495 63.1951 50.0515 62.4732C50.3544 61.7513 51.1623 61.3903 51.9702 61.5708C54.6968 62.383 57.9283 63.0147 60.7558 60.2171L61.5637 59.405C65.1991 55.8855 67.3198 53.8099 73.9848 57.0587C79.337 59.7659 81.2557 58.7733 83.3763 55.705C84.1842 54.4416 84.7901 53.088 85.396 51.8246C86.5069 49.2978 87.6177 46.6808 90.6472 47.0417H90.8492C93.7777 47.3125 97.3122 47.6734 101.756 42.1686C102.361 41.3564 102.967 40.815 103.472 40.3638C104.078 39.8223 105.088 39.9126 105.593 40.454C106.199 40.9955 106.098 41.8979 105.492 42.3491C105.088 42.6198 104.684 43.1613 104.179 43.793C98.827 50.4709 93.6768 50.0197 90.5462 49.749H90.3443C89.6374 49.6588 89.0315 50.8319 88.2236 52.8173C87.6177 54.1709 87.0118 55.705 86.0019 57.1489C82.7704 61.9318 78.832 62.5634 72.571 59.4952C68.0267 57.2391 67.4208 57.8708 63.8863 61.3001L62.9775 62.2025C60.6548 64.4585 58.0292 65 55.8076 65Z" fill="#ADB6C8"/>
</g>
<path d="M57.2234 40.7191H50.6959C50.1609 40.7191 49.8398 40.2886 49.8398 39.8582C49.8398 39.3201 50.2679 38.9973 50.6959 38.9973H57.2234C57.7585 38.9973 58.0795 39.4277 58.0795 39.8582C58.0795 40.3962 57.6515 40.7191 57.2234 40.7191Z" fill="#E6EDF5"/>
<g filter="url(#filter2_d_3092:17736)">
<path d="M47.6695 77.0141C47.6695 79.0563 47.3987 80.9624 46.8572 82.7324C44.8263 89.6761 39.1399 94.9859 31.9642 96.6197C30.6103 96.892 29.2564 97.0282 27.7671 97.0282C16.9358 97.0282 8 88.0423 8 77.0141C8 65.9859 16.9358 57 27.9025 57C38.8691 57 47.6695 65.9859 47.6695 77.0141Z" fill="white"/>
</g>
<path d="M31.9016 76.4628H33.797C34.2032 76.4628 34.474 76.7351 34.474 77.1435V83.951C34.474 84.3595 34.2032 84.6318 33.797 84.6318H31.9016C31.4954 84.6318 31.2246 84.3595 31.2246 83.951V77.1435C31.2246 76.7351 31.4954 76.4628 31.9016 76.4628Z" fill="#ADB6C8"/>
<path d="M26.216 79.8665H28.1115C28.5177 79.8665 28.7884 80.1388 28.7884 80.5472V83.951C28.7884 84.3594 28.5177 84.6317 28.1115 84.6317H26.216C25.8098 84.6317 25.5391 84.3594 25.5391 83.951V80.5472C25.5391 80.1388 25.8098 79.8665 26.216 79.8665Z" fill="#ADB6C8"/>
<path d="M20.5277 82.5896H22.4232C22.8294 82.5896 23.1001 82.8619 23.1001 83.2704V83.9511C23.1001 84.3596 22.8294 84.6319 22.4232 84.6319H20.5277C20.1216 84.6319 19.8508 84.3596 19.8508 83.9511V83.2704C19.7154 82.8619 20.1216 82.5896 20.5277 82.5896Z" fill="#ADB6C8"/>
<path d="M33.9309 69.7914C34.2017 69.7914 34.4724 70.0637 34.4724 70.336V73.8759C34.4724 74.0121 34.3371 74.1482 34.2017 74.1482H33.1185C32.9831 74.1482 32.8478 74.0121 32.8478 73.8759V72.5144C29.1922 76.0543 24.8597 78.9135 20.121 80.9557C19.9856 80.9557 19.9856 80.9557 19.8502 80.9557L19.7148 80.8196V79.5942C19.7148 79.4581 19.8502 79.3219 19.9856 79.3219C24.3181 77.4158 28.3799 74.6928 31.7646 71.2891H30.2753C30.1399 71.2891 30.0046 71.1529 30.0046 71.0168V69.9276C30.0046 69.7914 30.1399 69.6553 30.2753 69.6553L33.9309 69.7914Z" fill="#ADB6C8"/>
<path d="M131.106 21.315H124.878C124.608 21.315 124.337 21.0427 124.337 20.7704V14.5075C124.337 13.9629 123.931 13.6906 123.524 13.5544H123.389C119.192 14.099 116.349 18.0474 116.89 22.2681C117.432 26.4887 121.358 29.3479 125.555 28.8033C128.94 28.3948 131.648 25.6718 132.054 22.2681C132.054 21.8596 131.648 21.315 131.106 21.315C131.242 21.315 131.106 21.315 131.106 21.315Z" fill="#ADB6C8"/>
<path d="M125.963 12.8736V19.0004C125.963 19.4089 126.234 19.6812 126.64 19.6812H132.732C133.139 19.6812 133.409 19.4089 133.409 19.0004C133.139 15.5967 130.16 12.329 126.64 12.1929C126.234 12.0567 125.963 12.329 125.963 12.8736C125.963 12.7375 125.963 12.8736 125.963 12.8736Z" fill="#ADB6C8"/>
<path d="M116.84 100.173L121 95.4805" stroke="#D8DEED" stroke-width="1.15156" stroke-miterlimit="10" stroke-linecap="round" stroke-linejoin="round"/>
<path d="M112.067 95.9415L117.875 89.3892" stroke="#D8DEED" stroke-width="1.15156" stroke-miterlimit="10" stroke-linecap="round" stroke-linejoin="round"/>
<path d="M116.523 94.8322L115.032 96.5145" stroke="#D8DEED" stroke-width="1.15156" stroke-miterlimit="10" stroke-linecap="round" stroke-linejoin="round"/>
<defs>
<filter id="filter0_d_3092:17736" x="98.6641" y="0" width="51.3379" height="51.6714" filterUnits="userSpaceOnUse" color-interpolation-filters="sRGB">
<feFlood flood-opacity="0" result="BackgroundImageFix"/>
<feColorMatrix in="SourceAlpha" type="matrix" values="0 0 0 0 0 0 0 0 0 0 0 0 0 0 0 0 0 0 127 0" result="hardAlpha"/>
<feOffset dy="5"/>
<feGaussianBlur stdDeviation="4"/>
<feColorMatrix type="matrix" values="0 0 0 0 0.808333 0 0 0 0 0.767917 0 0 0 0 0.78546 0 0 0 0.3 0"/>
<feBlend mode="normal" in2="BackgroundImageFix" result="effect1_dropShadow_3092:17736"/>
<feBlend mode="normal" in="SourceGraphic" in2="effect1_dropShadow_3092:17736" result="shape"/>
</filter>
<filter id="filter1_d_3092:17736" x="42" y="37" width="72" height="41" filterUnits="userSpaceOnUse" color-interpolation-filters="sRGB">
<feFlood flood-opacity="0" result="BackgroundImageFix"/>
<feColorMatrix in="SourceAlpha" type="matrix" values="0 0 0 0 0 0 0 0 0 0 0 0 0 0 0 0 0 0 127 0" result="hardAlpha"/>
<feOffset dy="5"/>
<feGaussianBlur stdDeviation="4"/>
<feColorMatrix type="matrix" values="0 0 0 0 0.1125 0 0 0 0 0.295916 0 0 0 0 1 0 0 0 0.22 0"/>
<feBlend mode="normal" in2="BackgroundImageFix" result="effect1_dropShadow_3092:17736"/>
<feBlend mode="normal" in="SourceGraphic" in2="effect1_dropShadow_3092:17736" result="shape"/>
</filter>
<filter id="filter2_d_3092:17736" x="0" y="54" width="55.6699" height="56.0282" filterUnits="userSpaceOnUse" color-interpolation-filters="sRGB">
<feFlood flood-opacity="0" result="BackgroundImageFix"/>
<feColorMatrix in="SourceAlpha" type="matrix" values="0 0 0 0 0 0 0 0 0 0 0 0 0 0 0 0 0 0 127 0" result="hardAlpha"/>
<feOffset dy="5"/>
<feGaussianBlur stdDeviation="4"/>
<feColorMatrix type="matrix" values="0 0 0 0 0.1125 0 0 0 0 0.295916 0 0 0 0 1 0 0 0 0.22 0"/>
<feBlend mode="normal" in2="BackgroundImageFix" result="effect1_dropShadow_3092:17736"/>
<feBlend mode="normal" in="SourceGraphic" in2="effect1_dropShadow_3092:17736" result="shape"/>
</filter>
</defs>
</svg>
