<svg width="24" height="24" viewBox="0 0 24 24" fill="none" xmlns="http://www.w3.org/2000/svg">
<path d="M1.60156 14.4002V10.2002C1.60156 8.54334 2.94471 7.2002 4.60156 7.2002H19.4016C21.0584 7.2002 22.4016 8.54334 22.4016 10.2002V19.4002C22.4016 21.0571 21.0584 22.4002 19.4016 22.4002H9.60156" stroke="#4B5563" stroke-width="1.5" stroke-linecap="round"/>
<path fill-rule="evenodd" clip-rule="evenodd" d="M18.4008 16C19.2844 16 20.0008 15.2837 20.0008 14.4C20.0008 13.5164 19.2844 12.8 18.4008 12.8C17.5171 12.8 16.8008 13.5164 16.8008 14.4C16.8008 15.2837 17.5171 16 18.4008 16Z" fill="#4B5563"/>
<path d="M18.401 7.20068V3.85214C18.401 2.52339 17.1291 1.56406 15.8515 1.9291L3.77679 5.37902C2.48888 5.74699 1.60095 6.92415 1.60095 8.26359V10.4007" stroke="#4B5563" stroke-width="1.5" stroke-linecap="round"/>
<path fill-rule="evenodd" clip-rule="evenodd" d="M6.40078 23.1995C9.49358 23.1995 12.0008 20.6923 12.0008 17.5995C12.0008 14.5067 9.49358 11.9995 6.40078 11.9995C3.30799 11.9995 0.800781 14.5067 0.800781 17.5995C0.800781 20.6923 3.30799 23.1995 6.40078 23.1995Z" stroke="#3579FC" stroke-width="1.5" stroke-linecap="round"/>
<path fill-rule="evenodd" clip-rule="evenodd" d="M6.4 19.9997C7.72548 19.9997 8.8 18.9252 8.8 17.5997C8.8 16.2742 7.72548 15.1997 6.4 15.1997C5.07452 15.1997 4 16.2742 4 17.5997C4 18.9252 5.07452 19.9997 6.4 19.9997Z" stroke="#3579FC" stroke-width="1.5" stroke-linecap="round"/>
</svg>
