<svg width="16" height="16" viewBox="0 0 16 16" fill="none" xmlns="http://www.w3.org/2000/svg">
<path d="M7.91865 10.6537C7.87705 11.2174 7.63558 11.7476 7.23765 12.149L6.63182 12.7549C6.18192 13.1984 5.57492 13.446 4.94319 13.4438C4.31146 13.4415 3.70625 13.1896 3.25954 12.7428C2.81284 12.2961 2.56088 11.6909 2.55862 11.0591C2.55635 10.4274 2.80396 9.82036 3.24746 9.37043L3.85332 8.76456C4.25476 8.36676 4.78498 8.12523 5.3486 8.08356L6.44884 6.98329C5.84255 6.82249 5.20472 6.82329 4.59884 6.98563C3.99295 7.14789 3.44014 7.46609 2.99542 7.90843L2.38955 8.51436C1.71362 9.19036 1.33392 10.1072 1.33398 11.0632C1.33404 12.0192 1.71385 12.936 2.38985 13.6119C3.06586 14.2879 3.98268 14.6676 4.93864 14.6675C5.8946 14.6675 6.81138 14.2876 7.48732 13.6116L8.09318 13.0058C8.53532 12.5609 8.85332 12.008 9.01565 11.4022C9.17792 10.7963 9.17885 10.1586 9.01832 9.55223L7.91865 10.6537Z" fill="black"/>
<path d="M10.6536 7.91689C11.2172 7.87529 11.7475 7.63382 12.1488 7.23589L12.7547 6.63002C13.1982 6.18011 13.4458 5.57309 13.4436 4.94134C13.4413 4.30959 13.1894 3.70436 12.7426 3.25764C12.296 2.81093 11.6907 2.55896 11.059 2.5567C10.4272 2.55444 9.82024 2.80206 9.37038 3.24556L8.76451 3.85144C8.36671 4.25289 8.12524 4.78313 8.08351 5.34677L6.98324 6.44705C6.82251 5.84073 6.82331 5.20288 6.98558 4.59698C7.14791 3.99107 7.46604 3.43824 7.90844 2.99351L8.51431 2.38763C9.19031 1.71168 10.1071 1.33198 11.063 1.33203C12.019 1.33209 12.9358 1.7119 13.6117 2.38793C14.2876 3.06396 14.6674 3.9808 14.6673 4.93679C14.6672 5.89278 14.2874 6.80956 13.6114 7.48556L13.0056 8.09142C12.5607 8.53356 12.0079 8.85162 11.402 9.01389C10.7962 9.17622 10.1584 9.17716 9.55211 9.01662L10.6536 7.91689Z" fill="black"/>
<path d="M5.57644 11.028C5.45663 11.028 5.33951 10.9924 5.23991 10.9258C5.14029 10.8592 5.06266 10.7646 5.01681 10.6539C4.97097 10.5432 4.95897 10.4214 4.98234 10.3039C5.00571 10.1864 5.06339 10.0784 5.14809 9.99369L9.99501 5.14664C10.1093 5.03627 10.2623 4.97521 10.4212 4.97659C10.58 4.97797 10.732 5.04169 10.8443 5.15402C10.9567 5.26635 11.0203 5.41832 11.0217 5.57718C11.0231 5.73604 10.9621 5.88909 10.8517 6.00336L6.00479 10.8504C5.89119 10.9641 5.73711 11.0279 5.57644 11.028Z" fill="black"/>
</svg>
