<svg width="96" height="101" viewBox="0 0 96 101" fill="none" xmlns="http://www.w3.org/2000/svg">
<path d="M96 48.3582C96 59.3034 92.3494 69.4527 86.2323 77.6119C82.8777 81.99 78.8325 85.8706 74.1953 88.8556C66.6968 93.8307 57.7184 96.7163 48.0493 96.7163C21.5087 96.7163 0 75.0248 0 48.3582C0 21.592 21.5087 0 47.9507 0C57.6197 0 66.5982 2.88557 74.0966 7.76119C78.7338 10.7463 82.779 14.6269 86.1336 19.005C92.3494 27.2637 96 37.3134 96 48.3582Z" fill="#EAEEF9"/>
<path d="M4.19291 43.2454C5.08089 43.2454 5.8702 42.5489 5.8702 41.5538C5.8702 40.6583 5.17955 39.8623 4.19291 39.8623C3.30494 39.8623 2.51562 40.5588 2.51562 41.5538C2.51562 42.4494 3.20627 43.2454 4.19291 43.2454Z" fill="url(#paint0_linear_5341_34920)"/>
<path d="M12.2085 80.8421C13.0965 80.8421 13.8858 80.1456 13.8858 79.1505C13.8858 78.1555 13.1952 77.459 12.2085 77.459C11.3206 77.459 10.5312 78.1555 10.5312 79.1505C10.5312 80.1456 11.3206 80.8421 12.2085 80.8421Z" fill="url(#paint1_linear_5341_34920)"/>
<path d="M91.6598 14.328V32.9349C91.6598 35.522 89.5879 37.6115 87.0226 37.6115H16.7739C14.2087 37.6115 12.1367 35.522 12.1367 32.9349V14.328C12.1367 11.7409 14.2087 9.65137 16.7739 9.65137H87.1213C89.6866 9.65137 91.6598 11.7409 91.6598 14.328Z" fill="#C2C8D6"/>
<path d="M88.2058 14.328V32.9349C88.2058 35.522 86.1338 37.6115 83.5686 37.6115H13.2212C10.6559 37.6115 8.58398 35.522 8.58398 32.9349V14.328C8.58398 11.7409 10.6559 9.65137 13.2212 9.65137H83.5686C86.1338 9.65137 88.2058 11.7409 88.2058 14.328Z" fill="#D8DDE7"/>
<path d="M79.1288 22.2879V37.5118H17.3652V22.2879C17.3652 19.7009 19.4372 17.6113 22.0024 17.6113H74.5903C77.1556 17.7108 79.1288 19.8004 79.1288 22.2879Z" fill="#E9EEF4"/>
<path opacity="0.3" d="M79.1288 22.2879V37.5118H17.3652V22.2879C17.3652 19.7009 19.4372 17.6113 22.0024 17.6113H74.5903C77.1556 17.7108 79.1288 19.8004 79.1288 22.2879Z" fill="url(#paint2_linear_5341_34920)"/>
<path d="M73.6033 29.2533H25.5539C25.1593 29.2533 24.8633 28.9548 24.8633 28.5568V26.6662C24.8633 26.2682 25.1593 25.9697 25.5539 25.9697H73.7019C74.0966 25.9697 74.3926 26.2682 74.3926 26.6662V28.5568C74.3926 28.9548 73.9979 29.2533 73.6033 29.2533Z" fill="#4C5865"/>
<path d="M77.9449 15.721C78.8712 15.721 79.6222 14.9636 79.6222 14.0294C79.6222 13.0952 78.8712 12.3379 77.9449 12.3379C77.0185 12.3379 76.2676 13.0952 76.2676 14.0294C76.2676 14.9636 77.0185 15.721 77.9449 15.721Z" fill="url(#paint3_linear_5341_34920)"/>
<path d="M71.9253 15.721C72.8517 15.721 73.6026 14.9636 73.6026 14.0294C73.6026 13.0952 72.8517 12.3379 71.9253 12.3379C70.999 12.3379 70.248 13.0952 70.248 14.0294C70.248 14.9636 70.999 15.721 71.9253 15.721Z" fill="white"/>
<path d="M64.2307 69.8511V83.2839C64.2307 84.3785 63.0468 84.9755 62.1588 84.279L59.4949 82.2889C59.0015 81.9904 58.4096 81.9904 57.9162 82.2889L53.9697 85.274C53.4764 85.5725 52.8844 85.5725 52.3911 85.274L48.4445 82.2889C47.9512 81.9904 47.3592 81.9904 46.8659 82.2889L42.9193 85.274C42.426 85.5725 41.834 85.5725 41.3407 85.274L37.3941 82.2889C36.9008 81.9904 36.3088 81.9904 35.8155 82.2889L31.869 85.274C31.3756 85.5725 30.7837 85.5725 30.2903 85.274L26.3438 82.2889C25.8505 81.9904 25.2585 81.9904 24.7652 82.2889L22.1012 84.279C21.2133 84.876 20.0293 84.279 20.0293 83.2839V40.6969C20.128 33.2342 21.5093 30.0502 27.7251 27.6621H71.9265C65.8094 29.2541 64.0334 33.1347 64.2307 40.6969V59.5029V69.8511Z" fill="white"/>
<path opacity="0.4" d="M54.0665 45.5732H39.5629C38.7736 45.5732 38.1816 44.9762 38.1816 44.1801C38.1816 43.3841 38.7736 42.7871 39.5629 42.7871H54.1652C54.9545 42.7871 55.5465 43.3841 55.5465 44.1801C55.4478 44.9762 54.8558 45.5732 54.0665 45.5732Z" fill="#4C5865"/>
<path opacity="0.4" d="M34.3335 45.5732H27.9204C27.131 45.5732 26.5391 44.9762 26.5391 44.1801C26.5391 43.3841 27.131 42.7871 27.9204 42.7871H34.3335C35.1228 42.7871 35.7148 43.3841 35.7148 44.1801C35.7148 44.9762 35.1228 45.5732 34.3335 45.5732Z" fill="#4C5865"/>
<path opacity="0.4" d="M54.0663 57.2138H27.9204C27.131 57.2138 26.5391 56.6168 26.5391 55.8208C26.5391 55.0247 27.131 54.4277 27.9204 54.4277H54.0663C54.8556 54.4277 55.4476 55.0247 55.4476 55.8208C55.4476 56.6168 54.8556 57.2138 54.0663 57.2138Z" fill="#4C5865"/>
<path opacity="0.4" d="M47.6531 68.7568H37.4907C36.7014 68.7568 36.1094 68.1597 36.1094 67.3637C36.1094 66.5677 36.7014 65.9707 37.4907 65.9707H47.6531C48.4424 65.9707 49.0343 66.5677 49.0343 67.3637C49.0343 68.1597 48.3437 68.7568 47.6531 68.7568Z" fill="#4C5865"/>
<path opacity="0.4" d="M31.8669 68.7568H27.9204C27.131 68.7568 26.5391 68.1597 26.5391 67.3637C26.5391 66.5677 27.131 65.9707 27.9204 65.9707H31.8669C32.6562 65.9707 33.2482 66.5677 33.2482 67.3637C33.2482 68.1597 32.5576 68.7568 31.8669 68.7568Z" fill="#4C5865"/>
<path d="M85.3427 69.1546V97.9108C85.3427 99.0053 84.4547 99.9009 83.3694 99.9009C79.3242 99.9009 70.0497 100 67.3858 100C66.8925 100 66.3992 99.8014 66.1032 99.5028L63.8339 97.5128L59.5914 93.5327C58.1114 92.1397 56.9275 90.4481 56.2368 88.4581L52.0929 76.3188L50.7116 72.3387L50.613 72.1397L48.7383 66.5676C48.6397 66.2691 48.541 65.9706 48.541 65.5725V65.473C48.541 64.3785 49.2317 63.3835 50.2183 62.886C52.7836 61.6919 55.7435 62.488 57.4208 64.5775C57.7168 64.9755 58.0128 65.473 58.2101 65.9706L61.3673 73.7317L62.1566 75.7218L62.2553 75.9208C62.5513 76.7168 63.4393 77.1148 64.2286 76.8163L69.6551 75.2243C70.3457 75.0253 70.7404 74.4282 70.7404 73.7317L70.4444 69.0551C70.3457 67.6621 69.8524 66.2691 68.8658 65.274L64.1299 60.0004V52.3387L63.79 44.167L82.6787 62.886C84.356 64.5775 85.3427 66.8661 85.3427 69.1546Z" fill="white" stroke="#1C3754" stroke-miterlimit="10" stroke-linecap="round" stroke-linejoin="round"/>
<path d="M63.1858 43.333L60.0664 43.7604V48.4612L63.1858 59.9997H65.8595L64.6181 45.833L64.2043 43.333H63.1858Z" fill="white"/>
<defs>
<linearGradient id="paint0_linear_5341_34920" x1="2.51562" y1="41.551" x2="5.70504" y2="41.551" gradientUnits="userSpaceOnUse">
<stop stop-color="#83A6FF"/>
<stop offset="1" stop-color="#5A78FF"/>
</linearGradient>
<linearGradient id="paint1_linear_5341_34920" x1="10.5997" y1="79.2274" x2="13.7891" y2="79.2274" gradientUnits="userSpaceOnUse">
<stop stop-color="#FF66A9"/>
<stop offset="1" stop-color="#F53689"/>
</linearGradient>
<linearGradient id="paint2_linear_5341_34920" x1="48.2519" y1="18.0646" x2="48.2519" y2="37.2557" gradientUnits="userSpaceOnUse">
<stop offset="0.00289017" stop-color="#0E2F51"/>
<stop offset="1" stop-color="#35415E" stop-opacity="0.31"/>
</linearGradient>
<linearGradient id="paint3_linear_5341_34920" x1="76.2343" y1="14.0225" x2="79.5485" y2="14.0225" gradientUnits="userSpaceOnUse">
<stop stop-color="#FF66A9"/>
<stop offset="1" stop-color="#F53689"/>
</linearGradient>
</defs>
</svg>
