<svg width="24" height="24" viewBox="0 0 24 24" fill="none" xmlns="http://www.w3.org/2000/svg">
<path d="M1.59863 14.3998V10.1998C1.59863 8.54298 2.94178 7.19983 4.59863 7.19983H19.3986C21.0555 7.19983 22.3986 8.54298 22.3986 10.1998V19.3998C22.3986 21.0567 21.0555 22.3998 19.3986 22.3998H9.59863" stroke="#4B5563" stroke-width="1.5" stroke-linecap="round"/>
<path fill-rule="evenodd" clip-rule="evenodd" d="M18.3988 15.9998C19.2825 15.9998 19.9988 15.2835 19.9988 14.3998C19.9988 13.5161 19.2825 12.7998 18.3988 12.7998C17.5152 12.7998 16.7988 13.5161 16.7988 14.3998C16.7988 15.2835 17.5152 15.9998 18.3988 15.9998Z" fill="#4B5563"/>
<path d="M18.3986 7.19983V3.85129C18.3986 2.52253 17.1268 1.5632 15.8492 1.92824L3.77447 5.37816C2.48656 5.74614 1.59863 6.92329 1.59863 8.26273V10.3998" stroke="#4B5563" stroke-width="1.5" stroke-linecap="round"/>
<path fill-rule="evenodd" clip-rule="evenodd" d="M6.39883 23.1998C9.49162 23.1998 11.9988 20.6926 11.9988 17.5998C11.9988 14.507 9.49162 11.9998 6.39883 11.9998C3.30603 11.9998 0.798828 14.507 0.798828 17.5998C0.798828 20.6926 3.30603 23.1998 6.39883 23.1998Z" stroke="#4B5563" stroke-width="1.5" stroke-linecap="round"/>
<path d="M4.79785 17.5998H7.99785" stroke="#4B5563" stroke-width="1.5" stroke-linecap="round"/>
</svg>
