<svg width="88" height="103" viewBox="0 0 88 103" fill="none" xmlns="http://www.w3.org/2000/svg">
<path d="M76 41C76 48.2428 73.5663 54.9589 69.4882 60.358C67.2518 63.2551 64.555 65.823 61.4635 67.7984C56.4645 71.0905 50.4789 73 44.0329 73C26.3392 73 12 58.6461 12 41C12 23.2881 26.3392 9 43.9671 9C50.4132 9 56.3988 10.9095 61.3977 14.1358C64.4892 16.1111 67.186 18.679 69.4224 21.5761C73.5663 27.0412 76 33.6914 76 41Z" fill="#EAEEF9"/>
<path d="M14.1455 68.6722C14.7375 68.6722 15.2637 68.2112 15.2637 67.5528C15.2637 66.9602 14.8033 66.4335 14.1455 66.4335C13.5536 66.4335 13.0273 66.8944 13.0273 67.5528C13.0273 68.1454 13.4878 68.6722 14.1455 68.6722Z" fill="url(#paint0_linear_3087:17532)"/>
<path d="M15.113 18.2181C15.7049 18.2181 16.1654 17.7572 16.1654 17.1646C16.1654 16.572 15.7049 16.1111 15.113 16.1111C14.521 16.1111 14.0605 16.572 14.0605 17.1646C14.0605 17.7572 14.521 18.2181 15.113 18.2181Z" fill="url(#paint1_linear_3087:17532)"/>
<g filter="url(#filter0_d_3087:17532)">
<path d="M65.0557 13.9384V67.2717C65.0557 68.1936 64.0033 68.6545 63.3455 67.996L62.2274 66.9425C61.8327 66.5475 61.1749 66.5475 60.7803 66.9425L58.6755 68.9837C58.2808 69.3787 57.623 69.3787 57.2284 68.9837L55.1236 66.9425C54.7289 66.5475 54.0711 66.5475 53.6765 66.9425L51.5716 68.9837C51.177 69.3787 50.5192 69.3787 50.1246 68.9837L48.0198 66.9425C47.6251 66.5475 46.9673 66.5475 46.5727 66.9425L44.5336 68.9837C44.139 69.3787 43.4812 69.3787 43.0866 68.9837L40.9817 66.9425C40.5871 66.5475 39.9293 66.5475 39.5347 66.9425L37.4298 68.9837C37.0352 69.3787 36.3774 69.3787 35.9827 68.9837L33.8779 66.9425C33.4833 66.5475 32.8255 66.5475 32.4308 66.9425L30.326 68.9837C29.9314 69.3787 29.2736 69.3787 28.8789 68.9837L26.1164 66.2182L25.919 66.4158L24.2746 67.996C23.6169 68.6545 22.5645 68.1936 22.5645 67.2717V13.9384C22.5645 13.0166 23.6169 12.5557 24.2746 13.2141L25.3928 14.2676C25.7875 14.6627 26.4452 14.6627 26.8399 14.2676L28.9447 12.2265C29.3394 11.8314 29.9971 11.8314 30.3918 12.2265L32.4966 14.2676C32.8913 14.6627 33.549 14.6627 33.9437 14.2676L36.0485 12.2265C36.4432 11.8314 37.1009 11.8314 37.4956 12.2265L39.6004 14.2676C39.9951 14.6627 40.6528 14.6627 41.0475 14.2676L43.1523 12.2265C43.547 11.8314 44.2047 11.8314 44.5994 12.2265L46.6385 14.2676C47.0331 14.6627 47.6909 14.6627 48.0855 14.2676L50.1904 12.2265C50.585 11.8314 51.2428 11.8314 51.6374 12.2265L53.7423 14.2676C54.1369 14.6627 54.7947 14.6627 55.1893 14.2676L57.2942 12.2265C57.6888 11.8314 58.3466 11.8314 58.7412 12.2265L60.8461 14.2676C61.2407 14.6627 61.8985 14.6627 62.2931 14.2676L63.4113 13.2141C64.0033 12.5557 65.0557 13.0166 65.0557 13.9384Z" fill="white"/>
</g>
<path d="M57.0961 25.9219H52.4918C52.0314 25.9219 51.6367 25.5268 51.6367 25.0659C51.6367 24.605 52.0314 24.21 52.4918 24.21H57.0961C57.5566 24.21 57.9512 24.605 57.9512 25.0659C57.9512 25.5268 57.5566 25.9219 57.0961 25.9219Z" fill="#C5CCDE"/>
<path d="M48.2846 25.9219H30.1305C29.67 25.9219 29.2754 25.5268 29.2754 25.0659C29.2754 24.605 29.67 24.21 30.1305 24.21H48.2846C48.7451 24.21 49.1397 24.605 49.1397 25.0659C49.1397 25.5268 48.7451 25.9219 48.2846 25.9219Z" fill="#C5CCDE"/>
<path d="M57.0959 34.0864H49.2027C48.7423 34.0864 48.3477 33.6914 48.3477 33.2305C48.3477 32.7696 48.7423 32.3745 49.2027 32.3745H57.0959C57.5563 32.3745 57.9509 32.7696 57.9509 33.2305C57.9509 33.6914 57.5563 34.0864 57.0959 34.0864Z" fill="#C5CCDE"/>
<path d="M44.9944 34.0864H36.9039C36.4435 34.0864 36.0488 33.6914 36.0488 33.2305C36.0488 32.7696 36.4435 32.3745 36.9039 32.3745H45.0601C45.5206 32.3745 45.9152 32.7696 45.9152 33.2305C45.9152 33.6914 45.4548 34.0864 44.9944 34.0864Z" fill="#C5CCDE"/>
<path d="M33.7462 34.0864H30.1285C29.6681 34.0864 29.2734 33.6914 29.2734 33.2305C29.2734 32.7696 29.6681 32.3745 30.1285 32.3745H33.7462C34.2066 32.3745 34.6013 32.7696 34.6013 33.2305C34.6013 33.6914 34.2066 34.0864 33.7462 34.0864Z" fill="#4988FD"/>
<path d="M43.6116 42.3167H37.3629C36.9025 42.3167 36.5078 41.9216 36.5078 41.4607C36.5078 40.9998 36.9025 40.6047 37.3629 40.6047H43.6116C44.072 40.6047 44.4667 40.9998 44.4667 41.4607C44.4667 41.9216 44.072 42.3167 43.6116 42.3167Z" fill="#C5CCDE"/>
<path d="M34.0093 42.3167H30.1285C29.6681 42.3167 29.2734 41.9216 29.2734 41.4607C29.2734 40.9998 29.6681 40.6047 30.1285 40.6047H34.0093C34.4697 40.6047 34.8644 40.9998 34.8644 41.4607C34.8644 41.9216 34.4697 42.3167 34.0093 42.3167Z" fill="#4988FD"/>
<path d="M43.6126 50.4815H30.1285C29.6681 50.4815 29.2734 50.0864 29.2734 49.6255C29.2734 49.1646 29.6681 48.7695 30.1285 48.7695H43.6126C44.073 48.7695 44.4677 49.1646 44.4677 49.6255C44.4677 50.0864 44.073 50.4815 43.6126 50.4815Z" fill="#C5CCDE"/>
<path d="M43.6118 57C38.8759 57 34.8636 57 30.1277 57C29.0095 57 29.0095 58.6461 30.1277 58.6461C35.324 58.6461 38.4812 58.6461 43.6118 58.6461C44.0722 58.6461 44.4669 58.251 44.4669 57.7901C44.4669 57.3292 44.0722 57 43.6118 57Z" fill="#C5CCDE"/>
<path d="M54.5955 59.5678C53.9378 59.5678 53.4115 59.0411 53.4115 58.3827V57.1316C52.4249 57.0658 51.504 56.8024 50.7147 56.4732C50.1227 56.2098 49.8596 55.5514 50.057 54.8929C50.2543 54.3662 50.7147 54.037 51.2409 54.037C51.4383 54.037 51.5698 54.1028 51.7671 54.1687C52.2934 54.432 53.1484 54.6954 54.2009 54.6954C55.6479 54.6954 56.6346 53.9053 56.6346 52.786C56.6346 51.7325 55.911 51.074 54.2009 50.3497C52.0302 49.4938 50.057 48.3744 50.057 45.8724C50.057 43.8312 51.4383 42.1851 53.6089 41.7242V40.4074C53.6089 39.7489 54.1351 39.2222 54.7928 39.2222C55.4506 39.2222 55.9768 39.7489 55.9768 40.4074V41.5925C56.7661 41.6584 57.4239 41.7901 58.0816 42.0534C58.6736 42.3168 59.0025 43.0411 58.7394 43.6337C58.5421 44.0946 58.0816 44.4238 57.5554 44.4238C57.3581 44.4238 57.2265 44.4238 57.095 44.358C56.4372 44.0946 55.7795 43.9629 55.0559 43.9629C53.4773 43.9629 52.9511 44.8189 52.9511 45.609C52.9511 46.5308 53.5431 47.0576 55.6479 47.9135C58.4105 49.0329 59.5945 50.4814 59.5945 52.6543C59.5945 54.8271 58.0816 56.539 55.8453 56.9999V58.3827C55.7795 59.0411 55.2533 59.5678 54.5955 59.5678Z" fill="#C5CCDE"/>
<defs>
<filter id="filter0_d_3087:17532" x="0.564453" y="0.930176" width="86.4922" height="101.35" filterUnits="userSpaceOnUse" color-interpolation-filters="sRGB">
<feFlood flood-opacity="0" result="BackgroundImageFix"/>
<feColorMatrix in="SourceAlpha" type="matrix" values="0 0 0 0 0 0 0 0 0 0 0 0 0 0 0 0 0 0 127 0" result="hardAlpha"/>
<feOffset dy="11"/>
<feGaussianBlur stdDeviation="11"/>
<feColorMatrix type="matrix" values="0 0 0 0 0.397708 0 0 0 0 0.47749 0 0 0 0 0.575 0 0 0 0.18 0"/>
<feBlend mode="normal" in2="BackgroundImageFix" result="effect1_dropShadow_3087:17532"/>
<feBlend mode="normal" in="SourceGraphic" in2="effect1_dropShadow_3087:17532" result="shape"/>
</filter>
<linearGradient id="paint0_linear_3087:17532" x1="12.9985" y1="67.5751" x2="15.3015" y2="67.5751" gradientUnits="userSpaceOnUse">
<stop stop-color="#FF66A9"/>
<stop offset="1" stop-color="#F53689"/>
</linearGradient>
<linearGradient id="paint1_linear_3087:17532" x1="14.0334" y1="17.1856" x2="16.2009" y2="17.1856" gradientUnits="userSpaceOnUse">
<stop stop-color="#FF66A9"/>
<stop offset="1" stop-color="#F53689"/>
</linearGradient>
</defs>
</svg>
