<svg width="139" height="120" viewBox="0 0 139 120" fill="none" xmlns="http://www.w3.org/2000/svg">
<path d="M11.8162 36.521C13.1399 36.2469 13.9913 34.9503 13.718 33.625C13.4447 32.2996 12.1501 31.4474 10.8264 31.7215C9.50274 31.9956 8.65126 33.2922 8.92458 34.6175C9.1979 35.9429 10.4925 36.7951 11.8162 36.521Z" fill="#EAEEF9"/>
<path d="M18.6036 30.789C19.5037 30.6026 20.0827 29.721 19.8969 28.8197C19.711 27.9185 18.8307 27.339 17.9306 27.5253C17.0305 27.7117 16.4515 28.5934 16.6373 29.4946C16.8232 30.3959 17.7035 30.9754 18.6036 30.789Z" fill="#EAEEF9"/>
<path d="M7.00141 55.3291C7.9149 55.4304 8.73769 54.771 8.83917 53.8563C8.94064 52.9415 8.28237 52.1178 7.36887 52.0165C6.45538 51.9152 5.63258 52.5746 5.53111 53.4893C5.42964 54.404 6.08791 55.2277 7.00141 55.3291Z" fill="url(#paint0_linear_3191_24576)"/>
<path d="M114.734 28.0236C115.432 28.101 116.062 27.5968 116.139 26.8973C116.217 26.1978 115.713 25.5679 115.015 25.4904C114.316 25.4129 113.687 25.9172 113.609 26.6167C113.532 27.3162 114.035 27.9461 114.734 28.0236Z" fill="url(#paint1_linear_3191_24576)"/>
<path d="M124.111 51.7333C125.771 50.5212 126.137 48.1911 124.926 46.5289C123.716 44.8667 121.389 44.5018 119.729 45.7139C118.069 46.9261 117.704 49.2562 118.914 50.9184C120.124 52.5806 122.451 52.9454 124.111 51.7333Z" fill="#EAEEF9"/>
<path d="M11.0391 104.592L128.712 103.995" stroke="#EAEEF9" stroke-width="2" stroke-miterlimit="10" stroke-linecap="round" stroke-linejoin="round"/>
<path d="M74.8167 18.4687L66.4492 17.5405L65.844 22.9965L74.2114 23.9247L74.8167 18.4687Z" fill="#B3BFCF"/>
<path d="M74.8167 18.4687L66.4492 17.5405L66.1898 19.8788L74.5573 20.807L74.8167 18.4687Z" fill="#9FADBF"/>
<path d="M41.8927 25.8187L36.8477 29.8618L39.7832 33.5349L44.8282 29.4918L41.8927 25.8187Z" fill="#B3BFCF"/>
<path d="M94.6628 34.6824L98.6992 39.7329L101.986 37.0988L97.9498 32.0483L94.6628 34.6824Z" fill="#B3BFCF"/>
<path d="M64.1379 104.964C86.3851 107.432 106.423 91.3739 108.894 69.0973C111.366 46.8206 95.334 26.7611 73.0868 24.2932C50.8396 21.8253 30.8014 37.8835 28.3302 60.1602C25.8591 82.4369 41.8907 102.496 64.1379 104.964Z" fill="#D3DAE6"/>
<path d="M61.8684 103.234C84.1155 105.702 104.154 89.6435 106.625 67.3668C109.096 45.0901 93.0645 25.0307 70.8173 22.5628C48.5701 20.0949 28.5319 36.153 26.0607 58.4297C23.5895 80.7064 39.6212 100.766 61.8684 103.234Z" fill="#DAE1ED" stroke="#D3DAE6" stroke-miterlimit="10"/>
<path d="M30.5784 61.1983C29.6054 61.0903 28.9135 60.2245 29.0215 59.2503C29.0432 59.0554 29.0648 58.8605 29.0756 58.7631C31.1615 39.9594 46.9343 25.6328 65.778 25.3561C66.7618 25.3666 67.5618 26.1457 67.5511 27.1308C67.5403 28.1159 66.7619 28.9172 65.7781 28.9067C48.7075 29.1828 34.4589 42.1991 32.5784 59.1517C32.5568 59.3465 32.5459 59.444 32.5243 59.6388C32.4163 60.6131 31.5514 61.3062 30.5784 61.1983Z" fill="#EDF0FC"/>
<path d="M62.1944 100.31C58.2051 99.8675 54.2807 98.8404 50.7238 97.1637C49.7832 96.7635 49.4048 95.7352 49.8048 94.7933C50.2048 93.8514 51.2318 93.4722 52.1724 93.8724C55.4482 95.4193 58.9942 96.3058 62.5943 96.7052C79.4272 98.5725 95.2218 87.6016 99.3186 71.0921C99.524 70.1286 100.475 69.5438 101.438 69.7492C102.4 69.9545 102.984 70.9069 102.778 71.8704C100.627 80.6069 95.3407 88.3052 87.9569 93.601C80.4651 98.9835 71.3406 101.325 62.1944 100.31Z" fill="#C8D3DE"/>
<path d="M97.771 66.384C97.7277 66.7737 97.6953 67.066 97.6521 67.4557C95.1985 84.2461 79.8796 96.256 62.8522 94.3672C45.8247 92.4783 33.5105 77.403 34.7964 60.4831C34.8397 60.0934 34.8721 59.8011 34.9153 59.4114C36.7959 42.4588 51.7688 30.016 68.6665 31.2987C69.0557 31.3419 69.4449 31.385 69.8341 31.4282C87.0561 33.3387 99.4353 48.717 97.8358 65.7994C97.8142 65.9943 97.7926 66.1891 97.771 66.384Z" fill="#EDF0FC"/>
<path d="M97.6515 67.4554C95.1979 84.2458 79.8791 96.2557 62.8516 94.3668C45.8242 92.478 33.5099 77.4027 34.7959 60.4828C37.2494 43.6923 52.5683 31.6824 69.5957 33.5713C86.634 35.3628 98.9483 50.438 97.6515 67.4554Z" fill="white"/>
<path d="M72.4819 83.8951L54.4822 81.8984C53.6065 81.8012 53.0011 81.0437 53.0984 80.1668L54.0927 71.2034C54.19 70.3265 54.9467 69.7201 55.8224 69.8172L73.8221 71.8139C74.6977 71.9111 75.3032 72.6686 75.2059 73.5455L74.2116 82.5089C74.1143 83.3858 73.3576 83.9922 72.4819 83.8951Z" fill="#F2F5FC"/>
<path d="M93.4144 67.4767L88.2578 66.9047C87.3821 66.8075 86.7767 66.05 86.8739 65.1731C86.9712 64.2963 87.7279 63.6898 88.6036 63.7869L93.7603 64.359C94.6359 64.4561 95.2414 65.2137 95.1441 66.0905C95.0468 66.9674 94.1928 67.563 93.4144 67.4767Z" fill="#DAE1ED"/>
<path d="M42.5277 61.8317L37.371 61.2596C36.4954 61.1625 35.89 60.405 35.9872 59.5281C36.0845 58.6512 36.8412 58.0448 37.7169 58.1419L42.8736 58.714C43.7492 58.8111 44.3546 59.5687 44.2574 60.4455C44.1601 61.3224 43.3061 61.918 42.5277 61.8317Z" fill="#DAE1ED"/>
<path d="M62.267 92.5283C61.3913 92.4312 60.7859 91.6737 60.8832 90.7968L61.456 85.6331C61.5533 84.7562 62.31 84.1498 63.1856 84.2469C64.0613 84.344 64.6667 85.1016 64.5694 85.9785L63.9966 91.1422C63.8021 92.0082 63.0453 92.6147 62.267 92.5283Z" fill="#DAE1ED"/>
<path d="M67.9223 41.573C67.0466 41.4759 66.4412 40.7183 66.5385 39.8415L67.1005 34.7752C67.1978 33.8983 67.9545 33.2919 68.8302 33.389C69.7058 33.4861 70.3112 34.2437 70.214 35.1205L69.6412 40.2843C69.4574 41.0529 68.7007 41.6594 67.9223 41.573Z" fill="#DAE1ED"/>
<path d="M65.4779 67.1394C68.1109 67.4315 70.4825 65.5308 70.7749 62.8942C71.0674 60.2576 69.17 57.8834 66.537 57.5914C63.904 57.2993 61.5324 59.1999 61.2399 61.8365C60.9475 64.4731 62.8448 66.8473 65.4779 67.1394Z" fill="#F2F5FC"/>
<path d="M88.3421 45.711C87.8124 45.159 86.9367 45.0619 86.3961 45.4951L67.5962 61.3598C67.4989 61.349 67.4989 61.349 67.4016 61.3382C66.1367 61.1979 65.0557 62.0643 64.9152 63.3308C64.9044 63.4283 64.8935 63.5257 64.8827 63.6231L61.8449 66.1463C61.2936 66.6769 61.1963 67.5538 61.6288 68.0949C61.8882 68.4196 62.1693 68.5494 62.5585 68.5926C62.9477 68.6357 63.3477 68.5815 63.5747 68.3108L66.6126 65.7876C66.7099 65.7984 66.8072 65.8092 66.8072 65.8092C68.0721 65.9495 69.1531 65.0831 69.2936 63.8165C69.3045 63.7191 69.3153 63.6217 69.3261 63.5243L88.1152 47.757C88.7746 47.1397 88.8719 46.2629 88.3421 45.711Z" fill="#DAE1ED"/>
<path d="M87.1976 44.5005C86.6678 43.9486 85.7921 43.8515 85.2516 44.2846L66.4517 60.1494C66.3544 60.1386 66.3544 60.1386 66.2571 60.1278C64.9922 59.9875 63.9111 60.8538 63.7706 62.1204C63.7598 62.2178 63.749 62.3152 63.7382 62.4127L60.7004 64.9359C60.149 65.4665 60.0518 66.3434 60.4842 66.8845C60.7437 67.2091 61.0248 67.3389 61.414 67.3821C61.8032 67.4253 62.2032 67.371 62.4302 67.1003L65.468 64.5771C65.5653 64.5879 65.6626 64.5987 65.6626 64.5987C66.9275 64.739 68.0086 63.8727 68.1491 62.6061C68.1599 62.5087 68.1707 62.4112 68.1815 62.3138L86.9706 46.5465C87.6301 45.9293 87.63 45.0416 87.1976 44.5005Z" fill="#EB358A"/>
<path d="M86.5584 44.9218L61.0459 66.2554C60.8513 66.2338 60.8513 66.2338 60.6567 66.2122C60.4946 65.8984 60.6351 65.5194 60.8621 65.2487L85.4124 44.5974C85.7367 44.3375 86.2232 44.3914 86.4935 44.6187C86.6881 44.6403 86.6665 44.8351 86.5584 44.9218Z" fill="#FF4FA2"/>
<path d="M79.6614 11.2144L79.0777 16.4755C78.8508 18.5215 77.0238 19.8969 75.0779 19.6811L66.1267 18.6881C64.0835 18.4614 62.7105 16.6325 62.9266 14.6839L63.5103 9.42273C63.7372 7.37673 65.5642 6.00135 67.5101 6.21722L76.4613 7.21018C78.5045 7.43684 79.8775 9.26582 79.6614 11.2144Z" fill="#1C3754"/>
<path d="M79.6614 11.2144L79.0777 16.4755C78.8508 18.5215 77.0238 19.8969 75.0779 19.6811L66.1267 18.6881C64.0835 18.4614 62.7105 16.6325 62.9266 14.6839L63.0347 13.7096C63.3375 16.3075 65.5753 16.5557 65.5753 16.5557L74.8184 17.5811C76.0832 17.7214 77.2724 16.7684 77.4129 15.5018L77.8344 11.7021C78.1262 9.07154 77.7478 8.04329 76.4613 7.21018C78.5045 7.43684 79.8775 9.26582 79.6614 11.2144Z" fill="#172D45"/>
<path d="M64.22 15.4219C63.9281 15.3895 63.7552 15.173 63.7876 14.8808L64.4577 8.84017C64.4901 8.54788 64.7063 8.37461 64.9982 8.40699C65.2901 8.43937 65.4631 8.65582 65.4306 8.9481L64.7605 14.9887C64.6308 15.2702 64.4146 15.4434 64.22 15.4219Z" fill="#2D5887"/>
<path d="M66.4583 15.668C66.1664 15.6356 65.9934 15.4191 66.0259 15.1268L66.696 9.08626C66.7284 8.79398 66.9446 8.62071 67.2365 8.65309C67.5284 8.68547 67.7013 8.90191 67.6689 9.1942L66.9988 15.2348C66.9664 15.5271 66.7502 15.7003 66.4583 15.668Z" fill="#2D5887"/>
<path d="M68.7943 15.9297C68.5024 15.8973 68.3294 15.6808 68.3618 15.3886L69.0319 9.34798C69.0643 9.0557 69.2805 8.88243 69.5724 8.91481C69.8643 8.94718 70.0373 9.16363 70.0049 9.45591L69.3348 15.4965C69.205 15.778 68.9888 15.9513 68.7943 15.9297Z" fill="#2D5887"/>
<path d="M71.0325 16.1758C70.7406 16.1434 70.5677 15.9269 70.6001 15.6347L71.2702 9.59408C71.3026 9.30179 71.5188 9.12852 71.8107 9.1609C72.1026 9.19328 72.2756 9.40972 72.2431 9.70201L71.573 15.7426C71.5406 16.0349 71.3244 16.2081 71.0325 16.1758Z" fill="#2D5887"/>
<path d="M73.3685 16.4336C73.0766 16.4012 72.9036 16.1848 72.936 15.8925L73.6061 9.85189C73.6385 9.5596 73.8547 9.38633 74.1466 9.41871C74.4385 9.45109 74.6115 9.66753 74.5791 9.95982L73.909 16.0004C73.7793 16.2819 73.5631 16.4552 73.3685 16.4336Z" fill="#2D5887"/>
<path d="M75.6068 16.6836C75.3149 16.6512 75.1419 16.4348 75.1743 16.1425L75.8444 10.1019C75.8768 9.8096 76.093 9.63633 76.3849 9.66871C76.6768 9.70109 76.8498 9.91753 76.8174 10.2098L76.1473 16.2504C76.1148 16.5427 75.8013 16.7052 75.6068 16.6836Z" fill="#2D5887"/>
<path opacity="0.7" d="M77.845 16.9316C77.5531 16.8992 77.3802 16.6828 77.4126 16.3905L78.0827 10.3499C78.1151 10.0577 78.3313 9.88438 78.6232 9.91676C78.9151 9.94914 79.0881 10.1656 79.0556 10.4579L78.3855 16.4984C78.3531 16.7907 78.1369 16.964 77.845 16.9316Z" fill="#2D5887"/>
<path d="M42.7184 26.3508L37.3132 30.6826C36.1241 31.6356 34.3728 31.4413 33.3241 30.24L30.8159 27.1016C29.8646 25.9112 30.0591 24.1575 31.2591 23.107L36.6643 18.7753C37.8534 17.8223 39.6047 18.0165 40.6534 19.2178L43.1615 22.3562C44.1021 23.6441 43.9075 25.3978 42.7184 26.3508Z" fill="#1C3754"/>
<path d="M97.0117 32.3715L101.336 37.7826C102.287 38.9731 104.039 39.1673 105.325 38.2251L108.46 35.7127C109.649 34.7597 109.844 33.006 108.903 31.7181L104.579 26.307C103.628 25.1166 101.876 24.9223 100.59 25.8645L97.4548 28.377C96.2548 29.4274 96.0603 31.1811 97.0117 32.3715Z" fill="#1C3754"/>
<path d="M65.9628 62.7561C66.1778 62.7799 66.3714 62.6247 66.3953 62.4094C66.4192 62.194 66.2643 62.0001 66.0493 61.9763C65.8344 61.9524 65.6408 62.1077 65.6169 62.323C65.593 62.5384 65.7479 62.7323 65.9628 62.7561Z" fill="#1C3754"/>
<g filter="url(#filter0_d_3191_24576)">
<path d="M113.559 91.0166C113.407 92.3806 113.072 93.6256 112.64 94.8598C112.359 95.6177 112.089 96.2781 111.721 96.9277C109.591 101.031 105.797 104.161 101.321 105.44C101.213 105.526 101.116 105.515 101.018 105.505C100.716 105.57 100.413 105.635 100.013 105.689C98.2941 106.09 96.5211 106.091 94.7697 105.896C85.4289 104.86 78.6825 96.4188 79.7201 87.0656C80.7576 77.7125 89.1792 71.0523 98.52 72.0885C107.85 73.2221 114.596 81.6635 113.559 91.0166Z" fill="url(#paint2_linear_3191_24576)"/>
</g>
<path d="M112.638 94.8596C112.357 95.6174 112.086 96.2778 111.719 96.9275C109.589 101.031 105.795 104.161 101.319 105.439L92.93 94.9418L91.8057 93.5349L102.076 86.1922L105.384 84.7839L112.735 93.9827L112.638 94.8596Z" fill="url(#paint3_linear_3191_24576)"/>
<path d="M94.1427 95.5689C93.6563 95.5149 93.1914 95.2661 92.8455 94.8332L89.3859 90.5044C88.694 89.6386 88.8345 88.372 89.6994 87.6789C90.5642 86.9858 91.829 87.1262 92.5209 87.9919L94.6831 90.6975L102.575 84.3731C103.44 83.68 104.704 83.8203 105.396 84.6861C106.088 85.5519 105.948 86.8184 105.083 87.5115L95.667 95.1462C95.2346 95.4928 94.6292 95.6229 94.1427 95.5689Z" fill="url(#paint4_linear_3191_24576)"/>
<path opacity="0.4" d="M97.8268 65.895L65.3287 62.2899L68.7656 31.3076C69.1548 31.3508 69.544 31.394 69.9332 31.4371C87.058 33.3368 99.4371 48.7152 97.8268 65.895Z" fill="url(#paint5_linear_3191_24576)"/>
<defs>
<filter id="filter0_d_3191_24576" x="71.6133" y="68.9824" width="50.0508" height="50.0405" filterUnits="userSpaceOnUse" color-interpolation-filters="sRGB">
<feFlood flood-opacity="0" result="BackgroundImageFix"/>
<feColorMatrix in="SourceAlpha" type="matrix" values="0 0 0 0 0 0 0 0 0 0 0 0 0 0 0 0 0 0 127 0" result="hardAlpha"/>
<feOffset dy="5"/>
<feGaussianBlur stdDeviation="4"/>
<feColorMatrix type="matrix" values="0 0 0 0 0.1125 0 0 0 0 0.295916 0 0 0 0 1 0 0 0 0.22 0"/>
<feBlend mode="normal" in2="BackgroundImageFix" result="effect1_dropShadow_3191_24576"/>
<feBlend mode="normal" in="SourceGraphic" in2="effect1_dropShadow_3191_24576" result="shape"/>
</filter>
<linearGradient id="paint0_linear_3191_24576" x1="5.53011" y1="53.4984" x2="8.74612" y2="53.8551" gradientUnits="userSpaceOnUse">
<stop stop-color="#83A6FF"/>
<stop offset="1" stop-color="#5A78FF"/>
</linearGradient>
<linearGradient id="paint1_linear_3191_24576" x1="113.604" y1="26.6341" x2="116.116" y2="26.9127" gradientUnits="userSpaceOnUse">
<stop stop-color="#FF66A9"/>
<stop offset="1" stop-color="#F53689"/>
</linearGradient>
<linearGradient id="paint2_linear_3191_24576" x1="89.1094" y1="74.2432" x2="104.6" y2="104.652" gradientUnits="userSpaceOnUse">
<stop stop-color="#83A6FF"/>
<stop offset="1" stop-color="#5A78FF"/>
</linearGradient>
<linearGradient id="paint3_linear_3191_24576" x1="98.7109" y1="89.274" x2="108.226" y2="101.147" gradientUnits="userSpaceOnUse">
<stop stop-color="#4F6AFF"/>
<stop offset="1" stop-color="#657EFF" stop-opacity="0"/>
</linearGradient>
<linearGradient id="paint4_linear_3191_24576" x1="101.194" y1="92.385" x2="94.9779" y2="84.6286" gradientUnits="userSpaceOnUse">
<stop offset="0.0113208" stop-color="#C2D1FF"/>
<stop offset="1" stop-color="white"/>
</linearGradient>
<linearGradient id="paint5_linear_3191_24576" x1="65.8287" y1="37.2476" x2="91.6945" y2="69.5242" gradientUnits="userSpaceOnUse">
<stop stop-color="#EF4896"/>
<stop offset="1" stop-color="#F14D9A" stop-opacity="0"/>
</linearGradient>
</defs>
</svg>
