<svg width="24" height="24" viewBox="0 0 24 24" fill="none" xmlns="http://www.w3.org/2000/svg">
<g clip-path="url(#clip0_8285_62837)">
<path d="M23.6383 14.9029C22.0356 21.3315 15.5244 25.2438 9.09503 23.6407C2.66833 22.038 -1.24401 15.5265 0.359382 9.09837C1.96136 2.66903 8.47253 -1.24361 14.8999 0.359081C21.3289 1.96177 25.241 8.47404 23.6381 14.903L23.6382 14.9029H23.6383Z" fill="#26A17B"/>
<path fill-rule="evenodd" clip-rule="evenodd" d="M13.1047 12.7732C13.0263 12.779 12.6212 12.803 11.7174 12.803C10.9987 12.803 10.4883 12.7816 10.3093 12.7732C7.53151 12.652 5.45814 12.1727 5.45814 11.5988C5.45814 11.025 7.53151 10.5463 10.3093 10.4232V12.2958C10.4909 12.3087 11.0111 12.3392 11.7299 12.3392C12.5924 12.3392 13.0243 12.3036 13.1021 12.2964V10.4245C15.874 10.547 17.9428 11.0263 17.9428 11.5988C17.9428 12.1714 15.8746 12.6507 13.1021 12.7725L13.1047 12.7732ZM13.1047 10.2309V8.55524H16.9731V6H6.44092V8.55524H10.3086V10.2302C7.16493 10.3734 4.80078 10.9906 4.80078 11.7303C4.80078 12.47 7.16493 13.0867 10.3086 13.2304V18.6H13.104V13.2285C16.2406 13.0854 18.6008 12.4687 18.6008 11.7297C18.6008 10.9906 16.2425 10.374 13.104 10.2302L13.1047 10.2309Z" fill="white"/>
</g>
<defs>
<clipPath id="clip0_8285_62837">
<rect width="24" height="24" fill="white"/>
</clipPath>
</defs>
</svg>
