<svg width="24" height="24" viewBox="0 0 24 24" fill="none" xmlns="http://www.w3.org/2000/svg">
<g clip-path="url(#clip0_6507_53392)">
<path d="M17.7143 11H6.28571C5.02335 11 4 11.985 4 13.2V19.8C4 21.015 5.02335 22 6.28571 22H17.7143C18.9767 22 20 21.015 20 19.8V13.2C20 11.985 18.9767 11 17.7143 11Z" stroke="#4B5563" stroke-width="1.5" stroke-linecap="round" stroke-linejoin="round"/>
<path d="M12 17C12.5523 17 13 16.5523 13 16C13 15.4477 12.5523 15 12 15C11.4477 15 11 15.4477 11 16C11 16.5523 11.4477 17 12 17Z" stroke="#4B5563" stroke-width="1.5" stroke-linecap="round" stroke-linejoin="round"/>
<path d="M8 11V6.5C8 5.30653 8.42143 4.16193 9.17157 3.31802C9.92172 2.47411 10.9391 2 12 2C13.0609 2 14.0783 2.47411 14.8284 3.31802C15.5786 4.16193 16 5.30653 16 6.5V11" stroke="#4B5563" stroke-width="1.5" stroke-linecap="round" stroke-linejoin="round"/>
</g>
<defs>
<clipPath id="clip0_6507_53392">
<rect width="24" height="24" fill="white"/>
</clipPath>
</defs>
</svg>
