<svg width="24" height="24" viewBox="0 0 24 24" fill="none" xmlns="http://www.w3.org/2000/svg">
<path d="M5.49718 5H18.4972C18.6412 5.05051 18.7717 5.13331 18.8788 5.24206C18.9859 5.35082 19.0667 5.48264 19.1149 5.62742C19.1632 5.77221 19.1777 5.92612 19.1572 6.07737C19.1368 6.22861 19.0821 6.37318 18.9972 6.5L13.9972 12V19L9.99718 16V12L4.99718 6.5C4.91227 6.37318 4.85751 6.22861 4.83711 6.07737C4.8167 5.92612 4.83118 5.77221 4.87944 5.62742C4.9277 5.48264 5.00847 5.35082 5.11554 5.24206C5.22261 5.13331 5.35316 5.05051 5.49718 5Z" stroke="#4B5563" stroke-width="1.5" stroke-linecap="round" stroke-linejoin="round"/>
</svg>
