<svg width="24" height="24" viewBox="0 0 24 24" fill="none" xmlns="http://www.w3.org/2000/svg">
    <g clip-path="url(#clip0_5196_12534)">
        <path d="M3 13.125C5.00598 13.3634 6.87343 14.2697 8.30185 15.6981C9.73027 17.1266 10.6366 18.994 10.875 21C11.8694 20.4267 12.7012 19.6093 13.2918 18.6251C13.8823 17.6408 14.2121 16.5222 14.25 15.375C16.139 14.7105 17.7885 13.5007 18.99 11.8988C20.1915 10.2968 20.891 8.37451 21 6.375C21 5.47989 20.6444 4.62145 20.0115 3.98851C19.3786 3.35558 18.5201 3 17.625 3C15.6255 3.10902 13.7032 3.8085 12.1012 5.00998C10.4993 6.21147 9.28952 7.861 8.625 9.75C7.4778 9.78789 6.3592 10.1177 5.37495 10.7082C4.39069 11.2988 3.57329 12.1306 3 13.125"
              stroke="#3579FC" stroke-width="1.5" stroke-linecap="round" stroke-linejoin="round"/>
        <path d="M6.5 14.5C5.29586 15.1798 4.35127 15.7037 3.73287 16.9405C3.11447 18.1773 2.87954 19.5706 3.05818 20.9418C4.42937 21.1205 5.82267 20.8855 7.05947 20.2671C8.29627 19.6487 8.8202 18.7041 9.5 17.5"
              stroke="#3579FC" stroke-width="1.5" stroke-linecap="round" stroke-linejoin="round"/>
        <path d="M15.5 10C16.3284 10 17 9.32843 17 8.5C17 7.67157 16.3284 7 15.5 7C14.6716 7 14 7.67157 14 8.5C14 9.32843 14.6716 10 15.5 10Z"
              stroke="#3579FC" stroke-width="1.5" stroke-linecap="round" stroke-linejoin="round"/>
    </g>
    <defs>
        <clipPath id="clip0_5196_12534">
            <rect width="24" height="24" fill="white"/>
        </clipPath>
    </defs>
</svg>
