<svg width="185" height="197" viewBox="0 0 185 197" fill="none" xmlns="http://www.w3.org/2000/svg">
<g filter="url(#filter0_d_35_21)">
<circle cx="124" cy="53" r="24" fill="white"/>
</g>
<path d="M124 69.5C133.113 69.5 140.5 62.1127 140.5 53C140.5 43.8873 133.113 36.5 124 36.5C114.887 36.5 107.5 43.8873 107.5 53C107.5 62.1127 114.887 69.5 124 69.5Z" stroke="#126BDC" stroke-width="2.75" stroke-linecap="round" stroke-linejoin="round"/>
<path d="M124 54.8333C127.038 54.8333 129.5 52.3709 129.5 49.3333C129.5 46.2957 127.038 43.8333 124 43.8333C120.962 43.8333 118.5 46.2957 118.5 49.3333C118.5 52.3709 120.962 54.8333 124 54.8333Z" stroke="#126BDC" stroke-width="2.75" stroke-linecap="round" stroke-linejoin="round"/>
<path d="M113.308 65.5565C113.762 64.0462 114.69 62.7225 115.956 61.7816C117.221 60.8407 118.756 60.3328 120.333 60.3333H127.667C129.246 60.3328 130.783 60.8419 132.049 61.7849C133.316 62.728 134.244 64.0546 134.696 65.5675" stroke="#126BDC" stroke-width="2.75" stroke-linecap="round" stroke-linejoin="round"/>
<defs>
<filter id="filter0_d_35_21" x="0" y="-51" width="248" height="248" filterUnits="userSpaceOnUse" color-interpolation-filters="sRGB">
<feFlood flood-opacity="0" result="BackgroundImageFix"/>
<feColorMatrix in="SourceAlpha" type="matrix" values="0 0 0 0 0 0 0 0 0 0 0 0 0 0 0 0 0 0 127 0" result="hardAlpha"/>
<feOffset dy="20"/>
<feGaussianBlur stdDeviation="50"/>
<feColorMatrix type="matrix" values="0 0 0 0 0 0 0 0 0 0.317647 0 0 0 0 0.976471 0 0 0 0.8 0"/>
<feBlend mode="normal" in2="BackgroundImageFix" result="effect1_dropShadow_35_21"/>
<feBlend mode="normal" in="SourceGraphic" in2="effect1_dropShadow_35_21" result="shape"/>
</filter>
</defs>
</svg>
