<svg width="21" height="21" viewBox="0 0 21 21" fill="none" xmlns="http://www.w3.org/2000/svg">
<path d="M18.6693 12.0007V6.33398C18.6693 4.67713 17.3261 3.33398 15.6693 3.33398H4.33594C2.67908 3.33398 1.33594 4.67713 1.33594 6.33398V15.6673C1.33594 17.3242 2.67908 18.6673 4.33594 18.6673H12.0026" stroke="#4B5563" stroke-width="1.5" stroke-linecap="round"/>
<path d="M1.33594 8.0013H18.6693" stroke="#4B5563" stroke-width="1.5" stroke-linecap="round"/>
<path d="M5.33333 1.33398V5.33398" stroke="#4B5563" stroke-width="1.5" stroke-linecap="round"/>
<path d="M14.6693 1.33398V5.33398" stroke="#4B5563" stroke-width="1.5" stroke-linecap="round"/>
<path fill-rule="evenodd" clip-rule="evenodd" d="M14.6667 19.3333C17.244 19.3333 19.3333 17.244 19.3333 14.6667C19.3333 12.0893 17.244 10 14.6667 10C12.0893 10 10 12.0893 10 14.6667C10 17.244 12.0893 19.3333 14.6667 19.3333Z" stroke="#4B5563" stroke-width="1.5" stroke-linecap="round"/>
<path d="M13.3359 14.6667H16.0026" stroke="#4B5563" stroke-width="1.5" stroke-linecap="round"/>
<path d="M14.6667 13.334V16.0007" stroke="#4B5563" stroke-width="1.5" stroke-linecap="round"/>
</svg>
