<svg width="46" height="33" viewBox="0 0 46 33" fill="none" xmlns="http://www.w3.org/2000/svg">
<path d="M45.0414 5.02736C44.5145 3.05154 42.9558 1.49284 40.9726 0.958638C37.3869 3.48942e-07 23 0 23 0C23 0 8.62043 3.48942e-07 5.02736 0.958638C3.05154 1.48552 1.49284 3.04422 0.958638 5.02736C0 8.61311 0 16.0993 0 16.0993C0 16.0993 0 23.5854 0.958638 27.1712C1.48552 29.147 3.04423 30.7057 5.02736 31.2399C8.62043 32.1985 23 32.1985 23 32.1985C23 32.1985 37.3869 32.1985 40.9726 31.2399C42.9485 30.713 44.5072 29.1543 45.0414 27.1712C46 23.5854 46 16.0993 46 16.0993C46 16.0993 46 8.61311 45.0414 5.02736Z" fill="#FF0000"/>
<path d="M18.4043 23.0001L30.3543 16.0993L18.4043 9.19861V23.0001Z" fill="white"/>
</svg>
