<svg version="1.1" xmlns="http://www.w3.org/2000/svg" x="0px" y="0px" viewBox="0 0 480 480"
     style="enable-background:new 0 0 480 480;" xml:space="preserve">

    <path d="M446.224,40H33.776C15.19,39.96,0.079,54.974,0,73.56v255.552c0.079,18.586,15.19,33.6,33.776,33.56h176.128V424H107.432
		c-4.418,0-8,3.582-8,8s3.582,8,8,8h265.136c4.418,0,8-3.582,8-8s-3.582-8-8-8H270.096v-61.328h176.128
        c18.586,0.04,33.697-14.974,33.776-33.56V73.56C479.921,54.974,464.81,39.96,446.224,40z M254.096,424h-28.192v-61.328h28.192V424
        z M464,329.112c-0.07,9.753-8.023,17.609-17.776,17.56H33.776c-9.753,0.049-17.706-7.807-17.776-17.56v-21.68h448V329.112z
         M464,291.432H16V73.56c0.07-9.753,8.023-17.609,17.776-17.56h412.448c9.753-0.049,17.706,7.807,17.776,17.56V291.432z"/>

    <path d="M168,193.336h-8v-64c0-4.418-3.582-8-8-8s-8,3.582-8,8v64h-32c-4.418,0-8-3.582-8-8v-56c0-4.418-3.582-8-8-8s-8,3.582-8,8
        v56c0,13.255,10.745,24,24,24h32v16c0,4.418,3.582,8,8,8s8-3.582,8-8v-16h8c4.418,0,8-3.582,8-8S172.418,193.336,168,193.336z"/>

    <path d="M384,193.336h-8v-64c0-4.418-3.582-8-8-8s-8,3.582-8,8v64h-32c-4.418,0-8-3.582-8-8v-56c0-4.418-3.582-8-8-8s-8,3.582-8,8
        v56c0,13.255,10.745,24,24,24h32v16c0,4.418,3.582,8,8,8s8-3.582,8-8v-16h8c4.418,0,8-3.582,8-8S388.418,193.336,384,193.336z"/>

    <path d="M264,121.336h-48c-13.255,0-24,10.745-24,24v64c0,13.255,10.745,24,24,24h48c13.255,0,24-10.745,24-24v-64
        C288,132.081,277.255,121.336,264,121.336z M272,209.336c0,4.418-3.582,8-8,8h-48c-4.418,0-8-3.582-8-8v-64c0-4.418,3.582-8,8-8
        h48c4.418,0,8,3.582,8,8V209.336z"/>
</svg>
