<svg width="16" height="16" viewBox="0 0 16 16" fill="none" xmlns="http://www.w3.org/2000/svg">
    <path id="close" opacity="0.3"
          d="M1.64648 13.6465L1.11615 13.1162L0.585824 13.6465L1.11615 14.1768L1.64648 13.6465ZM7.29293 8.00004L7.82326 8.53037L8.35359 8.00004L7.82326 7.46971L7.29293 8.00004ZM2.35359 14.3536L1.82326 14.8839L2.35359 15.4143L2.88392 14.8839L2.35359 14.3536ZM8.00004 8.70715L8.53037 8.17682L8.00004 7.64648L7.46971 8.17682L8.00004 8.70715ZM13.6465 14.3536L13.1162 14.8839L13.6465 15.4143L14.1768 14.8839L13.6465 14.3536ZM14.3536 13.6465L14.8839 14.1768L15.4143 13.6465L14.8839 13.1162L14.3536 13.6465ZM8.70715 8.00004L8.17682 7.46971L7.64648 8.00004L8.17682 8.53037L8.70715 8.00004ZM14.3536 2.35359L14.8839 2.88392L15.4143 2.35359L14.8839 1.82326L14.3536 2.35359ZM13.6465 1.64648L14.1768 1.11615L13.6465 0.585824L13.1162 1.11615L13.6465 1.64648ZM8.00004 7.29293L7.46971 7.82326L8.00004 8.35359L8.53037 7.82326L8.00004 7.29293ZM2.35359 1.64648L2.88392 1.11615L2.35359 0.585824L1.82326 1.11615L2.35359 1.64648ZM1.64648 2.35359L1.11615 1.82326L0.585824 2.35359L1.11615 2.88392L1.64648 2.35359ZM2.17681 14.1768L7.82326 8.53037L6.7626 7.46971L1.11615 13.1162L2.17681 14.1768ZM2.88392 13.8233L2.17681 13.1162L1.11615 14.1768L1.82326 14.8839L2.88392 13.8233ZM7.46971 8.17682L1.82326 13.8233L2.88392 14.8839L8.53037 9.23748L7.46971 8.17682ZM7.46971 9.23748L13.1162 14.8839L14.1768 13.8233L8.53037 8.17682L7.46971 9.23748ZM14.1768 14.8839L14.8839 14.1768L13.8233 13.1162L13.1162 13.8233L14.1768 14.8839ZM14.8839 13.1162L9.23748 7.46971L8.17682 8.53037L13.8233 14.1768L14.8839 13.1162ZM13.8233 1.82326L8.17682 7.46971L9.23748 8.53037L14.8839 2.88392L13.8233 1.82326ZM13.1162 2.17681L13.8233 2.88392L14.8839 1.82326L14.1768 1.11615L13.1162 2.17681ZM8.53037 7.82326L14.1768 2.17681L13.1162 1.11615L7.46971 6.7626L8.53037 7.82326ZM8.53037 6.7626L2.88392 1.11615L1.82326 2.17681L7.46971 7.82326L8.53037 6.7626ZM1.82326 1.11615L1.11615 1.82326L2.17681 2.88392L2.88392 2.17681L1.82326 1.11615ZM1.11615 2.88392L6.7626 8.53037L7.82326 7.46971L2.17681 1.82326L1.11615 2.88392Z"
          fill="#204569"/>
</svg>
