<svg width="24" height="24" viewBox="0 0 24 24" fill="none" xmlns="http://www.w3.org/2000/svg">
<path d="M19.917 5.97534C19.917 5.71123 19.8121 5.45793 19.6254 5.27117C19.4386 5.08441 19.1853 4.97949 18.9212 4.97949C18.6571 4.97949 18.4038 5.08441 18.217 5.27117C18.0302 5.45793 17.9253 5.71123 17.9253 5.97534V10.9546C17.9261 11.0857 17.901 11.2156 17.8514 11.3369C17.8018 11.4582 17.7288 11.5686 17.6365 11.6616C17.5435 11.7539 17.4331 11.827 17.3118 11.8765C17.1905 11.9261 17.0605 11.9512 16.9295 11.9504H8.04649L10.7253 8.57451C10.8028 8.37406 10.8134 8.15392 10.7555 7.94696C10.6975 7.74 10.5742 7.55733 10.4039 7.42624C10.2336 7.29516 10.0255 7.22268 9.81058 7.21964C9.59569 7.21659 9.38558 7.28315 9.21163 7.40937L5.22823 12.3886C5.08682 12.5652 5.00977 12.7848 5.00977 13.011C5.00977 13.2373 5.08682 13.4568 5.22823 13.6334L9.21163 18.6127C9.30536 18.7282 9.42379 18.8213 9.5582 18.8851C9.69262 18.9488 9.83962 18.9817 9.9884 18.9811C10.213 18.9798 10.4306 18.9026 10.6058 18.7621C10.7081 18.6799 10.7932 18.5783 10.8561 18.4631C10.919 18.348 10.9585 18.2215 10.9724 18.091C10.9863 17.9606 10.9743 17.8286 10.937 17.7028C10.8997 17.577 10.8379 17.4598 10.7552 17.3579L8.10624 14.0119H16.9892C17.7816 14.0119 18.5415 13.6971 19.1017 13.1368C19.662 12.5765 19.9768 11.8167 19.9768 11.0243L19.917 5.97534Z" fill="#696F80"/>
</svg>
